G75*
%MOIN*%
%OFA0B0*%
%FSLAX24Y24*%
%IPPOS*%
%LPD*%
%AMOC8*
5,1,8,0,0,1.08239X$1,22.5*
%
%ADD10C,0.0050*%
%ADD11C,0.0030*%
%ADD12C,0.0040*%
%ADD13C,0.0080*%
%ADD14C,0.0100*%
%ADD15C,0.0010*%
D10*
X005996Y003163D02*
X006263Y003430D01*
X006263Y003163D01*
X006196Y003096D01*
X006063Y003096D01*
X005996Y003163D01*
X005996Y003430D01*
X006063Y003497D01*
X006196Y003497D01*
X006263Y003430D01*
X006411Y003430D02*
X006477Y003497D01*
X006611Y003497D01*
X006678Y003430D01*
X006411Y003163D01*
X006477Y003096D01*
X006611Y003096D01*
X006678Y003163D01*
X006678Y003430D01*
X006411Y003430D02*
X006411Y003163D01*
X007496Y003163D02*
X007763Y003430D01*
X007763Y003163D01*
X007696Y003096D01*
X007563Y003096D01*
X007496Y003163D01*
X007496Y003430D01*
X007563Y003497D01*
X007696Y003497D01*
X007763Y003430D01*
X007911Y003363D02*
X008044Y003497D01*
X008044Y003096D01*
X007911Y003096D02*
X008178Y003096D01*
X008896Y003163D02*
X009163Y003430D01*
X009163Y003163D01*
X009096Y003096D01*
X008963Y003096D01*
X008896Y003163D01*
X008896Y003430D01*
X008963Y003497D01*
X009096Y003497D01*
X009163Y003430D01*
X009311Y003430D02*
X009377Y003497D01*
X009511Y003497D01*
X009578Y003430D01*
X009578Y003363D01*
X009311Y003096D01*
X009578Y003096D01*
X010296Y003163D02*
X010563Y003430D01*
X010563Y003163D01*
X010496Y003096D01*
X010363Y003096D01*
X010296Y003163D01*
X010296Y003430D01*
X010363Y003497D01*
X010496Y003497D01*
X010563Y003430D01*
X010711Y003430D02*
X010777Y003497D01*
X010911Y003497D01*
X010978Y003430D01*
X010978Y003363D01*
X010911Y003297D01*
X010978Y003230D01*
X010978Y003163D01*
X010911Y003096D01*
X010777Y003096D01*
X010711Y003163D01*
X010844Y003297D02*
X010911Y003297D01*
X011796Y003297D02*
X012063Y003297D01*
X012063Y003363D02*
X012063Y003096D01*
X012211Y003163D02*
X012211Y003430D01*
X012277Y003497D01*
X012411Y003497D01*
X012478Y003430D01*
X012211Y003163D01*
X012277Y003096D01*
X012411Y003096D01*
X012478Y003163D01*
X012478Y003430D01*
X012063Y003363D02*
X011930Y003497D01*
X011796Y003363D01*
X011796Y003096D01*
X013146Y003096D02*
X013146Y003363D01*
X013280Y003497D01*
X013413Y003363D01*
X013413Y003096D01*
X013561Y003096D02*
X013828Y003096D01*
X013694Y003096D02*
X013694Y003497D01*
X013561Y003363D01*
X013413Y003297D02*
X013146Y003297D01*
X015025Y003247D02*
X015025Y003113D01*
X015091Y003046D01*
X015158Y003046D01*
X015225Y003113D01*
X015225Y003247D01*
X015292Y003313D01*
X015358Y003313D01*
X015425Y003247D01*
X015425Y003113D01*
X015358Y003046D01*
X015091Y003313D02*
X015025Y003247D01*
X015091Y003461D02*
X015025Y003528D01*
X015025Y003661D01*
X015091Y003728D01*
X015025Y003875D02*
X015425Y003875D01*
X015425Y004142D01*
X015358Y003728D02*
X015425Y003661D01*
X015425Y003528D01*
X015358Y003461D01*
X015091Y003461D01*
X016475Y003461D02*
X016475Y003661D01*
X016541Y003728D01*
X016808Y003728D01*
X016875Y003661D01*
X016875Y003461D01*
X016475Y003461D01*
X016541Y003313D02*
X016475Y003247D01*
X016475Y003113D01*
X016541Y003046D01*
X016608Y003046D01*
X016675Y003113D01*
X016675Y003247D01*
X016742Y003313D01*
X016808Y003313D01*
X016875Y003247D01*
X016875Y003113D01*
X016808Y003046D01*
X016875Y003875D02*
X016608Y003875D01*
X016475Y004009D01*
X016608Y004142D01*
X016875Y004142D01*
X016675Y004142D02*
X016675Y003875D01*
X018025Y003875D02*
X018025Y004075D01*
X018091Y004142D01*
X018358Y004142D01*
X018425Y004075D01*
X018425Y003875D01*
X018025Y003875D01*
X018025Y003728D02*
X018425Y003728D01*
X018025Y003461D01*
X018425Y003461D01*
X018358Y003313D02*
X018225Y003313D01*
X018225Y003180D01*
X018358Y003313D02*
X018425Y003247D01*
X018425Y003113D01*
X018358Y003046D01*
X018091Y003046D01*
X018025Y003113D01*
X018025Y003247D01*
X018091Y003313D01*
X019425Y003313D02*
X019425Y003046D01*
X019625Y003046D01*
X019558Y003180D01*
X019558Y003247D01*
X019625Y003313D01*
X019758Y003313D01*
X019825Y003247D01*
X019825Y003113D01*
X019758Y003046D01*
X019692Y003461D02*
X019425Y003461D01*
X019692Y003461D02*
X019825Y003594D01*
X019692Y003728D01*
X019425Y003728D01*
X023825Y004147D02*
X023975Y004297D01*
X024275Y004297D01*
X024275Y004457D02*
X024275Y004682D01*
X024200Y004757D01*
X023900Y004757D01*
X023825Y004682D01*
X023825Y004457D01*
X024275Y004457D01*
X024050Y004297D02*
X024050Y003996D01*
X023975Y003996D02*
X023825Y004147D01*
X023975Y003996D02*
X024275Y003996D01*
X024275Y004917D02*
X023825Y004917D01*
X023825Y005142D01*
X023900Y005218D01*
X024200Y005218D01*
X024275Y005142D01*
X024275Y004917D01*
X024275Y005378D02*
X023975Y005378D01*
X023825Y005528D01*
X023975Y005678D01*
X024275Y005678D01*
X024050Y005678D02*
X024050Y005378D01*
X024050Y006298D02*
X024050Y006599D01*
X024050Y006759D02*
X024050Y007059D01*
X023975Y007059D02*
X024275Y007059D01*
X024275Y006759D02*
X023975Y006759D01*
X023825Y006909D01*
X023975Y007059D01*
X023825Y007219D02*
X023825Y007519D01*
X023825Y007369D02*
X024275Y007369D01*
X024050Y008140D02*
X024050Y008290D01*
X024050Y008447D02*
X024200Y008447D01*
X024275Y008522D01*
X024275Y008672D01*
X024200Y008747D01*
X024050Y008747D01*
X023975Y008672D01*
X023975Y008522D01*
X024050Y008447D01*
X023825Y008290D02*
X023900Y008215D01*
X024275Y008215D01*
X024275Y008907D02*
X023975Y008907D01*
X024125Y008907D02*
X023975Y009057D01*
X023975Y009133D01*
X024125Y009751D02*
X024125Y009977D01*
X024050Y010052D01*
X023900Y010052D01*
X023825Y009977D01*
X023825Y009751D01*
X024275Y009751D01*
X024125Y009902D02*
X024275Y010052D01*
X024200Y010212D02*
X024125Y010287D01*
X024125Y010512D01*
X024050Y010512D02*
X024275Y010512D01*
X024275Y010287D01*
X024200Y010212D01*
X023975Y010287D02*
X023975Y010437D01*
X024050Y010512D01*
X024050Y010672D02*
X023975Y010747D01*
X023975Y010972D01*
X023975Y011133D02*
X023975Y011358D01*
X024050Y011433D01*
X024200Y011433D01*
X024275Y011358D01*
X024275Y011133D01*
X024425Y011133D02*
X023975Y011133D01*
X024200Y010972D02*
X024125Y010897D01*
X024125Y010747D01*
X024050Y010672D01*
X024275Y010672D02*
X024275Y010897D01*
X024200Y010972D01*
X024275Y011593D02*
X023825Y011593D01*
X023975Y011593D02*
X023975Y011818D01*
X024050Y011893D01*
X024200Y011893D01*
X024275Y011818D01*
X024275Y011593D01*
X024200Y012053D02*
X024050Y012053D01*
X023975Y012128D01*
X023975Y012279D01*
X024050Y012354D01*
X024125Y012354D01*
X024125Y012053D01*
X024200Y012053D02*
X024275Y012128D01*
X024275Y012279D01*
X024275Y012514D02*
X023975Y012514D01*
X024125Y012514D02*
X023975Y012664D01*
X023975Y012739D01*
X023975Y012897D02*
X024275Y012897D01*
X024125Y012897D02*
X023975Y013048D01*
X023975Y013123D01*
X023975Y013281D02*
X024200Y013281D01*
X024275Y013356D01*
X024275Y013581D01*
X024350Y013581D02*
X024425Y013506D01*
X024425Y013431D01*
X024350Y013581D02*
X023975Y013581D01*
X024125Y014202D02*
X024125Y014427D01*
X024050Y014502D01*
X023900Y014502D01*
X023825Y014427D01*
X023825Y014202D01*
X024275Y014202D01*
X024275Y014662D02*
X024275Y014812D01*
X024275Y014737D02*
X023975Y014737D01*
X023975Y014662D01*
X023825Y014737D02*
X023750Y014737D01*
X023975Y015430D02*
X023825Y015580D01*
X023975Y015730D01*
X024275Y015730D01*
X024050Y015730D02*
X024050Y015430D01*
X023975Y015430D02*
X024275Y015430D01*
X024050Y015890D02*
X024050Y016190D01*
X023900Y016040D02*
X024200Y016040D01*
X024275Y016350D02*
X023825Y016651D01*
X023825Y016811D02*
X023825Y017036D01*
X023900Y017111D01*
X023975Y017111D01*
X024050Y017036D01*
X024050Y016811D01*
X024050Y017036D02*
X024125Y017111D01*
X024200Y017111D01*
X024275Y017036D01*
X024275Y016811D01*
X023825Y016811D01*
X024050Y017271D02*
X024050Y017571D01*
X023900Y017421D02*
X024200Y017421D01*
X024165Y018246D02*
X024165Y018697D01*
X024015Y018547D01*
X023854Y018547D02*
X023854Y018622D01*
X023779Y018697D01*
X023629Y018697D01*
X023554Y018622D01*
X023854Y018547D02*
X023554Y018246D01*
X023854Y018246D01*
X024015Y018246D02*
X024315Y018246D01*
X024369Y019646D02*
X024519Y019646D01*
X024594Y019722D01*
X024594Y019872D01*
X024444Y019872D01*
X024594Y020022D02*
X024519Y020097D01*
X024369Y020097D01*
X024294Y020022D01*
X024294Y019722D01*
X024369Y019646D01*
X024754Y019646D02*
X024754Y020097D01*
X025054Y019646D01*
X025054Y020097D01*
X025215Y020097D02*
X025440Y020097D01*
X025515Y020022D01*
X025515Y019722D01*
X025440Y019646D01*
X025215Y019646D01*
X025215Y020097D01*
X023315Y020022D02*
X023315Y019722D01*
X023240Y019646D01*
X023090Y019646D01*
X023015Y019722D01*
X023315Y020022D01*
X023240Y020097D01*
X023090Y020097D01*
X023015Y020022D01*
X023015Y019722D01*
X022854Y019646D02*
X022554Y019646D01*
X022854Y019947D01*
X022854Y020022D01*
X022779Y020097D01*
X022629Y020097D01*
X022554Y020022D01*
X021215Y020097D02*
X021065Y020022D01*
X020915Y019872D01*
X021140Y019872D01*
X021215Y019797D01*
X021215Y019722D01*
X021140Y019646D01*
X020990Y019646D01*
X020915Y019722D01*
X020915Y019872D01*
X020754Y019646D02*
X020454Y019646D01*
X020604Y019646D02*
X020604Y020097D01*
X020454Y019947D01*
X019315Y019947D02*
X019315Y020022D01*
X019240Y020097D01*
X019090Y020097D01*
X019015Y020022D01*
X019315Y019947D02*
X019015Y019646D01*
X019315Y019646D01*
X018854Y019646D02*
X018554Y019646D01*
X018704Y019646D02*
X018704Y020097D01*
X018554Y019947D01*
X018015Y018697D02*
X017865Y018622D01*
X017715Y018472D01*
X017940Y018472D01*
X018015Y018397D01*
X018015Y018322D01*
X017940Y018246D01*
X017790Y018246D01*
X017715Y018322D01*
X017715Y018472D01*
X016515Y018246D02*
X016215Y018246D01*
X016365Y018246D02*
X016365Y018697D01*
X016215Y018547D01*
X016054Y018697D02*
X015754Y018697D01*
X015754Y018246D01*
X016054Y018246D01*
X015904Y018472D02*
X015754Y018472D01*
X015594Y018622D02*
X015519Y018697D01*
X015369Y018697D01*
X015294Y018622D01*
X015294Y018322D01*
X015369Y018246D01*
X015519Y018246D01*
X015594Y018322D01*
X014515Y018246D02*
X014290Y018472D01*
X014215Y018397D02*
X014515Y018697D01*
X014215Y018697D02*
X014215Y018246D01*
X014054Y018322D02*
X013979Y018246D01*
X013829Y018246D01*
X013754Y018322D01*
X013754Y018622D01*
X013829Y018697D01*
X013979Y018697D01*
X014054Y018622D01*
X013594Y018622D02*
X013519Y018697D01*
X013369Y018697D01*
X013294Y018622D01*
X013294Y018547D01*
X013369Y018472D01*
X013519Y018472D01*
X013594Y018397D01*
X013594Y018322D01*
X013519Y018246D01*
X013369Y018246D01*
X013294Y018322D01*
X012618Y018246D02*
X012468Y018246D01*
X012543Y018246D02*
X012543Y018697D01*
X012468Y018697D02*
X012618Y018697D01*
X012308Y018622D02*
X012233Y018697D01*
X012083Y018697D01*
X012008Y018622D01*
X012008Y018547D01*
X012083Y018472D01*
X012233Y018472D01*
X012308Y018397D01*
X012308Y018322D01*
X012233Y018246D01*
X012083Y018246D01*
X012008Y018322D01*
X011848Y018322D02*
X011772Y018246D01*
X011622Y018246D01*
X011547Y018322D01*
X011547Y018622D01*
X011622Y018697D01*
X011772Y018697D01*
X011848Y018622D01*
X011848Y018322D01*
X011387Y018246D02*
X011387Y018697D01*
X011237Y018547D01*
X011087Y018697D01*
X011087Y018246D01*
X010215Y018246D02*
X009915Y018246D01*
X010215Y018547D01*
X010215Y018622D01*
X010140Y018697D01*
X009990Y018697D01*
X009915Y018622D01*
X009754Y018622D02*
X009679Y018697D01*
X009529Y018697D01*
X009454Y018622D01*
X009754Y018622D02*
X009754Y018547D01*
X009454Y018246D01*
X009754Y018246D01*
X008315Y018322D02*
X008240Y018246D01*
X008090Y018246D01*
X008015Y018322D01*
X008015Y018397D01*
X008090Y018472D01*
X008240Y018472D01*
X008315Y018397D01*
X008315Y018322D01*
X008240Y018472D02*
X008315Y018547D01*
X008315Y018622D01*
X008240Y018697D01*
X008090Y018697D01*
X008015Y018622D01*
X008015Y018547D01*
X008090Y018472D01*
X007854Y018246D02*
X007554Y018246D01*
X007704Y018246D02*
X007704Y018697D01*
X007554Y018547D01*
X006515Y018622D02*
X006515Y018322D01*
X006440Y018246D01*
X006215Y018246D01*
X006215Y018697D01*
X006440Y018697D01*
X006515Y018622D01*
X006054Y018697D02*
X006054Y018246D01*
X005754Y018697D01*
X005754Y018246D01*
X005594Y018322D02*
X005594Y018472D01*
X005444Y018472D01*
X005594Y018622D02*
X005519Y018697D01*
X005369Y018697D01*
X005294Y018622D01*
X005294Y018322D01*
X005369Y018246D01*
X005519Y018246D01*
X005594Y018322D01*
X004315Y018246D02*
X004015Y018697D01*
X003854Y018622D02*
X003854Y018472D01*
X003779Y018397D01*
X003554Y018397D01*
X003704Y018397D02*
X003854Y018246D01*
X004015Y018246D02*
X004315Y018697D01*
X003854Y018622D02*
X003779Y018697D01*
X003554Y018697D01*
X003554Y018246D01*
X002515Y018246D02*
X002215Y018246D01*
X002215Y018697D01*
X002054Y018622D02*
X001979Y018697D01*
X001829Y018697D01*
X001754Y018622D01*
X001754Y018322D01*
X001829Y018246D01*
X001979Y018246D01*
X002054Y018322D01*
X001594Y018322D02*
X001519Y018246D01*
X001369Y018246D01*
X001294Y018322D01*
X001369Y018472D02*
X001294Y018547D01*
X001294Y018622D01*
X001369Y018697D01*
X001519Y018697D01*
X001594Y018622D01*
X001519Y018472D02*
X001594Y018397D01*
X001594Y018322D01*
X001519Y018472D02*
X001369Y018472D01*
X001515Y019646D02*
X001515Y019947D01*
X001365Y020097D01*
X001215Y019947D01*
X001215Y019646D01*
X001054Y019722D02*
X001054Y020022D01*
X000979Y020097D01*
X000754Y020097D01*
X000754Y019646D01*
X000979Y019646D01*
X001054Y019722D01*
X001215Y019872D02*
X001515Y019872D01*
X000594Y019797D02*
X000594Y019722D01*
X000519Y019646D01*
X000369Y019646D01*
X000294Y019722D01*
X000369Y019872D02*
X000519Y019872D01*
X000594Y019797D01*
X000594Y020022D02*
X000519Y020097D01*
X000369Y020097D01*
X000294Y020022D01*
X000294Y019947D01*
X000369Y019872D01*
X002604Y020097D02*
X002904Y020097D01*
X002754Y020097D02*
X002754Y019646D01*
X003065Y019646D02*
X003365Y020097D01*
X003065Y020097D02*
X003365Y019646D01*
X004715Y019872D02*
X005015Y019872D01*
X004940Y020097D02*
X004940Y019646D01*
X004715Y019872D02*
X004940Y020097D01*
X006554Y019947D02*
X006704Y020097D01*
X006704Y019646D01*
X006554Y019646D02*
X006854Y019646D01*
X007015Y019646D02*
X007015Y019722D01*
X007315Y020022D01*
X007315Y020097D01*
X007015Y020097D01*
X008554Y020022D02*
X008629Y020097D01*
X008779Y020097D01*
X008854Y020022D01*
X008854Y019947D01*
X008554Y019646D01*
X008854Y019646D01*
X009015Y019646D02*
X009015Y019722D01*
X009315Y020022D01*
X009315Y020097D01*
X009015Y020097D01*
X010554Y020022D02*
X010629Y020097D01*
X010779Y020097D01*
X010854Y020022D01*
X010854Y019947D01*
X010554Y019646D01*
X010854Y019646D01*
X011015Y019722D02*
X011090Y019646D01*
X011240Y019646D01*
X011315Y019722D01*
X011315Y019872D01*
X011240Y019947D01*
X011165Y019947D01*
X011015Y019872D01*
X011015Y020097D01*
X011315Y020097D01*
X012187Y020097D02*
X012187Y019646D01*
X012487Y019646D02*
X012487Y020097D01*
X012337Y019947D01*
X012187Y020097D01*
X012647Y020097D02*
X012797Y020097D01*
X012722Y020097D02*
X012722Y019646D01*
X012647Y019646D02*
X012797Y019646D01*
X012954Y019722D02*
X013029Y019646D01*
X013179Y019646D01*
X013254Y019722D01*
X013254Y019797D01*
X013179Y019872D01*
X013029Y019872D01*
X012954Y019947D01*
X012954Y020022D01*
X013029Y020097D01*
X013179Y020097D01*
X013254Y020022D01*
X013415Y020022D02*
X013415Y019722D01*
X013490Y019646D01*
X013640Y019646D01*
X013715Y019722D01*
X013715Y020022D01*
X013640Y020097D01*
X013490Y020097D01*
X013415Y020022D01*
X014294Y020022D02*
X014294Y019722D01*
X014369Y019646D01*
X014519Y019646D01*
X014594Y019722D01*
X014754Y019646D02*
X015054Y019646D01*
X015215Y019722D02*
X015290Y019646D01*
X015440Y019646D01*
X015515Y019722D01*
X015515Y020022D01*
X015215Y019722D01*
X015215Y020022D01*
X015290Y020097D01*
X015440Y020097D01*
X015515Y020022D01*
X015054Y020097D02*
X014754Y020097D01*
X014754Y019646D01*
X014754Y019872D02*
X014904Y019872D01*
X014594Y020022D02*
X014519Y020097D01*
X014369Y020097D01*
X014294Y020022D01*
X016715Y020097D02*
X016715Y019872D01*
X016865Y019947D01*
X016940Y019947D01*
X017015Y019872D01*
X017015Y019722D01*
X016940Y019646D01*
X016790Y019646D01*
X016715Y019722D01*
X016715Y020097D02*
X017015Y020097D01*
X019554Y018547D02*
X019704Y018697D01*
X019704Y018246D01*
X019554Y018246D02*
X019854Y018246D01*
X020015Y018322D02*
X020090Y018246D01*
X020240Y018246D01*
X020315Y018322D01*
X020315Y018397D01*
X020240Y018472D01*
X020165Y018472D01*
X020240Y018472D02*
X020315Y018547D01*
X020315Y018622D01*
X020240Y018697D01*
X020090Y018697D01*
X020015Y018622D01*
X021554Y018547D02*
X021704Y018697D01*
X021704Y018246D01*
X021554Y018246D02*
X021854Y018246D01*
X022015Y018322D02*
X022090Y018246D01*
X022240Y018246D01*
X022315Y018322D01*
X022315Y018472D01*
X022240Y018547D01*
X022165Y018547D01*
X022015Y018472D01*
X022015Y018697D01*
X022315Y018697D01*
X023825Y006599D02*
X024275Y006599D01*
X024275Y006298D02*
X023825Y006298D01*
D11*
X025055Y016770D02*
X025235Y016860D01*
X025055Y016950D01*
X025055Y017046D02*
X024965Y017136D01*
X025235Y017136D01*
X025235Y017046D02*
X025235Y017226D01*
X025235Y017322D02*
X025235Y017367D01*
X025190Y017367D01*
X025190Y017322D01*
X025235Y017322D01*
X025190Y017460D02*
X025010Y017460D01*
X024965Y017505D01*
X024965Y017595D01*
X025010Y017640D01*
X025190Y017460D01*
X025235Y017505D01*
X025235Y017595D01*
X025190Y017640D01*
X025010Y017640D01*
D12*
X000566Y003341D02*
X000460Y003448D01*
X000566Y003555D01*
X000780Y003555D01*
X000727Y003673D02*
X000780Y003726D01*
X000780Y003833D01*
X000727Y003886D01*
X000780Y004004D02*
X000460Y004004D01*
X000460Y004165D01*
X000513Y004218D01*
X000620Y004218D01*
X000673Y004165D01*
X000673Y004004D01*
X000673Y004111D02*
X000780Y004218D01*
X000727Y004336D02*
X000780Y004389D01*
X000780Y004496D01*
X000727Y004549D01*
X000513Y004549D01*
X000460Y004496D01*
X000460Y004389D01*
X000513Y004336D01*
X000727Y004336D01*
X000780Y004667D02*
X000460Y004667D01*
X000460Y004828D01*
X000513Y004881D01*
X000566Y004881D01*
X000620Y004828D01*
X000620Y004667D01*
X000780Y004667D02*
X000780Y004828D01*
X000727Y004881D01*
X000673Y004881D01*
X000620Y004828D01*
X000727Y004999D02*
X000780Y005052D01*
X000780Y005159D01*
X000727Y005212D01*
X000513Y005212D01*
X000460Y005159D01*
X000460Y005052D01*
X000513Y004999D01*
X000727Y004999D01*
X001060Y004881D02*
X001380Y004881D01*
X001380Y004721D01*
X001327Y004667D01*
X001220Y004667D01*
X001166Y004721D01*
X001166Y004881D01*
X001220Y004999D02*
X001166Y005052D01*
X001166Y005159D01*
X001220Y005212D01*
X001273Y005212D01*
X001273Y004999D01*
X001220Y004999D02*
X001327Y004999D01*
X001380Y005052D01*
X001380Y005159D01*
X001380Y005330D02*
X001166Y005330D01*
X001166Y005491D01*
X001220Y005544D01*
X001380Y005544D01*
X001327Y005662D02*
X001273Y005715D01*
X001273Y005875D01*
X001220Y005875D02*
X001380Y005875D01*
X001380Y005715D01*
X001327Y005662D01*
X001166Y005715D02*
X001166Y005822D01*
X001220Y005875D01*
X001327Y006047D02*
X001380Y006047D01*
X001380Y006100D01*
X001327Y006100D01*
X001327Y006047D01*
X001380Y006100D02*
X001487Y005993D01*
X001816Y005883D02*
X001816Y005722D01*
X001710Y005722D02*
X002030Y005722D01*
X002030Y005883D01*
X001977Y005936D01*
X001870Y005936D01*
X001816Y005883D01*
X001870Y006054D02*
X001816Y006107D01*
X001816Y006214D01*
X001870Y006267D01*
X001977Y006267D01*
X002030Y006214D01*
X002030Y006107D01*
X001977Y006054D01*
X001870Y006054D01*
X001816Y006385D02*
X001816Y006492D01*
X001763Y006439D02*
X001977Y006439D01*
X002030Y006492D01*
X002030Y006606D02*
X002030Y006713D01*
X002030Y006660D02*
X001816Y006660D01*
X001816Y006606D01*
X001710Y006660D02*
X001656Y006660D01*
X001870Y006827D02*
X001816Y006881D01*
X001816Y007041D01*
X001977Y007159D02*
X001977Y007212D01*
X002030Y007212D01*
X002030Y007159D01*
X001977Y007159D01*
X002030Y007041D02*
X002030Y006881D01*
X001977Y006827D01*
X001870Y006827D01*
X001380Y006877D02*
X001166Y006877D01*
X001060Y006984D01*
X001166Y007091D01*
X001380Y007091D01*
X001220Y007091D02*
X001220Y006877D01*
X001327Y006759D02*
X001380Y006706D01*
X001380Y006599D01*
X001327Y006546D01*
X001113Y006546D01*
X001060Y006599D01*
X001060Y006706D01*
X001113Y006759D01*
X000727Y006096D02*
X000780Y006043D01*
X000780Y005936D01*
X000727Y005883D01*
X000513Y005883D01*
X000460Y005936D01*
X000460Y006043D01*
X000513Y006096D01*
X000460Y005769D02*
X000460Y005662D01*
X000460Y005715D02*
X000780Y005715D01*
X000780Y005662D02*
X000780Y005769D01*
X000780Y005437D02*
X000460Y005437D01*
X000460Y005330D02*
X000460Y005544D01*
X001220Y004549D02*
X001380Y004549D01*
X001380Y004389D01*
X001327Y004336D01*
X001273Y004389D01*
X001273Y004549D01*
X001220Y004549D02*
X001166Y004496D01*
X001166Y004389D01*
X001166Y004218D02*
X001166Y004058D01*
X001220Y004004D01*
X001273Y004058D01*
X001273Y004165D01*
X001327Y004218D01*
X001380Y004165D01*
X001380Y004004D01*
X001380Y003886D02*
X001220Y003886D01*
X001166Y003833D01*
X001166Y003726D01*
X001273Y003726D02*
X001273Y003886D01*
X001380Y003886D02*
X001380Y003726D01*
X001327Y003673D01*
X001273Y003726D01*
X001220Y003555D02*
X001273Y003502D01*
X001273Y003341D01*
X001380Y003341D02*
X001060Y003341D01*
X001060Y003502D01*
X001113Y003555D01*
X001220Y003555D01*
X000780Y003341D02*
X000566Y003341D01*
X000620Y003341D02*
X000620Y003555D01*
X000513Y003673D02*
X000727Y003673D01*
X000513Y003673D02*
X000460Y003726D01*
X000460Y003833D01*
X000513Y003886D01*
X001816Y003836D02*
X001977Y003836D01*
X002030Y003783D01*
X001977Y003730D01*
X002030Y003676D01*
X001977Y003623D01*
X001816Y003623D01*
X001816Y003505D02*
X001977Y003505D01*
X002030Y003452D01*
X001977Y003398D01*
X002030Y003345D01*
X001977Y003291D01*
X001816Y003291D01*
X001816Y003954D02*
X001977Y003954D01*
X002030Y004008D01*
X001977Y004061D01*
X002030Y004115D01*
X001977Y004168D01*
X001816Y004168D01*
X001977Y004286D02*
X001977Y004339D01*
X002030Y004339D01*
X002030Y004286D01*
X001977Y004286D01*
X001977Y004452D02*
X001923Y004505D01*
X001923Y004665D01*
X001870Y004665D02*
X002030Y004665D01*
X002030Y004505D01*
X001977Y004452D01*
X001816Y004505D02*
X001816Y004612D01*
X001870Y004665D01*
X001870Y004783D02*
X001977Y004783D01*
X002030Y004837D01*
X002030Y004997D01*
X002030Y005115D02*
X001816Y005115D01*
X001816Y005221D02*
X001816Y005275D01*
X001816Y005221D02*
X001923Y005115D01*
X001816Y004997D02*
X001816Y004837D01*
X001870Y004783D01*
X001870Y005391D02*
X001816Y005444D01*
X001816Y005551D01*
X001870Y005604D01*
X001977Y005604D01*
X002030Y005551D01*
X002030Y005444D01*
X001977Y005391D01*
X001870Y005391D01*
X001870Y007325D02*
X001816Y007378D01*
X001816Y007538D01*
X001870Y007656D02*
X001816Y007709D01*
X001816Y007816D01*
X001870Y007870D01*
X001977Y007870D01*
X002030Y007816D01*
X002030Y007709D01*
X001977Y007656D01*
X001870Y007656D01*
X002030Y007538D02*
X002030Y007378D01*
X001977Y007325D01*
X001870Y007325D01*
X001816Y007987D02*
X001816Y008041D01*
X001870Y008094D01*
X001816Y008148D01*
X001870Y008201D01*
X002030Y008201D01*
X002030Y008094D02*
X001870Y008094D01*
X001816Y007987D02*
X002030Y007987D01*
X007191Y004062D02*
X007191Y003849D01*
X007191Y004009D02*
X007404Y004009D01*
X007404Y004062D02*
X007404Y003849D01*
X007522Y003849D02*
X007522Y004062D01*
X007682Y004062D01*
X007736Y004009D01*
X007736Y003849D01*
X007854Y003902D02*
X007907Y003956D01*
X008067Y003956D01*
X008067Y004009D02*
X008067Y003849D01*
X007907Y003849D01*
X007854Y003902D01*
X007907Y004062D02*
X008014Y004062D01*
X008067Y004009D01*
X008185Y003849D02*
X008292Y003849D01*
X008239Y003849D02*
X008239Y004169D01*
X008185Y004169D01*
X008406Y004009D02*
X008406Y003902D01*
X008460Y003849D01*
X008566Y003849D01*
X008620Y003902D01*
X008620Y004009D01*
X008566Y004062D01*
X008460Y004062D01*
X008406Y004009D01*
X008738Y004009D02*
X008738Y003902D01*
X008791Y003849D01*
X008951Y003849D01*
X008951Y003796D02*
X008951Y004062D01*
X008791Y004062D01*
X008738Y004009D01*
X008845Y003742D02*
X008898Y003742D01*
X008951Y003796D01*
X009401Y003849D02*
X009508Y003849D01*
X009454Y003849D02*
X009454Y004169D01*
X009401Y004169D02*
X009508Y004169D01*
X009622Y004062D02*
X009782Y004062D01*
X009835Y004009D01*
X009835Y003849D01*
X009622Y003849D02*
X009622Y004062D01*
X007404Y004062D02*
X007298Y004169D01*
X007191Y004062D01*
X012441Y004116D02*
X012441Y003902D01*
X012494Y003849D01*
X012601Y003849D01*
X012654Y003902D01*
X012654Y004116D01*
X012601Y004169D01*
X012494Y004169D01*
X012441Y004116D01*
X012772Y004062D02*
X012772Y003902D01*
X012826Y003849D01*
X012986Y003849D01*
X012986Y004062D01*
X013104Y004062D02*
X013211Y004062D01*
X013157Y004116D02*
X013157Y003902D01*
X013211Y003849D01*
D13*
X013400Y003971D02*
X013900Y003971D01*
X013900Y003671D01*
X014307Y002896D02*
X017260Y002896D01*
X017260Y000675D01*
X014307Y000675D01*
X014307Y000140D01*
X017260Y000140D01*
X017260Y000675D01*
X020213Y000675D01*
X020213Y002896D01*
X017260Y002896D01*
X017260Y000675D01*
X017260Y000140D01*
X020213Y000140D01*
X020213Y000675D01*
X014307Y000675D02*
X014307Y000140D01*
X009977Y000140D01*
X009977Y000675D01*
X014307Y000675D01*
X014307Y002896D01*
X009977Y002896D01*
X009977Y000675D01*
X005646Y000675D01*
X005646Y000140D01*
X009977Y000140D01*
X009977Y000675D01*
X009977Y002896D01*
X005646Y002896D01*
X005646Y000675D01*
X005950Y003671D02*
X005950Y003971D01*
X007050Y003971D01*
X009950Y003971D02*
X011050Y003971D01*
X011050Y003671D01*
X011650Y003671D02*
X011650Y003971D01*
X012200Y003971D01*
X014307Y002896D02*
X014307Y000675D01*
X022945Y020341D02*
X002945Y020341D01*
X002945Y022341D01*
X022945Y022341D01*
X022945Y020341D01*
D14*
X003795Y020041D02*
X003045Y020041D01*
D15*
X001402Y007997D02*
X000472Y007997D01*
X000472Y007221D01*
X001400Y007221D01*
X001400Y007495D01*
X001130Y007495D01*
X001104Y007445D01*
X000822Y007445D01*
X000782Y007493D01*
X000764Y007493D01*
X000764Y007693D01*
X000780Y007693D01*
X000764Y007693D01*
X000764Y007684D02*
X000780Y007684D01*
X000780Y007676D02*
X000764Y007676D01*
X000764Y007667D02*
X000780Y007667D01*
X000780Y007659D02*
X000764Y007659D01*
X000764Y007650D02*
X000780Y007650D01*
X000780Y007642D02*
X000764Y007642D01*
X000764Y007633D02*
X000780Y007633D01*
X000780Y007625D02*
X000764Y007625D01*
X000764Y007616D02*
X000780Y007616D01*
X000780Y007608D02*
X000764Y007608D01*
X000764Y007599D02*
X000780Y007599D01*
X000780Y007591D02*
X000764Y007591D01*
X000764Y007582D02*
X000780Y007582D01*
X000780Y007574D02*
X000764Y007574D01*
X000764Y007565D02*
X000780Y007565D01*
X000780Y007557D02*
X000764Y007557D01*
X000764Y007548D02*
X000780Y007548D01*
X000780Y007540D02*
X000764Y007540D01*
X000764Y007531D02*
X000780Y007531D01*
X000780Y007523D02*
X000764Y007523D01*
X000758Y007519D02*
X000758Y007497D01*
X000780Y007497D01*
X000780Y007519D01*
X000780Y007693D01*
X000780Y007695D02*
X000662Y007695D01*
X000640Y007673D01*
X000640Y007547D01*
X000666Y007519D01*
X000758Y007519D01*
X000758Y007514D02*
X000472Y007514D01*
X000472Y007506D02*
X000758Y007506D01*
X000764Y007506D02*
X000780Y007506D01*
X000780Y007514D02*
X000764Y007514D01*
X000764Y007497D02*
X000472Y007497D01*
X000472Y007489D02*
X000786Y007489D01*
X000793Y007480D02*
X000472Y007480D01*
X000472Y007472D02*
X000800Y007472D01*
X000807Y007463D02*
X000472Y007463D01*
X000472Y007455D02*
X000814Y007455D01*
X000821Y007446D02*
X000472Y007446D01*
X000472Y007438D02*
X001400Y007438D01*
X001400Y007446D02*
X001104Y007446D01*
X001109Y007455D02*
X001400Y007455D01*
X001400Y007463D02*
X001113Y007463D01*
X001118Y007472D02*
X001400Y007472D01*
X001400Y007480D02*
X001122Y007480D01*
X001126Y007489D02*
X001400Y007489D01*
X001400Y007429D02*
X000472Y007429D01*
X000472Y007421D02*
X001400Y007421D01*
X001400Y007412D02*
X000472Y007412D01*
X000472Y007404D02*
X001400Y007404D01*
X001400Y007395D02*
X000472Y007395D01*
X000472Y007387D02*
X001400Y007387D01*
X001400Y007378D02*
X000472Y007378D01*
X000472Y007370D02*
X001400Y007370D01*
X001400Y007361D02*
X000472Y007361D01*
X000472Y007353D02*
X001400Y007353D01*
X001400Y007344D02*
X000472Y007344D01*
X000472Y007336D02*
X001400Y007336D01*
X001400Y007327D02*
X000472Y007327D01*
X000472Y007319D02*
X001400Y007319D01*
X001400Y007310D02*
X000472Y007310D01*
X000472Y007302D02*
X001400Y007302D01*
X001400Y007293D02*
X000472Y007293D01*
X000472Y007285D02*
X001400Y007285D01*
X001400Y007276D02*
X000472Y007276D01*
X000472Y007268D02*
X001400Y007268D01*
X001400Y007259D02*
X000472Y007259D01*
X000472Y007251D02*
X001400Y007251D01*
X001400Y007242D02*
X000472Y007242D01*
X000472Y007234D02*
X001400Y007234D01*
X001400Y007225D02*
X000472Y007225D01*
X000472Y007523D02*
X000663Y007523D01*
X000655Y007531D02*
X000472Y007531D01*
X000472Y007540D02*
X000647Y007540D01*
X000640Y007548D02*
X000472Y007548D01*
X000472Y007557D02*
X000640Y007557D01*
X000640Y007565D02*
X000472Y007565D01*
X000472Y007574D02*
X000640Y007574D01*
X000640Y007582D02*
X000472Y007582D01*
X000472Y007591D02*
X000640Y007591D01*
X000640Y007599D02*
X000472Y007599D01*
X000472Y007608D02*
X000640Y007608D01*
X000640Y007616D02*
X000472Y007616D01*
X000472Y007625D02*
X000640Y007625D01*
X000640Y007633D02*
X000472Y007633D01*
X000472Y007642D02*
X000640Y007642D01*
X000640Y007650D02*
X000472Y007650D01*
X000472Y007659D02*
X000640Y007659D01*
X000640Y007667D02*
X000472Y007667D01*
X000472Y007676D02*
X000642Y007676D01*
X000651Y007684D02*
X000472Y007684D01*
X000472Y007693D02*
X000659Y007693D01*
X000780Y007695D02*
X000780Y007725D01*
X000820Y007773D01*
X001104Y007773D01*
X001128Y007723D01*
X001402Y007723D01*
X001402Y007997D01*
X001402Y007990D02*
X000472Y007990D01*
X000472Y007982D02*
X001402Y007982D01*
X001402Y007973D02*
X000472Y007973D01*
X000472Y007965D02*
X001402Y007965D01*
X001402Y007956D02*
X000472Y007956D01*
X000472Y007948D02*
X001402Y007948D01*
X001402Y007939D02*
X000472Y007939D01*
X000472Y007931D02*
X001402Y007931D01*
X001402Y007922D02*
X000472Y007922D01*
X000472Y007914D02*
X001402Y007914D01*
X001402Y007905D02*
X000472Y007905D01*
X000472Y007897D02*
X001402Y007897D01*
X001402Y007888D02*
X000472Y007888D01*
X000472Y007880D02*
X001402Y007880D01*
X001402Y007871D02*
X000472Y007871D01*
X000472Y007863D02*
X001402Y007863D01*
X001402Y007854D02*
X000472Y007854D01*
X000472Y007846D02*
X001402Y007846D01*
X001402Y007837D02*
X000472Y007837D01*
X000472Y007829D02*
X001402Y007829D01*
X001402Y007820D02*
X000472Y007820D01*
X000472Y007812D02*
X001402Y007812D01*
X001402Y007803D02*
X000472Y007803D01*
X000472Y007795D02*
X001402Y007795D01*
X001402Y007786D02*
X000472Y007786D01*
X000472Y007778D02*
X001402Y007778D01*
X001402Y007769D02*
X001106Y007769D01*
X001110Y007761D02*
X001402Y007761D01*
X001402Y007752D02*
X001114Y007752D01*
X001118Y007744D02*
X001402Y007744D01*
X001402Y007735D02*
X001122Y007735D01*
X001126Y007727D02*
X001402Y007727D01*
X000816Y007769D02*
X000472Y007769D01*
X000472Y007761D02*
X000809Y007761D01*
X000802Y007752D02*
X000472Y007752D01*
X000472Y007744D02*
X000795Y007744D01*
X000788Y007735D02*
X000472Y007735D01*
X000472Y007727D02*
X000781Y007727D01*
X000780Y007718D02*
X000472Y007718D01*
X000472Y007710D02*
X000780Y007710D01*
X000780Y007701D02*
X000472Y007701D01*
M02*
