G75*
%MOIN*%
%OFA0B0*%
%FSLAX24Y24*%
%IPPOS*%
%LPD*%
%AMOC8*
5,1,8,0,0,1.08239X$1,22.5*
%
%ADD10C,0.1182*%
%ADD11C,0.0240*%
%ADD12C,0.0730*%
%ADD13R,0.0730X0.0730*%
%ADD14C,0.0720*%
D10*
X001528Y001528D03*
X001528Y020819D03*
X024363Y020819D03*
X024363Y001528D03*
D11*
X020900Y001150D02*
X018900Y001150D01*
X018900Y002150D02*
X020900Y002150D01*
X015900Y002150D02*
X004900Y002150D01*
X004900Y001150D02*
X015900Y001150D01*
X015900Y003650D02*
X015900Y007650D01*
X014900Y007650D02*
X014900Y003650D01*
X013900Y003650D02*
X013900Y007650D01*
X012900Y007650D02*
X012900Y003650D01*
X011900Y003650D02*
X011900Y007650D01*
X010900Y007650D02*
X010900Y003650D01*
X009900Y003650D02*
X009900Y007650D01*
X008900Y007650D02*
X008900Y003650D01*
X007900Y003650D02*
X007900Y007650D01*
X006900Y007650D02*
X006900Y003650D01*
X005900Y003650D02*
X005900Y007650D01*
X004900Y007650D02*
X004900Y003650D01*
X003900Y003650D02*
X003900Y007650D01*
X002900Y007650D02*
X002900Y003650D01*
X002900Y009650D02*
X002900Y013650D01*
X003900Y013650D02*
X003900Y009650D01*
X004900Y009650D02*
X004900Y013650D01*
X005900Y013650D02*
X005900Y009650D01*
X006900Y009650D02*
X006900Y013650D01*
X007900Y013650D02*
X007900Y009650D01*
X008900Y009650D02*
X008900Y013650D01*
X009900Y013650D02*
X009900Y009650D01*
X010900Y009650D02*
X010900Y013650D01*
X011900Y013650D02*
X011900Y009650D01*
X012900Y009650D02*
X012900Y013650D01*
X013900Y013650D02*
X013900Y009650D01*
X014900Y009650D02*
X014900Y013650D01*
X015900Y013650D02*
X015900Y009650D01*
X016900Y009650D02*
X016900Y013650D01*
X017900Y013650D02*
X017900Y009650D01*
X018900Y009650D02*
X018900Y013650D01*
X019900Y013650D02*
X019900Y009650D01*
X020900Y009650D02*
X020900Y013650D01*
X020900Y015650D02*
X002900Y015650D01*
X002900Y016650D02*
X020900Y016650D01*
D12*
X020445Y020319D03*
X019445Y020319D03*
X018445Y020319D03*
X017445Y020319D03*
X016445Y020319D03*
X015445Y020319D03*
X014445Y020319D03*
X013445Y020319D03*
X012445Y020319D03*
X011445Y020319D03*
X010445Y020319D03*
X009445Y020319D03*
X008445Y020319D03*
X007445Y020319D03*
X006445Y020319D03*
X005445Y020319D03*
X004445Y020319D03*
X004445Y021319D03*
X003445Y021319D03*
X005445Y021319D03*
X006445Y021319D03*
X007445Y021319D03*
X008445Y021319D03*
X009445Y021319D03*
X010445Y021319D03*
X011445Y021319D03*
X012445Y021319D03*
X013445Y021319D03*
X014445Y021319D03*
X015445Y021319D03*
X016445Y021319D03*
X017445Y021319D03*
X018445Y021319D03*
X019445Y021319D03*
X020445Y021319D03*
X021445Y021319D03*
X022445Y021319D03*
X022445Y020319D03*
X021445Y020319D03*
D13*
X003445Y020319D03*
D14*
X003900Y017650D03*
X004900Y017650D03*
X004900Y016650D03*
X003900Y016650D03*
X003900Y015650D03*
X004900Y015650D03*
X005900Y015650D03*
X005900Y016650D03*
X005900Y017650D03*
X006900Y017650D03*
X006900Y016650D03*
X006900Y015650D03*
X007900Y015650D03*
X007900Y016650D03*
X007900Y017650D03*
X008900Y017650D03*
X008900Y016650D03*
X008900Y015650D03*
X009900Y015650D03*
X009900Y016650D03*
X009900Y017650D03*
X010900Y017650D03*
X011900Y017650D03*
X011900Y016650D03*
X010900Y016650D03*
X010900Y015650D03*
X011900Y015650D03*
X012900Y015650D03*
X012900Y016650D03*
X012900Y017650D03*
X013900Y017650D03*
X013900Y016650D03*
X013900Y015650D03*
X014900Y015650D03*
X014900Y016650D03*
X014900Y017650D03*
X015900Y017650D03*
X015900Y016650D03*
X015900Y015650D03*
X016900Y015650D03*
X016900Y016650D03*
X016900Y017650D03*
X017900Y017650D03*
X018900Y017650D03*
X018900Y016650D03*
X017900Y016650D03*
X017900Y015650D03*
X018900Y015650D03*
X019900Y015650D03*
X019900Y016650D03*
X019900Y017650D03*
X020900Y017650D03*
X020900Y016650D03*
X020900Y015650D03*
X021900Y017650D03*
X022900Y017650D03*
X023900Y017650D03*
X024900Y017650D03*
X020900Y013650D03*
X019900Y013650D03*
X018900Y013650D03*
X017900Y013650D03*
X016900Y013650D03*
X015900Y013650D03*
X014900Y013650D03*
X013900Y013650D03*
X012900Y013650D03*
X011900Y013650D03*
X010900Y013650D03*
X009900Y013650D03*
X008900Y013650D03*
X007900Y013650D03*
X006900Y013650D03*
X005900Y013650D03*
X004900Y013650D03*
X003900Y013650D03*
X002900Y013650D03*
X002900Y012650D03*
X002900Y011650D03*
X003900Y011650D03*
X004900Y011650D03*
X004900Y012650D03*
X003900Y012650D03*
X005900Y012650D03*
X005900Y011650D03*
X006900Y011650D03*
X006900Y012650D03*
X007900Y012650D03*
X007900Y011650D03*
X008900Y011650D03*
X008900Y012650D03*
X009900Y012650D03*
X009900Y011650D03*
X010900Y011650D03*
X011900Y011650D03*
X011900Y012650D03*
X010900Y012650D03*
X012900Y012650D03*
X012900Y011650D03*
X013900Y011650D03*
X013900Y012650D03*
X014900Y012650D03*
X014900Y011650D03*
X015900Y011650D03*
X015900Y012650D03*
X016900Y012650D03*
X016900Y011650D03*
X017900Y011650D03*
X018900Y011650D03*
X018900Y012650D03*
X017900Y012650D03*
X019900Y012650D03*
X019900Y011650D03*
X020900Y011650D03*
X020900Y012650D03*
X020900Y010650D03*
X020900Y009650D03*
X019900Y009650D03*
X019900Y010650D03*
X018900Y010650D03*
X017900Y010650D03*
X017900Y009650D03*
X018900Y009650D03*
X016900Y009650D03*
X016900Y010650D03*
X015900Y010650D03*
X015900Y009650D03*
X014900Y009650D03*
X014900Y010650D03*
X013900Y010650D03*
X013900Y009650D03*
X012900Y009650D03*
X012900Y010650D03*
X011900Y010650D03*
X010900Y010650D03*
X010900Y009650D03*
X011900Y009650D03*
X009900Y009650D03*
X009900Y010650D03*
X008900Y010650D03*
X008900Y009650D03*
X007900Y009650D03*
X007900Y010650D03*
X006900Y010650D03*
X006900Y009650D03*
X005900Y009650D03*
X005900Y010650D03*
X004900Y010650D03*
X003900Y010650D03*
X003900Y009650D03*
X004900Y009650D03*
X002900Y009650D03*
X002900Y010650D03*
X002900Y007650D03*
X003900Y007650D03*
X004900Y007650D03*
X005900Y007650D03*
X006900Y007650D03*
X007900Y007650D03*
X008900Y007650D03*
X009900Y007650D03*
X010900Y007650D03*
X011900Y007650D03*
X012900Y007650D03*
X013900Y007650D03*
X014900Y007650D03*
X015900Y007650D03*
X015900Y006650D03*
X015900Y005650D03*
X014900Y005650D03*
X014900Y006650D03*
X013900Y006650D03*
X013900Y005650D03*
X012900Y005650D03*
X012900Y006650D03*
X011900Y006650D03*
X010900Y006650D03*
X010900Y005650D03*
X011900Y005650D03*
X011900Y004650D03*
X010900Y004650D03*
X010900Y003650D03*
X011900Y003650D03*
X012900Y003650D03*
X012900Y004650D03*
X013900Y004650D03*
X013900Y003650D03*
X014900Y003650D03*
X014900Y004650D03*
X015900Y004650D03*
X015900Y003650D03*
X015900Y002150D03*
X015900Y001150D03*
X014900Y001150D03*
X014900Y002150D03*
X013900Y002150D03*
X013900Y001150D03*
X012900Y001150D03*
X012900Y002150D03*
X011900Y002150D03*
X010900Y002150D03*
X010900Y001150D03*
X011900Y001150D03*
X009900Y001150D03*
X009900Y002150D03*
X008900Y002150D03*
X008900Y001150D03*
X007900Y001150D03*
X007900Y002150D03*
X006900Y002150D03*
X006900Y001150D03*
X005900Y001150D03*
X005900Y002150D03*
X004900Y002150D03*
X004900Y001150D03*
X004900Y003650D03*
X003900Y003650D03*
X003900Y004650D03*
X004900Y004650D03*
X005900Y004650D03*
X005900Y003650D03*
X006900Y003650D03*
X006900Y004650D03*
X007900Y004650D03*
X007900Y003650D03*
X008900Y003650D03*
X008900Y004650D03*
X009900Y004650D03*
X009900Y003650D03*
X009900Y005650D03*
X009900Y006650D03*
X008900Y006650D03*
X008900Y005650D03*
X007900Y005650D03*
X007900Y006650D03*
X006900Y006650D03*
X006900Y005650D03*
X005900Y005650D03*
X005900Y006650D03*
X004900Y006650D03*
X003900Y006650D03*
X003900Y005650D03*
X004900Y005650D03*
X002900Y005650D03*
X002900Y006650D03*
X002900Y004650D03*
X002900Y003650D03*
X002900Y015650D03*
X002900Y016650D03*
X002900Y017650D03*
X001900Y017650D03*
X000900Y017650D03*
X018900Y007650D03*
X019900Y007650D03*
X020900Y007650D03*
X020900Y006650D03*
X020900Y005650D03*
X019900Y005650D03*
X019900Y006650D03*
X018900Y006650D03*
X018900Y005650D03*
X018900Y004650D03*
X018900Y003650D03*
X019900Y003650D03*
X019900Y004650D03*
X020900Y004650D03*
X020900Y003650D03*
X020900Y002150D03*
X020900Y001150D03*
X019900Y001150D03*
X019900Y002150D03*
X018900Y002150D03*
X018900Y001150D03*
M02*
