%
M48
M72
T01C0.0197
T02C0.0200
T03C0.0400
T04C0.1102
%
T01
X17760Y15952
X19560Y15452
T02
X19351Y9310
X11460Y7402
X11010Y7702
T03
X11085Y1557
X9707Y1557
X8329Y1557
X6951Y1557
X12463Y1557
X13841Y1557
X15219Y1557
X16597Y1557
X17975Y1557
X19353Y1557
X20731Y1557
X20910Y19152
X19910Y19152
X18910Y19152
X17910Y19152
X16910Y19152
X15910Y19152
X14910Y19152
X13910Y19152
X12910Y19152
X11910Y19152
X10910Y19152
X9910Y19152
X8910Y19152
X7910Y19152
X6910Y19152
X5910Y19152
X4910Y19152
X3910Y19152
X2910Y19152
X1910Y19152
X910Y19152
X3455Y20821
X3455Y21821
X4455Y21821
X4455Y20821
X5455Y20821
X6455Y20821
X6455Y21821
X5455Y21821
X7455Y21821
X7455Y20821
X8455Y20821
X8455Y21821
X9455Y21821
X9455Y20821
X10455Y20821
X10455Y21821
X11455Y21821
X12455Y21821
X12455Y20821
X11455Y20821
X13455Y20821
X13455Y21821
X14455Y21821
X14455Y20821
X15455Y20821
X15455Y21821
X16455Y21821
X16455Y20821
X17455Y20821
X17455Y21821
X18455Y21821
X19455Y21821
X19455Y20821
X18455Y20821
X20455Y20821
X20455Y21821
X21455Y21821
X21455Y20821
X22455Y20821
X22455Y21821
X22910Y19152
X21910Y19152
X23910Y19152
X24910Y19152
T04
X1538Y2030
X1538Y21321
X24373Y21321
X24373Y2030
M30
