G75*
%MOIN*%
%OFA0B0*%
%FSLAX24Y24*%
%IPPOS*%
%LPD*%
%AMOC8*
5,1,8,0,0,1.08239X$1,22.5*
%
%ADD10C,0.1182*%
%ADD11C,0.0730*%
%ADD12R,0.0730X0.0730*%
%ADD13C,0.0680*%
%ADD14C,0.0880*%
%ADD15R,0.0880X0.0880*%
D10*
X001538Y002030D03*
X001538Y021321D03*
X024373Y021321D03*
X024373Y002030D03*
D11*
X022455Y020821D03*
X021455Y020821D03*
X020455Y020821D03*
X019455Y020821D03*
X018455Y020821D03*
X017455Y020821D03*
X016455Y020821D03*
X015455Y020821D03*
X014455Y020821D03*
X013455Y020821D03*
X012455Y020821D03*
X011455Y020821D03*
X010455Y020821D03*
X009455Y020821D03*
X008455Y020821D03*
X007455Y020821D03*
X006455Y020821D03*
X005455Y020821D03*
X004455Y020821D03*
X004455Y021821D03*
X003455Y021821D03*
X005455Y021821D03*
X006455Y021821D03*
X007455Y021821D03*
X008455Y021821D03*
X009455Y021821D03*
X010455Y021821D03*
X011455Y021821D03*
X012455Y021821D03*
X013455Y021821D03*
X014455Y021821D03*
X015455Y021821D03*
X016455Y021821D03*
X017455Y021821D03*
X018455Y021821D03*
X019455Y021821D03*
X020455Y021821D03*
X021455Y021821D03*
X022455Y021821D03*
D12*
X003455Y020821D03*
D13*
X003910Y019152D03*
X004910Y019152D03*
X005910Y019152D03*
X006910Y019152D03*
X007910Y019152D03*
X008910Y019152D03*
X009910Y019152D03*
X010910Y019152D03*
X011910Y019152D03*
X012910Y019152D03*
X013910Y019152D03*
X014910Y019152D03*
X015910Y019152D03*
X016910Y019152D03*
X017910Y019152D03*
X018910Y019152D03*
X019910Y019152D03*
X020910Y019152D03*
X021910Y019152D03*
X022910Y019152D03*
X023910Y019152D03*
X024910Y019152D03*
X002910Y019152D03*
X001910Y019152D03*
X000910Y019152D03*
D14*
X008329Y001557D03*
X009707Y001557D03*
X012463Y001557D03*
X013841Y001557D03*
X016597Y001557D03*
X019353Y001557D03*
X020731Y001557D03*
D15*
X017975Y001557D03*
X015219Y001557D03*
X011085Y001557D03*
X006951Y001557D03*
M02*
