G75*
%MOIN*%
%OFA0B0*%
%FSLAX24Y24*%
%IPPOS*%
%LPD*%
%AMOC8*
5,1,8,0,0,1.08239X$1,22.5*
%
%ADD10C,0.0650*%
%ADD11R,0.0650X0.0650*%
%ADD12R,0.0870X0.0240*%
%ADD13R,0.0394X0.0433*%
%ADD14C,0.0640*%
%ADD15R,0.0250X0.0500*%
%ADD16R,0.0394X0.0118*%
%ADD17R,0.0217X0.0472*%
%ADD18R,0.0354X0.0276*%
%ADD19R,0.0276X0.0354*%
%ADD20C,0.0800*%
%ADD21R,0.0800X0.0800*%
%ADD22C,0.0100*%
%ADD23C,0.0436*%
%ADD24C,0.0397*%
D10*
X004445Y020841D03*
X005445Y020841D03*
X005445Y021841D03*
X004445Y021841D03*
X003445Y021841D03*
X006445Y021841D03*
X006445Y020841D03*
X007445Y020841D03*
X007445Y021841D03*
X008445Y021841D03*
X008445Y020841D03*
X009445Y020841D03*
X009445Y021841D03*
X010445Y021841D03*
X010445Y020841D03*
X011445Y020841D03*
X012445Y020841D03*
X012445Y021841D03*
X011445Y021841D03*
X013445Y021841D03*
X013445Y020841D03*
X014445Y020841D03*
X014445Y021841D03*
X015445Y021841D03*
X015445Y020841D03*
X016445Y020841D03*
X016445Y021841D03*
X017445Y021841D03*
X017445Y020841D03*
X018445Y020841D03*
X019445Y020841D03*
X019445Y021841D03*
X018445Y021841D03*
X020445Y021841D03*
X020445Y020841D03*
X021445Y020841D03*
X021445Y021841D03*
X022445Y021841D03*
X022445Y020841D03*
D11*
X003445Y020841D03*
D12*
X018675Y016441D03*
X018675Y015941D03*
X018675Y015441D03*
X018675Y014941D03*
X021325Y014941D03*
X021325Y015441D03*
X021325Y015941D03*
X021325Y016441D03*
D13*
X020700Y014276D03*
X020700Y013567D03*
X019550Y013567D03*
X019550Y014276D03*
X017750Y014367D03*
X017750Y015076D03*
X016750Y015076D03*
X016750Y014367D03*
D14*
X016900Y019171D03*
X017900Y019171D03*
X018900Y019171D03*
X019900Y019171D03*
X020900Y019171D03*
X021900Y019171D03*
X022900Y019171D03*
X023900Y019171D03*
X024900Y019171D03*
X015900Y019171D03*
X014900Y019171D03*
X013900Y019171D03*
X012900Y019171D03*
X011900Y019171D03*
X010900Y019171D03*
X009900Y019171D03*
X008900Y019171D03*
X007900Y019171D03*
X006900Y019171D03*
X005900Y019171D03*
X004900Y019171D03*
X003900Y019171D03*
X002900Y019171D03*
X001900Y019171D03*
X000900Y019171D03*
D15*
X021623Y013221D03*
X021977Y013221D03*
D16*
X009657Y007965D03*
X009657Y007768D03*
X009657Y007571D03*
X009657Y007375D03*
X009657Y007178D03*
X008043Y007178D03*
X008043Y007375D03*
X008043Y007571D03*
X008043Y007768D03*
X008043Y007965D03*
D17*
X011876Y006983D03*
X012250Y006983D03*
X012624Y006983D03*
X012624Y005960D03*
X012250Y005960D03*
X011876Y005960D03*
X015476Y006660D03*
X015850Y006660D03*
X016224Y006660D03*
X016224Y007683D03*
X015850Y007683D03*
X015476Y007683D03*
D18*
X017400Y007527D03*
X017400Y007016D03*
X012000Y008266D03*
X012000Y008777D03*
X011300Y008777D03*
X011300Y008266D03*
X007450Y006927D03*
X007450Y006416D03*
D19*
X013344Y006421D03*
X013856Y006421D03*
X014794Y009521D03*
X015306Y009521D03*
X015994Y009521D03*
X016506Y009521D03*
D20*
X016489Y001557D03*
X019441Y001557D03*
X020819Y001557D03*
X013536Y001557D03*
X012158Y001557D03*
X009189Y001557D03*
X007811Y001557D03*
D21*
X006433Y001557D03*
X010780Y001557D03*
X015111Y001557D03*
X018063Y001557D03*
D22*
X005941Y001065D02*
X000732Y001065D01*
X000623Y001145D02*
X000439Y001398D01*
X000342Y001696D01*
X000330Y001853D01*
X000330Y007955D01*
X000334Y007997D01*
X000366Y008074D01*
X000425Y008133D01*
X000502Y008165D01*
X000544Y008169D01*
X001839Y008169D01*
X002050Y008256D01*
X010330Y008256D01*
X010428Y008355D02*
X002148Y008355D01*
X002211Y008417D02*
X002211Y008417D01*
X002050Y008256D01*
X002050Y008256D01*
X002211Y008417D02*
X002299Y008628D01*
X002299Y014762D01*
X002211Y014973D01*
X002050Y015134D01*
X002050Y015134D01*
X001839Y015222D01*
X000544Y015222D01*
X000502Y015226D01*
X000425Y015258D01*
X000366Y015317D01*
X000334Y015394D01*
X000330Y015435D01*
X000330Y021538D01*
X000342Y021694D01*
X000439Y021992D01*
X000623Y022246D01*
X000877Y022430D01*
X001174Y022526D01*
X001331Y022539D01*
X024559Y022539D01*
X024716Y022526D01*
X025014Y022430D01*
X025267Y022246D01*
X025451Y021992D01*
X025548Y021694D01*
X025561Y021538D01*
X025561Y001853D01*
X025548Y001696D01*
X025451Y001398D01*
X025267Y001145D01*
X025014Y000961D01*
X024716Y000864D01*
X024559Y000851D01*
X015835Y000851D01*
X015980Y000997D01*
X015980Y001400D01*
X016039Y001257D01*
X016188Y001108D01*
X016383Y001027D01*
X016594Y001027D01*
X016789Y001108D01*
X016938Y001257D01*
X017007Y001424D01*
X017513Y001930D01*
X017513Y001607D01*
X018013Y001607D01*
X018013Y001507D01*
X018113Y001507D01*
X018113Y001007D01*
X018483Y001007D01*
X018521Y001018D01*
X018555Y001037D01*
X018583Y001065D01*
X018603Y001099D01*
X018613Y001138D01*
X018613Y001507D01*
X018113Y001507D01*
X018113Y001607D01*
X018013Y001607D01*
X018013Y002107D01*
X017690Y002107D01*
X018225Y002641D01*
X018330Y002747D01*
X018330Y007896D01*
X018225Y008001D01*
X018225Y008001D01*
X017775Y008451D01*
X015601Y008451D01*
X015401Y008251D01*
X012425Y008251D01*
X012327Y008153D01*
X012327Y008247D01*
X012019Y008247D01*
X012019Y008284D01*
X012327Y008284D01*
X012327Y008423D01*
X012317Y008461D01*
X012297Y008495D01*
X012269Y008523D01*
X012254Y008532D01*
X012307Y008586D01*
X012307Y008597D01*
X015660Y008597D01*
X015714Y008543D01*
X015835Y008493D01*
X015965Y008493D01*
X016086Y008543D01*
X016178Y008635D01*
X016228Y008756D01*
X016228Y008887D01*
X016178Y009008D01*
X016174Y009012D01*
X016174Y009214D01*
X016186Y009214D01*
X016239Y009268D01*
X016248Y009252D01*
X016276Y009224D01*
X016310Y009205D01*
X016348Y009194D01*
X016487Y009194D01*
X016487Y009503D01*
X016525Y009503D01*
X016525Y009540D01*
X016794Y009540D01*
X016794Y009718D01*
X016783Y009757D01*
X016764Y009791D01*
X016736Y009819D01*
X016702Y009838D01*
X016663Y009849D01*
X016525Y009849D01*
X016525Y009540D01*
X016487Y009540D01*
X016487Y009849D01*
X016348Y009849D01*
X016310Y009838D01*
X016276Y009819D01*
X016248Y009791D01*
X016239Y009775D01*
X016186Y009829D01*
X016174Y009829D01*
X016174Y012287D01*
X016230Y012343D01*
X016230Y012347D01*
X017825Y013941D01*
X017873Y013990D01*
X018475Y013387D01*
X019223Y013387D01*
X019223Y013297D01*
X019299Y013221D01*
X019801Y013221D01*
X019877Y013297D01*
X019877Y013387D01*
X020373Y013387D01*
X020373Y013297D01*
X020449Y013221D01*
X020951Y013221D01*
X021027Y013297D01*
X021027Y013838D01*
X020951Y013914D01*
X020449Y013914D01*
X020373Y013838D01*
X020373Y013747D01*
X019877Y013747D01*
X019877Y013838D01*
X019801Y013914D01*
X019299Y013914D01*
X019223Y013838D01*
X019223Y013747D01*
X018625Y013747D01*
X018077Y014295D01*
X018077Y014638D01*
X018001Y014714D01*
X017612Y014714D01*
X017597Y014729D01*
X018001Y014729D01*
X018032Y014761D01*
X018116Y014761D01*
X018186Y014691D01*
X019164Y014691D01*
X019240Y014767D01*
X019240Y015115D01*
X019164Y015191D01*
X019240Y015267D01*
X019240Y015280D01*
X019276Y015281D01*
X019364Y015193D01*
X019370Y015191D01*
X019370Y014622D01*
X019299Y014622D01*
X019223Y014546D01*
X019223Y014005D01*
X019299Y013929D01*
X019801Y013929D01*
X019877Y014005D01*
X019877Y014546D01*
X019801Y014622D01*
X019730Y014622D01*
X019730Y015191D01*
X019736Y015193D01*
X019828Y015285D01*
X019878Y015406D01*
X019878Y015537D01*
X019877Y015540D01*
X020520Y014897D01*
X020520Y014622D01*
X020449Y014622D01*
X020373Y014546D01*
X020373Y014005D01*
X020449Y013929D01*
X020951Y013929D01*
X021027Y014005D01*
X021027Y014096D01*
X021321Y014096D01*
X021420Y013997D01*
X021420Y013578D01*
X021368Y013525D01*
X021368Y012918D01*
X021444Y012841D01*
X021777Y012841D01*
X021794Y012832D01*
X021832Y012821D01*
X021965Y012821D01*
X021965Y013209D01*
X021990Y013209D01*
X021990Y013234D01*
X022252Y013234D01*
X022252Y013491D01*
X022242Y013529D01*
X022222Y013564D01*
X022194Y013592D01*
X022160Y013611D01*
X022122Y013621D01*
X021990Y013621D01*
X021990Y013234D01*
X021965Y013234D01*
X021965Y013621D01*
X021832Y013621D01*
X021794Y013611D01*
X021780Y013603D01*
X021780Y014146D01*
X021675Y014251D01*
X021470Y014456D01*
X021027Y014456D01*
X021027Y014546D01*
X020951Y014622D01*
X020880Y014622D01*
X020880Y014671D01*
X021315Y014671D01*
X021315Y014931D01*
X021335Y014931D01*
X021335Y014671D01*
X021780Y014671D01*
X021818Y014681D01*
X021852Y014701D01*
X021880Y014729D01*
X021900Y014763D01*
X021910Y014801D01*
X021910Y014931D01*
X021335Y014931D01*
X021335Y014951D01*
X021315Y014951D01*
X021315Y015211D01*
X021315Y015431D01*
X020740Y015431D01*
X020740Y015301D01*
X020750Y015263D01*
X020770Y015229D01*
X020798Y015201D01*
X020815Y015191D01*
X020798Y015181D01*
X020772Y015154D01*
X019830Y016096D01*
X019725Y016201D01*
X019175Y016201D01*
X019240Y016267D01*
X019240Y016615D01*
X019164Y016691D01*
X018186Y016691D01*
X018116Y016621D01*
X017530Y016621D01*
X017530Y017946D01*
X017425Y018051D01*
X017225Y018251D01*
X011675Y018251D01*
X011580Y018346D01*
X011580Y018855D01*
X011645Y018790D01*
X011810Y018721D01*
X011990Y018721D01*
X012155Y018790D01*
X012281Y018917D01*
X012350Y019082D01*
X012350Y019261D01*
X012281Y019426D01*
X012155Y019553D01*
X012080Y019584D01*
X012080Y020221D01*
X012277Y020418D01*
X012355Y020386D01*
X012536Y020386D01*
X012703Y020455D01*
X012831Y020583D01*
X012900Y020750D01*
X012900Y020931D01*
X012831Y021099D01*
X012703Y021227D01*
X012536Y021296D01*
X012355Y021296D01*
X012188Y021227D01*
X012060Y021099D01*
X011990Y020931D01*
X011990Y020750D01*
X012022Y020673D01*
X011720Y020370D01*
X011720Y019584D01*
X011645Y019553D01*
X011580Y019488D01*
X011580Y020404D01*
X011703Y020455D01*
X011831Y020583D01*
X011900Y020750D01*
X011900Y020931D01*
X011831Y021099D01*
X011703Y021227D01*
X011536Y021296D01*
X011355Y021296D01*
X011188Y021227D01*
X011060Y021099D01*
X010990Y020931D01*
X010990Y020750D01*
X011060Y020583D01*
X011188Y020455D01*
X011220Y020442D01*
X011220Y019488D01*
X011155Y019553D01*
X010990Y019621D01*
X010810Y019621D01*
X010645Y019553D01*
X010519Y019426D01*
X010450Y019261D01*
X010450Y019082D01*
X010519Y018917D01*
X010645Y018790D01*
X010810Y018721D01*
X010990Y018721D01*
X011155Y018790D01*
X011220Y018855D01*
X011220Y018197D01*
X011325Y018091D01*
X011420Y017997D01*
X011525Y017891D01*
X017075Y017891D01*
X017170Y017797D01*
X017170Y015156D01*
X017077Y015249D01*
X017077Y015346D01*
X017001Y015422D01*
X016499Y015422D01*
X016423Y015346D01*
X016423Y014805D01*
X016499Y014729D01*
X016517Y014729D01*
X016495Y014723D01*
X016461Y014704D01*
X016433Y014676D01*
X016413Y014642D01*
X016403Y014603D01*
X016403Y014416D01*
X016702Y014416D01*
X016702Y014319D01*
X016798Y014319D01*
X016798Y014001D01*
X016967Y014001D01*
X017005Y014011D01*
X017039Y014031D01*
X017067Y014059D01*
X017087Y014093D01*
X017097Y014131D01*
X017097Y014319D01*
X016798Y014319D01*
X016798Y014416D01*
X017097Y014416D01*
X017097Y014603D01*
X017087Y014642D01*
X017067Y014676D01*
X017039Y014704D01*
X017005Y014723D01*
X016983Y014729D01*
X017001Y014729D01*
X017044Y014773D01*
X017170Y014647D01*
X017275Y014541D01*
X017423Y014394D01*
X017423Y014097D01*
X017447Y014073D01*
X015975Y012601D01*
X015870Y012496D01*
X015870Y012492D01*
X015814Y012436D01*
X015814Y009829D01*
X015802Y009829D01*
X015726Y009753D01*
X015726Y009701D01*
X015574Y009701D01*
X015574Y009753D01*
X015498Y009829D01*
X015114Y009829D01*
X015061Y009775D01*
X015052Y009791D01*
X015024Y009819D01*
X014990Y009838D01*
X014952Y009849D01*
X014813Y009849D01*
X014813Y009540D01*
X014775Y009540D01*
X014775Y009503D01*
X014506Y009503D01*
X014506Y009325D01*
X014517Y009286D01*
X014536Y009252D01*
X014564Y009224D01*
X014598Y009205D01*
X014637Y009194D01*
X014775Y009194D01*
X014775Y009503D01*
X014813Y009503D01*
X014813Y009194D01*
X014952Y009194D01*
X014990Y009205D01*
X015024Y009224D01*
X015052Y009252D01*
X015061Y009268D01*
X015114Y009214D01*
X015498Y009214D01*
X015574Y009290D01*
X015574Y009341D01*
X015726Y009341D01*
X015726Y009290D01*
X015802Y009214D01*
X015814Y009214D01*
X015814Y009141D01*
X015714Y009100D01*
X015622Y009008D01*
X015601Y008957D01*
X012307Y008957D01*
X012307Y008969D01*
X012231Y009045D01*
X011769Y009045D01*
X011693Y008969D01*
X011693Y008957D01*
X011607Y008957D01*
X011607Y008969D01*
X011531Y009045D01*
X011069Y009045D01*
X010993Y008969D01*
X010993Y008919D01*
X009984Y007910D01*
X009984Y008078D01*
X009908Y008154D01*
X009406Y008154D01*
X009397Y008145D01*
X008919Y008145D01*
X008725Y007951D01*
X008675Y007901D01*
X008625Y007951D01*
X008431Y008145D01*
X008303Y008145D01*
X008294Y008154D01*
X007792Y008154D01*
X007716Y008078D01*
X007716Y007948D01*
X006922Y007948D01*
X006625Y007651D01*
X006520Y007546D01*
X006520Y002087D01*
X005980Y002087D01*
X005903Y002011D01*
X005903Y001103D01*
X005980Y001027D01*
X006887Y001027D01*
X006963Y001103D01*
X006963Y002011D01*
X006887Y002087D01*
X006880Y002087D01*
X006880Y007397D01*
X007071Y007588D01*
X007696Y007588D01*
X007696Y007572D01*
X008043Y007572D01*
X008043Y007571D01*
X007696Y007571D01*
X007696Y007493D01*
X007706Y007455D01*
X007716Y007438D01*
X007716Y007187D01*
X007685Y007205D01*
X007647Y007215D01*
X007469Y007215D01*
X007469Y006946D01*
X007431Y006946D01*
X007431Y006909D01*
X007123Y006909D01*
X007123Y006770D01*
X007133Y006732D01*
X007153Y006698D01*
X007181Y006670D01*
X007196Y006661D01*
X007143Y006607D01*
X007143Y006224D01*
X007219Y006148D01*
X007681Y006148D01*
X007757Y006224D01*
X007757Y006468D01*
X008223Y006934D01*
X008223Y006989D01*
X008294Y006989D01*
X008370Y007065D01*
X008370Y007438D01*
X008370Y001996D01*
X008246Y001872D01*
X008112Y002007D01*
X007917Y002087D01*
X007706Y002087D01*
X007511Y002007D01*
X007362Y001858D01*
X007281Y001663D01*
X007281Y001452D01*
X007362Y001257D01*
X007511Y001108D01*
X007706Y001027D01*
X007917Y001027D01*
X008112Y001108D01*
X008261Y001257D01*
X008341Y001452D01*
X008341Y001458D01*
X008675Y001792D01*
X008702Y001765D01*
X008659Y001663D01*
X008659Y001452D01*
X008740Y001257D01*
X008889Y001108D01*
X009084Y001027D01*
X009295Y001027D01*
X009490Y001108D01*
X009639Y001257D01*
X009719Y001452D01*
X009719Y001663D01*
X009639Y001858D01*
X009490Y002007D01*
X009295Y002087D01*
X009084Y002087D01*
X008980Y002044D01*
X008980Y002941D01*
X008981Y002941D01*
X010250Y001794D01*
X010250Y001103D01*
X010326Y001027D01*
X011234Y001027D01*
X011310Y001103D01*
X011310Y002011D01*
X011234Y002087D01*
X010462Y002087D01*
X009230Y003201D01*
X009230Y006087D01*
X009470Y005847D01*
X009575Y005741D01*
X011638Y005741D01*
X011638Y005670D01*
X011714Y005593D01*
X012038Y005593D01*
X012049Y005604D01*
X012050Y005603D01*
X012084Y005584D01*
X012122Y005573D01*
X012246Y005573D01*
X012246Y005956D01*
X012254Y005956D01*
X012254Y005573D01*
X012378Y005573D01*
X012416Y005584D01*
X012444Y005600D01*
X012444Y002112D01*
X012375Y002041D01*
X012263Y002087D01*
X012052Y002087D01*
X011858Y002007D01*
X011709Y001858D01*
X011628Y001663D01*
X011628Y001452D01*
X011709Y001257D01*
X011858Y001108D01*
X012052Y001027D01*
X012263Y001027D01*
X012458Y001108D01*
X012607Y001257D01*
X012688Y001452D01*
X012688Y001663D01*
X012635Y001791D01*
X012752Y001913D01*
X012804Y001965D01*
X012804Y001966D01*
X012805Y001968D01*
X012804Y002041D01*
X012804Y005611D01*
X012862Y005670D01*
X012862Y006250D01*
X012786Y006326D01*
X012462Y006326D01*
X012451Y006315D01*
X012450Y006316D01*
X012416Y006336D01*
X012378Y006346D01*
X012254Y006346D01*
X012254Y005964D01*
X012246Y005964D01*
X012246Y006346D01*
X012122Y006346D01*
X012084Y006336D01*
X012050Y006316D01*
X012049Y006315D01*
X012038Y006326D01*
X011714Y006326D01*
X011638Y006250D01*
X011638Y006101D01*
X009725Y006101D01*
X009430Y006396D01*
X009430Y006989D01*
X009477Y006989D01*
X009477Y006840D01*
X009870Y006447D01*
X009975Y006341D01*
X012075Y006341D01*
X012325Y006591D01*
X012350Y006617D01*
X012412Y006617D01*
X012437Y006642D01*
X012462Y006617D01*
X012786Y006617D01*
X012837Y006668D01*
X013076Y006433D01*
X013076Y006190D01*
X013152Y006114D01*
X013536Y006114D01*
X013589Y006168D01*
X013598Y006152D01*
X013626Y006124D01*
X013660Y006105D01*
X013698Y006094D01*
X013837Y006094D01*
X013837Y006403D01*
X013875Y006403D01*
X013875Y006440D01*
X014144Y006440D01*
X014144Y006618D01*
X014133Y006657D01*
X014114Y006691D01*
X014086Y006719D01*
X014052Y006738D01*
X014013Y006749D01*
X013875Y006749D01*
X013875Y006440D01*
X013837Y006440D01*
X013837Y006749D01*
X013698Y006749D01*
X013660Y006738D01*
X013626Y006719D01*
X013598Y006691D01*
X013589Y006675D01*
X013536Y006729D01*
X013289Y006729D01*
X012917Y007095D01*
X012873Y007146D01*
X012865Y007146D01*
X012862Y007149D01*
X012862Y007273D01*
X012786Y007350D01*
X012471Y007350D01*
X012513Y007391D01*
X014920Y007391D01*
X014920Y002087D01*
X014657Y002087D01*
X014581Y002011D01*
X014581Y001103D01*
X014633Y001051D01*
X013703Y001051D01*
X013703Y001053D01*
X013836Y001108D01*
X013985Y001257D01*
X014066Y001452D01*
X014066Y001663D01*
X013985Y001858D01*
X013836Y002007D01*
X013641Y002087D01*
X013430Y002087D01*
X013236Y002007D01*
X013087Y001858D01*
X013006Y001663D01*
X013006Y001452D01*
X013087Y001257D01*
X013236Y001108D01*
X013343Y001064D01*
X013342Y001028D01*
X013340Y001026D01*
X013340Y000954D01*
X013338Y000882D01*
X013340Y000880D01*
X013340Y000877D01*
X013365Y000851D01*
X001331Y000851D01*
X001174Y000864D01*
X000877Y000961D01*
X000623Y001145D01*
X000609Y001164D02*
X005903Y001164D01*
X005903Y001262D02*
X000538Y001262D01*
X000466Y001361D02*
X001362Y001361D01*
X001370Y001357D02*
X001686Y001357D01*
X001971Y001494D01*
X001971Y001494D01*
X002168Y001741D01*
X002205Y001904D01*
X002209Y001914D01*
X002209Y001922D01*
X002238Y002049D01*
X002209Y002177D01*
X002209Y002185D01*
X002205Y002195D01*
X002168Y002358D01*
X001971Y002605D01*
X001971Y002605D01*
X001686Y002742D01*
X001370Y002742D01*
X001085Y002605D01*
X001085Y002605D01*
X001085Y002605D01*
X000888Y002358D01*
X000888Y002358D01*
X000851Y002195D01*
X000847Y002185D01*
X000847Y002177D01*
X000818Y002049D01*
X000847Y001922D01*
X000847Y001914D01*
X000851Y001904D01*
X000888Y001741D01*
X001085Y001494D01*
X001370Y001357D01*
X001157Y001459D02*
X000419Y001459D01*
X000387Y001558D02*
X001034Y001558D01*
X001085Y001494D02*
X001085Y001494D01*
X000956Y001656D02*
X000355Y001656D01*
X000338Y001755D02*
X000885Y001755D01*
X000888Y001741D02*
X000888Y001741D01*
X000862Y001853D02*
X000330Y001853D01*
X000330Y001952D02*
X000840Y001952D01*
X000818Y002049D02*
X000818Y002049D01*
X000818Y002050D02*
X000330Y002050D01*
X000330Y002149D02*
X000840Y002149D01*
X000863Y002248D02*
X000330Y002248D01*
X000330Y002346D02*
X000885Y002346D01*
X000957Y002445D02*
X000330Y002445D01*
X000330Y002543D02*
X001036Y002543D01*
X001161Y002642D02*
X000330Y002642D01*
X000330Y002740D02*
X001366Y002740D01*
X001690Y002740D02*
X006520Y002740D01*
X006520Y002642D02*
X001894Y002642D01*
X002020Y002543D02*
X006520Y002543D01*
X006520Y002445D02*
X002099Y002445D01*
X002168Y002358D02*
X002168Y002358D01*
X002171Y002346D02*
X006520Y002346D01*
X006520Y002248D02*
X002193Y002248D01*
X002215Y002149D02*
X006520Y002149D01*
X006880Y002149D02*
X008370Y002149D01*
X008370Y002248D02*
X006880Y002248D01*
X006880Y002346D02*
X008370Y002346D01*
X008370Y002445D02*
X006880Y002445D01*
X006880Y002543D02*
X008370Y002543D01*
X008370Y002642D02*
X006880Y002642D01*
X006880Y002740D02*
X008370Y002740D01*
X008370Y002839D02*
X006880Y002839D01*
X006880Y002937D02*
X008370Y002937D01*
X008370Y003036D02*
X006880Y003036D01*
X006880Y003134D02*
X008370Y003134D01*
X008370Y003233D02*
X006880Y003233D01*
X006880Y003331D02*
X008370Y003331D01*
X008370Y003430D02*
X006880Y003430D01*
X006880Y003528D02*
X008370Y003528D01*
X008370Y003627D02*
X006880Y003627D01*
X006880Y003725D02*
X008370Y003725D01*
X008370Y003824D02*
X006880Y003824D01*
X006880Y003922D02*
X008370Y003922D01*
X008370Y004021D02*
X006880Y004021D01*
X006880Y004119D02*
X008370Y004119D01*
X008370Y004218D02*
X006880Y004218D01*
X006880Y004316D02*
X008370Y004316D01*
X008370Y004415D02*
X006880Y004415D01*
X006880Y004513D02*
X008370Y004513D01*
X008370Y004612D02*
X006880Y004612D01*
X006880Y004710D02*
X008370Y004710D01*
X008370Y004809D02*
X006880Y004809D01*
X006880Y004907D02*
X008370Y004907D01*
X008370Y005006D02*
X006880Y005006D01*
X006880Y005104D02*
X008370Y005104D01*
X008370Y005203D02*
X006880Y005203D01*
X006880Y005301D02*
X008370Y005301D01*
X008370Y005400D02*
X006880Y005400D01*
X006880Y005498D02*
X008370Y005498D01*
X008370Y005597D02*
X006880Y005597D01*
X006880Y005695D02*
X008370Y005695D01*
X008370Y005794D02*
X006880Y005794D01*
X006880Y005892D02*
X008370Y005892D01*
X008370Y005991D02*
X006880Y005991D01*
X006880Y006089D02*
X008370Y006089D01*
X008370Y006188D02*
X007721Y006188D01*
X007757Y006286D02*
X008370Y006286D01*
X008370Y006385D02*
X007757Y006385D01*
X007772Y006483D02*
X008370Y006483D01*
X008370Y006582D02*
X007870Y006582D01*
X007969Y006680D02*
X008370Y006680D01*
X008370Y006779D02*
X008067Y006779D01*
X008166Y006877D02*
X008370Y006877D01*
X008370Y006976D02*
X008223Y006976D01*
X008370Y007074D02*
X008370Y007074D01*
X008370Y007173D02*
X008370Y007173D01*
X008370Y007271D02*
X008370Y007271D01*
X008370Y007370D02*
X008370Y007370D01*
X008370Y007438D02*
X008370Y007438D01*
X008550Y007771D02*
X008550Y001921D01*
X008186Y001557D01*
X007811Y001557D01*
X008304Y001361D02*
X008697Y001361D01*
X008659Y001459D02*
X008343Y001459D01*
X008441Y001558D02*
X008659Y001558D01*
X008659Y001656D02*
X008540Y001656D01*
X008638Y001755D02*
X008698Y001755D01*
X008800Y001921D02*
X009164Y001557D01*
X009189Y001557D01*
X008833Y001164D02*
X008168Y001164D01*
X008263Y001262D02*
X008738Y001262D01*
X008992Y001065D02*
X008009Y001065D01*
X007614Y001065D02*
X006925Y001065D01*
X006963Y001164D02*
X007455Y001164D01*
X007360Y001262D02*
X006963Y001262D01*
X006963Y001361D02*
X007319Y001361D01*
X007281Y001459D02*
X006963Y001459D01*
X006963Y001558D02*
X007281Y001558D01*
X007281Y001656D02*
X006963Y001656D01*
X006963Y001755D02*
X007320Y001755D01*
X007360Y001853D02*
X006963Y001853D01*
X006963Y001952D02*
X007457Y001952D01*
X007617Y002050D02*
X006924Y002050D01*
X006700Y001824D02*
X006433Y001557D01*
X006700Y001824D02*
X006700Y007471D01*
X006997Y007768D01*
X008043Y007768D01*
X008043Y007965D02*
X008356Y007965D01*
X008550Y007771D01*
X008616Y007961D02*
X008734Y007961D01*
X008833Y008059D02*
X008517Y008059D01*
X008800Y007771D02*
X008800Y001921D01*
X008980Y002050D02*
X008995Y002050D01*
X008980Y002149D02*
X009857Y002149D01*
X009748Y002248D02*
X008980Y002248D01*
X008980Y002346D02*
X009639Y002346D01*
X009530Y002445D02*
X008980Y002445D01*
X008980Y002543D02*
X009421Y002543D01*
X009312Y002642D02*
X008980Y002642D01*
X008980Y002740D02*
X009204Y002740D01*
X009095Y002839D02*
X008980Y002839D01*
X008980Y002937D02*
X008986Y002937D01*
X009050Y003121D02*
X010780Y001557D01*
X011310Y001558D02*
X011628Y001558D01*
X011628Y001656D02*
X011310Y001656D01*
X011310Y001755D02*
X011666Y001755D01*
X011707Y001853D02*
X011310Y001853D01*
X011310Y001952D02*
X011803Y001952D01*
X011964Y002050D02*
X011271Y002050D01*
X011310Y001459D02*
X011628Y001459D01*
X011666Y001361D02*
X011310Y001361D01*
X011310Y001262D02*
X011706Y001262D01*
X011802Y001164D02*
X011310Y001164D01*
X011272Y001065D02*
X011960Y001065D01*
X012355Y001065D02*
X013338Y001065D01*
X013340Y000967D02*
X000868Y000967D01*
X001160Y000868D02*
X013348Y000868D01*
X013520Y000951D02*
X013600Y000871D01*
X015600Y000871D01*
X015800Y001071D01*
X015800Y001921D01*
X016224Y002346D01*
X016224Y006660D01*
X016462Y006680D02*
X017970Y006680D01*
X017970Y006582D02*
X016462Y006582D01*
X016462Y006483D02*
X017970Y006483D01*
X017970Y006385D02*
X016462Y006385D01*
X016462Y006370D02*
X016462Y006950D01*
X016386Y007026D01*
X016062Y007026D01*
X016051Y007015D01*
X016050Y007016D01*
X016016Y007036D01*
X015978Y007046D01*
X015879Y007046D01*
X015930Y007097D01*
X016030Y007197D01*
X016030Y007335D01*
X016037Y007342D01*
X016062Y007317D01*
X016386Y007317D01*
X016416Y007347D01*
X017093Y007347D01*
X017093Y007336D01*
X017146Y007282D01*
X017131Y007273D01*
X017103Y007245D01*
X017083Y007211D01*
X017073Y007173D01*
X017073Y007034D01*
X017381Y007034D01*
X017381Y006997D01*
X017073Y006997D01*
X017073Y006858D01*
X017083Y006820D01*
X017103Y006786D01*
X017131Y006758D01*
X017165Y006738D01*
X017203Y006728D01*
X017381Y006728D01*
X017381Y006997D01*
X017419Y006997D01*
X017419Y007034D01*
X017727Y007034D01*
X017727Y007173D01*
X017717Y007211D01*
X017697Y007245D01*
X017669Y007273D01*
X017654Y007282D01*
X017707Y007336D01*
X017707Y007719D01*
X017631Y007795D01*
X017169Y007795D01*
X017093Y007719D01*
X017093Y007707D01*
X016462Y007707D01*
X016462Y007973D01*
X016386Y008050D01*
X016062Y008050D01*
X016037Y008025D01*
X016012Y008050D01*
X015709Y008050D01*
X015751Y008091D01*
X017625Y008091D01*
X017970Y007747D01*
X017970Y002896D01*
X016935Y001861D01*
X016789Y002007D01*
X016594Y002087D01*
X016383Y002087D01*
X016188Y002007D01*
X016039Y001858D01*
X015980Y001714D01*
X015980Y001847D01*
X016404Y002271D01*
X016404Y006311D01*
X016462Y006370D01*
X016404Y006286D02*
X017970Y006286D01*
X017970Y006188D02*
X016404Y006188D01*
X016404Y006089D02*
X017970Y006089D01*
X017970Y005991D02*
X016404Y005991D01*
X016404Y005892D02*
X017970Y005892D01*
X017970Y005794D02*
X016404Y005794D01*
X016404Y005695D02*
X017970Y005695D01*
X017970Y005597D02*
X016404Y005597D01*
X016404Y005498D02*
X017970Y005498D01*
X017970Y005400D02*
X016404Y005400D01*
X016404Y005301D02*
X017970Y005301D01*
X017970Y005203D02*
X016404Y005203D01*
X016404Y005104D02*
X017970Y005104D01*
X017970Y005006D02*
X016404Y005006D01*
X016404Y004907D02*
X017970Y004907D01*
X017970Y004809D02*
X016404Y004809D01*
X016404Y004710D02*
X017970Y004710D01*
X017970Y004612D02*
X016404Y004612D01*
X016404Y004513D02*
X017970Y004513D01*
X017970Y004415D02*
X016404Y004415D01*
X016404Y004316D02*
X017970Y004316D01*
X017970Y004218D02*
X016404Y004218D01*
X016404Y004119D02*
X017970Y004119D01*
X017970Y004021D02*
X016404Y004021D01*
X016404Y003922D02*
X017970Y003922D01*
X017970Y003824D02*
X016404Y003824D01*
X016404Y003725D02*
X017970Y003725D01*
X017970Y003627D02*
X016404Y003627D01*
X016404Y003528D02*
X017970Y003528D01*
X017970Y003430D02*
X016404Y003430D01*
X016404Y003331D02*
X017970Y003331D01*
X017970Y003233D02*
X016404Y003233D01*
X016404Y003134D02*
X017970Y003134D01*
X017970Y003036D02*
X016404Y003036D01*
X016404Y002937D02*
X017970Y002937D01*
X017912Y002839D02*
X016404Y002839D01*
X016404Y002740D02*
X017814Y002740D01*
X017715Y002642D02*
X016404Y002642D01*
X016404Y002543D02*
X017617Y002543D01*
X017518Y002445D02*
X016404Y002445D01*
X016404Y002346D02*
X017420Y002346D01*
X017321Y002248D02*
X016381Y002248D01*
X016282Y002149D02*
X017223Y002149D01*
X017124Y002050D02*
X016683Y002050D01*
X016843Y001952D02*
X017026Y001952D01*
X017240Y001656D02*
X017513Y001656D01*
X017513Y001755D02*
X017338Y001755D01*
X017437Y001853D02*
X017513Y001853D01*
X017732Y002149D02*
X019261Y002149D01*
X019261Y002056D02*
X019141Y002007D01*
X018992Y001858D01*
X018911Y001663D01*
X018911Y001452D01*
X018992Y001257D01*
X019141Y001108D01*
X019336Y001027D01*
X019547Y001027D01*
X019742Y001108D01*
X019891Y001257D01*
X019971Y001452D01*
X019971Y001663D01*
X019891Y001858D01*
X019742Y002007D01*
X019621Y002056D01*
X019621Y008978D01*
X019639Y008985D01*
X019736Y009083D01*
X019789Y009211D01*
X019789Y009349D01*
X019736Y009477D01*
X019639Y009575D01*
X019511Y009628D01*
X019372Y009628D01*
X019244Y009575D01*
X019146Y009477D01*
X019093Y009349D01*
X019093Y009211D01*
X019146Y009083D01*
X019244Y008985D01*
X019261Y008978D01*
X019261Y002056D01*
X019247Y002050D02*
X018582Y002050D01*
X018583Y002049D02*
X018555Y002077D01*
X018521Y002097D01*
X018483Y002107D01*
X018113Y002107D01*
X018113Y001607D01*
X018613Y001607D01*
X018613Y001977D01*
X018603Y002015D01*
X018583Y002049D01*
X018613Y001952D02*
X019086Y001952D01*
X018990Y001853D02*
X018613Y001853D01*
X018613Y001755D02*
X018950Y001755D01*
X018911Y001656D02*
X018613Y001656D01*
X018613Y001459D02*
X018911Y001459D01*
X018911Y001558D02*
X018113Y001558D01*
X018113Y001656D02*
X018013Y001656D01*
X018013Y001558D02*
X017141Y001558D01*
X017043Y001459D02*
X017513Y001459D01*
X017513Y001507D02*
X017513Y001138D01*
X017524Y001099D01*
X017543Y001065D01*
X017571Y001037D01*
X017605Y001018D01*
X017644Y001007D01*
X018013Y001007D01*
X018013Y001507D01*
X017513Y001507D01*
X017513Y001361D02*
X016981Y001361D01*
X016940Y001262D02*
X017513Y001262D01*
X017513Y001164D02*
X016845Y001164D01*
X016686Y001065D02*
X017543Y001065D01*
X018013Y001065D02*
X018113Y001065D01*
X018113Y001164D02*
X018013Y001164D01*
X018013Y001262D02*
X018113Y001262D01*
X018113Y001361D02*
X018013Y001361D01*
X018013Y001459D02*
X018113Y001459D01*
X018113Y001755D02*
X018013Y001755D01*
X018013Y001853D02*
X018113Y001853D01*
X018113Y001952D02*
X018013Y001952D01*
X018013Y002050D02*
X018113Y002050D01*
X017831Y002248D02*
X019261Y002248D01*
X019261Y002346D02*
X017929Y002346D01*
X018028Y002445D02*
X019261Y002445D01*
X019261Y002543D02*
X018126Y002543D01*
X018225Y002642D02*
X019261Y002642D01*
X019261Y002740D02*
X018323Y002740D01*
X018330Y002839D02*
X019261Y002839D01*
X019261Y002937D02*
X018330Y002937D01*
X018330Y003036D02*
X019261Y003036D01*
X019261Y003134D02*
X018330Y003134D01*
X018330Y003233D02*
X019261Y003233D01*
X019261Y003331D02*
X018330Y003331D01*
X018330Y003430D02*
X019261Y003430D01*
X019261Y003528D02*
X018330Y003528D01*
X018330Y003627D02*
X019261Y003627D01*
X019261Y003725D02*
X018330Y003725D01*
X018330Y003824D02*
X019261Y003824D01*
X019261Y003922D02*
X018330Y003922D01*
X018330Y004021D02*
X019261Y004021D01*
X019261Y004119D02*
X018330Y004119D01*
X018330Y004218D02*
X019261Y004218D01*
X019261Y004316D02*
X018330Y004316D01*
X018330Y004415D02*
X019261Y004415D01*
X019261Y004513D02*
X018330Y004513D01*
X018330Y004612D02*
X019261Y004612D01*
X019261Y004710D02*
X018330Y004710D01*
X018330Y004809D02*
X019261Y004809D01*
X019261Y004907D02*
X018330Y004907D01*
X018330Y005006D02*
X019261Y005006D01*
X019261Y005104D02*
X018330Y005104D01*
X018330Y005203D02*
X019261Y005203D01*
X019261Y005301D02*
X018330Y005301D01*
X018330Y005400D02*
X019261Y005400D01*
X019261Y005498D02*
X018330Y005498D01*
X018330Y005597D02*
X019261Y005597D01*
X019261Y005695D02*
X018330Y005695D01*
X018330Y005794D02*
X019261Y005794D01*
X019261Y005892D02*
X018330Y005892D01*
X018330Y005991D02*
X019261Y005991D01*
X019261Y006089D02*
X018330Y006089D01*
X018330Y006188D02*
X019261Y006188D01*
X019261Y006286D02*
X018330Y006286D01*
X018330Y006385D02*
X019261Y006385D01*
X019261Y006483D02*
X018330Y006483D01*
X018330Y006582D02*
X019261Y006582D01*
X019261Y006680D02*
X018330Y006680D01*
X018330Y006779D02*
X019261Y006779D01*
X019261Y006877D02*
X018330Y006877D01*
X018330Y006976D02*
X019261Y006976D01*
X019261Y007074D02*
X018330Y007074D01*
X018330Y007173D02*
X019261Y007173D01*
X019261Y007271D02*
X018330Y007271D01*
X018330Y007370D02*
X019261Y007370D01*
X019261Y007468D02*
X018330Y007468D01*
X018330Y007567D02*
X019261Y007567D01*
X019261Y007665D02*
X018330Y007665D01*
X018330Y007764D02*
X019261Y007764D01*
X019261Y007862D02*
X018330Y007862D01*
X018266Y007961D02*
X019261Y007961D01*
X019261Y008059D02*
X018167Y008059D01*
X018069Y008158D02*
X019261Y008158D01*
X019261Y008256D02*
X017970Y008256D01*
X017872Y008355D02*
X019261Y008355D01*
X019261Y008453D02*
X012319Y008453D01*
X012327Y008355D02*
X015504Y008355D01*
X015406Y008256D02*
X012019Y008256D01*
X012019Y008247D02*
X012019Y007978D01*
X012152Y007978D01*
X011775Y007601D01*
X011775Y007601D01*
X011670Y007496D01*
X011670Y007444D01*
X011559Y007555D01*
X010936Y007555D01*
X010978Y007656D01*
X010978Y007787D01*
X010928Y007908D01*
X010836Y008000D01*
X010715Y008050D01*
X010633Y008050D01*
X010973Y008390D01*
X010973Y008284D01*
X011281Y008284D01*
X011281Y008247D01*
X010973Y008247D01*
X010973Y008108D01*
X010983Y008070D01*
X011003Y008036D01*
X011031Y008008D01*
X011065Y007988D01*
X011103Y007978D01*
X011281Y007978D01*
X011281Y008247D01*
X011319Y008247D01*
X011319Y008284D01*
X011627Y008284D01*
X011627Y008423D01*
X011617Y008461D01*
X011597Y008495D01*
X011569Y008523D01*
X011554Y008532D01*
X011607Y008586D01*
X011607Y008597D01*
X011693Y008597D01*
X011693Y008586D01*
X011746Y008532D01*
X011731Y008523D01*
X011703Y008495D01*
X011683Y008461D01*
X011673Y008423D01*
X011673Y008284D01*
X011981Y008284D01*
X011981Y008247D01*
X011673Y008247D01*
X011673Y008108D01*
X011683Y008070D01*
X011703Y008036D01*
X011731Y008008D01*
X011765Y007988D01*
X011803Y007978D01*
X011981Y007978D01*
X011981Y008247D01*
X012019Y008247D01*
X011981Y008256D02*
X011319Y008256D01*
X011319Y008247D02*
X011627Y008247D01*
X011627Y008108D01*
X011617Y008070D01*
X011597Y008036D01*
X011569Y008008D01*
X011535Y007988D01*
X011497Y007978D01*
X011319Y007978D01*
X011319Y008247D01*
X011281Y008256D02*
X010839Y008256D01*
X010741Y008158D02*
X010973Y008158D01*
X010989Y008059D02*
X010642Y008059D01*
X010875Y007961D02*
X012134Y007961D01*
X012036Y007862D02*
X010947Y007862D01*
X010978Y007764D02*
X011937Y007764D01*
X011839Y007665D02*
X010978Y007665D01*
X010941Y007567D02*
X011740Y007567D01*
X011670Y007468D02*
X011646Y007468D01*
X011485Y007375D02*
X011876Y006983D01*
X011850Y007009D01*
X011850Y007421D01*
X012500Y008071D01*
X015476Y008071D01*
X015676Y008271D01*
X017700Y008271D01*
X018150Y007821D01*
X018150Y002821D01*
X016886Y001557D01*
X016489Y001557D01*
X016132Y001164D02*
X015980Y001164D01*
X015980Y001262D02*
X016037Y001262D01*
X015996Y001361D02*
X015980Y001361D01*
X015980Y001065D02*
X016291Y001065D01*
X015950Y000967D02*
X025023Y000967D01*
X025158Y001065D02*
X021017Y001065D01*
X020925Y001027D02*
X021120Y001108D01*
X021269Y001257D01*
X021349Y001452D01*
X021349Y001663D01*
X021269Y001858D01*
X021120Y002007D01*
X020925Y002087D01*
X020714Y002087D01*
X020519Y002007D01*
X020370Y001858D01*
X020289Y001663D01*
X020289Y001452D01*
X020370Y001257D01*
X020519Y001108D01*
X020714Y001027D01*
X020925Y001027D01*
X021175Y001164D02*
X025281Y001164D01*
X025353Y001262D02*
X021271Y001262D01*
X021312Y001361D02*
X024196Y001361D01*
X024205Y001357D02*
X024521Y001357D01*
X024805Y001494D01*
X024805Y001494D01*
X024805Y001494D01*
X025002Y001741D01*
X025002Y001741D01*
X025040Y001904D01*
X025044Y001914D01*
X025044Y001922D01*
X025073Y002049D01*
X025044Y002177D01*
X025044Y002185D01*
X025040Y002195D01*
X025002Y002358D01*
X024805Y002605D01*
X024521Y002742D01*
X024205Y002742D01*
X023920Y002605D01*
X023920Y002605D01*
X023723Y002358D01*
X023723Y002358D01*
X023686Y002195D01*
X023681Y002185D01*
X023681Y002177D01*
X023652Y002049D01*
X023681Y001922D01*
X023681Y001914D01*
X023686Y001904D01*
X023723Y001741D01*
X023920Y001494D01*
X024205Y001357D01*
X023992Y001459D02*
X021349Y001459D01*
X021349Y001558D02*
X023869Y001558D01*
X023920Y001494D02*
X023920Y001494D01*
X023790Y001656D02*
X021349Y001656D01*
X021311Y001755D02*
X023720Y001755D01*
X023723Y001741D02*
X023723Y001741D01*
X023697Y001853D02*
X021270Y001853D01*
X021174Y001952D02*
X023675Y001952D01*
X023652Y002049D02*
X023652Y002049D01*
X023653Y002050D02*
X021014Y002050D01*
X020625Y002050D02*
X019636Y002050D01*
X019621Y002149D02*
X023675Y002149D01*
X023698Y002248D02*
X019621Y002248D01*
X019621Y002346D02*
X023720Y002346D01*
X023792Y002445D02*
X019621Y002445D01*
X019621Y002543D02*
X023871Y002543D01*
X023996Y002642D02*
X019621Y002642D01*
X019621Y002740D02*
X024201Y002740D01*
X024525Y002740D02*
X025561Y002740D01*
X025561Y002642D02*
X024729Y002642D01*
X024805Y002605D02*
X024805Y002605D01*
X024855Y002543D02*
X025561Y002543D01*
X025561Y002445D02*
X024933Y002445D01*
X025002Y002358D02*
X025002Y002358D01*
X025005Y002346D02*
X025561Y002346D01*
X025561Y002248D02*
X025028Y002248D01*
X025050Y002149D02*
X025561Y002149D01*
X025561Y002050D02*
X025073Y002050D01*
X025073Y002049D02*
X025073Y002049D01*
X025051Y001952D02*
X025561Y001952D01*
X025561Y001853D02*
X025028Y001853D01*
X025006Y001755D02*
X025553Y001755D01*
X025535Y001656D02*
X024935Y001656D01*
X024856Y001558D02*
X025503Y001558D01*
X025471Y001459D02*
X024733Y001459D01*
X024529Y001361D02*
X025424Y001361D01*
X024730Y000868D02*
X015852Y000868D01*
X015111Y001557D02*
X015100Y001562D01*
X015100Y007121D01*
X015150Y007171D01*
X015750Y007171D01*
X015850Y007271D01*
X015850Y007683D01*
X016224Y007683D02*
X016380Y007527D01*
X017400Y007527D01*
X017707Y007567D02*
X017970Y007567D01*
X017970Y007665D02*
X017707Y007665D01*
X017663Y007764D02*
X017953Y007764D01*
X017855Y007862D02*
X016462Y007862D01*
X016462Y007764D02*
X017137Y007764D01*
X017128Y007271D02*
X016030Y007271D01*
X016006Y007173D02*
X017073Y007173D01*
X017073Y007074D02*
X015907Y007074D01*
X015930Y007097D02*
X015930Y007097D01*
X015854Y006656D02*
X015854Y006273D01*
X015978Y006273D01*
X016016Y006284D01*
X016044Y006300D01*
X016044Y002420D01*
X015725Y002101D01*
X015638Y002014D01*
X015564Y002087D01*
X015280Y002087D01*
X015280Y006327D01*
X015296Y006311D01*
X015296Y005528D01*
X015332Y005493D01*
X015329Y005487D01*
X015329Y005356D01*
X015379Y005235D01*
X015471Y005143D01*
X015592Y005093D01*
X015723Y005093D01*
X015844Y005143D01*
X015936Y005235D01*
X015986Y005356D01*
X015986Y005487D01*
X015936Y005608D01*
X015844Y005700D01*
X015723Y005750D01*
X015656Y005750D01*
X015656Y006300D01*
X015684Y006284D01*
X015722Y006273D01*
X015846Y006273D01*
X015846Y006656D01*
X015854Y006656D01*
X015846Y006582D02*
X015854Y006582D01*
X015846Y006483D02*
X015854Y006483D01*
X015846Y006385D02*
X015854Y006385D01*
X015846Y006286D02*
X015854Y006286D01*
X016020Y006286D02*
X016044Y006286D01*
X016044Y006188D02*
X015656Y006188D01*
X015656Y006286D02*
X015680Y006286D01*
X015656Y006089D02*
X016044Y006089D01*
X016044Y005991D02*
X015656Y005991D01*
X015656Y005892D02*
X016044Y005892D01*
X016044Y005794D02*
X015656Y005794D01*
X015848Y005695D02*
X016044Y005695D01*
X016044Y005597D02*
X015940Y005597D01*
X015981Y005498D02*
X016044Y005498D01*
X016044Y005400D02*
X015986Y005400D01*
X015963Y005301D02*
X016044Y005301D01*
X016044Y005203D02*
X015903Y005203D01*
X016044Y005104D02*
X015749Y005104D01*
X015566Y005104D02*
X015280Y005104D01*
X015280Y005006D02*
X016044Y005006D01*
X016044Y004907D02*
X015280Y004907D01*
X015280Y004809D02*
X016044Y004809D01*
X016044Y004710D02*
X015280Y004710D01*
X015280Y004612D02*
X016044Y004612D01*
X016044Y004513D02*
X015280Y004513D01*
X015280Y004415D02*
X016044Y004415D01*
X016044Y004316D02*
X015280Y004316D01*
X015280Y004218D02*
X016044Y004218D01*
X016044Y004119D02*
X015280Y004119D01*
X015280Y004021D02*
X016044Y004021D01*
X016044Y003922D02*
X015280Y003922D01*
X015280Y003824D02*
X016044Y003824D01*
X016044Y003725D02*
X015280Y003725D01*
X015280Y003627D02*
X016044Y003627D01*
X016044Y003528D02*
X015280Y003528D01*
X015280Y003430D02*
X016044Y003430D01*
X016044Y003331D02*
X015280Y003331D01*
X015280Y003233D02*
X016044Y003233D01*
X016044Y003134D02*
X015280Y003134D01*
X015280Y003036D02*
X016044Y003036D01*
X016044Y002937D02*
X015280Y002937D01*
X015280Y002839D02*
X016044Y002839D01*
X016044Y002740D02*
X015280Y002740D01*
X015280Y002642D02*
X016044Y002642D01*
X016044Y002543D02*
X015280Y002543D01*
X015280Y002445D02*
X016044Y002445D01*
X015970Y002346D02*
X015280Y002346D01*
X015280Y002248D02*
X015871Y002248D01*
X015773Y002149D02*
X015280Y002149D01*
X014920Y002149D02*
X012804Y002149D01*
X012804Y002248D02*
X014920Y002248D01*
X014920Y002346D02*
X012804Y002346D01*
X012804Y002445D02*
X014920Y002445D01*
X014920Y002543D02*
X012804Y002543D01*
X012804Y002642D02*
X014920Y002642D01*
X014920Y002740D02*
X012804Y002740D01*
X012804Y002839D02*
X014920Y002839D01*
X014920Y002937D02*
X012804Y002937D01*
X012804Y003036D02*
X014920Y003036D01*
X014920Y003134D02*
X012804Y003134D01*
X012804Y003233D02*
X014920Y003233D01*
X014920Y003331D02*
X012804Y003331D01*
X012804Y003430D02*
X014920Y003430D01*
X014920Y003528D02*
X012804Y003528D01*
X012804Y003627D02*
X014920Y003627D01*
X014920Y003725D02*
X012804Y003725D01*
X012804Y003824D02*
X014920Y003824D01*
X014920Y003922D02*
X012804Y003922D01*
X012804Y004021D02*
X014920Y004021D01*
X014920Y004119D02*
X012804Y004119D01*
X012804Y004218D02*
X014920Y004218D01*
X014920Y004316D02*
X012804Y004316D01*
X012804Y004415D02*
X014920Y004415D01*
X014920Y004513D02*
X012804Y004513D01*
X012804Y004612D02*
X014920Y004612D01*
X014920Y004710D02*
X012804Y004710D01*
X012804Y004809D02*
X014920Y004809D01*
X014920Y004907D02*
X012804Y004907D01*
X012804Y005006D02*
X014920Y005006D01*
X014920Y005104D02*
X012804Y005104D01*
X012804Y005203D02*
X014920Y005203D01*
X014920Y005301D02*
X012804Y005301D01*
X012804Y005400D02*
X014920Y005400D01*
X014920Y005498D02*
X012804Y005498D01*
X012804Y005597D02*
X014920Y005597D01*
X014920Y005695D02*
X012862Y005695D01*
X012862Y005794D02*
X014920Y005794D01*
X014920Y005892D02*
X012862Y005892D01*
X012862Y005991D02*
X014920Y005991D01*
X014920Y006089D02*
X012862Y006089D01*
X012862Y006188D02*
X013079Y006188D01*
X013076Y006286D02*
X012826Y006286D01*
X013076Y006385D02*
X012118Y006385D01*
X012216Y006483D02*
X013025Y006483D01*
X012925Y006582D02*
X012315Y006582D01*
X012250Y006771D02*
X012250Y006983D01*
X012250Y007383D01*
X012438Y007571D01*
X015000Y007571D01*
X015100Y007471D01*
X015100Y007121D01*
X014920Y007074D02*
X012938Y007074D01*
X012862Y007173D02*
X014920Y007173D01*
X014920Y007271D02*
X012862Y007271D01*
X012786Y006971D02*
X012624Y006983D01*
X012786Y006971D02*
X013344Y006421D01*
X013584Y006680D02*
X013592Y006680D01*
X013837Y006680D02*
X013875Y006680D01*
X013875Y006582D02*
X013837Y006582D01*
X013837Y006483D02*
X013875Y006483D01*
X013856Y006421D02*
X013850Y006416D01*
X013850Y006421D02*
X013856Y006421D01*
X013900Y006421D01*
X013875Y006403D02*
X014144Y006403D01*
X014144Y006225D01*
X014133Y006186D01*
X014114Y006152D01*
X014086Y006124D01*
X014052Y006105D01*
X014013Y006094D01*
X013875Y006094D01*
X013875Y006403D01*
X013875Y006385D02*
X013837Y006385D01*
X013837Y006286D02*
X013875Y006286D01*
X013875Y006188D02*
X013837Y006188D01*
X014134Y006188D02*
X014920Y006188D01*
X014920Y006286D02*
X014144Y006286D01*
X014144Y006385D02*
X014920Y006385D01*
X014920Y006483D02*
X014144Y006483D01*
X014144Y006582D02*
X014920Y006582D01*
X014920Y006680D02*
X014120Y006680D01*
X014920Y006779D02*
X013238Y006779D01*
X013138Y006877D02*
X014920Y006877D01*
X014920Y006976D02*
X013038Y006976D01*
X012491Y007370D02*
X014920Y007370D01*
X015476Y007683D02*
X015476Y008071D01*
X015718Y008059D02*
X017658Y008059D01*
X017756Y007961D02*
X016462Y007961D01*
X016094Y008552D02*
X019261Y008552D01*
X019261Y008650D02*
X016184Y008650D01*
X016225Y008749D02*
X019261Y008749D01*
X019261Y008847D02*
X016228Y008847D01*
X016204Y008946D02*
X019261Y008946D01*
X019185Y009044D02*
X016174Y009044D01*
X016174Y009143D02*
X019122Y009143D01*
X019093Y009241D02*
X016753Y009241D01*
X016764Y009252D02*
X016783Y009286D01*
X016794Y009325D01*
X016794Y009503D01*
X016525Y009503D01*
X016525Y009194D01*
X016663Y009194D01*
X016702Y009205D01*
X016736Y009224D01*
X016764Y009252D01*
X016794Y009340D02*
X019093Y009340D01*
X019130Y009438D02*
X016794Y009438D01*
X016794Y009635D02*
X025561Y009635D01*
X025561Y009537D02*
X019677Y009537D01*
X019753Y009438D02*
X025561Y009438D01*
X025561Y009340D02*
X019789Y009340D01*
X019789Y009241D02*
X025561Y009241D01*
X025561Y009143D02*
X019761Y009143D01*
X019697Y009044D02*
X025561Y009044D01*
X025561Y008946D02*
X019621Y008946D01*
X019621Y008847D02*
X025561Y008847D01*
X025561Y008749D02*
X019621Y008749D01*
X019621Y008650D02*
X025561Y008650D01*
X025561Y008552D02*
X019621Y008552D01*
X019621Y008453D02*
X025561Y008453D01*
X025561Y008355D02*
X019621Y008355D01*
X019621Y008256D02*
X025561Y008256D01*
X025561Y008158D02*
X019621Y008158D01*
X019621Y008059D02*
X025561Y008059D01*
X025561Y007961D02*
X019621Y007961D01*
X019621Y007862D02*
X025561Y007862D01*
X025561Y007764D02*
X019621Y007764D01*
X019621Y007665D02*
X025561Y007665D01*
X025561Y007567D02*
X019621Y007567D01*
X019621Y007468D02*
X025561Y007468D01*
X025561Y007370D02*
X019621Y007370D01*
X019621Y007271D02*
X025561Y007271D01*
X025561Y007173D02*
X019621Y007173D01*
X019621Y007074D02*
X025561Y007074D01*
X025561Y006976D02*
X019621Y006976D01*
X019621Y006877D02*
X025561Y006877D01*
X025561Y006779D02*
X019621Y006779D01*
X019621Y006680D02*
X025561Y006680D01*
X025561Y006582D02*
X019621Y006582D01*
X019621Y006483D02*
X025561Y006483D01*
X025561Y006385D02*
X019621Y006385D01*
X019621Y006286D02*
X025561Y006286D01*
X025561Y006188D02*
X019621Y006188D01*
X019621Y006089D02*
X025561Y006089D01*
X025561Y005991D02*
X019621Y005991D01*
X019621Y005892D02*
X025561Y005892D01*
X025561Y005794D02*
X019621Y005794D01*
X019621Y005695D02*
X025561Y005695D01*
X025561Y005597D02*
X019621Y005597D01*
X019621Y005498D02*
X025561Y005498D01*
X025561Y005400D02*
X019621Y005400D01*
X019621Y005301D02*
X025561Y005301D01*
X025561Y005203D02*
X019621Y005203D01*
X019621Y005104D02*
X025561Y005104D01*
X025561Y005006D02*
X019621Y005006D01*
X019621Y004907D02*
X025561Y004907D01*
X025561Y004809D02*
X019621Y004809D01*
X019621Y004710D02*
X025561Y004710D01*
X025561Y004612D02*
X019621Y004612D01*
X019621Y004513D02*
X025561Y004513D01*
X025561Y004415D02*
X019621Y004415D01*
X019621Y004316D02*
X025561Y004316D01*
X025561Y004218D02*
X019621Y004218D01*
X019621Y004119D02*
X025561Y004119D01*
X025561Y004021D02*
X019621Y004021D01*
X019621Y003922D02*
X025561Y003922D01*
X025561Y003824D02*
X019621Y003824D01*
X019621Y003725D02*
X025561Y003725D01*
X025561Y003627D02*
X019621Y003627D01*
X019621Y003528D02*
X025561Y003528D01*
X025561Y003430D02*
X019621Y003430D01*
X019621Y003331D02*
X025561Y003331D01*
X025561Y003233D02*
X019621Y003233D01*
X019621Y003134D02*
X025561Y003134D01*
X025561Y003036D02*
X019621Y003036D01*
X019621Y002937D02*
X025561Y002937D01*
X025561Y002839D02*
X019621Y002839D01*
X019796Y001952D02*
X020464Y001952D01*
X020368Y001853D02*
X019892Y001853D01*
X019933Y001755D02*
X020328Y001755D01*
X020289Y001656D02*
X019971Y001656D01*
X019971Y001558D02*
X020289Y001558D01*
X020289Y001459D02*
X019971Y001459D01*
X019934Y001361D02*
X020327Y001361D01*
X020368Y001262D02*
X019893Y001262D01*
X019798Y001164D02*
X020463Y001164D01*
X020622Y001065D02*
X019639Y001065D01*
X019244Y001065D02*
X018584Y001065D01*
X018613Y001164D02*
X019085Y001164D01*
X018990Y001262D02*
X018613Y001262D01*
X018613Y001361D02*
X018949Y001361D01*
X019441Y001557D02*
X019441Y009280D01*
X019205Y009537D02*
X016525Y009537D01*
X016525Y009635D02*
X016487Y009635D01*
X016487Y009734D02*
X016525Y009734D01*
X016525Y009832D02*
X016487Y009832D01*
X016299Y009832D02*
X016174Y009832D01*
X016174Y009931D02*
X025561Y009931D01*
X025561Y010029D02*
X016174Y010029D01*
X016174Y010128D02*
X025561Y010128D01*
X025561Y010226D02*
X016174Y010226D01*
X016174Y010325D02*
X025561Y010325D01*
X025561Y010423D02*
X016174Y010423D01*
X016174Y010522D02*
X025561Y010522D01*
X025561Y010620D02*
X016174Y010620D01*
X016174Y010719D02*
X025561Y010719D01*
X025561Y010817D02*
X016174Y010817D01*
X016174Y010916D02*
X025561Y010916D01*
X025561Y011014D02*
X016174Y011014D01*
X016174Y011113D02*
X025561Y011113D01*
X025561Y011211D02*
X016174Y011211D01*
X016174Y011310D02*
X025561Y011310D01*
X025561Y011408D02*
X016174Y011408D01*
X016174Y011507D02*
X025561Y011507D01*
X025561Y011605D02*
X016174Y011605D01*
X016174Y011704D02*
X025561Y011704D01*
X025561Y011802D02*
X016174Y011802D01*
X016174Y011901D02*
X025561Y011901D01*
X025561Y011999D02*
X016174Y011999D01*
X016174Y012098D02*
X025561Y012098D01*
X025561Y012196D02*
X016174Y012196D01*
X016182Y012295D02*
X025561Y012295D01*
X025561Y012393D02*
X016276Y012393D01*
X016375Y012492D02*
X025561Y012492D01*
X025561Y012590D02*
X016473Y012590D01*
X016572Y012689D02*
X025561Y012689D01*
X025561Y012787D02*
X016670Y012787D01*
X016769Y012886D02*
X021400Y012886D01*
X021368Y012984D02*
X016867Y012984D01*
X016966Y013083D02*
X021368Y013083D01*
X021368Y013181D02*
X017064Y013181D01*
X017163Y013280D02*
X019240Y013280D01*
X019223Y013378D02*
X017261Y013378D01*
X017360Y013477D02*
X018386Y013477D01*
X018288Y013575D02*
X017458Y013575D01*
X017557Y013674D02*
X018189Y013674D01*
X018091Y013772D02*
X017655Y013772D01*
X017754Y013871D02*
X017992Y013871D01*
X017894Y013969D02*
X017852Y013969D01*
X017750Y014121D02*
X017750Y014367D01*
X017704Y014367D01*
X017350Y014721D01*
X016996Y015076D01*
X016750Y015076D01*
X016423Y015053D02*
X002131Y015053D01*
X002211Y014973D02*
X002211Y014973D01*
X002219Y014954D02*
X016423Y014954D01*
X016423Y014856D02*
X002260Y014856D01*
X002299Y014757D02*
X016472Y014757D01*
X016423Y014659D02*
X002299Y014659D01*
X002299Y014560D02*
X016403Y014560D01*
X016403Y014462D02*
X002299Y014462D01*
X002299Y014363D02*
X016702Y014363D01*
X016702Y014319D02*
X016403Y014319D01*
X016403Y014131D01*
X016413Y014093D01*
X016433Y014059D01*
X016461Y014031D01*
X016495Y014011D01*
X016533Y014001D01*
X016702Y014001D01*
X016702Y014319D01*
X016702Y014265D02*
X016798Y014265D01*
X016798Y014363D02*
X017423Y014363D01*
X017423Y014265D02*
X017097Y014265D01*
X017097Y014166D02*
X017423Y014166D01*
X017441Y014068D02*
X017072Y014068D01*
X017244Y013871D02*
X002299Y013871D01*
X002299Y013969D02*
X017343Y013969D01*
X017146Y013772D02*
X002299Y013772D01*
X002299Y013674D02*
X017047Y013674D01*
X016949Y013575D02*
X002299Y013575D01*
X002299Y013477D02*
X016850Y013477D01*
X016752Y013378D02*
X002299Y013378D01*
X002299Y013280D02*
X016653Y013280D01*
X016555Y013181D02*
X002299Y013181D01*
X002299Y013083D02*
X016456Y013083D01*
X016358Y012984D02*
X002299Y012984D01*
X002299Y012886D02*
X016259Y012886D01*
X016161Y012787D02*
X002299Y012787D01*
X002299Y012689D02*
X016062Y012689D01*
X015964Y012590D02*
X002299Y012590D01*
X002299Y012492D02*
X015870Y012492D01*
X015814Y012393D02*
X002299Y012393D01*
X002299Y012295D02*
X015814Y012295D01*
X015814Y012196D02*
X002299Y012196D01*
X002299Y012098D02*
X015814Y012098D01*
X015814Y011999D02*
X002299Y011999D01*
X002299Y011901D02*
X015814Y011901D01*
X015814Y011802D02*
X002299Y011802D01*
X002299Y011704D02*
X015814Y011704D01*
X015814Y011605D02*
X002299Y011605D01*
X002299Y011507D02*
X015814Y011507D01*
X015814Y011408D02*
X002299Y011408D01*
X002299Y011310D02*
X015814Y011310D01*
X015814Y011211D02*
X002299Y011211D01*
X002299Y011113D02*
X015814Y011113D01*
X015814Y011014D02*
X002299Y011014D01*
X002299Y010916D02*
X015814Y010916D01*
X015814Y010817D02*
X002299Y010817D01*
X002299Y010719D02*
X015814Y010719D01*
X015814Y010620D02*
X002299Y010620D01*
X002299Y010522D02*
X015814Y010522D01*
X015814Y010423D02*
X002299Y010423D01*
X002299Y010325D02*
X015814Y010325D01*
X015814Y010226D02*
X002299Y010226D01*
X002299Y010128D02*
X015814Y010128D01*
X015814Y010029D02*
X002299Y010029D01*
X002299Y009931D02*
X015814Y009931D01*
X015814Y009832D02*
X015001Y009832D01*
X014813Y009832D02*
X014775Y009832D01*
X014775Y009849D02*
X014775Y009540D01*
X014506Y009540D01*
X014506Y009718D01*
X014517Y009757D01*
X014536Y009791D01*
X014564Y009819D01*
X014598Y009838D01*
X014637Y009849D01*
X014775Y009849D01*
X014775Y009734D02*
X014813Y009734D01*
X014813Y009635D02*
X014775Y009635D01*
X014775Y009537D02*
X002299Y009537D01*
X002299Y009635D02*
X014506Y009635D01*
X014510Y009734D02*
X002299Y009734D01*
X002299Y009832D02*
X014587Y009832D01*
X014506Y009438D02*
X002299Y009438D01*
X002299Y009340D02*
X014506Y009340D01*
X014547Y009241D02*
X002299Y009241D01*
X002299Y009143D02*
X015814Y009143D01*
X015776Y009241D02*
X015524Y009241D01*
X015574Y009340D02*
X015726Y009340D01*
X015658Y009044D02*
X012232Y009044D01*
X012000Y008777D02*
X015856Y008777D01*
X015900Y008821D01*
X015994Y008916D01*
X015994Y009521D01*
X015994Y012361D01*
X016050Y012417D01*
X016050Y012421D01*
X017750Y014121D01*
X017750Y014367D02*
X018550Y013567D01*
X019550Y013567D01*
X020700Y013567D01*
X020373Y013378D02*
X019877Y013378D01*
X019860Y013280D02*
X020390Y013280D01*
X020373Y013772D02*
X019877Y013772D01*
X019844Y013871D02*
X020406Y013871D01*
X020410Y013969D02*
X019840Y013969D01*
X019877Y014068D02*
X020373Y014068D01*
X020373Y014166D02*
X019877Y014166D01*
X019877Y014265D02*
X020373Y014265D01*
X020373Y014363D02*
X019877Y014363D01*
X019877Y014462D02*
X020373Y014462D01*
X020387Y014560D02*
X019863Y014560D01*
X019730Y014659D02*
X020520Y014659D01*
X020520Y014757D02*
X019730Y014757D01*
X019730Y014856D02*
X020520Y014856D01*
X020463Y014954D02*
X019730Y014954D01*
X019730Y015053D02*
X020364Y015053D01*
X020266Y015151D02*
X019730Y015151D01*
X019792Y015250D02*
X020167Y015250D01*
X020069Y015348D02*
X019854Y015348D01*
X019878Y015447D02*
X019970Y015447D01*
X020184Y015742D02*
X020763Y015742D01*
X020770Y015729D02*
X020798Y015701D01*
X020815Y015691D01*
X020798Y015681D01*
X020770Y015653D01*
X020750Y015619D01*
X020740Y015581D01*
X020740Y015451D01*
X021315Y015451D01*
X021315Y015431D01*
X021335Y015431D01*
X021335Y014951D01*
X021910Y014951D01*
X021910Y015081D01*
X021900Y015119D01*
X021880Y015153D01*
X021852Y015181D01*
X021835Y015191D01*
X021852Y015201D01*
X021880Y015229D01*
X021900Y015263D01*
X021910Y015301D01*
X021910Y015431D01*
X021335Y015431D01*
X021335Y015451D01*
X021315Y015451D01*
X021315Y015711D01*
X021315Y015931D01*
X020740Y015931D01*
X020740Y015801D01*
X020750Y015763D01*
X020770Y015729D01*
X020765Y015644D02*
X020283Y015644D01*
X020381Y015545D02*
X020740Y015545D01*
X020740Y015348D02*
X020578Y015348D01*
X020677Y015250D02*
X020758Y015250D01*
X020700Y014971D02*
X019650Y016021D01*
X019000Y016021D01*
X018950Y015971D01*
X018706Y015971D01*
X018675Y015941D01*
X018915Y016191D02*
X018186Y016191D01*
X018915Y016191D01*
X018915Y016191D01*
X018675Y016441D02*
X017519Y016441D01*
X017350Y016271D01*
X017350Y017871D01*
X017150Y018071D01*
X011600Y018071D01*
X011400Y018271D01*
X011400Y020796D01*
X011445Y020841D01*
X011264Y021258D02*
X010627Y021258D01*
X010703Y021227D02*
X010536Y021296D01*
X010355Y021296D01*
X010188Y021227D01*
X010060Y021099D01*
X009990Y020931D01*
X009990Y020750D01*
X010022Y020673D01*
X009720Y020370D01*
X009720Y019584D01*
X009645Y019553D01*
X009519Y019426D01*
X009450Y019261D01*
X009450Y019082D01*
X009519Y018917D01*
X009645Y018790D01*
X009810Y018721D01*
X009990Y018721D01*
X010155Y018790D01*
X010281Y018917D01*
X010350Y019082D01*
X010350Y019261D01*
X010281Y019426D01*
X010155Y019553D01*
X010080Y019584D01*
X010080Y020221D01*
X010277Y020418D01*
X010355Y020386D01*
X010536Y020386D01*
X010703Y020455D01*
X010831Y020583D01*
X010900Y020750D01*
X010900Y020931D01*
X010831Y021099D01*
X010703Y021227D01*
X010770Y021160D02*
X011121Y021160D01*
X011044Y021061D02*
X010847Y021061D01*
X010887Y020963D02*
X011003Y020963D01*
X010990Y020864D02*
X010900Y020864D01*
X010900Y020766D02*
X010990Y020766D01*
X011025Y020667D02*
X010866Y020667D01*
X010817Y020569D02*
X011074Y020569D01*
X011173Y020470D02*
X010718Y020470D01*
X010445Y020841D02*
X009900Y020296D01*
X009900Y019171D01*
X010313Y018993D02*
X010487Y018993D01*
X010450Y019091D02*
X010350Y019091D01*
X010350Y019190D02*
X010450Y019190D01*
X010461Y019288D02*
X010339Y019288D01*
X010298Y019387D02*
X010502Y019387D01*
X010577Y019485D02*
X010223Y019485D01*
X010081Y019584D02*
X010719Y019584D01*
X011081Y019584D02*
X011220Y019584D01*
X011220Y019682D02*
X010080Y019682D01*
X010080Y019781D02*
X011220Y019781D01*
X011220Y019879D02*
X010080Y019879D01*
X010080Y019978D02*
X011220Y019978D01*
X011220Y020076D02*
X010080Y020076D01*
X010080Y020175D02*
X011220Y020175D01*
X011220Y020273D02*
X010132Y020273D01*
X010231Y020372D02*
X011220Y020372D01*
X011580Y020372D02*
X011721Y020372D01*
X011718Y020470D02*
X011820Y020470D01*
X011817Y020569D02*
X011918Y020569D01*
X011866Y020667D02*
X012017Y020667D01*
X011990Y020766D02*
X011900Y020766D01*
X011900Y020864D02*
X011990Y020864D01*
X012003Y020963D02*
X011887Y020963D01*
X011847Y021061D02*
X012044Y021061D01*
X012121Y021160D02*
X011770Y021160D01*
X011627Y021258D02*
X012264Y021258D01*
X012334Y021377D02*
X012395Y021368D01*
X012395Y021791D01*
X011972Y021791D01*
X011982Y021730D01*
X012005Y021658D01*
X012039Y021592D01*
X012083Y021531D01*
X012136Y021478D01*
X012196Y021435D01*
X012263Y021401D01*
X012334Y021377D01*
X012395Y021455D02*
X012495Y021455D01*
X012495Y021368D02*
X012557Y021377D01*
X012628Y021401D01*
X012694Y021435D01*
X012755Y021478D01*
X012808Y021531D01*
X012852Y021592D01*
X012885Y021658D01*
X012909Y021730D01*
X012918Y021791D01*
X012495Y021791D01*
X012495Y021368D01*
X012627Y021258D02*
X013264Y021258D01*
X013188Y021227D02*
X013355Y021296D01*
X013536Y021296D01*
X013703Y021227D01*
X013831Y021099D01*
X013900Y020931D01*
X013900Y020750D01*
X013831Y020583D01*
X013703Y020455D01*
X013536Y020386D01*
X013355Y020386D01*
X013277Y020418D01*
X013080Y020221D01*
X013080Y019584D01*
X013155Y019553D01*
X013281Y019426D01*
X013350Y019261D01*
X013350Y019082D01*
X013281Y018917D01*
X013155Y018790D01*
X012990Y018721D01*
X012810Y018721D01*
X012645Y018790D01*
X012519Y018917D01*
X012450Y019082D01*
X012450Y019261D01*
X012519Y019426D01*
X012645Y019553D01*
X012720Y019584D01*
X012720Y020370D01*
X013022Y020673D01*
X012990Y020750D01*
X012990Y020931D01*
X013060Y021099D01*
X013188Y021227D01*
X013121Y021160D02*
X012770Y021160D01*
X012847Y021061D02*
X013044Y021061D01*
X013003Y020963D02*
X012887Y020963D01*
X012900Y020864D02*
X012990Y020864D01*
X012990Y020766D02*
X012900Y020766D01*
X012866Y020667D02*
X013017Y020667D01*
X012918Y020569D02*
X012817Y020569D01*
X012820Y020470D02*
X012718Y020470D01*
X012721Y020372D02*
X012231Y020372D01*
X012132Y020273D02*
X012720Y020273D01*
X012720Y020175D02*
X012080Y020175D01*
X012080Y020076D02*
X012720Y020076D01*
X012720Y019978D02*
X012080Y019978D01*
X012080Y019879D02*
X012720Y019879D01*
X012720Y019781D02*
X012080Y019781D01*
X012080Y019682D02*
X012720Y019682D01*
X012719Y019584D02*
X012081Y019584D01*
X012223Y019485D02*
X012577Y019485D01*
X012502Y019387D02*
X012298Y019387D01*
X012339Y019288D02*
X012461Y019288D01*
X012450Y019190D02*
X012350Y019190D01*
X012350Y019091D02*
X012450Y019091D01*
X012487Y018993D02*
X012313Y018993D01*
X012259Y018894D02*
X012541Y018894D01*
X012640Y018796D02*
X012160Y018796D01*
X011900Y019171D02*
X011900Y020296D01*
X012445Y020841D01*
X012168Y021455D02*
X011703Y021455D01*
X011831Y021583D01*
X011900Y021750D01*
X011900Y021931D01*
X011831Y022099D01*
X011703Y022227D01*
X011536Y022296D01*
X011355Y022296D01*
X011188Y022227D01*
X011060Y022099D01*
X010990Y021931D01*
X010990Y021750D01*
X011060Y021583D01*
X011188Y021455D01*
X010703Y021455D01*
X010831Y021583D01*
X010900Y021750D01*
X010900Y021931D01*
X010831Y022099D01*
X010703Y022227D01*
X010536Y022296D01*
X010355Y022296D01*
X010188Y022227D01*
X010060Y022099D01*
X009990Y021931D01*
X009990Y021750D01*
X010060Y021583D01*
X010188Y021455D01*
X009722Y021455D01*
X009694Y021435D02*
X009755Y021478D01*
X009808Y021531D01*
X009852Y021592D01*
X009885Y021658D01*
X009909Y021730D01*
X009918Y021791D01*
X009495Y021791D01*
X009495Y021368D01*
X009557Y021377D01*
X009628Y021401D01*
X009694Y021435D01*
X009824Y021554D02*
X010089Y021554D01*
X010031Y021652D02*
X009882Y021652D01*
X009912Y021751D02*
X009990Y021751D01*
X009990Y021849D02*
X009495Y021849D01*
X009495Y021891D02*
X009918Y021891D01*
X009909Y021952D01*
X009885Y022023D01*
X009852Y022090D01*
X009808Y022150D01*
X009755Y022203D01*
X009694Y022247D01*
X009628Y022281D01*
X009557Y022304D01*
X009495Y022314D01*
X009495Y021891D01*
X009395Y021891D01*
X009395Y021791D01*
X008972Y021791D01*
X008982Y021730D01*
X009005Y021658D01*
X009039Y021592D01*
X009083Y021531D01*
X009136Y021478D01*
X009196Y021435D01*
X009263Y021401D01*
X009334Y021377D01*
X009395Y021368D01*
X009395Y021791D01*
X009495Y021791D01*
X009495Y021891D01*
X009495Y021948D02*
X009395Y021948D01*
X009395Y021891D02*
X009395Y022314D01*
X009334Y022304D01*
X009263Y022281D01*
X009196Y022247D01*
X009136Y022203D01*
X009083Y022150D01*
X009039Y022090D01*
X009005Y022023D01*
X008982Y021952D01*
X008972Y021891D01*
X009395Y021891D01*
X009395Y021849D02*
X008900Y021849D01*
X008900Y021931D02*
X008831Y022099D01*
X008703Y022227D01*
X008536Y022296D01*
X008355Y022296D01*
X008188Y022227D01*
X008060Y022099D01*
X007990Y021931D01*
X007990Y021750D01*
X008060Y021583D01*
X008188Y021455D01*
X007703Y021455D01*
X007831Y021583D01*
X007900Y021750D01*
X007900Y021931D01*
X007831Y022099D01*
X007703Y022227D01*
X007536Y022296D01*
X007355Y022296D01*
X007188Y022227D01*
X007060Y022099D01*
X006990Y021931D01*
X006990Y021750D01*
X007022Y021673D01*
X006851Y021501D01*
X006749Y021501D01*
X006831Y021583D01*
X006900Y021750D01*
X006900Y021931D01*
X006831Y022099D01*
X006703Y022227D01*
X006536Y022296D01*
X006355Y022296D01*
X006188Y022227D01*
X006060Y022099D01*
X005990Y021931D01*
X005990Y021750D01*
X006060Y021583D01*
X006141Y021501D01*
X005975Y021501D01*
X005870Y021396D01*
X005770Y021296D01*
X005770Y021160D01*
X005770Y021160D01*
X005703Y021227D01*
X005536Y021296D01*
X005355Y021296D01*
X005188Y021227D01*
X005060Y021099D01*
X004990Y020931D01*
X004990Y020750D01*
X005022Y020673D01*
X004301Y019951D01*
X003811Y019951D01*
X003856Y019997D01*
X004277Y020418D01*
X004355Y020386D01*
X004536Y020386D01*
X004703Y020455D01*
X004831Y020583D01*
X004900Y020750D01*
X004900Y020931D01*
X004831Y021099D01*
X004703Y021227D01*
X004536Y021296D01*
X004355Y021296D01*
X004188Y021227D01*
X004060Y021099D01*
X003990Y020931D01*
X003990Y020750D01*
X004022Y020673D01*
X003900Y020550D01*
X003900Y021220D01*
X003824Y021296D01*
X003066Y021296D01*
X002990Y021220D01*
X002990Y020462D01*
X003066Y020386D01*
X003736Y020386D01*
X003601Y020251D01*
X001725Y020251D01*
X001064Y019590D01*
X000990Y019621D01*
X000810Y019621D01*
X000645Y019553D01*
X000519Y019426D01*
X000450Y019261D01*
X000450Y019082D01*
X000519Y018917D01*
X000645Y018790D01*
X000810Y018721D01*
X000990Y018721D01*
X001155Y018790D01*
X001281Y018917D01*
X001350Y019082D01*
X001350Y019261D01*
X001319Y019336D01*
X001875Y019891D01*
X002363Y019891D01*
X002022Y019608D01*
X001990Y019621D01*
X001810Y019621D01*
X001645Y019553D01*
X001519Y019426D01*
X001450Y019261D01*
X001450Y019082D01*
X001519Y018917D01*
X001645Y018790D01*
X001810Y018721D01*
X001990Y018721D01*
X002155Y018790D01*
X002281Y018917D01*
X002350Y019082D01*
X002350Y019261D01*
X002303Y019373D01*
X002565Y019591D01*
X002738Y019591D01*
X002645Y019553D01*
X002519Y019426D01*
X002450Y019261D01*
X002450Y019082D01*
X002519Y018917D01*
X002645Y018790D01*
X002810Y018721D01*
X002990Y018721D01*
X003155Y018790D01*
X003281Y018917D01*
X003350Y019082D01*
X003350Y019261D01*
X003281Y019426D01*
X003155Y019553D01*
X003062Y019591D01*
X003738Y019591D01*
X003645Y019553D01*
X003519Y019426D01*
X003450Y019261D01*
X003450Y019082D01*
X003519Y018917D01*
X003645Y018790D01*
X003810Y018721D01*
X003990Y018721D01*
X004155Y018790D01*
X004281Y018917D01*
X004350Y019082D01*
X004350Y019117D01*
X004450Y019217D01*
X004450Y019082D01*
X004519Y018917D01*
X004645Y018790D01*
X004810Y018721D01*
X004990Y018721D01*
X005155Y018790D01*
X005281Y018917D01*
X005350Y019082D01*
X005350Y019261D01*
X005283Y019424D01*
X006277Y020418D01*
X006355Y020386D01*
X006536Y020386D01*
X006703Y020455D01*
X006831Y020583D01*
X006900Y020750D01*
X006900Y020931D01*
X006831Y021099D01*
X006788Y021141D01*
X007001Y021141D01*
X007277Y021418D01*
X007355Y021386D01*
X007536Y021386D01*
X007703Y021455D01*
X007802Y021554D02*
X008089Y021554D01*
X008031Y021652D02*
X007860Y021652D01*
X007900Y021751D02*
X007990Y021751D01*
X007990Y021849D02*
X007900Y021849D01*
X007894Y021948D02*
X007997Y021948D01*
X008038Y022046D02*
X007853Y022046D01*
X007785Y022145D02*
X008106Y022145D01*
X008227Y022243D02*
X007663Y022243D01*
X007227Y022243D02*
X006663Y022243D01*
X006785Y022145D02*
X007106Y022145D01*
X007038Y022046D02*
X006853Y022046D01*
X006894Y021948D02*
X006997Y021948D01*
X006990Y021849D02*
X006900Y021849D01*
X006900Y021751D02*
X006990Y021751D01*
X007002Y021652D02*
X006860Y021652D01*
X006903Y021554D02*
X006802Y021554D01*
X006926Y021321D02*
X007445Y021841D01*
X007395Y021314D02*
X007334Y021304D01*
X007263Y021281D01*
X007196Y021247D01*
X007136Y021203D01*
X007083Y021150D01*
X007039Y021090D01*
X007005Y021023D01*
X006982Y020952D01*
X006972Y020891D01*
X007395Y020891D01*
X007395Y020791D01*
X006972Y020791D01*
X006982Y020730D01*
X007005Y020658D01*
X007039Y020592D01*
X007083Y020531D01*
X007136Y020478D01*
X007196Y020435D01*
X007263Y020401D01*
X007334Y020377D01*
X007395Y020368D01*
X007395Y020791D01*
X007495Y020791D01*
X007495Y020368D01*
X007557Y020377D01*
X007628Y020401D01*
X007694Y020435D01*
X007755Y020478D01*
X007808Y020531D01*
X007852Y020592D01*
X007885Y020658D01*
X007909Y020730D01*
X007918Y020791D01*
X007495Y020791D01*
X007495Y020891D01*
X007395Y020891D01*
X007395Y021314D01*
X007395Y021258D02*
X007495Y021258D01*
X007495Y021314D02*
X007495Y020891D01*
X007918Y020891D01*
X007909Y020952D01*
X007885Y021023D01*
X007852Y021090D01*
X007808Y021150D01*
X007755Y021203D01*
X007694Y021247D01*
X007628Y021281D01*
X007557Y021304D01*
X007495Y021314D01*
X007495Y021160D02*
X007395Y021160D01*
X007395Y021061D02*
X007495Y021061D01*
X007495Y020963D02*
X007395Y020963D01*
X007395Y020864D02*
X006900Y020864D01*
X006900Y020766D02*
X006976Y020766D01*
X007002Y020667D02*
X006866Y020667D01*
X006817Y020569D02*
X007056Y020569D01*
X007147Y020470D02*
X006718Y020470D01*
X006231Y020372D02*
X007372Y020372D01*
X007395Y020372D02*
X007495Y020372D01*
X007519Y020372D02*
X007721Y020372D01*
X007743Y020470D02*
X007820Y020470D01*
X007835Y020569D02*
X007918Y020569D01*
X007888Y020667D02*
X008017Y020667D01*
X008022Y020673D02*
X006971Y019621D01*
X006810Y019621D01*
X006645Y019553D01*
X006519Y019426D01*
X006450Y019261D01*
X006450Y019082D01*
X006519Y018917D01*
X006645Y018790D01*
X006810Y018721D01*
X006990Y018721D01*
X007155Y018790D01*
X007281Y018917D01*
X007350Y019082D01*
X007350Y019261D01*
X007283Y019424D01*
X008277Y020418D01*
X008355Y020386D01*
X008410Y020386D01*
X007720Y019696D01*
X007720Y019584D01*
X007645Y019553D01*
X007519Y019426D01*
X007450Y019261D01*
X007450Y019082D01*
X007519Y018917D01*
X007645Y018790D01*
X007810Y018721D01*
X007990Y018721D01*
X008155Y018790D01*
X008281Y018917D01*
X008350Y019082D01*
X008350Y019261D01*
X008281Y019426D01*
X008155Y019553D01*
X008106Y019573D01*
X008720Y020187D01*
X008720Y019584D01*
X008645Y019553D01*
X008519Y019426D01*
X008450Y019261D01*
X008450Y019082D01*
X008519Y018917D01*
X008645Y018790D01*
X008810Y018721D01*
X008990Y018721D01*
X009155Y018790D01*
X009281Y018917D01*
X009350Y019082D01*
X009350Y019261D01*
X009281Y019426D01*
X009155Y019553D01*
X009080Y019584D01*
X009080Y020221D01*
X009277Y020418D01*
X009355Y020386D01*
X009536Y020386D01*
X009703Y020455D01*
X009831Y020583D01*
X009900Y020750D01*
X009900Y020931D01*
X009831Y021099D01*
X009703Y021227D01*
X009536Y021296D01*
X009355Y021296D01*
X009188Y021227D01*
X009130Y021169D01*
X009130Y021411D01*
X008868Y021673D01*
X008900Y021750D01*
X008900Y021931D01*
X008894Y021948D02*
X008981Y021948D01*
X009017Y022046D02*
X008853Y022046D01*
X008785Y022145D02*
X009079Y022145D01*
X009191Y022243D02*
X008663Y022243D01*
X008445Y021841D02*
X008950Y021336D01*
X008950Y020671D01*
X007900Y019621D01*
X007900Y019171D01*
X008298Y019387D02*
X008502Y019387D01*
X008461Y019288D02*
X008339Y019288D01*
X008350Y019190D02*
X008450Y019190D01*
X008450Y019091D02*
X008350Y019091D01*
X008313Y018993D02*
X008487Y018993D01*
X008541Y018894D02*
X008259Y018894D01*
X008160Y018796D02*
X008640Y018796D01*
X008900Y019171D02*
X008900Y020296D01*
X009445Y020841D01*
X009264Y021258D02*
X009130Y021258D01*
X009130Y021357D02*
X014675Y021357D01*
X014614Y021418D02*
X014770Y021262D01*
X014770Y021160D01*
X014770Y021160D01*
X014703Y021227D01*
X014536Y021296D01*
X014355Y021296D01*
X014188Y021227D01*
X014060Y021099D01*
X013990Y020931D01*
X013990Y020750D01*
X014022Y020673D01*
X013720Y020370D01*
X013720Y019584D01*
X013645Y019553D01*
X013519Y019426D01*
X013450Y019261D01*
X013450Y019082D01*
X013519Y018917D01*
X013645Y018790D01*
X013810Y018721D01*
X013990Y018721D01*
X014155Y018790D01*
X014281Y018917D01*
X014350Y019082D01*
X014350Y019261D01*
X014281Y019426D01*
X014155Y019553D01*
X014080Y019584D01*
X014080Y020221D01*
X014277Y020418D01*
X014355Y020386D01*
X014536Y020386D01*
X014703Y020455D01*
X014770Y020522D01*
X014770Y020046D01*
X014720Y019996D01*
X014720Y019584D01*
X014645Y019553D01*
X014519Y019426D01*
X014450Y019261D01*
X014450Y019082D01*
X014519Y018917D01*
X014645Y018790D01*
X014810Y018721D01*
X014990Y018721D01*
X015155Y018790D01*
X015281Y018917D01*
X015350Y019082D01*
X015350Y019261D01*
X015281Y019426D01*
X015155Y019553D01*
X015080Y019584D01*
X015080Y019847D01*
X015130Y019897D01*
X015130Y020484D01*
X015136Y020478D01*
X015196Y020435D01*
X015263Y020401D01*
X015334Y020377D01*
X015395Y020368D01*
X015395Y020791D01*
X015495Y020791D01*
X015495Y020368D01*
X015557Y020377D01*
X015628Y020401D01*
X015694Y020435D01*
X015755Y020478D01*
X015770Y020494D01*
X015770Y019696D01*
X015720Y019646D01*
X015720Y019584D01*
X015645Y019553D01*
X015519Y019426D01*
X015450Y019261D01*
X015450Y019082D01*
X015519Y018917D01*
X015645Y018790D01*
X015810Y018721D01*
X015990Y018721D01*
X016155Y018790D01*
X016281Y018917D01*
X016350Y019082D01*
X016350Y019261D01*
X016281Y019426D01*
X016155Y019553D01*
X016130Y019563D01*
X016130Y020513D01*
X016188Y020455D01*
X016355Y020386D01*
X016536Y020386D01*
X016703Y020455D01*
X016831Y020583D01*
X016900Y020750D01*
X016900Y020931D01*
X016831Y021099D01*
X016703Y021227D01*
X016536Y021296D01*
X016355Y021296D01*
X016188Y021227D01*
X016130Y021169D01*
X016130Y021411D01*
X016025Y021516D01*
X015868Y021673D01*
X015900Y021750D01*
X015900Y021931D01*
X015831Y022099D01*
X015703Y022227D01*
X015536Y022296D01*
X015355Y022296D01*
X015188Y022227D01*
X015060Y022099D01*
X014990Y021931D01*
X014990Y021750D01*
X015060Y021583D01*
X015188Y021455D01*
X015086Y021455D01*
X015130Y021411D02*
X015025Y021516D01*
X014868Y021673D01*
X014900Y021750D01*
X014900Y021931D01*
X014831Y022099D01*
X014703Y022227D01*
X014536Y022296D01*
X014355Y022296D01*
X014188Y022227D01*
X014060Y022099D01*
X013990Y021931D01*
X013990Y021750D01*
X014060Y021583D01*
X014188Y021455D01*
X013703Y021455D01*
X013831Y021583D01*
X013900Y021750D01*
X013900Y021931D01*
X013831Y022099D01*
X013703Y022227D01*
X013536Y022296D01*
X013355Y022296D01*
X013188Y022227D01*
X013060Y022099D01*
X012990Y021931D01*
X012990Y021750D01*
X013060Y021583D01*
X013188Y021455D01*
X012722Y021455D01*
X012824Y021554D02*
X013089Y021554D01*
X013031Y021652D02*
X012882Y021652D01*
X012912Y021751D02*
X012990Y021751D01*
X012990Y021849D02*
X012495Y021849D01*
X012495Y021891D02*
X012918Y021891D01*
X012909Y021952D01*
X012885Y022023D01*
X012852Y022090D01*
X012808Y022150D01*
X012755Y022203D01*
X012694Y022247D01*
X012628Y022281D01*
X012557Y022304D01*
X012495Y022314D01*
X012495Y021891D01*
X012395Y021891D01*
X012395Y021791D01*
X012495Y021791D01*
X012495Y021891D01*
X012495Y021948D02*
X012395Y021948D01*
X012395Y021891D02*
X012395Y022314D01*
X012334Y022304D01*
X012263Y022281D01*
X012196Y022247D01*
X012136Y022203D01*
X012083Y022150D01*
X012039Y022090D01*
X012005Y022023D01*
X011982Y021952D01*
X011972Y021891D01*
X012395Y021891D01*
X012395Y021849D02*
X011900Y021849D01*
X011900Y021751D02*
X011979Y021751D01*
X012008Y021652D02*
X011860Y021652D01*
X011802Y021554D02*
X012067Y021554D01*
X012395Y021554D02*
X012495Y021554D01*
X012495Y021652D02*
X012395Y021652D01*
X012395Y021751D02*
X012495Y021751D01*
X012495Y022046D02*
X012395Y022046D01*
X012395Y022145D02*
X012495Y022145D01*
X012495Y022243D02*
X012395Y022243D01*
X012191Y022243D02*
X011663Y022243D01*
X011785Y022145D02*
X012079Y022145D01*
X012017Y022046D02*
X011853Y022046D01*
X011894Y021948D02*
X011981Y021948D01*
X011703Y021455D02*
X011536Y021386D01*
X011355Y021386D01*
X011188Y021455D01*
X011089Y021554D02*
X010802Y021554D01*
X010860Y021652D02*
X011031Y021652D01*
X010990Y021751D02*
X010900Y021751D01*
X010900Y021849D02*
X010990Y021849D01*
X010997Y021948D02*
X010894Y021948D01*
X010853Y022046D02*
X011038Y022046D01*
X011106Y022145D02*
X010785Y022145D01*
X010663Y022243D02*
X011227Y022243D01*
X010703Y021455D02*
X010536Y021386D01*
X010355Y021386D01*
X010188Y021455D01*
X010264Y021258D02*
X009627Y021258D01*
X009770Y021160D02*
X010121Y021160D01*
X010044Y021061D02*
X009847Y021061D01*
X009887Y020963D02*
X010003Y020963D01*
X009990Y020864D02*
X009900Y020864D01*
X009900Y020766D02*
X009990Y020766D01*
X010017Y020667D02*
X009866Y020667D01*
X009817Y020569D02*
X009918Y020569D01*
X009820Y020470D02*
X009718Y020470D01*
X009721Y020372D02*
X009231Y020372D01*
X009132Y020273D02*
X009720Y020273D01*
X009720Y020175D02*
X009080Y020175D01*
X009080Y020076D02*
X009720Y020076D01*
X009720Y019978D02*
X009080Y019978D01*
X009080Y019879D02*
X009720Y019879D01*
X009720Y019781D02*
X009080Y019781D01*
X009080Y019682D02*
X009720Y019682D01*
X009719Y019584D02*
X009081Y019584D01*
X009223Y019485D02*
X009577Y019485D01*
X009502Y019387D02*
X009298Y019387D01*
X009339Y019288D02*
X009461Y019288D01*
X009450Y019190D02*
X009350Y019190D01*
X009350Y019091D02*
X009450Y019091D01*
X009487Y018993D02*
X009313Y018993D01*
X009259Y018894D02*
X009541Y018894D01*
X009640Y018796D02*
X009160Y018796D01*
X008577Y019485D02*
X008223Y019485D01*
X008117Y019584D02*
X008719Y019584D01*
X008720Y019682D02*
X008215Y019682D01*
X008314Y019781D02*
X008720Y019781D01*
X008720Y019879D02*
X008412Y019879D01*
X008511Y019978D02*
X008720Y019978D01*
X008720Y020076D02*
X008609Y020076D01*
X008708Y020175D02*
X008720Y020175D01*
X008395Y020372D02*
X008231Y020372D01*
X008297Y020273D02*
X008132Y020273D01*
X008198Y020175D02*
X008034Y020175D01*
X008100Y020076D02*
X007935Y020076D01*
X008001Y019978D02*
X007837Y019978D01*
X007903Y019879D02*
X007738Y019879D01*
X007804Y019781D02*
X007640Y019781D01*
X007720Y019682D02*
X007541Y019682D01*
X007443Y019584D02*
X007719Y019584D01*
X007577Y019485D02*
X007344Y019485D01*
X007298Y019387D02*
X007502Y019387D01*
X007461Y019288D02*
X007339Y019288D01*
X007350Y019190D02*
X007450Y019190D01*
X007450Y019091D02*
X007350Y019091D01*
X007313Y018993D02*
X007487Y018993D01*
X007541Y018894D02*
X007259Y018894D01*
X007160Y018796D02*
X007640Y018796D01*
X006900Y019171D02*
X006900Y019296D01*
X008445Y020841D01*
X008121Y021160D02*
X007798Y021160D01*
X007866Y021061D02*
X008044Y021061D01*
X008060Y021099D02*
X007990Y020931D01*
X007990Y020750D01*
X008022Y020673D01*
X007990Y020766D02*
X007914Y020766D01*
X007990Y020864D02*
X007495Y020864D01*
X007495Y020766D02*
X007395Y020766D01*
X007395Y020667D02*
X007495Y020667D01*
X007495Y020569D02*
X007395Y020569D01*
X007395Y020470D02*
X007495Y020470D01*
X007623Y020273D02*
X006132Y020273D01*
X006034Y020175D02*
X007524Y020175D01*
X007426Y020076D02*
X005935Y020076D01*
X005837Y019978D02*
X007327Y019978D01*
X007229Y019879D02*
X005738Y019879D01*
X005640Y019781D02*
X007130Y019781D01*
X007032Y019682D02*
X005541Y019682D01*
X005443Y019584D02*
X005673Y019584D01*
X005654Y019573D02*
X005594Y019530D01*
X005542Y019478D01*
X005498Y019418D01*
X005464Y019352D01*
X005442Y019282D01*
X005432Y019221D01*
X005850Y019221D01*
X005850Y019121D01*
X005950Y019121D01*
X005950Y018704D01*
X006010Y018713D01*
X006080Y018736D01*
X006146Y018770D01*
X006206Y018813D01*
X006258Y018865D01*
X006302Y018925D01*
X006336Y018991D01*
X006358Y019061D01*
X006368Y019121D01*
X005950Y019121D01*
X005950Y019221D01*
X006368Y019221D01*
X006358Y019282D01*
X006336Y019352D01*
X006302Y019418D01*
X006258Y019478D01*
X006206Y019530D01*
X006146Y019573D01*
X006080Y019607D01*
X006010Y019630D01*
X005950Y019639D01*
X005950Y019222D01*
X005850Y019222D01*
X005850Y019639D01*
X005790Y019630D01*
X005720Y019607D01*
X005654Y019573D01*
X005549Y019485D02*
X005344Y019485D01*
X005298Y019387D02*
X005482Y019387D01*
X005444Y019288D02*
X005339Y019288D01*
X005350Y019190D02*
X005850Y019190D01*
X005850Y019121D02*
X005432Y019121D01*
X005442Y019061D01*
X005464Y018991D01*
X005498Y018925D01*
X005542Y018865D01*
X005594Y018813D01*
X005654Y018770D01*
X005720Y018736D01*
X005790Y018713D01*
X005850Y018704D01*
X005850Y019121D01*
X005850Y019091D02*
X005950Y019091D01*
X005950Y018993D02*
X005850Y018993D01*
X005850Y018894D02*
X005950Y018894D01*
X005950Y018796D02*
X005850Y018796D01*
X005618Y018796D02*
X005160Y018796D01*
X005259Y018894D02*
X005521Y018894D01*
X005464Y018993D02*
X005313Y018993D01*
X005350Y019091D02*
X005437Y019091D01*
X005850Y019288D02*
X005950Y019288D01*
X005950Y019190D02*
X006450Y019190D01*
X006461Y019288D02*
X006356Y019288D01*
X006318Y019387D02*
X006502Y019387D01*
X006577Y019485D02*
X006251Y019485D01*
X006127Y019584D02*
X006719Y019584D01*
X006450Y019091D02*
X006363Y019091D01*
X006336Y018993D02*
X006487Y018993D01*
X006541Y018894D02*
X006279Y018894D01*
X006182Y018796D02*
X006640Y018796D01*
X005950Y019387D02*
X005850Y019387D01*
X005850Y019485D02*
X005950Y019485D01*
X005950Y019584D02*
X005850Y019584D01*
X005550Y020271D02*
X005250Y020271D01*
X004150Y019171D01*
X003900Y019171D01*
X004313Y018993D02*
X004487Y018993D01*
X004450Y019091D02*
X004350Y019091D01*
X004423Y019190D02*
X004450Y019190D01*
X004541Y018894D02*
X004259Y018894D01*
X004160Y018796D02*
X004640Y018796D01*
X004900Y019171D02*
X004900Y019296D01*
X006445Y020841D01*
X006847Y021061D02*
X007024Y021061D01*
X007019Y021160D02*
X007092Y021160D01*
X007117Y021258D02*
X007218Y021258D01*
X007216Y021357D02*
X008675Y021357D01*
X008614Y021418D02*
X008770Y021262D01*
X008770Y021160D01*
X008770Y021160D01*
X008703Y021227D01*
X008536Y021296D01*
X008355Y021296D01*
X008188Y021227D01*
X008060Y021099D01*
X008003Y020963D02*
X007905Y020963D01*
X007673Y021258D02*
X008264Y021258D01*
X008355Y021386D02*
X008188Y021455D01*
X008355Y021386D02*
X008536Y021386D01*
X008614Y021418D01*
X008627Y021258D02*
X008770Y021258D01*
X008987Y021554D02*
X009067Y021554D01*
X009086Y021455D02*
X009168Y021455D01*
X009395Y021455D02*
X009495Y021455D01*
X009495Y021554D02*
X009395Y021554D01*
X009395Y021652D02*
X009495Y021652D01*
X009495Y021751D02*
X009395Y021751D01*
X009395Y022046D02*
X009495Y022046D01*
X009495Y022145D02*
X009395Y022145D01*
X009395Y022243D02*
X009495Y022243D01*
X009700Y022243D02*
X010227Y022243D01*
X010106Y022145D02*
X009812Y022145D01*
X009874Y022046D02*
X010038Y022046D01*
X009997Y021948D02*
X009909Y021948D01*
X009008Y021652D02*
X008889Y021652D01*
X008900Y021751D02*
X008979Y021751D01*
X006926Y021321D02*
X006050Y021321D01*
X005950Y021221D01*
X005950Y020671D01*
X005550Y020271D01*
X005017Y020667D02*
X004866Y020667D01*
X004900Y020766D02*
X004990Y020766D01*
X004990Y020864D02*
X004900Y020864D01*
X004887Y020963D02*
X005003Y020963D01*
X005044Y021061D02*
X004847Y021061D01*
X004770Y021160D02*
X005121Y021160D01*
X005264Y021258D02*
X004627Y021258D01*
X004536Y021386D02*
X004355Y021386D01*
X004188Y021455D01*
X003703Y021455D01*
X003831Y021583D01*
X003863Y021661D01*
X004027Y021661D01*
X004060Y021583D01*
X004188Y021455D01*
X004089Y021554D02*
X003802Y021554D01*
X003860Y021652D02*
X004031Y021652D01*
X003703Y021455D02*
X003536Y021386D01*
X003355Y021386D01*
X003188Y021455D01*
X002212Y021455D01*
X002209Y021468D02*
X002209Y021476D01*
X002205Y021486D01*
X002168Y021649D01*
X001971Y021896D01*
X001971Y021896D01*
X001686Y022033D01*
X001370Y022033D01*
X001085Y021896D01*
X000888Y021649D01*
X000888Y021649D01*
X000851Y021486D01*
X000847Y021476D01*
X000847Y021468D01*
X000818Y021341D01*
X000818Y021341D01*
X000847Y021213D01*
X000847Y021205D01*
X000851Y021195D01*
X000888Y021033D01*
X000888Y021033D01*
X001085Y020786D01*
X001085Y020786D01*
X001370Y020648D01*
X001686Y020648D01*
X001971Y020786D01*
X002168Y021033D01*
X002205Y021195D01*
X002209Y021205D01*
X002209Y021213D01*
X002238Y021341D01*
X002209Y021468D01*
X002190Y021554D02*
X003089Y021554D01*
X003060Y021583D02*
X003188Y021455D01*
X003060Y021583D02*
X002990Y021750D01*
X002990Y021931D01*
X003060Y022099D01*
X003188Y022227D01*
X003355Y022296D01*
X003536Y022296D01*
X003703Y022227D01*
X003831Y022099D01*
X003863Y022021D01*
X004027Y022021D01*
X004060Y022099D01*
X004188Y022227D01*
X004355Y022296D01*
X004536Y022296D01*
X004703Y022227D01*
X004831Y022099D01*
X004900Y021931D01*
X004900Y021750D01*
X004831Y021583D01*
X004703Y021455D01*
X005168Y021455D01*
X005196Y021435D02*
X005136Y021478D01*
X005083Y021531D01*
X005039Y021592D01*
X005005Y021658D01*
X004982Y021730D01*
X004972Y021791D01*
X005395Y021791D01*
X005395Y021891D01*
X004972Y021891D01*
X004982Y021952D01*
X005005Y022023D01*
X005039Y022090D01*
X005083Y022150D01*
X005136Y022203D01*
X005196Y022247D01*
X005263Y022281D01*
X005334Y022304D01*
X005395Y022314D01*
X005395Y021891D01*
X005495Y021891D01*
X005495Y022314D01*
X005557Y022304D01*
X005628Y022281D01*
X005694Y022247D01*
X005755Y022203D01*
X005808Y022150D01*
X005852Y022090D01*
X005885Y022023D01*
X005909Y021952D01*
X005918Y021891D01*
X005495Y021891D01*
X005495Y021791D01*
X005495Y021368D01*
X005557Y021377D01*
X005628Y021401D01*
X005694Y021435D01*
X005755Y021478D01*
X005808Y021531D01*
X005852Y021592D01*
X005885Y021658D01*
X005909Y021730D01*
X005918Y021791D01*
X005495Y021791D01*
X005395Y021791D01*
X005395Y021368D01*
X005334Y021377D01*
X005263Y021401D01*
X005196Y021435D01*
X005067Y021554D02*
X004802Y021554D01*
X004860Y021652D02*
X005008Y021652D01*
X004979Y021751D02*
X004900Y021751D01*
X004900Y021849D02*
X005395Y021849D01*
X005395Y021751D02*
X005495Y021751D01*
X005495Y021849D02*
X005990Y021849D01*
X005990Y021751D02*
X005912Y021751D01*
X005882Y021652D02*
X006031Y021652D01*
X006089Y021554D02*
X005824Y021554D01*
X005722Y021455D02*
X005929Y021455D01*
X005830Y021357D02*
X002235Y021357D01*
X002219Y021258D02*
X003029Y021258D01*
X002990Y021160D02*
X002197Y021160D01*
X002174Y021061D02*
X002990Y021061D01*
X002990Y020963D02*
X002112Y020963D01*
X002168Y021033D02*
X002168Y021033D01*
X002033Y020864D02*
X002990Y020864D01*
X002990Y020766D02*
X001929Y020766D01*
X001971Y020786D02*
X001971Y020786D01*
X001971Y020786D01*
X001725Y020667D02*
X002990Y020667D01*
X002990Y020569D02*
X000330Y020569D01*
X000330Y020667D02*
X001331Y020667D01*
X001127Y020766D02*
X000330Y020766D01*
X000330Y020864D02*
X001022Y020864D01*
X000944Y020963D02*
X000330Y020963D01*
X000330Y021061D02*
X000882Y021061D01*
X000859Y021160D02*
X000330Y021160D01*
X000330Y021258D02*
X000837Y021258D01*
X000821Y021357D02*
X000330Y021357D01*
X000330Y021455D02*
X000844Y021455D01*
X000866Y021554D02*
X000331Y021554D01*
X000339Y021652D02*
X000891Y021652D01*
X000969Y021751D02*
X000361Y021751D01*
X000393Y021849D02*
X001048Y021849D01*
X001085Y021896D02*
X001085Y021896D01*
X001085Y021896D01*
X001192Y021948D02*
X000425Y021948D01*
X000478Y022046D02*
X003038Y022046D01*
X002997Y021948D02*
X001864Y021948D01*
X002008Y021849D02*
X002990Y021849D01*
X002990Y021751D02*
X002087Y021751D01*
X002165Y021652D02*
X003031Y021652D01*
X003445Y021841D02*
X004445Y021841D01*
X004785Y022145D02*
X005079Y022145D01*
X005017Y022046D02*
X004853Y022046D01*
X004894Y021948D02*
X004981Y021948D01*
X005395Y021948D02*
X005495Y021948D01*
X005495Y022046D02*
X005395Y022046D01*
X005395Y022145D02*
X005495Y022145D01*
X005495Y022243D02*
X005395Y022243D01*
X005191Y022243D02*
X004663Y022243D01*
X004227Y022243D02*
X003663Y022243D01*
X003785Y022145D02*
X004106Y022145D01*
X004038Y022046D02*
X003853Y022046D01*
X003227Y022243D02*
X000621Y022243D01*
X000550Y022145D02*
X003106Y022145D01*
X002168Y021649D02*
X002168Y021649D01*
X001329Y022539D02*
X024562Y022539D01*
X024982Y022440D02*
X000909Y022440D01*
X000755Y022342D02*
X025135Y022342D01*
X025269Y022243D02*
X022663Y022243D01*
X022703Y022227D02*
X022536Y022296D01*
X022355Y022296D01*
X022188Y022227D01*
X022060Y022099D01*
X021990Y021931D01*
X021990Y021750D01*
X022060Y021583D01*
X022188Y021455D01*
X022086Y021455D01*
X022130Y021411D02*
X021868Y021673D01*
X021900Y021750D01*
X021900Y021931D01*
X021831Y022099D01*
X021703Y022227D01*
X021536Y022296D01*
X021355Y022296D01*
X021188Y022227D01*
X021060Y022099D01*
X020990Y021931D01*
X020990Y021750D01*
X021060Y021583D01*
X021188Y021455D01*
X021036Y021455D01*
X021031Y021460D02*
X020859Y021651D01*
X020900Y021750D01*
X020900Y021931D01*
X020831Y022099D01*
X020703Y022227D01*
X020536Y022296D01*
X020355Y022296D01*
X020188Y022227D01*
X020060Y022099D01*
X019990Y021931D01*
X019990Y021750D01*
X020060Y021583D01*
X020188Y021455D01*
X019722Y021455D01*
X019694Y021435D02*
X019755Y021478D01*
X019808Y021531D01*
X019852Y021592D01*
X019885Y021658D01*
X019909Y021730D01*
X019918Y021791D01*
X019495Y021791D01*
X019495Y021368D01*
X019557Y021377D01*
X019628Y021401D01*
X019694Y021435D01*
X019824Y021554D02*
X020089Y021554D01*
X020031Y021652D02*
X019882Y021652D01*
X019912Y021751D02*
X019990Y021751D01*
X019990Y021849D02*
X019495Y021849D01*
X019495Y021891D02*
X019918Y021891D01*
X019909Y021952D01*
X019885Y022023D01*
X019852Y022090D01*
X019808Y022150D01*
X019755Y022203D01*
X019694Y022247D01*
X019628Y022281D01*
X019557Y022304D01*
X019495Y022314D01*
X019495Y021891D01*
X019395Y021891D01*
X019395Y021791D01*
X018972Y021791D01*
X018982Y021730D01*
X019005Y021658D01*
X019039Y021592D01*
X019083Y021531D01*
X019136Y021478D01*
X019196Y021435D01*
X019263Y021401D01*
X019334Y021377D01*
X019395Y021368D01*
X019395Y021791D01*
X019495Y021791D01*
X019495Y021891D01*
X019495Y021948D02*
X019395Y021948D01*
X019395Y021891D02*
X019395Y022314D01*
X019334Y022304D01*
X019263Y022281D01*
X019196Y022247D01*
X019136Y022203D01*
X019083Y022150D01*
X019039Y022090D01*
X019005Y022023D01*
X018982Y021952D01*
X018972Y021891D01*
X019395Y021891D01*
X019395Y021849D02*
X018900Y021849D01*
X018900Y021931D02*
X018831Y022099D01*
X018703Y022227D01*
X018536Y022296D01*
X018355Y022296D01*
X018188Y022227D01*
X018060Y022099D01*
X017990Y021931D01*
X017990Y021750D01*
X018060Y021583D01*
X018188Y021455D01*
X017722Y021455D01*
X017694Y021435D02*
X017755Y021478D01*
X017808Y021531D01*
X017852Y021592D01*
X017885Y021658D01*
X017909Y021730D01*
X017918Y021791D01*
X017495Y021791D01*
X017495Y021368D01*
X017557Y021377D01*
X017628Y021401D01*
X017694Y021435D01*
X017824Y021554D02*
X018089Y021554D01*
X018031Y021652D02*
X017882Y021652D01*
X017912Y021751D02*
X017990Y021751D01*
X017990Y021849D02*
X017495Y021849D01*
X017495Y021891D02*
X017918Y021891D01*
X017909Y021952D01*
X017885Y022023D01*
X017852Y022090D01*
X017808Y022150D01*
X017755Y022203D01*
X017694Y022247D01*
X017628Y022281D01*
X017557Y022304D01*
X017495Y022314D01*
X017495Y021891D01*
X017395Y021891D01*
X017395Y021791D01*
X016972Y021791D01*
X016982Y021730D01*
X017005Y021658D01*
X017039Y021592D01*
X017083Y021531D01*
X017136Y021478D01*
X017196Y021435D01*
X017263Y021401D01*
X017334Y021377D01*
X017395Y021368D01*
X017395Y021791D01*
X017495Y021791D01*
X017495Y021891D01*
X017495Y021948D02*
X017395Y021948D01*
X017395Y021891D02*
X017395Y022314D01*
X017334Y022304D01*
X017263Y022281D01*
X017196Y022247D01*
X017136Y022203D01*
X017083Y022150D01*
X017039Y022090D01*
X017005Y022023D01*
X016982Y021952D01*
X016972Y021891D01*
X017395Y021891D01*
X017395Y021849D02*
X016900Y021849D01*
X016900Y021931D02*
X016831Y022099D01*
X016703Y022227D01*
X016536Y022296D01*
X016355Y022296D01*
X016188Y022227D01*
X016060Y022099D01*
X015990Y021931D01*
X015990Y021750D01*
X016060Y021583D01*
X016188Y021455D01*
X016086Y021455D01*
X016089Y021554D02*
X015987Y021554D01*
X016031Y021652D02*
X015889Y021652D01*
X015900Y021751D02*
X015990Y021751D01*
X015990Y021849D02*
X015900Y021849D01*
X015894Y021948D02*
X015997Y021948D01*
X016038Y022046D02*
X015853Y022046D01*
X015785Y022145D02*
X016106Y022145D01*
X016227Y022243D02*
X015663Y022243D01*
X015227Y022243D02*
X014663Y022243D01*
X014785Y022145D02*
X015106Y022145D01*
X015038Y022046D02*
X014853Y022046D01*
X014894Y021948D02*
X014997Y021948D01*
X014990Y021849D02*
X014900Y021849D01*
X014900Y021751D02*
X014990Y021751D01*
X015031Y021652D02*
X014889Y021652D01*
X014987Y021554D02*
X015089Y021554D01*
X015188Y021455D02*
X015355Y021386D01*
X015536Y021386D01*
X015614Y021418D01*
X015770Y021262D01*
X015770Y021188D01*
X015755Y021203D01*
X015694Y021247D01*
X015628Y021281D01*
X015557Y021304D01*
X015495Y021314D01*
X015495Y020891D01*
X015395Y020891D01*
X015395Y021314D01*
X015334Y021304D01*
X015263Y021281D01*
X015196Y021247D01*
X015136Y021203D01*
X015130Y021197D01*
X015130Y021411D01*
X015130Y021357D02*
X015675Y021357D01*
X015673Y021258D02*
X015770Y021258D01*
X015950Y021336D02*
X015950Y019621D01*
X015900Y019571D01*
X015900Y019171D01*
X016313Y018993D02*
X016487Y018993D01*
X016519Y018917D02*
X016450Y019082D01*
X016450Y019261D01*
X016519Y019426D01*
X016645Y019553D01*
X016720Y019584D01*
X016720Y020370D01*
X016825Y020476D01*
X016825Y020476D01*
X017022Y020673D01*
X016990Y020750D01*
X016990Y020931D01*
X017060Y021099D01*
X017188Y021227D01*
X017355Y021296D01*
X017536Y021296D01*
X017703Y021227D01*
X017831Y021099D01*
X017900Y020931D01*
X017900Y020750D01*
X017831Y020583D01*
X017703Y020455D01*
X017536Y020386D01*
X017355Y020386D01*
X017277Y020418D01*
X017080Y020221D01*
X017080Y019584D01*
X017155Y019553D01*
X017281Y019426D01*
X017350Y019261D01*
X017350Y019082D01*
X017281Y018917D01*
X017155Y018790D01*
X016990Y018721D01*
X016810Y018721D01*
X016645Y018790D01*
X016519Y018917D01*
X016541Y018894D02*
X016259Y018894D01*
X016160Y018796D02*
X016640Y018796D01*
X016450Y019091D02*
X016350Y019091D01*
X016350Y019190D02*
X016450Y019190D01*
X016461Y019288D02*
X016339Y019288D01*
X016298Y019387D02*
X016502Y019387D01*
X016577Y019485D02*
X016223Y019485D01*
X016130Y019584D02*
X016719Y019584D01*
X016720Y019682D02*
X016130Y019682D01*
X016130Y019781D02*
X016720Y019781D01*
X016720Y019879D02*
X016130Y019879D01*
X016130Y019978D02*
X016720Y019978D01*
X016720Y020076D02*
X016130Y020076D01*
X016130Y020175D02*
X016720Y020175D01*
X016720Y020273D02*
X016130Y020273D01*
X016130Y020372D02*
X016721Y020372D01*
X016718Y020470D02*
X016820Y020470D01*
X016817Y020569D02*
X016918Y020569D01*
X016866Y020667D02*
X017017Y020667D01*
X016990Y020766D02*
X016900Y020766D01*
X016900Y020864D02*
X016990Y020864D01*
X017003Y020963D02*
X016887Y020963D01*
X016847Y021061D02*
X017044Y021061D01*
X017121Y021160D02*
X016770Y021160D01*
X016627Y021258D02*
X017264Y021258D01*
X017168Y021455D02*
X016703Y021455D01*
X016831Y021583D01*
X016900Y021750D01*
X016900Y021931D01*
X016894Y021948D02*
X016981Y021948D01*
X017017Y022046D02*
X016853Y022046D01*
X016785Y022145D02*
X017079Y022145D01*
X017191Y022243D02*
X016663Y022243D01*
X016900Y021751D02*
X016979Y021751D01*
X017008Y021652D02*
X016860Y021652D01*
X016802Y021554D02*
X017067Y021554D01*
X016703Y021455D02*
X016536Y021386D01*
X016355Y021386D01*
X016188Y021455D01*
X016130Y021357D02*
X018675Y021357D01*
X018614Y021418D02*
X018770Y021262D01*
X018770Y021160D01*
X018770Y021160D01*
X018703Y021227D01*
X018536Y021296D01*
X018355Y021296D01*
X018188Y021227D01*
X018060Y021099D01*
X017990Y020931D01*
X017990Y020750D01*
X018022Y020673D01*
X017720Y020370D01*
X017720Y019584D01*
X017645Y019553D01*
X017519Y019426D01*
X017450Y019261D01*
X017450Y019082D01*
X017519Y018917D01*
X017645Y018790D01*
X017810Y018721D01*
X017990Y018721D01*
X018155Y018790D01*
X018281Y018917D01*
X018350Y019082D01*
X018350Y019261D01*
X018281Y019426D01*
X018155Y019553D01*
X018080Y019584D01*
X018080Y020221D01*
X018277Y020418D01*
X018355Y020386D01*
X018536Y020386D01*
X018703Y020455D01*
X018770Y020522D01*
X018770Y019896D01*
X018720Y019846D01*
X018720Y019584D01*
X018645Y019553D01*
X018519Y019426D01*
X018450Y019261D01*
X018450Y019082D01*
X018519Y018917D01*
X018645Y018790D01*
X018810Y018721D01*
X018990Y018721D01*
X019155Y018790D01*
X019281Y018917D01*
X019350Y019082D01*
X019350Y019261D01*
X019281Y019426D01*
X019155Y019553D01*
X019080Y019584D01*
X019080Y019697D01*
X019130Y019747D01*
X019130Y020513D01*
X019188Y020455D01*
X019355Y020386D01*
X019536Y020386D01*
X019614Y020418D01*
X019720Y020312D01*
X019720Y019584D01*
X019645Y019553D01*
X019519Y019426D01*
X019450Y019261D01*
X019450Y019082D01*
X019519Y018917D01*
X019645Y018790D01*
X019810Y018721D01*
X019990Y018721D01*
X020155Y018790D01*
X020281Y018917D01*
X020350Y019082D01*
X020350Y019261D01*
X020281Y019426D01*
X020155Y019553D01*
X020080Y019584D01*
X020080Y020461D01*
X019868Y020673D01*
X019900Y020750D01*
X019900Y020931D01*
X019831Y021099D01*
X019703Y021227D01*
X019536Y021296D01*
X019355Y021296D01*
X019188Y021227D01*
X019130Y021169D01*
X019130Y021411D01*
X019025Y021516D01*
X019025Y021516D01*
X018868Y021673D01*
X018900Y021750D01*
X018900Y021931D01*
X018894Y021948D02*
X018981Y021948D01*
X019017Y022046D02*
X018853Y022046D01*
X018785Y022145D02*
X019079Y022145D01*
X019191Y022243D02*
X018663Y022243D01*
X018227Y022243D02*
X017700Y022243D01*
X017812Y022145D02*
X018106Y022145D01*
X018038Y022046D02*
X017874Y022046D01*
X017909Y021948D02*
X017997Y021948D01*
X018445Y021841D02*
X018950Y021336D01*
X018950Y019821D01*
X018900Y019771D01*
X018900Y019171D01*
X018487Y018993D02*
X018313Y018993D01*
X018350Y019091D02*
X018450Y019091D01*
X018450Y019190D02*
X018350Y019190D01*
X018339Y019288D02*
X018461Y019288D01*
X018502Y019387D02*
X018298Y019387D01*
X018223Y019485D02*
X018577Y019485D01*
X018719Y019584D02*
X018081Y019584D01*
X018080Y019682D02*
X018720Y019682D01*
X018720Y019781D02*
X018080Y019781D01*
X018080Y019879D02*
X018753Y019879D01*
X018770Y019978D02*
X018080Y019978D01*
X018080Y020076D02*
X018770Y020076D01*
X018770Y020175D02*
X018080Y020175D01*
X018132Y020273D02*
X018770Y020273D01*
X018770Y020372D02*
X018231Y020372D01*
X018017Y020667D02*
X017866Y020667D01*
X017900Y020766D02*
X017990Y020766D01*
X017990Y020864D02*
X017900Y020864D01*
X017887Y020963D02*
X018003Y020963D01*
X018044Y021061D02*
X017847Y021061D01*
X017770Y021160D02*
X018121Y021160D01*
X018264Y021258D02*
X017627Y021258D01*
X017495Y021455D02*
X017395Y021455D01*
X017395Y021554D02*
X017495Y021554D01*
X017495Y021652D02*
X017395Y021652D01*
X017395Y021751D02*
X017495Y021751D01*
X017495Y022046D02*
X017395Y022046D01*
X017395Y022145D02*
X017495Y022145D01*
X017495Y022243D02*
X017395Y022243D01*
X018188Y021455D02*
X018355Y021386D01*
X018536Y021386D01*
X018614Y021418D01*
X018627Y021258D02*
X018770Y021258D01*
X019130Y021258D02*
X019264Y021258D01*
X019130Y021357D02*
X020639Y021357D01*
X020592Y021409D02*
X020720Y021267D01*
X020720Y021262D01*
X020769Y021212D01*
X020770Y021211D01*
X020770Y021160D01*
X020770Y021160D01*
X020703Y021227D01*
X020536Y021296D01*
X020355Y021296D01*
X020188Y021227D01*
X020060Y021099D01*
X019990Y020931D01*
X019990Y020750D01*
X020060Y020583D01*
X020188Y020455D01*
X020355Y020386D01*
X020536Y020386D01*
X020703Y020455D01*
X020720Y020472D01*
X020720Y019584D01*
X020645Y019553D01*
X020519Y019426D01*
X020450Y019261D01*
X020450Y019082D01*
X020519Y018917D01*
X020645Y018790D01*
X020810Y018721D01*
X020990Y018721D01*
X021155Y018790D01*
X021281Y018917D01*
X021350Y019082D01*
X021350Y019261D01*
X021281Y019426D01*
X021155Y019553D01*
X021080Y019584D01*
X021080Y020397D01*
X021130Y020447D01*
X021130Y020513D01*
X021188Y020455D01*
X021355Y020386D01*
X021536Y020386D01*
X021703Y020455D01*
X021770Y020522D01*
X021770Y020397D01*
X021875Y020291D01*
X022630Y019537D01*
X022519Y019426D01*
X022450Y019261D01*
X022450Y019082D01*
X022519Y018917D01*
X022645Y018790D01*
X022810Y018721D01*
X022990Y018721D01*
X023155Y018790D01*
X023281Y018917D01*
X023350Y019082D01*
X023350Y019261D01*
X023281Y019426D01*
X023155Y019553D01*
X023080Y019584D01*
X023080Y019596D01*
X022281Y020395D01*
X022334Y020377D01*
X022395Y020368D01*
X022395Y020791D01*
X022495Y020791D01*
X022495Y020368D01*
X022557Y020377D01*
X022628Y020401D01*
X022694Y020435D01*
X022755Y020478D01*
X022770Y020494D01*
X022770Y020047D01*
X023481Y019336D01*
X023450Y019261D01*
X023450Y019082D01*
X023519Y018917D01*
X023645Y018790D01*
X023810Y018721D01*
X023990Y018721D01*
X024155Y018790D01*
X024281Y018917D01*
X024350Y019082D01*
X024350Y019261D01*
X024281Y019426D01*
X024155Y019553D01*
X023990Y019621D01*
X023810Y019621D01*
X023736Y019590D01*
X023130Y020196D01*
X023130Y021396D01*
X023025Y021501D01*
X022864Y021662D01*
X022900Y021750D01*
X022900Y021931D01*
X022831Y022099D01*
X022703Y022227D01*
X022785Y022145D02*
X025341Y022145D01*
X025412Y022046D02*
X022853Y022046D01*
X022894Y021948D02*
X024027Y021948D01*
X023920Y021896D02*
X023920Y021896D01*
X024205Y022033D01*
X024521Y022033D01*
X024805Y021896D01*
X024805Y021896D01*
X025002Y021649D01*
X025002Y021649D01*
X025040Y021486D01*
X025044Y021476D01*
X025044Y021468D01*
X025073Y021341D01*
X025044Y021213D01*
X025044Y021205D01*
X025040Y021195D01*
X025002Y021033D01*
X025002Y021033D01*
X024805Y020786D01*
X024805Y020786D01*
X024805Y020786D01*
X024521Y020648D01*
X024205Y020648D01*
X023920Y020786D01*
X023920Y020786D01*
X023723Y021033D01*
X023723Y021033D01*
X023686Y021195D01*
X023681Y021205D01*
X023681Y021213D01*
X023652Y021341D01*
X023652Y021341D01*
X023681Y021468D01*
X023681Y021476D01*
X023686Y021486D01*
X023723Y021649D01*
X023723Y021649D01*
X023920Y021896D01*
X023920Y021896D01*
X023882Y021849D02*
X022900Y021849D01*
X022900Y021751D02*
X023804Y021751D01*
X023725Y021652D02*
X022874Y021652D01*
X022973Y021554D02*
X023701Y021554D01*
X023678Y021455D02*
X023071Y021455D01*
X023130Y021357D02*
X023656Y021357D01*
X023671Y021258D02*
X023130Y021258D01*
X023130Y021160D02*
X023694Y021160D01*
X023716Y021061D02*
X023130Y021061D01*
X023130Y020963D02*
X023779Y020963D01*
X023857Y020864D02*
X023130Y020864D01*
X023130Y020766D02*
X023961Y020766D01*
X024166Y020667D02*
X023130Y020667D01*
X023130Y020569D02*
X025561Y020569D01*
X025561Y020667D02*
X024559Y020667D01*
X024764Y020766D02*
X025561Y020766D01*
X025561Y020864D02*
X024868Y020864D01*
X024947Y020963D02*
X025561Y020963D01*
X025561Y021061D02*
X025009Y021061D01*
X025031Y021160D02*
X025561Y021160D01*
X025561Y021258D02*
X025054Y021258D01*
X025069Y021357D02*
X025561Y021357D01*
X025561Y021455D02*
X025047Y021455D01*
X025024Y021554D02*
X025559Y021554D01*
X025552Y021652D02*
X025000Y021652D01*
X024921Y021751D02*
X025530Y021751D01*
X025498Y021849D02*
X024843Y021849D01*
X024699Y021948D02*
X025466Y021948D01*
X025561Y020470D02*
X023130Y020470D01*
X023130Y020372D02*
X025561Y020372D01*
X025561Y020273D02*
X023130Y020273D01*
X023152Y020175D02*
X025561Y020175D01*
X025561Y020076D02*
X023250Y020076D01*
X023349Y019978D02*
X025561Y019978D01*
X025561Y019879D02*
X023447Y019879D01*
X023546Y019781D02*
X025561Y019781D01*
X025561Y019682D02*
X023644Y019682D01*
X024081Y019584D02*
X024673Y019584D01*
X024654Y019573D02*
X024594Y019530D01*
X024542Y019478D01*
X024498Y019418D01*
X024464Y019352D01*
X024442Y019282D01*
X024432Y019221D01*
X024850Y019221D01*
X024850Y019121D01*
X024950Y019121D01*
X024950Y018704D01*
X025010Y018713D01*
X025080Y018736D01*
X025146Y018770D01*
X025206Y018813D01*
X025258Y018865D01*
X025302Y018925D01*
X025336Y018991D01*
X025358Y019061D01*
X025368Y019121D01*
X024950Y019121D01*
X024950Y019221D01*
X025368Y019221D01*
X025358Y019282D01*
X025336Y019352D01*
X025302Y019418D01*
X025258Y019478D01*
X025206Y019530D01*
X025146Y019573D01*
X025080Y019607D01*
X025010Y019630D01*
X024950Y019639D01*
X024950Y019222D01*
X024850Y019222D01*
X024850Y019639D01*
X024790Y019630D01*
X024720Y019607D01*
X024654Y019573D01*
X024549Y019485D02*
X024223Y019485D01*
X024298Y019387D02*
X024482Y019387D01*
X024444Y019288D02*
X024339Y019288D01*
X024350Y019190D02*
X024850Y019190D01*
X024850Y019121D02*
X024432Y019121D01*
X024442Y019061D01*
X024464Y018991D01*
X024498Y018925D01*
X024542Y018865D01*
X024594Y018813D01*
X024654Y018770D01*
X024720Y018736D01*
X024790Y018713D01*
X024850Y018704D01*
X024850Y019121D01*
X024850Y019091D02*
X024950Y019091D01*
X024950Y018993D02*
X024850Y018993D01*
X024850Y018894D02*
X024950Y018894D01*
X024950Y018796D02*
X024850Y018796D01*
X024618Y018796D02*
X024160Y018796D01*
X024259Y018894D02*
X024521Y018894D01*
X024464Y018993D02*
X024313Y018993D01*
X024350Y019091D02*
X024437Y019091D01*
X024850Y019288D02*
X024950Y019288D01*
X024950Y019190D02*
X025561Y019190D01*
X025561Y019288D02*
X025356Y019288D01*
X025318Y019387D02*
X025561Y019387D01*
X025561Y019485D02*
X025251Y019485D01*
X025127Y019584D02*
X025561Y019584D01*
X025561Y019091D02*
X025363Y019091D01*
X025336Y018993D02*
X025561Y018993D01*
X025561Y018894D02*
X025279Y018894D01*
X025182Y018796D02*
X025561Y018796D01*
X025561Y018697D02*
X011580Y018697D01*
X011580Y018599D02*
X025561Y018599D01*
X025561Y018500D02*
X011580Y018500D01*
X011580Y018402D02*
X025561Y018402D01*
X025561Y018303D02*
X011623Y018303D01*
X011325Y018091D02*
X011325Y018091D01*
X011311Y018106D02*
X000330Y018106D01*
X000330Y018008D02*
X011409Y018008D01*
X011508Y017909D02*
X000330Y017909D01*
X000330Y017811D02*
X017156Y017811D01*
X017170Y017712D02*
X000330Y017712D01*
X000330Y017614D02*
X017170Y017614D01*
X017170Y017515D02*
X000330Y017515D01*
X000330Y017417D02*
X017170Y017417D01*
X017170Y017318D02*
X000330Y017318D01*
X000330Y017220D02*
X017170Y017220D01*
X017170Y017121D02*
X000330Y017121D01*
X000330Y017023D02*
X017170Y017023D01*
X017170Y016924D02*
X000330Y016924D01*
X000330Y016826D02*
X017170Y016826D01*
X017170Y016727D02*
X000330Y016727D01*
X000330Y016629D02*
X017170Y016629D01*
X017170Y016530D02*
X000330Y016530D01*
X000330Y016432D02*
X017170Y016432D01*
X017170Y016333D02*
X000330Y016333D01*
X000330Y016235D02*
X017170Y016235D01*
X017170Y016136D02*
X000330Y016136D01*
X000330Y016038D02*
X017170Y016038D01*
X017170Y015939D02*
X000330Y015939D01*
X000330Y015841D02*
X017170Y015841D01*
X017170Y015742D02*
X000330Y015742D01*
X000330Y015644D02*
X017170Y015644D01*
X017170Y015545D02*
X000330Y015545D01*
X000330Y015447D02*
X017170Y015447D01*
X017170Y015348D02*
X017075Y015348D01*
X017077Y015250D02*
X017170Y015250D01*
X017060Y014757D02*
X017028Y014757D01*
X017077Y014659D02*
X017158Y014659D01*
X017097Y014560D02*
X017257Y014560D01*
X017355Y014462D02*
X017097Y014462D01*
X017350Y014721D02*
X017350Y016271D01*
X017530Y016629D02*
X018124Y016629D01*
X018116Y016261D02*
X018186Y016191D01*
X018110Y016115D01*
X018110Y015767D01*
X018186Y015691D01*
X019164Y015691D01*
X019240Y015767D01*
X019240Y015841D01*
X019576Y015841D01*
X019575Y015841D02*
X019618Y015799D01*
X019615Y015800D01*
X019485Y015800D01*
X019364Y015750D01*
X019272Y015658D01*
X019265Y015641D01*
X019216Y015639D01*
X019164Y015691D01*
X018186Y015691D01*
X018110Y015615D01*
X018110Y015267D01*
X018186Y015191D01*
X019164Y015191D01*
X018186Y015191D01*
X018116Y015121D01*
X018077Y015121D01*
X018077Y015346D01*
X018001Y015422D01*
X017930Y015422D01*
X017930Y015691D01*
X017936Y015693D01*
X018028Y015785D01*
X018078Y015906D01*
X018078Y016037D01*
X018028Y016158D01*
X017936Y016250D01*
X017910Y016261D01*
X018116Y016261D01*
X018143Y016235D02*
X017951Y016235D01*
X018037Y016136D02*
X018132Y016136D01*
X018110Y016038D02*
X018078Y016038D01*
X018078Y015939D02*
X018110Y015939D01*
X018110Y015841D02*
X018051Y015841D01*
X017985Y015742D02*
X018135Y015742D01*
X018139Y015644D02*
X017930Y015644D01*
X017930Y015545D02*
X018110Y015545D01*
X018110Y015447D02*
X017930Y015447D01*
X018075Y015348D02*
X018110Y015348D01*
X018128Y015250D02*
X018077Y015250D01*
X018077Y015151D02*
X018147Y015151D01*
X017885Y014941D02*
X017750Y015076D01*
X017750Y015971D01*
X018675Y015441D02*
X018719Y015441D01*
X019550Y015471D01*
X019550Y014276D01*
X019223Y014265D02*
X018107Y014265D01*
X018077Y014363D02*
X019223Y014363D01*
X019223Y014462D02*
X018077Y014462D01*
X018077Y014560D02*
X019237Y014560D01*
X019370Y014659D02*
X018056Y014659D01*
X018028Y014757D02*
X018120Y014757D01*
X017885Y014941D02*
X018675Y014941D01*
X019240Y014954D02*
X019370Y014954D01*
X019370Y014856D02*
X019240Y014856D01*
X019230Y014757D02*
X019370Y014757D01*
X019370Y015053D02*
X019240Y015053D01*
X019204Y015151D02*
X019370Y015151D01*
X019308Y015250D02*
X019223Y015250D01*
X019211Y015644D02*
X019266Y015644D01*
X019215Y015742D02*
X019356Y015742D01*
X019240Y015841D02*
X019575Y015841D01*
X019790Y016136D02*
X020761Y016136D01*
X020770Y016153D02*
X020750Y016119D01*
X020740Y016081D01*
X020740Y015951D01*
X021315Y015951D01*
X021315Y015931D01*
X021335Y015931D01*
X021335Y015451D01*
X021910Y015451D01*
X021910Y015581D01*
X021900Y015619D01*
X021880Y015653D01*
X021852Y015681D01*
X021835Y015691D01*
X021852Y015701D01*
X021880Y015729D01*
X021900Y015763D01*
X021910Y015801D01*
X021910Y015931D01*
X021335Y015931D01*
X021335Y015951D01*
X021315Y015951D01*
X021315Y016211D01*
X021315Y016431D01*
X020740Y016431D01*
X020740Y016301D01*
X020750Y016263D01*
X020770Y016229D01*
X020798Y016201D01*
X020815Y016191D01*
X020798Y016181D01*
X020770Y016153D01*
X020767Y016235D02*
X019208Y016235D01*
X019240Y016333D02*
X020740Y016333D01*
X020740Y016451D02*
X021315Y016451D01*
X021315Y016431D01*
X021335Y016431D01*
X021335Y015951D01*
X021910Y015951D01*
X021910Y016081D01*
X021900Y016119D01*
X021880Y016153D01*
X021852Y016181D01*
X021835Y016191D01*
X021852Y016201D01*
X021880Y016229D01*
X021900Y016263D01*
X021910Y016301D01*
X021910Y016431D01*
X021335Y016431D01*
X021335Y016451D01*
X021315Y016451D01*
X021315Y016711D01*
X020871Y016711D01*
X020832Y016701D01*
X020798Y016681D01*
X020770Y016653D01*
X020750Y016619D01*
X020740Y016581D01*
X020740Y016451D01*
X020740Y016530D02*
X019240Y016530D01*
X019240Y016432D02*
X021315Y016432D01*
X021335Y016432D02*
X025561Y016432D01*
X025561Y016530D02*
X021910Y016530D01*
X021910Y016581D02*
X021900Y016619D01*
X021880Y016653D01*
X021852Y016681D01*
X021818Y016701D01*
X021780Y016711D01*
X021335Y016711D01*
X021335Y016451D01*
X021910Y016451D01*
X021910Y016581D01*
X021894Y016629D02*
X025561Y016629D01*
X025561Y016727D02*
X017530Y016727D01*
X017530Y016826D02*
X025561Y016826D01*
X025561Y016924D02*
X017530Y016924D01*
X017530Y017023D02*
X025561Y017023D01*
X025561Y017121D02*
X017530Y017121D01*
X017530Y017220D02*
X025561Y017220D01*
X025561Y017318D02*
X017530Y017318D01*
X017530Y017417D02*
X025561Y017417D01*
X025561Y017515D02*
X017530Y017515D01*
X017530Y017614D02*
X025561Y017614D01*
X025561Y017712D02*
X017530Y017712D01*
X017530Y017811D02*
X025561Y017811D01*
X025561Y017909D02*
X017530Y017909D01*
X017469Y018008D02*
X025561Y018008D01*
X025561Y018106D02*
X017370Y018106D01*
X017272Y018205D02*
X025561Y018205D01*
X024950Y019387D02*
X024850Y019387D01*
X024850Y019485D02*
X024950Y019485D01*
X024950Y019584D02*
X024850Y019584D01*
X023900Y019171D02*
X022950Y020121D01*
X022950Y021321D01*
X022445Y021826D01*
X022445Y021841D01*
X022106Y022145D02*
X021785Y022145D01*
X021853Y022046D02*
X022038Y022046D01*
X021997Y021948D02*
X021894Y021948D01*
X021900Y021849D02*
X021990Y021849D01*
X021990Y021751D02*
X021900Y021751D01*
X021889Y021652D02*
X022031Y021652D01*
X021987Y021554D02*
X022089Y021554D01*
X022188Y021455D02*
X022355Y021386D01*
X022536Y021386D01*
X022603Y021414D01*
X022770Y021247D01*
X022770Y021188D01*
X022755Y021203D01*
X022694Y021247D01*
X022628Y021281D01*
X022557Y021304D01*
X022495Y021314D01*
X022495Y020891D01*
X022395Y020891D01*
X022395Y021314D01*
X022334Y021304D01*
X022263Y021281D01*
X022196Y021247D01*
X022136Y021203D01*
X022130Y021197D01*
X022130Y021411D01*
X022130Y021357D02*
X022660Y021357D01*
X022673Y021258D02*
X022759Y021258D01*
X022495Y021258D02*
X022395Y021258D01*
X022395Y021160D02*
X022495Y021160D01*
X022495Y021061D02*
X022395Y021061D01*
X022395Y020963D02*
X022495Y020963D01*
X022495Y020766D02*
X022395Y020766D01*
X022395Y020667D02*
X022495Y020667D01*
X022495Y020569D02*
X022395Y020569D01*
X022395Y020470D02*
X022495Y020470D01*
X022495Y020372D02*
X022395Y020372D01*
X022372Y020372D02*
X022305Y020372D01*
X022403Y020273D02*
X022770Y020273D01*
X022770Y020175D02*
X022502Y020175D01*
X022600Y020076D02*
X022770Y020076D01*
X022839Y019978D02*
X022699Y019978D01*
X022797Y019879D02*
X022938Y019879D01*
X022896Y019781D02*
X023036Y019781D01*
X022994Y019682D02*
X023135Y019682D01*
X023081Y019584D02*
X023233Y019584D01*
X023223Y019485D02*
X023332Y019485D01*
X023298Y019387D02*
X023430Y019387D01*
X023461Y019288D02*
X023339Y019288D01*
X023350Y019190D02*
X023450Y019190D01*
X023450Y019091D02*
X023350Y019091D01*
X023313Y018993D02*
X023487Y018993D01*
X023541Y018894D02*
X023259Y018894D01*
X023160Y018796D02*
X023640Y018796D01*
X022900Y019171D02*
X022900Y019521D01*
X021950Y020471D01*
X021950Y021336D01*
X021445Y021841D01*
X021031Y021652D02*
X020860Y021652D01*
X020900Y021751D02*
X020990Y021751D01*
X020990Y021849D02*
X020900Y021849D01*
X020894Y021948D02*
X020997Y021948D01*
X021038Y022046D02*
X020853Y022046D01*
X020785Y022145D02*
X021106Y022145D01*
X021227Y022243D02*
X020663Y022243D01*
X020227Y022243D02*
X019700Y022243D01*
X019812Y022145D02*
X020106Y022145D01*
X020038Y022046D02*
X019874Y022046D01*
X019909Y021948D02*
X019997Y021948D01*
X020445Y021841D02*
X020900Y021336D01*
X020950Y021286D01*
X020950Y020521D01*
X020900Y020471D01*
X020900Y019171D01*
X020502Y019387D02*
X020298Y019387D01*
X020339Y019288D02*
X020461Y019288D01*
X020450Y019190D02*
X020350Y019190D01*
X020350Y019091D02*
X020450Y019091D01*
X020487Y018993D02*
X020313Y018993D01*
X020259Y018894D02*
X020541Y018894D01*
X020640Y018796D02*
X020160Y018796D01*
X019900Y019171D02*
X019900Y020386D01*
X019445Y020841D01*
X019627Y021258D02*
X020264Y021258D01*
X020355Y021386D02*
X020188Y021455D01*
X020355Y021386D02*
X020536Y021386D01*
X020592Y021409D01*
X020627Y021258D02*
X020723Y021258D01*
X021031Y021460D02*
X021130Y021361D01*
X021130Y021169D01*
X021188Y021227D01*
X021355Y021296D01*
X021536Y021296D01*
X021703Y021227D01*
X021770Y021160D01*
X021770Y021160D01*
X021770Y021262D01*
X021614Y021418D01*
X021536Y021386D01*
X021355Y021386D01*
X021188Y021455D01*
X021130Y021357D02*
X021675Y021357D01*
X021627Y021258D02*
X021770Y021258D01*
X022130Y021258D02*
X022218Y021258D01*
X021770Y020470D02*
X021718Y020470D01*
X021795Y020372D02*
X021080Y020372D01*
X021080Y020273D02*
X021894Y020273D01*
X021992Y020175D02*
X021080Y020175D01*
X021080Y020076D02*
X022091Y020076D01*
X022189Y019978D02*
X021080Y019978D01*
X021080Y019879D02*
X022288Y019879D01*
X022386Y019781D02*
X021080Y019781D01*
X021080Y019682D02*
X022485Y019682D01*
X022583Y019584D02*
X022081Y019584D01*
X022155Y019553D02*
X021990Y019621D01*
X021810Y019621D01*
X021645Y019553D01*
X021519Y019426D01*
X021450Y019261D01*
X021450Y019082D01*
X021519Y018917D01*
X021645Y018790D01*
X021810Y018721D01*
X021990Y018721D01*
X022155Y018790D01*
X022281Y018917D01*
X022350Y019082D01*
X022350Y019261D01*
X022281Y019426D01*
X022155Y019553D01*
X022223Y019485D02*
X022577Y019485D01*
X022502Y019387D02*
X022298Y019387D01*
X022339Y019288D02*
X022461Y019288D01*
X022450Y019190D02*
X022350Y019190D01*
X022350Y019091D02*
X022450Y019091D01*
X022487Y018993D02*
X022313Y018993D01*
X022259Y018894D02*
X022541Y018894D01*
X022640Y018796D02*
X022160Y018796D01*
X021640Y018796D02*
X021160Y018796D01*
X021259Y018894D02*
X021541Y018894D01*
X021487Y018993D02*
X021313Y018993D01*
X021350Y019091D02*
X021450Y019091D01*
X021450Y019190D02*
X021350Y019190D01*
X021339Y019288D02*
X021461Y019288D01*
X021502Y019387D02*
X021298Y019387D01*
X021223Y019485D02*
X021577Y019485D01*
X021719Y019584D02*
X021081Y019584D01*
X020719Y019584D02*
X020081Y019584D01*
X020080Y019682D02*
X020720Y019682D01*
X020720Y019781D02*
X020080Y019781D01*
X020080Y019879D02*
X020720Y019879D01*
X020720Y019978D02*
X020080Y019978D01*
X020080Y020076D02*
X020720Y020076D01*
X020720Y020175D02*
X020080Y020175D01*
X020080Y020273D02*
X020720Y020273D01*
X020720Y020372D02*
X020080Y020372D01*
X020071Y020470D02*
X020173Y020470D01*
X020074Y020569D02*
X019972Y020569D01*
X020025Y020667D02*
X019874Y020667D01*
X019900Y020766D02*
X019990Y020766D01*
X019990Y020864D02*
X019900Y020864D01*
X019887Y020963D02*
X020003Y020963D01*
X020044Y021061D02*
X019847Y021061D01*
X019770Y021160D02*
X020121Y021160D01*
X019495Y021455D02*
X019395Y021455D01*
X019395Y021554D02*
X019495Y021554D01*
X019495Y021652D02*
X019395Y021652D01*
X019395Y021751D02*
X019495Y021751D01*
X019495Y022046D02*
X019395Y022046D01*
X019395Y022145D02*
X019495Y022145D01*
X019495Y022243D02*
X019395Y022243D01*
X018979Y021751D02*
X018900Y021751D01*
X018889Y021652D02*
X019008Y021652D01*
X018987Y021554D02*
X019067Y021554D01*
X019086Y021455D02*
X019168Y021455D01*
X018445Y020841D02*
X017900Y020296D01*
X017900Y019171D01*
X017487Y018993D02*
X017313Y018993D01*
X017350Y019091D02*
X017450Y019091D01*
X017450Y019190D02*
X017350Y019190D01*
X017339Y019288D02*
X017461Y019288D01*
X017502Y019387D02*
X017298Y019387D01*
X017223Y019485D02*
X017577Y019485D01*
X017719Y019584D02*
X017081Y019584D01*
X017080Y019682D02*
X017720Y019682D01*
X017720Y019781D02*
X017080Y019781D01*
X017080Y019879D02*
X017720Y019879D01*
X017720Y019978D02*
X017080Y019978D01*
X017080Y020076D02*
X017720Y020076D01*
X017720Y020175D02*
X017080Y020175D01*
X017132Y020273D02*
X017720Y020273D01*
X017721Y020372D02*
X017231Y020372D01*
X016900Y020296D02*
X017445Y020841D01*
X017718Y020470D02*
X017820Y020470D01*
X017817Y020569D02*
X017918Y020569D01*
X018718Y020470D02*
X018770Y020470D01*
X019130Y020470D02*
X019173Y020470D01*
X019130Y020372D02*
X019660Y020372D01*
X019720Y020273D02*
X019130Y020273D01*
X019130Y020175D02*
X019720Y020175D01*
X019720Y020076D02*
X019130Y020076D01*
X019130Y019978D02*
X019720Y019978D01*
X019720Y019879D02*
X019130Y019879D01*
X019130Y019781D02*
X019720Y019781D01*
X019720Y019682D02*
X019080Y019682D01*
X019081Y019584D02*
X019719Y019584D01*
X019577Y019485D02*
X019223Y019485D01*
X019298Y019387D02*
X019502Y019387D01*
X019461Y019288D02*
X019339Y019288D01*
X019350Y019190D02*
X019450Y019190D01*
X019450Y019091D02*
X019350Y019091D01*
X019313Y018993D02*
X019487Y018993D01*
X019541Y018894D02*
X019259Y018894D01*
X019160Y018796D02*
X019640Y018796D01*
X020223Y019485D02*
X020577Y019485D01*
X020718Y020470D02*
X020720Y020470D01*
X021130Y020470D02*
X021173Y020470D01*
X021130Y021258D02*
X021264Y021258D01*
X021089Y021554D02*
X020946Y021554D01*
X021663Y022243D02*
X022227Y022243D01*
X022743Y020470D02*
X022770Y020470D01*
X022770Y020372D02*
X022519Y020372D01*
X018640Y018796D02*
X018160Y018796D01*
X018259Y018894D02*
X018541Y018894D01*
X017640Y018796D02*
X017160Y018796D01*
X017259Y018894D02*
X017541Y018894D01*
X016900Y019171D02*
X016900Y020296D01*
X016173Y020470D02*
X016130Y020470D01*
X015770Y020470D02*
X015743Y020470D01*
X015770Y020372D02*
X015519Y020372D01*
X015495Y020372D02*
X015395Y020372D01*
X015372Y020372D02*
X015130Y020372D01*
X015130Y020470D02*
X015147Y020470D01*
X015130Y020273D02*
X015770Y020273D01*
X015770Y020175D02*
X015130Y020175D01*
X015130Y020076D02*
X015770Y020076D01*
X015770Y019978D02*
X015130Y019978D01*
X015112Y019879D02*
X015770Y019879D01*
X015770Y019781D02*
X015080Y019781D01*
X015080Y019682D02*
X015756Y019682D01*
X015719Y019584D02*
X015081Y019584D01*
X015223Y019485D02*
X015577Y019485D01*
X015502Y019387D02*
X015298Y019387D01*
X015339Y019288D02*
X015461Y019288D01*
X015450Y019190D02*
X015350Y019190D01*
X015350Y019091D02*
X015450Y019091D01*
X015487Y018993D02*
X015313Y018993D01*
X015259Y018894D02*
X015541Y018894D01*
X015640Y018796D02*
X015160Y018796D01*
X014900Y019171D02*
X014900Y019921D01*
X014950Y019971D01*
X014950Y021336D01*
X014445Y021841D01*
X014031Y021652D02*
X013860Y021652D01*
X013900Y021751D02*
X013990Y021751D01*
X013990Y021849D02*
X013900Y021849D01*
X013894Y021948D02*
X013997Y021948D01*
X014038Y022046D02*
X013853Y022046D01*
X013785Y022145D02*
X014106Y022145D01*
X014227Y022243D02*
X013663Y022243D01*
X013227Y022243D02*
X012700Y022243D01*
X012812Y022145D02*
X013106Y022145D01*
X013038Y022046D02*
X012874Y022046D01*
X012909Y021948D02*
X012997Y021948D01*
X013188Y021455D02*
X013355Y021386D01*
X013536Y021386D01*
X013703Y021455D01*
X013802Y021554D02*
X014089Y021554D01*
X014188Y021455D02*
X014355Y021386D01*
X014536Y021386D01*
X014614Y021418D01*
X014627Y021258D02*
X014770Y021258D01*
X014445Y020841D02*
X013900Y020296D01*
X013900Y019171D01*
X013502Y019387D02*
X013298Y019387D01*
X013339Y019288D02*
X013461Y019288D01*
X013450Y019190D02*
X013350Y019190D01*
X013350Y019091D02*
X013450Y019091D01*
X013487Y018993D02*
X013313Y018993D01*
X013259Y018894D02*
X013541Y018894D01*
X013640Y018796D02*
X013160Y018796D01*
X012900Y019171D02*
X012900Y020296D01*
X013445Y020841D01*
X013627Y021258D02*
X014264Y021258D01*
X014121Y021160D02*
X013770Y021160D01*
X013847Y021061D02*
X014044Y021061D01*
X014003Y020963D02*
X013887Y020963D01*
X013900Y020864D02*
X013990Y020864D01*
X013990Y020766D02*
X013900Y020766D01*
X013866Y020667D02*
X014017Y020667D01*
X013918Y020569D02*
X013817Y020569D01*
X013820Y020470D02*
X013718Y020470D01*
X013721Y020372D02*
X013231Y020372D01*
X013132Y020273D02*
X013720Y020273D01*
X013720Y020175D02*
X013080Y020175D01*
X013080Y020076D02*
X013720Y020076D01*
X013720Y019978D02*
X013080Y019978D01*
X013080Y019879D02*
X013720Y019879D01*
X013720Y019781D02*
X013080Y019781D01*
X013080Y019682D02*
X013720Y019682D01*
X013719Y019584D02*
X013081Y019584D01*
X013223Y019485D02*
X013577Y019485D01*
X014081Y019584D02*
X014719Y019584D01*
X014720Y019682D02*
X014080Y019682D01*
X014080Y019781D02*
X014720Y019781D01*
X014720Y019879D02*
X014080Y019879D01*
X014080Y019978D02*
X014720Y019978D01*
X014770Y020076D02*
X014080Y020076D01*
X014080Y020175D02*
X014770Y020175D01*
X014770Y020273D02*
X014132Y020273D01*
X014231Y020372D02*
X014770Y020372D01*
X014770Y020470D02*
X014718Y020470D01*
X015395Y020470D02*
X015495Y020470D01*
X015495Y020569D02*
X015395Y020569D01*
X015395Y020667D02*
X015495Y020667D01*
X015495Y020766D02*
X015395Y020766D01*
X015395Y020963D02*
X015495Y020963D01*
X015495Y021061D02*
X015395Y021061D01*
X015395Y021160D02*
X015495Y021160D01*
X015495Y021258D02*
X015395Y021258D01*
X015218Y021258D02*
X015130Y021258D01*
X015445Y021841D02*
X015950Y021336D01*
X016130Y021258D02*
X016264Y021258D01*
X014577Y019485D02*
X014223Y019485D01*
X014298Y019387D02*
X014502Y019387D01*
X014461Y019288D02*
X014339Y019288D01*
X014350Y019190D02*
X014450Y019190D01*
X014450Y019091D02*
X014350Y019091D01*
X014313Y018993D02*
X014487Y018993D01*
X014541Y018894D02*
X014259Y018894D01*
X014160Y018796D02*
X014640Y018796D01*
X011719Y019584D02*
X011580Y019584D01*
X011580Y019682D02*
X011720Y019682D01*
X011720Y019781D02*
X011580Y019781D01*
X011580Y019879D02*
X011720Y019879D01*
X011720Y019978D02*
X011580Y019978D01*
X011580Y020076D02*
X011720Y020076D01*
X011720Y020175D02*
X011580Y020175D01*
X011580Y020273D02*
X011720Y020273D01*
X011640Y018796D02*
X011580Y018796D01*
X011220Y018796D02*
X011160Y018796D01*
X011220Y018697D02*
X000330Y018697D01*
X000330Y018599D02*
X011220Y018599D01*
X011220Y018500D02*
X000330Y018500D01*
X000330Y018402D02*
X011220Y018402D01*
X011220Y018303D02*
X000330Y018303D01*
X000330Y018205D02*
X011220Y018205D01*
X010640Y018796D02*
X010160Y018796D01*
X010259Y018894D02*
X010541Y018894D01*
X006985Y020963D02*
X006887Y020963D01*
X005770Y021258D02*
X005627Y021258D01*
X005495Y021455D02*
X005395Y021455D01*
X005395Y021554D02*
X005495Y021554D01*
X005495Y021652D02*
X005395Y021652D01*
X005909Y021948D02*
X005997Y021948D01*
X006038Y022046D02*
X005874Y022046D01*
X005812Y022145D02*
X006106Y022145D01*
X006227Y022243D02*
X005700Y022243D01*
X004703Y021455D02*
X004536Y021386D01*
X004264Y021258D02*
X003862Y021258D01*
X003900Y021160D02*
X004121Y021160D01*
X004044Y021061D02*
X003900Y021061D01*
X003900Y020963D02*
X004003Y020963D01*
X003990Y020864D02*
X003900Y020864D01*
X003900Y020766D02*
X003990Y020766D01*
X004017Y020667D02*
X003900Y020667D01*
X003900Y020569D02*
X003918Y020569D01*
X003721Y020372D02*
X000330Y020372D01*
X000330Y020470D02*
X002990Y020470D01*
X003623Y020273D02*
X000330Y020273D01*
X000330Y020175D02*
X001648Y020175D01*
X001550Y020076D02*
X000330Y020076D01*
X000330Y019978D02*
X001451Y019978D01*
X001353Y019879D02*
X000330Y019879D01*
X000330Y019781D02*
X001254Y019781D01*
X001156Y019682D02*
X000330Y019682D01*
X000330Y019584D02*
X000719Y019584D01*
X000577Y019485D02*
X000330Y019485D01*
X000330Y019387D02*
X000502Y019387D01*
X000461Y019288D02*
X000330Y019288D01*
X000330Y019190D02*
X000450Y019190D01*
X000450Y019091D02*
X000330Y019091D01*
X000330Y018993D02*
X000487Y018993D01*
X000541Y018894D02*
X000330Y018894D01*
X000330Y018796D02*
X000640Y018796D01*
X000900Y019171D02*
X001800Y020071D01*
X003676Y020071D01*
X004445Y020841D01*
X004718Y020470D02*
X004820Y020470D01*
X004817Y020569D02*
X004918Y020569D01*
X004721Y020372D02*
X004231Y020372D01*
X004132Y020273D02*
X004623Y020273D01*
X004524Y020175D02*
X004034Y020175D01*
X003935Y020076D02*
X004426Y020076D01*
X004327Y019978D02*
X003837Y019978D01*
X003719Y019584D02*
X003081Y019584D01*
X003223Y019485D02*
X003577Y019485D01*
X003502Y019387D02*
X003298Y019387D01*
X003339Y019288D02*
X003461Y019288D01*
X003450Y019190D02*
X003350Y019190D01*
X003350Y019091D02*
X003450Y019091D01*
X003487Y018993D02*
X003313Y018993D01*
X003259Y018894D02*
X003541Y018894D01*
X003640Y018796D02*
X003160Y018796D01*
X002640Y018796D02*
X002160Y018796D01*
X002259Y018894D02*
X002541Y018894D01*
X002487Y018993D02*
X002313Y018993D01*
X002350Y019091D02*
X002450Y019091D01*
X002450Y019190D02*
X002350Y019190D01*
X002339Y019288D02*
X002461Y019288D01*
X002502Y019387D02*
X002319Y019387D01*
X002437Y019485D02*
X002577Y019485D01*
X002556Y019584D02*
X002719Y019584D01*
X002500Y019771D02*
X001900Y019271D01*
X001900Y019171D01*
X001640Y018796D02*
X001160Y018796D01*
X001259Y018894D02*
X001541Y018894D01*
X001487Y018993D02*
X001313Y018993D01*
X001350Y019091D02*
X001450Y019091D01*
X001450Y019190D02*
X001350Y019190D01*
X001339Y019288D02*
X001461Y019288D01*
X001502Y019387D02*
X001370Y019387D01*
X001468Y019485D02*
X001577Y019485D01*
X001567Y019584D02*
X001719Y019584D01*
X001665Y019682D02*
X002111Y019682D01*
X002230Y019781D02*
X001764Y019781D01*
X001862Y019879D02*
X002348Y019879D01*
X002500Y019771D02*
X004376Y019771D01*
X005445Y020841D01*
X000353Y015348D02*
X016425Y015348D01*
X016423Y015250D02*
X000444Y015250D01*
X002009Y015151D02*
X016423Y015151D01*
X016403Y014265D02*
X002299Y014265D01*
X002299Y014166D02*
X016403Y014166D01*
X016428Y014068D02*
X002299Y014068D01*
X002299Y009044D02*
X011068Y009044D01*
X010993Y008946D02*
X002299Y008946D01*
X002299Y008847D02*
X010921Y008847D01*
X010822Y008749D02*
X002299Y008749D01*
X002299Y008650D02*
X010724Y008650D01*
X010625Y008552D02*
X002267Y008552D01*
X002226Y008453D02*
X010527Y008453D01*
X010231Y008158D02*
X000485Y008158D01*
X000360Y008059D02*
X007716Y008059D01*
X007716Y007961D02*
X000331Y007961D01*
X000330Y007862D02*
X006836Y007862D01*
X006737Y007764D02*
X000330Y007764D01*
X000330Y007665D02*
X006639Y007665D01*
X006540Y007567D02*
X000330Y007567D01*
X000330Y007468D02*
X006520Y007468D01*
X006520Y007370D02*
X000330Y007370D01*
X000330Y007271D02*
X006520Y007271D01*
X006520Y007173D02*
X000330Y007173D01*
X000330Y007074D02*
X006520Y007074D01*
X006520Y006976D02*
X000330Y006976D01*
X000330Y006877D02*
X006520Y006877D01*
X006520Y006779D02*
X000330Y006779D01*
X000330Y006680D02*
X006520Y006680D01*
X006520Y006582D02*
X000330Y006582D01*
X000330Y006483D02*
X006520Y006483D01*
X006520Y006385D02*
X000330Y006385D01*
X000330Y006286D02*
X006520Y006286D01*
X006520Y006188D02*
X000330Y006188D01*
X000330Y006089D02*
X006520Y006089D01*
X006520Y005991D02*
X000330Y005991D01*
X000330Y005892D02*
X006520Y005892D01*
X006520Y005794D02*
X000330Y005794D01*
X000330Y005695D02*
X006520Y005695D01*
X006520Y005597D02*
X000330Y005597D01*
X000330Y005498D02*
X006520Y005498D01*
X006520Y005400D02*
X000330Y005400D01*
X000330Y005301D02*
X006520Y005301D01*
X006520Y005203D02*
X000330Y005203D01*
X000330Y005104D02*
X006520Y005104D01*
X006520Y005006D02*
X000330Y005006D01*
X000330Y004907D02*
X006520Y004907D01*
X006520Y004809D02*
X000330Y004809D01*
X000330Y004710D02*
X006520Y004710D01*
X006520Y004612D02*
X000330Y004612D01*
X000330Y004513D02*
X006520Y004513D01*
X006520Y004415D02*
X000330Y004415D01*
X000330Y004316D02*
X006520Y004316D01*
X006520Y004218D02*
X000330Y004218D01*
X000330Y004119D02*
X006520Y004119D01*
X006520Y004021D02*
X000330Y004021D01*
X000330Y003922D02*
X006520Y003922D01*
X006520Y003824D02*
X000330Y003824D01*
X000330Y003725D02*
X006520Y003725D01*
X006520Y003627D02*
X000330Y003627D01*
X000330Y003528D02*
X006520Y003528D01*
X006520Y003430D02*
X000330Y003430D01*
X000330Y003331D02*
X006520Y003331D01*
X006520Y003233D02*
X000330Y003233D01*
X000330Y003134D02*
X006520Y003134D01*
X006520Y003036D02*
X000330Y003036D01*
X000330Y002937D02*
X006520Y002937D01*
X006520Y002839D02*
X000330Y002839D01*
X001899Y001459D02*
X005903Y001459D01*
X005903Y001361D02*
X001694Y001361D01*
X002022Y001558D02*
X005903Y001558D01*
X005903Y001656D02*
X002100Y001656D01*
X002168Y001741D02*
X002168Y001741D01*
X002171Y001755D02*
X005903Y001755D01*
X005903Y001853D02*
X002193Y001853D01*
X002216Y001952D02*
X005903Y001952D01*
X005943Y002050D02*
X002238Y002050D01*
X006880Y006188D02*
X007179Y006188D01*
X007143Y006286D02*
X006880Y006286D01*
X006880Y006385D02*
X007143Y006385D01*
X007143Y006483D02*
X006880Y006483D01*
X006880Y006582D02*
X007143Y006582D01*
X007170Y006680D02*
X006880Y006680D01*
X006880Y006779D02*
X007123Y006779D01*
X007123Y006877D02*
X006880Y006877D01*
X006880Y006976D02*
X007123Y006976D01*
X007123Y006946D02*
X007431Y006946D01*
X007431Y007215D01*
X007253Y007215D01*
X007215Y007205D01*
X007181Y007185D01*
X007153Y007157D01*
X007133Y007123D01*
X007123Y007085D01*
X007123Y006946D01*
X007123Y007074D02*
X006880Y007074D01*
X006880Y007173D02*
X007168Y007173D01*
X007431Y007173D02*
X007469Y007173D01*
X007469Y007074D02*
X007431Y007074D01*
X007431Y006976D02*
X007469Y006976D01*
X007716Y007271D02*
X006880Y007271D01*
X006880Y007370D02*
X007716Y007370D01*
X007703Y007468D02*
X006951Y007468D01*
X007050Y007567D02*
X007696Y007567D01*
X008043Y007178D02*
X008043Y007009D01*
X007450Y006416D01*
X008800Y007771D02*
X008994Y007965D01*
X009657Y007965D01*
X009657Y007768D02*
X009197Y007768D01*
X009050Y007621D01*
X009050Y003121D01*
X009230Y003233D02*
X012444Y003233D01*
X012444Y003331D02*
X009230Y003331D01*
X009230Y003430D02*
X012444Y003430D01*
X012444Y003528D02*
X009230Y003528D01*
X009230Y003627D02*
X012444Y003627D01*
X012444Y003725D02*
X009230Y003725D01*
X009230Y003824D02*
X012444Y003824D01*
X012444Y003922D02*
X009230Y003922D01*
X009230Y004021D02*
X012444Y004021D01*
X012444Y004119D02*
X009230Y004119D01*
X009230Y004218D02*
X012444Y004218D01*
X012444Y004316D02*
X009230Y004316D01*
X009230Y004415D02*
X012444Y004415D01*
X012444Y004513D02*
X009230Y004513D01*
X009230Y004612D02*
X012444Y004612D01*
X012444Y004710D02*
X009230Y004710D01*
X009230Y004809D02*
X012444Y004809D01*
X012444Y004907D02*
X009230Y004907D01*
X009230Y005006D02*
X012444Y005006D01*
X012444Y005104D02*
X009230Y005104D01*
X009230Y005203D02*
X012444Y005203D01*
X012444Y005301D02*
X009230Y005301D01*
X009230Y005400D02*
X012444Y005400D01*
X012444Y005498D02*
X009230Y005498D01*
X009230Y005597D02*
X011711Y005597D01*
X011638Y005695D02*
X009230Y005695D01*
X009230Y005794D02*
X009523Y005794D01*
X009425Y005892D02*
X009230Y005892D01*
X009230Y005991D02*
X009326Y005991D01*
X009650Y005921D02*
X009250Y006321D01*
X009250Y007471D01*
X009350Y007571D01*
X009657Y007571D01*
X009900Y007571D01*
X011106Y008777D01*
X011300Y008777D01*
X012000Y008777D01*
X011768Y009044D02*
X011532Y009044D01*
X011573Y008552D02*
X011727Y008552D01*
X011681Y008453D02*
X011619Y008453D01*
X011627Y008355D02*
X011673Y008355D01*
X011673Y008158D02*
X011627Y008158D01*
X011611Y008059D02*
X011689Y008059D01*
X011981Y008059D02*
X012019Y008059D01*
X012019Y008158D02*
X011981Y008158D01*
X012327Y008158D02*
X012331Y008158D01*
X012273Y008552D02*
X015706Y008552D01*
X016212Y009241D02*
X016259Y009241D01*
X016487Y009241D02*
X016525Y009241D01*
X016525Y009340D02*
X016487Y009340D01*
X016487Y009438D02*
X016525Y009438D01*
X016790Y009734D02*
X025561Y009734D01*
X025561Y009832D02*
X016713Y009832D01*
X015994Y009521D02*
X015306Y009521D01*
X015088Y009241D02*
X015041Y009241D01*
X014813Y009241D02*
X014775Y009241D01*
X014775Y009340D02*
X014813Y009340D01*
X014813Y009438D02*
X014775Y009438D01*
X015574Y009734D02*
X015726Y009734D01*
X017707Y007468D02*
X017970Y007468D01*
X017970Y007370D02*
X017707Y007370D01*
X017672Y007271D02*
X017970Y007271D01*
X017970Y007173D02*
X017727Y007173D01*
X017727Y007074D02*
X017970Y007074D01*
X017970Y006976D02*
X017727Y006976D01*
X017727Y006997D02*
X017419Y006997D01*
X017419Y006728D01*
X017597Y006728D01*
X017635Y006738D01*
X017669Y006758D01*
X017697Y006786D01*
X017717Y006820D01*
X017727Y006858D01*
X017727Y006997D01*
X017727Y006877D02*
X017970Y006877D01*
X017970Y006779D02*
X017690Y006779D01*
X017419Y006779D02*
X017381Y006779D01*
X017381Y006877D02*
X017419Y006877D01*
X017419Y006976D02*
X017381Y006976D01*
X017073Y006976D02*
X016436Y006976D01*
X016462Y006877D02*
X017073Y006877D01*
X017110Y006779D02*
X016462Y006779D01*
X015500Y006636D02*
X015476Y006660D01*
X015476Y005603D01*
X015657Y005421D01*
X015352Y005301D02*
X015280Y005301D01*
X015280Y005203D02*
X015412Y005203D01*
X015329Y005400D02*
X015280Y005400D01*
X015280Y005498D02*
X015326Y005498D01*
X015296Y005597D02*
X015280Y005597D01*
X015280Y005695D02*
X015296Y005695D01*
X015296Y005794D02*
X015280Y005794D01*
X015280Y005892D02*
X015296Y005892D01*
X015296Y005991D02*
X015280Y005991D01*
X015280Y006089D02*
X015296Y006089D01*
X015296Y006188D02*
X015280Y006188D01*
X015280Y006286D02*
X015296Y006286D01*
X012624Y005960D02*
X012624Y002039D01*
X012158Y001557D01*
X012650Y001361D02*
X013043Y001361D01*
X013006Y001459D02*
X012688Y001459D01*
X012688Y001558D02*
X013006Y001558D01*
X013006Y001656D02*
X012688Y001656D01*
X012650Y001755D02*
X013044Y001755D01*
X013085Y001853D02*
X012695Y001853D01*
X012791Y001952D02*
X013181Y001952D01*
X013342Y002050D02*
X012804Y002050D01*
X012444Y002149D02*
X010394Y002149D01*
X010285Y002248D02*
X012444Y002248D01*
X012444Y002346D02*
X010176Y002346D01*
X010067Y002445D02*
X012444Y002445D01*
X012444Y002543D02*
X009958Y002543D01*
X009849Y002642D02*
X012444Y002642D01*
X012444Y002740D02*
X009740Y002740D01*
X009631Y002839D02*
X012444Y002839D01*
X012444Y002937D02*
X009522Y002937D01*
X009413Y003036D02*
X012444Y003036D01*
X012444Y003134D02*
X009305Y003134D01*
X009384Y002050D02*
X009966Y002050D01*
X010075Y001952D02*
X009544Y001952D01*
X009640Y001853D02*
X010184Y001853D01*
X010250Y001755D02*
X009681Y001755D01*
X009719Y001656D02*
X010250Y001656D01*
X010250Y001558D02*
X009719Y001558D01*
X009719Y001459D02*
X010250Y001459D01*
X010250Y001361D02*
X009682Y001361D01*
X009641Y001262D02*
X010250Y001262D01*
X010250Y001164D02*
X009546Y001164D01*
X009387Y001065D02*
X010288Y001065D01*
X008326Y001952D02*
X008166Y001952D01*
X008006Y002050D02*
X008370Y002050D01*
X012352Y002050D02*
X012385Y002050D01*
X012609Y001262D02*
X013084Y001262D01*
X013180Y001164D02*
X012514Y001164D01*
X013520Y000951D02*
X013536Y001557D01*
X013892Y001164D02*
X014581Y001164D01*
X014581Y001262D02*
X013987Y001262D01*
X014028Y001361D02*
X014581Y001361D01*
X014581Y001459D02*
X014066Y001459D01*
X014066Y001558D02*
X014581Y001558D01*
X014581Y001656D02*
X014066Y001656D01*
X014028Y001755D02*
X014581Y001755D01*
X014581Y001853D02*
X013987Y001853D01*
X013891Y001952D02*
X014581Y001952D01*
X014620Y002050D02*
X013730Y002050D01*
X013733Y001065D02*
X014619Y001065D01*
X015601Y002050D02*
X015674Y002050D01*
X015987Y001853D02*
X016038Y001853D01*
X015997Y001755D02*
X015980Y001755D01*
X016085Y001952D02*
X016134Y001952D01*
X016184Y002050D02*
X016294Y002050D01*
X012444Y005597D02*
X012438Y005597D01*
X012254Y005597D02*
X012246Y005597D01*
X012246Y005695D02*
X012254Y005695D01*
X012246Y005794D02*
X012254Y005794D01*
X012246Y005892D02*
X012254Y005892D01*
X012246Y005991D02*
X012254Y005991D01*
X012246Y006089D02*
X012254Y006089D01*
X012246Y006188D02*
X012254Y006188D01*
X012246Y006286D02*
X012254Y006286D01*
X012000Y006521D02*
X012250Y006771D01*
X012000Y006521D02*
X010950Y006521D01*
X011250Y006821D01*
X010950Y006521D02*
X010050Y006521D01*
X009657Y006914D01*
X009657Y007178D01*
X009657Y007375D02*
X010300Y007375D01*
X010650Y007721D01*
X010300Y007375D02*
X011485Y007375D01*
X011319Y008059D02*
X011281Y008059D01*
X011281Y008158D02*
X011319Y008158D01*
X010973Y008355D02*
X010938Y008355D01*
X010133Y008059D02*
X009984Y008059D01*
X009984Y007961D02*
X010034Y007961D01*
X009477Y006976D02*
X009430Y006976D01*
X009430Y006877D02*
X009477Y006877D01*
X009430Y006779D02*
X009538Y006779D01*
X009637Y006680D02*
X009430Y006680D01*
X009430Y006582D02*
X009735Y006582D01*
X009834Y006483D02*
X009430Y006483D01*
X009442Y006385D02*
X009932Y006385D01*
X009639Y006188D02*
X011638Y006188D01*
X011674Y006286D02*
X009540Y006286D01*
X009650Y005921D02*
X011838Y005921D01*
X011876Y005960D01*
X012041Y005597D02*
X012062Y005597D01*
X021010Y013280D02*
X021368Y013280D01*
X021368Y013378D02*
X021027Y013378D01*
X021027Y013477D02*
X021368Y013477D01*
X021418Y013575D02*
X021027Y013575D01*
X021027Y013674D02*
X021420Y013674D01*
X021420Y013772D02*
X021027Y013772D01*
X020994Y013871D02*
X021420Y013871D01*
X021420Y013969D02*
X020990Y013969D01*
X021027Y014068D02*
X021349Y014068D01*
X021396Y014276D02*
X021600Y014071D01*
X021600Y013244D01*
X021623Y013221D01*
X021965Y013181D02*
X021990Y013181D01*
X021990Y013209D02*
X021990Y012821D01*
X022122Y012821D01*
X022160Y012832D01*
X022194Y012851D01*
X022222Y012879D01*
X022242Y012914D01*
X022252Y012952D01*
X022252Y013209D01*
X021990Y013209D01*
X021990Y013280D02*
X021965Y013280D01*
X021965Y013378D02*
X021990Y013378D01*
X021990Y013477D02*
X021965Y013477D01*
X021965Y013575D02*
X021990Y013575D01*
X022211Y013575D02*
X025561Y013575D01*
X025561Y013477D02*
X022252Y013477D01*
X022252Y013378D02*
X025561Y013378D01*
X025561Y013280D02*
X022252Y013280D01*
X022252Y013181D02*
X025561Y013181D01*
X025561Y013083D02*
X022252Y013083D01*
X022252Y012984D02*
X025561Y012984D01*
X025561Y012886D02*
X022226Y012886D01*
X021990Y012886D02*
X021965Y012886D01*
X021965Y012984D02*
X021990Y012984D01*
X021990Y013083D02*
X021965Y013083D01*
X021780Y013674D02*
X025561Y013674D01*
X025561Y013772D02*
X021780Y013772D01*
X021780Y013871D02*
X025561Y013871D01*
X025561Y013969D02*
X021780Y013969D01*
X021780Y014068D02*
X025561Y014068D01*
X025561Y014166D02*
X021760Y014166D01*
X021662Y014265D02*
X025561Y014265D01*
X025561Y014363D02*
X021563Y014363D01*
X021396Y014276D02*
X020700Y014276D01*
X020700Y014971D01*
X020880Y014659D02*
X025561Y014659D01*
X025561Y014757D02*
X021897Y014757D01*
X021910Y014856D02*
X025561Y014856D01*
X025561Y014954D02*
X021910Y014954D01*
X021910Y015053D02*
X025561Y015053D01*
X025561Y015151D02*
X021881Y015151D01*
X021892Y015250D02*
X025561Y015250D01*
X025561Y015348D02*
X021910Y015348D01*
X021910Y015545D02*
X025561Y015545D01*
X025561Y015447D02*
X021335Y015447D01*
X021315Y015447D02*
X020480Y015447D01*
X020740Y015841D02*
X020086Y015841D01*
X019987Y015939D02*
X021315Y015939D01*
X021335Y015939D02*
X025561Y015939D01*
X025561Y015841D02*
X021910Y015841D01*
X021888Y015742D02*
X025561Y015742D01*
X025561Y015644D02*
X021886Y015644D01*
X021910Y016038D02*
X025561Y016038D01*
X025561Y016136D02*
X021890Y016136D01*
X021884Y016235D02*
X025561Y016235D01*
X025561Y016333D02*
X021910Y016333D01*
X021335Y016333D02*
X021315Y016333D01*
X021315Y016235D02*
X021335Y016235D01*
X021335Y016136D02*
X021315Y016136D01*
X021315Y016038D02*
X021335Y016038D01*
X021335Y015841D02*
X021315Y015841D01*
X021315Y015742D02*
X021335Y015742D01*
X021335Y015644D02*
X021315Y015644D01*
X021315Y015545D02*
X021335Y015545D01*
X021335Y015348D02*
X021315Y015348D01*
X021315Y015250D02*
X021335Y015250D01*
X021335Y015151D02*
X021315Y015151D01*
X021315Y015053D02*
X021335Y015053D01*
X021335Y014954D02*
X021315Y014954D01*
X021315Y014856D02*
X021335Y014856D01*
X021335Y014757D02*
X021315Y014757D01*
X021027Y014462D02*
X025561Y014462D01*
X025561Y014560D02*
X021013Y014560D01*
X019223Y014166D02*
X018206Y014166D01*
X018304Y014068D02*
X019223Y014068D01*
X019260Y013969D02*
X018403Y013969D01*
X018501Y013871D02*
X019256Y013871D01*
X019223Y013772D02*
X018600Y013772D01*
X016798Y014068D02*
X016702Y014068D01*
X016702Y014166D02*
X016798Y014166D01*
X019226Y016629D02*
X020756Y016629D01*
X020740Y016038D02*
X019889Y016038D01*
X021315Y016530D02*
X021335Y016530D01*
X021335Y016629D02*
X021315Y016629D01*
D23*
X019441Y009280D03*
X017400Y003521D03*
X015800Y003521D03*
D24*
X015657Y005421D03*
X015900Y008821D03*
X011250Y006821D03*
X010650Y007721D03*
X019550Y015471D03*
X017750Y015971D03*
M02*
