G75*
%MOIN*%
%OFA0B0*%
%FSLAX24Y24*%
%IPPOS*%
%LPD*%
%AMOC8*
5,1,8,0,0,1.08239X$1,22.5*
%
%ADD10C,0.1182*%
%ADD11C,0.0730*%
%ADD12R,0.0730X0.0730*%
%ADD13C,0.0720*%
%ADD14C,0.0880*%
%ADD15R,0.0880X0.0880*%
%ADD16C,0.0516*%
D10*
X001528Y002049D03*
X001528Y021341D03*
X024363Y021341D03*
X024363Y002049D03*
D11*
X022445Y020841D03*
X021445Y020841D03*
X020445Y020841D03*
X019445Y020841D03*
X018445Y020841D03*
X017445Y020841D03*
X016445Y020841D03*
X015445Y020841D03*
X014445Y020841D03*
X013445Y020841D03*
X012445Y020841D03*
X011445Y020841D03*
X010445Y020841D03*
X009445Y020841D03*
X008445Y020841D03*
X007445Y020841D03*
X006445Y020841D03*
X005445Y020841D03*
X004445Y020841D03*
X004445Y021841D03*
X005445Y021841D03*
X006445Y021841D03*
X007445Y021841D03*
X008445Y021841D03*
X009445Y021841D03*
X010445Y021841D03*
X011445Y021841D03*
X012445Y021841D03*
X013445Y021841D03*
X014445Y021841D03*
X015445Y021841D03*
X016445Y021841D03*
X017445Y021841D03*
X018445Y021841D03*
X019445Y021841D03*
X020445Y021841D03*
X021445Y021841D03*
X022445Y021841D03*
X003445Y021841D03*
D12*
X003445Y020841D03*
D13*
X003900Y019171D03*
X004900Y019171D03*
X005900Y019171D03*
X006900Y019171D03*
X007900Y019171D03*
X008900Y019171D03*
X009900Y019171D03*
X010900Y019171D03*
X011900Y019171D03*
X012900Y019171D03*
X013900Y019171D03*
X014900Y019171D03*
X015900Y019171D03*
X016900Y019171D03*
X017900Y019171D03*
X018900Y019171D03*
X019900Y019171D03*
X020900Y019171D03*
X021900Y019171D03*
X022900Y019171D03*
X023900Y019171D03*
X024900Y019171D03*
X002900Y019171D03*
X001900Y019171D03*
X000900Y019171D03*
D14*
X007811Y001557D03*
X009189Y001557D03*
X012158Y001557D03*
X013536Y001557D03*
X016489Y001557D03*
X019441Y001557D03*
X020819Y001557D03*
D15*
X018063Y001557D03*
X015111Y001557D03*
X010780Y001557D03*
X006433Y001557D03*
D16*
X015800Y003521D03*
X017400Y003521D03*
X019441Y009280D03*
M02*
