G75*
%MOIN*%
%OFA0B0*%
%FSLAX24Y24*%
%IPPOS*%
%LPD*%
%AMOC8*
5,1,8,0,0,1.08239X$1,22.5*
%
%ADD10C,0.0650*%
%ADD11R,0.0650X0.0650*%
%ADD12R,0.0870X0.0240*%
%ADD13R,0.0394X0.0433*%
%ADD14C,0.0640*%
%ADD15R,0.0250X0.0500*%
%ADD16R,0.0394X0.0118*%
%ADD17R,0.0217X0.0472*%
%ADD18R,0.0354X0.0276*%
%ADD19R,0.0276X0.0354*%
%ADD20C,0.0800*%
%ADD21R,0.0800X0.0800*%
%ADD22C,0.0100*%
%ADD23C,0.0080*%
%ADD24C,0.0400*%
%ADD25C,0.0397*%
D10*
X004445Y020841D03*
X005445Y020841D03*
X005445Y021841D03*
X004445Y021841D03*
X003445Y021841D03*
X006445Y021841D03*
X006445Y020841D03*
X007445Y020841D03*
X007445Y021841D03*
X008445Y021841D03*
X008445Y020841D03*
X009445Y020841D03*
X009445Y021841D03*
X010445Y021841D03*
X010445Y020841D03*
X011445Y020841D03*
X012445Y020841D03*
X012445Y021841D03*
X011445Y021841D03*
X013445Y021841D03*
X013445Y020841D03*
X014445Y020841D03*
X014445Y021841D03*
X015445Y021841D03*
X015445Y020841D03*
X016445Y020841D03*
X016445Y021841D03*
X017445Y021841D03*
X017445Y020841D03*
X018445Y020841D03*
X019445Y020841D03*
X019445Y021841D03*
X018445Y021841D03*
X020445Y021841D03*
X020445Y020841D03*
X021445Y020841D03*
X021445Y021841D03*
X022445Y021841D03*
X022445Y020841D03*
D11*
X003445Y020841D03*
D12*
X018675Y016441D03*
X018675Y015941D03*
X018675Y015441D03*
X018675Y014941D03*
X021325Y014941D03*
X021325Y015441D03*
X021325Y015941D03*
X021325Y016441D03*
D13*
X020700Y014276D03*
X020700Y013567D03*
X019550Y013567D03*
X019550Y014276D03*
X017750Y014367D03*
X017750Y015076D03*
X016750Y015076D03*
X016750Y014367D03*
D14*
X016900Y019171D03*
X017900Y019171D03*
X018900Y019171D03*
X019900Y019171D03*
X020900Y019171D03*
X021900Y019171D03*
X022900Y019171D03*
X023900Y019171D03*
X024900Y019171D03*
X015900Y019171D03*
X014900Y019171D03*
X013900Y019171D03*
X012900Y019171D03*
X011900Y019171D03*
X010900Y019171D03*
X009900Y019171D03*
X008900Y019171D03*
X007900Y019171D03*
X006900Y019171D03*
X005900Y019171D03*
X004900Y019171D03*
X003900Y019171D03*
X002900Y019171D03*
X001900Y019171D03*
X000900Y019171D03*
D15*
X021623Y013221D03*
X021977Y013221D03*
D16*
X009657Y007965D03*
X009657Y007768D03*
X009657Y007571D03*
X009657Y007375D03*
X009657Y007178D03*
X008043Y007178D03*
X008043Y007375D03*
X008043Y007571D03*
X008043Y007768D03*
X008043Y007965D03*
D17*
X011876Y006983D03*
X012250Y006983D03*
X012624Y006983D03*
X012624Y005960D03*
X012250Y005960D03*
X011876Y005960D03*
X015476Y006660D03*
X015850Y006660D03*
X016224Y006660D03*
X016224Y007683D03*
X015850Y007683D03*
X015476Y007683D03*
D18*
X017400Y007527D03*
X017400Y007016D03*
X012350Y008216D03*
X012350Y008727D03*
X011550Y008727D03*
X011550Y008216D03*
X007450Y006927D03*
X007450Y006416D03*
D19*
X013344Y006421D03*
X013856Y006421D03*
X014794Y009521D03*
X015306Y009521D03*
X015994Y009521D03*
X016506Y009521D03*
D20*
X016473Y001557D03*
X019426Y001557D03*
X013520Y001557D03*
X012142Y001557D03*
X009189Y001557D03*
X007811Y001557D03*
D21*
X006433Y001557D03*
X010764Y001557D03*
X015095Y001557D03*
X018048Y001557D03*
D22*
X002163Y000949D02*
X001771Y000806D01*
X014030Y000806D01*
X013756Y001081D01*
X013626Y001027D01*
X013415Y001027D01*
X013220Y001108D01*
X013071Y001257D01*
X012990Y001452D01*
X012990Y001663D01*
X013071Y001858D01*
X013220Y002007D01*
X013415Y002087D01*
X013626Y002087D01*
X013820Y002007D01*
X013969Y001858D01*
X014050Y001663D01*
X014050Y001452D01*
X013996Y001322D01*
X014276Y001041D01*
X014627Y001041D01*
X014565Y001103D01*
X014565Y002011D01*
X014641Y002087D01*
X014925Y002087D01*
X014925Y006656D01*
X014652Y006929D01*
X013613Y007401D01*
X012720Y007401D01*
X012668Y007350D01*
X012786Y007350D01*
X012862Y007273D01*
X012862Y007086D01*
X013187Y006984D01*
X013254Y006962D01*
X013254Y006962D01*
X013254Y006962D01*
X013287Y006900D01*
X013376Y006729D01*
X013536Y006729D01*
X013589Y006675D01*
X013598Y006691D01*
X013626Y006719D01*
X013660Y006738D01*
X013698Y006749D01*
X013837Y006749D01*
X013837Y006440D01*
X013875Y006440D01*
X014144Y006440D01*
X014144Y006618D01*
X014133Y006657D01*
X014114Y006691D01*
X014086Y006719D01*
X014052Y006738D01*
X014013Y006749D01*
X013875Y006749D01*
X013875Y006440D01*
X013875Y006403D01*
X014144Y006403D01*
X014144Y006225D01*
X014133Y006186D01*
X014114Y006152D01*
X014086Y006124D01*
X014052Y006105D01*
X014013Y006094D01*
X013875Y006094D01*
X013875Y006403D01*
X013837Y006403D01*
X013837Y006094D01*
X013698Y006094D01*
X013660Y006105D01*
X013626Y006124D01*
X013598Y006152D01*
X013589Y006168D01*
X013536Y006114D01*
X013152Y006114D01*
X013076Y006190D01*
X013076Y006568D01*
X013018Y006681D01*
X012862Y006730D01*
X012862Y006693D01*
X012786Y006617D01*
X012462Y006617D01*
X012437Y006642D01*
X012412Y006617D01*
X012336Y006617D01*
X012320Y006601D01*
X012070Y006351D01*
X010967Y006351D01*
X010914Y006341D01*
X010899Y006351D01*
X009980Y006351D01*
X009880Y006451D01*
X009487Y006844D01*
X009487Y006989D01*
X009420Y006989D01*
X009420Y006392D01*
X009720Y006091D01*
X011638Y006091D01*
X011638Y006250D01*
X011714Y006326D01*
X012038Y006326D01*
X012049Y006315D01*
X012050Y006316D01*
X012084Y006336D01*
X012122Y006346D01*
X012246Y006346D01*
X012246Y005964D01*
X012254Y005964D01*
X012254Y006346D01*
X012378Y006346D01*
X012416Y006336D01*
X012450Y006316D01*
X012451Y006315D01*
X012462Y006326D01*
X012786Y006326D01*
X012862Y006250D01*
X012862Y005670D01*
X012794Y005601D01*
X012794Y001969D01*
X012618Y001793D01*
X012672Y001663D01*
X012672Y001452D01*
X012591Y001257D01*
X012442Y001108D01*
X012248Y001027D01*
X012037Y001027D01*
X011842Y001108D01*
X011693Y001257D01*
X011612Y001452D01*
X011612Y001663D01*
X011693Y001858D01*
X011842Y002007D01*
X012037Y002087D01*
X012248Y002087D01*
X012378Y002033D01*
X012454Y002110D01*
X012454Y005601D01*
X012451Y005604D01*
X012450Y005603D01*
X012416Y005584D01*
X012378Y005573D01*
X012254Y005573D01*
X012254Y005956D01*
X012246Y005956D01*
X012246Y005573D01*
X012122Y005573D01*
X012084Y005584D01*
X012050Y005603D01*
X012049Y005604D01*
X012038Y005593D01*
X011714Y005593D01*
X011638Y005670D01*
X011638Y005751D01*
X009580Y005751D01*
X009480Y005851D01*
X009220Y006111D01*
X009220Y003197D01*
X010436Y002087D01*
X011218Y002087D01*
X011294Y002011D01*
X011294Y001103D01*
X011218Y001027D01*
X010310Y001027D01*
X010234Y001103D01*
X010234Y001811D01*
X008984Y002951D01*
X008980Y002951D01*
X008970Y002961D01*
X008970Y002244D01*
X009069Y002081D01*
X009084Y002087D01*
X009295Y002087D01*
X009490Y002007D01*
X009639Y001858D01*
X009719Y001663D01*
X009719Y001452D01*
X009639Y001257D01*
X009490Y001108D01*
X009295Y001027D01*
X009084Y001027D01*
X008889Y001108D01*
X008740Y001257D01*
X008659Y001452D01*
X008659Y001663D01*
X008740Y001858D01*
X008782Y001899D01*
X008665Y002091D01*
X008630Y002126D01*
X008630Y002149D01*
X008441Y002149D01*
X008511Y002248D02*
X008630Y002248D01*
X008630Y002217D02*
X008618Y002168D01*
X008630Y002149D01*
X008630Y002217D02*
X008630Y002415D01*
X008245Y001873D01*
X008261Y001858D01*
X008341Y001663D01*
X008341Y001452D01*
X008261Y001257D01*
X008112Y001108D01*
X007917Y001027D01*
X007706Y001027D01*
X007511Y001108D01*
X007362Y001257D01*
X007281Y001452D01*
X007281Y001663D01*
X007362Y001858D01*
X007511Y002007D01*
X007706Y002087D01*
X007917Y002087D01*
X007965Y002067D01*
X008380Y002650D01*
X008380Y007456D01*
X008380Y007455D01*
X008370Y007438D01*
X008370Y007065D01*
X008294Y006989D01*
X008213Y006989D01*
X008213Y006938D01*
X007757Y006482D01*
X007757Y006224D01*
X007681Y006148D01*
X007219Y006148D01*
X007143Y006224D01*
X007143Y006607D01*
X007196Y006661D01*
X007181Y006670D01*
X007153Y006698D01*
X007133Y006732D01*
X007123Y006770D01*
X007123Y006909D01*
X007431Y006909D01*
X007431Y006946D01*
X007123Y006946D01*
X007123Y007085D01*
X007133Y007123D01*
X007153Y007157D01*
X007181Y007185D01*
X007215Y007205D01*
X007253Y007215D01*
X007431Y007215D01*
X007431Y006946D01*
X007469Y006946D01*
X007469Y007215D01*
X007647Y007215D01*
X007685Y007205D01*
X007716Y007187D01*
X007716Y007438D01*
X007706Y007455D01*
X007696Y007493D01*
X007696Y007571D01*
X008043Y007571D01*
X008043Y007572D01*
X007696Y007572D01*
X007696Y007598D01*
X007417Y007598D01*
X006870Y007051D01*
X006870Y002087D01*
X006887Y002087D01*
X006963Y002011D01*
X006963Y001103D01*
X006887Y001027D01*
X005980Y001027D01*
X005903Y001103D01*
X005903Y002011D01*
X005980Y002087D01*
X006530Y002087D01*
X006530Y007192D01*
X006630Y007291D01*
X006630Y007291D01*
X007177Y007839D01*
X007177Y007839D01*
X007276Y007938D01*
X007716Y007938D01*
X007716Y008078D01*
X007792Y008154D01*
X008294Y008154D01*
X008313Y008135D01*
X008427Y008135D01*
X008620Y007941D01*
X008675Y007887D01*
X008730Y007941D01*
X008923Y008135D01*
X009387Y008135D01*
X009406Y008154D01*
X009908Y008154D01*
X009984Y008078D01*
X009984Y007746D01*
X010980Y008742D01*
X011080Y008841D01*
X011243Y008841D01*
X011243Y008919D01*
X011319Y008995D01*
X011781Y008995D01*
X011857Y008919D01*
X011857Y008897D01*
X012043Y008897D01*
X012043Y008919D01*
X012119Y008995D01*
X012581Y008995D01*
X012657Y008919D01*
X012657Y008897D01*
X014441Y008897D01*
X014658Y009114D01*
X014658Y009114D01*
X014738Y009194D01*
X014637Y009194D01*
X014598Y009205D01*
X014564Y009224D01*
X014536Y009252D01*
X014517Y009286D01*
X014506Y009325D01*
X014506Y009503D01*
X014775Y009503D01*
X014775Y009540D01*
X014506Y009540D01*
X014506Y009718D01*
X014517Y009757D01*
X014536Y009791D01*
X014564Y009819D01*
X014598Y009838D01*
X014637Y009849D01*
X014775Y009849D01*
X014775Y009540D01*
X014813Y009540D01*
X014813Y009849D01*
X014952Y009849D01*
X014990Y009838D01*
X015024Y009819D01*
X015052Y009791D01*
X015061Y009775D01*
X015114Y009829D01*
X015498Y009829D01*
X015574Y009753D01*
X015574Y009691D01*
X015726Y009691D01*
X015726Y009753D01*
X015802Y009829D01*
X015824Y009829D01*
X015824Y012407D01*
X015821Y012472D01*
X015824Y012476D01*
X015824Y012482D01*
X015871Y012528D01*
X017423Y014258D01*
X017423Y014531D01*
X017154Y014906D01*
X017077Y014906D01*
X017077Y014805D01*
X017001Y014729D01*
X016983Y014729D01*
X017005Y014723D01*
X017039Y014704D01*
X017067Y014676D01*
X017087Y014642D01*
X017097Y014603D01*
X017097Y014416D01*
X016798Y014416D01*
X016798Y014319D01*
X016798Y014001D01*
X016967Y014001D01*
X017005Y014011D01*
X017039Y014031D01*
X017067Y014059D01*
X017087Y014093D01*
X017097Y014131D01*
X017097Y014319D01*
X016798Y014319D01*
X016702Y014319D01*
X016702Y014001D01*
X016533Y014001D01*
X016495Y014011D01*
X016461Y014031D01*
X016433Y014059D01*
X016413Y014093D01*
X016403Y014131D01*
X016403Y014319D01*
X016702Y014319D01*
X016702Y014416D01*
X016403Y014416D01*
X016403Y014603D01*
X016413Y014642D01*
X016433Y014676D01*
X016461Y014704D01*
X016495Y014723D01*
X016517Y014729D01*
X016499Y014729D01*
X016423Y014805D01*
X016423Y014906D01*
X013475Y014906D01*
X011330Y017051D01*
X011230Y017151D01*
X011230Y018865D01*
X011155Y018790D01*
X010990Y018721D01*
X010810Y018721D01*
X010645Y018790D01*
X010519Y018917D01*
X010450Y019082D01*
X010450Y019261D01*
X010519Y019426D01*
X010645Y019553D01*
X010810Y019621D01*
X010990Y019621D01*
X011155Y019553D01*
X011230Y019478D01*
X011230Y020437D01*
X011188Y020455D01*
X011060Y020583D01*
X010990Y020750D01*
X010990Y020931D01*
X011060Y021099D01*
X011188Y021227D01*
X011355Y021296D01*
X011536Y021296D01*
X011703Y021227D01*
X011831Y021099D01*
X011900Y020931D01*
X011900Y020750D01*
X011831Y020583D01*
X011703Y020455D01*
X011570Y020400D01*
X011570Y019478D01*
X011645Y019553D01*
X011730Y019588D01*
X011730Y020366D01*
X012027Y020663D01*
X011990Y020750D01*
X011990Y020931D01*
X012060Y021099D01*
X012188Y021227D01*
X012355Y021296D01*
X012536Y021296D01*
X012703Y021227D01*
X012831Y021099D01*
X012900Y020931D01*
X012900Y020750D01*
X012831Y020583D01*
X012703Y020455D01*
X012536Y020386D01*
X012355Y020386D01*
X012267Y020422D01*
X012070Y020225D01*
X012070Y019588D01*
X012155Y019553D01*
X012281Y019426D01*
X012350Y019261D01*
X012350Y019082D01*
X012281Y018917D01*
X012155Y018790D01*
X011990Y018721D01*
X011810Y018721D01*
X011645Y018790D01*
X011570Y018865D01*
X011570Y017292D01*
X013616Y015246D01*
X016423Y015246D01*
X016423Y015346D01*
X016499Y015422D01*
X017001Y015422D01*
X017077Y015346D01*
X017077Y015246D01*
X017171Y015246D01*
X017180Y015255D01*
X017180Y016342D01*
X017280Y016441D01*
X017449Y016611D01*
X018110Y016611D01*
X018110Y016615D01*
X018186Y016691D01*
X019164Y016691D01*
X019240Y016615D01*
X019240Y016267D01*
X019165Y016191D01*
X019720Y016191D01*
X019820Y016092D01*
X020766Y015146D01*
X020770Y015153D01*
X020798Y015181D01*
X020815Y015191D01*
X020798Y015201D01*
X020770Y015229D01*
X020750Y015263D01*
X020740Y015301D01*
X020740Y015431D01*
X021315Y015431D01*
X021315Y015451D01*
X021315Y015711D01*
X021315Y015931D01*
X020740Y015931D01*
X020740Y015801D01*
X020750Y015763D01*
X020770Y015729D01*
X020798Y015701D01*
X020815Y015691D01*
X020798Y015681D01*
X020770Y015653D01*
X020750Y015619D01*
X020740Y015581D01*
X020740Y015451D01*
X021315Y015451D01*
X021335Y015451D01*
X021335Y015931D01*
X021315Y015931D01*
X021315Y015951D01*
X020740Y015951D01*
X020740Y016081D01*
X020750Y016119D01*
X020770Y016153D01*
X020798Y016181D01*
X020815Y016191D01*
X020798Y016201D01*
X020770Y016229D01*
X020750Y016263D01*
X020740Y016301D01*
X020740Y016431D01*
X021315Y016431D01*
X021315Y016451D01*
X020740Y016451D01*
X020740Y016581D01*
X020750Y016619D01*
X020770Y016653D01*
X020798Y016681D01*
X020832Y016701D01*
X020871Y016711D01*
X021315Y016711D01*
X021315Y016451D01*
X021335Y016451D01*
X021335Y016711D01*
X021780Y016711D01*
X021818Y016701D01*
X021852Y016681D01*
X021880Y016653D01*
X021900Y016619D01*
X021910Y016581D01*
X021910Y016451D01*
X021335Y016451D01*
X021335Y016431D01*
X021335Y015951D01*
X021315Y015951D01*
X021315Y016211D01*
X021315Y016431D01*
X021335Y016431D01*
X021910Y016431D01*
X021910Y016301D01*
X021900Y016263D01*
X021880Y016229D01*
X021852Y016201D01*
X021835Y016191D01*
X021852Y016181D01*
X021880Y016153D01*
X021900Y016119D01*
X021910Y016081D01*
X021910Y015951D01*
X021335Y015951D01*
X021335Y015931D01*
X021910Y015931D01*
X021910Y015801D01*
X021900Y015763D01*
X021880Y015729D01*
X021852Y015701D01*
X021835Y015691D01*
X021852Y015681D01*
X021880Y015653D01*
X021900Y015619D01*
X021910Y015581D01*
X021910Y015451D01*
X021335Y015451D01*
X021335Y015431D01*
X021335Y014951D01*
X021315Y014951D01*
X021315Y015211D01*
X021315Y015431D01*
X021335Y015431D01*
X021910Y015431D01*
X021910Y015301D01*
X021900Y015263D01*
X021880Y015229D01*
X021852Y015201D01*
X021835Y015191D01*
X021852Y015181D01*
X021880Y015153D01*
X021900Y015119D01*
X021910Y015081D01*
X021910Y014951D01*
X021335Y014951D01*
X021335Y014931D01*
X021335Y014671D01*
X021780Y014671D01*
X021818Y014681D01*
X021852Y014701D01*
X021880Y014729D01*
X021900Y014763D01*
X021910Y014801D01*
X021910Y014931D01*
X021335Y014931D01*
X021315Y014931D01*
X021315Y014671D01*
X020871Y014671D01*
X020870Y014671D01*
X020870Y014622D01*
X020951Y014622D01*
X021027Y014546D01*
X021027Y014446D01*
X021466Y014446D01*
X021670Y014241D01*
X021770Y014142D01*
X021770Y013601D01*
X021777Y013601D01*
X021794Y013611D01*
X021832Y013621D01*
X021965Y013621D01*
X021965Y013234D01*
X021990Y013234D01*
X022252Y013234D01*
X022252Y013491D01*
X022242Y013529D01*
X022222Y013564D01*
X022194Y013592D01*
X022160Y013611D01*
X022122Y013621D01*
X021990Y013621D01*
X021990Y013234D01*
X021990Y013209D01*
X022252Y013209D01*
X022252Y012952D01*
X022242Y012914D01*
X022222Y012879D01*
X022194Y012851D01*
X022160Y012832D01*
X022122Y012821D01*
X021990Y012821D01*
X021990Y013209D01*
X021965Y013209D01*
X021965Y012821D01*
X021832Y012821D01*
X021794Y012832D01*
X021777Y012841D01*
X021444Y012841D01*
X021368Y012918D01*
X021368Y013525D01*
X021430Y013588D01*
X021430Y014001D01*
X021325Y014106D01*
X021027Y014106D01*
X021027Y014005D01*
X020951Y013929D01*
X020449Y013929D01*
X020373Y014005D01*
X020373Y014546D01*
X020449Y014622D01*
X020530Y014622D01*
X020530Y014901D01*
X019867Y015564D01*
X019878Y015537D01*
X019878Y015406D01*
X019828Y015285D01*
X019736Y015193D01*
X019720Y015186D01*
X019720Y014622D01*
X019801Y014622D01*
X019877Y014546D01*
X019877Y014005D01*
X019801Y013929D01*
X019299Y013929D01*
X019223Y014005D01*
X019223Y014546D01*
X019299Y014622D01*
X019380Y014622D01*
X019380Y015186D01*
X019364Y015193D01*
X019272Y015285D01*
X019269Y015291D01*
X019240Y015290D01*
X019240Y015267D01*
X019164Y015191D01*
X018186Y015191D01*
X018110Y015267D01*
X018110Y015615D01*
X018186Y015691D01*
X019164Y015691D01*
X019240Y015767D01*
X019240Y015851D01*
X019580Y015851D01*
X019642Y015789D01*
X019615Y015800D01*
X019485Y015800D01*
X019364Y015750D01*
X019272Y015658D01*
X019261Y015631D01*
X019225Y015630D01*
X019164Y015691D01*
X018186Y015691D01*
X018110Y015767D01*
X018110Y016115D01*
X018186Y016191D01*
X018929Y016191D01*
X018929Y016191D01*
X018186Y016191D01*
X018110Y016267D01*
X018110Y016271D01*
X017886Y016271D01*
X017936Y016250D01*
X018028Y016158D01*
X018078Y016037D01*
X018078Y015906D01*
X018028Y015785D01*
X017936Y015693D01*
X017920Y015686D01*
X017920Y015422D01*
X018001Y015422D01*
X018077Y015346D01*
X018077Y015111D01*
X018110Y015111D01*
X018110Y015115D01*
X018186Y015191D01*
X019164Y015191D01*
X019240Y015115D01*
X019240Y014767D01*
X019164Y014691D01*
X018186Y014691D01*
X018110Y014767D01*
X018110Y014771D01*
X018042Y014771D01*
X018001Y014729D01*
X017699Y014729D01*
X017711Y014714D01*
X018001Y014714D01*
X018077Y014638D01*
X018077Y014281D01*
X018620Y013737D01*
X019223Y013737D01*
X019223Y013838D01*
X019299Y013914D01*
X019801Y013914D01*
X019877Y013838D01*
X019877Y013737D01*
X020373Y013737D01*
X020373Y013838D01*
X020449Y013914D01*
X020951Y013914D01*
X021027Y013838D01*
X021027Y013297D01*
X020951Y013221D01*
X020449Y013221D01*
X020373Y013297D01*
X020373Y013397D01*
X019877Y013397D01*
X019877Y013297D01*
X019801Y013221D01*
X019299Y013221D01*
X019223Y013297D01*
X019223Y013397D01*
X018480Y013397D01*
X017856Y014021D01*
X017667Y014021D01*
X016164Y012346D01*
X016164Y009829D01*
X016186Y009829D01*
X016239Y009775D01*
X016248Y009791D01*
X016276Y009819D01*
X016310Y009838D01*
X016348Y009849D01*
X016487Y009849D01*
X016487Y009540D01*
X016525Y009540D01*
X016794Y009540D01*
X016794Y009718D01*
X016783Y009757D01*
X016764Y009791D01*
X016736Y009819D01*
X016702Y009838D01*
X016663Y009849D01*
X016525Y009849D01*
X016525Y009540D01*
X016525Y009503D01*
X016794Y009503D01*
X016794Y009325D01*
X016783Y009286D01*
X016764Y009252D01*
X016736Y009224D01*
X016702Y009205D01*
X016663Y009194D01*
X016525Y009194D01*
X016525Y009503D01*
X016487Y009503D01*
X016487Y009194D01*
X016348Y009194D01*
X016310Y009205D01*
X016276Y009224D01*
X016248Y009252D01*
X016239Y009268D01*
X016186Y009214D01*
X015802Y009214D01*
X015726Y009290D01*
X015726Y009351D01*
X015574Y009351D01*
X015574Y009290D01*
X015498Y009214D01*
X015239Y009214D01*
X015238Y009214D01*
X015698Y009214D01*
X015798Y009114D01*
X015819Y009093D01*
X015835Y009100D01*
X015965Y009100D01*
X016086Y009050D01*
X016178Y008958D01*
X016228Y008837D01*
X016228Y008706D01*
X016178Y008585D01*
X016086Y008493D01*
X015986Y008451D01*
X017775Y008451D01*
X018330Y007896D01*
X018330Y007747D01*
X018320Y007737D01*
X018320Y006521D01*
X018331Y006504D01*
X018320Y006453D01*
X018320Y006401D01*
X018305Y006387D01*
X018301Y006367D01*
X018257Y006338D01*
X018220Y006301D01*
X018200Y006301D01*
X016643Y005301D01*
X025606Y005301D01*
X025606Y005203D02*
X016643Y005203D01*
X016643Y005301D02*
X016643Y002061D01*
X016773Y002007D01*
X016922Y001858D01*
X017003Y001663D01*
X017003Y001452D01*
X016922Y001257D01*
X016773Y001108D01*
X016578Y001027D01*
X016367Y001027D01*
X016173Y001108D01*
X016120Y001161D01*
X016120Y001001D01*
X015925Y000806D01*
X024119Y000806D01*
X023727Y000949D01*
X023389Y001233D01*
X023169Y001615D01*
X023092Y002049D01*
X023169Y002484D01*
X023389Y002866D01*
X023727Y003150D01*
X024142Y003301D01*
X024583Y003301D01*
X024998Y003150D01*
X025336Y002866D01*
X025556Y002484D01*
X025622Y002112D01*
X025626Y002158D01*
X025612Y002290D01*
X025606Y002297D01*
X025606Y002341D01*
X025598Y002384D01*
X025606Y002395D01*
X025606Y021185D01*
X025556Y020906D01*
X025336Y020524D01*
X024998Y020241D01*
X024583Y020090D01*
X024142Y020090D01*
X023727Y020241D01*
X023389Y020524D01*
X023169Y020906D01*
X023092Y021341D01*
X023169Y021775D01*
X023389Y022157D01*
X023727Y022441D01*
X024119Y022584D01*
X001771Y022584D01*
X002163Y022441D01*
X002501Y022157D01*
X002722Y021775D01*
X002798Y021341D01*
X002722Y020906D01*
X002501Y020524D01*
X002163Y020241D01*
X001749Y020090D01*
X001307Y020090D01*
X000893Y020241D01*
X000555Y020524D01*
X000334Y020906D01*
X000285Y021185D01*
X000285Y015435D01*
X000290Y015385D01*
X000329Y015292D01*
X000400Y015220D01*
X000493Y015182D01*
X000544Y015177D01*
X001830Y015177D01*
X002024Y015096D01*
X002024Y015096D01*
X002173Y014947D01*
X002173Y014947D01*
X002254Y014753D01*
X002254Y008637D01*
X002173Y008443D01*
X002173Y008443D01*
X002024Y008294D01*
X002024Y008294D01*
X001830Y008214D01*
X000544Y008214D01*
X000493Y008209D01*
X000400Y008170D01*
X000329Y008099D01*
X000290Y008005D01*
X000285Y007955D01*
X000285Y002206D01*
X000334Y002484D01*
X000555Y002866D01*
X000893Y003150D01*
X001307Y003301D01*
X001749Y003301D01*
X002163Y003150D01*
X002501Y002866D01*
X002722Y002484D01*
X002798Y002049D01*
X002722Y001615D01*
X002501Y001233D01*
X002163Y000949D01*
X002184Y000967D02*
X013870Y000967D01*
X013968Y000868D02*
X001941Y000868D01*
X002302Y001065D02*
X005941Y001065D01*
X005903Y001164D02*
X002419Y001164D01*
X002518Y001262D02*
X005903Y001262D01*
X005903Y001361D02*
X002575Y001361D01*
X002632Y001459D02*
X005903Y001459D01*
X005903Y001558D02*
X002689Y001558D01*
X002729Y001656D02*
X005903Y001656D01*
X005903Y001755D02*
X002747Y001755D01*
X002764Y001853D02*
X005903Y001853D01*
X005903Y001952D02*
X002781Y001952D01*
X002798Y002050D02*
X005943Y002050D01*
X006530Y002149D02*
X002781Y002149D01*
X002764Y002248D02*
X006530Y002248D01*
X006530Y002346D02*
X002746Y002346D01*
X002729Y002445D02*
X006530Y002445D01*
X006530Y002543D02*
X002688Y002543D01*
X002631Y002642D02*
X006530Y002642D01*
X006530Y002740D02*
X002574Y002740D01*
X002517Y002839D02*
X006530Y002839D01*
X006530Y002937D02*
X002417Y002937D01*
X002299Y003036D02*
X006530Y003036D01*
X006530Y003134D02*
X002182Y003134D01*
X001936Y003233D02*
X006530Y003233D01*
X006530Y003331D02*
X000285Y003331D01*
X000285Y003233D02*
X001120Y003233D01*
X000874Y003134D02*
X000285Y003134D01*
X000285Y003036D02*
X000757Y003036D01*
X000639Y002937D02*
X000285Y002937D01*
X000285Y002839D02*
X000539Y002839D01*
X000482Y002740D02*
X000285Y002740D01*
X000285Y002642D02*
X000425Y002642D01*
X000368Y002543D02*
X000285Y002543D01*
X000285Y002445D02*
X000327Y002445D01*
X000310Y002346D02*
X000285Y002346D01*
X000285Y002248D02*
X000292Y002248D01*
X000285Y003430D02*
X006530Y003430D01*
X006530Y003528D02*
X000285Y003528D01*
X000285Y003627D02*
X006530Y003627D01*
X006530Y003725D02*
X000285Y003725D01*
X000285Y003824D02*
X006530Y003824D01*
X006530Y003922D02*
X000285Y003922D01*
X000285Y004021D02*
X006530Y004021D01*
X006530Y004119D02*
X000285Y004119D01*
X000285Y004218D02*
X006530Y004218D01*
X006530Y004316D02*
X000285Y004316D01*
X000285Y004415D02*
X006530Y004415D01*
X006530Y004513D02*
X000285Y004513D01*
X000285Y004612D02*
X006530Y004612D01*
X006530Y004710D02*
X000285Y004710D01*
X000285Y004809D02*
X006530Y004809D01*
X006530Y004907D02*
X000285Y004907D01*
X000285Y005006D02*
X006530Y005006D01*
X006530Y005104D02*
X000285Y005104D01*
X000285Y005203D02*
X006530Y005203D01*
X006530Y005301D02*
X000285Y005301D01*
X000285Y005400D02*
X006530Y005400D01*
X006530Y005498D02*
X000285Y005498D01*
X000285Y005597D02*
X006530Y005597D01*
X006530Y005695D02*
X000285Y005695D01*
X000285Y005794D02*
X006530Y005794D01*
X006530Y005892D02*
X000285Y005892D01*
X000285Y005991D02*
X006530Y005991D01*
X006530Y006089D02*
X000285Y006089D01*
X000285Y006188D02*
X006530Y006188D01*
X006530Y006286D02*
X000285Y006286D01*
X000285Y006385D02*
X006530Y006385D01*
X006530Y006483D02*
X000285Y006483D01*
X000285Y006582D02*
X006530Y006582D01*
X006530Y006680D02*
X000285Y006680D01*
X000285Y006779D02*
X006530Y006779D01*
X006530Y006877D02*
X000285Y006877D01*
X000285Y006976D02*
X006530Y006976D01*
X006530Y007074D02*
X000285Y007074D01*
X000285Y007173D02*
X006530Y007173D01*
X006609Y007271D02*
X000285Y007271D01*
X000285Y007370D02*
X006708Y007370D01*
X006806Y007468D02*
X000285Y007468D01*
X000285Y007567D02*
X006905Y007567D01*
X007003Y007665D02*
X000285Y007665D01*
X000285Y007764D02*
X007102Y007764D01*
X007200Y007862D02*
X000285Y007862D01*
X000286Y007961D02*
X007716Y007961D01*
X007716Y008059D02*
X000312Y008059D01*
X000387Y008158D02*
X010396Y008158D01*
X010494Y008256D02*
X001932Y008256D01*
X002085Y008355D02*
X010593Y008355D01*
X010691Y008453D02*
X002177Y008453D01*
X002218Y008552D02*
X010790Y008552D01*
X010888Y008650D02*
X002254Y008650D01*
X002254Y008749D02*
X010987Y008749D01*
X011243Y008847D02*
X002254Y008847D01*
X002254Y008946D02*
X011269Y008946D01*
X011277Y008501D02*
X011296Y008482D01*
X011281Y008473D01*
X011253Y008445D01*
X011233Y008411D01*
X011223Y008373D01*
X011223Y008234D01*
X011531Y008234D01*
X011531Y008197D01*
X011223Y008197D01*
X011223Y008058D01*
X011233Y008020D01*
X011253Y007986D01*
X011281Y007958D01*
X011315Y007938D01*
X011353Y007928D01*
X011531Y007928D01*
X011531Y008197D01*
X011569Y008197D01*
X011569Y008234D01*
X011877Y008234D01*
X011877Y008373D01*
X011867Y008411D01*
X011847Y008445D01*
X011819Y008473D01*
X011804Y008482D01*
X011857Y008536D01*
X011857Y008557D01*
X012043Y008557D01*
X012043Y008536D01*
X012096Y008482D01*
X012081Y008473D01*
X012053Y008445D01*
X012033Y008411D01*
X012023Y008373D01*
X012023Y008234D01*
X012331Y008234D01*
X012331Y008197D01*
X012023Y008197D01*
X012023Y008058D01*
X012033Y008020D01*
X012053Y007986D01*
X012081Y007958D01*
X012115Y007938D01*
X012153Y007928D01*
X012331Y007928D01*
X012331Y008197D01*
X012369Y008197D01*
X012369Y008234D01*
X012677Y008234D01*
X012677Y008373D01*
X012667Y008411D01*
X012647Y008445D01*
X012619Y008473D01*
X012604Y008482D01*
X012657Y008536D01*
X012657Y008557D01*
X014582Y008557D01*
X014898Y008874D01*
X015558Y008874D01*
X015578Y008853D01*
X015572Y008837D01*
X015572Y008706D01*
X015622Y008585D01*
X015714Y008493D01*
X015814Y008451D01*
X015601Y008451D01*
X015496Y008346D01*
X015496Y008332D01*
X015431Y008267D01*
X015412Y008268D01*
X015409Y008266D01*
X015406Y008266D01*
X015382Y008241D01*
X012830Y008241D01*
X012677Y008089D01*
X012677Y008197D01*
X012369Y008197D01*
X012369Y007928D01*
X012516Y007928D01*
X012330Y007741D01*
X011930Y007741D01*
X011830Y007642D01*
X011680Y007492D01*
X011680Y007420D01*
X011555Y007545D01*
X010367Y007545D01*
X010315Y007555D01*
X010299Y007545D01*
X010264Y007545D01*
X011220Y008501D01*
X011277Y008501D01*
X011260Y008453D02*
X011172Y008453D01*
X011223Y008355D02*
X011073Y008355D01*
X010975Y008256D02*
X011223Y008256D01*
X011223Y008158D02*
X010876Y008158D01*
X010778Y008059D02*
X011223Y008059D01*
X011278Y007961D02*
X010679Y007961D01*
X010581Y007862D02*
X012450Y007862D01*
X012369Y007961D02*
X012331Y007961D01*
X012331Y008059D02*
X012369Y008059D01*
X012369Y008158D02*
X012331Y008158D01*
X012023Y008158D02*
X011877Y008158D01*
X011877Y008197D02*
X011569Y008197D01*
X011569Y007928D01*
X011747Y007928D01*
X011785Y007938D01*
X011819Y007958D01*
X011847Y007986D01*
X011867Y008020D01*
X011877Y008058D01*
X011877Y008197D01*
X011877Y008256D02*
X012023Y008256D01*
X012023Y008355D02*
X011877Y008355D01*
X011840Y008453D02*
X012060Y008453D01*
X012043Y008552D02*
X011857Y008552D01*
X011831Y008946D02*
X012069Y008946D01*
X012631Y008946D02*
X014490Y008946D01*
X014588Y009044D02*
X002254Y009044D01*
X002254Y009143D02*
X014687Y009143D01*
X014547Y009241D02*
X002254Y009241D01*
X002254Y009340D02*
X014506Y009340D01*
X014506Y009438D02*
X002254Y009438D01*
X002254Y009537D02*
X014775Y009537D01*
X014775Y009635D02*
X014813Y009635D01*
X014813Y009734D02*
X014775Y009734D01*
X014775Y009832D02*
X014813Y009832D01*
X015001Y009832D02*
X015824Y009832D01*
X015824Y009931D02*
X002254Y009931D01*
X002254Y010029D02*
X015824Y010029D01*
X015824Y010128D02*
X002254Y010128D01*
X002254Y010226D02*
X015824Y010226D01*
X015824Y010325D02*
X002254Y010325D01*
X002254Y010423D02*
X015824Y010423D01*
X015824Y010522D02*
X002254Y010522D01*
X002254Y010620D02*
X015824Y010620D01*
X015824Y010719D02*
X002254Y010719D01*
X002254Y010817D02*
X015824Y010817D01*
X015824Y010916D02*
X002254Y010916D01*
X002254Y011014D02*
X015824Y011014D01*
X015824Y011113D02*
X002254Y011113D01*
X002254Y011211D02*
X015824Y011211D01*
X015824Y011310D02*
X002254Y011310D01*
X002254Y011408D02*
X015824Y011408D01*
X015824Y011507D02*
X002254Y011507D01*
X002254Y011605D02*
X015824Y011605D01*
X015824Y011704D02*
X002254Y011704D01*
X002254Y011802D02*
X015824Y011802D01*
X015824Y011901D02*
X002254Y011901D01*
X002254Y011999D02*
X015824Y011999D01*
X015824Y012098D02*
X011326Y012098D01*
X011315Y012093D02*
X011436Y012143D01*
X011528Y012235D01*
X011578Y012356D01*
X011578Y012487D01*
X011528Y012608D01*
X011436Y012700D01*
X011407Y012712D01*
X011405Y012720D01*
X011360Y012752D01*
X011320Y012791D01*
X011304Y012791D01*
X002839Y018721D01*
X002990Y018721D01*
X003155Y018790D01*
X003281Y018917D01*
X003350Y019082D01*
X003350Y019261D01*
X003281Y019426D01*
X003155Y019553D01*
X003038Y019601D01*
X003762Y019601D01*
X003645Y019553D01*
X003519Y019426D01*
X003450Y019261D01*
X003450Y019082D01*
X003519Y018917D01*
X003645Y018790D01*
X003810Y018721D01*
X003990Y018721D01*
X004155Y018790D01*
X004281Y018917D01*
X004350Y019082D01*
X004350Y019261D01*
X004332Y019304D01*
X005310Y020101D01*
X005466Y020101D01*
X004986Y019621D01*
X004810Y019621D01*
X004645Y019553D01*
X004519Y019426D01*
X004450Y019261D01*
X004450Y019082D01*
X004519Y018917D01*
X004645Y018790D01*
X004810Y018721D01*
X004990Y018721D01*
X005155Y018790D01*
X005281Y018917D01*
X005350Y019082D01*
X005350Y019261D01*
X005281Y019426D01*
X005276Y019431D01*
X006267Y020422D01*
X006355Y020386D01*
X006536Y020386D01*
X006703Y020455D01*
X006831Y020583D01*
X006900Y020750D01*
X006900Y020931D01*
X006831Y021099D01*
X006728Y021201D01*
X006961Y021201D01*
X006965Y021198D01*
X007031Y021201D01*
X007096Y021201D01*
X007100Y021205D01*
X007106Y021206D01*
X007150Y021255D01*
X007196Y021301D01*
X007196Y021307D01*
X007291Y021412D01*
X007355Y021386D01*
X007536Y021386D01*
X007703Y021455D01*
X008188Y021455D01*
X008355Y021386D01*
X008536Y021386D01*
X008624Y021422D01*
X008780Y021266D01*
X008780Y021150D01*
X008703Y021227D01*
X008536Y021296D01*
X008355Y021296D01*
X008188Y021227D01*
X008060Y021099D01*
X007990Y020931D01*
X007990Y020750D01*
X008027Y020663D01*
X006986Y019621D01*
X006810Y019621D01*
X006645Y019553D01*
X006519Y019426D01*
X006450Y019261D01*
X006450Y019082D01*
X006519Y018917D01*
X006645Y018790D01*
X006810Y018721D01*
X006990Y018721D01*
X007155Y018790D01*
X007281Y018917D01*
X007350Y019082D01*
X007350Y019261D01*
X007281Y019426D01*
X007276Y019431D01*
X008267Y020422D01*
X008355Y020386D01*
X008424Y020386D01*
X007830Y019791D01*
X007730Y019692D01*
X007730Y019588D01*
X007645Y019553D01*
X007519Y019426D01*
X007450Y019261D01*
X007450Y019082D01*
X007519Y018917D01*
X007645Y018790D01*
X007810Y018721D01*
X007990Y018721D01*
X008155Y018790D01*
X008281Y018917D01*
X008350Y019082D01*
X008350Y019261D01*
X008281Y019426D01*
X008155Y019553D01*
X008096Y019577D01*
X008684Y020165D01*
X008676Y020157D01*
X008677Y020151D01*
X008673Y020147D01*
X008681Y020081D01*
X008708Y019579D01*
X008645Y019553D01*
X008519Y019426D01*
X008450Y019261D01*
X008450Y019082D01*
X008519Y018917D01*
X008645Y018790D01*
X008810Y018721D01*
X008990Y018721D01*
X009155Y018790D01*
X009281Y018917D01*
X009350Y019082D01*
X009350Y019261D01*
X009281Y019426D01*
X009155Y019553D01*
X009047Y019598D01*
X009023Y020040D01*
X009313Y020403D01*
X009355Y020386D01*
X009536Y020386D01*
X009703Y020455D01*
X009831Y020583D01*
X009900Y020750D01*
X009900Y020931D01*
X009831Y021099D01*
X009703Y021227D01*
X009536Y021296D01*
X009355Y021296D01*
X009188Y021227D01*
X009120Y021159D01*
X009120Y021406D01*
X008864Y021663D01*
X008900Y021750D01*
X008900Y021931D01*
X008831Y022099D01*
X008703Y022227D01*
X008536Y022296D01*
X008355Y022296D01*
X008188Y022227D01*
X008060Y022099D01*
X007990Y021931D01*
X007990Y021750D01*
X008060Y021583D01*
X008188Y021455D01*
X008089Y021554D02*
X007802Y021554D01*
X007831Y021583D02*
X007900Y021750D01*
X007900Y021931D01*
X007831Y022099D01*
X007703Y022227D01*
X007536Y022296D01*
X007355Y022296D01*
X007188Y022227D01*
X007060Y022099D01*
X006990Y021931D01*
X006990Y021750D01*
X007037Y021639D01*
X006950Y021541D01*
X006789Y021541D01*
X006831Y021583D01*
X006900Y021750D01*
X006900Y021931D01*
X006831Y022099D01*
X006703Y022227D01*
X006536Y022296D01*
X006355Y022296D01*
X006188Y022227D01*
X006060Y022099D01*
X005990Y021931D01*
X005990Y021750D01*
X006060Y021583D01*
X006164Y021479D01*
X005887Y021241D01*
X005880Y021241D01*
X005834Y021196D01*
X005786Y021155D01*
X005785Y021147D01*
X005784Y021146D01*
X005703Y021227D01*
X005536Y021296D01*
X005355Y021296D01*
X005188Y021227D01*
X005060Y021099D01*
X004990Y020931D01*
X004990Y020750D01*
X005006Y020713D01*
X004802Y020554D01*
X004831Y020583D01*
X004900Y020750D01*
X004900Y020931D01*
X004831Y021099D01*
X004703Y021227D01*
X004536Y021296D01*
X004355Y021296D01*
X004188Y021227D01*
X004060Y021099D01*
X003990Y020931D01*
X003990Y020750D01*
X004027Y020663D01*
X003900Y020536D01*
X003900Y021220D01*
X003824Y021296D01*
X003066Y021296D01*
X002990Y021220D01*
X002990Y020462D01*
X003066Y020386D01*
X003750Y020386D01*
X003606Y020241D01*
X002266Y020241D01*
X002212Y020252D01*
X002198Y020241D01*
X002180Y020241D01*
X002141Y020203D01*
X001168Y019540D01*
X001155Y019553D01*
X000990Y019621D01*
X000810Y019621D01*
X000645Y019553D01*
X000519Y019426D01*
X000450Y019261D01*
X000450Y019082D01*
X000519Y018917D01*
X000645Y018790D01*
X000810Y018721D01*
X000990Y018721D01*
X001155Y018790D01*
X001157Y018792D01*
X005303Y015982D01*
X010322Y012397D01*
X010322Y012306D01*
X010372Y012185D01*
X010464Y012093D01*
X010585Y012043D01*
X010715Y012043D01*
X010836Y012093D01*
X010928Y012185D01*
X010960Y012263D01*
X010972Y012235D01*
X011064Y012143D01*
X011185Y012093D01*
X011315Y012093D01*
X011174Y012098D02*
X010840Y012098D01*
X010933Y012196D02*
X011011Y012196D01*
X011489Y012196D02*
X015824Y012196D01*
X015824Y012295D02*
X011553Y012295D01*
X011578Y012393D02*
X015824Y012393D01*
X015834Y012492D02*
X011576Y012492D01*
X011536Y012590D02*
X015926Y012590D01*
X016015Y012689D02*
X011447Y012689D01*
X011325Y012787D02*
X016103Y012787D01*
X016191Y012886D02*
X011169Y012886D01*
X011029Y012984D02*
X016280Y012984D01*
X016368Y013083D02*
X010888Y013083D01*
X010748Y013181D02*
X016457Y013181D01*
X016545Y013280D02*
X010607Y013280D01*
X010466Y013378D02*
X016634Y013378D01*
X016722Y013477D02*
X010326Y013477D01*
X010185Y013575D02*
X016810Y013575D01*
X016899Y013674D02*
X010045Y013674D01*
X009904Y013772D02*
X016987Y013772D01*
X017076Y013871D02*
X009763Y013871D01*
X009623Y013969D02*
X017164Y013969D01*
X017253Y014068D02*
X017072Y014068D01*
X017097Y014166D02*
X017341Y014166D01*
X017423Y014265D02*
X017097Y014265D01*
X017097Y014462D02*
X017423Y014462D01*
X017423Y014363D02*
X016798Y014363D01*
X016702Y014363D02*
X009060Y014363D01*
X008920Y014462D02*
X016403Y014462D01*
X016403Y014560D02*
X008779Y014560D01*
X008638Y014659D02*
X016423Y014659D01*
X016472Y014757D02*
X008498Y014757D01*
X008357Y014856D02*
X016423Y014856D01*
X016423Y015250D02*
X013612Y015250D01*
X013514Y015348D02*
X016425Y015348D01*
X017075Y015348D02*
X017180Y015348D01*
X017180Y015447D02*
X013415Y015447D01*
X013317Y015545D02*
X017180Y015545D01*
X017180Y015644D02*
X013218Y015644D01*
X013120Y015742D02*
X017180Y015742D01*
X017180Y015841D02*
X013021Y015841D01*
X012923Y015939D02*
X017180Y015939D01*
X017180Y016038D02*
X012824Y016038D01*
X012726Y016136D02*
X017180Y016136D01*
X017180Y016235D02*
X012627Y016235D01*
X012529Y016333D02*
X017180Y016333D01*
X017270Y016432D02*
X012430Y016432D01*
X012332Y016530D02*
X017368Y016530D01*
X017951Y016235D02*
X018143Y016235D01*
X018132Y016136D02*
X018037Y016136D01*
X018078Y016038D02*
X018110Y016038D01*
X018110Y015939D02*
X018078Y015939D01*
X018051Y015841D02*
X018110Y015841D01*
X018135Y015742D02*
X017985Y015742D01*
X017920Y015644D02*
X018139Y015644D01*
X018110Y015545D02*
X017920Y015545D01*
X017920Y015447D02*
X018110Y015447D01*
X018110Y015348D02*
X018075Y015348D01*
X018077Y015250D02*
X018128Y015250D01*
X018147Y015151D02*
X018077Y015151D01*
X018120Y014757D02*
X018028Y014757D01*
X018056Y014659D02*
X019380Y014659D01*
X019380Y014757D02*
X019230Y014757D01*
X019240Y014856D02*
X019380Y014856D01*
X019380Y014954D02*
X019240Y014954D01*
X019240Y015053D02*
X019380Y015053D01*
X019380Y015151D02*
X019204Y015151D01*
X019223Y015250D02*
X019308Y015250D01*
X019720Y015151D02*
X020280Y015151D01*
X020182Y015250D02*
X019792Y015250D01*
X019854Y015348D02*
X020083Y015348D01*
X019985Y015447D02*
X019878Y015447D01*
X019875Y015545D02*
X019886Y015545D01*
X020170Y015742D02*
X020763Y015742D01*
X020765Y015644D02*
X020268Y015644D01*
X020367Y015545D02*
X020740Y015545D01*
X020740Y015348D02*
X020564Y015348D01*
X020662Y015250D02*
X020758Y015250D01*
X020761Y015151D02*
X020769Y015151D01*
X020477Y014954D02*
X019720Y014954D01*
X019720Y014856D02*
X020530Y014856D01*
X020530Y014757D02*
X019720Y014757D01*
X019720Y014659D02*
X020530Y014659D01*
X020387Y014560D02*
X019863Y014560D01*
X019877Y014462D02*
X020373Y014462D01*
X020373Y014363D02*
X019877Y014363D01*
X019877Y014265D02*
X020373Y014265D01*
X020373Y014166D02*
X019877Y014166D01*
X019877Y014068D02*
X020373Y014068D01*
X020410Y013969D02*
X019840Y013969D01*
X019844Y013871D02*
X020406Y013871D01*
X020373Y013772D02*
X019877Y013772D01*
X019877Y013378D02*
X020373Y013378D01*
X020390Y013280D02*
X019860Y013280D01*
X019240Y013280D02*
X017002Y013280D01*
X017090Y013378D02*
X019223Y013378D01*
X019223Y013772D02*
X018586Y013772D01*
X018487Y013871D02*
X019256Y013871D01*
X019260Y013969D02*
X018389Y013969D01*
X018290Y014068D02*
X019223Y014068D01*
X019223Y014166D02*
X018192Y014166D01*
X018093Y014265D02*
X019223Y014265D01*
X019223Y014363D02*
X018077Y014363D01*
X018077Y014462D02*
X019223Y014462D01*
X019237Y014560D02*
X018077Y014560D01*
X017908Y013969D02*
X017621Y013969D01*
X017533Y013871D02*
X018006Y013871D01*
X018105Y013772D02*
X017444Y013772D01*
X017356Y013674D02*
X018203Y013674D01*
X018302Y013575D02*
X017267Y013575D01*
X017179Y013477D02*
X018400Y013477D01*
X017402Y014560D02*
X017097Y014560D01*
X017077Y014659D02*
X017332Y014659D01*
X017261Y014757D02*
X017028Y014757D01*
X017077Y014856D02*
X017190Y014856D01*
X017175Y015250D02*
X017077Y015250D01*
X016798Y014265D02*
X016702Y014265D01*
X016702Y014166D02*
X016798Y014166D01*
X016798Y014068D02*
X016702Y014068D01*
X016428Y014068D02*
X009482Y014068D01*
X009341Y014166D02*
X016403Y014166D01*
X016403Y014265D02*
X009201Y014265D01*
X008673Y013575D02*
X002254Y013575D01*
X002254Y013477D02*
X008810Y013477D01*
X008948Y013378D02*
X002254Y013378D01*
X002254Y013280D02*
X009086Y013280D01*
X009224Y013181D02*
X002254Y013181D01*
X002254Y013083D02*
X009362Y013083D01*
X009500Y012984D02*
X002254Y012984D01*
X002254Y012886D02*
X009638Y012886D01*
X009776Y012787D02*
X002254Y012787D01*
X002254Y012689D02*
X009914Y012689D01*
X010052Y012590D02*
X002254Y012590D01*
X002254Y012492D02*
X010189Y012492D01*
X010322Y012393D02*
X002254Y012393D01*
X002254Y012295D02*
X010326Y012295D01*
X010367Y012196D02*
X002254Y012196D01*
X002254Y012098D02*
X010460Y012098D01*
X008535Y013674D02*
X002254Y013674D01*
X002254Y013772D02*
X008397Y013772D01*
X008259Y013871D02*
X002254Y013871D01*
X002254Y013969D02*
X008121Y013969D01*
X007983Y014068D02*
X002254Y014068D01*
X002254Y014166D02*
X007845Y014166D01*
X007707Y014265D02*
X002254Y014265D01*
X002254Y014363D02*
X007569Y014363D01*
X007431Y014462D02*
X002254Y014462D01*
X002254Y014560D02*
X007294Y014560D01*
X007156Y014659D02*
X002254Y014659D01*
X002252Y014757D02*
X007018Y014757D01*
X006880Y014856D02*
X002211Y014856D01*
X002166Y014954D02*
X006742Y014954D01*
X006604Y015053D02*
X002068Y015053D01*
X001892Y015151D02*
X006466Y015151D01*
X006328Y015250D02*
X000371Y015250D01*
X000305Y015348D02*
X006190Y015348D01*
X006052Y015447D02*
X000285Y015447D01*
X000285Y015545D02*
X005915Y015545D01*
X005777Y015644D02*
X000285Y015644D01*
X000285Y015742D02*
X005639Y015742D01*
X005501Y015841D02*
X000285Y015841D01*
X000285Y015939D02*
X005363Y015939D01*
X005221Y016038D02*
X000285Y016038D01*
X000285Y016136D02*
X005076Y016136D01*
X004930Y016235D02*
X000285Y016235D01*
X000285Y016333D02*
X004785Y016333D01*
X004640Y016432D02*
X000285Y016432D01*
X000285Y016530D02*
X004494Y016530D01*
X004349Y016629D02*
X000285Y016629D01*
X000285Y016727D02*
X004204Y016727D01*
X004058Y016826D02*
X000285Y016826D01*
X000285Y016924D02*
X003913Y016924D01*
X003768Y017023D02*
X000285Y017023D01*
X000285Y017121D02*
X003622Y017121D01*
X003477Y017220D02*
X000285Y017220D01*
X000285Y017318D02*
X003332Y017318D01*
X003186Y017417D02*
X000285Y017417D01*
X000285Y017515D02*
X003041Y017515D01*
X002896Y017614D02*
X000285Y017614D01*
X000285Y017712D02*
X002750Y017712D01*
X002605Y017811D02*
X000285Y017811D01*
X000285Y017909D02*
X002460Y017909D01*
X002314Y018008D02*
X000285Y018008D01*
X000285Y018106D02*
X002169Y018106D01*
X002024Y018205D02*
X000285Y018205D01*
X000285Y018303D02*
X001878Y018303D01*
X001733Y018402D02*
X000285Y018402D01*
X000285Y018500D02*
X001588Y018500D01*
X001442Y018599D02*
X000285Y018599D01*
X000285Y018697D02*
X001297Y018697D01*
X000640Y018796D02*
X000285Y018796D01*
X000285Y018894D02*
X000541Y018894D01*
X000487Y018993D02*
X000285Y018993D01*
X000285Y019091D02*
X000450Y019091D01*
X000450Y019190D02*
X000285Y019190D01*
X000285Y019288D02*
X000461Y019288D01*
X000502Y019387D02*
X000285Y019387D01*
X000285Y019485D02*
X000577Y019485D01*
X000719Y019584D02*
X000285Y019584D01*
X000285Y019682D02*
X001377Y019682D01*
X001233Y019584D02*
X001081Y019584D01*
X001521Y019781D02*
X000285Y019781D01*
X000285Y019879D02*
X001666Y019879D01*
X001810Y019978D02*
X000285Y019978D01*
X000285Y020076D02*
X001955Y020076D01*
X001982Y020175D02*
X002099Y020175D01*
X002202Y020273D02*
X003637Y020273D01*
X003736Y020372D02*
X002319Y020372D01*
X002437Y020470D02*
X002990Y020470D01*
X002990Y020569D02*
X002527Y020569D01*
X002584Y020667D02*
X002990Y020667D01*
X002990Y020766D02*
X002641Y020766D01*
X002697Y020864D02*
X002990Y020864D01*
X002990Y020963D02*
X002732Y020963D01*
X002749Y021061D02*
X002990Y021061D01*
X002990Y021160D02*
X002766Y021160D01*
X002784Y021258D02*
X003029Y021258D01*
X003188Y021455D02*
X003355Y021386D01*
X003536Y021386D01*
X003703Y021455D01*
X004188Y021455D01*
X004355Y021386D01*
X004536Y021386D01*
X004703Y021455D01*
X005168Y021455D01*
X005196Y021435D02*
X005136Y021478D01*
X005083Y021531D01*
X005039Y021592D01*
X005005Y021658D01*
X004982Y021730D01*
X004972Y021791D01*
X005395Y021791D01*
X005395Y021891D01*
X004972Y021891D01*
X004982Y021952D01*
X005005Y022023D01*
X005039Y022090D01*
X005083Y022150D01*
X005136Y022203D01*
X005196Y022247D01*
X005263Y022281D01*
X005334Y022304D01*
X005395Y022314D01*
X005395Y021891D01*
X005495Y021891D01*
X005495Y022314D01*
X005557Y022304D01*
X005628Y022281D01*
X005694Y022247D01*
X005755Y022203D01*
X005808Y022150D01*
X005852Y022090D01*
X005885Y022023D01*
X005909Y021952D01*
X005918Y021891D01*
X005495Y021891D01*
X005495Y021791D01*
X005495Y021368D01*
X005557Y021377D01*
X005628Y021401D01*
X005694Y021435D01*
X005755Y021478D01*
X005808Y021531D01*
X005852Y021592D01*
X005885Y021658D01*
X005909Y021730D01*
X005918Y021791D01*
X005495Y021791D01*
X005395Y021791D01*
X005395Y021368D01*
X005334Y021377D01*
X005263Y021401D01*
X005196Y021435D01*
X005067Y021554D02*
X004802Y021554D01*
X004831Y021583D02*
X004900Y021750D01*
X004900Y021931D01*
X004831Y022099D01*
X004703Y022227D01*
X004536Y022296D01*
X004355Y022296D01*
X004188Y022227D01*
X004060Y022099D01*
X004023Y022011D01*
X003867Y022011D01*
X003831Y022099D01*
X003703Y022227D01*
X003536Y022296D01*
X003355Y022296D01*
X003188Y022227D01*
X003060Y022099D01*
X002990Y021931D01*
X002990Y021750D01*
X003060Y021583D01*
X003188Y021455D01*
X002778Y021455D01*
X002761Y021554D02*
X003089Y021554D01*
X003031Y021652D02*
X002744Y021652D01*
X002726Y021751D02*
X002990Y021751D01*
X002990Y021849D02*
X002679Y021849D01*
X002622Y021948D02*
X002997Y021948D01*
X003038Y022046D02*
X002565Y022046D01*
X002509Y022145D02*
X003106Y022145D01*
X003227Y022243D02*
X002399Y022243D01*
X002282Y022342D02*
X023609Y022342D01*
X023726Y022440D02*
X002164Y022440D01*
X001895Y022539D02*
X023995Y022539D01*
X023491Y022243D02*
X022663Y022243D01*
X022703Y022227D02*
X022536Y022296D01*
X022355Y022296D01*
X022188Y022227D01*
X022060Y022099D01*
X021990Y021931D01*
X021990Y021750D01*
X022060Y021583D01*
X022188Y021455D01*
X022071Y021455D01*
X022120Y021406D02*
X021864Y021663D01*
X021900Y021750D01*
X021900Y021931D01*
X021831Y022099D01*
X021703Y022227D01*
X021536Y022296D01*
X021355Y022296D01*
X021188Y022227D01*
X021060Y022099D01*
X020990Y021931D01*
X020990Y021750D01*
X021060Y021583D01*
X021188Y021455D01*
X021022Y021455D01*
X021023Y021453D02*
X020855Y021640D01*
X020900Y021750D01*
X020900Y021931D01*
X020831Y022099D01*
X020703Y022227D01*
X020536Y022296D01*
X020355Y022296D01*
X020188Y022227D01*
X020060Y022099D01*
X019990Y021931D01*
X019990Y021750D01*
X020060Y021583D01*
X020188Y021455D01*
X019722Y021455D01*
X019694Y021435D02*
X019755Y021478D01*
X019808Y021531D01*
X019852Y021592D01*
X019885Y021658D01*
X019909Y021730D01*
X019918Y021791D01*
X019495Y021791D01*
X019495Y021368D01*
X019557Y021377D01*
X019628Y021401D01*
X019694Y021435D01*
X019824Y021554D02*
X020089Y021554D01*
X020031Y021652D02*
X019882Y021652D01*
X019912Y021751D02*
X019990Y021751D01*
X019990Y021849D02*
X019495Y021849D01*
X019495Y021891D02*
X019918Y021891D01*
X019909Y021952D01*
X019885Y022023D01*
X019852Y022090D01*
X019808Y022150D01*
X019755Y022203D01*
X019694Y022247D01*
X019628Y022281D01*
X019557Y022304D01*
X019495Y022314D01*
X019495Y021891D01*
X019395Y021891D01*
X019395Y021791D01*
X018972Y021791D01*
X018982Y021730D01*
X019005Y021658D01*
X019039Y021592D01*
X019083Y021531D01*
X019136Y021478D01*
X019196Y021435D01*
X019263Y021401D01*
X019334Y021377D01*
X019395Y021368D01*
X019395Y021791D01*
X019495Y021791D01*
X019495Y021891D01*
X019495Y021948D02*
X019395Y021948D01*
X019395Y021891D02*
X019395Y022314D01*
X019334Y022304D01*
X019263Y022281D01*
X019196Y022247D01*
X019136Y022203D01*
X019083Y022150D01*
X019039Y022090D01*
X019005Y022023D01*
X018982Y021952D01*
X018972Y021891D01*
X019395Y021891D01*
X019395Y021849D02*
X018900Y021849D01*
X018900Y021931D02*
X018831Y022099D01*
X018703Y022227D01*
X018536Y022296D01*
X018355Y022296D01*
X018188Y022227D01*
X018060Y022099D01*
X017990Y021931D01*
X017990Y021750D01*
X018060Y021583D01*
X018188Y021455D01*
X017722Y021455D01*
X017694Y021435D02*
X017755Y021478D01*
X017808Y021531D01*
X017852Y021592D01*
X017885Y021658D01*
X017909Y021730D01*
X017918Y021791D01*
X017495Y021791D01*
X017495Y021368D01*
X017557Y021377D01*
X017628Y021401D01*
X017694Y021435D01*
X017824Y021554D02*
X018089Y021554D01*
X018031Y021652D02*
X017882Y021652D01*
X017912Y021751D02*
X017990Y021751D01*
X017990Y021849D02*
X017495Y021849D01*
X017495Y021891D02*
X017918Y021891D01*
X017909Y021952D01*
X017885Y022023D01*
X017852Y022090D01*
X017808Y022150D01*
X017755Y022203D01*
X017694Y022247D01*
X017628Y022281D01*
X017557Y022304D01*
X017495Y022314D01*
X017495Y021891D01*
X017395Y021891D01*
X017395Y021791D01*
X016972Y021791D01*
X016982Y021730D01*
X017005Y021658D01*
X017039Y021592D01*
X017083Y021531D01*
X017136Y021478D01*
X017196Y021435D01*
X017263Y021401D01*
X017334Y021377D01*
X017395Y021368D01*
X017395Y021791D01*
X017495Y021791D01*
X017495Y021891D01*
X017495Y021948D02*
X017395Y021948D01*
X017395Y021891D02*
X017395Y022314D01*
X017334Y022304D01*
X017263Y022281D01*
X017196Y022247D01*
X017136Y022203D01*
X017083Y022150D01*
X017039Y022090D01*
X017005Y022023D01*
X016982Y021952D01*
X016972Y021891D01*
X017395Y021891D01*
X017395Y021849D02*
X016900Y021849D01*
X016900Y021931D02*
X016831Y022099D01*
X016703Y022227D01*
X016536Y022296D01*
X016355Y022296D01*
X016188Y022227D01*
X016060Y022099D01*
X015990Y021931D01*
X015990Y021750D01*
X016060Y021583D01*
X016188Y021455D01*
X016070Y021455D01*
X016070Y021456D02*
X015864Y021663D01*
X015900Y021750D01*
X015900Y021931D01*
X015831Y022099D01*
X015703Y022227D01*
X015536Y022296D01*
X015355Y022296D01*
X015188Y022227D01*
X015060Y022099D01*
X014990Y021931D01*
X014990Y021750D01*
X015060Y021583D01*
X015188Y021455D01*
X015070Y021455D01*
X015070Y021456D02*
X014864Y021663D01*
X014900Y021750D01*
X014900Y021931D01*
X014831Y022099D01*
X014703Y022227D01*
X014536Y022296D01*
X014355Y022296D01*
X014188Y022227D01*
X014060Y022099D01*
X013990Y021931D01*
X013990Y021750D01*
X014060Y021583D01*
X014188Y021455D01*
X013703Y021455D01*
X013831Y021583D01*
X013900Y021750D01*
X013900Y021931D01*
X013831Y022099D01*
X013703Y022227D01*
X013536Y022296D01*
X013355Y022296D01*
X013188Y022227D01*
X013060Y022099D01*
X012990Y021931D01*
X012990Y021750D01*
X013060Y021583D01*
X013188Y021455D01*
X012722Y021455D01*
X012694Y021435D02*
X012755Y021478D01*
X012808Y021531D01*
X012852Y021592D01*
X012885Y021658D01*
X012909Y021730D01*
X012918Y021791D01*
X012495Y021791D01*
X012495Y021368D01*
X012557Y021377D01*
X012628Y021401D01*
X012694Y021435D01*
X012824Y021554D02*
X013089Y021554D01*
X013031Y021652D02*
X012882Y021652D01*
X012912Y021751D02*
X012990Y021751D01*
X012990Y021849D02*
X012495Y021849D01*
X012495Y021891D02*
X012918Y021891D01*
X012909Y021952D01*
X012885Y022023D01*
X012852Y022090D01*
X012808Y022150D01*
X012755Y022203D01*
X012694Y022247D01*
X012628Y022281D01*
X012557Y022304D01*
X012495Y022314D01*
X012495Y021891D01*
X012395Y021891D01*
X012395Y021791D01*
X011972Y021791D01*
X011982Y021730D01*
X012005Y021658D01*
X012039Y021592D01*
X012083Y021531D01*
X012136Y021478D01*
X012196Y021435D01*
X012263Y021401D01*
X012334Y021377D01*
X012395Y021368D01*
X012395Y021791D01*
X012495Y021791D01*
X012495Y021891D01*
X012495Y021948D02*
X012395Y021948D01*
X012395Y021891D02*
X012395Y022314D01*
X012334Y022304D01*
X012263Y022281D01*
X012196Y022247D01*
X012136Y022203D01*
X012083Y022150D01*
X012039Y022090D01*
X012005Y022023D01*
X011982Y021952D01*
X011972Y021891D01*
X012395Y021891D01*
X012395Y021849D02*
X011900Y021849D01*
X011900Y021931D02*
X011831Y022099D01*
X011703Y022227D01*
X011536Y022296D01*
X011355Y022296D01*
X011188Y022227D01*
X011060Y022099D01*
X010990Y021931D01*
X010990Y021750D01*
X011060Y021583D01*
X011188Y021455D01*
X010703Y021455D01*
X010831Y021583D01*
X010900Y021750D01*
X010900Y021931D01*
X010831Y022099D01*
X010703Y022227D01*
X010536Y022296D01*
X010355Y022296D01*
X010188Y022227D01*
X010060Y022099D01*
X009990Y021931D01*
X009990Y021750D01*
X010060Y021583D01*
X010188Y021455D01*
X009722Y021455D01*
X009694Y021435D02*
X009755Y021478D01*
X009808Y021531D01*
X009852Y021592D01*
X009885Y021658D01*
X009909Y021730D01*
X009918Y021791D01*
X009495Y021791D01*
X009495Y021368D01*
X009557Y021377D01*
X009628Y021401D01*
X009694Y021435D01*
X009824Y021554D02*
X010089Y021554D01*
X010031Y021652D02*
X009882Y021652D01*
X009912Y021751D02*
X009990Y021751D01*
X009990Y021849D02*
X009495Y021849D01*
X009495Y021891D02*
X009918Y021891D01*
X009909Y021952D01*
X009885Y022023D01*
X009852Y022090D01*
X009808Y022150D01*
X009755Y022203D01*
X009694Y022247D01*
X009628Y022281D01*
X009557Y022304D01*
X009495Y022314D01*
X009495Y021891D01*
X009395Y021891D01*
X009395Y021791D01*
X008972Y021791D01*
X008982Y021730D01*
X009005Y021658D01*
X009039Y021592D01*
X009083Y021531D01*
X009136Y021478D01*
X009196Y021435D01*
X009263Y021401D01*
X009334Y021377D01*
X009395Y021368D01*
X009395Y021791D01*
X009495Y021791D01*
X009495Y021891D01*
X009495Y021948D02*
X009395Y021948D01*
X009395Y021891D02*
X009395Y022314D01*
X009334Y022304D01*
X009263Y022281D01*
X009196Y022247D01*
X009136Y022203D01*
X009083Y022150D01*
X009039Y022090D01*
X009005Y022023D01*
X008982Y021952D01*
X008972Y021891D01*
X009395Y021891D01*
X009395Y021849D02*
X008900Y021849D01*
X008900Y021751D02*
X008979Y021751D01*
X009008Y021652D02*
X008874Y021652D01*
X008973Y021554D02*
X009067Y021554D01*
X009071Y021455D02*
X009168Y021455D01*
X009120Y021357D02*
X014689Y021357D01*
X014730Y021316D02*
X014730Y021200D01*
X014703Y021227D01*
X014536Y021296D01*
X014355Y021296D01*
X014188Y021227D01*
X014060Y021099D01*
X013990Y020931D01*
X013990Y020750D01*
X014027Y020663D01*
X013730Y020366D01*
X013730Y019588D01*
X013645Y019553D01*
X013519Y019426D01*
X013450Y019261D01*
X013450Y019082D01*
X013519Y018917D01*
X013645Y018790D01*
X013810Y018721D01*
X013990Y018721D01*
X014155Y018790D01*
X014281Y018917D01*
X014350Y019082D01*
X014350Y019261D01*
X014281Y019426D01*
X014155Y019553D01*
X014070Y019588D01*
X014070Y020225D01*
X014267Y020422D01*
X014355Y020386D01*
X014536Y020386D01*
X014703Y020455D01*
X014730Y020482D01*
X014730Y019588D01*
X014645Y019553D01*
X014519Y019426D01*
X014450Y019261D01*
X014450Y019082D01*
X014519Y018917D01*
X014645Y018790D01*
X014810Y018721D01*
X014990Y018721D01*
X015155Y018790D01*
X015281Y018917D01*
X015350Y019082D01*
X015350Y019261D01*
X015281Y019426D01*
X015155Y019553D01*
X015070Y019588D01*
X015070Y020549D01*
X015083Y020531D01*
X015136Y020478D01*
X015196Y020435D01*
X015263Y020401D01*
X015334Y020377D01*
X015395Y020368D01*
X015395Y020791D01*
X015495Y020791D01*
X015495Y020368D01*
X015557Y020377D01*
X015628Y020401D01*
X015694Y020435D01*
X015730Y020461D01*
X015730Y019588D01*
X015645Y019553D01*
X015519Y019426D01*
X015450Y019261D01*
X015450Y019082D01*
X015519Y018917D01*
X015645Y018790D01*
X015810Y018721D01*
X015990Y018721D01*
X016155Y018790D01*
X016281Y018917D01*
X016350Y019082D01*
X016350Y019261D01*
X016281Y019426D01*
X016155Y019553D01*
X016070Y019588D01*
X016070Y020573D01*
X016188Y020455D01*
X016355Y020386D01*
X016536Y020386D01*
X016703Y020455D01*
X016831Y020583D01*
X016900Y020750D01*
X016900Y020931D01*
X016831Y021099D01*
X016703Y021227D01*
X016536Y021296D01*
X016355Y021296D01*
X016188Y021227D01*
X016070Y021109D01*
X016070Y021456D01*
X016089Y021554D02*
X015973Y021554D01*
X016031Y021652D02*
X015874Y021652D01*
X015900Y021751D02*
X015990Y021751D01*
X015990Y021849D02*
X015900Y021849D01*
X015894Y021948D02*
X015997Y021948D01*
X016038Y022046D02*
X015853Y022046D01*
X015785Y022145D02*
X016106Y022145D01*
X016227Y022243D02*
X015663Y022243D01*
X015227Y022243D02*
X014663Y022243D01*
X014785Y022145D02*
X015106Y022145D01*
X015038Y022046D02*
X014853Y022046D01*
X014894Y021948D02*
X014997Y021948D01*
X014990Y021849D02*
X014900Y021849D01*
X014900Y021751D02*
X014990Y021751D01*
X015031Y021652D02*
X014874Y021652D01*
X014973Y021554D02*
X015089Y021554D01*
X015070Y021456D02*
X015070Y021132D01*
X015083Y021150D01*
X015136Y021203D01*
X015196Y021247D01*
X015263Y021281D01*
X015334Y021304D01*
X015395Y021314D01*
X015395Y020891D01*
X015495Y020891D01*
X015495Y021314D01*
X015557Y021304D01*
X015628Y021281D01*
X015694Y021247D01*
X015730Y021221D01*
X015730Y021316D01*
X015624Y021422D01*
X015536Y021386D01*
X015355Y021386D01*
X015188Y021455D01*
X015070Y021357D02*
X015689Y021357D01*
X015673Y021258D02*
X015730Y021258D01*
X015495Y021258D02*
X015395Y021258D01*
X015395Y021160D02*
X015495Y021160D01*
X015495Y021061D02*
X015395Y021061D01*
X015395Y020963D02*
X015495Y020963D01*
X015495Y020766D02*
X015395Y020766D01*
X015395Y020667D02*
X015495Y020667D01*
X015495Y020569D02*
X015395Y020569D01*
X015395Y020470D02*
X015495Y020470D01*
X015495Y020372D02*
X015395Y020372D01*
X015372Y020372D02*
X015070Y020372D01*
X015070Y020470D02*
X015147Y020470D01*
X015070Y020273D02*
X015730Y020273D01*
X015730Y020175D02*
X015070Y020175D01*
X015070Y020076D02*
X015730Y020076D01*
X015730Y019978D02*
X015070Y019978D01*
X015070Y019879D02*
X015730Y019879D01*
X015730Y019781D02*
X015070Y019781D01*
X015070Y019682D02*
X015730Y019682D01*
X015719Y019584D02*
X015081Y019584D01*
X015223Y019485D02*
X015577Y019485D01*
X015502Y019387D02*
X015298Y019387D01*
X015339Y019288D02*
X015461Y019288D01*
X015450Y019190D02*
X015350Y019190D01*
X015350Y019091D02*
X015450Y019091D01*
X015487Y018993D02*
X015313Y018993D01*
X015259Y018894D02*
X015541Y018894D01*
X015640Y018796D02*
X015160Y018796D01*
X014640Y018796D02*
X014160Y018796D01*
X014259Y018894D02*
X014541Y018894D01*
X014487Y018993D02*
X014313Y018993D01*
X014350Y019091D02*
X014450Y019091D01*
X014450Y019190D02*
X014350Y019190D01*
X014339Y019288D02*
X014461Y019288D01*
X014502Y019387D02*
X014298Y019387D01*
X014223Y019485D02*
X014577Y019485D01*
X014719Y019584D02*
X014081Y019584D01*
X014070Y019682D02*
X014730Y019682D01*
X014730Y019781D02*
X014070Y019781D01*
X014070Y019879D02*
X014730Y019879D01*
X014730Y019978D02*
X014070Y019978D01*
X014070Y020076D02*
X014730Y020076D01*
X014730Y020175D02*
X014070Y020175D01*
X014118Y020273D02*
X014730Y020273D01*
X014730Y020372D02*
X014216Y020372D01*
X013933Y020569D02*
X013817Y020569D01*
X013831Y020583D02*
X013900Y020750D01*
X013900Y020931D01*
X013831Y021099D01*
X013703Y021227D01*
X013536Y021296D01*
X013355Y021296D01*
X013188Y021227D01*
X013060Y021099D01*
X012990Y020931D01*
X012990Y020750D01*
X013027Y020663D01*
X012730Y020366D01*
X012730Y019588D01*
X012645Y019553D01*
X012519Y019426D01*
X012450Y019261D01*
X012450Y019082D01*
X012519Y018917D01*
X012645Y018790D01*
X012810Y018721D01*
X012990Y018721D01*
X013155Y018790D01*
X013281Y018917D01*
X013350Y019082D01*
X013350Y019261D01*
X013281Y019426D01*
X013155Y019553D01*
X013070Y019588D01*
X013070Y020225D01*
X013267Y020422D01*
X013355Y020386D01*
X013536Y020386D01*
X013703Y020455D01*
X013831Y020583D01*
X013866Y020667D02*
X014025Y020667D01*
X013990Y020766D02*
X013900Y020766D01*
X013900Y020864D02*
X013990Y020864D01*
X014003Y020963D02*
X013887Y020963D01*
X013847Y021061D02*
X014044Y021061D01*
X014121Y021160D02*
X013770Y021160D01*
X013627Y021258D02*
X014264Y021258D01*
X014355Y021386D02*
X014188Y021455D01*
X014089Y021554D02*
X013802Y021554D01*
X013860Y021652D02*
X014031Y021652D01*
X013990Y021751D02*
X013900Y021751D01*
X013900Y021849D02*
X013990Y021849D01*
X013997Y021948D02*
X013894Y021948D01*
X013853Y022046D02*
X014038Y022046D01*
X014106Y022145D02*
X013785Y022145D01*
X013663Y022243D02*
X014227Y022243D01*
X014355Y021386D02*
X014536Y021386D01*
X014624Y021422D01*
X014730Y021316D01*
X014730Y021258D02*
X014627Y021258D01*
X015070Y021258D02*
X015218Y021258D01*
X015092Y021160D02*
X015070Y021160D01*
X014730Y020470D02*
X014718Y020470D01*
X015519Y020372D02*
X015730Y020372D01*
X016070Y020372D02*
X016736Y020372D01*
X016730Y020366D02*
X016730Y019588D01*
X016645Y019553D01*
X016519Y019426D01*
X016450Y019261D01*
X016450Y019082D01*
X016519Y018917D01*
X016645Y018790D01*
X016810Y018721D01*
X016990Y018721D01*
X017155Y018790D01*
X017281Y018917D01*
X017350Y019082D01*
X017350Y019261D01*
X017281Y019426D01*
X017155Y019553D01*
X017070Y019588D01*
X017070Y020225D01*
X017267Y020422D01*
X017355Y020386D01*
X017536Y020386D01*
X017703Y020455D01*
X017831Y020583D01*
X017900Y020750D01*
X017900Y020931D01*
X017831Y021099D01*
X017703Y021227D01*
X017536Y021296D01*
X017355Y021296D01*
X017188Y021227D01*
X017060Y021099D01*
X016990Y020931D01*
X016990Y020750D01*
X017027Y020663D01*
X016730Y020366D01*
X016730Y020273D02*
X016070Y020273D01*
X016070Y020175D02*
X016730Y020175D01*
X016730Y020076D02*
X016070Y020076D01*
X016070Y019978D02*
X016730Y019978D01*
X016730Y019879D02*
X016070Y019879D01*
X016070Y019781D02*
X016730Y019781D01*
X016730Y019682D02*
X016070Y019682D01*
X016081Y019584D02*
X016719Y019584D01*
X016577Y019485D02*
X016223Y019485D01*
X016298Y019387D02*
X016502Y019387D01*
X016461Y019288D02*
X016339Y019288D01*
X016350Y019190D02*
X016450Y019190D01*
X016450Y019091D02*
X016350Y019091D01*
X016313Y018993D02*
X016487Y018993D01*
X016541Y018894D02*
X016259Y018894D01*
X016160Y018796D02*
X016640Y018796D01*
X017160Y018796D02*
X017640Y018796D01*
X017645Y018790D02*
X017810Y018721D01*
X017990Y018721D01*
X018155Y018790D01*
X018281Y018917D01*
X018350Y019082D01*
X018350Y019261D01*
X018281Y019426D01*
X018155Y019553D01*
X018070Y019588D01*
X018070Y020225D01*
X018267Y020422D01*
X018355Y020386D01*
X018536Y020386D01*
X018703Y020455D01*
X018730Y020482D01*
X018730Y019588D01*
X018645Y019553D01*
X018519Y019426D01*
X018450Y019261D01*
X018450Y019082D01*
X018519Y018917D01*
X018645Y018790D01*
X018810Y018721D01*
X018990Y018721D01*
X019155Y018790D01*
X019281Y018917D01*
X019350Y019082D01*
X019350Y019261D01*
X019281Y019426D01*
X019155Y019553D01*
X019070Y019588D01*
X019070Y020573D01*
X019188Y020455D01*
X019355Y020386D01*
X019536Y020386D01*
X019624Y020422D01*
X019730Y020316D01*
X019730Y019588D01*
X019645Y019553D01*
X019519Y019426D01*
X019450Y019261D01*
X019450Y019082D01*
X019519Y018917D01*
X019645Y018790D01*
X019810Y018721D01*
X019990Y018721D01*
X020155Y018790D01*
X020281Y018917D01*
X020350Y019082D01*
X020350Y019261D01*
X020281Y019426D01*
X020155Y019553D01*
X020070Y019588D01*
X020070Y020456D01*
X019864Y020663D01*
X019900Y020750D01*
X019900Y020931D01*
X019831Y021099D01*
X019703Y021227D01*
X019536Y021296D01*
X019355Y021296D01*
X019188Y021227D01*
X019070Y021109D01*
X019070Y021456D01*
X018864Y021663D01*
X018900Y021750D01*
X018900Y021931D01*
X018894Y021948D02*
X018981Y021948D01*
X019017Y022046D02*
X018853Y022046D01*
X018785Y022145D02*
X019079Y022145D01*
X019191Y022243D02*
X018663Y022243D01*
X018227Y022243D02*
X017700Y022243D01*
X017812Y022145D02*
X018106Y022145D01*
X018038Y022046D02*
X017874Y022046D01*
X017909Y021948D02*
X017997Y021948D01*
X017495Y022046D02*
X017395Y022046D01*
X017395Y022145D02*
X017495Y022145D01*
X017495Y022243D02*
X017395Y022243D01*
X017191Y022243D02*
X016663Y022243D01*
X016785Y022145D02*
X017079Y022145D01*
X017017Y022046D02*
X016853Y022046D01*
X016894Y021948D02*
X016981Y021948D01*
X016900Y021931D02*
X016900Y021750D01*
X016831Y021583D01*
X016703Y021455D01*
X017168Y021455D01*
X017067Y021554D02*
X016802Y021554D01*
X016860Y021652D02*
X017008Y021652D01*
X016979Y021751D02*
X016900Y021751D01*
X016703Y021455D02*
X016536Y021386D01*
X016355Y021386D01*
X016188Y021455D01*
X016070Y021357D02*
X018689Y021357D01*
X018730Y021316D02*
X018730Y021200D01*
X018703Y021227D01*
X018536Y021296D01*
X018355Y021296D01*
X018188Y021227D01*
X018060Y021099D01*
X017990Y020931D01*
X017990Y020750D01*
X018027Y020663D01*
X017730Y020366D01*
X017730Y019588D01*
X017645Y019553D01*
X017519Y019426D01*
X017450Y019261D01*
X017450Y019082D01*
X017519Y018917D01*
X017645Y018790D01*
X017541Y018894D02*
X017259Y018894D01*
X017313Y018993D02*
X017487Y018993D01*
X017450Y019091D02*
X017350Y019091D01*
X017350Y019190D02*
X017450Y019190D01*
X017461Y019288D02*
X017339Y019288D01*
X017298Y019387D02*
X017502Y019387D01*
X017577Y019485D02*
X017223Y019485D01*
X017081Y019584D02*
X017719Y019584D01*
X017730Y019682D02*
X017070Y019682D01*
X017070Y019781D02*
X017730Y019781D01*
X017730Y019879D02*
X017070Y019879D01*
X017070Y019978D02*
X017730Y019978D01*
X017730Y020076D02*
X017070Y020076D01*
X017070Y020175D02*
X017730Y020175D01*
X017730Y020273D02*
X017118Y020273D01*
X017216Y020372D02*
X017736Y020372D01*
X017718Y020470D02*
X017834Y020470D01*
X017817Y020569D02*
X017933Y020569D01*
X017866Y020667D02*
X018025Y020667D01*
X017990Y020766D02*
X017900Y020766D01*
X017900Y020864D02*
X017990Y020864D01*
X018003Y020963D02*
X017887Y020963D01*
X017847Y021061D02*
X018044Y021061D01*
X018121Y021160D02*
X017770Y021160D01*
X017627Y021258D02*
X018264Y021258D01*
X018355Y021386D02*
X018536Y021386D01*
X018624Y021422D01*
X018730Y021316D01*
X018730Y021258D02*
X018627Y021258D01*
X018355Y021386D02*
X018188Y021455D01*
X018874Y021652D02*
X019008Y021652D01*
X018979Y021751D02*
X018900Y021751D01*
X018973Y021554D02*
X019067Y021554D01*
X019070Y021455D02*
X019168Y021455D01*
X019070Y021357D02*
X020653Y021357D01*
X020602Y021413D02*
X020730Y021271D01*
X020730Y021200D01*
X020703Y021227D01*
X020536Y021296D01*
X020355Y021296D01*
X020188Y021227D01*
X020060Y021099D01*
X019990Y020931D01*
X019990Y020750D01*
X020060Y020583D01*
X020188Y020455D01*
X020355Y020386D01*
X020536Y020386D01*
X020703Y020455D01*
X020730Y020482D01*
X020730Y019588D01*
X020645Y019553D01*
X020519Y019426D01*
X020450Y019261D01*
X020450Y019082D01*
X020519Y018917D01*
X020645Y018790D01*
X020810Y018721D01*
X020990Y018721D01*
X021155Y018790D01*
X021281Y018917D01*
X021350Y019082D01*
X021350Y019261D01*
X021281Y019426D01*
X021155Y019553D01*
X021070Y019588D01*
X021070Y020573D01*
X021188Y020455D01*
X021355Y020386D01*
X021536Y020386D01*
X021703Y020455D01*
X021780Y020532D01*
X021780Y020401D01*
X021880Y020301D01*
X022637Y019544D01*
X022519Y019426D01*
X022450Y019261D01*
X022450Y019082D01*
X022519Y018917D01*
X022645Y018790D01*
X022810Y018721D01*
X022990Y018721D01*
X023155Y018790D01*
X023281Y018917D01*
X023350Y019082D01*
X023350Y019261D01*
X023281Y019426D01*
X023155Y019553D01*
X023070Y019588D01*
X023070Y019592D01*
X022260Y020402D01*
X022263Y020401D01*
X022334Y020377D01*
X022395Y020368D01*
X022395Y020791D01*
X022495Y020791D01*
X022495Y020368D01*
X022557Y020377D01*
X022628Y020401D01*
X022694Y020435D01*
X022755Y020478D01*
X022780Y020504D01*
X022780Y020051D01*
X023485Y019346D01*
X023450Y019261D01*
X023450Y019082D01*
X023519Y018917D01*
X023645Y018790D01*
X023810Y018721D01*
X023990Y018721D01*
X024155Y018790D01*
X024281Y018917D01*
X024350Y019082D01*
X024350Y019261D01*
X024281Y019426D01*
X024155Y019553D01*
X023990Y019621D01*
X023810Y019621D01*
X023726Y019586D01*
X023120Y020192D01*
X023120Y021042D01*
X023020Y021141D01*
X022705Y021457D01*
X022831Y021583D01*
X022900Y021750D01*
X022900Y021931D01*
X022831Y022099D01*
X022703Y022227D01*
X022785Y022145D02*
X023382Y022145D01*
X023325Y022046D02*
X022853Y022046D01*
X022894Y021948D02*
X023268Y021948D01*
X023211Y021849D02*
X022900Y021849D01*
X022900Y021751D02*
X023164Y021751D01*
X023147Y021652D02*
X022860Y021652D01*
X022802Y021554D02*
X023130Y021554D01*
X023112Y021455D02*
X022707Y021455D01*
X022805Y021357D02*
X023095Y021357D01*
X023107Y021258D02*
X022904Y021258D01*
X023002Y021160D02*
X023124Y021160D01*
X023141Y021061D02*
X023101Y021061D01*
X023120Y020963D02*
X023159Y020963D01*
X023193Y020864D02*
X023120Y020864D01*
X023120Y020766D02*
X023250Y020766D01*
X023307Y020667D02*
X023120Y020667D01*
X023120Y020569D02*
X023364Y020569D01*
X023454Y020470D02*
X023120Y020470D01*
X023120Y020372D02*
X023571Y020372D01*
X023689Y020273D02*
X023120Y020273D01*
X023137Y020175D02*
X023909Y020175D01*
X023531Y019781D02*
X025606Y019781D01*
X025606Y019879D02*
X023433Y019879D01*
X023334Y019978D02*
X025606Y019978D01*
X025606Y020076D02*
X023236Y020076D01*
X022952Y019879D02*
X022783Y019879D01*
X022854Y019978D02*
X022684Y019978D01*
X022780Y020076D02*
X022586Y020076D01*
X022487Y020175D02*
X022780Y020175D01*
X022780Y020273D02*
X022389Y020273D01*
X022395Y020372D02*
X022495Y020372D01*
X022519Y020372D02*
X022780Y020372D01*
X022780Y020470D02*
X022743Y020470D01*
X022495Y020470D02*
X022395Y020470D01*
X022395Y020569D02*
X022495Y020569D01*
X022495Y020667D02*
X022395Y020667D01*
X022395Y020766D02*
X022495Y020766D01*
X022372Y020372D02*
X022290Y020372D01*
X022007Y020175D02*
X021070Y020175D01*
X021070Y020273D02*
X021908Y020273D01*
X021810Y020372D02*
X021070Y020372D01*
X021070Y020470D02*
X021173Y020470D01*
X021074Y020569D02*
X021070Y020569D01*
X020730Y020470D02*
X020718Y020470D01*
X020730Y020372D02*
X020070Y020372D01*
X020070Y020273D02*
X020730Y020273D01*
X020730Y020175D02*
X020070Y020175D01*
X020070Y020076D02*
X020730Y020076D01*
X020730Y019978D02*
X020070Y019978D01*
X020070Y019879D02*
X020730Y019879D01*
X020730Y019781D02*
X020070Y019781D01*
X020070Y019682D02*
X020730Y019682D01*
X020719Y019584D02*
X020081Y019584D01*
X020223Y019485D02*
X020577Y019485D01*
X020502Y019387D02*
X020298Y019387D01*
X020339Y019288D02*
X020461Y019288D01*
X020450Y019190D02*
X020350Y019190D01*
X020350Y019091D02*
X020450Y019091D01*
X020487Y018993D02*
X020313Y018993D01*
X020259Y018894D02*
X020541Y018894D01*
X020640Y018796D02*
X020160Y018796D01*
X019640Y018796D02*
X019160Y018796D01*
X019259Y018894D02*
X019541Y018894D01*
X019487Y018993D02*
X019313Y018993D01*
X019350Y019091D02*
X019450Y019091D01*
X019450Y019190D02*
X019350Y019190D01*
X019339Y019288D02*
X019461Y019288D01*
X019502Y019387D02*
X019298Y019387D01*
X019223Y019485D02*
X019577Y019485D01*
X019719Y019584D02*
X019081Y019584D01*
X019070Y019682D02*
X019730Y019682D01*
X019730Y019781D02*
X019070Y019781D01*
X019070Y019879D02*
X019730Y019879D01*
X019730Y019978D02*
X019070Y019978D01*
X019070Y020076D02*
X019730Y020076D01*
X019730Y020175D02*
X019070Y020175D01*
X019070Y020273D02*
X019730Y020273D01*
X019674Y020372D02*
X019070Y020372D01*
X019070Y020470D02*
X019173Y020470D01*
X019074Y020569D02*
X019070Y020569D01*
X018730Y020470D02*
X018718Y020470D01*
X018730Y020372D02*
X018216Y020372D01*
X018118Y020273D02*
X018730Y020273D01*
X018730Y020175D02*
X018070Y020175D01*
X018070Y020076D02*
X018730Y020076D01*
X018730Y019978D02*
X018070Y019978D01*
X018070Y019879D02*
X018730Y019879D01*
X018730Y019781D02*
X018070Y019781D01*
X018070Y019682D02*
X018730Y019682D01*
X018719Y019584D02*
X018081Y019584D01*
X018223Y019485D02*
X018577Y019485D01*
X018502Y019387D02*
X018298Y019387D01*
X018339Y019288D02*
X018461Y019288D01*
X018450Y019190D02*
X018350Y019190D01*
X018350Y019091D02*
X018450Y019091D01*
X018487Y018993D02*
X018313Y018993D01*
X018259Y018894D02*
X018541Y018894D01*
X018640Y018796D02*
X018160Y018796D01*
X016834Y020470D02*
X016718Y020470D01*
X016817Y020569D02*
X016933Y020569D01*
X016866Y020667D02*
X017025Y020667D01*
X016990Y020766D02*
X016900Y020766D01*
X016900Y020864D02*
X016990Y020864D01*
X017003Y020963D02*
X016887Y020963D01*
X016847Y021061D02*
X017044Y021061D01*
X017121Y021160D02*
X016770Y021160D01*
X016627Y021258D02*
X017264Y021258D01*
X017395Y021455D02*
X017495Y021455D01*
X017495Y021554D02*
X017395Y021554D01*
X017395Y021652D02*
X017495Y021652D01*
X017495Y021751D02*
X017395Y021751D01*
X016264Y021258D02*
X016070Y021258D01*
X016070Y021160D02*
X016121Y021160D01*
X016074Y020569D02*
X016070Y020569D01*
X016070Y020470D02*
X016173Y020470D01*
X013834Y020470D02*
X013718Y020470D01*
X013736Y020372D02*
X013216Y020372D01*
X013118Y020273D02*
X013730Y020273D01*
X013730Y020175D02*
X013070Y020175D01*
X013070Y020076D02*
X013730Y020076D01*
X013730Y019978D02*
X013070Y019978D01*
X013070Y019879D02*
X013730Y019879D01*
X013730Y019781D02*
X013070Y019781D01*
X013070Y019682D02*
X013730Y019682D01*
X013719Y019584D02*
X013081Y019584D01*
X013223Y019485D02*
X013577Y019485D01*
X013502Y019387D02*
X013298Y019387D01*
X013339Y019288D02*
X013461Y019288D01*
X013450Y019190D02*
X013350Y019190D01*
X013350Y019091D02*
X013450Y019091D01*
X013487Y018993D02*
X013313Y018993D01*
X013259Y018894D02*
X013541Y018894D01*
X013640Y018796D02*
X013160Y018796D01*
X012640Y018796D02*
X012160Y018796D01*
X012259Y018894D02*
X012541Y018894D01*
X012487Y018993D02*
X012313Y018993D01*
X012350Y019091D02*
X012450Y019091D01*
X012450Y019190D02*
X012350Y019190D01*
X012339Y019288D02*
X012461Y019288D01*
X012502Y019387D02*
X012298Y019387D01*
X012223Y019485D02*
X012577Y019485D01*
X012719Y019584D02*
X012081Y019584D01*
X012070Y019682D02*
X012730Y019682D01*
X012730Y019781D02*
X012070Y019781D01*
X012070Y019879D02*
X012730Y019879D01*
X012730Y019978D02*
X012070Y019978D01*
X012070Y020076D02*
X012730Y020076D01*
X012730Y020175D02*
X012070Y020175D01*
X012118Y020273D02*
X012730Y020273D01*
X012736Y020372D02*
X012216Y020372D01*
X012025Y020667D02*
X011866Y020667D01*
X011900Y020766D02*
X011990Y020766D01*
X011990Y020864D02*
X011900Y020864D01*
X011887Y020963D02*
X012003Y020963D01*
X012044Y021061D02*
X011847Y021061D01*
X011770Y021160D02*
X012121Y021160D01*
X012264Y021258D02*
X011627Y021258D01*
X011536Y021386D02*
X011355Y021386D01*
X011188Y021455D01*
X011089Y021554D02*
X010802Y021554D01*
X010860Y021652D02*
X011031Y021652D01*
X010990Y021751D02*
X010900Y021751D01*
X010900Y021849D02*
X010990Y021849D01*
X010997Y021948D02*
X010894Y021948D01*
X010853Y022046D02*
X011038Y022046D01*
X011106Y022145D02*
X010785Y022145D01*
X010663Y022243D02*
X011227Y022243D01*
X011663Y022243D02*
X012191Y022243D01*
X012079Y022145D02*
X011785Y022145D01*
X011853Y022046D02*
X012017Y022046D01*
X011981Y021948D02*
X011894Y021948D01*
X011900Y021931D02*
X011900Y021750D01*
X011831Y021583D01*
X011703Y021455D01*
X012168Y021455D01*
X012067Y021554D02*
X011802Y021554D01*
X011860Y021652D02*
X012008Y021652D01*
X011979Y021751D02*
X011900Y021751D01*
X011703Y021455D02*
X011536Y021386D01*
X011264Y021258D02*
X010627Y021258D01*
X010703Y021227D02*
X010536Y021296D01*
X010355Y021296D01*
X010188Y021227D01*
X010060Y021099D01*
X009990Y020931D01*
X009990Y020750D01*
X010027Y020663D01*
X009730Y020366D01*
X009730Y019588D01*
X009645Y019553D01*
X009519Y019426D01*
X009450Y019261D01*
X009450Y019082D01*
X009519Y018917D01*
X009645Y018790D01*
X009810Y018721D01*
X009990Y018721D01*
X010155Y018790D01*
X010281Y018917D01*
X010350Y019082D01*
X010350Y019261D01*
X010281Y019426D01*
X010155Y019553D01*
X010070Y019588D01*
X010070Y020225D01*
X010267Y020422D01*
X010355Y020386D01*
X010536Y020386D01*
X010703Y020455D01*
X010831Y020583D01*
X010900Y020750D01*
X010900Y020931D01*
X010831Y021099D01*
X010703Y021227D01*
X010770Y021160D02*
X011121Y021160D01*
X011044Y021061D02*
X010847Y021061D01*
X010887Y020963D02*
X011003Y020963D01*
X010990Y020864D02*
X010900Y020864D01*
X010900Y020766D02*
X010990Y020766D01*
X011025Y020667D02*
X010866Y020667D01*
X010817Y020569D02*
X011074Y020569D01*
X011173Y020470D02*
X010718Y020470D01*
X010216Y020372D02*
X011230Y020372D01*
X011230Y020273D02*
X010118Y020273D01*
X010070Y020175D02*
X011230Y020175D01*
X011230Y020076D02*
X010070Y020076D01*
X010070Y019978D02*
X011230Y019978D01*
X011230Y019879D02*
X010070Y019879D01*
X010070Y019781D02*
X011230Y019781D01*
X011230Y019682D02*
X010070Y019682D01*
X010081Y019584D02*
X010719Y019584D01*
X010577Y019485D02*
X010223Y019485D01*
X010298Y019387D02*
X010502Y019387D01*
X010461Y019288D02*
X010339Y019288D01*
X010350Y019190D02*
X010450Y019190D01*
X010450Y019091D02*
X010350Y019091D01*
X010313Y018993D02*
X010487Y018993D01*
X010541Y018894D02*
X010259Y018894D01*
X010160Y018796D02*
X010640Y018796D01*
X011160Y018796D02*
X011230Y018796D01*
X011230Y018697D02*
X002874Y018697D01*
X003014Y018599D02*
X011230Y018599D01*
X011230Y018500D02*
X003155Y018500D01*
X003295Y018402D02*
X011230Y018402D01*
X011230Y018303D02*
X003436Y018303D01*
X003577Y018205D02*
X011230Y018205D01*
X011230Y018106D02*
X003717Y018106D01*
X003858Y018008D02*
X011230Y018008D01*
X011230Y017909D02*
X003998Y017909D01*
X004139Y017811D02*
X011230Y017811D01*
X011230Y017712D02*
X004280Y017712D01*
X004420Y017614D02*
X011230Y017614D01*
X011230Y017515D02*
X004561Y017515D01*
X004701Y017417D02*
X011230Y017417D01*
X011230Y017318D02*
X004842Y017318D01*
X004983Y017220D02*
X011230Y017220D01*
X011260Y017121D02*
X005123Y017121D01*
X005264Y017023D02*
X011359Y017023D01*
X011457Y016924D02*
X005404Y016924D01*
X005545Y016826D02*
X011556Y016826D01*
X011654Y016727D02*
X005686Y016727D01*
X005826Y016629D02*
X011753Y016629D01*
X011851Y016530D02*
X005967Y016530D01*
X006108Y016432D02*
X011950Y016432D01*
X012048Y016333D02*
X006248Y016333D01*
X006389Y016235D02*
X012147Y016235D01*
X012245Y016136D02*
X006529Y016136D01*
X006670Y016038D02*
X012344Y016038D01*
X012442Y015939D02*
X006811Y015939D01*
X006951Y015841D02*
X012541Y015841D01*
X012639Y015742D02*
X007092Y015742D01*
X007232Y015644D02*
X012738Y015644D01*
X012836Y015545D02*
X007373Y015545D01*
X007514Y015447D02*
X012935Y015447D01*
X013033Y015348D02*
X007654Y015348D01*
X007795Y015250D02*
X013132Y015250D01*
X013230Y015151D02*
X007935Y015151D01*
X008076Y015053D02*
X013329Y015053D01*
X013427Y014954D02*
X008217Y014954D01*
X011570Y017318D02*
X025606Y017318D01*
X025606Y017220D02*
X011642Y017220D01*
X011741Y017121D02*
X025606Y017121D01*
X025606Y017023D02*
X011839Y017023D01*
X011938Y016924D02*
X025606Y016924D01*
X025606Y016826D02*
X012036Y016826D01*
X012135Y016727D02*
X025606Y016727D01*
X025606Y016629D02*
X021894Y016629D01*
X021910Y016530D02*
X025606Y016530D01*
X025606Y016432D02*
X021335Y016432D01*
X021315Y016432D02*
X019240Y016432D01*
X019240Y016530D02*
X020740Y016530D01*
X020756Y016629D02*
X019226Y016629D01*
X019240Y016333D02*
X020740Y016333D01*
X020767Y016235D02*
X019208Y016235D01*
X019240Y015841D02*
X019591Y015841D01*
X019356Y015742D02*
X019215Y015742D01*
X019211Y015644D02*
X019266Y015644D01*
X019776Y016136D02*
X020761Y016136D01*
X020740Y016038D02*
X019874Y016038D01*
X019973Y015939D02*
X021315Y015939D01*
X021335Y015939D02*
X025606Y015939D01*
X025606Y015841D02*
X021910Y015841D01*
X021888Y015742D02*
X025606Y015742D01*
X025606Y015644D02*
X021886Y015644D01*
X021910Y015545D02*
X025606Y015545D01*
X025606Y015447D02*
X021335Y015447D01*
X021315Y015447D02*
X020465Y015447D01*
X020379Y015053D02*
X019720Y015053D01*
X020071Y015841D02*
X020740Y015841D01*
X021315Y015841D02*
X021335Y015841D01*
X021335Y015742D02*
X021315Y015742D01*
X021315Y015644D02*
X021335Y015644D01*
X021335Y015545D02*
X021315Y015545D01*
X021315Y015348D02*
X021335Y015348D01*
X021335Y015250D02*
X021315Y015250D01*
X021315Y015151D02*
X021335Y015151D01*
X021335Y015053D02*
X021315Y015053D01*
X021315Y014954D02*
X021335Y014954D01*
X021335Y014856D02*
X021315Y014856D01*
X021315Y014757D02*
X021335Y014757D01*
X021027Y014462D02*
X025606Y014462D01*
X025606Y014560D02*
X021013Y014560D01*
X020870Y014659D02*
X025606Y014659D01*
X025606Y014757D02*
X021897Y014757D01*
X021910Y014856D02*
X025606Y014856D01*
X025606Y014954D02*
X021910Y014954D01*
X021910Y015053D02*
X025606Y015053D01*
X025606Y015151D02*
X021881Y015151D01*
X021892Y015250D02*
X025606Y015250D01*
X025606Y015348D02*
X021910Y015348D01*
X021910Y016038D02*
X025606Y016038D01*
X025606Y016136D02*
X021890Y016136D01*
X021884Y016235D02*
X025606Y016235D01*
X025606Y016333D02*
X021910Y016333D01*
X021335Y016333D02*
X021315Y016333D01*
X021315Y016235D02*
X021335Y016235D01*
X021335Y016136D02*
X021315Y016136D01*
X021315Y016038D02*
X021335Y016038D01*
X021315Y016530D02*
X021335Y016530D01*
X021335Y016629D02*
X021315Y016629D01*
X021810Y018721D02*
X021990Y018721D01*
X022155Y018790D01*
X022281Y018917D01*
X022350Y019082D01*
X022350Y019261D01*
X022281Y019426D01*
X022155Y019553D01*
X021990Y019621D01*
X021810Y019621D01*
X021645Y019553D01*
X021519Y019426D01*
X021450Y019261D01*
X021450Y019082D01*
X021519Y018917D01*
X021645Y018790D01*
X021810Y018721D01*
X021640Y018796D02*
X021160Y018796D01*
X021259Y018894D02*
X021541Y018894D01*
X021487Y018993D02*
X021313Y018993D01*
X021350Y019091D02*
X021450Y019091D01*
X021450Y019190D02*
X021350Y019190D01*
X021339Y019288D02*
X021461Y019288D01*
X021502Y019387D02*
X021298Y019387D01*
X021223Y019485D02*
X021577Y019485D01*
X021719Y019584D02*
X021081Y019584D01*
X021070Y019682D02*
X022499Y019682D01*
X022598Y019584D02*
X022081Y019584D01*
X022223Y019485D02*
X022577Y019485D01*
X022502Y019387D02*
X022298Y019387D01*
X022339Y019288D02*
X022461Y019288D01*
X022450Y019190D02*
X022350Y019190D01*
X022350Y019091D02*
X022450Y019091D01*
X022487Y018993D02*
X022313Y018993D01*
X022259Y018894D02*
X022541Y018894D01*
X022640Y018796D02*
X022160Y018796D01*
X023081Y019584D02*
X023248Y019584D01*
X023223Y019485D02*
X023346Y019485D01*
X023298Y019387D02*
X023445Y019387D01*
X023461Y019288D02*
X023339Y019288D01*
X023350Y019190D02*
X023450Y019190D01*
X023450Y019091D02*
X023350Y019091D01*
X023313Y018993D02*
X023487Y018993D01*
X023541Y018894D02*
X023259Y018894D01*
X023160Y018796D02*
X023640Y018796D01*
X024160Y018796D02*
X024618Y018796D01*
X024594Y018813D02*
X024654Y018770D01*
X024720Y018736D01*
X024790Y018713D01*
X024850Y018704D01*
X024850Y019121D01*
X024950Y019121D01*
X024950Y018704D01*
X025010Y018713D01*
X025080Y018736D01*
X025146Y018770D01*
X025206Y018813D01*
X025258Y018865D01*
X025302Y018925D01*
X025336Y018991D01*
X025358Y019061D01*
X025368Y019121D01*
X024950Y019121D01*
X024950Y019221D01*
X025368Y019221D01*
X025358Y019282D01*
X025336Y019352D01*
X025302Y019418D01*
X025258Y019478D01*
X025206Y019530D01*
X025146Y019573D01*
X025080Y019607D01*
X025010Y019630D01*
X024950Y019639D01*
X024950Y019222D01*
X024850Y019222D01*
X024850Y019639D01*
X024790Y019630D01*
X024720Y019607D01*
X024654Y019573D01*
X024594Y019530D01*
X024542Y019478D01*
X024498Y019418D01*
X024464Y019352D01*
X024442Y019282D01*
X024432Y019221D01*
X024850Y019221D01*
X024850Y019121D01*
X024432Y019121D01*
X024442Y019061D01*
X024464Y018991D01*
X024498Y018925D01*
X024542Y018865D01*
X024594Y018813D01*
X024521Y018894D02*
X024259Y018894D01*
X024313Y018993D02*
X024464Y018993D01*
X024437Y019091D02*
X024350Y019091D01*
X024350Y019190D02*
X024850Y019190D01*
X024850Y019288D02*
X024950Y019288D01*
X024950Y019190D02*
X025606Y019190D01*
X025606Y019288D02*
X025356Y019288D01*
X025318Y019387D02*
X025606Y019387D01*
X025606Y019485D02*
X025251Y019485D01*
X025127Y019584D02*
X025606Y019584D01*
X025606Y019682D02*
X023630Y019682D01*
X024081Y019584D02*
X024673Y019584D01*
X024549Y019485D02*
X024223Y019485D01*
X024298Y019387D02*
X024482Y019387D01*
X024444Y019288D02*
X024339Y019288D01*
X024850Y019387D02*
X024950Y019387D01*
X024950Y019485D02*
X024850Y019485D01*
X024850Y019584D02*
X024950Y019584D01*
X024950Y019091D02*
X024850Y019091D01*
X024850Y018993D02*
X024950Y018993D01*
X024950Y018894D02*
X024850Y018894D01*
X024850Y018796D02*
X024950Y018796D01*
X025182Y018796D02*
X025606Y018796D01*
X025606Y018894D02*
X025279Y018894D01*
X025336Y018993D02*
X025606Y018993D01*
X025606Y019091D02*
X025363Y019091D01*
X025606Y018697D02*
X011570Y018697D01*
X011570Y018599D02*
X025606Y018599D01*
X025606Y018500D02*
X011570Y018500D01*
X011570Y018402D02*
X025606Y018402D01*
X025606Y018303D02*
X011570Y018303D01*
X011570Y018205D02*
X025606Y018205D01*
X025606Y018106D02*
X011570Y018106D01*
X011570Y018008D02*
X025606Y018008D01*
X025606Y017909D02*
X011570Y017909D01*
X011570Y017811D02*
X025606Y017811D01*
X025606Y017712D02*
X011570Y017712D01*
X011570Y017614D02*
X025606Y017614D01*
X025606Y017515D02*
X011570Y017515D01*
X011570Y017417D02*
X025606Y017417D01*
X023149Y019682D02*
X022980Y019682D01*
X023051Y019781D02*
X022881Y019781D01*
X022401Y019781D02*
X021070Y019781D01*
X021070Y019879D02*
X022302Y019879D01*
X022204Y019978D02*
X021070Y019978D01*
X021070Y020076D02*
X022105Y020076D01*
X021780Y020470D02*
X021718Y020470D01*
X021780Y021150D02*
X021703Y021227D01*
X021536Y021296D01*
X021355Y021296D01*
X021188Y021227D01*
X021070Y021109D01*
X021070Y021332D01*
X021073Y021398D01*
X021070Y021401D01*
X021070Y021406D01*
X021023Y021453D01*
X021071Y021357D02*
X021689Y021357D01*
X021624Y021422D02*
X021780Y021266D01*
X021780Y021150D01*
X021780Y021160D02*
X021770Y021160D01*
X021780Y021258D02*
X021627Y021258D01*
X021536Y021386D02*
X021624Y021422D01*
X021536Y021386D02*
X021355Y021386D01*
X021188Y021455D01*
X021089Y021554D02*
X020933Y021554D01*
X020860Y021652D02*
X021031Y021652D01*
X020990Y021751D02*
X020900Y021751D01*
X020900Y021849D02*
X020990Y021849D01*
X020997Y021948D02*
X020894Y021948D01*
X020853Y022046D02*
X021038Y022046D01*
X021106Y022145D02*
X020785Y022145D01*
X020663Y022243D02*
X021227Y022243D01*
X021663Y022243D02*
X022227Y022243D01*
X022106Y022145D02*
X021785Y022145D01*
X021853Y022046D02*
X022038Y022046D01*
X021997Y021948D02*
X021894Y021948D01*
X021900Y021849D02*
X021990Y021849D01*
X021990Y021751D02*
X021900Y021751D01*
X021874Y021652D02*
X022031Y021652D01*
X021973Y021554D02*
X022089Y021554D01*
X022188Y021455D02*
X022275Y021419D01*
X022275Y021406D01*
X022371Y021310D01*
X022334Y021304D01*
X022263Y021281D01*
X022196Y021247D01*
X022136Y021203D01*
X022120Y021187D01*
X022120Y021406D01*
X022120Y021357D02*
X022325Y021357D01*
X022218Y021258D02*
X022120Y021258D01*
X021264Y021258D02*
X021070Y021258D01*
X021070Y021160D02*
X021121Y021160D01*
X020730Y021258D02*
X020627Y021258D01*
X020536Y021386D02*
X020355Y021386D01*
X020188Y021455D01*
X020264Y021258D02*
X019627Y021258D01*
X019770Y021160D02*
X020121Y021160D01*
X020044Y021061D02*
X019847Y021061D01*
X019887Y020963D02*
X020003Y020963D01*
X019990Y020864D02*
X019900Y020864D01*
X019900Y020766D02*
X019990Y020766D01*
X020025Y020667D02*
X019866Y020667D01*
X019958Y020569D02*
X020074Y020569D01*
X020056Y020470D02*
X020173Y020470D01*
X019264Y021258D02*
X019070Y021258D01*
X019070Y021160D02*
X019121Y021160D01*
X019395Y021455D02*
X019495Y021455D01*
X019495Y021554D02*
X019395Y021554D01*
X019395Y021652D02*
X019495Y021652D01*
X019495Y021751D02*
X019395Y021751D01*
X019395Y022046D02*
X019495Y022046D01*
X019495Y022145D02*
X019395Y022145D01*
X019395Y022243D02*
X019495Y022243D01*
X019700Y022243D02*
X020227Y022243D01*
X020106Y022145D02*
X019812Y022145D01*
X019874Y022046D02*
X020038Y022046D01*
X019997Y021948D02*
X019909Y021948D01*
X020536Y021386D02*
X020602Y021413D01*
X024817Y020175D02*
X025606Y020175D01*
X025606Y020273D02*
X025037Y020273D01*
X025154Y020372D02*
X025606Y020372D01*
X025606Y020470D02*
X025271Y020470D01*
X025361Y020569D02*
X025606Y020569D01*
X025606Y020667D02*
X025418Y020667D01*
X025475Y020766D02*
X025606Y020766D01*
X025606Y020864D02*
X025532Y020864D01*
X025566Y020963D02*
X025606Y020963D01*
X025606Y021061D02*
X025584Y021061D01*
X025601Y021160D02*
X025606Y021160D01*
X018124Y016629D02*
X012233Y016629D01*
X011640Y018796D02*
X011570Y018796D01*
X011570Y019485D02*
X011577Y019485D01*
X011570Y019584D02*
X011719Y019584D01*
X011730Y019682D02*
X011570Y019682D01*
X011570Y019781D02*
X011730Y019781D01*
X011730Y019879D02*
X011570Y019879D01*
X011570Y019978D02*
X011730Y019978D01*
X011730Y020076D02*
X011570Y020076D01*
X011570Y020175D02*
X011730Y020175D01*
X011730Y020273D02*
X011570Y020273D01*
X011570Y020372D02*
X011736Y020372D01*
X011718Y020470D02*
X011834Y020470D01*
X011817Y020569D02*
X011933Y020569D01*
X012627Y021258D02*
X013264Y021258D01*
X013355Y021386D02*
X013188Y021455D01*
X013355Y021386D02*
X013536Y021386D01*
X013703Y021455D01*
X013121Y021160D02*
X012770Y021160D01*
X012847Y021061D02*
X013044Y021061D01*
X013003Y020963D02*
X012887Y020963D01*
X012900Y020864D02*
X012990Y020864D01*
X012990Y020766D02*
X012900Y020766D01*
X012866Y020667D02*
X013025Y020667D01*
X012933Y020569D02*
X012817Y020569D01*
X012834Y020470D02*
X012718Y020470D01*
X012495Y021455D02*
X012395Y021455D01*
X012395Y021554D02*
X012495Y021554D01*
X012495Y021652D02*
X012395Y021652D01*
X012395Y021751D02*
X012495Y021751D01*
X012495Y022046D02*
X012395Y022046D01*
X012395Y022145D02*
X012495Y022145D01*
X012495Y022243D02*
X012395Y022243D01*
X012700Y022243D02*
X013227Y022243D01*
X013106Y022145D02*
X012812Y022145D01*
X012874Y022046D02*
X013038Y022046D01*
X012997Y021948D02*
X012909Y021948D01*
X010703Y021455D02*
X010536Y021386D01*
X010355Y021386D01*
X010188Y021455D01*
X010264Y021258D02*
X009627Y021258D01*
X009770Y021160D02*
X010121Y021160D01*
X010044Y021061D02*
X009847Y021061D01*
X009887Y020963D02*
X010003Y020963D01*
X009990Y020864D02*
X009900Y020864D01*
X009900Y020766D02*
X009990Y020766D01*
X010025Y020667D02*
X009866Y020667D01*
X009817Y020569D02*
X009933Y020569D01*
X009834Y020470D02*
X009718Y020470D01*
X009736Y020372D02*
X009288Y020372D01*
X009209Y020273D02*
X009730Y020273D01*
X009730Y020175D02*
X009131Y020175D01*
X009052Y020076D02*
X009730Y020076D01*
X009730Y019978D02*
X009027Y019978D01*
X009032Y019879D02*
X009730Y019879D01*
X009730Y019781D02*
X009037Y019781D01*
X009043Y019682D02*
X009730Y019682D01*
X009719Y019584D02*
X009081Y019584D01*
X009223Y019485D02*
X009577Y019485D01*
X009502Y019387D02*
X009298Y019387D01*
X009339Y019288D02*
X009461Y019288D01*
X009450Y019190D02*
X009350Y019190D01*
X009350Y019091D02*
X009450Y019091D01*
X009487Y018993D02*
X009313Y018993D01*
X009259Y018894D02*
X009541Y018894D01*
X009640Y018796D02*
X009160Y018796D01*
X008640Y018796D02*
X008160Y018796D01*
X008259Y018894D02*
X008541Y018894D01*
X008487Y018993D02*
X008313Y018993D01*
X008350Y019091D02*
X008450Y019091D01*
X008450Y019190D02*
X008350Y019190D01*
X008339Y019288D02*
X008461Y019288D01*
X008502Y019387D02*
X008298Y019387D01*
X008223Y019485D02*
X008577Y019485D01*
X008707Y019584D02*
X008102Y019584D01*
X008201Y019682D02*
X008702Y019682D01*
X008697Y019781D02*
X008299Y019781D01*
X008398Y019879D02*
X008691Y019879D01*
X008686Y019978D02*
X008496Y019978D01*
X008595Y020076D02*
X008681Y020076D01*
X008311Y020273D02*
X008118Y020273D01*
X008213Y020175D02*
X008019Y020175D01*
X008114Y020076D02*
X007921Y020076D01*
X008016Y019978D02*
X007822Y019978D01*
X007917Y019879D02*
X007724Y019879D01*
X007819Y019781D02*
X007625Y019781D01*
X007527Y019682D02*
X007730Y019682D01*
X007719Y019584D02*
X007428Y019584D01*
X007330Y019485D02*
X007577Y019485D01*
X007502Y019387D02*
X007298Y019387D01*
X007339Y019288D02*
X007461Y019288D01*
X007450Y019190D02*
X007350Y019190D01*
X007350Y019091D02*
X007450Y019091D01*
X007487Y018993D02*
X007313Y018993D01*
X007259Y018894D02*
X007541Y018894D01*
X007640Y018796D02*
X007160Y018796D01*
X006640Y018796D02*
X006182Y018796D01*
X006206Y018813D02*
X006258Y018865D01*
X006302Y018925D01*
X006336Y018991D01*
X006358Y019061D01*
X006368Y019121D01*
X005950Y019121D01*
X005950Y018704D01*
X006010Y018713D01*
X006080Y018736D01*
X006146Y018770D01*
X006206Y018813D01*
X006279Y018894D02*
X006541Y018894D01*
X006487Y018993D02*
X006336Y018993D01*
X006363Y019091D02*
X006450Y019091D01*
X006450Y019190D02*
X005950Y019190D01*
X005950Y019221D02*
X005950Y019121D01*
X005850Y019121D01*
X005850Y018704D01*
X005790Y018713D01*
X005720Y018736D01*
X005654Y018770D01*
X005594Y018813D01*
X005542Y018865D01*
X005498Y018925D01*
X005464Y018991D01*
X005442Y019061D01*
X005432Y019121D01*
X005850Y019121D01*
X005850Y019221D01*
X005432Y019221D01*
X005442Y019282D01*
X005464Y019352D01*
X005498Y019418D01*
X005542Y019478D01*
X005594Y019530D01*
X005654Y019573D01*
X005720Y019607D01*
X005790Y019630D01*
X005850Y019639D01*
X005850Y019222D01*
X005950Y019222D01*
X005950Y019639D01*
X006010Y019630D01*
X006080Y019607D01*
X006146Y019573D01*
X006206Y019530D01*
X006258Y019478D01*
X006302Y019418D01*
X006336Y019352D01*
X006358Y019282D01*
X006368Y019221D01*
X005950Y019221D01*
X005950Y019288D02*
X005850Y019288D01*
X005850Y019190D02*
X005350Y019190D01*
X005339Y019288D02*
X005444Y019288D01*
X005482Y019387D02*
X005298Y019387D01*
X005330Y019485D02*
X005549Y019485D01*
X005428Y019584D02*
X005673Y019584D01*
X005527Y019682D02*
X007046Y019682D01*
X007145Y019781D02*
X005625Y019781D01*
X005724Y019879D02*
X007243Y019879D01*
X007342Y019978D02*
X005822Y019978D01*
X005921Y020076D02*
X007440Y020076D01*
X007539Y020175D02*
X006019Y020175D01*
X006118Y020273D02*
X007637Y020273D01*
X007628Y020401D02*
X007694Y020435D01*
X007755Y020478D01*
X007808Y020531D01*
X007852Y020592D01*
X007885Y020658D01*
X007909Y020730D01*
X007918Y020791D01*
X007495Y020791D01*
X007495Y020368D01*
X007557Y020377D01*
X007628Y020401D01*
X007736Y020372D02*
X007519Y020372D01*
X007495Y020372D02*
X007395Y020372D01*
X007395Y020368D02*
X007395Y020791D01*
X006972Y020791D01*
X006982Y020730D01*
X007005Y020658D01*
X007039Y020592D01*
X007083Y020531D01*
X007136Y020478D01*
X007196Y020435D01*
X007263Y020401D01*
X007334Y020377D01*
X007395Y020368D01*
X007372Y020372D02*
X006216Y020372D01*
X006718Y020470D02*
X007147Y020470D01*
X007056Y020569D02*
X006817Y020569D01*
X006866Y020667D02*
X007002Y020667D01*
X006976Y020766D02*
X006900Y020766D01*
X006900Y020864D02*
X007395Y020864D01*
X007395Y020891D02*
X007395Y020791D01*
X007495Y020791D01*
X007495Y020891D01*
X007395Y020891D01*
X006972Y020891D01*
X006982Y020952D01*
X007005Y021023D01*
X007039Y021090D01*
X007083Y021150D01*
X007136Y021203D01*
X007196Y021247D01*
X007263Y021281D01*
X007334Y021304D01*
X007395Y021314D01*
X007395Y020891D01*
X007395Y020963D02*
X007495Y020963D01*
X007495Y020891D02*
X007495Y021314D01*
X007557Y021304D01*
X007628Y021281D01*
X007694Y021247D01*
X007755Y021203D01*
X007808Y021150D01*
X007852Y021090D01*
X007885Y021023D01*
X007909Y020952D01*
X007918Y020891D01*
X007495Y020891D01*
X007495Y020864D02*
X007990Y020864D01*
X007990Y020766D02*
X007914Y020766D01*
X007888Y020667D02*
X008025Y020667D01*
X007933Y020569D02*
X007835Y020569D01*
X007834Y020470D02*
X007743Y020470D01*
X007495Y020470D02*
X007395Y020470D01*
X007395Y020569D02*
X007495Y020569D01*
X007495Y020667D02*
X007395Y020667D01*
X007395Y020766D02*
X007495Y020766D01*
X007495Y021061D02*
X007395Y021061D01*
X007395Y021160D02*
X007495Y021160D01*
X007495Y021258D02*
X007395Y021258D01*
X007218Y021258D02*
X007153Y021258D01*
X007092Y021160D02*
X006770Y021160D01*
X006847Y021061D02*
X007024Y021061D01*
X006985Y020963D02*
X006887Y020963D01*
X007241Y021357D02*
X008689Y021357D01*
X008627Y021258D02*
X008780Y021258D01*
X008770Y021160D02*
X008780Y021160D01*
X009120Y021160D02*
X009121Y021160D01*
X009120Y021258D02*
X009264Y021258D01*
X009395Y021455D02*
X009495Y021455D01*
X009495Y021554D02*
X009395Y021554D01*
X009395Y021652D02*
X009495Y021652D01*
X009495Y021751D02*
X009395Y021751D01*
X009395Y022046D02*
X009495Y022046D01*
X009495Y022145D02*
X009395Y022145D01*
X009395Y022243D02*
X009495Y022243D01*
X009700Y022243D02*
X010227Y022243D01*
X010106Y022145D02*
X009812Y022145D01*
X009874Y022046D02*
X010038Y022046D01*
X009997Y021948D02*
X009909Y021948D01*
X009191Y022243D02*
X008663Y022243D01*
X008785Y022145D02*
X009079Y022145D01*
X009017Y022046D02*
X008853Y022046D01*
X008894Y021948D02*
X008981Y021948D01*
X008227Y022243D02*
X007663Y022243D01*
X007785Y022145D02*
X008106Y022145D01*
X008038Y022046D02*
X007853Y022046D01*
X007894Y021948D02*
X007997Y021948D01*
X007990Y021849D02*
X007900Y021849D01*
X007900Y021751D02*
X007990Y021751D01*
X008031Y021652D02*
X007860Y021652D01*
X007831Y021583D02*
X007703Y021455D01*
X007673Y021258D02*
X008264Y021258D01*
X008121Y021160D02*
X007798Y021160D01*
X007866Y021061D02*
X008044Y021061D01*
X008003Y020963D02*
X007905Y020963D01*
X008216Y020372D02*
X008410Y020372D01*
X007830Y019791D02*
X007830Y019791D01*
X006719Y019584D02*
X006127Y019584D01*
X006251Y019485D02*
X006577Y019485D01*
X006502Y019387D02*
X006318Y019387D01*
X006356Y019288D02*
X006461Y019288D01*
X005950Y019387D02*
X005850Y019387D01*
X005850Y019485D02*
X005950Y019485D01*
X005950Y019584D02*
X005850Y019584D01*
X005850Y019091D02*
X005950Y019091D01*
X005950Y018993D02*
X005850Y018993D01*
X005850Y018894D02*
X005950Y018894D01*
X005950Y018796D02*
X005850Y018796D01*
X005618Y018796D02*
X005160Y018796D01*
X005259Y018894D02*
X005521Y018894D01*
X005464Y018993D02*
X005313Y018993D01*
X005350Y019091D02*
X005437Y019091D01*
X004719Y019584D02*
X004675Y019584D01*
X004577Y019485D02*
X004554Y019485D01*
X004502Y019387D02*
X004433Y019387D01*
X004461Y019288D02*
X004339Y019288D01*
X004350Y019190D02*
X004450Y019190D01*
X004450Y019091D02*
X004350Y019091D01*
X004313Y018993D02*
X004487Y018993D01*
X004541Y018894D02*
X004259Y018894D01*
X004160Y018796D02*
X004640Y018796D01*
X003640Y018796D02*
X003160Y018796D01*
X003259Y018894D02*
X003541Y018894D01*
X003487Y018993D02*
X003313Y018993D01*
X003350Y019091D02*
X003450Y019091D01*
X003450Y019190D02*
X003350Y019190D01*
X003339Y019288D02*
X003461Y019288D01*
X003502Y019387D02*
X003298Y019387D01*
X003223Y019485D02*
X003577Y019485D01*
X003719Y019584D02*
X003081Y019584D01*
X003900Y020569D02*
X003933Y020569D01*
X003900Y020667D02*
X004025Y020667D01*
X003990Y020766D02*
X003900Y020766D01*
X003900Y020864D02*
X003990Y020864D01*
X004003Y020963D02*
X003900Y020963D01*
X003900Y021061D02*
X004044Y021061D01*
X004121Y021160D02*
X003900Y021160D01*
X003862Y021258D02*
X004264Y021258D01*
X004188Y021455D02*
X004060Y021583D01*
X004023Y021671D01*
X003867Y021671D01*
X003831Y021583D01*
X003703Y021455D01*
X003802Y021554D02*
X004089Y021554D01*
X004031Y021652D02*
X003860Y021652D01*
X003853Y022046D02*
X004038Y022046D01*
X004106Y022145D02*
X003785Y022145D01*
X003663Y022243D02*
X004227Y022243D01*
X004663Y022243D02*
X005191Y022243D01*
X005079Y022145D02*
X004785Y022145D01*
X004853Y022046D02*
X005017Y022046D01*
X004981Y021948D02*
X004894Y021948D01*
X004900Y021849D02*
X005395Y021849D01*
X005395Y021751D02*
X005495Y021751D01*
X005495Y021849D02*
X005990Y021849D01*
X005990Y021751D02*
X005912Y021751D01*
X005882Y021652D02*
X006031Y021652D01*
X006089Y021554D02*
X005824Y021554D01*
X005722Y021455D02*
X006136Y021455D01*
X006021Y021357D02*
X002796Y021357D01*
X001074Y020175D02*
X000285Y020175D01*
X000285Y020273D02*
X000854Y020273D01*
X000737Y020372D02*
X000285Y020372D01*
X000285Y020470D02*
X000619Y020470D01*
X000529Y020569D02*
X000285Y020569D01*
X000285Y020667D02*
X000472Y020667D01*
X000415Y020766D02*
X000285Y020766D01*
X000285Y020864D02*
X000358Y020864D01*
X000324Y020963D02*
X000285Y020963D01*
X000285Y021061D02*
X000307Y021061D01*
X000289Y021160D02*
X000285Y021160D01*
X004627Y021258D02*
X005264Y021258D01*
X005121Y021160D02*
X004770Y021160D01*
X004847Y021061D02*
X005044Y021061D01*
X005003Y020963D02*
X004887Y020963D01*
X004900Y020864D02*
X004990Y020864D01*
X004990Y020766D02*
X004900Y020766D01*
X004866Y020667D02*
X004947Y020667D01*
X004820Y020569D02*
X004817Y020569D01*
X005279Y020076D02*
X005440Y020076D01*
X005342Y019978D02*
X005158Y019978D01*
X005243Y019879D02*
X005037Y019879D01*
X005145Y019781D02*
X004917Y019781D01*
X004796Y019682D02*
X005046Y019682D01*
X005770Y021160D02*
X005792Y021160D01*
X005906Y021258D02*
X005627Y021258D01*
X005495Y021455D02*
X005395Y021455D01*
X005395Y021554D02*
X005495Y021554D01*
X005495Y021652D02*
X005395Y021652D01*
X005395Y021948D02*
X005495Y021948D01*
X005495Y022046D02*
X005395Y022046D01*
X005395Y022145D02*
X005495Y022145D01*
X005495Y022243D02*
X005395Y022243D01*
X005700Y022243D02*
X006227Y022243D01*
X006106Y022145D02*
X005812Y022145D01*
X005874Y022046D02*
X006038Y022046D01*
X005997Y021948D02*
X005909Y021948D01*
X006663Y022243D02*
X007227Y022243D01*
X007106Y022145D02*
X006785Y022145D01*
X006853Y022046D02*
X007038Y022046D01*
X006997Y021948D02*
X006894Y021948D01*
X006900Y021849D02*
X006990Y021849D01*
X006990Y021751D02*
X006900Y021751D01*
X006860Y021652D02*
X007031Y021652D01*
X006961Y021554D02*
X006802Y021554D01*
X005008Y021652D02*
X004860Y021652D01*
X004831Y021583D02*
X004703Y021455D01*
X004900Y021751D02*
X004979Y021751D01*
X011081Y019584D02*
X011230Y019584D01*
X011223Y019485D02*
X011230Y019485D01*
X016914Y013181D02*
X021368Y013181D01*
X021368Y013083D02*
X016825Y013083D01*
X016737Y012984D02*
X021368Y012984D01*
X021400Y012886D02*
X016648Y012886D01*
X016560Y012787D02*
X025606Y012787D01*
X025606Y012689D02*
X016471Y012689D01*
X016383Y012590D02*
X025606Y012590D01*
X025606Y012492D02*
X016295Y012492D01*
X016206Y012393D02*
X025606Y012393D01*
X025606Y012295D02*
X016164Y012295D01*
X016164Y012196D02*
X025606Y012196D01*
X025606Y012098D02*
X016164Y012098D01*
X016164Y011999D02*
X025606Y011999D01*
X025606Y011901D02*
X016164Y011901D01*
X016164Y011802D02*
X025606Y011802D01*
X025606Y011704D02*
X016164Y011704D01*
X016164Y011605D02*
X025606Y011605D01*
X025606Y011507D02*
X016164Y011507D01*
X016164Y011408D02*
X025606Y011408D01*
X025606Y011310D02*
X016164Y011310D01*
X016164Y011211D02*
X025606Y011211D01*
X025606Y011113D02*
X016164Y011113D01*
X016164Y011014D02*
X025606Y011014D01*
X025606Y010916D02*
X016164Y010916D01*
X016164Y010817D02*
X025606Y010817D01*
X025606Y010719D02*
X016164Y010719D01*
X016164Y010620D02*
X025606Y010620D01*
X025606Y010522D02*
X016164Y010522D01*
X016164Y010423D02*
X025606Y010423D01*
X025606Y010325D02*
X016164Y010325D01*
X016164Y010226D02*
X025606Y010226D01*
X025606Y010128D02*
X016164Y010128D01*
X016164Y010029D02*
X025606Y010029D01*
X025606Y009931D02*
X016164Y009931D01*
X016164Y009832D02*
X016299Y009832D01*
X016487Y009832D02*
X016525Y009832D01*
X016525Y009734D02*
X016487Y009734D01*
X016487Y009635D02*
X016525Y009635D01*
X016525Y009537D02*
X025606Y009537D01*
X025606Y009635D02*
X016794Y009635D01*
X016790Y009734D02*
X025606Y009734D01*
X025606Y009832D02*
X016713Y009832D01*
X016794Y009438D02*
X025606Y009438D01*
X025606Y009340D02*
X016794Y009340D01*
X016753Y009241D02*
X025606Y009241D01*
X025606Y009143D02*
X015769Y009143D01*
X015776Y009241D02*
X015524Y009241D01*
X015574Y009340D02*
X015726Y009340D01*
X015726Y009734D02*
X015574Y009734D01*
X016212Y009241D02*
X016259Y009241D01*
X016487Y009241D02*
X016525Y009241D01*
X016525Y009340D02*
X016487Y009340D01*
X016487Y009438D02*
X016525Y009438D01*
X016092Y009044D02*
X025606Y009044D01*
X025606Y008946D02*
X016183Y008946D01*
X016224Y008847D02*
X025606Y008847D01*
X025606Y008749D02*
X016228Y008749D01*
X016205Y008650D02*
X025606Y008650D01*
X025606Y008552D02*
X016144Y008552D01*
X015989Y008453D02*
X025606Y008453D01*
X025606Y008355D02*
X017872Y008355D01*
X017970Y008256D02*
X025606Y008256D01*
X025606Y008158D02*
X018069Y008158D01*
X018167Y008059D02*
X025606Y008059D01*
X025606Y007961D02*
X018266Y007961D01*
X018330Y007862D02*
X025606Y007862D01*
X025606Y007764D02*
X018330Y007764D01*
X018320Y007665D02*
X025606Y007665D01*
X025606Y007567D02*
X018320Y007567D01*
X018320Y007468D02*
X025606Y007468D01*
X025606Y007370D02*
X018320Y007370D01*
X018320Y007271D02*
X025606Y007271D01*
X025606Y007173D02*
X018320Y007173D01*
X018320Y007074D02*
X025606Y007074D01*
X025606Y006976D02*
X018320Y006976D01*
X018320Y006877D02*
X025606Y006877D01*
X025606Y006779D02*
X018320Y006779D01*
X018320Y006680D02*
X025606Y006680D01*
X025606Y006582D02*
X018320Y006582D01*
X018326Y006483D02*
X025606Y006483D01*
X025606Y006385D02*
X018305Y006385D01*
X018176Y006286D02*
X025606Y006286D01*
X025606Y006188D02*
X018022Y006188D01*
X017869Y006089D02*
X025606Y006089D01*
X025606Y005991D02*
X017716Y005991D01*
X017562Y005892D02*
X025606Y005892D01*
X025606Y005794D02*
X017409Y005794D01*
X017256Y005695D02*
X025606Y005695D01*
X025606Y005597D02*
X017102Y005597D01*
X016949Y005498D02*
X025606Y005498D01*
X025606Y005400D02*
X016795Y005400D01*
X016643Y005104D02*
X025606Y005104D01*
X025606Y005006D02*
X016643Y005006D01*
X016643Y004907D02*
X025606Y004907D01*
X025606Y004809D02*
X016643Y004809D01*
X016643Y004710D02*
X025606Y004710D01*
X025606Y004612D02*
X016643Y004612D01*
X016643Y004513D02*
X025606Y004513D01*
X025606Y004415D02*
X016643Y004415D01*
X016643Y004316D02*
X025606Y004316D01*
X025606Y004218D02*
X016643Y004218D01*
X016643Y004119D02*
X025606Y004119D01*
X025606Y004021D02*
X016643Y004021D01*
X016643Y003922D02*
X025606Y003922D01*
X025606Y003824D02*
X016643Y003824D01*
X016643Y003725D02*
X025606Y003725D01*
X025606Y003627D02*
X016643Y003627D01*
X016643Y003528D02*
X025606Y003528D01*
X025606Y003430D02*
X016643Y003430D01*
X016643Y003331D02*
X025606Y003331D01*
X025606Y003233D02*
X024770Y003233D01*
X025017Y003134D02*
X025606Y003134D01*
X025606Y003036D02*
X025134Y003036D01*
X025251Y002937D02*
X025606Y002937D01*
X025606Y002839D02*
X025352Y002839D01*
X025409Y002740D02*
X025606Y002740D01*
X025606Y002642D02*
X025466Y002642D01*
X025522Y002543D02*
X025606Y002543D01*
X025606Y002445D02*
X025563Y002445D01*
X025581Y002346D02*
X025605Y002346D01*
X025598Y002248D02*
X025616Y002248D01*
X025616Y002149D02*
X025625Y002149D01*
X023955Y003233D02*
X016643Y003233D01*
X016643Y003134D02*
X023709Y003134D01*
X023591Y003036D02*
X016643Y003036D01*
X016643Y002937D02*
X023474Y002937D01*
X023373Y002839D02*
X016643Y002839D01*
X016643Y002740D02*
X023317Y002740D01*
X023260Y002642D02*
X016643Y002642D01*
X016643Y002543D02*
X023203Y002543D01*
X023162Y002445D02*
X016643Y002445D01*
X016643Y002346D02*
X023144Y002346D01*
X023127Y002248D02*
X016643Y002248D01*
X016643Y002149D02*
X023110Y002149D01*
X023092Y002050D02*
X019620Y002050D01*
X019531Y002087D02*
X019320Y002087D01*
X019125Y002007D01*
X018976Y001858D01*
X018896Y001663D01*
X018896Y001452D01*
X018976Y001257D01*
X019125Y001108D01*
X019320Y001027D01*
X019531Y001027D01*
X019726Y001108D01*
X019875Y001257D01*
X019956Y001452D01*
X019956Y001663D01*
X019875Y001858D01*
X019726Y002007D01*
X019531Y002087D01*
X019780Y001952D02*
X023109Y001952D01*
X023127Y001853D02*
X019877Y001853D01*
X019917Y001755D02*
X023144Y001755D01*
X023161Y001656D02*
X019956Y001656D01*
X019956Y001558D02*
X023202Y001558D01*
X023258Y001459D02*
X019956Y001459D01*
X019918Y001361D02*
X023315Y001361D01*
X023372Y001262D02*
X019877Y001262D01*
X019782Y001164D02*
X023471Y001164D01*
X023589Y001065D02*
X019623Y001065D01*
X019228Y001065D02*
X018568Y001065D01*
X018587Y001099D01*
X018598Y001138D01*
X018598Y001507D01*
X018098Y001507D01*
X018098Y001607D01*
X018598Y001607D01*
X018598Y001977D01*
X018587Y002015D01*
X018568Y002049D01*
X018540Y002077D01*
X018506Y002097D01*
X018467Y002107D01*
X018098Y002107D01*
X018098Y001607D01*
X017998Y001607D01*
X017998Y001507D01*
X018098Y001507D01*
X018098Y001007D01*
X018467Y001007D01*
X018506Y001018D01*
X018540Y001037D01*
X018568Y001065D01*
X018598Y001164D02*
X019069Y001164D01*
X018974Y001262D02*
X018598Y001262D01*
X018598Y001361D02*
X018933Y001361D01*
X018896Y001459D02*
X018598Y001459D01*
X018598Y001656D02*
X018896Y001656D01*
X018896Y001558D02*
X018098Y001558D01*
X018098Y001656D02*
X017998Y001656D01*
X017998Y001607D02*
X017998Y002107D01*
X017628Y002107D01*
X017590Y002097D01*
X017556Y002077D01*
X017528Y002049D01*
X017508Y002015D01*
X017498Y001977D01*
X017498Y001607D01*
X017998Y001607D01*
X017998Y001558D02*
X017003Y001558D01*
X017003Y001656D02*
X017498Y001656D01*
X017498Y001755D02*
X016965Y001755D01*
X016924Y001853D02*
X017498Y001853D01*
X017498Y001952D02*
X016828Y001952D01*
X016667Y002050D02*
X017529Y002050D01*
X017998Y002050D02*
X018098Y002050D01*
X018098Y001952D02*
X017998Y001952D01*
X017998Y001853D02*
X018098Y001853D01*
X018098Y001755D02*
X017998Y001755D01*
X017998Y001507D02*
X017498Y001507D01*
X017498Y001138D01*
X017508Y001099D01*
X017528Y001065D01*
X017556Y001037D01*
X017590Y001018D01*
X017628Y001007D01*
X017998Y001007D01*
X017998Y001507D01*
X017998Y001459D02*
X018098Y001459D01*
X018098Y001361D02*
X017998Y001361D01*
X017998Y001262D02*
X018098Y001262D01*
X018098Y001164D02*
X017998Y001164D01*
X017998Y001065D02*
X018098Y001065D01*
X017527Y001065D02*
X016670Y001065D01*
X016829Y001164D02*
X017498Y001164D01*
X017498Y001262D02*
X016924Y001262D01*
X016965Y001361D02*
X017498Y001361D01*
X017498Y001459D02*
X017003Y001459D01*
X016275Y001065D02*
X016120Y001065D01*
X016086Y000967D02*
X023706Y000967D01*
X023949Y000868D02*
X015987Y000868D01*
X015780Y001142D02*
X015680Y001041D01*
X015563Y001041D01*
X015625Y001103D01*
X015625Y002011D01*
X015549Y002087D01*
X015265Y002087D01*
X015265Y005192D01*
X015314Y005143D01*
X015435Y005093D01*
X015565Y005093D01*
X015686Y005143D01*
X015778Y005235D01*
X015828Y005356D01*
X015828Y005487D01*
X015778Y005608D01*
X015686Y005700D01*
X015670Y005707D01*
X015670Y006292D01*
X015684Y006284D01*
X015722Y006273D01*
X015846Y006273D01*
X015846Y006656D01*
X015854Y006656D01*
X015854Y006273D01*
X015978Y006273D01*
X016016Y006284D01*
X016050Y006303D01*
X016051Y006304D01*
X016054Y006301D01*
X016054Y002416D01*
X015880Y002241D01*
X015780Y002142D01*
X015780Y001142D01*
X015780Y001164D02*
X015625Y001164D01*
X015625Y001262D02*
X015780Y001262D01*
X015780Y001361D02*
X015625Y001361D01*
X015625Y001459D02*
X015780Y001459D01*
X015780Y001558D02*
X015625Y001558D01*
X015625Y001656D02*
X015780Y001656D01*
X015780Y001755D02*
X015625Y001755D01*
X015625Y001853D02*
X015780Y001853D01*
X015780Y001952D02*
X015625Y001952D01*
X015586Y002050D02*
X015780Y002050D01*
X015787Y002149D02*
X015265Y002149D01*
X015265Y002248D02*
X015886Y002248D01*
X015984Y002346D02*
X015265Y002346D01*
X015265Y002445D02*
X016054Y002445D01*
X016054Y002543D02*
X015265Y002543D01*
X015265Y002642D02*
X016054Y002642D01*
X016054Y002740D02*
X015265Y002740D01*
X015265Y002839D02*
X016054Y002839D01*
X016054Y002937D02*
X015265Y002937D01*
X015265Y003036D02*
X016054Y003036D01*
X016054Y003134D02*
X015265Y003134D01*
X015265Y003233D02*
X016054Y003233D01*
X016054Y003331D02*
X015265Y003331D01*
X015265Y003430D02*
X016054Y003430D01*
X016054Y003528D02*
X015265Y003528D01*
X015265Y003627D02*
X016054Y003627D01*
X016054Y003725D02*
X015265Y003725D01*
X015265Y003824D02*
X016054Y003824D01*
X016054Y003922D02*
X015265Y003922D01*
X015265Y004021D02*
X016054Y004021D01*
X016054Y004119D02*
X015265Y004119D01*
X015265Y004218D02*
X016054Y004218D01*
X016054Y004316D02*
X015265Y004316D01*
X015265Y004415D02*
X016054Y004415D01*
X016054Y004513D02*
X015265Y004513D01*
X015265Y004612D02*
X016054Y004612D01*
X016054Y004710D02*
X015265Y004710D01*
X015265Y004809D02*
X016054Y004809D01*
X016054Y004907D02*
X015265Y004907D01*
X015265Y005006D02*
X016054Y005006D01*
X016054Y005104D02*
X015592Y005104D01*
X015745Y005203D02*
X016054Y005203D01*
X016054Y005301D02*
X015806Y005301D01*
X015828Y005400D02*
X016054Y005400D01*
X016054Y005498D02*
X015824Y005498D01*
X015783Y005597D02*
X016054Y005597D01*
X016054Y005695D02*
X015691Y005695D01*
X015670Y005794D02*
X016054Y005794D01*
X016054Y005892D02*
X015670Y005892D01*
X015670Y005991D02*
X016054Y005991D01*
X016054Y006089D02*
X015670Y006089D01*
X015670Y006188D02*
X016054Y006188D01*
X016054Y006286D02*
X016020Y006286D01*
X015854Y006286D02*
X015846Y006286D01*
X015846Y006385D02*
X015854Y006385D01*
X015846Y006483D02*
X015854Y006483D01*
X015846Y006582D02*
X015854Y006582D01*
X015854Y006664D02*
X015854Y006935D01*
X015846Y006927D01*
X015846Y006664D01*
X015854Y006664D01*
X015854Y006680D02*
X015846Y006680D01*
X015846Y006779D02*
X015854Y006779D01*
X015846Y006877D02*
X015854Y006877D01*
X015965Y007046D02*
X016020Y007101D01*
X016020Y007325D01*
X016037Y007342D01*
X016062Y007317D01*
X016386Y007317D01*
X016426Y007357D01*
X017093Y007357D01*
X017093Y007336D01*
X017146Y007282D01*
X017131Y007273D01*
X017103Y007245D01*
X017083Y007211D01*
X017073Y007173D01*
X017073Y007034D01*
X017381Y007034D01*
X017381Y006997D01*
X017073Y006997D01*
X017073Y006858D01*
X017083Y006820D01*
X017103Y006786D01*
X017131Y006758D01*
X017165Y006738D01*
X017203Y006728D01*
X017381Y006728D01*
X017381Y006997D01*
X017419Y006997D01*
X017419Y007034D01*
X017727Y007034D01*
X017727Y007173D01*
X017717Y007211D01*
X017697Y007245D01*
X017669Y007273D01*
X017654Y007282D01*
X017707Y007336D01*
X017707Y007719D01*
X017631Y007795D01*
X017169Y007795D01*
X017093Y007719D01*
X017093Y007697D01*
X016462Y007697D01*
X016462Y007973D01*
X016386Y008050D01*
X016062Y008050D01*
X016037Y008025D01*
X016012Y008050D01*
X015694Y008050D01*
X015736Y008091D01*
X017625Y008091D01*
X017980Y007737D01*
X017980Y006564D01*
X016423Y005564D01*
X016402Y005564D01*
X016394Y005556D01*
X016394Y006301D01*
X016462Y006370D01*
X016462Y006950D01*
X016386Y007026D01*
X016062Y007026D01*
X016051Y007015D01*
X016050Y007016D01*
X016016Y007036D01*
X015978Y007046D01*
X015965Y007046D01*
X015993Y007074D02*
X017073Y007074D01*
X017073Y006976D02*
X016436Y006976D01*
X016462Y006877D02*
X017073Y006877D01*
X017110Y006779D02*
X016462Y006779D01*
X016462Y006680D02*
X017980Y006680D01*
X017980Y006582D02*
X016462Y006582D01*
X016462Y006483D02*
X017853Y006483D01*
X017700Y006385D02*
X016462Y006385D01*
X016394Y006286D02*
X017547Y006286D01*
X017393Y006188D02*
X016394Y006188D01*
X016394Y006089D02*
X017240Y006089D01*
X017087Y005991D02*
X016394Y005991D01*
X016394Y005892D02*
X016933Y005892D01*
X016780Y005794D02*
X016394Y005794D01*
X016394Y005695D02*
X016626Y005695D01*
X016473Y005597D02*
X016394Y005597D01*
X015680Y006286D02*
X015670Y006286D01*
X014925Y006286D02*
X014144Y006286D01*
X014144Y006385D02*
X014925Y006385D01*
X014925Y006483D02*
X014144Y006483D01*
X014144Y006582D02*
X014925Y006582D01*
X014901Y006680D02*
X014120Y006680D01*
X013875Y006680D02*
X013837Y006680D01*
X013837Y006582D02*
X013875Y006582D01*
X013875Y006483D02*
X013837Y006483D01*
X013837Y006385D02*
X013875Y006385D01*
X013875Y006286D02*
X013837Y006286D01*
X013837Y006188D02*
X013875Y006188D01*
X014134Y006188D02*
X014925Y006188D01*
X014925Y006089D02*
X012862Y006089D01*
X012862Y005991D02*
X014925Y005991D01*
X014925Y005892D02*
X012862Y005892D01*
X012862Y005794D02*
X014925Y005794D01*
X014925Y005695D02*
X012862Y005695D01*
X012794Y005597D02*
X014925Y005597D01*
X014925Y005498D02*
X012794Y005498D01*
X012794Y005400D02*
X014925Y005400D01*
X014925Y005301D02*
X012794Y005301D01*
X012794Y005203D02*
X014925Y005203D01*
X014925Y005104D02*
X012794Y005104D01*
X012794Y005006D02*
X014925Y005006D01*
X014925Y004907D02*
X012794Y004907D01*
X012794Y004809D02*
X014925Y004809D01*
X014925Y004710D02*
X012794Y004710D01*
X012794Y004612D02*
X014925Y004612D01*
X014925Y004513D02*
X012794Y004513D01*
X012794Y004415D02*
X014925Y004415D01*
X014925Y004316D02*
X012794Y004316D01*
X012794Y004218D02*
X014925Y004218D01*
X014925Y004119D02*
X012794Y004119D01*
X012794Y004021D02*
X014925Y004021D01*
X014925Y003922D02*
X012794Y003922D01*
X012794Y003824D02*
X014925Y003824D01*
X014925Y003725D02*
X012794Y003725D01*
X012794Y003627D02*
X014925Y003627D01*
X014925Y003528D02*
X012794Y003528D01*
X012794Y003430D02*
X014925Y003430D01*
X014925Y003331D02*
X012794Y003331D01*
X012794Y003233D02*
X014925Y003233D01*
X014925Y003134D02*
X012794Y003134D01*
X012794Y003036D02*
X014925Y003036D01*
X014925Y002937D02*
X012794Y002937D01*
X012794Y002839D02*
X014925Y002839D01*
X014925Y002740D02*
X012794Y002740D01*
X012794Y002642D02*
X014925Y002642D01*
X014925Y002543D02*
X012794Y002543D01*
X012794Y002445D02*
X014925Y002445D01*
X014925Y002346D02*
X012794Y002346D01*
X012794Y002248D02*
X014925Y002248D01*
X014925Y002149D02*
X012794Y002149D01*
X012794Y002050D02*
X013326Y002050D01*
X013165Y001952D02*
X012777Y001952D01*
X012679Y001853D02*
X013069Y001853D01*
X013028Y001755D02*
X012634Y001755D01*
X012672Y001656D02*
X012990Y001656D01*
X012990Y001558D02*
X012672Y001558D01*
X012672Y001459D02*
X012990Y001459D01*
X013028Y001361D02*
X012634Y001361D01*
X012594Y001262D02*
X013069Y001262D01*
X013164Y001164D02*
X012498Y001164D01*
X012340Y001065D02*
X013322Y001065D01*
X013718Y001065D02*
X013771Y001065D01*
X014055Y001262D02*
X014565Y001262D01*
X014565Y001164D02*
X014154Y001164D01*
X014252Y001065D02*
X014603Y001065D01*
X014565Y001361D02*
X014012Y001361D01*
X014050Y001459D02*
X014565Y001459D01*
X014565Y001558D02*
X014050Y001558D01*
X014050Y001656D02*
X014565Y001656D01*
X014565Y001755D02*
X014012Y001755D01*
X013971Y001853D02*
X014565Y001853D01*
X014565Y001952D02*
X013875Y001952D01*
X013714Y002050D02*
X014604Y002050D01*
X015587Y001065D02*
X015704Y001065D01*
X018598Y001755D02*
X018934Y001755D01*
X018975Y001853D02*
X018598Y001853D01*
X018598Y001952D02*
X019071Y001952D01*
X019231Y002050D02*
X018567Y002050D01*
X015408Y005104D02*
X015265Y005104D01*
X014803Y006779D02*
X013350Y006779D01*
X013299Y006877D02*
X014704Y006877D01*
X014550Y006976D02*
X013213Y006976D01*
X012901Y007074D02*
X014334Y007074D01*
X014117Y007173D02*
X012862Y007173D01*
X012862Y007271D02*
X013900Y007271D01*
X013684Y007370D02*
X012688Y007370D01*
X012352Y007764D02*
X010482Y007764D01*
X010384Y007665D02*
X011853Y007665D01*
X011755Y007567D02*
X010285Y007567D01*
X010002Y007764D02*
X009984Y007764D01*
X009984Y007862D02*
X010100Y007862D01*
X010199Y007961D02*
X009984Y007961D01*
X009984Y008059D02*
X010297Y008059D01*
X011531Y008059D02*
X011569Y008059D01*
X011569Y007961D02*
X011531Y007961D01*
X011531Y008158D02*
X011569Y008158D01*
X011822Y007961D02*
X012078Y007961D01*
X012023Y008059D02*
X011877Y008059D01*
X011680Y007468D02*
X011632Y007468D01*
X012300Y006582D02*
X013069Y006582D01*
X013076Y006483D02*
X012202Y006483D01*
X012103Y006385D02*
X013076Y006385D01*
X013076Y006286D02*
X012826Y006286D01*
X012862Y006188D02*
X013079Y006188D01*
X013018Y006680D02*
X012849Y006680D01*
X012254Y006286D02*
X012246Y006286D01*
X012246Y006188D02*
X012254Y006188D01*
X012246Y006089D02*
X012254Y006089D01*
X012246Y005991D02*
X012254Y005991D01*
X012246Y005892D02*
X012254Y005892D01*
X012246Y005794D02*
X012254Y005794D01*
X012246Y005695D02*
X012254Y005695D01*
X012246Y005597D02*
X012254Y005597D01*
X012438Y005597D02*
X012454Y005597D01*
X012454Y005498D02*
X009220Y005498D01*
X009220Y005400D02*
X012454Y005400D01*
X012454Y005301D02*
X009220Y005301D01*
X009220Y005203D02*
X012454Y005203D01*
X012454Y005104D02*
X009220Y005104D01*
X009220Y005006D02*
X012454Y005006D01*
X012454Y004907D02*
X009220Y004907D01*
X009220Y004809D02*
X012454Y004809D01*
X012454Y004710D02*
X009220Y004710D01*
X009220Y004612D02*
X012454Y004612D01*
X012454Y004513D02*
X009220Y004513D01*
X009220Y004415D02*
X012454Y004415D01*
X012454Y004316D02*
X009220Y004316D01*
X009220Y004218D02*
X012454Y004218D01*
X012454Y004119D02*
X009220Y004119D01*
X009220Y004021D02*
X012454Y004021D01*
X012454Y003922D02*
X009220Y003922D01*
X009220Y003824D02*
X012454Y003824D01*
X012454Y003725D02*
X009220Y003725D01*
X009220Y003627D02*
X012454Y003627D01*
X012454Y003528D02*
X009220Y003528D01*
X009220Y003430D02*
X012454Y003430D01*
X012454Y003331D02*
X009220Y003331D01*
X009220Y003233D02*
X012454Y003233D01*
X012454Y003134D02*
X009289Y003134D01*
X009396Y003036D02*
X012454Y003036D01*
X012454Y002937D02*
X009504Y002937D01*
X009612Y002839D02*
X012454Y002839D01*
X012454Y002740D02*
X009720Y002740D01*
X009828Y002642D02*
X012454Y002642D01*
X012454Y002543D02*
X009936Y002543D01*
X010044Y002445D02*
X012454Y002445D01*
X012454Y002346D02*
X010152Y002346D01*
X010260Y002248D02*
X012454Y002248D01*
X012454Y002149D02*
X010368Y002149D01*
X010187Y001853D02*
X009640Y001853D01*
X009681Y001755D02*
X010234Y001755D01*
X010234Y001656D02*
X009719Y001656D01*
X009719Y001558D02*
X010234Y001558D01*
X010234Y001459D02*
X009719Y001459D01*
X009682Y001361D02*
X010234Y001361D01*
X010234Y001262D02*
X009641Y001262D01*
X009546Y001164D02*
X010234Y001164D01*
X010272Y001065D02*
X009387Y001065D01*
X008992Y001065D02*
X008009Y001065D01*
X008168Y001164D02*
X008833Y001164D01*
X008738Y001262D02*
X008263Y001262D01*
X008304Y001361D02*
X008697Y001361D01*
X008659Y001459D02*
X008341Y001459D01*
X008341Y001558D02*
X008659Y001558D01*
X008659Y001656D02*
X008341Y001656D01*
X008303Y001755D02*
X008698Y001755D01*
X008738Y001853D02*
X008262Y001853D01*
X008301Y001952D02*
X008750Y001952D01*
X008690Y002050D02*
X008371Y002050D01*
X008094Y002248D02*
X006870Y002248D01*
X006870Y002346D02*
X008164Y002346D01*
X008234Y002445D02*
X006870Y002445D01*
X006870Y002543D02*
X008304Y002543D01*
X008374Y002642D02*
X006870Y002642D01*
X006870Y002740D02*
X008380Y002740D01*
X008380Y002839D02*
X006870Y002839D01*
X006870Y002937D02*
X008380Y002937D01*
X008380Y003036D02*
X006870Y003036D01*
X006870Y003134D02*
X008380Y003134D01*
X008380Y003233D02*
X006870Y003233D01*
X006870Y003331D02*
X008380Y003331D01*
X008380Y003430D02*
X006870Y003430D01*
X006870Y003528D02*
X008380Y003528D01*
X008380Y003627D02*
X006870Y003627D01*
X006870Y003725D02*
X008380Y003725D01*
X008380Y003824D02*
X006870Y003824D01*
X006870Y003922D02*
X008380Y003922D01*
X008380Y004021D02*
X006870Y004021D01*
X006870Y004119D02*
X008380Y004119D01*
X008380Y004218D02*
X006870Y004218D01*
X006870Y004316D02*
X008380Y004316D01*
X008380Y004415D02*
X006870Y004415D01*
X006870Y004513D02*
X008380Y004513D01*
X008380Y004612D02*
X006870Y004612D01*
X006870Y004710D02*
X008380Y004710D01*
X008380Y004809D02*
X006870Y004809D01*
X006870Y004907D02*
X008380Y004907D01*
X008380Y005006D02*
X006870Y005006D01*
X006870Y005104D02*
X008380Y005104D01*
X008380Y005203D02*
X006870Y005203D01*
X006870Y005301D02*
X008380Y005301D01*
X008380Y005400D02*
X006870Y005400D01*
X006870Y005498D02*
X008380Y005498D01*
X008380Y005597D02*
X006870Y005597D01*
X006870Y005695D02*
X008380Y005695D01*
X008380Y005794D02*
X006870Y005794D01*
X006870Y005892D02*
X008380Y005892D01*
X008380Y005991D02*
X006870Y005991D01*
X006870Y006089D02*
X008380Y006089D01*
X008380Y006188D02*
X007721Y006188D01*
X007757Y006286D02*
X008380Y006286D01*
X008380Y006385D02*
X007757Y006385D01*
X007758Y006483D02*
X008380Y006483D01*
X008380Y006582D02*
X007856Y006582D01*
X007955Y006680D02*
X008380Y006680D01*
X008380Y006779D02*
X008053Y006779D01*
X008152Y006877D02*
X008380Y006877D01*
X008380Y006976D02*
X008213Y006976D01*
X008370Y007074D02*
X008380Y007074D01*
X008370Y007173D02*
X008380Y007173D01*
X008370Y007271D02*
X008380Y007271D01*
X008370Y007370D02*
X008380Y007370D01*
X008601Y007961D02*
X008749Y007961D01*
X008847Y008059D02*
X008503Y008059D01*
X007696Y007567D02*
X007385Y007567D01*
X007287Y007468D02*
X007703Y007468D01*
X007716Y007370D02*
X007188Y007370D01*
X007090Y007271D02*
X007716Y007271D01*
X007469Y007173D02*
X007431Y007173D01*
X007431Y007074D02*
X007469Y007074D01*
X007469Y006976D02*
X007431Y006976D01*
X007123Y006976D02*
X006870Y006976D01*
X006870Y006877D02*
X007123Y006877D01*
X007123Y006779D02*
X006870Y006779D01*
X006870Y006680D02*
X007170Y006680D01*
X007143Y006582D02*
X006870Y006582D01*
X006870Y006483D02*
X007143Y006483D01*
X007143Y006385D02*
X006870Y006385D01*
X006870Y006286D02*
X007143Y006286D01*
X007179Y006188D02*
X006870Y006188D01*
X006893Y007074D02*
X007123Y007074D01*
X007168Y007173D02*
X006991Y007173D01*
X009220Y006089D02*
X009242Y006089D01*
X009220Y005991D02*
X009341Y005991D01*
X009439Y005892D02*
X009220Y005892D01*
X009220Y005794D02*
X009538Y005794D01*
X009220Y005695D02*
X011638Y005695D01*
X011711Y005597D02*
X009220Y005597D01*
X009624Y006188D02*
X011638Y006188D01*
X011674Y006286D02*
X009526Y006286D01*
X009427Y006385D02*
X009947Y006385D01*
X009848Y006483D02*
X009420Y006483D01*
X009420Y006582D02*
X009750Y006582D01*
X009651Y006680D02*
X009420Y006680D01*
X009420Y006779D02*
X009553Y006779D01*
X009487Y006877D02*
X009420Y006877D01*
X009420Y006976D02*
X009487Y006976D01*
X012041Y005597D02*
X012062Y005597D01*
X013584Y006680D02*
X013592Y006680D01*
X012746Y008158D02*
X012677Y008158D01*
X012677Y008256D02*
X015396Y008256D01*
X015504Y008355D02*
X012677Y008355D01*
X012640Y008453D02*
X015811Y008453D01*
X015656Y008552D02*
X012657Y008552D01*
X014506Y009635D02*
X002254Y009635D01*
X002254Y009734D02*
X014510Y009734D01*
X014587Y009832D02*
X002254Y009832D01*
X008970Y002937D02*
X009000Y002937D01*
X008970Y002839D02*
X009108Y002839D01*
X009216Y002740D02*
X008970Y002740D01*
X008970Y002642D02*
X009324Y002642D01*
X009432Y002543D02*
X008970Y002543D01*
X008970Y002445D02*
X009540Y002445D01*
X009648Y002346D02*
X008970Y002346D01*
X008970Y002248D02*
X009756Y002248D01*
X009864Y002149D02*
X009028Y002149D01*
X008630Y002346D02*
X008581Y002346D01*
X008024Y002149D02*
X006870Y002149D01*
X006924Y002050D02*
X007617Y002050D01*
X007457Y001952D02*
X006963Y001952D01*
X006963Y001853D02*
X007360Y001853D01*
X007320Y001755D02*
X006963Y001755D01*
X006963Y001656D02*
X007281Y001656D01*
X007281Y001558D02*
X006963Y001558D01*
X006963Y001459D02*
X007281Y001459D01*
X007319Y001361D02*
X006963Y001361D01*
X006963Y001262D02*
X007360Y001262D01*
X007455Y001164D02*
X006963Y001164D01*
X006925Y001065D02*
X007614Y001065D01*
X009384Y002050D02*
X009971Y002050D01*
X010079Y001952D02*
X009544Y001952D01*
X011255Y002050D02*
X011948Y002050D01*
X011787Y001952D02*
X011294Y001952D01*
X011294Y001853D02*
X011691Y001853D01*
X011650Y001755D02*
X011294Y001755D01*
X011294Y001656D02*
X011612Y001656D01*
X011612Y001558D02*
X011294Y001558D01*
X011294Y001459D02*
X011612Y001459D01*
X011650Y001361D02*
X011294Y001361D01*
X011294Y001262D02*
X011691Y001262D01*
X011786Y001164D02*
X011294Y001164D01*
X011256Y001065D02*
X011945Y001065D01*
X012336Y002050D02*
X012395Y002050D01*
X017419Y006728D02*
X017597Y006728D01*
X017635Y006738D01*
X017669Y006758D01*
X017697Y006786D01*
X017717Y006820D01*
X017727Y006858D01*
X017727Y006997D01*
X017419Y006997D01*
X017419Y006728D01*
X017419Y006779D02*
X017381Y006779D01*
X017381Y006877D02*
X017419Y006877D01*
X017419Y006976D02*
X017381Y006976D01*
X017381Y007034D02*
X017381Y007260D01*
X017419Y007260D01*
X017419Y007034D01*
X017381Y007034D01*
X017381Y007074D02*
X017419Y007074D01*
X017419Y007173D02*
X017381Y007173D01*
X017128Y007271D02*
X016020Y007271D01*
X016020Y007173D02*
X017073Y007173D01*
X017137Y007764D02*
X016462Y007764D01*
X016462Y007862D02*
X017855Y007862D01*
X017953Y007764D02*
X017663Y007764D01*
X017707Y007665D02*
X017980Y007665D01*
X017980Y007567D02*
X017707Y007567D01*
X017707Y007468D02*
X017980Y007468D01*
X017980Y007370D02*
X017707Y007370D01*
X017672Y007271D02*
X017980Y007271D01*
X017980Y007173D02*
X017727Y007173D01*
X017727Y007074D02*
X017980Y007074D01*
X017980Y006976D02*
X017727Y006976D01*
X017727Y006877D02*
X017980Y006877D01*
X017980Y006779D02*
X017690Y006779D01*
X018150Y007821D02*
X017700Y008271D01*
X015676Y008271D01*
X015704Y008059D02*
X017658Y008059D01*
X017756Y007961D02*
X016462Y007961D01*
X015595Y008650D02*
X014675Y008650D01*
X014773Y008749D02*
X015572Y008749D01*
X015576Y008847D02*
X014872Y008847D01*
X021010Y013280D02*
X021368Y013280D01*
X021368Y013378D02*
X021027Y013378D01*
X021027Y013477D02*
X021368Y013477D01*
X021418Y013575D02*
X021027Y013575D01*
X021027Y013674D02*
X021430Y013674D01*
X021430Y013772D02*
X021027Y013772D01*
X020994Y013871D02*
X021430Y013871D01*
X021430Y013969D02*
X020990Y013969D01*
X021027Y014068D02*
X021364Y014068D01*
X021647Y014265D02*
X025606Y014265D01*
X025606Y014363D02*
X021549Y014363D01*
X021746Y014166D02*
X025606Y014166D01*
X025606Y014068D02*
X021770Y014068D01*
X021770Y013969D02*
X025606Y013969D01*
X025606Y013871D02*
X021770Y013871D01*
X021770Y013772D02*
X025606Y013772D01*
X025606Y013674D02*
X021770Y013674D01*
X021965Y013575D02*
X021990Y013575D01*
X021990Y013477D02*
X021965Y013477D01*
X021965Y013378D02*
X021990Y013378D01*
X021990Y013280D02*
X021965Y013280D01*
X021965Y013181D02*
X021990Y013181D01*
X021990Y013083D02*
X021965Y013083D01*
X021965Y012984D02*
X021990Y012984D01*
X021990Y012886D02*
X021965Y012886D01*
X022226Y012886D02*
X025606Y012886D01*
X025606Y012984D02*
X022252Y012984D01*
X022252Y013083D02*
X025606Y013083D01*
X025606Y013181D02*
X022252Y013181D01*
X022252Y013280D02*
X025606Y013280D01*
X025606Y013378D02*
X022252Y013378D01*
X022252Y013477D02*
X025606Y013477D01*
X025606Y013575D02*
X022211Y013575D01*
D23*
X021623Y013221D02*
X021600Y013244D01*
X021600Y014071D01*
X021396Y014276D01*
X020700Y014276D01*
X020700Y014971D01*
X019650Y016021D01*
X019000Y016021D01*
X018950Y015971D01*
X018706Y015971D01*
X018675Y015941D01*
X018675Y016441D02*
X017519Y016441D01*
X017350Y016271D01*
X017350Y015184D01*
X017241Y015076D01*
X016750Y015076D01*
X013546Y015076D01*
X011400Y017221D01*
X011400Y020696D01*
X011445Y020841D01*
X011900Y020296D02*
X012445Y020841D01*
X012900Y020296D02*
X013445Y020841D01*
X013900Y020296D02*
X014445Y020841D01*
X014900Y021386D02*
X014445Y021841D01*
X014900Y021386D02*
X014900Y019171D01*
X013900Y019171D02*
X013900Y020296D01*
X012900Y020296D02*
X012900Y019171D01*
X011900Y019171D02*
X011900Y020296D01*
X010445Y020841D02*
X009900Y020296D01*
X009900Y019171D01*
X008900Y019171D02*
X008850Y020096D01*
X009445Y020841D01*
X008950Y020671D02*
X008950Y021336D01*
X008445Y021841D01*
X007445Y021841D02*
X007026Y021371D01*
X006300Y021371D01*
X005950Y021071D01*
X005950Y020671D01*
X005550Y020271D01*
X005250Y020271D01*
X003900Y019171D01*
X004076Y019771D02*
X002500Y019771D01*
X001900Y019271D01*
X001900Y019171D01*
X011250Y012621D01*
X011250Y012421D01*
X010650Y012371D02*
X005400Y016121D01*
X000900Y019171D01*
X001150Y019321D01*
X002250Y020071D01*
X003676Y020071D01*
X004445Y020841D01*
X005445Y020841D02*
X004076Y019771D01*
X004900Y019296D02*
X004900Y019171D01*
X004900Y019296D02*
X006445Y020841D01*
X007900Y019621D02*
X008950Y020671D01*
X008445Y020841D02*
X006900Y019296D01*
X006900Y019171D01*
X007900Y019171D02*
X007900Y019621D01*
X004445Y021841D02*
X003445Y021841D01*
X015445Y021841D02*
X015900Y021386D01*
X015900Y019171D01*
X016900Y019171D02*
X016900Y020296D01*
X017445Y020841D01*
X017900Y020296D02*
X018445Y020841D01*
X018900Y021386D02*
X018445Y021841D01*
X018900Y021386D02*
X018900Y019171D01*
X017900Y019171D02*
X017900Y020296D01*
X019445Y020841D02*
X019900Y020386D01*
X019900Y019171D01*
X020900Y019171D02*
X020900Y021336D01*
X020445Y021841D01*
X021445Y021841D02*
X021950Y021336D01*
X021950Y020471D01*
X022900Y019521D01*
X022900Y019171D01*
X022950Y020121D02*
X023900Y019171D01*
X022950Y020121D02*
X022950Y020971D01*
X022445Y021476D01*
X022445Y021841D01*
X017750Y015971D02*
X017750Y015076D01*
X017885Y014941D01*
X018675Y014941D01*
X018675Y015441D02*
X018719Y015441D01*
X019550Y015471D01*
X019550Y014276D01*
X019550Y013567D02*
X020700Y013567D01*
X019550Y013567D02*
X018550Y013567D01*
X017750Y014367D01*
X015994Y012411D01*
X015994Y009521D01*
X015306Y009521D01*
X014828Y009044D01*
X015628Y009044D01*
X015900Y008771D01*
X015676Y008271D02*
X015476Y008071D01*
X015476Y008096D01*
X015450Y008071D01*
X012900Y008071D01*
X012400Y007571D01*
X012000Y007571D01*
X011850Y007421D01*
X011850Y007009D01*
X011876Y006983D01*
X011485Y007375D01*
X010350Y007375D01*
X010650Y006921D01*
X010950Y006521D02*
X011250Y006971D01*
X010950Y006521D02*
X012000Y006521D01*
X012250Y006771D01*
X012250Y006983D01*
X012250Y007133D01*
X012300Y007221D01*
X012650Y007571D01*
X013650Y007571D01*
X014750Y007071D01*
X015095Y006727D01*
X015095Y001557D01*
X015750Y000871D02*
X014206Y000871D01*
X013520Y001557D01*
X012624Y002039D02*
X012142Y001557D01*
X012624Y002039D02*
X012624Y005960D01*
X012250Y005960D02*
X012250Y005521D01*
X011650Y004921D01*
X011838Y005921D02*
X011876Y005960D01*
X011838Y005921D02*
X009650Y005921D01*
X009250Y006321D01*
X009250Y007471D01*
X009350Y007571D01*
X009657Y007571D01*
X010050Y007571D01*
X011150Y008671D01*
X011494Y008671D01*
X011550Y008727D01*
X012350Y008727D01*
X014512Y008727D01*
X014828Y009044D01*
X015150Y008471D02*
X012856Y008471D01*
X012350Y008216D01*
X012624Y006983D02*
X013136Y006821D01*
X013344Y006421D01*
X013850Y006421D02*
X013856Y006421D01*
X013850Y006416D01*
X013850Y005171D01*
X013856Y006421D02*
X013900Y006421D01*
X014750Y007071D02*
X015750Y007071D01*
X015850Y007171D01*
X015850Y007683D01*
X016224Y007683D02*
X016380Y007527D01*
X017400Y007527D01*
X017250Y007221D02*
X017400Y007071D01*
X017400Y007016D01*
X017400Y006671D01*
X016950Y006221D01*
X016224Y006660D02*
X016224Y002346D01*
X015950Y002071D01*
X015950Y001071D01*
X015750Y000871D01*
X016473Y001557D02*
X016473Y005394D01*
X018150Y006471D01*
X018150Y007821D01*
X017250Y007221D02*
X016150Y007221D01*
X016000Y007071D01*
X015850Y006910D01*
X015850Y006660D01*
X015500Y006636D02*
X015500Y005421D01*
X015500Y006636D02*
X015476Y006660D01*
X015476Y007683D02*
X015476Y008071D01*
X010950Y006521D02*
X010050Y006521D01*
X009657Y006914D01*
X009657Y007178D01*
X009657Y007375D02*
X010350Y007375D01*
X009657Y007768D02*
X009197Y007768D01*
X009050Y007621D01*
X009050Y003121D01*
X010764Y001557D01*
X009189Y001557D02*
X008800Y002197D01*
X008800Y007771D01*
X008994Y007965D01*
X009657Y007965D01*
X008550Y007771D02*
X008550Y002596D01*
X007811Y001557D01*
X006700Y001824D02*
X006433Y001557D01*
X006700Y001824D02*
X006700Y007121D01*
X007347Y007768D01*
X008043Y007768D01*
X008043Y007965D02*
X008356Y007965D01*
X008550Y007771D01*
X008043Y007178D02*
X008043Y007009D01*
X007450Y006416D01*
X017750Y014367D02*
X017241Y015076D01*
D24*
X015150Y008471D03*
X016950Y006221D03*
X013850Y005171D03*
X011650Y004921D03*
D25*
X011250Y006971D03*
X010650Y006921D03*
X015500Y005421D03*
X015900Y008771D03*
X011250Y012421D03*
X010650Y012371D03*
X017750Y015971D03*
X019550Y015471D03*
M02*
