G75*
%MOIN*%
%OFA0B0*%
%FSLAX24Y24*%
%IPPOS*%
%LPD*%
%AMOC8*
5,1,8,0,0,1.08239X$1,22.5*
%
%ADD10C,0.1182*%
%ADD11C,0.0730*%
%ADD12R,0.0730X0.0730*%
%ADD13R,0.0950X0.0320*%
%ADD14R,0.0474X0.0513*%
%ADD15R,0.0513X0.0474*%
%ADD16C,0.0720*%
%ADD17R,0.0330X0.0580*%
%ADD18R,0.0433X0.0157*%
%ADD19R,0.0297X0.0552*%
%ADD20R,0.0434X0.0356*%
%ADD21C,0.0880*%
%ADD22R,0.0880X0.0880*%
D10*
X001538Y009461D03*
X001538Y028753D03*
X024373Y028753D03*
X024373Y009461D03*
D11*
X022455Y028253D03*
X022455Y029253D03*
X021455Y029253D03*
X021455Y028253D03*
X020455Y028253D03*
X020455Y029253D03*
X019455Y029253D03*
X018455Y029253D03*
X018455Y028253D03*
X019455Y028253D03*
X017455Y028253D03*
X017455Y029253D03*
X016455Y029253D03*
X016455Y028253D03*
X015455Y028253D03*
X015455Y029253D03*
X014455Y029253D03*
X014455Y028253D03*
X013455Y028253D03*
X013455Y029253D03*
X012455Y029253D03*
X011455Y029253D03*
X011455Y028253D03*
X012455Y028253D03*
X010455Y028253D03*
X010455Y029253D03*
X009455Y029253D03*
X009455Y028253D03*
X008455Y028253D03*
X008455Y029253D03*
X007455Y029253D03*
X007455Y028253D03*
X006455Y028253D03*
X006455Y029253D03*
X005455Y029253D03*
X005455Y028253D03*
X004455Y028253D03*
X004455Y029253D03*
X003455Y029253D03*
D12*
X003455Y028253D03*
D13*
X018685Y023853D03*
X018685Y023353D03*
X018685Y022853D03*
X018685Y022353D03*
X021335Y022353D03*
X021335Y022853D03*
X021335Y023353D03*
X021335Y023853D03*
D14*
X020710Y021688D03*
X020710Y020979D03*
X019560Y020979D03*
X019560Y021688D03*
X017760Y021779D03*
X017760Y022488D03*
D15*
X017816Y024443D03*
X018524Y024443D03*
D16*
X018910Y026583D03*
X017910Y026583D03*
X016910Y026583D03*
X015910Y026583D03*
X014910Y026583D03*
X013910Y026583D03*
X012910Y026583D03*
X011910Y026583D03*
X010910Y026583D03*
X009910Y026583D03*
X008910Y026583D03*
X007910Y026583D03*
X006910Y026583D03*
X005910Y026583D03*
X004910Y026583D03*
X003910Y026583D03*
X002910Y026583D03*
X001910Y026583D03*
X000910Y026583D03*
X019910Y026583D03*
X020910Y026583D03*
X021910Y026583D03*
X022910Y026583D03*
X023910Y026583D03*
X024910Y026583D03*
D17*
X021987Y020633D03*
X021633Y020633D03*
D18*
X010067Y015377D03*
X010067Y015180D03*
X010067Y014983D03*
X010067Y014786D03*
X010067Y014590D03*
X008453Y014590D03*
X008453Y014786D03*
X008453Y014983D03*
X008453Y015180D03*
X008453Y015377D03*
D19*
X011886Y014395D03*
X012260Y014395D03*
X012634Y014395D03*
X012634Y013371D03*
X012260Y013371D03*
X011886Y013371D03*
X015036Y013421D03*
X015410Y013421D03*
X015784Y013421D03*
X015784Y014445D03*
X015410Y014445D03*
X015036Y014445D03*
D20*
X014510Y013939D03*
X014510Y013427D03*
X013760Y013777D03*
X013760Y014289D03*
X011360Y013939D03*
X011360Y013427D03*
X010910Y015977D03*
X010910Y016489D03*
X010310Y016489D03*
X010310Y015977D03*
X007860Y014339D03*
X007860Y013827D03*
X016960Y013777D03*
X016960Y014289D03*
D21*
X016597Y008989D03*
X013841Y008989D03*
X012463Y008989D03*
X009707Y008989D03*
X008329Y008989D03*
X020573Y008989D03*
X021951Y008989D03*
D22*
X006951Y008989D03*
X011085Y008989D03*
X015219Y008989D03*
X019195Y008989D03*
M02*
