G75*
%MOIN*%
%OFA0B0*%
%FSLAX24Y24*%
%IPPOS*%
%LPD*%
%AMOC8*
5,1,8,0,0,1.08239X$1,22.5*
%
%ADD10C,0.1182*%
%ADD11C,0.0240*%
%ADD12C,0.0730*%
%ADD13R,0.0730X0.0730*%
%ADD14R,0.0950X0.0320*%
%ADD15R,0.0474X0.0513*%
%ADD16C,0.0720*%
%ADD17R,0.0330X0.0580*%
%ADD18R,0.0433X0.0157*%
%ADD19R,0.0297X0.0552*%
%ADD20R,0.0434X0.0356*%
%ADD21R,0.0356X0.0434*%
%ADD22C,0.0880*%
%ADD23R,0.0880X0.0880*%
D10*
X001528Y002049D03*
X001528Y021341D03*
X024363Y021341D03*
X024363Y002049D03*
D11*
X020900Y001671D02*
X018900Y001671D01*
X018900Y002671D02*
X020900Y002671D01*
X015900Y002671D02*
X004900Y002671D01*
X004900Y001671D02*
X015900Y001671D01*
X015900Y004171D02*
X015900Y008171D01*
X014900Y008171D02*
X014900Y004171D01*
X013900Y004171D02*
X013900Y008171D01*
X012900Y008171D02*
X012900Y004171D01*
X011900Y004171D02*
X011900Y008171D01*
X010900Y008171D02*
X010900Y004171D01*
X009900Y004171D02*
X009900Y008171D01*
X008900Y008171D02*
X008900Y004171D01*
X007900Y004171D02*
X007900Y008171D01*
X006900Y008171D02*
X006900Y004171D01*
X005900Y004171D02*
X005900Y008171D01*
X004900Y008171D02*
X004900Y004171D01*
X003900Y004171D02*
X003900Y008171D01*
X002900Y008171D02*
X002900Y004171D01*
X002900Y010171D02*
X002900Y014171D01*
X003900Y014171D02*
X003900Y010171D01*
X004900Y010171D02*
X004900Y014171D01*
X005900Y014171D02*
X005900Y010171D01*
X006900Y010171D02*
X006900Y014171D01*
X007900Y014171D02*
X007900Y010171D01*
X008900Y010171D02*
X008900Y014171D01*
X009900Y014171D02*
X009900Y010171D01*
X010900Y010171D02*
X010900Y014171D01*
X011900Y014171D02*
X011900Y010171D01*
X012900Y010171D02*
X012900Y014171D01*
X013900Y014171D02*
X013900Y010171D01*
X014900Y010171D02*
X014900Y014171D01*
X015900Y014171D02*
X015900Y010171D01*
X016900Y010171D02*
X016900Y014171D01*
X017900Y014171D02*
X017900Y010171D01*
X018900Y010171D02*
X018900Y014171D01*
X019900Y014171D02*
X019900Y010171D01*
X020900Y010171D02*
X020900Y014171D01*
X020900Y016171D02*
X002900Y016171D01*
X002900Y017171D02*
X020900Y017171D01*
D12*
X020445Y020841D03*
X019445Y020841D03*
X018445Y020841D03*
X017445Y020841D03*
X016445Y020841D03*
X015445Y020841D03*
X014445Y020841D03*
X013445Y020841D03*
X012445Y020841D03*
X011445Y020841D03*
X010445Y020841D03*
X009445Y020841D03*
X008445Y020841D03*
X007445Y020841D03*
X006445Y020841D03*
X005445Y020841D03*
X004445Y020841D03*
X004445Y021841D03*
X005445Y021841D03*
X006445Y021841D03*
X007445Y021841D03*
X008445Y021841D03*
X009445Y021841D03*
X010445Y021841D03*
X011445Y021841D03*
X012445Y021841D03*
X013445Y021841D03*
X014445Y021841D03*
X015445Y021841D03*
X016445Y021841D03*
X017445Y021841D03*
X018445Y021841D03*
X019445Y021841D03*
X020445Y021841D03*
X021445Y021841D03*
X021445Y020841D03*
X022445Y020841D03*
X022445Y021841D03*
X003445Y021841D03*
D13*
X003445Y020841D03*
D14*
X018675Y016441D03*
X018675Y015941D03*
X018675Y015441D03*
X018675Y014941D03*
X021325Y014941D03*
X021325Y015441D03*
X021325Y015941D03*
X021325Y016441D03*
D15*
X020700Y014276D03*
X020700Y013567D03*
X019550Y013567D03*
X019550Y014276D03*
X017750Y014367D03*
X017750Y015076D03*
X016750Y015076D03*
X016750Y014367D03*
D16*
X016900Y019171D03*
X017900Y019171D03*
X018900Y019171D03*
X019900Y019171D03*
X020900Y019171D03*
X021900Y019171D03*
X022900Y019171D03*
X023900Y019171D03*
X024900Y019171D03*
X015900Y019171D03*
X014900Y019171D03*
X013900Y019171D03*
X012900Y019171D03*
X011900Y019171D03*
X010900Y019171D03*
X009900Y019171D03*
X008900Y019171D03*
X007900Y019171D03*
X006900Y019171D03*
X005900Y019171D03*
X004900Y019171D03*
X003900Y019171D03*
X002900Y019171D03*
X001900Y019171D03*
X000900Y019171D03*
D17*
X021623Y013221D03*
X021977Y013221D03*
D18*
X009657Y007965D03*
X009657Y007768D03*
X009657Y007571D03*
X009657Y007375D03*
X009657Y007178D03*
X008043Y007178D03*
X008043Y007375D03*
X008043Y007571D03*
X008043Y007768D03*
X008043Y007965D03*
D19*
X011876Y006983D03*
X012250Y006983D03*
X012624Y006983D03*
X012624Y005960D03*
X012250Y005960D03*
X011876Y005960D03*
X015476Y006660D03*
X015850Y006660D03*
X016224Y006660D03*
X016224Y007683D03*
X015850Y007683D03*
X015476Y007683D03*
D20*
X017400Y007527D03*
X017400Y007016D03*
X012350Y008216D03*
X012350Y008727D03*
X011550Y008727D03*
X011550Y008216D03*
X007450Y006927D03*
X007450Y006416D03*
D21*
X013344Y006421D03*
X013856Y006421D03*
X014794Y009521D03*
X015306Y009521D03*
X015994Y009521D03*
X016506Y009521D03*
D22*
X016473Y001557D03*
X019426Y001557D03*
X013520Y001557D03*
X012142Y001557D03*
X009189Y001557D03*
X007811Y001557D03*
D23*
X006433Y001557D03*
X010764Y001557D03*
X015095Y001557D03*
X018048Y001557D03*
M02*
