G75*
%MOIN*%
%OFA0B0*%
%FSLAX24Y24*%
%IPPOS*%
%LPD*%
%AMOC8*
5,1,8,0,0,1.08239X$1,22.5*
%
%ADD10C,0.1182*%
%ADD11C,0.0730*%
%ADD12R,0.0730X0.0730*%
%ADD13C,0.0720*%
%ADD14C,0.0880*%
%ADD15R,0.0880X0.0880*%
D10*
X001538Y009461D03*
X001538Y028753D03*
X024373Y028753D03*
X024373Y009461D03*
D11*
X022455Y028253D03*
X022455Y029253D03*
X021455Y029253D03*
X021455Y028253D03*
X020455Y028253D03*
X020455Y029253D03*
X019455Y029253D03*
X018455Y029253D03*
X018455Y028253D03*
X019455Y028253D03*
X017455Y028253D03*
X017455Y029253D03*
X016455Y029253D03*
X016455Y028253D03*
X015455Y028253D03*
X015455Y029253D03*
X014455Y029253D03*
X014455Y028253D03*
X013455Y028253D03*
X013455Y029253D03*
X012455Y029253D03*
X011455Y029253D03*
X011455Y028253D03*
X012455Y028253D03*
X010455Y028253D03*
X010455Y029253D03*
X009455Y029253D03*
X009455Y028253D03*
X008455Y028253D03*
X008455Y029253D03*
X007455Y029253D03*
X007455Y028253D03*
X006455Y028253D03*
X006455Y029253D03*
X005455Y029253D03*
X005455Y028253D03*
X004455Y028253D03*
X004455Y029253D03*
X003455Y029253D03*
D12*
X003455Y028253D03*
D13*
X003910Y026583D03*
X004910Y026583D03*
X005910Y026583D03*
X006910Y026583D03*
X007910Y026583D03*
X008910Y026583D03*
X009910Y026583D03*
X010910Y026583D03*
X011910Y026583D03*
X012910Y026583D03*
X013910Y026583D03*
X014910Y026583D03*
X015910Y026583D03*
X016910Y026583D03*
X017910Y026583D03*
X018910Y026583D03*
X019910Y026583D03*
X020910Y026583D03*
X021910Y026583D03*
X022910Y026583D03*
X023910Y026583D03*
X024910Y026583D03*
X002910Y026583D03*
X001910Y026583D03*
X000910Y026583D03*
D14*
X008329Y008989D03*
X009707Y008989D03*
X012463Y008989D03*
X013841Y008989D03*
X016597Y008989D03*
X020573Y008989D03*
X021951Y008989D03*
D15*
X006951Y008989D03*
X011085Y008989D03*
X015219Y008989D03*
X019195Y008989D03*
M02*
