G75*
%MOIN*%
%OFA0B0*%
%FSLAX24Y24*%
%IPPOS*%
%LPD*%
%AMOC8*
5,1,8,0,0,1.08239X$1,22.5*
%
%ADD10C,0.0010*%
%ADD11C,0.0000*%
%ADD12C,0.0650*%
%ADD13R,0.0650X0.0650*%
%ADD14C,0.0640*%
%ADD15C,0.0800*%
%ADD16R,0.0800X0.0800*%
%ADD17C,0.0120*%
%ADD18C,0.0400*%
%ADD19C,0.0397*%
D10*
X001341Y008083D02*
X024569Y008083D01*
X024635Y008085D01*
X024701Y008090D01*
X024767Y008100D01*
X024832Y008113D01*
X024896Y008129D01*
X024959Y008149D01*
X025021Y008173D01*
X025081Y008200D01*
X025140Y008230D01*
X025197Y008264D01*
X025252Y008301D01*
X025305Y008341D01*
X025356Y008383D01*
X025404Y008429D01*
X025450Y008477D01*
X025492Y008528D01*
X025532Y008581D01*
X025569Y008636D01*
X025603Y008693D01*
X025633Y008752D01*
X025660Y008812D01*
X025684Y008874D01*
X025704Y008937D01*
X025720Y009001D01*
X025733Y009066D01*
X025743Y009132D01*
X025748Y009198D01*
X025750Y009264D01*
X025751Y009264D02*
X025751Y028949D01*
X025750Y028949D02*
X025748Y029015D01*
X025743Y029081D01*
X025733Y029147D01*
X025720Y029212D01*
X025704Y029276D01*
X025684Y029339D01*
X025660Y029401D01*
X025633Y029461D01*
X025603Y029520D01*
X025569Y029577D01*
X025532Y029632D01*
X025492Y029685D01*
X025450Y029736D01*
X025404Y029784D01*
X025356Y029830D01*
X025305Y029872D01*
X025252Y029912D01*
X025197Y029949D01*
X025140Y029983D01*
X025081Y030013D01*
X025021Y030040D01*
X024959Y030064D01*
X024896Y030084D01*
X024832Y030100D01*
X024767Y030113D01*
X024701Y030123D01*
X024635Y030128D01*
X024569Y030130D01*
X024569Y030131D02*
X001341Y030131D01*
X001341Y030130D02*
X001275Y030128D01*
X001209Y030123D01*
X001143Y030113D01*
X001078Y030100D01*
X001014Y030084D01*
X000951Y030064D01*
X000889Y030040D01*
X000829Y030013D01*
X000770Y029983D01*
X000713Y029949D01*
X000658Y029912D01*
X000605Y029872D01*
X000554Y029830D01*
X000506Y029784D01*
X000460Y029736D01*
X000418Y029685D01*
X000378Y029632D01*
X000341Y029577D01*
X000307Y029520D01*
X000277Y029461D01*
X000250Y029401D01*
X000226Y029339D01*
X000206Y029276D01*
X000190Y029212D01*
X000177Y029147D01*
X000167Y029081D01*
X000162Y029015D01*
X000160Y028949D01*
X000160Y022847D01*
X000162Y022808D01*
X000168Y022770D01*
X000177Y022733D01*
X000190Y022696D01*
X000207Y022661D01*
X000226Y022628D01*
X000249Y022597D01*
X000275Y022568D01*
X000304Y022542D01*
X000335Y022519D01*
X000368Y022500D01*
X000403Y022483D01*
X000440Y022470D01*
X000477Y022461D01*
X000515Y022455D01*
X000554Y022453D01*
X001735Y022453D01*
X001735Y022454D02*
X001774Y022452D01*
X001812Y022446D01*
X001849Y022437D01*
X001886Y022424D01*
X001921Y022407D01*
X001954Y022388D01*
X001985Y022365D01*
X002014Y022339D01*
X002040Y022310D01*
X002063Y022279D01*
X002082Y022246D01*
X002099Y022211D01*
X002112Y022174D01*
X002121Y022137D01*
X002127Y022099D01*
X002129Y022060D01*
X002129Y016154D01*
X002127Y016115D01*
X002121Y016077D01*
X002112Y016040D01*
X002099Y016003D01*
X002082Y015968D01*
X002063Y015935D01*
X002040Y015904D01*
X002014Y015875D01*
X001985Y015849D01*
X001954Y015826D01*
X001921Y015807D01*
X001886Y015790D01*
X001849Y015777D01*
X001812Y015768D01*
X001774Y015762D01*
X001735Y015760D01*
X000554Y015760D01*
X000554Y015761D02*
X000515Y015759D01*
X000477Y015753D01*
X000440Y015744D01*
X000403Y015731D01*
X000368Y015714D01*
X000335Y015695D01*
X000304Y015672D01*
X000275Y015646D01*
X000249Y015617D01*
X000226Y015586D01*
X000207Y015553D01*
X000190Y015518D01*
X000177Y015481D01*
X000168Y015444D01*
X000162Y015406D01*
X000160Y015367D01*
X000160Y009264D01*
X000162Y009198D01*
X000167Y009132D01*
X000177Y009066D01*
X000190Y009001D01*
X000206Y008937D01*
X000226Y008874D01*
X000250Y008812D01*
X000277Y008752D01*
X000307Y008693D01*
X000341Y008636D01*
X000378Y008581D01*
X000418Y008528D01*
X000460Y008477D01*
X000506Y008429D01*
X000554Y008383D01*
X000605Y008341D01*
X000658Y008301D01*
X000713Y008264D01*
X000770Y008230D01*
X000829Y008200D01*
X000889Y008173D01*
X000951Y008149D01*
X001014Y008129D01*
X001078Y008113D01*
X001143Y008100D01*
X001209Y008090D01*
X001275Y008085D01*
X001341Y008083D01*
X017483Y009158D02*
X017483Y015564D01*
X017485Y015603D01*
X017491Y015641D01*
X017500Y015678D01*
X017513Y015715D01*
X017530Y015750D01*
X017549Y015783D01*
X017572Y015814D01*
X017598Y015843D01*
X017627Y015869D01*
X017658Y015892D01*
X017691Y015911D01*
X017726Y015928D01*
X017763Y015941D01*
X017800Y015950D01*
X017838Y015956D01*
X017877Y015958D01*
X017916Y015956D01*
X017954Y015950D01*
X017991Y015941D01*
X018028Y015928D01*
X018063Y015911D01*
X018096Y015892D01*
X018127Y015869D01*
X018156Y015843D01*
X018182Y015814D01*
X018205Y015783D01*
X018224Y015750D01*
X018241Y015715D01*
X018254Y015678D01*
X018263Y015641D01*
X018269Y015603D01*
X018271Y015564D01*
X018270Y015564D02*
X018270Y009158D01*
X017877Y008764D02*
X017838Y008766D01*
X017800Y008772D01*
X017763Y008781D01*
X017726Y008794D01*
X017691Y008811D01*
X017658Y008830D01*
X017627Y008853D01*
X017598Y008879D01*
X017572Y008908D01*
X017549Y008939D01*
X017530Y008972D01*
X017513Y009007D01*
X017500Y009044D01*
X017491Y009081D01*
X017485Y009119D01*
X017483Y009158D01*
X017877Y008764D02*
X017916Y008766D01*
X017954Y008772D01*
X017991Y008781D01*
X018028Y008794D01*
X018063Y008811D01*
X018096Y008830D01*
X018127Y008853D01*
X018156Y008879D01*
X018182Y008908D01*
X018205Y008939D01*
X018224Y008972D01*
X018241Y009007D01*
X018254Y009044D01*
X018263Y009081D01*
X018269Y009119D01*
X018271Y009158D01*
D11*
X023822Y009461D02*
X023824Y009508D01*
X023830Y009554D01*
X023840Y009600D01*
X023853Y009645D01*
X023871Y009688D01*
X023892Y009730D01*
X023916Y009770D01*
X023944Y009807D01*
X023975Y009842D01*
X024009Y009875D01*
X024045Y009904D01*
X024084Y009930D01*
X024125Y009953D01*
X024168Y009972D01*
X024212Y009988D01*
X024257Y010000D01*
X024303Y010008D01*
X024350Y010012D01*
X024396Y010012D01*
X024443Y010008D01*
X024489Y010000D01*
X024534Y009988D01*
X024578Y009972D01*
X024621Y009953D01*
X024662Y009930D01*
X024701Y009904D01*
X024737Y009875D01*
X024771Y009842D01*
X024802Y009807D01*
X024830Y009770D01*
X024854Y009730D01*
X024875Y009688D01*
X024893Y009645D01*
X024906Y009600D01*
X024916Y009554D01*
X024922Y009508D01*
X024924Y009461D01*
X024922Y009414D01*
X024916Y009368D01*
X024906Y009322D01*
X024893Y009277D01*
X024875Y009234D01*
X024854Y009192D01*
X024830Y009152D01*
X024802Y009115D01*
X024771Y009080D01*
X024737Y009047D01*
X024701Y009018D01*
X024662Y008992D01*
X024621Y008969D01*
X024578Y008950D01*
X024534Y008934D01*
X024489Y008922D01*
X024443Y008914D01*
X024396Y008910D01*
X024350Y008910D01*
X024303Y008914D01*
X024257Y008922D01*
X024212Y008934D01*
X024168Y008950D01*
X024125Y008969D01*
X024084Y008992D01*
X024045Y009018D01*
X024009Y009047D01*
X023975Y009080D01*
X023944Y009115D01*
X023916Y009152D01*
X023892Y009192D01*
X023871Y009234D01*
X023853Y009277D01*
X023840Y009322D01*
X023830Y009368D01*
X023824Y009414D01*
X023822Y009461D01*
X023822Y028753D02*
X023824Y028800D01*
X023830Y028846D01*
X023840Y028892D01*
X023853Y028937D01*
X023871Y028980D01*
X023892Y029022D01*
X023916Y029062D01*
X023944Y029099D01*
X023975Y029134D01*
X024009Y029167D01*
X024045Y029196D01*
X024084Y029222D01*
X024125Y029245D01*
X024168Y029264D01*
X024212Y029280D01*
X024257Y029292D01*
X024303Y029300D01*
X024350Y029304D01*
X024396Y029304D01*
X024443Y029300D01*
X024489Y029292D01*
X024534Y029280D01*
X024578Y029264D01*
X024621Y029245D01*
X024662Y029222D01*
X024701Y029196D01*
X024737Y029167D01*
X024771Y029134D01*
X024802Y029099D01*
X024830Y029062D01*
X024854Y029022D01*
X024875Y028980D01*
X024893Y028937D01*
X024906Y028892D01*
X024916Y028846D01*
X024922Y028800D01*
X024924Y028753D01*
X024922Y028706D01*
X024916Y028660D01*
X024906Y028614D01*
X024893Y028569D01*
X024875Y028526D01*
X024854Y028484D01*
X024830Y028444D01*
X024802Y028407D01*
X024771Y028372D01*
X024737Y028339D01*
X024701Y028310D01*
X024662Y028284D01*
X024621Y028261D01*
X024578Y028242D01*
X024534Y028226D01*
X024489Y028214D01*
X024443Y028206D01*
X024396Y028202D01*
X024350Y028202D01*
X024303Y028206D01*
X024257Y028214D01*
X024212Y028226D01*
X024168Y028242D01*
X024125Y028261D01*
X024084Y028284D01*
X024045Y028310D01*
X024009Y028339D01*
X023975Y028372D01*
X023944Y028407D01*
X023916Y028444D01*
X023892Y028484D01*
X023871Y028526D01*
X023853Y028569D01*
X023840Y028614D01*
X023830Y028660D01*
X023824Y028706D01*
X023822Y028753D01*
X000987Y028753D02*
X000989Y028800D01*
X000995Y028846D01*
X001005Y028892D01*
X001018Y028937D01*
X001036Y028980D01*
X001057Y029022D01*
X001081Y029062D01*
X001109Y029099D01*
X001140Y029134D01*
X001174Y029167D01*
X001210Y029196D01*
X001249Y029222D01*
X001290Y029245D01*
X001333Y029264D01*
X001377Y029280D01*
X001422Y029292D01*
X001468Y029300D01*
X001515Y029304D01*
X001561Y029304D01*
X001608Y029300D01*
X001654Y029292D01*
X001699Y029280D01*
X001743Y029264D01*
X001786Y029245D01*
X001827Y029222D01*
X001866Y029196D01*
X001902Y029167D01*
X001936Y029134D01*
X001967Y029099D01*
X001995Y029062D01*
X002019Y029022D01*
X002040Y028980D01*
X002058Y028937D01*
X002071Y028892D01*
X002081Y028846D01*
X002087Y028800D01*
X002089Y028753D01*
X002087Y028706D01*
X002081Y028660D01*
X002071Y028614D01*
X002058Y028569D01*
X002040Y028526D01*
X002019Y028484D01*
X001995Y028444D01*
X001967Y028407D01*
X001936Y028372D01*
X001902Y028339D01*
X001866Y028310D01*
X001827Y028284D01*
X001786Y028261D01*
X001743Y028242D01*
X001699Y028226D01*
X001654Y028214D01*
X001608Y028206D01*
X001561Y028202D01*
X001515Y028202D01*
X001468Y028206D01*
X001422Y028214D01*
X001377Y028226D01*
X001333Y028242D01*
X001290Y028261D01*
X001249Y028284D01*
X001210Y028310D01*
X001174Y028339D01*
X001140Y028372D01*
X001109Y028407D01*
X001081Y028444D01*
X001057Y028484D01*
X001036Y028526D01*
X001018Y028569D01*
X001005Y028614D01*
X000995Y028660D01*
X000989Y028706D01*
X000987Y028753D01*
X000987Y009461D02*
X000989Y009508D01*
X000995Y009554D01*
X001005Y009600D01*
X001018Y009645D01*
X001036Y009688D01*
X001057Y009730D01*
X001081Y009770D01*
X001109Y009807D01*
X001140Y009842D01*
X001174Y009875D01*
X001210Y009904D01*
X001249Y009930D01*
X001290Y009953D01*
X001333Y009972D01*
X001377Y009988D01*
X001422Y010000D01*
X001468Y010008D01*
X001515Y010012D01*
X001561Y010012D01*
X001608Y010008D01*
X001654Y010000D01*
X001699Y009988D01*
X001743Y009972D01*
X001786Y009953D01*
X001827Y009930D01*
X001866Y009904D01*
X001902Y009875D01*
X001936Y009842D01*
X001967Y009807D01*
X001995Y009770D01*
X002019Y009730D01*
X002040Y009688D01*
X002058Y009645D01*
X002071Y009600D01*
X002081Y009554D01*
X002087Y009508D01*
X002089Y009461D01*
X002087Y009414D01*
X002081Y009368D01*
X002071Y009322D01*
X002058Y009277D01*
X002040Y009234D01*
X002019Y009192D01*
X001995Y009152D01*
X001967Y009115D01*
X001936Y009080D01*
X001902Y009047D01*
X001866Y009018D01*
X001827Y008992D01*
X001786Y008969D01*
X001743Y008950D01*
X001699Y008934D01*
X001654Y008922D01*
X001608Y008914D01*
X001561Y008910D01*
X001515Y008910D01*
X001468Y008914D01*
X001422Y008922D01*
X001377Y008934D01*
X001333Y008950D01*
X001290Y008969D01*
X001249Y008992D01*
X001210Y009018D01*
X001174Y009047D01*
X001140Y009080D01*
X001109Y009115D01*
X001081Y009152D01*
X001057Y009192D01*
X001036Y009234D01*
X001018Y009277D01*
X001005Y009322D01*
X000995Y009368D01*
X000989Y009414D01*
X000987Y009461D01*
D12*
X004455Y028253D03*
X004455Y029253D03*
X003455Y029253D03*
X005455Y029253D03*
X006455Y029253D03*
X006455Y028253D03*
X005455Y028253D03*
X007455Y028253D03*
X007455Y029253D03*
X008455Y029253D03*
X008455Y028253D03*
X009455Y028253D03*
X009455Y029253D03*
X010455Y029253D03*
X010455Y028253D03*
X011455Y028253D03*
X011455Y029253D03*
X012455Y029253D03*
X012455Y028253D03*
X013455Y028253D03*
X013455Y029253D03*
X014455Y029253D03*
X014455Y028253D03*
X015455Y028253D03*
X015455Y029253D03*
X016455Y029253D03*
X016455Y028253D03*
X017455Y028253D03*
X017455Y029253D03*
X018455Y029253D03*
X019455Y029253D03*
X019455Y028253D03*
X018455Y028253D03*
X020455Y028253D03*
X020455Y029253D03*
X021455Y029253D03*
X021455Y028253D03*
X022455Y028253D03*
X022455Y029253D03*
D13*
X003455Y028253D03*
D14*
X003910Y026583D03*
X004910Y026583D03*
X005910Y026583D03*
X006910Y026583D03*
X007910Y026583D03*
X008910Y026583D03*
X009910Y026583D03*
X010910Y026583D03*
X011910Y026583D03*
X012910Y026583D03*
X013910Y026583D03*
X014910Y026583D03*
X015910Y026583D03*
X016910Y026583D03*
X017910Y026583D03*
X018910Y026583D03*
X019910Y026583D03*
X020910Y026583D03*
X021910Y026583D03*
X022910Y026583D03*
X023910Y026583D03*
X024910Y026583D03*
X002910Y026583D03*
X001910Y026583D03*
X000910Y026583D03*
D15*
X008329Y008989D03*
X009707Y008989D03*
X012463Y008989D03*
X013841Y008989D03*
X016597Y008989D03*
X020573Y008989D03*
X021951Y008989D03*
D16*
X019195Y008989D03*
X015219Y008989D03*
X011085Y008989D03*
X006951Y008989D03*
D17*
X006411Y009031D02*
X002726Y009031D01*
X002685Y008913D02*
X006411Y008913D01*
X006411Y008794D02*
X002619Y008794D01*
X002664Y008852D02*
X002801Y009251D01*
X002801Y009672D01*
X002664Y010071D01*
X002405Y010403D01*
X002052Y010634D01*
X001644Y010737D01*
X001224Y010703D01*
X000838Y010533D01*
X000527Y010248D01*
X000327Y009877D01*
X000305Y009746D01*
X000305Y015367D01*
X000310Y015415D01*
X000347Y015505D01*
X000416Y015574D01*
X000505Y015611D01*
X000554Y015615D01*
X001842Y015615D01*
X002040Y015698D01*
X002191Y015849D01*
X002274Y016047D01*
X002274Y022167D01*
X002191Y022365D01*
X002040Y022516D01*
X001842Y022598D01*
X000554Y022598D01*
X000505Y022603D01*
X000416Y022640D01*
X000347Y022709D01*
X000310Y022799D01*
X000305Y022847D01*
X000305Y028468D01*
X000327Y028337D01*
X000527Y027966D01*
X000838Y027681D01*
X001224Y027511D01*
X001644Y027477D01*
X002052Y027580D01*
X002405Y027811D01*
X002664Y028143D01*
X002710Y028277D01*
X002710Y026998D01*
X002649Y026973D01*
X002520Y026844D01*
X002450Y026675D01*
X002450Y026492D01*
X002520Y026323D01*
X002649Y026193D01*
X002818Y026123D01*
X003001Y026123D01*
X003171Y026193D01*
X003300Y026323D01*
X003370Y026492D01*
X003370Y026675D01*
X003300Y026844D01*
X003171Y026973D01*
X003110Y026998D01*
X003110Y027788D01*
X003273Y027788D01*
X003377Y027683D01*
X003627Y027433D01*
X010787Y027433D01*
X010789Y027431D01*
X010870Y027433D01*
X010950Y027433D01*
X010952Y027435D01*
X010955Y027436D01*
X011010Y027494D01*
X011067Y027550D01*
X011067Y027553D01*
X011310Y027809D01*
X011363Y027788D01*
X011381Y027788D01*
X010710Y027116D01*
X010710Y026998D01*
X010649Y026973D01*
X010520Y026844D01*
X010450Y026675D01*
X010450Y026492D01*
X010520Y026323D01*
X010649Y026193D01*
X010818Y026123D01*
X011001Y026123D01*
X011171Y026193D01*
X011300Y026323D01*
X011370Y026492D01*
X011370Y026675D01*
X011300Y026844D01*
X011171Y026973D01*
X011144Y026984D01*
X012043Y027883D01*
X012105Y027945D01*
X012192Y027858D01*
X012363Y027788D01*
X012548Y027788D01*
X012719Y027858D01*
X012849Y027989D01*
X012920Y028160D01*
X012920Y028345D01*
X012849Y028516D01*
X012782Y028583D01*
X013128Y028583D01*
X013061Y028516D01*
X012990Y028345D01*
X012990Y028160D01*
X013061Y027989D01*
X013192Y027858D01*
X013363Y027788D01*
X013548Y027788D01*
X013719Y027858D01*
X013849Y027989D01*
X013920Y028160D01*
X013920Y028345D01*
X013849Y028516D01*
X013719Y028647D01*
X013548Y028718D01*
X013386Y028718D01*
X013386Y028730D01*
X013419Y028788D01*
X013548Y028788D01*
X013719Y028858D01*
X013849Y028989D01*
X013920Y029160D01*
X013920Y029345D01*
X013849Y029516D01*
X013732Y029633D01*
X014178Y029633D01*
X014061Y029516D01*
X013990Y029345D01*
X013990Y029160D01*
X014061Y028989D01*
X014192Y028858D01*
X014363Y028788D01*
X014548Y028788D01*
X014719Y028858D01*
X014760Y028900D01*
X014760Y028606D01*
X014719Y028647D01*
X014548Y028718D01*
X014363Y028718D01*
X014192Y028647D01*
X014061Y028516D01*
X013990Y028345D01*
X013990Y028160D01*
X014061Y027989D01*
X014192Y027858D01*
X014363Y027788D01*
X014548Y027788D01*
X014719Y027858D01*
X014760Y027900D01*
X014760Y027402D01*
X014751Y027391D01*
X014760Y027321D01*
X014760Y027250D01*
X014770Y027240D01*
X014772Y027226D01*
X014827Y027183D01*
X014877Y027133D01*
X014891Y027133D01*
X015013Y027038D01*
X015001Y027043D01*
X014818Y027043D01*
X014649Y026973D01*
X014520Y026844D01*
X014450Y026675D01*
X014450Y026492D01*
X014520Y026323D01*
X014649Y026193D01*
X014818Y026123D01*
X015001Y026123D01*
X015171Y026193D01*
X015210Y026233D01*
X015210Y020734D01*
X015209Y020652D01*
X015210Y020651D01*
X015210Y020650D01*
X015268Y020592D01*
X019011Y016802D01*
X019011Y016674D01*
X019063Y016549D01*
X019159Y016454D01*
X019284Y016402D01*
X019419Y016402D01*
X019544Y016454D01*
X019640Y016549D01*
X019691Y016674D01*
X019691Y016810D01*
X019640Y016935D01*
X019544Y017030D01*
X019419Y017082D01*
X019297Y017082D01*
X015610Y020815D01*
X015610Y026233D01*
X015649Y026193D01*
X015818Y026123D01*
X016001Y026123D01*
X016171Y026193D01*
X016210Y026233D01*
X016210Y024764D01*
X016208Y024762D01*
X016210Y024681D01*
X016210Y024600D01*
X016212Y024599D01*
X016212Y024597D01*
X016270Y024541D01*
X016327Y024483D01*
X016329Y024483D01*
X017422Y023432D01*
X017422Y023316D01*
X017473Y023192D01*
X017568Y023096D01*
X017693Y023045D01*
X017827Y023045D01*
X017952Y023096D01*
X018047Y023192D01*
X018098Y023316D01*
X018098Y023451D01*
X018047Y023575D01*
X017952Y023670D01*
X017827Y023722D01*
X017697Y023722D01*
X016610Y024768D01*
X016610Y026233D01*
X016649Y026193D01*
X016818Y026123D01*
X017001Y026123D01*
X017171Y026193D01*
X017210Y026233D01*
X017210Y025550D01*
X017327Y025433D01*
X017360Y025400D01*
X017477Y025283D01*
X019627Y025283D01*
X019760Y025150D01*
X019760Y023166D01*
X019758Y023164D01*
X019752Y023170D01*
X019627Y023222D01*
X019493Y023222D01*
X019368Y023170D01*
X019273Y023075D01*
X019222Y022951D01*
X019222Y022816D01*
X019273Y022692D01*
X019368Y022596D01*
X019493Y022545D01*
X019627Y022545D01*
X019752Y022596D01*
X019839Y022683D01*
X019843Y022683D01*
X019960Y022800D01*
X020043Y022883D01*
X020160Y023000D01*
X020160Y025316D01*
X019910Y025566D01*
X019793Y025683D01*
X017643Y025683D01*
X017610Y025716D01*
X017610Y026233D01*
X017649Y026193D01*
X017818Y026123D01*
X018001Y026123D01*
X018171Y026193D01*
X018300Y026323D01*
X018370Y026492D01*
X018370Y026675D01*
X018300Y026844D01*
X018171Y026973D01*
X018001Y027043D01*
X017818Y027043D01*
X017649Y026973D01*
X017610Y026934D01*
X017610Y026966D01*
X017605Y026971D01*
X017605Y026978D01*
X017547Y027029D01*
X017493Y027083D01*
X017486Y027083D01*
X017160Y027373D01*
X017160Y027890D01*
X017192Y027858D01*
X017363Y027788D01*
X017548Y027788D01*
X017719Y027858D01*
X017849Y027989D01*
X017920Y028160D01*
X017920Y028345D01*
X017849Y028516D01*
X017719Y028647D01*
X017548Y028718D01*
X017363Y028718D01*
X017192Y028647D01*
X017160Y028615D01*
X017160Y028831D01*
X017043Y028948D01*
X016894Y029097D01*
X016920Y029160D01*
X016920Y029345D01*
X016849Y029516D01*
X016719Y029647D01*
X016548Y029718D01*
X016363Y029718D01*
X016192Y029647D01*
X016061Y029516D01*
X015990Y029345D01*
X015990Y029160D01*
X016061Y028989D01*
X016192Y028858D01*
X016363Y028788D01*
X016548Y028788D01*
X016611Y028814D01*
X016760Y028665D01*
X016760Y028606D01*
X016719Y028647D01*
X016548Y028718D01*
X016363Y028718D01*
X016192Y028647D01*
X016061Y028516D01*
X015990Y028345D01*
X015990Y028160D01*
X016061Y027989D01*
X016192Y027858D01*
X016210Y027851D01*
X016210Y026934D01*
X016171Y026973D01*
X016001Y027043D01*
X015818Y027043D01*
X015649Y026973D01*
X015617Y026941D01*
X015610Y026996D01*
X015610Y027066D01*
X015600Y027076D01*
X015598Y027090D01*
X015543Y027134D01*
X015493Y027183D01*
X015479Y027183D01*
X015160Y027431D01*
X015160Y027868D01*
X015201Y027838D01*
X015269Y027803D01*
X015342Y027780D01*
X015415Y027768D01*
X015415Y028213D01*
X015495Y028213D01*
X015495Y028293D01*
X015415Y028293D01*
X015415Y028737D01*
X015342Y028726D01*
X015269Y028702D01*
X015201Y028667D01*
X015160Y028638D01*
X015160Y028890D01*
X015192Y028858D01*
X015363Y028788D01*
X015548Y028788D01*
X015719Y028858D01*
X015849Y028989D01*
X015920Y029160D01*
X015920Y029345D01*
X015849Y029516D01*
X015719Y029647D01*
X015548Y029718D01*
X015363Y029718D01*
X015192Y029647D01*
X015160Y029615D01*
X015160Y029616D01*
X015149Y029628D01*
X015146Y029644D01*
X015091Y029685D01*
X015043Y029733D01*
X015027Y029733D01*
X014691Y029985D01*
X014691Y029986D01*
X024039Y029986D01*
X023672Y029825D01*
X023362Y029539D01*
X023162Y029168D01*
X023092Y028753D01*
X023162Y028337D01*
X023362Y027966D01*
X023672Y027681D01*
X024058Y027511D01*
X024478Y027477D01*
X024887Y027580D01*
X025240Y027811D01*
X025499Y028143D01*
X025606Y028454D01*
X025606Y009760D01*
X025499Y010071D01*
X025240Y010403D01*
X024887Y010634D01*
X024478Y010737D01*
X024058Y010703D01*
X023672Y010533D01*
X023362Y010248D01*
X023162Y009877D01*
X023092Y009461D01*
X023162Y009046D01*
X023362Y008675D01*
X023672Y008389D01*
X024039Y008228D01*
X001814Y008228D01*
X002052Y008289D01*
X002405Y008519D01*
X002664Y008852D01*
X002527Y008676D02*
X006411Y008676D01*
X006411Y008557D02*
X002435Y008557D01*
X002282Y008439D02*
X018737Y008439D01*
X018734Y008440D02*
X018774Y008429D01*
X019155Y008429D01*
X019155Y008949D01*
X018635Y008949D01*
X018635Y008568D01*
X018646Y008527D01*
X018667Y008491D01*
X018697Y008461D01*
X018734Y008440D01*
X018638Y008557D02*
X016929Y008557D01*
X016903Y008531D02*
X017055Y008683D01*
X017137Y008881D01*
X017137Y009096D01*
X017055Y009295D01*
X016903Y009447D01*
X016704Y009529D01*
X016490Y009529D01*
X016291Y009447D01*
X016139Y009295D01*
X016057Y009096D01*
X016057Y008881D01*
X016139Y008683D01*
X016291Y008531D01*
X016490Y008449D01*
X016704Y008449D01*
X016903Y008531D01*
X017048Y008676D02*
X017633Y008676D01*
X017571Y008701D02*
X017769Y008619D01*
X017937Y008619D01*
X017984Y008619D01*
X018182Y008701D01*
X018333Y008853D01*
X018415Y009051D01*
X018415Y015671D01*
X018333Y015869D01*
X018182Y016020D01*
X018182Y016020D01*
X017984Y016102D01*
X017769Y016102D01*
X017571Y016020D01*
X017420Y015869D01*
X017338Y015671D01*
X017338Y009051D01*
X017420Y008853D01*
X017571Y008701D01*
X017571Y008701D01*
X017478Y008794D02*
X017101Y008794D01*
X017137Y008913D02*
X017395Y008913D01*
X017420Y008853D02*
X017420Y008853D01*
X017346Y009031D02*
X017137Y009031D01*
X017115Y009150D02*
X017338Y009150D01*
X017338Y009268D02*
X017066Y009268D01*
X016963Y009387D02*
X017338Y009387D01*
X017338Y009505D02*
X016761Y009505D01*
X016433Y009505D02*
X015701Y009505D01*
X015677Y009529D02*
X015419Y009529D01*
X015419Y009957D01*
X015302Y010074D01*
X014993Y010383D01*
X011443Y010383D01*
X011210Y010616D01*
X011210Y014603D01*
X011267Y014545D01*
X011392Y014493D01*
X011528Y014493D01*
X011653Y014545D01*
X011748Y014641D01*
X011800Y014766D01*
X011800Y014901D01*
X011748Y015026D01*
X011660Y015114D01*
X011660Y025566D01*
X011343Y025883D01*
X002110Y025883D01*
X002110Y026168D01*
X002171Y026193D01*
X002300Y026323D01*
X002370Y026492D01*
X002370Y026675D01*
X002300Y026844D01*
X002171Y026973D01*
X002001Y027043D01*
X001818Y027043D01*
X001649Y026973D01*
X001520Y026844D01*
X001450Y026675D01*
X001450Y026492D01*
X001520Y026323D01*
X001649Y026193D01*
X001710Y026168D01*
X001710Y025700D01*
X001727Y025683D01*
X001143Y025683D01*
X001110Y025716D01*
X001110Y026168D01*
X001171Y026193D01*
X001300Y026323D01*
X001370Y026492D01*
X001370Y026675D01*
X001300Y026844D01*
X001171Y026973D01*
X001001Y027043D01*
X000818Y027043D01*
X000649Y026973D01*
X000520Y026844D01*
X000450Y026675D01*
X000450Y026492D01*
X000520Y026323D01*
X000649Y026193D01*
X000710Y026168D01*
X000710Y025550D01*
X000827Y025433D01*
X000977Y025283D01*
X010727Y025283D01*
X010810Y025200D01*
X010810Y015414D01*
X010722Y015326D01*
X010670Y015201D01*
X010670Y015066D01*
X010722Y014941D01*
X010810Y014853D01*
X010810Y010450D01*
X011160Y010100D01*
X011277Y009983D01*
X014827Y009983D01*
X015019Y009791D01*
X015019Y009529D01*
X014761Y009529D01*
X014679Y009447D01*
X014679Y008531D01*
X014761Y008449D01*
X015677Y008449D01*
X015759Y008531D01*
X015759Y009447D01*
X015677Y009529D01*
X015759Y009387D02*
X016231Y009387D01*
X016128Y009268D02*
X015759Y009268D01*
X015759Y009150D02*
X016079Y009150D01*
X016057Y009031D02*
X015759Y009031D01*
X015759Y008913D02*
X016057Y008913D01*
X016093Y008794D02*
X015759Y008794D01*
X015759Y008676D02*
X016146Y008676D01*
X016265Y008557D02*
X015759Y008557D01*
X015219Y008989D02*
X015219Y009874D01*
X014910Y010183D01*
X011360Y010183D01*
X011010Y010533D01*
X011010Y015133D01*
X011010Y025283D01*
X010810Y025483D01*
X001060Y025483D01*
X000910Y025633D01*
X000910Y026583D01*
X001219Y026925D02*
X001601Y026925D01*
X001504Y026806D02*
X001316Y026806D01*
X001365Y026688D02*
X001455Y026688D01*
X001450Y026569D02*
X001370Y026569D01*
X001353Y026451D02*
X001467Y026451D01*
X001516Y026332D02*
X001304Y026332D01*
X001191Y026214D02*
X001629Y026214D01*
X001710Y026095D02*
X001110Y026095D01*
X001110Y025977D02*
X001710Y025977D01*
X001710Y025858D02*
X001110Y025858D01*
X001110Y025740D02*
X001710Y025740D01*
X001910Y025783D02*
X002010Y025683D01*
X011260Y025683D01*
X011460Y025483D01*
X011460Y014833D01*
X011708Y014601D02*
X017338Y014601D01*
X017338Y014719D02*
X011781Y014719D01*
X011800Y014838D02*
X017338Y014838D01*
X017338Y014956D02*
X011777Y014956D01*
X011699Y015075D02*
X017338Y015075D01*
X017338Y015193D02*
X011660Y015193D01*
X011660Y015312D02*
X017338Y015312D01*
X017338Y015430D02*
X011660Y015430D01*
X011660Y015549D02*
X017338Y015549D01*
X017338Y015667D02*
X011660Y015667D01*
X011660Y015786D02*
X017385Y015786D01*
X017420Y015869D02*
X017420Y015869D01*
X017455Y015904D02*
X011660Y015904D01*
X011660Y016023D02*
X017577Y016023D01*
X017571Y016020D02*
X017571Y016020D01*
X018176Y016023D02*
X025606Y016023D01*
X025606Y016141D02*
X011660Y016141D01*
X011660Y016260D02*
X025606Y016260D01*
X025606Y016378D02*
X011660Y016378D01*
X011660Y016497D02*
X019116Y016497D01*
X019036Y016615D02*
X011660Y016615D01*
X011660Y016734D02*
X019011Y016734D01*
X018961Y016852D02*
X011660Y016852D01*
X011660Y016971D02*
X018844Y016971D01*
X018727Y017089D02*
X011660Y017089D01*
X011660Y017208D02*
X018610Y017208D01*
X018493Y017326D02*
X011660Y017326D01*
X011660Y017445D02*
X018376Y017445D01*
X018259Y017563D02*
X011660Y017563D01*
X011660Y017682D02*
X018142Y017682D01*
X018025Y017800D02*
X011660Y017800D01*
X011660Y017919D02*
X017908Y017919D01*
X017791Y018037D02*
X011660Y018037D01*
X011660Y018156D02*
X017674Y018156D01*
X017557Y018274D02*
X011660Y018274D01*
X011660Y018393D02*
X017440Y018393D01*
X017323Y018511D02*
X011660Y018511D01*
X011660Y018630D02*
X017206Y018630D01*
X017089Y018748D02*
X011660Y018748D01*
X011660Y018867D02*
X016972Y018867D01*
X016855Y018985D02*
X011660Y018985D01*
X011660Y019104D02*
X016738Y019104D01*
X016621Y019222D02*
X011660Y019222D01*
X011660Y019341D02*
X016504Y019341D01*
X016387Y019459D02*
X011660Y019459D01*
X011660Y019578D02*
X016270Y019578D01*
X016153Y019696D02*
X011660Y019696D01*
X011660Y019815D02*
X016036Y019815D01*
X015919Y019933D02*
X011660Y019933D01*
X011660Y020052D02*
X015802Y020052D01*
X015685Y020170D02*
X011660Y020170D01*
X011660Y020289D02*
X015568Y020289D01*
X015451Y020407D02*
X011660Y020407D01*
X011660Y020526D02*
X015334Y020526D01*
X015216Y020644D02*
X011660Y020644D01*
X011660Y020763D02*
X015210Y020763D01*
X015210Y020881D02*
X011660Y020881D01*
X011660Y021000D02*
X015210Y021000D01*
X015210Y021118D02*
X011660Y021118D01*
X011660Y021237D02*
X015210Y021237D01*
X015210Y021355D02*
X011660Y021355D01*
X011660Y021474D02*
X015210Y021474D01*
X015210Y021592D02*
X011660Y021592D01*
X011660Y021711D02*
X015210Y021711D01*
X015210Y021829D02*
X011660Y021829D01*
X011660Y021948D02*
X015210Y021948D01*
X015210Y022066D02*
X011660Y022066D01*
X011660Y022185D02*
X015210Y022185D01*
X015210Y022303D02*
X011660Y022303D01*
X011660Y022422D02*
X015210Y022422D01*
X015210Y022540D02*
X011660Y022540D01*
X011660Y022659D02*
X015210Y022659D01*
X015210Y022777D02*
X011660Y022777D01*
X011660Y022896D02*
X015210Y022896D01*
X015210Y023014D02*
X011660Y023014D01*
X011660Y023133D02*
X015210Y023133D01*
X015210Y023251D02*
X011660Y023251D01*
X011660Y023370D02*
X015210Y023370D01*
X015210Y023488D02*
X011660Y023488D01*
X011660Y023607D02*
X015210Y023607D01*
X015210Y023725D02*
X011660Y023725D01*
X011660Y023844D02*
X015210Y023844D01*
X015210Y023962D02*
X011660Y023962D01*
X011660Y024081D02*
X015210Y024081D01*
X015210Y024199D02*
X011660Y024199D01*
X011660Y024318D02*
X015210Y024318D01*
X015210Y024436D02*
X011660Y024436D01*
X011660Y024555D02*
X015210Y024555D01*
X015210Y024673D02*
X011660Y024673D01*
X011660Y024792D02*
X015210Y024792D01*
X015210Y024910D02*
X011660Y024910D01*
X011660Y025029D02*
X015210Y025029D01*
X015210Y025147D02*
X011660Y025147D01*
X011660Y025266D02*
X015210Y025266D01*
X015210Y025384D02*
X011660Y025384D01*
X011660Y025503D02*
X015210Y025503D01*
X015210Y025621D02*
X011605Y025621D01*
X011486Y025740D02*
X015210Y025740D01*
X015210Y025858D02*
X011368Y025858D01*
X011191Y026214D02*
X011629Y026214D01*
X011649Y026193D02*
X011818Y026123D01*
X012001Y026123D01*
X012171Y026193D01*
X012300Y026323D01*
X012370Y026492D01*
X012370Y026675D01*
X012300Y026844D01*
X012171Y026973D01*
X012001Y027043D01*
X011818Y027043D01*
X011649Y026973D01*
X011520Y026844D01*
X011450Y026675D01*
X011450Y026492D01*
X011520Y026323D01*
X011649Y026193D01*
X011516Y026332D02*
X011304Y026332D01*
X011353Y026451D02*
X011467Y026451D01*
X011450Y026569D02*
X011370Y026569D01*
X011365Y026688D02*
X011455Y026688D01*
X011504Y026806D02*
X011316Y026806D01*
X011219Y026925D02*
X011601Y026925D01*
X011321Y027162D02*
X014849Y027162D01*
X014760Y027280D02*
X011440Y027280D01*
X011558Y027399D02*
X014758Y027399D01*
X014760Y027517D02*
X011677Y027517D01*
X011795Y027636D02*
X014760Y027636D01*
X014760Y027754D02*
X011914Y027754D01*
X012032Y027873D02*
X012177Y027873D01*
X011960Y028083D02*
X011960Y028483D01*
X012260Y028783D01*
X013186Y028783D01*
X013455Y029253D01*
X013019Y029413D02*
X012913Y029413D01*
X012905Y029439D02*
X012870Y029507D01*
X012825Y029569D01*
X012771Y029623D01*
X012756Y029633D01*
X013178Y029633D01*
X013061Y029516D01*
X012990Y029345D01*
X012990Y029160D01*
X013061Y028989D01*
X013067Y028983D01*
X012859Y028983D01*
X012870Y028998D01*
X012905Y029066D01*
X012928Y029139D01*
X012940Y029213D01*
X012495Y029213D01*
X012495Y029293D01*
X012940Y029293D01*
X012928Y029366D01*
X012905Y029439D01*
X012852Y029532D02*
X013077Y029532D01*
X012990Y029295D02*
X012940Y029295D01*
X012934Y029176D02*
X012990Y029176D01*
X013033Y029058D02*
X012900Y029058D01*
X012415Y029213D02*
X011971Y029213D01*
X011982Y029139D01*
X012006Y029066D01*
X012040Y028998D01*
X012085Y028937D01*
X012108Y028914D01*
X012060Y028866D01*
X011780Y028586D01*
X011719Y028647D01*
X011548Y028718D01*
X011363Y028718D01*
X011192Y028647D01*
X011061Y028516D01*
X010990Y028345D01*
X010990Y028160D01*
X011021Y028086D01*
X010781Y027833D01*
X010658Y027833D01*
X010719Y027858D01*
X010849Y027989D01*
X010920Y028160D01*
X010920Y028345D01*
X010849Y028516D01*
X010832Y028533D01*
X010900Y028533D01*
X010903Y028536D01*
X010907Y028536D01*
X010961Y028594D01*
X011017Y028650D01*
X011017Y028655D01*
X011104Y028748D01*
X011160Y028804D01*
X011160Y028808D01*
X011163Y028811D01*
X011160Y028890D01*
X011160Y028890D01*
X011192Y028858D01*
X011363Y028788D01*
X011548Y028788D01*
X011719Y028858D01*
X011849Y028989D01*
X011920Y029160D01*
X011920Y029345D01*
X011849Y029516D01*
X011732Y029633D01*
X012154Y029633D01*
X012139Y029623D01*
X012085Y029569D01*
X012040Y029507D01*
X012006Y029439D01*
X011982Y029366D01*
X011971Y029293D01*
X012415Y029293D01*
X012415Y029213D01*
X012083Y028939D02*
X011800Y028939D01*
X011878Y029058D02*
X012010Y029058D01*
X011976Y029176D02*
X011920Y029176D01*
X011920Y029295D02*
X011971Y029295D01*
X011998Y029413D02*
X011892Y029413D01*
X011834Y029532D02*
X012059Y029532D01*
X012015Y028821D02*
X011628Y028821D01*
X011585Y028702D02*
X011896Y028702D01*
X011455Y028253D02*
X010867Y027633D01*
X003710Y027633D01*
X003460Y027883D01*
X003460Y028248D01*
X003455Y028253D01*
X003306Y027754D02*
X003110Y027754D01*
X003110Y027636D02*
X003425Y027636D01*
X003543Y027517D02*
X003110Y027517D01*
X003110Y027399D02*
X010993Y027399D01*
X011034Y027517D02*
X011111Y027517D01*
X011145Y027636D02*
X011230Y027636D01*
X011258Y027754D02*
X011348Y027754D01*
X010931Y027991D02*
X010850Y027991D01*
X010819Y027873D02*
X010733Y027873D01*
X010899Y028110D02*
X011011Y028110D01*
X010990Y028228D02*
X010920Y028228D01*
X010920Y028347D02*
X010991Y028347D01*
X011040Y028465D02*
X010870Y028465D01*
X010952Y028584D02*
X011129Y028584D01*
X011062Y028702D02*
X011326Y028702D01*
X011283Y028821D02*
X011162Y028821D01*
X010960Y028886D02*
X010960Y029583D01*
X011260Y029833D01*
X014560Y029833D01*
X014960Y029533D01*
X014960Y027333D01*
X015410Y026983D01*
X015410Y020733D01*
X019351Y016742D01*
X019587Y016497D02*
X025606Y016497D01*
X025606Y016615D02*
X019667Y016615D01*
X019691Y016734D02*
X025606Y016734D01*
X025606Y016852D02*
X019674Y016852D01*
X019603Y016971D02*
X025606Y016971D01*
X025606Y017089D02*
X019289Y017089D01*
X019172Y017208D02*
X025606Y017208D01*
X025606Y017326D02*
X019055Y017326D01*
X018938Y017445D02*
X025606Y017445D01*
X025606Y017563D02*
X018821Y017563D01*
X018704Y017682D02*
X025606Y017682D01*
X025606Y017800D02*
X018587Y017800D01*
X018470Y017919D02*
X025606Y017919D01*
X025606Y018037D02*
X018353Y018037D01*
X018236Y018156D02*
X025606Y018156D01*
X025606Y018274D02*
X018119Y018274D01*
X018002Y018393D02*
X025606Y018393D01*
X025606Y018511D02*
X017885Y018511D01*
X017768Y018630D02*
X025606Y018630D01*
X025606Y018748D02*
X017651Y018748D01*
X017534Y018867D02*
X025606Y018867D01*
X025606Y018985D02*
X017417Y018985D01*
X017300Y019104D02*
X025606Y019104D01*
X025606Y019222D02*
X017183Y019222D01*
X017066Y019341D02*
X025606Y019341D01*
X025606Y019459D02*
X016949Y019459D01*
X016832Y019578D02*
X025606Y019578D01*
X025606Y019696D02*
X016715Y019696D01*
X016598Y019815D02*
X025606Y019815D01*
X025606Y019933D02*
X016481Y019933D01*
X016364Y020052D02*
X025606Y020052D01*
X025606Y020170D02*
X016247Y020170D01*
X016130Y020289D02*
X025606Y020289D01*
X025606Y020407D02*
X016013Y020407D01*
X015896Y020526D02*
X025606Y020526D01*
X025606Y020644D02*
X015779Y020644D01*
X015662Y020763D02*
X025606Y020763D01*
X025606Y020881D02*
X015610Y020881D01*
X015610Y021000D02*
X025606Y021000D01*
X025606Y021118D02*
X015610Y021118D01*
X015610Y021237D02*
X025606Y021237D01*
X025606Y021355D02*
X015610Y021355D01*
X015610Y021474D02*
X025606Y021474D01*
X025606Y021592D02*
X015610Y021592D01*
X015610Y021711D02*
X025606Y021711D01*
X025606Y021829D02*
X015610Y021829D01*
X015610Y021948D02*
X025606Y021948D01*
X025606Y022066D02*
X015610Y022066D01*
X015610Y022185D02*
X025606Y022185D01*
X025606Y022303D02*
X015610Y022303D01*
X015610Y022422D02*
X025606Y022422D01*
X025606Y022540D02*
X015610Y022540D01*
X015610Y022659D02*
X019306Y022659D01*
X019238Y022777D02*
X015610Y022777D01*
X015610Y022896D02*
X019222Y022896D01*
X019248Y023014D02*
X015610Y023014D01*
X015610Y023133D02*
X017532Y023133D01*
X017448Y023251D02*
X015610Y023251D01*
X015610Y023370D02*
X017422Y023370D01*
X017363Y023488D02*
X015610Y023488D01*
X015610Y023607D02*
X017240Y023607D01*
X017116Y023725D02*
X015610Y023725D01*
X015610Y023844D02*
X016993Y023844D01*
X016870Y023962D02*
X015610Y023962D01*
X015610Y024081D02*
X016747Y024081D01*
X016624Y024199D02*
X015610Y024199D01*
X015610Y024318D02*
X016501Y024318D01*
X016378Y024436D02*
X015610Y024436D01*
X015610Y024555D02*
X016255Y024555D01*
X016210Y024673D02*
X015610Y024673D01*
X015610Y024792D02*
X016210Y024792D01*
X016210Y024910D02*
X015610Y024910D01*
X015610Y025029D02*
X016210Y025029D01*
X016210Y025147D02*
X015610Y025147D01*
X015610Y025266D02*
X016210Y025266D01*
X016210Y025384D02*
X015610Y025384D01*
X015610Y025503D02*
X016210Y025503D01*
X016210Y025621D02*
X015610Y025621D01*
X015610Y025740D02*
X016210Y025740D01*
X016210Y025858D02*
X015610Y025858D01*
X015610Y025977D02*
X016210Y025977D01*
X016210Y026095D02*
X015610Y026095D01*
X015610Y026214D02*
X015629Y026214D01*
X015210Y026214D02*
X015191Y026214D01*
X015210Y026095D02*
X002110Y026095D01*
X002110Y025977D02*
X015210Y025977D01*
X014629Y026214D02*
X014191Y026214D01*
X014171Y026193D02*
X014300Y026323D01*
X014370Y026492D01*
X014370Y026675D01*
X014300Y026844D01*
X014171Y026973D01*
X014001Y027043D01*
X013818Y027043D01*
X013649Y026973D01*
X013520Y026844D01*
X013450Y026675D01*
X013450Y026492D01*
X013520Y026323D01*
X013649Y026193D01*
X013818Y026123D01*
X014001Y026123D01*
X014171Y026193D01*
X014304Y026332D02*
X014516Y026332D01*
X014467Y026451D02*
X014353Y026451D01*
X014370Y026569D02*
X014450Y026569D01*
X014455Y026688D02*
X014365Y026688D01*
X014316Y026806D02*
X014504Y026806D01*
X014601Y026925D02*
X014219Y026925D01*
X013601Y026925D02*
X013219Y026925D01*
X013171Y026973D02*
X013001Y027043D01*
X012818Y027043D01*
X012649Y026973D01*
X012520Y026844D01*
X012450Y026675D01*
X012450Y026492D01*
X012520Y026323D01*
X012649Y026193D01*
X012818Y026123D01*
X013001Y026123D01*
X013171Y026193D01*
X013300Y026323D01*
X013370Y026492D01*
X013370Y026675D01*
X013300Y026844D01*
X013171Y026973D01*
X013316Y026806D02*
X013504Y026806D01*
X013455Y026688D02*
X013365Y026688D01*
X013370Y026569D02*
X013450Y026569D01*
X013467Y026451D02*
X013353Y026451D01*
X013304Y026332D02*
X013516Y026332D01*
X013629Y026214D02*
X013191Y026214D01*
X012629Y026214D02*
X012191Y026214D01*
X012304Y026332D02*
X012516Y026332D01*
X012467Y026451D02*
X012353Y026451D01*
X012370Y026569D02*
X012450Y026569D01*
X012455Y026688D02*
X012365Y026688D01*
X012316Y026806D02*
X012504Y026806D01*
X012601Y026925D02*
X012219Y026925D01*
X011203Y027043D02*
X015007Y027043D01*
X015201Y027399D02*
X016210Y027399D01*
X016210Y027517D02*
X015160Y027517D01*
X015160Y027636D02*
X016210Y027636D01*
X016210Y027754D02*
X015160Y027754D01*
X015415Y027873D02*
X015495Y027873D01*
X015495Y027768D02*
X015569Y027780D01*
X015641Y027803D01*
X015709Y027838D01*
X015771Y027883D01*
X015825Y027937D01*
X015870Y027998D01*
X015905Y028066D01*
X015928Y028139D01*
X015940Y028213D01*
X015495Y028213D01*
X015495Y027768D01*
X015495Y027991D02*
X015415Y027991D01*
X015415Y028110D02*
X015495Y028110D01*
X015495Y028228D02*
X015990Y028228D01*
X015940Y028293D02*
X015928Y028366D01*
X015905Y028439D01*
X015870Y028507D01*
X015825Y028569D01*
X015771Y028623D01*
X015709Y028667D01*
X015641Y028702D01*
X015569Y028726D01*
X015495Y028737D01*
X015495Y028293D01*
X015940Y028293D01*
X015931Y028347D02*
X015991Y028347D01*
X016040Y028465D02*
X015891Y028465D01*
X015810Y028584D02*
X016129Y028584D01*
X016326Y028702D02*
X015641Y028702D01*
X015628Y028821D02*
X016283Y028821D01*
X016111Y028939D02*
X015800Y028939D01*
X015878Y029058D02*
X016033Y029058D01*
X015990Y029176D02*
X015920Y029176D01*
X015920Y029295D02*
X015990Y029295D01*
X016019Y029413D02*
X015892Y029413D01*
X015834Y029532D02*
X016077Y029532D01*
X016200Y029650D02*
X015710Y029650D01*
X015200Y029650D02*
X015137Y029650D01*
X014979Y029769D02*
X023612Y029769D01*
X023483Y029650D02*
X022710Y029650D01*
X022719Y029647D02*
X022548Y029718D01*
X022363Y029718D01*
X022192Y029647D01*
X022061Y029516D01*
X021990Y029345D01*
X021990Y029160D01*
X022061Y028989D01*
X022192Y028858D01*
X022363Y028788D01*
X022548Y028788D01*
X022719Y028858D01*
X022849Y028989D01*
X022920Y029160D01*
X022920Y029345D01*
X022849Y029516D01*
X022719Y029647D01*
X022834Y029532D02*
X023358Y029532D01*
X023294Y029413D02*
X022892Y029413D01*
X022920Y029295D02*
X023230Y029295D01*
X023166Y029176D02*
X022920Y029176D01*
X022878Y029058D02*
X023143Y029058D01*
X023123Y028939D02*
X022800Y028939D01*
X022628Y028821D02*
X023104Y028821D01*
X023101Y028702D02*
X022641Y028702D01*
X022569Y028726D01*
X022495Y028737D01*
X022495Y028293D01*
X022415Y028293D01*
X022415Y028737D01*
X022342Y028726D01*
X022269Y028702D01*
X022201Y028667D01*
X022139Y028623D01*
X022085Y028569D01*
X022040Y028507D01*
X022006Y028439D01*
X021982Y028366D01*
X021971Y028293D01*
X022415Y028293D01*
X022415Y028213D01*
X021971Y028213D01*
X021982Y028139D01*
X022006Y028066D01*
X022040Y027998D01*
X022085Y027937D01*
X022139Y027883D01*
X022201Y027838D01*
X022269Y027803D01*
X022342Y027780D01*
X022415Y027768D01*
X022415Y028213D01*
X022495Y028213D01*
X022495Y028293D01*
X022940Y028293D01*
X022928Y028366D01*
X022905Y028439D01*
X022870Y028507D01*
X022825Y028569D01*
X022771Y028623D01*
X022709Y028667D01*
X022641Y028702D01*
X022495Y028702D02*
X022415Y028702D01*
X022415Y028584D02*
X022495Y028584D01*
X022495Y028465D02*
X022415Y028465D01*
X022415Y028347D02*
X022495Y028347D01*
X022495Y028228D02*
X023220Y028228D01*
X023160Y028347D02*
X022931Y028347D01*
X022891Y028465D02*
X023140Y028465D01*
X023120Y028584D02*
X022810Y028584D01*
X022940Y028213D02*
X022495Y028213D01*
X022495Y027768D01*
X022569Y027780D01*
X022641Y027803D01*
X022709Y027838D01*
X022771Y027883D01*
X022825Y027937D01*
X022870Y027998D01*
X022905Y028066D01*
X022928Y028139D01*
X022940Y028213D01*
X022919Y028110D02*
X023284Y028110D01*
X023348Y027991D02*
X022865Y027991D01*
X022758Y027873D02*
X023463Y027873D01*
X023592Y027754D02*
X021236Y027754D01*
X021192Y027858D02*
X021363Y027788D01*
X021548Y027788D01*
X021719Y027858D01*
X021849Y027989D01*
X021920Y028160D01*
X021920Y028345D01*
X021849Y028516D01*
X021719Y028647D01*
X021548Y028718D01*
X021363Y028718D01*
X021192Y028647D01*
X021061Y028516D01*
X020990Y028345D01*
X020990Y028160D01*
X021061Y027989D01*
X021192Y027858D01*
X021177Y027873D02*
X021118Y027873D01*
X021060Y027991D02*
X020999Y027991D01*
X021011Y028110D02*
X020899Y028110D01*
X020894Y028097D02*
X020920Y028160D01*
X020920Y028345D01*
X020849Y028516D01*
X020719Y028647D01*
X020548Y028718D01*
X020363Y028718D01*
X020192Y028647D01*
X020061Y028516D01*
X019990Y028345D01*
X019990Y028160D01*
X020061Y027989D01*
X020192Y027858D01*
X020363Y027788D01*
X020548Y027788D01*
X020611Y027814D01*
X021551Y026874D01*
X021520Y026844D01*
X021450Y026675D01*
X021450Y026492D01*
X021520Y026323D01*
X021649Y026193D01*
X021818Y026123D01*
X022001Y026123D01*
X022171Y026193D01*
X022300Y026323D01*
X022370Y026492D01*
X022370Y026675D01*
X022300Y026844D01*
X022171Y026973D01*
X022001Y027043D01*
X021947Y027043D01*
X024773Y027043D01*
X024798Y027052D02*
X024726Y027028D01*
X024658Y026994D01*
X024597Y026949D01*
X024544Y026896D01*
X024499Y026835D01*
X024465Y026768D01*
X024442Y026696D01*
X024430Y026623D01*
X024870Y026623D01*
X024870Y026543D01*
X024950Y026543D01*
X024950Y026104D01*
X025022Y026115D01*
X025094Y026138D01*
X025162Y026173D01*
X025223Y026217D01*
X025276Y026271D01*
X025321Y026332D01*
X025606Y026332D01*
X025606Y026214D02*
X025218Y026214D01*
X025321Y026332D02*
X025355Y026399D01*
X025378Y026471D01*
X025390Y026543D01*
X024950Y026543D01*
X024950Y026623D01*
X025390Y026623D01*
X025378Y026696D01*
X025355Y026768D01*
X025321Y026835D01*
X025276Y026896D01*
X025223Y026949D01*
X025162Y026994D01*
X025094Y027028D01*
X025022Y027052D01*
X024950Y027063D01*
X024950Y026623D01*
X024870Y026623D01*
X024870Y027063D01*
X024798Y027052D01*
X024870Y027043D02*
X024950Y027043D01*
X025047Y027043D02*
X025606Y027043D01*
X025606Y026925D02*
X025247Y026925D01*
X025335Y026806D02*
X025606Y026806D01*
X025606Y026688D02*
X025379Y026688D01*
X025372Y026451D02*
X025606Y026451D01*
X025606Y026569D02*
X024950Y026569D01*
X024870Y026569D02*
X024370Y026569D01*
X024430Y026543D02*
X024442Y026471D01*
X024465Y026399D01*
X024499Y026332D01*
X024304Y026332D01*
X024300Y026323D02*
X024370Y026492D01*
X024370Y026675D01*
X024300Y026844D01*
X024171Y026973D01*
X024001Y027043D01*
X023818Y027043D01*
X023649Y026973D01*
X023520Y026844D01*
X023450Y026675D01*
X023450Y026492D01*
X023520Y026323D01*
X023649Y026193D01*
X023818Y026123D01*
X024001Y026123D01*
X024171Y026193D01*
X024300Y026323D01*
X024353Y026451D02*
X024448Y026451D01*
X024430Y026543D02*
X024870Y026543D01*
X024870Y026104D01*
X024798Y026115D01*
X024726Y026138D01*
X024658Y026173D01*
X024597Y026217D01*
X024544Y026271D01*
X024499Y026332D01*
X024602Y026214D02*
X024191Y026214D01*
X024365Y026688D02*
X024441Y026688D01*
X024485Y026806D02*
X024316Y026806D01*
X024219Y026925D02*
X024573Y026925D01*
X024870Y026925D02*
X024950Y026925D01*
X024950Y026806D02*
X024870Y026806D01*
X024870Y026688D02*
X024950Y026688D01*
X024950Y026451D02*
X024870Y026451D01*
X024870Y026332D02*
X024950Y026332D01*
X024950Y026214D02*
X024870Y026214D01*
X025606Y026095D02*
X017610Y026095D01*
X017610Y025977D02*
X025606Y025977D01*
X025606Y025858D02*
X017610Y025858D01*
X017610Y025740D02*
X025606Y025740D01*
X025606Y025621D02*
X019855Y025621D01*
X019973Y025503D02*
X025606Y025503D01*
X025606Y025384D02*
X020092Y025384D01*
X020160Y025266D02*
X025606Y025266D01*
X025606Y025147D02*
X020160Y025147D01*
X020160Y025029D02*
X025606Y025029D01*
X025606Y024910D02*
X020160Y024910D01*
X020160Y024792D02*
X025606Y024792D01*
X025606Y024673D02*
X020160Y024673D01*
X020160Y024555D02*
X025606Y024555D01*
X025606Y024436D02*
X020160Y024436D01*
X020160Y024318D02*
X025606Y024318D01*
X025606Y024199D02*
X020160Y024199D01*
X020160Y024081D02*
X025606Y024081D01*
X025606Y023962D02*
X020160Y023962D01*
X020160Y023844D02*
X025606Y023844D01*
X025606Y023725D02*
X020160Y023725D01*
X020160Y023607D02*
X025606Y023607D01*
X025606Y023488D02*
X020160Y023488D01*
X020160Y023370D02*
X025606Y023370D01*
X025606Y023251D02*
X020160Y023251D01*
X020160Y023133D02*
X025606Y023133D01*
X025606Y023014D02*
X020160Y023014D01*
X020055Y022896D02*
X025606Y022896D01*
X025606Y022777D02*
X019937Y022777D01*
X019814Y022659D02*
X025606Y022659D01*
X023629Y026214D02*
X023191Y026214D01*
X023171Y026193D02*
X023300Y026323D01*
X023370Y026492D01*
X023370Y026675D01*
X023300Y026844D01*
X023171Y026973D01*
X023001Y027043D01*
X022818Y027043D01*
X022649Y026973D01*
X022520Y026844D01*
X022450Y026675D01*
X022450Y026492D01*
X022520Y026323D01*
X022649Y026193D01*
X022818Y026123D01*
X023001Y026123D01*
X023171Y026193D01*
X023304Y026332D02*
X023516Y026332D01*
X023467Y026451D02*
X023353Y026451D01*
X023370Y026569D02*
X023450Y026569D01*
X023455Y026688D02*
X023365Y026688D01*
X023316Y026806D02*
X023504Y026806D01*
X023601Y026925D02*
X023219Y026925D01*
X022601Y026925D02*
X022219Y026925D01*
X022316Y026806D02*
X022504Y026806D01*
X022455Y026688D02*
X022365Y026688D01*
X022370Y026569D02*
X022450Y026569D01*
X022467Y026451D02*
X022353Y026451D01*
X022304Y026332D02*
X022516Y026332D01*
X022629Y026214D02*
X022191Y026214D01*
X021910Y026583D02*
X021910Y026798D01*
X020455Y028253D01*
X020129Y028584D02*
X019782Y028584D01*
X019719Y028647D02*
X019849Y028516D01*
X019920Y028345D01*
X019920Y028160D01*
X019849Y027989D01*
X019719Y027858D01*
X019548Y027788D01*
X019363Y027788D01*
X019192Y027858D01*
X019061Y027989D01*
X018990Y028160D01*
X018990Y028345D01*
X019061Y028516D01*
X019192Y028647D01*
X019363Y028718D01*
X019548Y028718D01*
X019719Y028647D01*
X019585Y028702D02*
X020326Y028702D01*
X020363Y028788D02*
X020192Y028858D01*
X020061Y028989D01*
X019990Y029160D01*
X019990Y029345D01*
X020061Y029516D01*
X020192Y029647D01*
X020363Y029718D01*
X020548Y029718D01*
X020719Y029647D01*
X020849Y029516D01*
X020920Y029345D01*
X020920Y029160D01*
X020849Y028989D01*
X020719Y028858D01*
X020548Y028788D01*
X020363Y028788D01*
X020283Y028821D02*
X019676Y028821D01*
X019709Y028838D02*
X019771Y028883D01*
X019825Y028937D01*
X019870Y028998D01*
X019905Y029066D01*
X019928Y029139D01*
X019940Y029213D01*
X019495Y029213D01*
X019495Y029293D01*
X019415Y029293D01*
X019415Y029737D01*
X019342Y029726D01*
X019269Y029702D01*
X019201Y029667D01*
X019139Y029623D01*
X019085Y029569D01*
X019040Y029507D01*
X019006Y029439D01*
X018982Y029366D01*
X018971Y029293D01*
X019415Y029293D01*
X019415Y029213D01*
X018971Y029213D01*
X018982Y029139D01*
X019006Y029066D01*
X019040Y028998D01*
X019085Y028937D01*
X019139Y028883D01*
X019201Y028838D01*
X019269Y028803D01*
X019342Y028780D01*
X019415Y028768D01*
X019415Y029213D01*
X019495Y029213D01*
X019495Y028768D01*
X019569Y028780D01*
X019641Y028803D01*
X019709Y028838D01*
X019827Y028939D02*
X020111Y028939D01*
X020033Y029058D02*
X019900Y029058D01*
X019934Y029176D02*
X019990Y029176D01*
X019990Y029295D02*
X019940Y029295D01*
X019940Y029293D02*
X019928Y029366D01*
X019905Y029439D01*
X019870Y029507D01*
X019825Y029569D01*
X019771Y029623D01*
X019709Y029667D01*
X019641Y029702D01*
X019569Y029726D01*
X019495Y029737D01*
X019495Y029293D01*
X019940Y029293D01*
X019913Y029413D02*
X020019Y029413D01*
X020077Y029532D02*
X019852Y029532D01*
X019733Y029650D02*
X020200Y029650D01*
X020710Y029650D02*
X021200Y029650D01*
X021192Y029647D02*
X021061Y029516D01*
X020990Y029345D01*
X020990Y029160D01*
X021061Y028989D01*
X021192Y028858D01*
X021363Y028788D01*
X021548Y028788D01*
X021719Y028858D01*
X021849Y028989D01*
X021920Y029160D01*
X021920Y029345D01*
X021849Y029516D01*
X021719Y029647D01*
X021548Y029718D01*
X021363Y029718D01*
X021192Y029647D01*
X021077Y029532D02*
X020834Y029532D01*
X020892Y029413D02*
X021019Y029413D01*
X020990Y029295D02*
X020920Y029295D01*
X020920Y029176D02*
X020990Y029176D01*
X021033Y029058D02*
X020878Y029058D01*
X020800Y028939D02*
X021111Y028939D01*
X021283Y028821D02*
X020628Y028821D01*
X020585Y028702D02*
X021326Y028702D01*
X021129Y028584D02*
X020782Y028584D01*
X020870Y028465D02*
X021040Y028465D01*
X020991Y028347D02*
X020920Y028347D01*
X020920Y028228D02*
X020990Y028228D01*
X020894Y028097D02*
X021947Y027043D01*
X021829Y027162D02*
X025606Y027162D01*
X025606Y027280D02*
X021710Y027280D01*
X021592Y027399D02*
X025606Y027399D01*
X025606Y027517D02*
X024640Y027517D01*
X024972Y027636D02*
X025606Y027636D01*
X025606Y027754D02*
X025154Y027754D01*
X025288Y027873D02*
X025606Y027873D01*
X025606Y027991D02*
X025381Y027991D01*
X025473Y028110D02*
X025606Y028110D01*
X025606Y028228D02*
X025528Y028228D01*
X025569Y028347D02*
X025606Y028347D01*
X024044Y027517D02*
X021473Y027517D01*
X021355Y027636D02*
X023774Y027636D01*
X022495Y027873D02*
X022415Y027873D01*
X022415Y027991D02*
X022495Y027991D01*
X022495Y028110D02*
X022415Y028110D01*
X022415Y028228D02*
X021920Y028228D01*
X021920Y028347D02*
X021979Y028347D01*
X022019Y028465D02*
X021870Y028465D01*
X021782Y028584D02*
X022101Y028584D01*
X022270Y028702D02*
X021585Y028702D01*
X021628Y028821D02*
X022283Y028821D01*
X022111Y028939D02*
X021800Y028939D01*
X021878Y029058D02*
X022033Y029058D01*
X021990Y029176D02*
X021920Y029176D01*
X021920Y029295D02*
X021990Y029295D01*
X022019Y029413D02*
X021892Y029413D01*
X021834Y029532D02*
X022077Y029532D01*
X022200Y029650D02*
X021710Y029650D01*
X021899Y028110D02*
X021992Y028110D01*
X022046Y027991D02*
X021850Y027991D01*
X021733Y027873D02*
X022153Y027873D01*
X021382Y027043D02*
X017533Y027043D01*
X017398Y027162D02*
X021263Y027162D01*
X021145Y027280D02*
X017264Y027280D01*
X017160Y027399D02*
X021026Y027399D01*
X020908Y027517D02*
X017160Y027517D01*
X017160Y027636D02*
X020789Y027636D01*
X020671Y027754D02*
X017160Y027754D01*
X017160Y027873D02*
X017177Y027873D01*
X017733Y027873D02*
X018177Y027873D01*
X018192Y027858D02*
X018363Y027788D01*
X018548Y027788D01*
X018719Y027858D01*
X018849Y027989D01*
X018920Y028160D01*
X018920Y028345D01*
X018849Y028516D01*
X018719Y028647D01*
X018548Y028718D01*
X018363Y028718D01*
X018192Y028647D01*
X018061Y028516D01*
X017990Y028345D01*
X017990Y028160D01*
X018061Y027989D01*
X018192Y027858D01*
X018060Y027991D02*
X017850Y027991D01*
X017899Y028110D02*
X018011Y028110D01*
X017990Y028228D02*
X017920Y028228D01*
X017920Y028347D02*
X017991Y028347D01*
X018040Y028465D02*
X017870Y028465D01*
X017782Y028584D02*
X018129Y028584D01*
X018326Y028702D02*
X017585Y028702D01*
X017569Y028780D02*
X017495Y028768D01*
X017495Y029213D01*
X017495Y029293D01*
X017415Y029293D01*
X017415Y029737D01*
X017342Y029726D01*
X017269Y029702D01*
X017201Y029667D01*
X017139Y029623D01*
X017085Y029569D01*
X017040Y029507D01*
X017006Y029439D01*
X016982Y029366D01*
X016971Y029293D01*
X017415Y029293D01*
X017415Y029213D01*
X016971Y029213D01*
X016982Y029139D01*
X017006Y029066D01*
X017040Y028998D01*
X017085Y028937D01*
X017139Y028883D01*
X017201Y028838D01*
X017269Y028803D01*
X017342Y028780D01*
X017415Y028768D01*
X017415Y029213D01*
X017495Y029213D01*
X017940Y029213D01*
X017928Y029139D01*
X017905Y029066D01*
X017870Y028998D01*
X017825Y028937D01*
X017771Y028883D01*
X017709Y028838D01*
X017641Y028803D01*
X017569Y028780D01*
X017495Y028821D02*
X017415Y028821D01*
X017415Y028939D02*
X017495Y028939D01*
X017495Y029058D02*
X017415Y029058D01*
X017415Y029176D02*
X017495Y029176D01*
X017495Y029293D02*
X017940Y029293D01*
X017928Y029366D01*
X017905Y029439D01*
X017870Y029507D01*
X017825Y029569D01*
X017771Y029623D01*
X017709Y029667D01*
X017641Y029702D01*
X017569Y029726D01*
X017495Y029737D01*
X017495Y029293D01*
X017495Y029295D02*
X017415Y029295D01*
X017415Y029413D02*
X017495Y029413D01*
X017495Y029532D02*
X017415Y029532D01*
X017415Y029650D02*
X017495Y029650D01*
X017733Y029650D02*
X018200Y029650D01*
X018192Y029647D02*
X018061Y029516D01*
X017990Y029345D01*
X017990Y029160D01*
X018061Y028989D01*
X018192Y028858D01*
X018363Y028788D01*
X018548Y028788D01*
X018719Y028858D01*
X018849Y028989D01*
X018920Y029160D01*
X018920Y029345D01*
X018849Y029516D01*
X018719Y029647D01*
X018548Y029718D01*
X018363Y029718D01*
X018192Y029647D01*
X018077Y029532D02*
X017852Y029532D01*
X017913Y029413D02*
X018019Y029413D01*
X017990Y029295D02*
X017940Y029295D01*
X017934Y029176D02*
X017990Y029176D01*
X018033Y029058D02*
X017900Y029058D01*
X017827Y028939D02*
X018111Y028939D01*
X018283Y028821D02*
X017676Y028821D01*
X017326Y028702D02*
X017160Y028702D01*
X017160Y028821D02*
X017234Y028821D01*
X017083Y028939D02*
X017051Y028939D01*
X017010Y029058D02*
X016933Y029058D01*
X016920Y029176D02*
X016976Y029176D01*
X016971Y029295D02*
X016920Y029295D01*
X016892Y029413D02*
X016998Y029413D01*
X017059Y029532D02*
X016834Y029532D01*
X016710Y029650D02*
X017178Y029650D01*
X016455Y029253D02*
X016960Y028748D01*
X016960Y027283D01*
X017410Y026883D01*
X017410Y025633D01*
X017560Y025483D01*
X019710Y025483D01*
X019960Y025233D01*
X019960Y023083D01*
X019760Y022883D01*
X019560Y022883D01*
X019331Y023133D02*
X017988Y023133D01*
X018072Y023251D02*
X019760Y023251D01*
X019760Y023370D02*
X018098Y023370D01*
X018083Y023488D02*
X019760Y023488D01*
X019760Y023607D02*
X018015Y023607D01*
X017760Y023383D02*
X016410Y024683D01*
X016410Y028183D01*
X016455Y028229D01*
X016455Y028253D01*
X016585Y028702D02*
X016723Y028702D01*
X016177Y027873D02*
X015758Y027873D01*
X015865Y027991D02*
X016060Y027991D01*
X016011Y028110D02*
X015919Y028110D01*
X015495Y028347D02*
X015415Y028347D01*
X015415Y028465D02*
X015495Y028465D01*
X015495Y028584D02*
X015415Y028584D01*
X015415Y028702D02*
X015495Y028702D01*
X015270Y028702D02*
X015160Y028702D01*
X015160Y028821D02*
X015283Y028821D01*
X014760Y028821D02*
X014628Y028821D01*
X014585Y028702D02*
X014760Y028702D01*
X014326Y028702D02*
X013585Y028702D01*
X013628Y028821D02*
X014283Y028821D01*
X014111Y028939D02*
X013800Y028939D01*
X013878Y029058D02*
X014033Y029058D01*
X013990Y029176D02*
X013920Y029176D01*
X013920Y029295D02*
X013990Y029295D01*
X014019Y029413D02*
X013892Y029413D01*
X013834Y029532D02*
X014077Y029532D01*
X014821Y029887D02*
X023815Y029887D01*
X021500Y026925D02*
X021219Y026925D01*
X021171Y026973D02*
X021001Y027043D01*
X020818Y027043D01*
X020649Y026973D01*
X020520Y026844D01*
X020450Y026675D01*
X020450Y026492D01*
X020520Y026323D01*
X020649Y026193D01*
X020818Y026123D01*
X021001Y026123D01*
X021171Y026193D01*
X021300Y026323D01*
X021370Y026492D01*
X021370Y026675D01*
X021300Y026844D01*
X021171Y026973D01*
X021316Y026806D02*
X021504Y026806D01*
X021455Y026688D02*
X021365Y026688D01*
X021370Y026569D02*
X021450Y026569D01*
X021467Y026451D02*
X021353Y026451D01*
X021304Y026332D02*
X021516Y026332D01*
X021629Y026214D02*
X021191Y026214D01*
X020629Y026214D02*
X020191Y026214D01*
X020171Y026193D02*
X020300Y026323D01*
X020370Y026492D01*
X020370Y026675D01*
X020300Y026844D01*
X020171Y026973D01*
X020001Y027043D01*
X019818Y027043D01*
X019649Y026973D01*
X019520Y026844D01*
X019450Y026675D01*
X019450Y026492D01*
X019520Y026323D01*
X019649Y026193D01*
X019818Y026123D01*
X020001Y026123D01*
X020171Y026193D01*
X020304Y026332D02*
X020516Y026332D01*
X020467Y026451D02*
X020353Y026451D01*
X020370Y026569D02*
X020450Y026569D01*
X020455Y026688D02*
X020365Y026688D01*
X020316Y026806D02*
X020504Y026806D01*
X020601Y026925D02*
X020219Y026925D01*
X019601Y026925D02*
X019219Y026925D01*
X019171Y026973D02*
X019300Y026844D01*
X019370Y026675D01*
X019370Y026492D01*
X019300Y026323D01*
X019171Y026193D01*
X019001Y026123D01*
X018818Y026123D01*
X018649Y026193D01*
X018520Y026323D01*
X018450Y026492D01*
X018450Y026675D01*
X018520Y026844D01*
X018649Y026973D01*
X018818Y027043D01*
X019001Y027043D01*
X019171Y026973D01*
X019316Y026806D02*
X019504Y026806D01*
X019455Y026688D02*
X019365Y026688D01*
X019370Y026569D02*
X019450Y026569D01*
X019467Y026451D02*
X019353Y026451D01*
X019304Y026332D02*
X019516Y026332D01*
X019629Y026214D02*
X019191Y026214D01*
X018629Y026214D02*
X018191Y026214D01*
X018304Y026332D02*
X018516Y026332D01*
X018467Y026451D02*
X018353Y026451D01*
X018370Y026569D02*
X018450Y026569D01*
X018455Y026688D02*
X018365Y026688D01*
X018316Y026806D02*
X018504Y026806D01*
X018601Y026925D02*
X018219Y026925D01*
X017629Y026214D02*
X017610Y026214D01*
X017210Y026214D02*
X017191Y026214D01*
X017210Y026095D02*
X016610Y026095D01*
X016610Y025977D02*
X017210Y025977D01*
X017210Y025858D02*
X016610Y025858D01*
X016610Y025740D02*
X017210Y025740D01*
X017210Y025621D02*
X016610Y025621D01*
X016610Y025503D02*
X017258Y025503D01*
X017327Y025433D02*
X017327Y025433D01*
X017360Y025400D02*
X017360Y025400D01*
X017376Y025384D02*
X016610Y025384D01*
X016610Y025266D02*
X019645Y025266D01*
X019760Y025147D02*
X016610Y025147D01*
X016610Y025029D02*
X019760Y025029D01*
X019760Y024910D02*
X016610Y024910D01*
X016610Y024792D02*
X019760Y024792D01*
X019760Y024673D02*
X016709Y024673D01*
X016832Y024555D02*
X019760Y024555D01*
X019760Y024436D02*
X016955Y024436D01*
X017078Y024318D02*
X019760Y024318D01*
X019760Y024199D02*
X017201Y024199D01*
X017324Y024081D02*
X019760Y024081D01*
X019760Y023962D02*
X017447Y023962D01*
X017570Y023844D02*
X019760Y023844D01*
X019760Y023725D02*
X017693Y023725D01*
X016629Y026214D02*
X016610Y026214D01*
X016210Y026214D02*
X016191Y026214D01*
X016210Y027043D02*
X015610Y027043D01*
X015514Y027162D02*
X016210Y027162D01*
X016210Y027280D02*
X015354Y027280D01*
X014760Y027873D02*
X014733Y027873D01*
X014177Y027873D02*
X013733Y027873D01*
X013850Y027991D02*
X014060Y027991D01*
X014011Y028110D02*
X013899Y028110D01*
X013920Y028228D02*
X013990Y028228D01*
X013991Y028347D02*
X013920Y028347D01*
X013870Y028465D02*
X014040Y028465D01*
X014129Y028584D02*
X013782Y028584D01*
X013040Y028465D02*
X012870Y028465D01*
X012920Y028347D02*
X012991Y028347D01*
X012990Y028228D02*
X012920Y028228D01*
X012899Y028110D02*
X013011Y028110D01*
X013060Y027991D02*
X012850Y027991D01*
X012733Y027873D02*
X013177Y027873D01*
X011960Y028083D02*
X010910Y027033D01*
X010910Y026583D01*
X010450Y026569D02*
X010370Y026569D01*
X010370Y026492D02*
X010300Y026323D01*
X010171Y026193D01*
X010001Y026123D01*
X009818Y026123D01*
X009649Y026193D01*
X009520Y026323D01*
X009450Y026492D01*
X009450Y026675D01*
X009520Y026844D01*
X009649Y026973D01*
X009818Y027043D01*
X010001Y027043D01*
X010171Y026973D01*
X010300Y026844D01*
X010370Y026675D01*
X010370Y026492D01*
X010353Y026451D02*
X010467Y026451D01*
X010516Y026332D02*
X010304Y026332D01*
X010191Y026214D02*
X010629Y026214D01*
X010455Y026688D02*
X010365Y026688D01*
X010316Y026806D02*
X010504Y026806D01*
X010601Y026925D02*
X010219Y026925D01*
X010710Y027043D02*
X006047Y027043D01*
X006022Y027052D02*
X005950Y027063D01*
X005950Y026623D01*
X006390Y026623D01*
X006378Y026696D01*
X006355Y026768D01*
X006321Y026835D01*
X006276Y026896D01*
X006223Y026949D01*
X006162Y026994D01*
X006094Y027028D01*
X006022Y027052D01*
X005950Y027043D02*
X005870Y027043D01*
X005870Y027063D02*
X005798Y027052D01*
X005726Y027028D01*
X005658Y026994D01*
X005597Y026949D01*
X005544Y026896D01*
X005499Y026835D01*
X005465Y026768D01*
X005442Y026696D01*
X005430Y026623D01*
X005870Y026623D01*
X005870Y026543D01*
X005950Y026543D01*
X005950Y026104D01*
X006022Y026115D01*
X006094Y026138D01*
X006162Y026173D01*
X006223Y026217D01*
X006276Y026271D01*
X006321Y026332D01*
X006516Y026332D01*
X006520Y026323D02*
X006649Y026193D01*
X006818Y026123D01*
X007001Y026123D01*
X007171Y026193D01*
X007300Y026323D01*
X007370Y026492D01*
X007370Y026675D01*
X007300Y026844D01*
X007171Y026973D01*
X007001Y027043D01*
X006818Y027043D01*
X006649Y026973D01*
X006520Y026844D01*
X006450Y026675D01*
X006450Y026492D01*
X006520Y026323D01*
X006467Y026451D02*
X006372Y026451D01*
X006378Y026471D02*
X006390Y026543D01*
X005950Y026543D01*
X005950Y026623D01*
X005870Y026623D01*
X005870Y027063D01*
X005773Y027043D02*
X003110Y027043D01*
X003110Y027162D02*
X010756Y027162D01*
X010874Y027280D02*
X003110Y027280D01*
X002710Y027280D02*
X000305Y027280D01*
X000305Y027162D02*
X002710Y027162D01*
X002710Y027043D02*
X000305Y027043D01*
X000305Y026925D02*
X000601Y026925D01*
X000504Y026806D02*
X000305Y026806D01*
X000305Y026688D02*
X000455Y026688D01*
X000450Y026569D02*
X000305Y026569D01*
X000305Y026451D02*
X000467Y026451D01*
X000516Y026332D02*
X000305Y026332D01*
X000305Y026214D02*
X000629Y026214D01*
X000710Y026095D02*
X000305Y026095D01*
X000305Y025977D02*
X000710Y025977D01*
X000710Y025858D02*
X000305Y025858D01*
X000305Y025740D02*
X000710Y025740D01*
X000710Y025621D02*
X000305Y025621D01*
X000305Y025503D02*
X000758Y025503D01*
X000876Y025384D02*
X000305Y025384D01*
X000305Y025266D02*
X010745Y025266D01*
X010810Y025147D02*
X000305Y025147D01*
X000305Y025029D02*
X010810Y025029D01*
X010810Y024910D02*
X000305Y024910D01*
X000305Y024792D02*
X010810Y024792D01*
X010810Y024673D02*
X000305Y024673D01*
X000305Y024555D02*
X010810Y024555D01*
X010810Y024436D02*
X000305Y024436D01*
X000305Y024318D02*
X010810Y024318D01*
X010810Y024199D02*
X000305Y024199D01*
X000305Y024081D02*
X010810Y024081D01*
X010810Y023962D02*
X000305Y023962D01*
X000305Y023844D02*
X010810Y023844D01*
X010810Y023725D02*
X000305Y023725D01*
X000305Y023607D02*
X010810Y023607D01*
X010810Y023488D02*
X000305Y023488D01*
X000305Y023370D02*
X010810Y023370D01*
X010810Y023251D02*
X000305Y023251D01*
X000305Y023133D02*
X010810Y023133D01*
X010810Y023014D02*
X000305Y023014D01*
X000305Y022896D02*
X010810Y022896D01*
X010810Y022777D02*
X000319Y022777D01*
X000397Y022659D02*
X010810Y022659D01*
X010810Y022540D02*
X001982Y022540D01*
X002040Y022516D02*
X002040Y022516D01*
X002134Y022422D02*
X010810Y022422D01*
X010810Y022303D02*
X002217Y022303D01*
X002191Y022365D02*
X002191Y022365D01*
X002266Y022185D02*
X010810Y022185D01*
X010810Y022066D02*
X002274Y022066D01*
X002274Y021948D02*
X010810Y021948D01*
X010810Y021829D02*
X002274Y021829D01*
X002274Y021711D02*
X010810Y021711D01*
X010810Y021592D02*
X002274Y021592D01*
X002274Y021474D02*
X010810Y021474D01*
X010810Y021355D02*
X002274Y021355D01*
X002274Y021237D02*
X010810Y021237D01*
X010810Y021118D02*
X002274Y021118D01*
X002274Y021000D02*
X010810Y021000D01*
X010810Y020881D02*
X002274Y020881D01*
X002274Y020763D02*
X010810Y020763D01*
X010810Y020644D02*
X002274Y020644D01*
X002274Y020526D02*
X010810Y020526D01*
X010810Y020407D02*
X002274Y020407D01*
X002274Y020289D02*
X010810Y020289D01*
X010810Y020170D02*
X002274Y020170D01*
X002274Y020052D02*
X010810Y020052D01*
X010810Y019933D02*
X002274Y019933D01*
X002274Y019815D02*
X010810Y019815D01*
X010810Y019696D02*
X002274Y019696D01*
X002274Y019578D02*
X010810Y019578D01*
X010810Y019459D02*
X002274Y019459D01*
X002274Y019341D02*
X010810Y019341D01*
X010810Y019222D02*
X002274Y019222D01*
X002274Y019104D02*
X010810Y019104D01*
X010810Y018985D02*
X002274Y018985D01*
X002274Y018867D02*
X010810Y018867D01*
X010810Y018748D02*
X002274Y018748D01*
X002274Y018630D02*
X010810Y018630D01*
X010810Y018511D02*
X002274Y018511D01*
X002274Y018393D02*
X010810Y018393D01*
X010810Y018274D02*
X002274Y018274D01*
X002274Y018156D02*
X010810Y018156D01*
X010810Y018037D02*
X002274Y018037D01*
X002274Y017919D02*
X010810Y017919D01*
X010810Y017800D02*
X002274Y017800D01*
X002274Y017682D02*
X010810Y017682D01*
X010810Y017563D02*
X002274Y017563D01*
X002274Y017445D02*
X010810Y017445D01*
X010810Y017326D02*
X002274Y017326D01*
X002274Y017208D02*
X010810Y017208D01*
X010810Y017089D02*
X002274Y017089D01*
X002274Y016971D02*
X010810Y016971D01*
X010810Y016852D02*
X002274Y016852D01*
X002274Y016734D02*
X010810Y016734D01*
X010810Y016615D02*
X002274Y016615D01*
X002274Y016497D02*
X010810Y016497D01*
X010810Y016378D02*
X002274Y016378D01*
X002274Y016260D02*
X010810Y016260D01*
X010810Y016141D02*
X002274Y016141D01*
X002263Y016023D02*
X010810Y016023D01*
X010810Y015904D02*
X002214Y015904D01*
X002191Y015849D02*
X002191Y015849D01*
X002128Y015786D02*
X010810Y015786D01*
X010810Y015667D02*
X001967Y015667D01*
X002040Y015698D02*
X002040Y015698D01*
X000391Y015549D02*
X010810Y015549D01*
X010810Y015430D02*
X000316Y015430D01*
X000305Y015312D02*
X010716Y015312D01*
X010670Y015193D02*
X000305Y015193D01*
X000305Y015075D02*
X010670Y015075D01*
X010715Y014956D02*
X000305Y014956D01*
X000305Y014838D02*
X010810Y014838D01*
X010810Y014719D02*
X000305Y014719D01*
X000305Y014601D02*
X010810Y014601D01*
X010810Y014482D02*
X000305Y014482D01*
X000305Y014364D02*
X010810Y014364D01*
X010810Y014245D02*
X000305Y014245D01*
X000305Y014127D02*
X010810Y014127D01*
X010810Y014008D02*
X000305Y014008D01*
X000305Y013890D02*
X010810Y013890D01*
X010810Y013771D02*
X000305Y013771D01*
X000305Y013653D02*
X010810Y013653D01*
X010810Y013534D02*
X000305Y013534D01*
X000305Y013416D02*
X010810Y013416D01*
X010810Y013297D02*
X000305Y013297D01*
X000305Y013179D02*
X010810Y013179D01*
X010810Y013060D02*
X000305Y013060D01*
X000305Y012942D02*
X010810Y012942D01*
X010810Y012823D02*
X000305Y012823D01*
X000305Y012705D02*
X010810Y012705D01*
X010810Y012586D02*
X000305Y012586D01*
X000305Y012468D02*
X010810Y012468D01*
X010810Y012349D02*
X000305Y012349D01*
X000305Y012231D02*
X010810Y012231D01*
X010810Y012112D02*
X000305Y012112D01*
X000305Y011994D02*
X010810Y011994D01*
X010810Y011875D02*
X000305Y011875D01*
X000305Y011757D02*
X010810Y011757D01*
X010810Y011638D02*
X000305Y011638D01*
X000305Y011520D02*
X010810Y011520D01*
X010810Y011401D02*
X000305Y011401D01*
X000305Y011283D02*
X010810Y011283D01*
X010810Y011164D02*
X000305Y011164D01*
X000305Y011046D02*
X010810Y011046D01*
X010810Y010927D02*
X000305Y010927D01*
X000305Y010809D02*
X010810Y010809D01*
X010810Y010690D02*
X001829Y010690D01*
X002147Y010572D02*
X010810Y010572D01*
X010810Y010453D02*
X002329Y010453D01*
X002459Y010335D02*
X010926Y010335D01*
X011044Y010216D02*
X002551Y010216D01*
X002643Y010098D02*
X011163Y010098D01*
X011373Y010453D02*
X017338Y010453D01*
X017338Y010335D02*
X015041Y010335D01*
X015160Y010216D02*
X017338Y010216D01*
X017338Y010098D02*
X015278Y010098D01*
X015397Y009979D02*
X017338Y009979D01*
X017338Y009861D02*
X015419Y009861D01*
X015419Y009742D02*
X017338Y009742D01*
X017338Y009624D02*
X015419Y009624D01*
X015019Y009624D02*
X002801Y009624D01*
X002801Y009505D02*
X006470Y009505D01*
X006493Y009529D02*
X006411Y009447D01*
X006411Y008531D01*
X006493Y008449D01*
X007409Y008449D01*
X007491Y008531D01*
X007491Y009447D01*
X007409Y009529D01*
X006493Y009529D01*
X006411Y009387D02*
X002801Y009387D01*
X002801Y009268D02*
X006411Y009268D01*
X006411Y009150D02*
X002766Y009150D01*
X002777Y009742D02*
X015019Y009742D01*
X014950Y009861D02*
X002736Y009861D01*
X002695Y009979D02*
X014831Y009979D01*
X014738Y009505D02*
X014005Y009505D01*
X013949Y009529D02*
X013734Y009529D01*
X013535Y009447D01*
X013383Y009295D01*
X013301Y009096D01*
X013301Y008881D01*
X013383Y008683D01*
X013535Y008531D01*
X013734Y008449D01*
X013949Y008449D01*
X014147Y008531D01*
X014299Y008683D01*
X014381Y008881D01*
X014381Y009096D01*
X014299Y009295D01*
X014147Y009447D01*
X013949Y009529D01*
X013677Y009505D02*
X012627Y009505D01*
X012571Y009529D02*
X012356Y009529D01*
X012157Y009447D01*
X012005Y009295D01*
X011923Y009096D01*
X011923Y008881D01*
X012005Y008683D01*
X012157Y008531D01*
X012356Y008449D01*
X012571Y008449D01*
X012769Y008531D01*
X012921Y008683D01*
X013003Y008881D01*
X013003Y009096D01*
X012921Y009295D01*
X012769Y009447D01*
X012571Y009529D01*
X012299Y009505D02*
X011567Y009505D01*
X011543Y009529D02*
X010627Y009529D01*
X010545Y009447D01*
X010545Y008531D01*
X010627Y008449D01*
X011543Y008449D01*
X011625Y008531D01*
X011625Y009447D01*
X011543Y009529D01*
X011625Y009387D02*
X012097Y009387D01*
X011994Y009268D02*
X011625Y009268D01*
X011625Y009150D02*
X011945Y009150D01*
X011923Y009031D02*
X011625Y009031D01*
X011625Y008913D02*
X011923Y008913D01*
X011959Y008794D02*
X011625Y008794D01*
X011625Y008676D02*
X012012Y008676D01*
X012131Y008557D02*
X011625Y008557D01*
X010545Y008557D02*
X010039Y008557D01*
X010013Y008531D02*
X010165Y008683D01*
X010247Y008881D01*
X010247Y009096D01*
X010165Y009295D01*
X010013Y009447D01*
X009815Y009529D01*
X009600Y009529D01*
X009401Y009447D01*
X009249Y009295D01*
X009167Y009096D01*
X009167Y008881D01*
X009249Y008683D01*
X009401Y008531D01*
X009600Y008449D01*
X009815Y008449D01*
X010013Y008531D01*
X010158Y008676D02*
X010545Y008676D01*
X010545Y008794D02*
X010211Y008794D01*
X010247Y008913D02*
X010545Y008913D01*
X010545Y009031D02*
X010247Y009031D01*
X010225Y009150D02*
X010545Y009150D01*
X010545Y009268D02*
X010176Y009268D01*
X010073Y009387D02*
X010545Y009387D01*
X010604Y009505D02*
X009871Y009505D01*
X009543Y009505D02*
X008493Y009505D01*
X008437Y009529D02*
X008222Y009529D01*
X008023Y009447D01*
X007872Y009295D01*
X007789Y009096D01*
X007789Y008881D01*
X007872Y008683D01*
X008023Y008531D01*
X008222Y008449D01*
X008437Y008449D01*
X008635Y008531D01*
X008787Y008683D01*
X008869Y008881D01*
X008869Y009096D01*
X008787Y009295D01*
X008635Y009447D01*
X008437Y009529D01*
X008165Y009505D02*
X007433Y009505D01*
X007491Y009387D02*
X007964Y009387D01*
X007861Y009268D02*
X007491Y009268D01*
X007491Y009150D02*
X007811Y009150D01*
X007789Y009031D02*
X007491Y009031D01*
X007491Y008913D02*
X007789Y008913D01*
X007825Y008794D02*
X007491Y008794D01*
X007491Y008676D02*
X007879Y008676D01*
X007997Y008557D02*
X007491Y008557D01*
X008661Y008557D02*
X009375Y008557D01*
X009257Y008676D02*
X008780Y008676D01*
X008833Y008794D02*
X009203Y008794D01*
X009167Y008913D02*
X008869Y008913D01*
X008869Y009031D02*
X009167Y009031D01*
X009189Y009150D02*
X008847Y009150D01*
X008798Y009268D02*
X009239Y009268D01*
X009342Y009387D02*
X008695Y009387D01*
X011254Y010572D02*
X017338Y010572D01*
X017338Y010690D02*
X011210Y010690D01*
X011210Y010809D02*
X017338Y010809D01*
X017338Y010927D02*
X011210Y010927D01*
X011210Y011046D02*
X017338Y011046D01*
X017338Y011164D02*
X011210Y011164D01*
X011210Y011283D02*
X017338Y011283D01*
X017338Y011401D02*
X011210Y011401D01*
X011210Y011520D02*
X017338Y011520D01*
X017338Y011638D02*
X011210Y011638D01*
X011210Y011757D02*
X017338Y011757D01*
X017338Y011875D02*
X011210Y011875D01*
X011210Y011994D02*
X017338Y011994D01*
X017338Y012112D02*
X011210Y012112D01*
X011210Y012231D02*
X017338Y012231D01*
X017338Y012349D02*
X011210Y012349D01*
X011210Y012468D02*
X017338Y012468D01*
X017338Y012586D02*
X011210Y012586D01*
X011210Y012705D02*
X017338Y012705D01*
X017338Y012823D02*
X011210Y012823D01*
X011210Y012942D02*
X017338Y012942D01*
X017338Y013060D02*
X011210Y013060D01*
X011210Y013179D02*
X017338Y013179D01*
X017338Y013297D02*
X011210Y013297D01*
X011210Y013416D02*
X017338Y013416D01*
X017338Y013534D02*
X011210Y013534D01*
X011210Y013653D02*
X017338Y013653D01*
X017338Y013771D02*
X011210Y013771D01*
X011210Y013890D02*
X017338Y013890D01*
X017338Y014008D02*
X011210Y014008D01*
X011210Y014127D02*
X017338Y014127D01*
X017338Y014245D02*
X011210Y014245D01*
X011210Y014364D02*
X017338Y014364D01*
X017338Y014482D02*
X011210Y014482D01*
X011210Y014601D02*
X011212Y014601D01*
X012829Y009387D02*
X013475Y009387D01*
X013372Y009268D02*
X012932Y009268D01*
X012981Y009150D02*
X013323Y009150D01*
X013301Y009031D02*
X013003Y009031D01*
X013003Y008913D02*
X013301Y008913D01*
X013337Y008794D02*
X012967Y008794D01*
X012914Y008676D02*
X013390Y008676D01*
X013509Y008557D02*
X012795Y008557D01*
X014173Y008557D02*
X014679Y008557D01*
X014679Y008676D02*
X014292Y008676D01*
X014345Y008794D02*
X014679Y008794D01*
X014679Y008913D02*
X014381Y008913D01*
X014381Y009031D02*
X014679Y009031D01*
X014679Y009150D02*
X014359Y009150D01*
X014310Y009268D02*
X014679Y009268D01*
X014679Y009387D02*
X014207Y009387D01*
X017984Y008619D02*
X017984Y008619D01*
X018120Y008676D02*
X018635Y008676D01*
X018635Y008794D02*
X018275Y008794D01*
X018333Y008853D02*
X018333Y008853D01*
X018358Y008913D02*
X018635Y008913D01*
X018635Y009029D02*
X019155Y009029D01*
X019155Y008949D01*
X019235Y008949D01*
X019235Y008429D01*
X019616Y008429D01*
X019657Y008440D01*
X019694Y008461D01*
X019723Y008491D01*
X019745Y008527D01*
X019755Y008568D01*
X019755Y008949D01*
X019235Y008949D01*
X019235Y009029D01*
X019155Y009029D01*
X019155Y009549D01*
X018774Y009549D01*
X018734Y009538D01*
X018697Y009517D01*
X018667Y009487D01*
X018646Y009451D01*
X018635Y009410D01*
X018635Y009029D01*
X018635Y009031D02*
X018407Y009031D01*
X018415Y009150D02*
X018635Y009150D01*
X018635Y009268D02*
X018415Y009268D01*
X018415Y009387D02*
X018635Y009387D01*
X018686Y009505D02*
X018415Y009505D01*
X018415Y009624D02*
X023119Y009624D01*
X023139Y009742D02*
X018415Y009742D01*
X018415Y009861D02*
X023159Y009861D01*
X023217Y009979D02*
X018415Y009979D01*
X018415Y010098D02*
X023281Y010098D01*
X023345Y010216D02*
X018415Y010216D01*
X018415Y010335D02*
X023457Y010335D01*
X023585Y010453D02*
X018415Y010453D01*
X018415Y010572D02*
X023760Y010572D01*
X024030Y010690D02*
X018415Y010690D01*
X018415Y010809D02*
X025606Y010809D01*
X025606Y010927D02*
X018415Y010927D01*
X018415Y011046D02*
X025606Y011046D01*
X025606Y011164D02*
X018415Y011164D01*
X018415Y011283D02*
X025606Y011283D01*
X025606Y011401D02*
X018415Y011401D01*
X018415Y011520D02*
X025606Y011520D01*
X025606Y011638D02*
X018415Y011638D01*
X018415Y011757D02*
X025606Y011757D01*
X025606Y011875D02*
X018415Y011875D01*
X018415Y011994D02*
X025606Y011994D01*
X025606Y012112D02*
X018415Y012112D01*
X018415Y012231D02*
X025606Y012231D01*
X025606Y012349D02*
X018415Y012349D01*
X018415Y012468D02*
X025606Y012468D01*
X025606Y012586D02*
X018415Y012586D01*
X018415Y012705D02*
X025606Y012705D01*
X025606Y012823D02*
X018415Y012823D01*
X018415Y012942D02*
X025606Y012942D01*
X025606Y013060D02*
X018415Y013060D01*
X018415Y013179D02*
X025606Y013179D01*
X025606Y013297D02*
X018415Y013297D01*
X018415Y013416D02*
X025606Y013416D01*
X025606Y013534D02*
X018415Y013534D01*
X018415Y013653D02*
X025606Y013653D01*
X025606Y013771D02*
X018415Y013771D01*
X018415Y013890D02*
X025606Y013890D01*
X025606Y014008D02*
X018415Y014008D01*
X018415Y014127D02*
X025606Y014127D01*
X025606Y014245D02*
X018415Y014245D01*
X018415Y014364D02*
X025606Y014364D01*
X025606Y014482D02*
X018415Y014482D01*
X018415Y014601D02*
X025606Y014601D01*
X025606Y014719D02*
X018415Y014719D01*
X018415Y014838D02*
X025606Y014838D01*
X025606Y014956D02*
X018415Y014956D01*
X018415Y015075D02*
X025606Y015075D01*
X025606Y015193D02*
X018415Y015193D01*
X018415Y015312D02*
X025606Y015312D01*
X025606Y015430D02*
X018415Y015430D01*
X018415Y015549D02*
X025606Y015549D01*
X025606Y015667D02*
X018415Y015667D01*
X018368Y015786D02*
X025606Y015786D01*
X025606Y015904D02*
X018298Y015904D01*
X018333Y015869D02*
X018333Y015869D01*
X019235Y009549D02*
X019616Y009549D01*
X019657Y009538D01*
X019694Y009517D01*
X019723Y009487D01*
X019745Y009451D01*
X019755Y009410D01*
X019755Y009029D01*
X019235Y009029D01*
X019235Y009549D01*
X019235Y009505D02*
X019155Y009505D01*
X019155Y009387D02*
X019235Y009387D01*
X019235Y009268D02*
X019155Y009268D01*
X019155Y009150D02*
X019235Y009150D01*
X019235Y009031D02*
X019155Y009031D01*
X019155Y008913D02*
X019235Y008913D01*
X019235Y008794D02*
X019155Y008794D01*
X019155Y008676D02*
X019235Y008676D01*
X019235Y008557D02*
X019155Y008557D01*
X019155Y008439D02*
X019235Y008439D01*
X019654Y008439D02*
X023618Y008439D01*
X023490Y008557D02*
X022284Y008557D01*
X022257Y008531D02*
X022409Y008683D01*
X022491Y008881D01*
X022491Y009096D01*
X022409Y009295D01*
X022257Y009447D01*
X022059Y009529D01*
X021844Y009529D01*
X021645Y009447D01*
X021494Y009295D01*
X021411Y009096D01*
X021411Y008881D01*
X021494Y008683D01*
X021645Y008531D01*
X021844Y008449D01*
X022059Y008449D01*
X022257Y008531D01*
X022402Y008676D02*
X023362Y008676D01*
X023297Y008794D02*
X022455Y008794D01*
X022491Y008913D02*
X023233Y008913D01*
X023169Y009031D02*
X022491Y009031D01*
X022469Y009150D02*
X023144Y009150D01*
X023124Y009268D02*
X022420Y009268D01*
X022317Y009387D02*
X023105Y009387D01*
X023099Y009505D02*
X022116Y009505D01*
X021787Y009505D02*
X020738Y009505D01*
X020681Y009529D02*
X020466Y009529D01*
X020268Y009447D01*
X020116Y009295D01*
X020033Y009096D01*
X020033Y008881D01*
X020116Y008683D01*
X020268Y008531D01*
X020466Y008449D01*
X020681Y008449D01*
X020879Y008531D01*
X021031Y008683D01*
X021113Y008881D01*
X021113Y009096D01*
X021031Y009295D01*
X020879Y009447D01*
X020681Y009529D01*
X020409Y009505D02*
X019705Y009505D01*
X019755Y009387D02*
X020208Y009387D01*
X020105Y009268D02*
X019755Y009268D01*
X019755Y009150D02*
X020056Y009150D01*
X020033Y009031D02*
X019755Y009031D01*
X019755Y008913D02*
X020033Y008913D01*
X020069Y008794D02*
X019755Y008794D01*
X019755Y008676D02*
X020123Y008676D01*
X020241Y008557D02*
X019753Y008557D01*
X020906Y008557D02*
X021619Y008557D01*
X021501Y008676D02*
X021024Y008676D01*
X021077Y008794D02*
X021447Y008794D01*
X021411Y008913D02*
X021113Y008913D01*
X021113Y009031D02*
X021411Y009031D01*
X021434Y009150D02*
X021091Y009150D01*
X021042Y009268D02*
X021483Y009268D01*
X021586Y009387D02*
X020939Y009387D01*
X018182Y008701D02*
X018182Y008701D01*
X023830Y008320D02*
X002101Y008320D01*
X000324Y009861D02*
X000305Y009861D01*
X000305Y009979D02*
X000382Y009979D01*
X000446Y010098D02*
X000305Y010098D01*
X000305Y010216D02*
X000510Y010216D01*
X000622Y010335D02*
X000305Y010335D01*
X000305Y010453D02*
X000751Y010453D01*
X000926Y010572D02*
X000305Y010572D01*
X000305Y010690D02*
X001196Y010690D01*
X001910Y025783D02*
X001910Y026583D01*
X002219Y026925D02*
X002601Y026925D01*
X002504Y026806D02*
X002316Y026806D01*
X002365Y026688D02*
X002455Y026688D01*
X002450Y026569D02*
X002370Y026569D01*
X002353Y026451D02*
X002467Y026451D01*
X002516Y026332D02*
X002304Y026332D01*
X002191Y026214D02*
X002629Y026214D01*
X002910Y026583D02*
X002910Y029533D01*
X003160Y029783D01*
X005925Y029783D01*
X006455Y029253D01*
X006017Y029409D02*
X005842Y029583D01*
X005810Y029583D01*
X005825Y029569D01*
X005870Y029507D01*
X005905Y029439D01*
X005928Y029366D01*
X005940Y029293D01*
X005495Y029293D01*
X005495Y029213D01*
X005940Y029213D01*
X005928Y029139D01*
X005905Y029066D01*
X005870Y028998D01*
X005825Y028937D01*
X005822Y028933D01*
X006117Y028933D01*
X006061Y028989D01*
X005990Y029160D01*
X005990Y029345D01*
X006017Y029409D01*
X006012Y029413D02*
X005913Y029413D01*
X005893Y029532D02*
X005852Y029532D01*
X005940Y029295D02*
X005990Y029295D01*
X005990Y029176D02*
X005934Y029176D01*
X005900Y029058D02*
X006033Y029058D01*
X006111Y028939D02*
X005827Y028939D01*
X005415Y029213D02*
X004971Y029213D01*
X004982Y029139D01*
X005006Y029066D01*
X005040Y028998D01*
X005085Y028937D01*
X005089Y028933D01*
X005057Y028933D01*
X004894Y029097D01*
X004920Y029160D01*
X004920Y029345D01*
X004849Y029516D01*
X004782Y029583D01*
X005100Y029583D01*
X005085Y029569D01*
X005040Y029507D01*
X005006Y029439D01*
X004982Y029366D01*
X004971Y029293D01*
X005415Y029293D01*
X005415Y029213D01*
X005083Y028939D02*
X005051Y028939D01*
X005010Y029058D02*
X004933Y029058D01*
X004920Y029176D02*
X004976Y029176D01*
X004971Y029295D02*
X004920Y029295D01*
X004892Y029413D02*
X004998Y029413D01*
X005059Y029532D02*
X004834Y029532D01*
X004455Y029253D02*
X004975Y028733D01*
X010817Y028733D01*
X010960Y028886D01*
X010760Y029606D02*
X010719Y029647D01*
X010548Y029718D01*
X010363Y029718D01*
X010192Y029647D01*
X010061Y029516D01*
X009990Y029345D01*
X009990Y029160D01*
X010061Y028989D01*
X010117Y028933D01*
X009822Y028933D01*
X009825Y028937D01*
X009870Y028998D01*
X009905Y029066D01*
X009928Y029139D01*
X009940Y029213D01*
X009495Y029213D01*
X009495Y029293D01*
X009415Y029293D01*
X009415Y029737D01*
X009342Y029726D01*
X009269Y029702D01*
X009201Y029667D01*
X009139Y029623D01*
X009085Y029569D01*
X009040Y029507D01*
X009006Y029439D01*
X008982Y029366D01*
X008971Y029293D01*
X009415Y029293D01*
X009415Y029213D01*
X008971Y029213D01*
X008982Y029139D01*
X009006Y029066D01*
X009040Y028998D01*
X009085Y028937D01*
X009089Y028933D01*
X008794Y028933D01*
X008849Y028989D01*
X008920Y029160D01*
X008920Y029345D01*
X008849Y029516D01*
X008719Y029647D01*
X008548Y029718D01*
X008363Y029718D01*
X008192Y029647D01*
X008061Y029516D01*
X007990Y029345D01*
X007990Y029160D01*
X008061Y028989D01*
X008117Y028933D01*
X007794Y028933D01*
X007849Y028989D01*
X007920Y029160D01*
X007920Y029345D01*
X007849Y029516D01*
X007719Y029647D01*
X007548Y029718D01*
X007363Y029718D01*
X007192Y029647D01*
X007061Y029516D01*
X006990Y029345D01*
X006990Y029160D01*
X007061Y028989D01*
X007117Y028933D01*
X006794Y028933D01*
X006849Y028989D01*
X006920Y029160D01*
X006920Y029345D01*
X006849Y029516D01*
X006719Y029647D01*
X006548Y029718D01*
X006363Y029718D01*
X006299Y029691D01*
X006125Y029866D01*
X006007Y029983D01*
X003077Y029983D01*
X002827Y029733D01*
X002710Y029616D01*
X002710Y029228D01*
X002664Y029362D01*
X002405Y029695D01*
X002052Y029925D01*
X001814Y029986D01*
X011129Y029986D01*
X011125Y029981D01*
X010888Y029783D01*
X010877Y029783D01*
X010825Y029731D01*
X010768Y029684D01*
X010767Y029674D01*
X010760Y029666D01*
X010760Y029606D01*
X010760Y029650D02*
X010710Y029650D01*
X010863Y029769D02*
X006222Y029769D01*
X006103Y029887D02*
X011012Y029887D01*
X010200Y029650D02*
X009733Y029650D01*
X009709Y029667D02*
X009641Y029702D01*
X009569Y029726D01*
X009495Y029737D01*
X009495Y029293D01*
X009940Y029293D01*
X009928Y029366D01*
X009905Y029439D01*
X009870Y029507D01*
X009825Y029569D01*
X009771Y029623D01*
X009709Y029667D01*
X009852Y029532D02*
X010077Y029532D01*
X010019Y029413D02*
X009913Y029413D01*
X009940Y029295D02*
X009990Y029295D01*
X009990Y029176D02*
X009934Y029176D01*
X009900Y029058D02*
X010033Y029058D01*
X010111Y028939D02*
X009827Y028939D01*
X009495Y029295D02*
X009415Y029295D01*
X009415Y029413D02*
X009495Y029413D01*
X009495Y029532D02*
X009415Y029532D01*
X009415Y029650D02*
X009495Y029650D01*
X009178Y029650D02*
X008710Y029650D01*
X008834Y029532D02*
X009059Y029532D01*
X008998Y029413D02*
X008892Y029413D01*
X008920Y029295D02*
X008971Y029295D01*
X008976Y029176D02*
X008920Y029176D01*
X008878Y029058D02*
X009010Y029058D01*
X009083Y028939D02*
X008800Y028939D01*
X008111Y028939D02*
X007800Y028939D01*
X007878Y029058D02*
X008033Y029058D01*
X007990Y029176D02*
X007920Y029176D01*
X007920Y029295D02*
X007990Y029295D01*
X008019Y029413D02*
X007892Y029413D01*
X007834Y029532D02*
X008077Y029532D01*
X008200Y029650D02*
X007710Y029650D01*
X007200Y029650D02*
X006710Y029650D01*
X006834Y029532D02*
X007077Y029532D01*
X007019Y029413D02*
X006892Y029413D01*
X006920Y029295D02*
X006990Y029295D01*
X006990Y029176D02*
X006920Y029176D01*
X006878Y029058D02*
X007033Y029058D01*
X007111Y028939D02*
X006800Y028939D01*
X006832Y028533D02*
X007060Y028533D01*
X007040Y028507D01*
X007006Y028439D01*
X006982Y028366D01*
X006971Y028293D01*
X007415Y028293D01*
X007415Y028213D01*
X006971Y028213D01*
X006982Y028139D01*
X007006Y028066D01*
X007040Y027998D01*
X007085Y027937D01*
X007139Y027883D01*
X007201Y027838D01*
X007210Y027833D01*
X006658Y027833D01*
X006719Y027858D01*
X006849Y027989D01*
X006920Y028160D01*
X006920Y028345D01*
X006849Y028516D01*
X006832Y028533D01*
X006870Y028465D02*
X007019Y028465D01*
X006979Y028347D02*
X006920Y028347D01*
X006920Y028228D02*
X007415Y028228D01*
X007495Y028228D02*
X007990Y028228D01*
X007940Y028213D02*
X007495Y028213D01*
X007495Y028293D01*
X007940Y028293D01*
X007928Y028366D01*
X007905Y028439D01*
X007870Y028507D01*
X007851Y028533D01*
X008078Y028533D01*
X008061Y028516D01*
X007990Y028345D01*
X007990Y028160D01*
X008061Y027989D01*
X008192Y027858D01*
X008252Y027833D01*
X007701Y027833D01*
X007709Y027838D01*
X007771Y027883D01*
X007825Y027937D01*
X007870Y027998D01*
X007905Y028066D01*
X007928Y028139D01*
X007940Y028213D01*
X007919Y028110D02*
X008011Y028110D01*
X008060Y027991D02*
X007865Y027991D01*
X007758Y027873D02*
X008177Y027873D01*
X007991Y028347D02*
X007931Y028347D01*
X007891Y028465D02*
X008040Y028465D01*
X007153Y027873D02*
X006733Y027873D01*
X006850Y027991D02*
X007046Y027991D01*
X006992Y028110D02*
X006899Y028110D01*
X007649Y026973D02*
X007520Y026844D01*
X007450Y026675D01*
X007450Y026492D01*
X007520Y026323D01*
X007649Y026193D01*
X007818Y026123D01*
X008001Y026123D01*
X008171Y026193D01*
X008300Y026323D01*
X008370Y026492D01*
X008370Y026675D01*
X008300Y026844D01*
X008171Y026973D01*
X008001Y027043D01*
X007818Y027043D01*
X007649Y026973D01*
X007601Y026925D02*
X007219Y026925D01*
X007316Y026806D02*
X007504Y026806D01*
X007455Y026688D02*
X007365Y026688D01*
X007370Y026569D02*
X007450Y026569D01*
X007467Y026451D02*
X007353Y026451D01*
X007304Y026332D02*
X007516Y026332D01*
X007629Y026214D02*
X007191Y026214D01*
X006629Y026214D02*
X006218Y026214D01*
X006321Y026332D02*
X006355Y026399D01*
X006378Y026471D01*
X006450Y026569D02*
X005950Y026569D01*
X005870Y026569D02*
X005370Y026569D01*
X005430Y026543D02*
X005442Y026471D01*
X005465Y026399D01*
X005499Y026332D01*
X005304Y026332D01*
X005300Y026323D02*
X005370Y026492D01*
X005370Y026675D01*
X005300Y026844D01*
X005171Y026973D01*
X005001Y027043D01*
X004818Y027043D01*
X004649Y026973D01*
X004520Y026844D01*
X004450Y026675D01*
X004450Y026492D01*
X004520Y026323D01*
X004649Y026193D01*
X004818Y026123D01*
X005001Y026123D01*
X005171Y026193D01*
X005300Y026323D01*
X005353Y026451D02*
X005448Y026451D01*
X005430Y026543D02*
X005870Y026543D01*
X005870Y026104D01*
X005798Y026115D01*
X005726Y026138D01*
X005658Y026173D01*
X005597Y026217D01*
X005544Y026271D01*
X005499Y026332D01*
X005602Y026214D02*
X005191Y026214D01*
X005365Y026688D02*
X005441Y026688D01*
X005485Y026806D02*
X005316Y026806D01*
X005219Y026925D02*
X005573Y026925D01*
X005870Y026925D02*
X005950Y026925D01*
X005950Y026806D02*
X005870Y026806D01*
X005870Y026688D02*
X005950Y026688D01*
X005950Y026451D02*
X005870Y026451D01*
X005870Y026332D02*
X005950Y026332D01*
X005950Y026214D02*
X005870Y026214D01*
X006379Y026688D02*
X006455Y026688D01*
X006504Y026806D02*
X006335Y026806D01*
X006247Y026925D02*
X006601Y026925D01*
X008219Y026925D02*
X008601Y026925D01*
X008649Y026973D02*
X008520Y026844D01*
X008450Y026675D01*
X008450Y026492D01*
X008520Y026323D01*
X008649Y026193D01*
X008818Y026123D01*
X009001Y026123D01*
X009171Y026193D01*
X009300Y026323D01*
X009370Y026492D01*
X009370Y026675D01*
X009300Y026844D01*
X009171Y026973D01*
X009001Y027043D01*
X008818Y027043D01*
X008649Y026973D01*
X008504Y026806D02*
X008316Y026806D01*
X008365Y026688D02*
X008455Y026688D01*
X008450Y026569D02*
X008370Y026569D01*
X008353Y026451D02*
X008467Y026451D01*
X008516Y026332D02*
X008304Y026332D01*
X008191Y026214D02*
X008629Y026214D01*
X009191Y026214D02*
X009629Y026214D01*
X009516Y026332D02*
X009304Y026332D01*
X009353Y026451D02*
X009467Y026451D01*
X009450Y026569D02*
X009370Y026569D01*
X009365Y026688D02*
X009455Y026688D01*
X009504Y026806D02*
X009316Y026806D01*
X009219Y026925D02*
X009601Y026925D01*
X004601Y026925D02*
X004219Y026925D01*
X004171Y026973D02*
X004300Y026844D01*
X004370Y026675D01*
X004370Y026492D01*
X004300Y026323D01*
X004171Y026193D01*
X004001Y026123D01*
X003818Y026123D01*
X003649Y026193D01*
X003520Y026323D01*
X003450Y026492D01*
X003450Y026675D01*
X003520Y026844D01*
X003649Y026973D01*
X003818Y027043D01*
X004001Y027043D01*
X004171Y026973D01*
X004316Y026806D02*
X004504Y026806D01*
X004455Y026688D02*
X004365Y026688D01*
X004370Y026569D02*
X004450Y026569D01*
X004467Y026451D02*
X004353Y026451D01*
X004304Y026332D02*
X004516Y026332D01*
X004629Y026214D02*
X004191Y026214D01*
X003629Y026214D02*
X003191Y026214D01*
X003304Y026332D02*
X003516Y026332D01*
X003467Y026451D02*
X003353Y026451D01*
X003370Y026569D02*
X003450Y026569D01*
X003455Y026688D02*
X003365Y026688D01*
X003316Y026806D02*
X003504Y026806D01*
X003601Y026925D02*
X003219Y026925D01*
X002710Y027399D02*
X000305Y027399D01*
X000305Y027517D02*
X001210Y027517D01*
X000940Y027636D02*
X000305Y027636D01*
X000305Y027754D02*
X000758Y027754D01*
X000629Y027873D02*
X000305Y027873D01*
X000305Y027991D02*
X000514Y027991D01*
X000450Y028110D02*
X000305Y028110D01*
X000305Y028228D02*
X000386Y028228D01*
X000325Y028347D02*
X000305Y028347D01*
X000305Y028465D02*
X000305Y028465D01*
X001805Y027517D02*
X002710Y027517D01*
X002710Y027636D02*
X002138Y027636D01*
X002319Y027754D02*
X002710Y027754D01*
X002710Y027873D02*
X002454Y027873D01*
X002546Y027991D02*
X002710Y027991D01*
X002710Y028110D02*
X002638Y028110D01*
X002693Y028228D02*
X002710Y028228D01*
X002687Y029295D02*
X002710Y029295D01*
X002710Y029413D02*
X002624Y029413D01*
X002710Y029532D02*
X002532Y029532D01*
X002440Y029650D02*
X002744Y029650D01*
X002863Y029769D02*
X002292Y029769D01*
X002110Y029887D02*
X002981Y029887D01*
X018585Y028702D02*
X019326Y028702D01*
X019415Y028821D02*
X019495Y028821D01*
X019495Y028939D02*
X019415Y028939D01*
X019415Y029058D02*
X019495Y029058D01*
X019495Y029176D02*
X019415Y029176D01*
X019415Y029295D02*
X019495Y029295D01*
X019495Y029413D02*
X019415Y029413D01*
X019415Y029532D02*
X019495Y029532D01*
X019495Y029650D02*
X019415Y029650D01*
X019178Y029650D02*
X018710Y029650D01*
X018834Y029532D02*
X019059Y029532D01*
X018998Y029413D02*
X018892Y029413D01*
X018920Y029295D02*
X018971Y029295D01*
X018976Y029176D02*
X018920Y029176D01*
X018878Y029058D02*
X019010Y029058D01*
X019083Y028939D02*
X018800Y028939D01*
X018628Y028821D02*
X019234Y028821D01*
X019129Y028584D02*
X018782Y028584D01*
X018870Y028465D02*
X019040Y028465D01*
X018991Y028347D02*
X018920Y028347D01*
X018920Y028228D02*
X018990Y028228D01*
X019011Y028110D02*
X018899Y028110D01*
X018850Y027991D02*
X019060Y027991D01*
X019177Y027873D02*
X018733Y027873D01*
X019733Y027873D02*
X020177Y027873D01*
X020060Y027991D02*
X019850Y027991D01*
X019899Y028110D02*
X020011Y028110D01*
X019990Y028228D02*
X019920Y028228D01*
X019920Y028347D02*
X019991Y028347D01*
X020040Y028465D02*
X019870Y028465D01*
X024664Y010690D02*
X025606Y010690D01*
X025606Y010572D02*
X024982Y010572D01*
X025163Y010453D02*
X025606Y010453D01*
X025606Y010335D02*
X025293Y010335D01*
X025385Y010216D02*
X025606Y010216D01*
X025606Y010098D02*
X025478Y010098D01*
X025530Y009979D02*
X025606Y009979D01*
X025606Y009861D02*
X025571Y009861D01*
D18*
X019351Y016742D03*
X012460Y012083D03*
X010210Y012933D03*
X011460Y014833D03*
X011010Y015133D03*
D19*
X017760Y023383D03*
X019560Y022883D03*
M02*
