G75*
%MOIN*%
%OFA0B0*%
%FSLAX24Y24*%
%IPPOS*%
%LPD*%
%AMOC8*
5,1,8,0,0,1.08239X$1,22.5*
%
%ADD10C,0.0040*%
%ADD11C,0.0050*%
%ADD12C,0.0100*%
%ADD13C,0.0080*%
%ADD14C,0.0060*%
%ADD15R,0.0100X0.0250*%
%ADD16R,0.0300X0.0180*%
%ADD17C,0.0220*%
%ADD18C,0.0010*%
%ADD19C,0.0157*%
%ADD20C,0.0160*%
%ADD21R,0.0280X0.0160*%
D10*
X000433Y002872D02*
X000380Y002925D01*
X000433Y002979D01*
X000380Y003032D01*
X000433Y003085D01*
X000594Y003085D01*
X000594Y003203D02*
X000433Y003203D01*
X000380Y003257D01*
X000433Y003310D01*
X000380Y003363D01*
X000433Y003417D01*
X000594Y003417D01*
X000594Y003535D02*
X000433Y003535D01*
X000380Y003588D01*
X000433Y003642D01*
X000380Y003695D01*
X000433Y003748D01*
X000594Y003748D01*
X000433Y003866D02*
X000433Y003920D01*
X000380Y003920D01*
X000380Y003866D01*
X000433Y003866D01*
X000433Y004032D02*
X000487Y004085D01*
X000487Y004246D01*
X000540Y004246D02*
X000380Y004246D01*
X000380Y004085D01*
X000433Y004032D01*
X000594Y004085D02*
X000594Y004192D01*
X000540Y004246D01*
X000540Y004363D02*
X000433Y004363D01*
X000380Y004417D01*
X000380Y004577D01*
X000380Y004695D02*
X000594Y004695D01*
X000594Y004802D02*
X000594Y004855D01*
X000594Y004802D02*
X000487Y004695D01*
X000594Y004577D02*
X000594Y004417D01*
X000540Y004363D01*
X001030Y004301D02*
X001083Y004248D01*
X001190Y004248D01*
X001244Y004301D01*
X001244Y004461D01*
X001350Y004461D02*
X001030Y004461D01*
X001030Y004301D01*
X001030Y004130D02*
X001030Y003970D01*
X001083Y003916D01*
X001137Y003970D01*
X001137Y004130D01*
X001190Y004130D02*
X001030Y004130D01*
X001190Y004130D02*
X001244Y004076D01*
X001244Y003970D01*
X001244Y003798D02*
X001244Y003638D01*
X001190Y003585D01*
X001137Y003638D01*
X001137Y003745D01*
X001083Y003798D01*
X001030Y003745D01*
X001030Y003585D01*
X001030Y003467D02*
X001030Y003307D01*
X001083Y003253D01*
X001137Y003307D01*
X001137Y003467D01*
X001190Y003467D02*
X001030Y003467D01*
X001190Y003467D02*
X001244Y003413D01*
X001244Y003307D01*
X001297Y003135D02*
X001190Y003135D01*
X001137Y003082D01*
X001137Y002922D01*
X001030Y002922D02*
X001350Y002922D01*
X001350Y003082D01*
X001297Y003135D01*
X001630Y003135D02*
X001844Y003135D01*
X001950Y003029D01*
X001844Y002922D01*
X001630Y002922D01*
X001790Y002922D02*
X001790Y003135D01*
X001683Y003253D02*
X001630Y003307D01*
X001630Y003413D01*
X001683Y003467D01*
X001630Y003585D02*
X001950Y003585D01*
X001950Y003745D01*
X001897Y003798D01*
X001790Y003798D01*
X001737Y003745D01*
X001737Y003585D01*
X001737Y003692D02*
X001630Y003798D01*
X001683Y003916D02*
X001630Y003970D01*
X001630Y004076D01*
X001683Y004130D01*
X001897Y004130D01*
X001950Y004076D01*
X001950Y003970D01*
X001897Y003916D01*
X001683Y003916D01*
X001630Y004248D02*
X001630Y004408D01*
X001683Y004461D01*
X001737Y004461D01*
X001790Y004408D01*
X001790Y004248D01*
X001790Y004408D02*
X001844Y004461D01*
X001897Y004461D01*
X001950Y004408D01*
X001950Y004248D01*
X001630Y004248D01*
X001683Y004579D02*
X001630Y004633D01*
X001630Y004739D01*
X001683Y004793D01*
X001897Y004793D01*
X001950Y004739D01*
X001950Y004633D01*
X001897Y004579D01*
X001683Y004579D01*
X001950Y004911D02*
X001950Y005124D01*
X001950Y005017D02*
X001630Y005017D01*
X001630Y005242D02*
X001630Y005349D01*
X001630Y005296D02*
X001950Y005296D01*
X001950Y005349D02*
X001950Y005242D01*
X001897Y005463D02*
X001683Y005463D01*
X001630Y005517D01*
X001630Y005623D01*
X001683Y005677D01*
X001897Y005677D02*
X001950Y005623D01*
X001950Y005517D01*
X001897Y005463D01*
X001244Y005402D02*
X001190Y005456D01*
X001030Y005456D01*
X001030Y005296D01*
X001083Y005242D01*
X001137Y005296D01*
X001137Y005456D01*
X001244Y005402D02*
X001244Y005296D01*
X001190Y005124D02*
X001030Y005124D01*
X001190Y005124D02*
X001244Y005071D01*
X001244Y004911D01*
X001030Y004911D01*
X001137Y004793D02*
X001137Y004579D01*
X001190Y004579D02*
X001244Y004633D01*
X001244Y004739D01*
X001190Y004793D01*
X001137Y004793D01*
X001030Y004739D02*
X001030Y004633D01*
X001083Y004579D01*
X001190Y004579D01*
X000594Y005025D02*
X000594Y005131D01*
X000540Y005185D01*
X000433Y005185D01*
X000380Y005131D01*
X000380Y005025D01*
X000433Y004971D01*
X000540Y004971D01*
X000594Y005025D01*
X000594Y005303D02*
X000594Y005463D01*
X000540Y005516D01*
X000433Y005516D01*
X000380Y005463D01*
X000380Y005303D01*
X000700Y005303D01*
X000923Y005574D02*
X001030Y005680D01*
X001030Y005627D01*
X001083Y005627D01*
X001083Y005680D01*
X001030Y005680D01*
X000594Y005688D02*
X000594Y005794D01*
X000540Y005848D01*
X000433Y005848D01*
X000380Y005794D01*
X000380Y005688D01*
X000433Y005634D01*
X000540Y005634D01*
X000594Y005688D01*
X000594Y005966D02*
X000594Y006072D01*
X000647Y006019D02*
X000433Y006019D01*
X000380Y006072D01*
X000380Y006187D02*
X000380Y006293D01*
X000380Y006240D02*
X000594Y006240D01*
X000594Y006187D01*
X000700Y006240D02*
X000754Y006240D01*
X000540Y006408D02*
X000433Y006408D01*
X000380Y006461D01*
X000380Y006621D01*
X000380Y006739D02*
X000380Y006792D01*
X000433Y006792D01*
X000433Y006739D01*
X000380Y006739D01*
X000433Y006905D02*
X000380Y006958D01*
X000380Y007118D01*
X000433Y007236D02*
X000380Y007290D01*
X000380Y007396D01*
X000433Y007450D01*
X000540Y007450D01*
X000594Y007396D01*
X000594Y007290D01*
X000540Y007236D01*
X000433Y007236D01*
X000594Y007118D02*
X000594Y006958D01*
X000540Y006905D01*
X000433Y006905D01*
X000594Y006621D02*
X000594Y006461D01*
X000540Y006408D01*
X001030Y006458D02*
X001244Y006458D01*
X001350Y006564D01*
X001244Y006671D01*
X001030Y006671D01*
X001190Y006671D02*
X001190Y006458D01*
X001083Y006340D02*
X001030Y006286D01*
X001030Y006180D01*
X001083Y006126D01*
X001297Y006126D01*
X001350Y006180D01*
X001350Y006286D01*
X001297Y006340D01*
X000594Y007568D02*
X000380Y007568D01*
X000380Y007675D02*
X000540Y007675D01*
X000594Y007728D01*
X000540Y007781D01*
X000380Y007781D01*
X000540Y007675D02*
X000594Y007621D01*
X000594Y007568D01*
X001897Y003467D02*
X001950Y003413D01*
X001950Y003307D01*
X001897Y003253D01*
X001683Y003253D01*
X000594Y002872D02*
X000433Y002872D01*
X017580Y013285D02*
X017940Y013285D01*
X017940Y013465D01*
X017880Y013525D01*
X017760Y013525D01*
X017700Y013465D01*
X017700Y013285D01*
X017700Y013405D02*
X017580Y013525D01*
X017580Y013653D02*
X017820Y013894D01*
X017880Y013894D01*
X017940Y013834D01*
X017940Y013714D01*
X017880Y013653D01*
X017580Y013653D02*
X017580Y013894D01*
X019380Y013230D02*
X019380Y012990D01*
X019380Y013110D02*
X019740Y013110D01*
X019620Y012990D01*
X019560Y012862D02*
X019500Y012802D01*
X019500Y012622D01*
X019500Y012742D02*
X019380Y012862D01*
X019560Y012862D02*
X019680Y012862D01*
X019740Y012802D01*
X019740Y012622D01*
X019380Y012622D01*
X020530Y012572D02*
X020890Y012572D01*
X020890Y012752D01*
X020830Y012812D01*
X020710Y012812D01*
X020650Y012752D01*
X020650Y012572D01*
X020650Y012692D02*
X020530Y012812D01*
X020590Y012940D02*
X020530Y013000D01*
X020530Y013120D01*
X020590Y013180D01*
X020650Y013180D01*
X020710Y013120D01*
X020710Y013060D01*
X020710Y013120D02*
X020770Y013180D01*
X020830Y013180D01*
X020890Y013120D01*
X020890Y013000D01*
X020830Y012940D01*
X018440Y017282D02*
X018320Y017282D01*
X018260Y017342D01*
X018132Y017282D02*
X017891Y017282D01*
X018012Y017282D02*
X018012Y017642D01*
X018132Y017522D01*
X018260Y017582D02*
X018320Y017642D01*
X018440Y017642D01*
X018500Y017582D01*
X018500Y017342D01*
X018440Y017282D01*
D11*
X018628Y017146D02*
X018628Y016696D01*
X018928Y016696D02*
X018928Y017146D01*
X018778Y016996D01*
X018628Y017146D01*
X019088Y017071D02*
X019088Y016771D01*
X019164Y016696D01*
X019314Y016696D01*
X019389Y016771D01*
X019389Y017071D01*
X019314Y017146D01*
X019164Y017146D01*
X019088Y017071D01*
X019549Y017071D02*
X019549Y016921D01*
X019624Y016846D01*
X019849Y016846D01*
X019849Y016696D02*
X019849Y017146D01*
X019624Y017146D01*
X019549Y017071D01*
X019699Y016846D02*
X019549Y016696D01*
X020009Y016921D02*
X020084Y016846D01*
X020309Y016846D01*
X020309Y016696D02*
X020309Y017146D01*
X020084Y017146D01*
X020009Y017071D01*
X020009Y016921D01*
X020470Y016696D02*
X020770Y016696D01*
X020770Y017146D01*
X020470Y017146D01*
X020620Y016921D02*
X020770Y016921D01*
X020930Y016696D02*
X021230Y016696D01*
X021230Y017146D01*
X020930Y017146D01*
X021080Y016921D02*
X021230Y016921D01*
X023088Y014490D02*
X023539Y014490D01*
X023389Y014340D01*
X023539Y014190D01*
X023088Y014190D01*
X023163Y014030D02*
X023088Y013955D01*
X023088Y013805D01*
X023163Y013730D01*
X023464Y013730D01*
X023539Y013805D01*
X023539Y013955D01*
X023464Y014030D01*
X023163Y014030D01*
X023088Y013570D02*
X023238Y013419D01*
X023238Y013495D02*
X023238Y013269D01*
X023088Y013269D02*
X023539Y013269D01*
X023539Y013495D01*
X023464Y013570D01*
X023314Y013570D01*
X023238Y013495D01*
X023314Y013109D02*
X023238Y013034D01*
X023238Y012809D01*
X023088Y012809D02*
X023539Y012809D01*
X023539Y013034D01*
X023464Y013109D01*
X023314Y013109D01*
X023539Y012649D02*
X023539Y012349D01*
X023088Y012349D01*
X023088Y012649D01*
X023314Y012499D02*
X023314Y012349D01*
X023539Y012188D02*
X023539Y011888D01*
X023088Y011888D01*
X023088Y012188D01*
X023314Y012038D02*
X023314Y011888D01*
X022714Y012579D02*
X022413Y012579D01*
X022338Y012654D01*
X022338Y012804D01*
X022413Y012879D01*
X022338Y013039D02*
X022789Y013039D01*
X022789Y013339D01*
X022714Y013500D02*
X022413Y013500D01*
X022338Y013575D01*
X022338Y013725D01*
X022413Y013800D01*
X022564Y013800D01*
X022564Y013650D01*
X022714Y013800D02*
X022789Y013725D01*
X022789Y013575D01*
X022714Y013500D01*
X022564Y013189D02*
X022564Y013039D01*
X022714Y012879D02*
X022789Y012804D01*
X022789Y012654D01*
X022714Y012579D01*
X015810Y007777D02*
X015810Y007402D01*
X015735Y007327D01*
X015585Y007327D01*
X015510Y007402D01*
X015510Y007777D01*
X015350Y007702D02*
X015275Y007777D01*
X015124Y007777D01*
X015049Y007702D01*
X015049Y007627D01*
X015124Y007552D01*
X015049Y007477D01*
X015049Y007402D01*
X015124Y007327D01*
X015275Y007327D01*
X015350Y007402D01*
X015199Y007552D02*
X015124Y007552D01*
X013985Y005887D02*
X013985Y005587D01*
X013760Y005587D01*
X013835Y005737D01*
X013835Y005812D01*
X013760Y005887D01*
X013610Y005887D01*
X013535Y005812D01*
X013535Y005662D01*
X013610Y005587D01*
X013535Y005427D02*
X013685Y005277D01*
X013685Y005352D02*
X013685Y005127D01*
X013535Y005127D02*
X013985Y005127D01*
X013985Y005352D01*
X013910Y005427D01*
X013760Y005427D01*
X013685Y005352D01*
X014285Y005312D02*
X014360Y005237D01*
X014285Y005312D02*
X014285Y005462D01*
X014360Y005537D01*
X014435Y005537D01*
X014510Y005462D01*
X014510Y005387D01*
X014510Y005462D02*
X014585Y005537D01*
X014660Y005537D01*
X014735Y005462D01*
X014735Y005312D01*
X014660Y005237D01*
X014660Y005077D02*
X014735Y005002D01*
X014735Y004852D01*
X014660Y004777D01*
X014360Y004777D01*
X014285Y004852D01*
X014285Y005002D01*
X014360Y005077D01*
X016735Y005106D02*
X017185Y005106D01*
X017185Y005331D01*
X017110Y005406D01*
X016960Y005406D01*
X016885Y005331D01*
X016885Y005106D01*
X016885Y005256D02*
X016735Y005406D01*
X016810Y005566D02*
X016735Y005641D01*
X016735Y005792D01*
X016810Y005867D01*
X016885Y005867D01*
X016960Y005792D01*
X016960Y005566D01*
X016810Y005566D01*
X016960Y005566D02*
X017110Y005717D01*
X017185Y005867D01*
X012710Y007352D02*
X012635Y007277D01*
X012485Y007277D01*
X012410Y007352D01*
X012410Y007727D01*
X012250Y007502D02*
X011949Y007502D01*
X012024Y007277D02*
X012024Y007727D01*
X012250Y007502D01*
X012710Y007352D02*
X012710Y007727D01*
X011560Y005587D02*
X011635Y005512D01*
X011635Y005362D01*
X011560Y005287D01*
X011560Y005127D02*
X011635Y005052D01*
X011635Y004902D01*
X011560Y004827D01*
X011260Y004827D01*
X011185Y004902D01*
X011185Y005052D01*
X011260Y005127D01*
X011185Y005287D02*
X011485Y005587D01*
X011560Y005587D01*
X011185Y005587D02*
X011185Y005287D01*
X008585Y006106D02*
X008585Y006331D01*
X008510Y006406D01*
X008360Y006406D01*
X008285Y006331D01*
X008285Y006106D01*
X008135Y006106D02*
X008585Y006106D01*
X008285Y006256D02*
X008135Y006406D01*
X008360Y006566D02*
X008360Y006867D01*
X008135Y006792D02*
X008585Y006792D01*
X008360Y006566D01*
X008160Y007102D02*
X008160Y007202D01*
X008903Y008300D02*
X009203Y008300D01*
X008903Y008600D01*
X008903Y008675D01*
X008978Y008750D01*
X009128Y008750D01*
X009203Y008675D01*
X009363Y008750D02*
X009363Y008375D01*
X009438Y008300D01*
X009589Y008300D01*
X009664Y008375D01*
X009664Y008750D01*
X010110Y009606D02*
X010035Y009681D01*
X010035Y009831D01*
X010110Y009906D01*
X010260Y010066D02*
X010260Y010367D01*
X010035Y010292D02*
X010485Y010292D01*
X010260Y010066D01*
X010410Y009906D02*
X010485Y009831D01*
X010485Y009681D01*
X010410Y009606D01*
X010110Y009606D01*
X010685Y009681D02*
X010685Y009831D01*
X010760Y009906D01*
X010760Y010066D02*
X010685Y010141D01*
X010685Y010292D01*
X010760Y010367D01*
X010910Y010367D01*
X010985Y010292D01*
X010985Y010217D01*
X010910Y010066D01*
X011135Y010066D01*
X011135Y010367D01*
X011060Y009906D02*
X011135Y009831D01*
X011135Y009681D01*
X011060Y009606D01*
X010760Y009606D01*
X010685Y009681D01*
D12*
X002755Y020421D02*
X002755Y021171D01*
D13*
X002955Y020321D02*
X002955Y022321D01*
X022955Y022321D01*
X022955Y020321D01*
X002955Y020321D01*
X008709Y008113D02*
X009811Y008113D01*
X009811Y006991D02*
X008709Y006991D01*
X011700Y006771D02*
X011700Y006133D01*
X011737Y006133D01*
X011737Y006771D02*
X011700Y006771D01*
X012783Y006771D02*
X012820Y006771D01*
X012820Y006133D01*
X012783Y006133D01*
X012746Y005571D02*
X012534Y005571D01*
X014850Y006183D02*
X014887Y006183D01*
X014850Y006183D02*
X014850Y006821D01*
X014887Y006821D01*
X015933Y006821D02*
X015970Y006821D01*
X015970Y006183D01*
X015933Y006183D01*
X015896Y005621D02*
X015684Y005621D01*
X021495Y012808D02*
X022125Y012808D01*
X022125Y013596D02*
X021495Y013596D01*
D14*
X021015Y014741D02*
X019005Y014741D01*
X019005Y016601D02*
X021015Y016601D01*
D15*
X021905Y016421D03*
D16*
X020710Y013902D03*
X019560Y013902D03*
X017760Y014702D03*
D17*
X018170Y017000D02*
X018170Y017024D01*
D18*
X002038Y007978D02*
X002038Y007202D01*
X001110Y007202D01*
X001110Y007476D01*
X001380Y007476D01*
X001406Y007426D01*
X001688Y007426D01*
X001728Y007474D01*
X001746Y007474D01*
X001746Y007674D01*
X001730Y007674D01*
X001730Y007500D01*
X001730Y007478D01*
X001752Y007478D01*
X001752Y007500D01*
X001844Y007500D01*
X001870Y007528D01*
X001870Y007654D01*
X001848Y007676D01*
X001730Y007676D01*
X001730Y007706D01*
X001690Y007754D01*
X001406Y007754D01*
X001382Y007704D01*
X001108Y007704D01*
X001108Y007978D01*
X002038Y007978D01*
X002038Y007971D02*
X001108Y007971D01*
X001108Y007962D02*
X002038Y007962D01*
X002038Y007954D02*
X001108Y007954D01*
X001108Y007945D02*
X002038Y007945D01*
X002038Y007937D02*
X001108Y007937D01*
X001108Y007928D02*
X002038Y007928D01*
X002038Y007920D02*
X001108Y007920D01*
X001108Y007911D02*
X002038Y007911D01*
X002038Y007903D02*
X001108Y007903D01*
X001108Y007894D02*
X002038Y007894D01*
X002038Y007886D02*
X001108Y007886D01*
X001108Y007877D02*
X002038Y007877D01*
X002038Y007869D02*
X001108Y007869D01*
X001108Y007860D02*
X002038Y007860D01*
X002038Y007852D02*
X001108Y007852D01*
X001108Y007843D02*
X002038Y007843D01*
X002038Y007835D02*
X001108Y007835D01*
X001108Y007826D02*
X002038Y007826D01*
X002038Y007818D02*
X001108Y007818D01*
X001108Y007809D02*
X002038Y007809D01*
X002038Y007801D02*
X001108Y007801D01*
X001108Y007792D02*
X002038Y007792D01*
X002038Y007784D02*
X001108Y007784D01*
X001108Y007775D02*
X002038Y007775D01*
X002038Y007767D02*
X001108Y007767D01*
X001108Y007758D02*
X002038Y007758D01*
X002038Y007750D02*
X001694Y007750D01*
X001701Y007741D02*
X002038Y007741D01*
X002038Y007733D02*
X001708Y007733D01*
X001715Y007724D02*
X002038Y007724D01*
X002038Y007716D02*
X001722Y007716D01*
X001729Y007707D02*
X002038Y007707D01*
X002038Y007699D02*
X001730Y007699D01*
X001730Y007690D02*
X002038Y007690D01*
X002038Y007682D02*
X001730Y007682D01*
X001730Y007673D02*
X001746Y007673D01*
X001746Y007665D02*
X001730Y007665D01*
X001730Y007656D02*
X001746Y007656D01*
X001746Y007648D02*
X001730Y007648D01*
X001730Y007639D02*
X001746Y007639D01*
X001746Y007631D02*
X001730Y007631D01*
X001730Y007622D02*
X001746Y007622D01*
X001746Y007614D02*
X001730Y007614D01*
X001730Y007605D02*
X001746Y007605D01*
X001746Y007597D02*
X001730Y007597D01*
X001730Y007588D02*
X001746Y007588D01*
X001746Y007580D02*
X001730Y007580D01*
X001730Y007571D02*
X001746Y007571D01*
X001746Y007563D02*
X001730Y007563D01*
X001730Y007554D02*
X001746Y007554D01*
X001746Y007546D02*
X001730Y007546D01*
X001730Y007537D02*
X001746Y007537D01*
X001746Y007529D02*
X001730Y007529D01*
X001730Y007520D02*
X001746Y007520D01*
X001746Y007512D02*
X001730Y007512D01*
X001730Y007503D02*
X001746Y007503D01*
X001746Y007495D02*
X001730Y007495D01*
X001730Y007486D02*
X001746Y007486D01*
X001752Y007486D02*
X002038Y007486D01*
X002038Y007478D02*
X001746Y007478D01*
X001752Y007495D02*
X002038Y007495D01*
X002038Y007503D02*
X001847Y007503D01*
X001855Y007512D02*
X002038Y007512D01*
X002038Y007520D02*
X001863Y007520D01*
X001870Y007529D02*
X002038Y007529D01*
X002038Y007537D02*
X001870Y007537D01*
X001870Y007546D02*
X002038Y007546D01*
X002038Y007554D02*
X001870Y007554D01*
X001870Y007563D02*
X002038Y007563D01*
X002038Y007571D02*
X001870Y007571D01*
X001870Y007580D02*
X002038Y007580D01*
X002038Y007588D02*
X001870Y007588D01*
X001870Y007597D02*
X002038Y007597D01*
X002038Y007605D02*
X001870Y007605D01*
X001870Y007614D02*
X002038Y007614D01*
X002038Y007622D02*
X001870Y007622D01*
X001870Y007631D02*
X002038Y007631D01*
X002038Y007639D02*
X001870Y007639D01*
X001870Y007648D02*
X002038Y007648D01*
X002038Y007656D02*
X001868Y007656D01*
X001859Y007665D02*
X002038Y007665D01*
X002038Y007673D02*
X001851Y007673D01*
X001724Y007469D02*
X002038Y007469D01*
X002038Y007461D02*
X001717Y007461D01*
X001710Y007452D02*
X002038Y007452D01*
X002038Y007444D02*
X001703Y007444D01*
X001696Y007435D02*
X002038Y007435D01*
X002038Y007427D02*
X001689Y007427D01*
X001406Y007427D02*
X001110Y007427D01*
X001110Y007435D02*
X001401Y007435D01*
X001397Y007444D02*
X001110Y007444D01*
X001110Y007452D02*
X001392Y007452D01*
X001388Y007461D02*
X001110Y007461D01*
X001110Y007469D02*
X001384Y007469D01*
X001384Y007707D02*
X001108Y007707D01*
X001108Y007716D02*
X001388Y007716D01*
X001392Y007724D02*
X001108Y007724D01*
X001108Y007733D02*
X001396Y007733D01*
X001400Y007741D02*
X001108Y007741D01*
X001108Y007750D02*
X001404Y007750D01*
X001110Y007418D02*
X002038Y007418D01*
X002038Y007410D02*
X001110Y007410D01*
X001110Y007401D02*
X002038Y007401D01*
X002038Y007393D02*
X001110Y007393D01*
X001110Y007384D02*
X002038Y007384D01*
X002038Y007376D02*
X001110Y007376D01*
X001110Y007367D02*
X002038Y007367D01*
X002038Y007359D02*
X001110Y007359D01*
X001110Y007350D02*
X002038Y007350D01*
X002038Y007342D02*
X001110Y007342D01*
X001110Y007333D02*
X002038Y007333D01*
X002038Y007325D02*
X001110Y007325D01*
X001110Y007316D02*
X002038Y007316D01*
X002038Y007308D02*
X001110Y007308D01*
X001110Y007299D02*
X002038Y007299D01*
X002038Y007291D02*
X001110Y007291D01*
X001110Y007282D02*
X002038Y007282D01*
X002038Y007274D02*
X001110Y007274D01*
X001110Y007265D02*
X002038Y007265D01*
X002038Y007257D02*
X001110Y007257D01*
X001110Y007248D02*
X002038Y007248D01*
X002038Y007240D02*
X001110Y007240D01*
X001110Y007231D02*
X002038Y007231D01*
X002038Y007223D02*
X001110Y007223D01*
X001110Y007214D02*
X002038Y007214D01*
X002038Y007206D02*
X001110Y007206D01*
D19*
X008847Y007138D03*
D20*
X010298Y008802D02*
X010322Y008802D01*
X010898Y008802D02*
X010922Y008802D01*
X011348Y006252D02*
X011372Y006252D01*
X014498Y006252D02*
X014522Y006252D01*
D21*
X013760Y006602D03*
X016960Y006602D03*
X007860Y006652D03*
M02*
