G75*
%MOIN*%
%OFA0B0*%
%FSLAX24Y24*%
%IPPOS*%
%LPD*%
%AMOC8*
5,1,8,0,0,1.08239X$1,22.5*
%
%ADD10C,0.0050*%
%ADD11C,0.0030*%
%ADD12C,0.0040*%
%ADD13C,0.0100*%
%ADD14C,0.0060*%
%ADD15C,0.0080*%
%ADD16C,0.0010*%
D10*
X005996Y003163D02*
X006263Y003430D01*
X006263Y003163D01*
X006196Y003096D01*
X006063Y003096D01*
X005996Y003163D01*
X005996Y003430D01*
X006063Y003497D01*
X006196Y003497D01*
X006263Y003430D01*
X006411Y003430D02*
X006477Y003497D01*
X006611Y003497D01*
X006678Y003430D01*
X006411Y003163D01*
X006477Y003096D01*
X006611Y003096D01*
X006678Y003163D01*
X006678Y003430D01*
X006411Y003430D02*
X006411Y003163D01*
X007496Y003163D02*
X007763Y003430D01*
X007763Y003163D01*
X007696Y003096D01*
X007563Y003096D01*
X007496Y003163D01*
X007496Y003430D01*
X007563Y003497D01*
X007696Y003497D01*
X007763Y003430D01*
X007911Y003363D02*
X008044Y003497D01*
X008044Y003096D01*
X007911Y003096D02*
X008178Y003096D01*
X008896Y003163D02*
X009163Y003430D01*
X009163Y003163D01*
X009096Y003096D01*
X008963Y003096D01*
X008896Y003163D01*
X008896Y003430D01*
X008963Y003497D01*
X009096Y003497D01*
X009163Y003430D01*
X009311Y003430D02*
X009377Y003497D01*
X009511Y003497D01*
X009578Y003430D01*
X009578Y003363D01*
X009311Y003096D01*
X009578Y003096D01*
X010296Y003163D02*
X010563Y003430D01*
X010563Y003163D01*
X010496Y003096D01*
X010363Y003096D01*
X010296Y003163D01*
X010296Y003430D01*
X010363Y003497D01*
X010496Y003497D01*
X010563Y003430D01*
X010711Y003430D02*
X010777Y003497D01*
X010911Y003497D01*
X010978Y003430D01*
X010978Y003363D01*
X010911Y003297D01*
X010978Y003230D01*
X010978Y003163D01*
X010911Y003096D01*
X010777Y003096D01*
X010711Y003163D01*
X010844Y003297D02*
X010911Y003297D01*
X011796Y003297D02*
X012063Y003297D01*
X012063Y003363D02*
X012063Y003096D01*
X012211Y003163D02*
X012211Y003430D01*
X012277Y003497D01*
X012411Y003497D01*
X012478Y003430D01*
X012211Y003163D01*
X012277Y003096D01*
X012411Y003096D01*
X012478Y003163D01*
X012478Y003430D01*
X012063Y003363D02*
X011930Y003497D01*
X011796Y003363D01*
X011796Y003096D01*
X013146Y003096D02*
X013146Y003363D01*
X013280Y003497D01*
X013413Y003363D01*
X013413Y003096D01*
X013561Y003096D02*
X013828Y003096D01*
X013694Y003096D02*
X013694Y003497D01*
X013561Y003363D01*
X013413Y003297D02*
X013146Y003297D01*
X015025Y003247D02*
X015025Y003113D01*
X015091Y003046D01*
X015158Y003046D01*
X015225Y003113D01*
X015225Y003247D01*
X015292Y003313D01*
X015358Y003313D01*
X015425Y003247D01*
X015425Y003113D01*
X015358Y003046D01*
X015091Y003313D02*
X015025Y003247D01*
X015091Y003461D02*
X015025Y003528D01*
X015025Y003661D01*
X015091Y003728D01*
X015025Y003875D02*
X015425Y003875D01*
X015425Y004142D01*
X015358Y003728D02*
X015425Y003661D01*
X015425Y003528D01*
X015358Y003461D01*
X015091Y003461D01*
X016475Y003461D02*
X016475Y003661D01*
X016541Y003728D01*
X016808Y003728D01*
X016875Y003661D01*
X016875Y003461D01*
X016475Y003461D01*
X016541Y003313D02*
X016475Y003247D01*
X016475Y003113D01*
X016541Y003046D01*
X016608Y003046D01*
X016675Y003113D01*
X016675Y003247D01*
X016742Y003313D01*
X016808Y003313D01*
X016875Y003247D01*
X016875Y003113D01*
X016808Y003046D01*
X016875Y003875D02*
X016608Y003875D01*
X016475Y004009D01*
X016608Y004142D01*
X016875Y004142D01*
X016675Y004142D02*
X016675Y003875D01*
X018025Y003875D02*
X018025Y004075D01*
X018091Y004142D01*
X018358Y004142D01*
X018425Y004075D01*
X018425Y003875D01*
X018025Y003875D01*
X018025Y003728D02*
X018425Y003728D01*
X018025Y003461D01*
X018425Y003461D01*
X018358Y003313D02*
X018225Y003313D01*
X018225Y003180D01*
X018358Y003313D02*
X018425Y003247D01*
X018425Y003113D01*
X018358Y003046D01*
X018091Y003046D01*
X018025Y003113D01*
X018025Y003247D01*
X018091Y003313D01*
X019225Y003313D02*
X019225Y003046D01*
X019425Y003046D01*
X019358Y003180D01*
X019358Y003247D01*
X019425Y003313D01*
X019558Y003313D01*
X019625Y003247D01*
X019625Y003113D01*
X019558Y003046D01*
X019492Y003461D02*
X019225Y003461D01*
X019492Y003461D02*
X019625Y003594D01*
X019492Y003728D01*
X019225Y003728D01*
X020625Y003728D02*
X020892Y003728D01*
X021025Y003594D01*
X020892Y003461D01*
X020625Y003461D01*
X020691Y003313D02*
X020758Y003313D01*
X020825Y003247D01*
X020892Y003313D01*
X020958Y003313D01*
X021025Y003247D01*
X021025Y003113D01*
X020958Y003046D01*
X020825Y003180D02*
X020825Y003247D01*
X020691Y003313D02*
X020625Y003247D01*
X020625Y003113D01*
X020691Y003046D01*
X020691Y003875D02*
X020625Y003942D01*
X020625Y004075D01*
X020691Y004142D01*
X020758Y004142D01*
X020825Y004075D01*
X020892Y004142D01*
X020958Y004142D01*
X021025Y004075D01*
X021025Y003942D01*
X020958Y003875D01*
X020825Y004009D02*
X020825Y004075D01*
X023375Y004067D02*
X023375Y004292D01*
X023450Y004368D01*
X023750Y004368D01*
X023825Y004292D01*
X023825Y004067D01*
X023375Y004067D01*
X023450Y003907D02*
X023375Y003832D01*
X023375Y003607D01*
X023825Y003607D01*
X023825Y003832D01*
X023750Y003907D01*
X023450Y003907D01*
X023525Y003447D02*
X023825Y003447D01*
X023600Y003447D02*
X023600Y003146D01*
X023525Y003146D02*
X023375Y003297D01*
X023525Y003447D01*
X023525Y003146D02*
X023825Y003146D01*
X023825Y004528D02*
X023525Y004528D01*
X023375Y004678D01*
X023525Y004828D01*
X023825Y004828D01*
X023600Y004828D02*
X023600Y004528D01*
X023600Y005448D02*
X023600Y005749D01*
X023600Y005909D02*
X023600Y006209D01*
X023525Y006209D02*
X023825Y006209D01*
X023525Y006209D02*
X023375Y006059D01*
X023525Y005909D01*
X023825Y005909D01*
X023825Y005749D02*
X023375Y005749D01*
X023375Y005448D02*
X023825Y005448D01*
X023375Y006369D02*
X023375Y006669D01*
X023375Y006519D02*
X023825Y006519D01*
X023600Y007290D02*
X023600Y007440D01*
X023600Y007597D02*
X023750Y007597D01*
X023825Y007672D01*
X023825Y007822D01*
X023750Y007897D01*
X023600Y007897D01*
X023525Y007822D01*
X023525Y007672D01*
X023600Y007597D01*
X023375Y007440D02*
X023450Y007365D01*
X023825Y007365D01*
X023825Y008057D02*
X023525Y008057D01*
X023675Y008057D02*
X023525Y008207D01*
X023525Y008283D01*
X023675Y008901D02*
X023675Y009127D01*
X023600Y009202D01*
X023450Y009202D01*
X023375Y009127D01*
X023375Y008901D01*
X023825Y008901D01*
X023675Y009052D02*
X023825Y009202D01*
X023750Y009362D02*
X023675Y009437D01*
X023675Y009662D01*
X023600Y009662D02*
X023825Y009662D01*
X023825Y009437D01*
X023750Y009362D01*
X023525Y009437D02*
X023525Y009587D01*
X023600Y009662D01*
X023600Y009822D02*
X023525Y009897D01*
X023525Y010122D01*
X023525Y010283D02*
X023525Y010508D01*
X023600Y010583D01*
X023750Y010583D01*
X023825Y010508D01*
X023825Y010283D01*
X023975Y010283D02*
X023525Y010283D01*
X023750Y010122D02*
X023675Y010047D01*
X023675Y009897D01*
X023600Y009822D01*
X023825Y009822D02*
X023825Y010047D01*
X023750Y010122D01*
X023825Y010743D02*
X023375Y010743D01*
X023525Y010743D02*
X023525Y010968D01*
X023600Y011043D01*
X023750Y011043D01*
X023825Y010968D01*
X023825Y010743D01*
X023750Y011203D02*
X023600Y011203D01*
X023525Y011278D01*
X023525Y011429D01*
X023600Y011504D01*
X023675Y011504D01*
X023675Y011203D01*
X023750Y011203D02*
X023825Y011278D01*
X023825Y011429D01*
X023825Y011664D02*
X023525Y011664D01*
X023675Y011664D02*
X023525Y011814D01*
X023525Y011889D01*
X023525Y012047D02*
X023825Y012047D01*
X023675Y012047D02*
X023525Y012198D01*
X023525Y012273D01*
X023525Y012431D02*
X023750Y012431D01*
X023825Y012506D01*
X023825Y012731D01*
X023900Y012731D02*
X023525Y012731D01*
X023900Y012731D02*
X023975Y012656D01*
X023975Y012581D01*
X023825Y013352D02*
X023375Y013352D01*
X023375Y013577D01*
X023450Y013652D01*
X023600Y013652D01*
X023675Y013577D01*
X023675Y013352D01*
X023825Y013812D02*
X023825Y013962D01*
X023825Y013887D02*
X023525Y013887D01*
X023525Y013812D01*
X023375Y013887D02*
X023300Y013887D01*
X023525Y014580D02*
X023375Y014730D01*
X023525Y014880D01*
X023825Y014880D01*
X023600Y014880D02*
X023600Y014580D01*
X023525Y014580D02*
X023825Y014580D01*
X023600Y015040D02*
X023600Y015340D01*
X023450Y015190D02*
X023750Y015190D01*
X023825Y015500D02*
X023375Y015801D01*
X023375Y015961D02*
X023375Y016186D01*
X023450Y016261D01*
X023525Y016261D01*
X023600Y016186D01*
X023600Y015961D01*
X023600Y016186D02*
X023675Y016261D01*
X023750Y016261D01*
X023825Y016186D01*
X023825Y015961D01*
X023375Y015961D01*
X023600Y016421D02*
X023600Y016721D01*
X023450Y016571D02*
X023750Y016571D01*
X023825Y016882D02*
X023375Y017182D01*
X023450Y017342D02*
X023375Y017417D01*
X023375Y017567D01*
X023450Y017642D01*
X023525Y017642D01*
X023825Y017342D01*
X023825Y017642D01*
X023854Y018246D02*
X023554Y018246D01*
X023854Y018547D01*
X023854Y018622D01*
X023779Y018697D01*
X023629Y018697D01*
X023554Y018622D01*
X024015Y018547D02*
X024165Y018697D01*
X024165Y018246D01*
X024015Y018246D02*
X024315Y018246D01*
X024369Y019646D02*
X024519Y019646D01*
X024594Y019722D01*
X024594Y019872D01*
X024444Y019872D01*
X024594Y020022D02*
X024519Y020097D01*
X024369Y020097D01*
X024294Y020022D01*
X024294Y019722D01*
X024369Y019646D01*
X024754Y019646D02*
X024754Y020097D01*
X025054Y019646D01*
X025054Y020097D01*
X025215Y020097D02*
X025440Y020097D01*
X025515Y020022D01*
X025515Y019722D01*
X025440Y019646D01*
X025215Y019646D01*
X025215Y020097D01*
X023315Y020022D02*
X023315Y019722D01*
X023240Y019646D01*
X023090Y019646D01*
X023015Y019722D01*
X023315Y020022D01*
X023240Y020097D01*
X023090Y020097D01*
X023015Y020022D01*
X023015Y019722D01*
X022854Y019646D02*
X022554Y019646D01*
X022854Y019947D01*
X022854Y020022D01*
X022779Y020097D01*
X022629Y020097D01*
X022554Y020022D01*
X021215Y020097D02*
X021065Y020022D01*
X020915Y019872D01*
X021140Y019872D01*
X021215Y019797D01*
X021215Y019722D01*
X021140Y019646D01*
X020990Y019646D01*
X020915Y019722D01*
X020915Y019872D01*
X020754Y019646D02*
X020454Y019646D01*
X020604Y019646D02*
X020604Y020097D01*
X020454Y019947D01*
X019315Y019947D02*
X019315Y020022D01*
X019240Y020097D01*
X019090Y020097D01*
X019015Y020022D01*
X019315Y019947D02*
X019015Y019646D01*
X019315Y019646D01*
X018854Y019646D02*
X018554Y019646D01*
X018704Y019646D02*
X018704Y020097D01*
X018554Y019947D01*
X018015Y018697D02*
X017865Y018622D01*
X017715Y018472D01*
X017940Y018472D01*
X018015Y018397D01*
X018015Y018322D01*
X017940Y018246D01*
X017790Y018246D01*
X017715Y018322D01*
X017715Y018472D01*
X016515Y018246D02*
X016215Y018246D01*
X016365Y018246D02*
X016365Y018697D01*
X016215Y018547D01*
X016054Y018697D02*
X015754Y018697D01*
X015754Y018246D01*
X016054Y018246D01*
X015904Y018472D02*
X015754Y018472D01*
X015594Y018622D02*
X015519Y018697D01*
X015369Y018697D01*
X015294Y018622D01*
X015294Y018322D01*
X015369Y018246D01*
X015519Y018246D01*
X015594Y018322D01*
X014515Y018246D02*
X014290Y018472D01*
X014215Y018397D02*
X014515Y018697D01*
X014215Y018697D02*
X014215Y018246D01*
X014054Y018322D02*
X013979Y018246D01*
X013829Y018246D01*
X013754Y018322D01*
X013754Y018622D01*
X013829Y018697D01*
X013979Y018697D01*
X014054Y018622D01*
X013594Y018622D02*
X013519Y018697D01*
X013369Y018697D01*
X013294Y018622D01*
X013294Y018547D01*
X013369Y018472D01*
X013519Y018472D01*
X013594Y018397D01*
X013594Y018322D01*
X013519Y018246D01*
X013369Y018246D01*
X013294Y018322D01*
X012618Y018246D02*
X012468Y018246D01*
X012543Y018246D02*
X012543Y018697D01*
X012468Y018697D02*
X012618Y018697D01*
X012308Y018622D02*
X012233Y018697D01*
X012083Y018697D01*
X012008Y018622D01*
X012008Y018547D01*
X012083Y018472D01*
X012233Y018472D01*
X012308Y018397D01*
X012308Y018322D01*
X012233Y018246D01*
X012083Y018246D01*
X012008Y018322D01*
X011848Y018322D02*
X011772Y018246D01*
X011622Y018246D01*
X011547Y018322D01*
X011547Y018622D01*
X011622Y018697D01*
X011772Y018697D01*
X011848Y018622D01*
X011848Y018322D01*
X011387Y018246D02*
X011387Y018697D01*
X011237Y018547D01*
X011087Y018697D01*
X011087Y018246D01*
X010215Y018246D02*
X009915Y018246D01*
X010215Y018547D01*
X010215Y018622D01*
X010140Y018697D01*
X009990Y018697D01*
X009915Y018622D01*
X009754Y018622D02*
X009679Y018697D01*
X009529Y018697D01*
X009454Y018622D01*
X009754Y018622D02*
X009754Y018547D01*
X009454Y018246D01*
X009754Y018246D01*
X008315Y018322D02*
X008240Y018246D01*
X008090Y018246D01*
X008015Y018322D01*
X008015Y018397D01*
X008090Y018472D01*
X008240Y018472D01*
X008315Y018397D01*
X008315Y018322D01*
X008240Y018472D02*
X008315Y018547D01*
X008315Y018622D01*
X008240Y018697D01*
X008090Y018697D01*
X008015Y018622D01*
X008015Y018547D01*
X008090Y018472D01*
X007854Y018246D02*
X007554Y018246D01*
X007704Y018246D02*
X007704Y018697D01*
X007554Y018547D01*
X006515Y018622D02*
X006515Y018322D01*
X006440Y018246D01*
X006215Y018246D01*
X006215Y018697D01*
X006440Y018697D01*
X006515Y018622D01*
X006054Y018697D02*
X006054Y018246D01*
X005754Y018697D01*
X005754Y018246D01*
X005594Y018322D02*
X005594Y018472D01*
X005444Y018472D01*
X005594Y018622D02*
X005519Y018697D01*
X005369Y018697D01*
X005294Y018622D01*
X005294Y018322D01*
X005369Y018246D01*
X005519Y018246D01*
X005594Y018322D01*
X004315Y018246D02*
X004015Y018697D01*
X003854Y018622D02*
X003854Y018472D01*
X003779Y018397D01*
X003554Y018397D01*
X003704Y018397D02*
X003854Y018246D01*
X004015Y018246D02*
X004315Y018697D01*
X003854Y018622D02*
X003779Y018697D01*
X003554Y018697D01*
X003554Y018246D01*
X002515Y018246D02*
X002215Y018246D01*
X002215Y018697D01*
X002054Y018622D02*
X001979Y018697D01*
X001829Y018697D01*
X001754Y018622D01*
X001754Y018322D01*
X001829Y018246D01*
X001979Y018246D01*
X002054Y018322D01*
X001594Y018322D02*
X001519Y018246D01*
X001369Y018246D01*
X001294Y018322D01*
X001369Y018472D02*
X001294Y018547D01*
X001294Y018622D01*
X001369Y018697D01*
X001519Y018697D01*
X001594Y018622D01*
X001519Y018472D02*
X001594Y018397D01*
X001594Y018322D01*
X001519Y018472D02*
X001369Y018472D01*
X001515Y019646D02*
X001515Y019947D01*
X001365Y020097D01*
X001215Y019947D01*
X001215Y019646D01*
X001054Y019722D02*
X001054Y020022D01*
X000979Y020097D01*
X000754Y020097D01*
X000754Y019646D01*
X000979Y019646D01*
X001054Y019722D01*
X001215Y019872D02*
X001515Y019872D01*
X000594Y019797D02*
X000594Y019722D01*
X000519Y019646D01*
X000369Y019646D01*
X000294Y019722D01*
X000369Y019872D02*
X000519Y019872D01*
X000594Y019797D01*
X000594Y020022D02*
X000519Y020097D01*
X000369Y020097D01*
X000294Y020022D01*
X000294Y019947D01*
X000369Y019872D01*
X002604Y020097D02*
X002904Y020097D01*
X002754Y020097D02*
X002754Y019646D01*
X003065Y019646D02*
X003365Y020097D01*
X003065Y020097D02*
X003365Y019646D01*
X004715Y019872D02*
X005015Y019872D01*
X004940Y020097D02*
X004940Y019646D01*
X004715Y019872D02*
X004940Y020097D01*
X006554Y019947D02*
X006704Y020097D01*
X006704Y019646D01*
X006554Y019646D02*
X006854Y019646D01*
X007015Y019646D02*
X007015Y019722D01*
X007315Y020022D01*
X007315Y020097D01*
X007015Y020097D01*
X008554Y020022D02*
X008629Y020097D01*
X008779Y020097D01*
X008854Y020022D01*
X008854Y019947D01*
X008554Y019646D01*
X008854Y019646D01*
X009015Y019646D02*
X009015Y019722D01*
X009315Y020022D01*
X009315Y020097D01*
X009015Y020097D01*
X010554Y020022D02*
X010629Y020097D01*
X010779Y020097D01*
X010854Y020022D01*
X010854Y019947D01*
X010554Y019646D01*
X010854Y019646D01*
X011015Y019722D02*
X011090Y019646D01*
X011240Y019646D01*
X011315Y019722D01*
X011315Y019872D01*
X011240Y019947D01*
X011165Y019947D01*
X011015Y019872D01*
X011015Y020097D01*
X011315Y020097D01*
X012187Y020097D02*
X012187Y019646D01*
X012487Y019646D02*
X012487Y020097D01*
X012337Y019947D01*
X012187Y020097D01*
X012647Y020097D02*
X012797Y020097D01*
X012722Y020097D02*
X012722Y019646D01*
X012647Y019646D02*
X012797Y019646D01*
X012954Y019722D02*
X013029Y019646D01*
X013179Y019646D01*
X013254Y019722D01*
X013254Y019797D01*
X013179Y019872D01*
X013029Y019872D01*
X012954Y019947D01*
X012954Y020022D01*
X013029Y020097D01*
X013179Y020097D01*
X013254Y020022D01*
X013415Y020022D02*
X013415Y019722D01*
X013490Y019646D01*
X013640Y019646D01*
X013715Y019722D01*
X013715Y020022D01*
X013640Y020097D01*
X013490Y020097D01*
X013415Y020022D01*
X014294Y020022D02*
X014294Y019722D01*
X014369Y019646D01*
X014519Y019646D01*
X014594Y019722D01*
X014754Y019646D02*
X015054Y019646D01*
X015215Y019722D02*
X015290Y019646D01*
X015440Y019646D01*
X015515Y019722D01*
X015515Y020022D01*
X015215Y019722D01*
X015215Y020022D01*
X015290Y020097D01*
X015440Y020097D01*
X015515Y020022D01*
X015054Y020097D02*
X014754Y020097D01*
X014754Y019646D01*
X014754Y019872D02*
X014904Y019872D01*
X014594Y020022D02*
X014519Y020097D01*
X014369Y020097D01*
X014294Y020022D01*
X016715Y020097D02*
X016715Y019872D01*
X016865Y019947D01*
X016940Y019947D01*
X017015Y019872D01*
X017015Y019722D01*
X016940Y019646D01*
X016790Y019646D01*
X016715Y019722D01*
X016715Y020097D02*
X017015Y020097D01*
X019554Y018547D02*
X019704Y018697D01*
X019704Y018246D01*
X019554Y018246D02*
X019854Y018246D01*
X020015Y018322D02*
X020090Y018246D01*
X020240Y018246D01*
X020315Y018322D01*
X020315Y018397D01*
X020240Y018472D01*
X020165Y018472D01*
X020240Y018472D02*
X020315Y018547D01*
X020315Y018622D01*
X020240Y018697D01*
X020090Y018697D01*
X020015Y018622D01*
X021554Y018547D02*
X021704Y018697D01*
X021704Y018246D01*
X021554Y018246D02*
X021854Y018246D01*
X022015Y018322D02*
X022090Y018246D01*
X022240Y018246D01*
X022315Y018322D01*
X022315Y018472D01*
X022240Y018547D01*
X022165Y018547D01*
X022015Y018472D01*
X022015Y018697D01*
X022315Y018697D01*
D11*
X025215Y018495D02*
X025260Y018540D01*
X025440Y018360D01*
X025485Y018405D01*
X025485Y018495D01*
X025440Y018540D01*
X025260Y018540D01*
X025215Y018495D02*
X025215Y018405D01*
X025260Y018360D01*
X025440Y018360D01*
X025440Y018267D02*
X025485Y018267D01*
X025485Y018222D01*
X025440Y018222D01*
X025440Y018267D01*
X025485Y018126D02*
X025485Y017946D01*
X025485Y018036D02*
X025215Y018036D01*
X025305Y017946D01*
X025305Y017850D02*
X025485Y017760D01*
X025305Y017670D01*
D12*
X000566Y003191D02*
X000460Y003298D01*
X000566Y003405D01*
X000780Y003405D01*
X000727Y003523D02*
X000780Y003576D01*
X000780Y003683D01*
X000727Y003736D01*
X000780Y003854D02*
X000460Y003854D01*
X000460Y004015D01*
X000513Y004068D01*
X000620Y004068D01*
X000673Y004015D01*
X000673Y003854D01*
X000673Y003961D02*
X000780Y004068D01*
X000727Y004186D02*
X000780Y004239D01*
X000780Y004346D01*
X000727Y004399D01*
X000513Y004399D01*
X000460Y004346D01*
X000460Y004239D01*
X000513Y004186D01*
X000727Y004186D01*
X000780Y004517D02*
X000460Y004517D01*
X000460Y004678D01*
X000513Y004731D01*
X000566Y004731D01*
X000620Y004678D01*
X000620Y004517D01*
X000780Y004517D02*
X000780Y004678D01*
X000727Y004731D01*
X000673Y004731D01*
X000620Y004678D01*
X000513Y004849D02*
X000727Y004849D01*
X000780Y004902D01*
X000780Y005009D01*
X000727Y005062D01*
X000513Y005062D01*
X000460Y005009D01*
X000460Y004902D01*
X000513Y004849D01*
X000460Y005180D02*
X000460Y005394D01*
X000460Y005287D02*
X000780Y005287D01*
X000780Y005512D02*
X000780Y005619D01*
X000780Y005565D02*
X000460Y005565D01*
X000460Y005512D02*
X000460Y005619D01*
X000513Y005733D02*
X000727Y005733D01*
X000780Y005786D01*
X000780Y005893D01*
X000727Y005946D01*
X000513Y005946D02*
X000460Y005893D01*
X000460Y005786D01*
X000513Y005733D01*
X001166Y005672D02*
X001220Y005725D01*
X001380Y005725D01*
X001380Y005565D01*
X001327Y005512D01*
X001273Y005565D01*
X001273Y005725D01*
X001166Y005672D02*
X001166Y005565D01*
X001220Y005394D02*
X001380Y005394D01*
X001220Y005394D02*
X001166Y005341D01*
X001166Y005180D01*
X001380Y005180D01*
X001273Y005062D02*
X001273Y004849D01*
X001220Y004849D02*
X001166Y004902D01*
X001166Y005009D01*
X001220Y005062D01*
X001273Y005062D01*
X001380Y005009D02*
X001380Y004902D01*
X001327Y004849D01*
X001220Y004849D01*
X001166Y004731D02*
X001166Y004571D01*
X001220Y004517D01*
X001327Y004517D01*
X001380Y004571D01*
X001380Y004731D01*
X001060Y004731D01*
X001220Y004399D02*
X001380Y004399D01*
X001380Y004239D01*
X001327Y004186D01*
X001273Y004239D01*
X001273Y004399D01*
X001220Y004399D02*
X001166Y004346D01*
X001166Y004239D01*
X001166Y004068D02*
X001166Y003908D01*
X001220Y003854D01*
X001273Y003908D01*
X001273Y004015D01*
X001327Y004068D01*
X001380Y004015D01*
X001380Y003854D01*
X001380Y003736D02*
X001380Y003576D01*
X001327Y003523D01*
X001273Y003576D01*
X001273Y003736D01*
X001220Y003736D02*
X001380Y003736D01*
X001220Y003736D02*
X001166Y003683D01*
X001166Y003576D01*
X001113Y003405D02*
X001220Y003405D01*
X001273Y003352D01*
X001273Y003191D01*
X001380Y003191D02*
X001060Y003191D01*
X001060Y003352D01*
X001113Y003405D01*
X000780Y003191D02*
X000566Y003191D01*
X000620Y003191D02*
X000620Y003405D01*
X000513Y003523D02*
X000727Y003523D01*
X000513Y003523D02*
X000460Y003576D01*
X000460Y003683D01*
X000513Y003736D01*
X001816Y003686D02*
X001977Y003686D01*
X002030Y003633D01*
X001977Y003580D01*
X002030Y003526D01*
X001977Y003473D01*
X001816Y003473D01*
X001816Y003355D02*
X001977Y003355D01*
X002030Y003302D01*
X001977Y003248D01*
X002030Y003195D01*
X001977Y003141D01*
X001816Y003141D01*
X001816Y003804D02*
X001977Y003804D01*
X002030Y003858D01*
X001977Y003911D01*
X002030Y003965D01*
X001977Y004018D01*
X001816Y004018D01*
X001977Y004136D02*
X001977Y004189D01*
X002030Y004189D01*
X002030Y004136D01*
X001977Y004136D01*
X001977Y004302D02*
X001923Y004355D01*
X001923Y004515D01*
X001870Y004515D02*
X002030Y004515D01*
X002030Y004355D01*
X001977Y004302D01*
X001816Y004355D02*
X001816Y004462D01*
X001870Y004515D01*
X001870Y004633D02*
X001816Y004687D01*
X001816Y004847D01*
X001816Y004965D02*
X002030Y004965D01*
X001923Y004965D02*
X001816Y005071D01*
X001816Y005125D01*
X001870Y005241D02*
X001816Y005294D01*
X001816Y005401D01*
X001870Y005454D01*
X001977Y005454D01*
X002030Y005401D01*
X002030Y005294D01*
X001977Y005241D01*
X001870Y005241D01*
X002030Y004847D02*
X002030Y004687D01*
X001977Y004633D01*
X001870Y004633D01*
X001816Y005572D02*
X001816Y005733D01*
X001870Y005786D01*
X001977Y005786D01*
X002030Y005733D01*
X002030Y005572D01*
X001710Y005572D01*
X001487Y005843D02*
X001380Y005950D01*
X001380Y005897D01*
X001327Y005897D01*
X001327Y005950D01*
X001380Y005950D01*
X001816Y005957D02*
X001870Y005904D01*
X001977Y005904D01*
X002030Y005957D01*
X002030Y006064D01*
X001977Y006117D01*
X001870Y006117D01*
X001816Y006064D01*
X001816Y005957D01*
X001816Y006235D02*
X001816Y006342D01*
X001763Y006289D02*
X001977Y006289D01*
X002030Y006342D01*
X002030Y006456D02*
X002030Y006563D01*
X002030Y006510D02*
X001816Y006510D01*
X001816Y006456D01*
X001710Y006510D02*
X001656Y006510D01*
X001870Y006677D02*
X001816Y006731D01*
X001816Y006891D01*
X001977Y007009D02*
X001977Y007062D01*
X002030Y007062D01*
X002030Y007009D01*
X001977Y007009D01*
X002030Y006891D02*
X002030Y006731D01*
X001977Y006677D01*
X001870Y006677D01*
X001380Y006727D02*
X001166Y006727D01*
X001060Y006834D01*
X001166Y006941D01*
X001380Y006941D01*
X001220Y006941D02*
X001220Y006727D01*
X001327Y006609D02*
X001380Y006556D01*
X001380Y006449D01*
X001327Y006396D01*
X001113Y006396D01*
X001060Y006449D01*
X001060Y006556D01*
X001113Y006609D01*
X001816Y007228D02*
X001870Y007175D01*
X001977Y007175D01*
X002030Y007228D01*
X002030Y007388D01*
X001977Y007506D02*
X002030Y007559D01*
X002030Y007666D01*
X001977Y007720D01*
X001870Y007720D01*
X001816Y007666D01*
X001816Y007559D01*
X001870Y007506D01*
X001977Y007506D01*
X001816Y007388D02*
X001816Y007228D01*
X001816Y007837D02*
X001816Y007891D01*
X001870Y007944D01*
X001816Y007998D01*
X001870Y008051D01*
X002030Y008051D01*
X002030Y007944D02*
X001870Y007944D01*
X001816Y007837D02*
X002030Y007837D01*
X008491Y004119D02*
X008598Y004119D01*
X008544Y004119D02*
X008544Y003799D01*
X008491Y003799D02*
X008598Y003799D01*
X008712Y003799D02*
X008712Y004012D01*
X008872Y004012D01*
X008925Y003959D01*
X008925Y003799D01*
X012441Y003902D02*
X012494Y003849D01*
X012601Y003849D01*
X012654Y003902D01*
X012654Y004116D01*
X012601Y004169D01*
X012494Y004169D01*
X012441Y004116D01*
X012441Y003902D01*
X012772Y003902D02*
X012826Y003849D01*
X012986Y003849D01*
X012986Y004062D01*
X013104Y004062D02*
X013211Y004062D01*
X013157Y004116D02*
X013157Y003902D01*
X013211Y003849D01*
X012772Y003902D02*
X012772Y004062D01*
D13*
X012200Y003971D02*
X011650Y003971D01*
X011650Y003671D01*
X011050Y003671D02*
X011050Y003971D01*
X009100Y003971D01*
X008250Y003971D02*
X005950Y003971D01*
X005950Y003671D01*
X003600Y004321D02*
X022350Y004321D01*
X022350Y018071D01*
X003600Y018071D01*
X003600Y004321D01*
X013400Y003971D02*
X013900Y003971D01*
X013900Y003671D01*
X002745Y020441D02*
X002745Y021191D01*
D14*
X004959Y003945D02*
X004869Y003855D01*
X004869Y003675D01*
X004959Y003585D01*
X005319Y003585D01*
X005409Y003675D01*
X005409Y003855D01*
X005319Y003945D01*
X005139Y003945D01*
X005139Y003765D01*
X004959Y003393D02*
X004869Y003302D01*
X004869Y003122D01*
X004959Y003032D01*
X005319Y003032D01*
X005409Y003122D01*
X005409Y003302D01*
X005319Y003393D01*
X004959Y003393D01*
X005409Y002840D02*
X005409Y002480D01*
X004869Y002480D01*
X005049Y002288D02*
X004869Y002107D01*
X005049Y001927D01*
X005409Y001927D01*
X005409Y001735D02*
X004869Y001735D01*
X005139Y001927D02*
X005139Y002288D01*
X005049Y002288D02*
X005409Y002288D01*
X005409Y001735D02*
X004869Y001375D01*
X005409Y001375D01*
X005409Y001183D02*
X005049Y001183D01*
X004869Y001003D01*
X005049Y000822D01*
X005409Y000822D01*
X005139Y000822D02*
X005139Y001183D01*
D15*
X005646Y000675D02*
X009977Y000675D01*
X009977Y002896D01*
X005646Y002896D01*
X005646Y000675D01*
X005646Y000140D01*
X009977Y000140D01*
X009977Y000675D01*
X009993Y000675D02*
X014323Y000675D01*
X017276Y000675D01*
X021607Y000675D01*
X021607Y002896D01*
X017276Y002896D01*
X017276Y000675D01*
X017276Y000140D01*
X021607Y000140D01*
X021607Y000675D01*
X017276Y000675D02*
X017276Y000140D01*
X014323Y000140D01*
X014323Y000675D01*
X014323Y002896D01*
X017276Y002896D01*
X017276Y000675D01*
X014323Y000675D02*
X014323Y000140D01*
X009993Y000140D01*
X009993Y000675D01*
X009993Y002896D01*
X014323Y002896D01*
X014323Y000675D01*
X022945Y020341D02*
X002945Y020341D01*
X002945Y022341D01*
X022945Y022341D01*
X022945Y020341D01*
D16*
X001402Y007997D02*
X001402Y007723D01*
X001128Y007723D01*
X001104Y007773D01*
X000820Y007773D01*
X000780Y007725D01*
X000780Y007695D01*
X000662Y007695D01*
X000640Y007673D01*
X000640Y007547D01*
X000666Y007519D01*
X000758Y007519D01*
X000758Y007497D01*
X000780Y007497D01*
X000780Y007519D01*
X000780Y007693D01*
X000764Y007693D01*
X000764Y007493D01*
X000782Y007493D01*
X000822Y007445D01*
X001104Y007445D01*
X001130Y007495D01*
X001400Y007495D01*
X001400Y007221D01*
X000472Y007221D01*
X000472Y007997D01*
X001402Y007997D01*
X001402Y007990D02*
X000472Y007990D01*
X000472Y007982D02*
X001402Y007982D01*
X001402Y007973D02*
X000472Y007973D01*
X000472Y007965D02*
X001402Y007965D01*
X001402Y007956D02*
X000472Y007956D01*
X000472Y007948D02*
X001402Y007948D01*
X001402Y007939D02*
X000472Y007939D01*
X000472Y007931D02*
X001402Y007931D01*
X001402Y007922D02*
X000472Y007922D01*
X000472Y007914D02*
X001402Y007914D01*
X001402Y007905D02*
X000472Y007905D01*
X000472Y007897D02*
X001402Y007897D01*
X001402Y007888D02*
X000472Y007888D01*
X000472Y007880D02*
X001402Y007880D01*
X001402Y007871D02*
X000472Y007871D01*
X000472Y007863D02*
X001402Y007863D01*
X001402Y007854D02*
X000472Y007854D01*
X000472Y007846D02*
X001402Y007846D01*
X001402Y007837D02*
X000472Y007837D01*
X000472Y007829D02*
X001402Y007829D01*
X001402Y007820D02*
X000472Y007820D01*
X000472Y007812D02*
X001402Y007812D01*
X001402Y007803D02*
X000472Y007803D01*
X000472Y007795D02*
X001402Y007795D01*
X001402Y007786D02*
X000472Y007786D01*
X000472Y007778D02*
X001402Y007778D01*
X001402Y007769D02*
X001106Y007769D01*
X001110Y007761D02*
X001402Y007761D01*
X001402Y007752D02*
X001114Y007752D01*
X001118Y007744D02*
X001402Y007744D01*
X001402Y007735D02*
X001122Y007735D01*
X001126Y007727D02*
X001402Y007727D01*
X001400Y007489D02*
X001126Y007489D01*
X001122Y007480D02*
X001400Y007480D01*
X001400Y007472D02*
X001118Y007472D01*
X001113Y007463D02*
X001400Y007463D01*
X001400Y007455D02*
X001109Y007455D01*
X001104Y007446D02*
X001400Y007446D01*
X001400Y007438D02*
X000472Y007438D01*
X000472Y007446D02*
X000821Y007446D01*
X000814Y007455D02*
X000472Y007455D01*
X000472Y007463D02*
X000807Y007463D01*
X000800Y007472D02*
X000472Y007472D01*
X000472Y007480D02*
X000793Y007480D01*
X000786Y007489D02*
X000472Y007489D01*
X000472Y007497D02*
X000764Y007497D01*
X000764Y007506D02*
X000780Y007506D01*
X000780Y007514D02*
X000764Y007514D01*
X000758Y007514D02*
X000472Y007514D01*
X000472Y007506D02*
X000758Y007506D01*
X000764Y007523D02*
X000780Y007523D01*
X000780Y007531D02*
X000764Y007531D01*
X000764Y007540D02*
X000780Y007540D01*
X000780Y007548D02*
X000764Y007548D01*
X000764Y007557D02*
X000780Y007557D01*
X000780Y007565D02*
X000764Y007565D01*
X000764Y007574D02*
X000780Y007574D01*
X000780Y007582D02*
X000764Y007582D01*
X000764Y007591D02*
X000780Y007591D01*
X000780Y007599D02*
X000764Y007599D01*
X000764Y007608D02*
X000780Y007608D01*
X000780Y007616D02*
X000764Y007616D01*
X000764Y007625D02*
X000780Y007625D01*
X000780Y007633D02*
X000764Y007633D01*
X000764Y007642D02*
X000780Y007642D01*
X000780Y007650D02*
X000764Y007650D01*
X000764Y007659D02*
X000780Y007659D01*
X000780Y007667D02*
X000764Y007667D01*
X000764Y007676D02*
X000780Y007676D01*
X000780Y007684D02*
X000764Y007684D01*
X000764Y007693D02*
X000780Y007693D01*
X000780Y007701D02*
X000472Y007701D01*
X000472Y007693D02*
X000659Y007693D01*
X000651Y007684D02*
X000472Y007684D01*
X000472Y007676D02*
X000642Y007676D01*
X000640Y007667D02*
X000472Y007667D01*
X000472Y007659D02*
X000640Y007659D01*
X000640Y007650D02*
X000472Y007650D01*
X000472Y007642D02*
X000640Y007642D01*
X000640Y007633D02*
X000472Y007633D01*
X000472Y007625D02*
X000640Y007625D01*
X000640Y007616D02*
X000472Y007616D01*
X000472Y007608D02*
X000640Y007608D01*
X000640Y007599D02*
X000472Y007599D01*
X000472Y007591D02*
X000640Y007591D01*
X000640Y007582D02*
X000472Y007582D01*
X000472Y007574D02*
X000640Y007574D01*
X000640Y007565D02*
X000472Y007565D01*
X000472Y007557D02*
X000640Y007557D01*
X000640Y007548D02*
X000472Y007548D01*
X000472Y007540D02*
X000647Y007540D01*
X000655Y007531D02*
X000472Y007531D01*
X000472Y007523D02*
X000663Y007523D01*
X000472Y007429D02*
X001400Y007429D01*
X001400Y007421D02*
X000472Y007421D01*
X000472Y007412D02*
X001400Y007412D01*
X001400Y007404D02*
X000472Y007404D01*
X000472Y007395D02*
X001400Y007395D01*
X001400Y007387D02*
X000472Y007387D01*
X000472Y007378D02*
X001400Y007378D01*
X001400Y007370D02*
X000472Y007370D01*
X000472Y007361D02*
X001400Y007361D01*
X001400Y007353D02*
X000472Y007353D01*
X000472Y007344D02*
X001400Y007344D01*
X001400Y007336D02*
X000472Y007336D01*
X000472Y007327D02*
X001400Y007327D01*
X001400Y007319D02*
X000472Y007319D01*
X000472Y007310D02*
X001400Y007310D01*
X001400Y007302D02*
X000472Y007302D01*
X000472Y007293D02*
X001400Y007293D01*
X001400Y007285D02*
X000472Y007285D01*
X000472Y007276D02*
X001400Y007276D01*
X001400Y007268D02*
X000472Y007268D01*
X000472Y007259D02*
X001400Y007259D01*
X001400Y007251D02*
X000472Y007251D01*
X000472Y007242D02*
X001400Y007242D01*
X001400Y007234D02*
X000472Y007234D01*
X000472Y007225D02*
X001400Y007225D01*
X000780Y007710D02*
X000472Y007710D01*
X000472Y007718D02*
X000780Y007718D01*
X000781Y007727D02*
X000472Y007727D01*
X000472Y007735D02*
X000788Y007735D01*
X000795Y007744D02*
X000472Y007744D01*
X000472Y007752D02*
X000802Y007752D01*
X000809Y007761D02*
X000472Y007761D01*
X000472Y007769D02*
X000816Y007769D01*
M02*
