G75*
%MOIN*%
%OFA0B0*%
%FSLAX24Y24*%
%IPPOS*%
%LPD*%
%AMOC8*
5,1,8,0,0,1.08239X$1,22.5*
%
%ADD10C,0.1182*%
%ADD11C,0.0730*%
%ADD12R,0.0730X0.0730*%
%ADD13R,0.0950X0.0320*%
%ADD14R,0.0474X0.0513*%
%ADD15R,0.0513X0.0474*%
%ADD16C,0.0680*%
%ADD17R,0.0330X0.0580*%
%ADD18R,0.0433X0.0157*%
%ADD19R,0.0297X0.0552*%
%ADD20R,0.0434X0.0356*%
%ADD21C,0.0880*%
%ADD22R,0.0880X0.0880*%
D10*
X001538Y002030D03*
X001538Y021321D03*
X024373Y021321D03*
X024373Y002030D03*
D11*
X022455Y020821D03*
X021455Y020821D03*
X020455Y020821D03*
X019455Y020821D03*
X018455Y020821D03*
X017455Y020821D03*
X016455Y020821D03*
X015455Y020821D03*
X014455Y020821D03*
X013455Y020821D03*
X012455Y020821D03*
X011455Y020821D03*
X010455Y020821D03*
X009455Y020821D03*
X008455Y020821D03*
X007455Y020821D03*
X006455Y020821D03*
X005455Y020821D03*
X004455Y020821D03*
X004455Y021821D03*
X003455Y021821D03*
X005455Y021821D03*
X006455Y021821D03*
X007455Y021821D03*
X008455Y021821D03*
X009455Y021821D03*
X010455Y021821D03*
X011455Y021821D03*
X012455Y021821D03*
X013455Y021821D03*
X014455Y021821D03*
X015455Y021821D03*
X016455Y021821D03*
X017455Y021821D03*
X018455Y021821D03*
X019455Y021821D03*
X020455Y021821D03*
X021455Y021821D03*
X022455Y021821D03*
D12*
X003455Y020821D03*
D13*
X018685Y016421D03*
X018685Y015921D03*
X018685Y015421D03*
X018685Y014921D03*
X021335Y014921D03*
X021335Y015421D03*
X021335Y015921D03*
X021335Y016421D03*
D14*
X020710Y014256D03*
X020710Y013547D03*
X019560Y013547D03*
X019560Y014256D03*
X017760Y014347D03*
X017760Y015056D03*
D15*
X017816Y017012D03*
X018524Y017012D03*
D16*
X018910Y019152D03*
X017910Y019152D03*
X016910Y019152D03*
X015910Y019152D03*
X014910Y019152D03*
X013910Y019152D03*
X012910Y019152D03*
X011910Y019152D03*
X010910Y019152D03*
X009910Y019152D03*
X008910Y019152D03*
X007910Y019152D03*
X006910Y019152D03*
X005910Y019152D03*
X004910Y019152D03*
X003910Y019152D03*
X002910Y019152D03*
X001910Y019152D03*
X000910Y019152D03*
X019910Y019152D03*
X020910Y019152D03*
X021910Y019152D03*
X022910Y019152D03*
X023910Y019152D03*
X024910Y019152D03*
D17*
X021987Y013202D03*
X021633Y013202D03*
D18*
X010067Y007946D03*
X010067Y007749D03*
X010067Y007552D03*
X010067Y007355D03*
X010067Y007158D03*
X008453Y007158D03*
X008453Y007355D03*
X008453Y007552D03*
X008453Y007749D03*
X008453Y007946D03*
D19*
X011886Y006964D03*
X012260Y006964D03*
X012634Y006964D03*
X012634Y005940D03*
X012260Y005940D03*
X011886Y005940D03*
X015036Y005990D03*
X015410Y005990D03*
X015784Y005990D03*
X015784Y007014D03*
X015410Y007014D03*
X015036Y007014D03*
D20*
X014510Y006508D03*
X014510Y005996D03*
X013760Y006346D03*
X013760Y006858D03*
X011360Y006508D03*
X011360Y005996D03*
X010910Y008546D03*
X010910Y009058D03*
X010310Y009058D03*
X010310Y008546D03*
X007860Y006908D03*
X007860Y006396D03*
X016960Y006346D03*
X016960Y006858D03*
D21*
X016597Y001557D03*
X013841Y001557D03*
X012463Y001557D03*
X009707Y001557D03*
X008329Y001557D03*
X019353Y001557D03*
X020731Y001557D03*
D22*
X017975Y001557D03*
X015219Y001557D03*
X011085Y001557D03*
X006951Y001557D03*
M02*
