G75*
%MOIN*%
%OFA0B0*%
%FSLAX24Y24*%
%IPPOS*%
%LPD*%
%AMOC8*
5,1,8,0,0,1.08239X$1,22.5*
%
%ADD10C,0.0010*%
%ADD11C,0.0000*%
%ADD12C,0.0650*%
%ADD13R,0.0650X0.0650*%
%ADD14C,0.0640*%
%ADD15C,0.0800*%
%ADD16R,0.0800X0.0800*%
%ADD17C,0.0100*%
%ADD18C,0.0400*%
%ADD19C,0.0080*%
%ADD20C,0.0397*%
D10*
X001331Y000671D02*
X024559Y000671D01*
X024559Y000672D02*
X024634Y000687D01*
X024707Y000706D01*
X024780Y000728D01*
X024851Y000755D01*
X024921Y000785D01*
X024989Y000819D01*
X025055Y000856D01*
X025120Y000897D01*
X025182Y000941D01*
X025241Y000988D01*
X025298Y001039D01*
X025353Y001092D01*
X025404Y001148D01*
X025453Y001207D01*
X025498Y001268D01*
X025540Y001331D01*
X025579Y001397D01*
X025614Y001464D01*
X025646Y001533D01*
X025674Y001604D01*
X025698Y001676D01*
X025718Y001749D01*
X025735Y001823D01*
X025748Y001898D01*
X025756Y001974D01*
X025761Y002050D01*
X025762Y002126D01*
X025759Y002202D01*
X025751Y002278D01*
X025740Y002353D01*
X025741Y002353D02*
X025741Y021538D01*
X025740Y021538D02*
X025738Y021604D01*
X025733Y021670D01*
X025723Y021736D01*
X025710Y021801D01*
X025694Y021865D01*
X025674Y021928D01*
X025650Y021990D01*
X025623Y022050D01*
X025593Y022109D01*
X025559Y022166D01*
X025522Y022221D01*
X025482Y022274D01*
X025440Y022325D01*
X025394Y022373D01*
X025346Y022419D01*
X025295Y022461D01*
X025242Y022501D01*
X025187Y022538D01*
X025130Y022572D01*
X025071Y022602D01*
X025011Y022629D01*
X024949Y022653D01*
X024886Y022673D01*
X024822Y022689D01*
X024757Y022702D01*
X024691Y022712D01*
X024625Y022717D01*
X024559Y022719D01*
X001331Y022719D01*
X001265Y022717D01*
X001199Y022712D01*
X001133Y022702D01*
X001068Y022689D01*
X001004Y022673D01*
X000941Y022653D01*
X000879Y022629D01*
X000819Y022602D01*
X000760Y022572D01*
X000703Y022538D01*
X000648Y022501D01*
X000595Y022461D01*
X000544Y022419D01*
X000496Y022373D01*
X000450Y022325D01*
X000408Y022274D01*
X000368Y022221D01*
X000331Y022166D01*
X000297Y022109D01*
X000267Y022050D01*
X000240Y021990D01*
X000216Y021928D01*
X000196Y021865D01*
X000180Y021801D01*
X000167Y021736D01*
X000157Y021670D01*
X000152Y021604D01*
X000150Y021538D01*
X000150Y015435D01*
X000152Y015396D01*
X000158Y015358D01*
X000167Y015321D01*
X000180Y015284D01*
X000197Y015249D01*
X000216Y015216D01*
X000239Y015185D01*
X000265Y015156D01*
X000294Y015130D01*
X000325Y015107D01*
X000358Y015088D01*
X000393Y015071D01*
X000430Y015058D01*
X000467Y015049D01*
X000505Y015043D01*
X000544Y015041D01*
X000544Y015042D02*
X001725Y015042D01*
X001764Y015040D01*
X001802Y015034D01*
X001839Y015025D01*
X001876Y015012D01*
X001911Y014995D01*
X001944Y014976D01*
X001975Y014953D01*
X002004Y014927D01*
X002030Y014898D01*
X002053Y014867D01*
X002072Y014834D01*
X002089Y014799D01*
X002102Y014762D01*
X002111Y014725D01*
X002117Y014687D01*
X002119Y014648D01*
X002119Y008742D01*
X002117Y008703D01*
X002111Y008665D01*
X002102Y008628D01*
X002089Y008591D01*
X002072Y008556D01*
X002053Y008523D01*
X002030Y008492D01*
X002004Y008463D01*
X001975Y008437D01*
X001944Y008414D01*
X001911Y008395D01*
X001876Y008378D01*
X001839Y008365D01*
X001802Y008356D01*
X001764Y008350D01*
X001725Y008348D01*
X001725Y008349D02*
X000544Y008349D01*
X000505Y008347D01*
X000467Y008341D01*
X000430Y008332D01*
X000393Y008319D01*
X000358Y008302D01*
X000325Y008283D01*
X000294Y008260D01*
X000265Y008234D01*
X000239Y008205D01*
X000216Y008174D01*
X000197Y008141D01*
X000180Y008106D01*
X000167Y008069D01*
X000158Y008032D01*
X000152Y007994D01*
X000150Y007955D01*
X000150Y001853D01*
X000152Y001787D01*
X000157Y001721D01*
X000167Y001655D01*
X000180Y001590D01*
X000196Y001526D01*
X000216Y001463D01*
X000240Y001401D01*
X000267Y001341D01*
X000297Y001282D01*
X000331Y001225D01*
X000368Y001170D01*
X000408Y001117D01*
X000450Y001066D01*
X000496Y001018D01*
X000544Y000972D01*
X000595Y000930D01*
X000648Y000890D01*
X000703Y000853D01*
X000760Y000819D01*
X000819Y000789D01*
X000879Y000762D01*
X000941Y000738D01*
X001004Y000718D01*
X001068Y000702D01*
X001133Y000689D01*
X001199Y000679D01*
X001265Y000674D01*
X001331Y000672D01*
D11*
X000977Y002049D02*
X000979Y002096D01*
X000985Y002142D01*
X000995Y002188D01*
X001008Y002233D01*
X001026Y002276D01*
X001047Y002318D01*
X001071Y002358D01*
X001099Y002395D01*
X001130Y002430D01*
X001164Y002463D01*
X001200Y002492D01*
X001239Y002518D01*
X001280Y002541D01*
X001323Y002560D01*
X001367Y002576D01*
X001412Y002588D01*
X001458Y002596D01*
X001505Y002600D01*
X001551Y002600D01*
X001598Y002596D01*
X001644Y002588D01*
X001689Y002576D01*
X001733Y002560D01*
X001776Y002541D01*
X001817Y002518D01*
X001856Y002492D01*
X001892Y002463D01*
X001926Y002430D01*
X001957Y002395D01*
X001985Y002358D01*
X002009Y002318D01*
X002030Y002276D01*
X002048Y002233D01*
X002061Y002188D01*
X002071Y002142D01*
X002077Y002096D01*
X002079Y002049D01*
X002077Y002002D01*
X002071Y001956D01*
X002061Y001910D01*
X002048Y001865D01*
X002030Y001822D01*
X002009Y001780D01*
X001985Y001740D01*
X001957Y001703D01*
X001926Y001668D01*
X001892Y001635D01*
X001856Y001606D01*
X001817Y001580D01*
X001776Y001557D01*
X001733Y001538D01*
X001689Y001522D01*
X001644Y001510D01*
X001598Y001502D01*
X001551Y001498D01*
X001505Y001498D01*
X001458Y001502D01*
X001412Y001510D01*
X001367Y001522D01*
X001323Y001538D01*
X001280Y001557D01*
X001239Y001580D01*
X001200Y001606D01*
X001164Y001635D01*
X001130Y001668D01*
X001099Y001703D01*
X001071Y001740D01*
X001047Y001780D01*
X001026Y001822D01*
X001008Y001865D01*
X000995Y001910D01*
X000985Y001956D01*
X000979Y002002D01*
X000977Y002049D01*
X000977Y021341D02*
X000979Y021388D01*
X000985Y021434D01*
X000995Y021480D01*
X001008Y021525D01*
X001026Y021568D01*
X001047Y021610D01*
X001071Y021650D01*
X001099Y021687D01*
X001130Y021722D01*
X001164Y021755D01*
X001200Y021784D01*
X001239Y021810D01*
X001280Y021833D01*
X001323Y021852D01*
X001367Y021868D01*
X001412Y021880D01*
X001458Y021888D01*
X001505Y021892D01*
X001551Y021892D01*
X001598Y021888D01*
X001644Y021880D01*
X001689Y021868D01*
X001733Y021852D01*
X001776Y021833D01*
X001817Y021810D01*
X001856Y021784D01*
X001892Y021755D01*
X001926Y021722D01*
X001957Y021687D01*
X001985Y021650D01*
X002009Y021610D01*
X002030Y021568D01*
X002048Y021525D01*
X002061Y021480D01*
X002071Y021434D01*
X002077Y021388D01*
X002079Y021341D01*
X002077Y021294D01*
X002071Y021248D01*
X002061Y021202D01*
X002048Y021157D01*
X002030Y021114D01*
X002009Y021072D01*
X001985Y021032D01*
X001957Y020995D01*
X001926Y020960D01*
X001892Y020927D01*
X001856Y020898D01*
X001817Y020872D01*
X001776Y020849D01*
X001733Y020830D01*
X001689Y020814D01*
X001644Y020802D01*
X001598Y020794D01*
X001551Y020790D01*
X001505Y020790D01*
X001458Y020794D01*
X001412Y020802D01*
X001367Y020814D01*
X001323Y020830D01*
X001280Y020849D01*
X001239Y020872D01*
X001200Y020898D01*
X001164Y020927D01*
X001130Y020960D01*
X001099Y020995D01*
X001071Y021032D01*
X001047Y021072D01*
X001026Y021114D01*
X001008Y021157D01*
X000995Y021202D01*
X000985Y021248D01*
X000979Y021294D01*
X000977Y021341D01*
X023812Y021341D02*
X023814Y021388D01*
X023820Y021434D01*
X023830Y021480D01*
X023843Y021525D01*
X023861Y021568D01*
X023882Y021610D01*
X023906Y021650D01*
X023934Y021687D01*
X023965Y021722D01*
X023999Y021755D01*
X024035Y021784D01*
X024074Y021810D01*
X024115Y021833D01*
X024158Y021852D01*
X024202Y021868D01*
X024247Y021880D01*
X024293Y021888D01*
X024340Y021892D01*
X024386Y021892D01*
X024433Y021888D01*
X024479Y021880D01*
X024524Y021868D01*
X024568Y021852D01*
X024611Y021833D01*
X024652Y021810D01*
X024691Y021784D01*
X024727Y021755D01*
X024761Y021722D01*
X024792Y021687D01*
X024820Y021650D01*
X024844Y021610D01*
X024865Y021568D01*
X024883Y021525D01*
X024896Y021480D01*
X024906Y021434D01*
X024912Y021388D01*
X024914Y021341D01*
X024912Y021294D01*
X024906Y021248D01*
X024896Y021202D01*
X024883Y021157D01*
X024865Y021114D01*
X024844Y021072D01*
X024820Y021032D01*
X024792Y020995D01*
X024761Y020960D01*
X024727Y020927D01*
X024691Y020898D01*
X024652Y020872D01*
X024611Y020849D01*
X024568Y020830D01*
X024524Y020814D01*
X024479Y020802D01*
X024433Y020794D01*
X024386Y020790D01*
X024340Y020790D01*
X024293Y020794D01*
X024247Y020802D01*
X024202Y020814D01*
X024158Y020830D01*
X024115Y020849D01*
X024074Y020872D01*
X024035Y020898D01*
X023999Y020927D01*
X023965Y020960D01*
X023934Y020995D01*
X023906Y021032D01*
X023882Y021072D01*
X023861Y021114D01*
X023843Y021157D01*
X023830Y021202D01*
X023820Y021248D01*
X023814Y021294D01*
X023812Y021341D01*
X023812Y002049D02*
X023814Y002096D01*
X023820Y002142D01*
X023830Y002188D01*
X023843Y002233D01*
X023861Y002276D01*
X023882Y002318D01*
X023906Y002358D01*
X023934Y002395D01*
X023965Y002430D01*
X023999Y002463D01*
X024035Y002492D01*
X024074Y002518D01*
X024115Y002541D01*
X024158Y002560D01*
X024202Y002576D01*
X024247Y002588D01*
X024293Y002596D01*
X024340Y002600D01*
X024386Y002600D01*
X024433Y002596D01*
X024479Y002588D01*
X024524Y002576D01*
X024568Y002560D01*
X024611Y002541D01*
X024652Y002518D01*
X024691Y002492D01*
X024727Y002463D01*
X024761Y002430D01*
X024792Y002395D01*
X024820Y002358D01*
X024844Y002318D01*
X024865Y002276D01*
X024883Y002233D01*
X024896Y002188D01*
X024906Y002142D01*
X024912Y002096D01*
X024914Y002049D01*
X024912Y002002D01*
X024906Y001956D01*
X024896Y001910D01*
X024883Y001865D01*
X024865Y001822D01*
X024844Y001780D01*
X024820Y001740D01*
X024792Y001703D01*
X024761Y001668D01*
X024727Y001635D01*
X024691Y001606D01*
X024652Y001580D01*
X024611Y001557D01*
X024568Y001538D01*
X024524Y001522D01*
X024479Y001510D01*
X024433Y001502D01*
X024386Y001498D01*
X024340Y001498D01*
X024293Y001502D01*
X024247Y001510D01*
X024202Y001522D01*
X024158Y001538D01*
X024115Y001557D01*
X024074Y001580D01*
X024035Y001606D01*
X023999Y001635D01*
X023965Y001668D01*
X023934Y001703D01*
X023906Y001740D01*
X023882Y001780D01*
X023861Y001822D01*
X023843Y001865D01*
X023830Y001910D01*
X023820Y001956D01*
X023814Y002002D01*
X023812Y002049D01*
D12*
X022445Y020841D03*
X021445Y020841D03*
X020445Y020841D03*
X019445Y020841D03*
X018445Y020841D03*
X017445Y020841D03*
X016445Y020841D03*
X015445Y020841D03*
X014445Y020841D03*
X013445Y020841D03*
X012445Y020841D03*
X011445Y020841D03*
X010445Y020841D03*
X009445Y020841D03*
X008445Y020841D03*
X007445Y020841D03*
X006445Y020841D03*
X005445Y020841D03*
X004445Y020841D03*
X004445Y021841D03*
X005445Y021841D03*
X006445Y021841D03*
X007445Y021841D03*
X008445Y021841D03*
X009445Y021841D03*
X010445Y021841D03*
X011445Y021841D03*
X012445Y021841D03*
X013445Y021841D03*
X014445Y021841D03*
X015445Y021841D03*
X016445Y021841D03*
X017445Y021841D03*
X018445Y021841D03*
X019445Y021841D03*
X020445Y021841D03*
X021445Y021841D03*
X022445Y021841D03*
X003445Y021841D03*
D13*
X003445Y020841D03*
D14*
X003900Y019171D03*
X004900Y019171D03*
X005900Y019171D03*
X006900Y019171D03*
X007900Y019171D03*
X008900Y019171D03*
X009900Y019171D03*
X010900Y019171D03*
X011900Y019171D03*
X012900Y019171D03*
X013900Y019171D03*
X014900Y019171D03*
X015900Y019171D03*
X016900Y019171D03*
X017900Y019171D03*
X018900Y019171D03*
X019900Y019171D03*
X020900Y019171D03*
X021900Y019171D03*
X022900Y019171D03*
X023900Y019171D03*
X024900Y019171D03*
X002900Y019171D03*
X001900Y019171D03*
X000900Y019171D03*
D15*
X007811Y001557D03*
X009189Y001557D03*
X012142Y001557D03*
X013520Y001557D03*
X016473Y001557D03*
X019426Y001557D03*
D16*
X018048Y001557D03*
X015095Y001557D03*
X010764Y001557D03*
X006433Y001557D03*
D17*
X005903Y001558D02*
X002689Y001558D01*
X002722Y001615D02*
X002501Y001233D01*
X002163Y000949D01*
X001771Y000806D01*
X024119Y000806D01*
X023727Y000949D01*
X023389Y001233D01*
X023169Y001615D01*
X023092Y002049D01*
X023169Y002484D01*
X023389Y002866D01*
X023727Y003150D01*
X024142Y003301D01*
X024583Y003301D01*
X024998Y003150D01*
X025336Y002866D01*
X025556Y002484D01*
X025622Y002112D01*
X025626Y002158D01*
X025612Y002290D01*
X025606Y002297D01*
X025606Y002341D01*
X025598Y002384D01*
X025606Y002395D01*
X025606Y021185D01*
X025556Y020906D01*
X025336Y020524D01*
X024998Y020241D01*
X024583Y020090D01*
X024142Y020090D01*
X023727Y020241D01*
X023389Y020524D01*
X023169Y020906D01*
X023092Y021341D01*
X023169Y021775D01*
X023389Y022157D01*
X023727Y022441D01*
X024119Y022584D01*
X014642Y022584D01*
X014668Y022558D01*
X015010Y022301D01*
X015025Y022301D01*
X015068Y022258D01*
X015118Y022221D01*
X015120Y022206D01*
X015130Y022196D01*
X015130Y022169D01*
X015188Y022227D01*
X015355Y022296D01*
X015536Y022296D01*
X015703Y022227D01*
X015831Y022099D01*
X015900Y021931D01*
X015900Y021750D01*
X015831Y021583D01*
X015703Y021455D01*
X016188Y021455D01*
X016355Y021386D01*
X016536Y021386D01*
X016624Y021422D01*
X016780Y021266D01*
X016780Y021150D01*
X016703Y021227D01*
X016536Y021296D01*
X016355Y021296D01*
X016188Y021227D01*
X016060Y021099D01*
X015990Y020931D01*
X015990Y020750D01*
X016060Y020583D01*
X016188Y020455D01*
X016276Y020418D01*
X016277Y019431D01*
X016155Y019553D01*
X015990Y019621D01*
X015810Y019621D01*
X015645Y019553D01*
X015580Y019488D01*
X015580Y019510D01*
X015588Y019520D01*
X015580Y019583D01*
X015580Y019646D01*
X015571Y019655D01*
X015569Y019668D01*
X015519Y019707D01*
X015475Y019751D01*
X015462Y019751D01*
X015130Y020010D01*
X015130Y020484D01*
X015136Y020478D01*
X015196Y020435D01*
X015263Y020401D01*
X015334Y020377D01*
X015395Y020368D01*
X015395Y020791D01*
X015495Y020791D01*
X015495Y020368D01*
X015557Y020377D01*
X015628Y020401D01*
X015694Y020435D01*
X015755Y020478D01*
X015808Y020531D01*
X015852Y020592D01*
X015885Y020658D01*
X015909Y020730D01*
X015918Y020791D01*
X015495Y020791D01*
X015495Y020891D01*
X015395Y020891D01*
X015395Y021314D01*
X015334Y021304D01*
X015263Y021281D01*
X015196Y021247D01*
X015136Y021203D01*
X015130Y021197D01*
X015130Y021513D01*
X015188Y021455D01*
X015130Y021455D01*
X015188Y021455D02*
X015355Y021386D01*
X015536Y021386D01*
X015703Y021455D01*
X015802Y021554D02*
X016089Y021554D01*
X016060Y021583D02*
X015990Y021750D01*
X015990Y021931D01*
X016060Y022099D01*
X016188Y022227D01*
X016355Y022296D01*
X016536Y022296D01*
X016703Y022227D01*
X016831Y022099D01*
X016900Y021931D01*
X016900Y021750D01*
X016864Y021663D01*
X017120Y021406D01*
X017120Y021159D01*
X017188Y021227D01*
X017355Y021296D01*
X017536Y021296D01*
X017703Y021227D01*
X017831Y021099D01*
X017900Y020931D01*
X017900Y020750D01*
X017831Y020583D01*
X017703Y020455D01*
X017536Y020386D01*
X017355Y020386D01*
X017188Y020455D01*
X017120Y020523D01*
X017120Y019948D01*
X017465Y019641D01*
X017470Y019641D01*
X017517Y019595D01*
X017566Y019552D01*
X017566Y019546D01*
X017570Y019542D01*
X017570Y019478D01*
X017645Y019553D01*
X017810Y019621D01*
X017990Y019621D01*
X018155Y019553D01*
X018281Y019426D01*
X018350Y019261D01*
X018350Y019082D01*
X018281Y018917D01*
X018155Y018790D01*
X017990Y018721D01*
X017810Y018721D01*
X017645Y018790D01*
X017570Y018865D01*
X017570Y018745D01*
X020017Y016441D01*
X020020Y016441D01*
X020068Y016394D01*
X020118Y016347D01*
X020118Y016344D01*
X020120Y016342D01*
X020120Y016274D01*
X020122Y016206D01*
X020120Y016204D01*
X020120Y015601D01*
X019920Y015401D01*
X019845Y015327D01*
X019828Y015285D01*
X019736Y015193D01*
X019615Y015143D01*
X019485Y015143D01*
X019364Y015193D01*
X019272Y015285D01*
X019222Y015406D01*
X019222Y015537D01*
X019272Y015658D01*
X019364Y015750D01*
X019485Y015800D01*
X019615Y015800D01*
X019736Y015750D01*
X019762Y015724D01*
X019780Y015742D01*
X019744Y015742D01*
X019780Y015742D02*
X019780Y016198D01*
X017333Y018501D01*
X017330Y018501D01*
X017282Y018549D01*
X017232Y018596D01*
X017232Y018599D01*
X017230Y018601D01*
X017230Y018669D01*
X017228Y018737D01*
X017230Y018739D01*
X017230Y018865D01*
X017155Y018790D01*
X016990Y018721D01*
X016810Y018721D01*
X016645Y018790D01*
X016618Y018817D01*
X016620Y017342D01*
X017669Y016293D01*
X017685Y016300D01*
X017815Y016300D01*
X017936Y016250D01*
X018028Y016158D01*
X018078Y016037D01*
X018078Y015906D01*
X018028Y015785D01*
X017936Y015693D01*
X017815Y015643D01*
X017685Y015643D01*
X017564Y015693D01*
X017472Y015785D01*
X017422Y015906D01*
X017422Y016037D01*
X017428Y016053D01*
X016330Y017151D01*
X016280Y017201D01*
X016280Y017201D01*
X016280Y017271D01*
X016278Y018913D01*
X016155Y018790D01*
X015990Y018721D01*
X015810Y018721D01*
X015645Y018790D01*
X015580Y018855D01*
X015580Y013396D01*
X019500Y009476D01*
X019606Y009370D01*
X019606Y002056D01*
X019726Y002007D01*
X019875Y001858D01*
X019956Y001663D01*
X019956Y001452D01*
X019875Y001257D01*
X019726Y001108D01*
X019531Y001027D01*
X019320Y001027D01*
X019125Y001108D01*
X018976Y001257D01*
X018896Y001452D01*
X018896Y001663D01*
X018976Y001858D01*
X019125Y002007D01*
X019246Y002056D01*
X019246Y009221D01*
X015220Y013247D01*
X015220Y018855D01*
X015155Y018790D01*
X014990Y018721D01*
X014810Y018721D01*
X014645Y018790D01*
X014519Y018917D01*
X014450Y019082D01*
X014450Y019261D01*
X014519Y019426D01*
X014645Y019553D01*
X014810Y019621D01*
X014990Y019621D01*
X015103Y019575D01*
X014888Y019741D01*
X014875Y019741D01*
X014831Y019786D01*
X014781Y019825D01*
X014779Y019838D01*
X014770Y019847D01*
X014770Y019910D01*
X014762Y019973D01*
X014770Y019983D01*
X014770Y020522D01*
X014703Y020455D01*
X014536Y020386D01*
X014355Y020386D01*
X014188Y020455D01*
X014060Y020583D01*
X013990Y020750D01*
X013990Y020931D01*
X014060Y021099D01*
X014188Y021227D01*
X014355Y021296D01*
X014536Y021296D01*
X014703Y021227D01*
X014770Y021160D01*
X014770Y021160D01*
X014770Y021522D01*
X014703Y021455D01*
X014770Y021455D01*
X014703Y021455D02*
X014536Y021386D01*
X014355Y021386D01*
X014188Y021455D01*
X013703Y021455D01*
X013831Y021583D01*
X013900Y021750D01*
X013900Y021931D01*
X013831Y022099D01*
X013703Y022227D01*
X013667Y022241D01*
X014224Y022241D01*
X014188Y022227D01*
X014060Y022099D01*
X013990Y021931D01*
X013990Y021750D01*
X014060Y021583D01*
X014188Y021455D01*
X014089Y021554D02*
X013802Y021554D01*
X013860Y021652D02*
X014031Y021652D01*
X013990Y021751D02*
X013900Y021751D01*
X013900Y021849D02*
X013990Y021849D01*
X013997Y021948D02*
X013894Y021948D01*
X013853Y022046D02*
X014038Y022046D01*
X014106Y022145D02*
X013785Y022145D01*
X013224Y022241D02*
X013188Y022227D01*
X013060Y022099D01*
X012990Y021931D01*
X012990Y021750D01*
X013060Y021583D01*
X013086Y021556D01*
X013078Y021541D01*
X012815Y021541D01*
X012852Y021592D01*
X012885Y021658D01*
X012909Y021730D01*
X012918Y021791D01*
X012495Y021791D01*
X012495Y021891D01*
X012918Y021891D01*
X012909Y021952D01*
X012885Y022023D01*
X012852Y022090D01*
X012808Y022150D01*
X012755Y022203D01*
X012702Y022241D01*
X013224Y022241D01*
X013106Y022145D02*
X012812Y022145D01*
X012874Y022046D02*
X013038Y022046D01*
X012997Y021948D02*
X012909Y021948D01*
X012990Y021849D02*
X012495Y021849D01*
X012395Y021849D02*
X011900Y021849D01*
X011900Y021931D02*
X011831Y022099D01*
X011703Y022227D01*
X011667Y022241D01*
X012189Y022241D01*
X012136Y022203D01*
X012083Y022150D01*
X012039Y022090D01*
X012005Y022023D01*
X011982Y021952D01*
X011972Y021891D01*
X012395Y021891D01*
X012395Y021791D01*
X011972Y021791D01*
X011982Y021730D01*
X012005Y021658D01*
X012039Y021592D01*
X012083Y021531D01*
X012136Y021478D01*
X012196Y021435D01*
X012212Y021427D01*
X011903Y021241D01*
X011880Y021241D01*
X011845Y021206D01*
X011802Y021181D01*
X011796Y021158D01*
X011784Y021146D01*
X011703Y021227D01*
X011536Y021296D01*
X011355Y021296D01*
X011188Y021227D01*
X011060Y021099D01*
X010990Y020931D01*
X010990Y020750D01*
X011059Y020584D01*
X010926Y020391D01*
X010550Y020391D01*
X010703Y020455D01*
X010831Y020583D01*
X010900Y020750D01*
X010900Y020931D01*
X010831Y021099D01*
X010758Y021171D01*
X010782Y021199D01*
X010830Y021247D01*
X010830Y021255D01*
X011082Y021549D01*
X011088Y021555D01*
X011188Y021455D01*
X011002Y021455D01*
X011087Y021554D02*
X011089Y021554D01*
X011188Y021455D02*
X011355Y021386D01*
X011536Y021386D01*
X011703Y021455D01*
X012168Y021455D01*
X012095Y021357D02*
X010917Y021357D01*
X010833Y021258D02*
X011264Y021258D01*
X011121Y021160D02*
X010770Y021160D01*
X010847Y021061D02*
X011044Y021061D01*
X011003Y020963D02*
X010887Y020963D01*
X010900Y020864D02*
X010990Y020864D01*
X010990Y020766D02*
X010900Y020766D01*
X010866Y020667D02*
X011025Y020667D01*
X011049Y020569D02*
X010817Y020569D01*
X010718Y020470D02*
X010980Y020470D01*
X010961Y020051D02*
X010975Y020042D01*
X011030Y020051D01*
X011085Y020051D01*
X011097Y020064D01*
X011103Y020065D01*
X010730Y019692D01*
X010730Y019588D01*
X010645Y019553D01*
X010519Y019426D01*
X010450Y019261D01*
X010450Y019082D01*
X010519Y018917D01*
X010645Y018790D01*
X010810Y018721D01*
X010990Y018721D01*
X011155Y018790D01*
X011281Y018917D01*
X011350Y019082D01*
X011350Y019261D01*
X011281Y019426D01*
X011155Y019553D01*
X011096Y019577D01*
X012020Y020501D01*
X012081Y020562D01*
X012188Y020455D01*
X012355Y020386D01*
X012536Y020386D01*
X012703Y020455D01*
X012831Y020583D01*
X012900Y020750D01*
X012900Y020931D01*
X012831Y021099D01*
X012728Y021201D01*
X013131Y021201D01*
X013151Y021190D01*
X013060Y021099D01*
X012990Y020931D01*
X012990Y020750D01*
X013060Y020583D01*
X013188Y020455D01*
X013355Y020386D01*
X013536Y020386D01*
X013703Y020455D01*
X013831Y020583D01*
X013900Y020750D01*
X013900Y020931D01*
X013831Y021099D01*
X013703Y021227D01*
X013536Y021296D01*
X013355Y021296D01*
X013331Y021286D01*
X013346Y021301D01*
X013346Y021326D01*
X013380Y021386D01*
X013536Y021386D01*
X013703Y021455D01*
X013627Y021258D02*
X014264Y021258D01*
X014121Y021160D02*
X013770Y021160D01*
X013847Y021061D02*
X014044Y021061D01*
X014003Y020963D02*
X013887Y020963D01*
X013900Y020864D02*
X013990Y020864D01*
X013990Y020766D02*
X013900Y020766D01*
X013866Y020667D02*
X014025Y020667D01*
X014074Y020569D02*
X013817Y020569D01*
X013718Y020470D02*
X014173Y020470D01*
X014718Y020470D02*
X014770Y020470D01*
X014770Y020372D02*
X011890Y020372D01*
X011792Y020273D02*
X014770Y020273D01*
X014770Y020175D02*
X011693Y020175D01*
X011595Y020076D02*
X014770Y020076D01*
X014766Y019978D02*
X011496Y019978D01*
X011398Y019879D02*
X014770Y019879D01*
X014836Y019781D02*
X011299Y019781D01*
X011201Y019682D02*
X014965Y019682D01*
X015081Y019584D02*
X015091Y019584D01*
X015400Y019571D02*
X015400Y013321D01*
X019426Y009296D01*
X019426Y001557D01*
X019069Y001164D02*
X018598Y001164D01*
X018598Y001138D02*
X018598Y001507D01*
X018098Y001507D01*
X018098Y001607D01*
X018598Y001607D01*
X018598Y001977D01*
X018587Y002015D01*
X018568Y002049D01*
X018540Y002077D01*
X018506Y002097D01*
X018467Y002107D01*
X018098Y002107D01*
X018098Y001607D01*
X017998Y001607D01*
X017998Y001507D01*
X018098Y001507D01*
X018098Y001007D01*
X018467Y001007D01*
X018506Y001018D01*
X018540Y001037D01*
X018568Y001065D01*
X018587Y001099D01*
X018598Y001138D01*
X018568Y001065D02*
X019228Y001065D01*
X018974Y001262D02*
X018598Y001262D01*
X018598Y001361D02*
X018933Y001361D01*
X018896Y001459D02*
X018598Y001459D01*
X018598Y001656D02*
X018896Y001656D01*
X018896Y001558D02*
X018098Y001558D01*
X018098Y001656D02*
X017998Y001656D01*
X017998Y001607D02*
X017998Y002107D01*
X017628Y002107D01*
X017590Y002097D01*
X017556Y002077D01*
X017528Y002049D01*
X017508Y002015D01*
X017498Y001977D01*
X017498Y001607D01*
X017998Y001607D01*
X017998Y001558D02*
X017003Y001558D01*
X017003Y001656D02*
X017498Y001656D01*
X017498Y001755D02*
X016965Y001755D01*
X017003Y001663D02*
X016922Y001858D01*
X016773Y002007D01*
X016578Y002087D01*
X016367Y002087D01*
X016173Y002007D01*
X016024Y001858D01*
X015943Y001663D01*
X015943Y001452D01*
X016024Y001257D01*
X016173Y001108D01*
X016367Y001027D01*
X016578Y001027D01*
X016773Y001108D01*
X016922Y001257D01*
X017003Y001452D01*
X017003Y001663D01*
X017003Y001459D02*
X017498Y001459D01*
X017498Y001507D02*
X017498Y001138D01*
X017508Y001099D01*
X017528Y001065D01*
X017556Y001037D01*
X017590Y001018D01*
X017628Y001007D01*
X017998Y001007D01*
X017998Y001507D01*
X017498Y001507D01*
X017498Y001361D02*
X016965Y001361D01*
X016924Y001262D02*
X017498Y001262D01*
X017498Y001164D02*
X016829Y001164D01*
X016670Y001065D02*
X017527Y001065D01*
X017998Y001065D02*
X018098Y001065D01*
X018098Y001164D02*
X017998Y001164D01*
X017998Y001262D02*
X018098Y001262D01*
X018098Y001361D02*
X017998Y001361D01*
X017998Y001459D02*
X018098Y001459D01*
X018098Y001755D02*
X017998Y001755D01*
X017998Y001853D02*
X018098Y001853D01*
X018098Y001952D02*
X017998Y001952D01*
X017998Y002050D02*
X018098Y002050D01*
X018567Y002050D02*
X019231Y002050D01*
X019246Y002149D02*
X002781Y002149D01*
X002798Y002050D02*
X005943Y002050D01*
X005980Y002087D02*
X005903Y002011D01*
X005903Y001103D01*
X005980Y001027D01*
X006887Y001027D01*
X006963Y001103D01*
X006963Y002011D01*
X006887Y002087D01*
X005980Y002087D01*
X005903Y001952D02*
X002781Y001952D01*
X002798Y002049D02*
X002722Y002484D01*
X002501Y002866D01*
X002163Y003150D01*
X001749Y003301D01*
X001307Y003301D01*
X000893Y003150D01*
X000555Y002866D01*
X000334Y002484D01*
X000285Y002206D01*
X000285Y007955D01*
X000290Y008005D01*
X000329Y008099D01*
X000400Y008170D01*
X000493Y008209D01*
X000544Y008214D01*
X001830Y008214D01*
X002024Y008294D01*
X002024Y008294D01*
X002173Y008443D01*
X002254Y008637D01*
X002254Y014753D01*
X002173Y014947D01*
X002173Y014947D01*
X002024Y015096D01*
X001830Y015177D01*
X000544Y015177D01*
X000493Y015182D01*
X000400Y015220D01*
X000329Y015292D01*
X000290Y015385D01*
X000285Y015435D01*
X000285Y021185D01*
X000334Y020906D01*
X000555Y020524D01*
X000893Y020241D01*
X001307Y020090D01*
X001749Y020090D01*
X002163Y020241D01*
X002501Y020524D01*
X002722Y020906D01*
X002730Y020953D01*
X002730Y019588D01*
X002645Y019553D01*
X002519Y019426D01*
X002450Y019261D01*
X002450Y019082D01*
X002519Y018917D01*
X002645Y018790D01*
X002810Y018721D01*
X002990Y018721D01*
X003155Y018790D01*
X003281Y018917D01*
X003350Y019082D01*
X003350Y019261D01*
X003281Y019426D01*
X003155Y019553D01*
X003070Y019588D01*
X003070Y020386D01*
X003533Y020386D01*
X003680Y020169D01*
X003680Y020151D01*
X003718Y020113D01*
X003749Y020068D01*
X003767Y020064D01*
X003780Y020051D01*
X003834Y020051D01*
X003887Y020041D01*
X003902Y020051D01*
X010961Y020051D01*
X011016Y019978D02*
X003070Y019978D01*
X003070Y020076D02*
X003743Y020076D01*
X003676Y020175D02*
X003070Y020175D01*
X003070Y020273D02*
X003609Y020273D01*
X003542Y020372D02*
X003070Y020372D01*
X002730Y020372D02*
X002319Y020372D01*
X002437Y020470D02*
X002730Y020470D01*
X002730Y020569D02*
X002527Y020569D01*
X002584Y020667D02*
X002730Y020667D01*
X002730Y020766D02*
X002641Y020766D01*
X002697Y020864D02*
X002730Y020864D01*
X002730Y020273D02*
X002202Y020273D01*
X001982Y020175D02*
X002730Y020175D01*
X002730Y020076D02*
X000285Y020076D01*
X000285Y019978D02*
X002730Y019978D01*
X002730Y019879D02*
X000285Y019879D01*
X000285Y019781D02*
X002730Y019781D01*
X002730Y019682D02*
X000285Y019682D01*
X000285Y019584D02*
X000719Y019584D01*
X000645Y019553D02*
X000519Y019426D01*
X000450Y019261D01*
X000450Y019082D01*
X000519Y018917D01*
X000645Y018790D01*
X000810Y018721D01*
X000990Y018721D01*
X001155Y018790D01*
X001281Y018917D01*
X001350Y019082D01*
X001350Y019261D01*
X001281Y019426D01*
X001155Y019553D01*
X000990Y019621D01*
X000810Y019621D01*
X000645Y019553D01*
X000577Y019485D02*
X000285Y019485D01*
X000285Y019387D02*
X000502Y019387D01*
X000461Y019288D02*
X000285Y019288D01*
X000285Y019190D02*
X000450Y019190D01*
X000450Y019091D02*
X000285Y019091D01*
X000285Y018993D02*
X000487Y018993D01*
X000541Y018894D02*
X000285Y018894D01*
X000285Y018796D02*
X000640Y018796D01*
X000285Y018697D02*
X015220Y018697D01*
X015220Y018599D02*
X000285Y018599D01*
X000285Y018500D02*
X015220Y018500D01*
X015220Y018402D02*
X000285Y018402D01*
X000285Y018303D02*
X015220Y018303D01*
X015220Y018205D02*
X000285Y018205D01*
X000285Y018106D02*
X015220Y018106D01*
X015220Y018008D02*
X000285Y018008D01*
X000285Y017909D02*
X015220Y017909D01*
X015220Y017811D02*
X000285Y017811D01*
X000285Y017712D02*
X015220Y017712D01*
X015220Y017614D02*
X000285Y017614D01*
X000285Y017515D02*
X015220Y017515D01*
X015220Y017417D02*
X000285Y017417D01*
X000285Y017318D02*
X015220Y017318D01*
X015220Y017220D02*
X000285Y017220D01*
X000285Y017121D02*
X015220Y017121D01*
X015220Y017023D02*
X000285Y017023D01*
X000285Y016924D02*
X015220Y016924D01*
X015220Y016826D02*
X000285Y016826D01*
X000285Y016727D02*
X015220Y016727D01*
X015220Y016629D02*
X000285Y016629D01*
X000285Y016530D02*
X015220Y016530D01*
X015220Y016432D02*
X000285Y016432D01*
X000285Y016333D02*
X015220Y016333D01*
X015220Y016235D02*
X000285Y016235D01*
X000285Y016136D02*
X015220Y016136D01*
X015220Y016038D02*
X000285Y016038D01*
X000285Y015939D02*
X015220Y015939D01*
X015220Y015841D02*
X000285Y015841D01*
X000285Y015742D02*
X015220Y015742D01*
X015220Y015644D02*
X000285Y015644D01*
X000285Y015545D02*
X015220Y015545D01*
X015220Y015447D02*
X000285Y015447D01*
X000305Y015348D02*
X015220Y015348D01*
X015220Y015250D02*
X000371Y015250D01*
X001892Y015151D02*
X015220Y015151D01*
X015220Y015053D02*
X002068Y015053D01*
X002024Y015096D02*
X002024Y015096D01*
X002166Y014954D02*
X015220Y014954D01*
X015220Y014856D02*
X002211Y014856D01*
X002252Y014757D02*
X015220Y014757D01*
X015220Y014659D02*
X002254Y014659D01*
X002254Y014560D02*
X015220Y014560D01*
X015220Y014462D02*
X002254Y014462D01*
X002254Y014363D02*
X015220Y014363D01*
X015220Y014265D02*
X002254Y014265D01*
X002254Y014166D02*
X015220Y014166D01*
X015220Y014068D02*
X002254Y014068D01*
X002254Y013969D02*
X015220Y013969D01*
X015220Y013871D02*
X002254Y013871D01*
X002254Y013772D02*
X015220Y013772D01*
X015220Y013674D02*
X002254Y013674D01*
X002254Y013575D02*
X015220Y013575D01*
X015220Y013477D02*
X002254Y013477D01*
X002254Y013378D02*
X015220Y013378D01*
X015220Y013280D02*
X002254Y013280D01*
X002254Y013181D02*
X015286Y013181D01*
X015384Y013083D02*
X002254Y013083D01*
X002254Y012984D02*
X015483Y012984D01*
X015581Y012886D02*
X002254Y012886D01*
X002254Y012787D02*
X015680Y012787D01*
X015778Y012689D02*
X011447Y012689D01*
X011436Y012700D02*
X011315Y012750D01*
X011185Y012750D01*
X011064Y012700D01*
X010972Y012608D01*
X010940Y012530D01*
X010928Y012558D01*
X010836Y012650D01*
X010715Y012700D01*
X010585Y012700D01*
X010464Y012650D01*
X010372Y012558D01*
X010322Y012437D01*
X010322Y012306D01*
X010372Y012185D01*
X010464Y012093D01*
X010480Y012086D01*
X010480Y007207D01*
X010464Y007200D01*
X010372Y007108D01*
X010322Y006987D01*
X010322Y006856D01*
X010372Y006735D01*
X010464Y006643D01*
X010585Y006593D01*
X010715Y006593D01*
X010836Y006643D01*
X010928Y006735D01*
X010960Y006813D01*
X010972Y006785D01*
X011064Y006693D01*
X011185Y006643D01*
X011315Y006643D01*
X011436Y006693D01*
X011528Y006785D01*
X011578Y006906D01*
X011578Y007037D01*
X011528Y007158D01*
X011436Y007250D01*
X011420Y007257D01*
X011420Y012136D01*
X011436Y012143D01*
X011528Y012235D01*
X011578Y012356D01*
X011578Y012487D01*
X011528Y012608D01*
X011436Y012700D01*
X011536Y012590D02*
X015877Y012590D01*
X015975Y012492D02*
X011576Y012492D01*
X011578Y012393D02*
X016074Y012393D01*
X016172Y012295D02*
X011553Y012295D01*
X011489Y012196D02*
X016271Y012196D01*
X016369Y012098D02*
X011420Y012098D01*
X011420Y011999D02*
X016468Y011999D01*
X016566Y011901D02*
X011420Y011901D01*
X011420Y011802D02*
X016665Y011802D01*
X016763Y011704D02*
X011420Y011704D01*
X011420Y011605D02*
X016862Y011605D01*
X016960Y011507D02*
X011420Y011507D01*
X011420Y011408D02*
X017059Y011408D01*
X017157Y011310D02*
X011420Y011310D01*
X011420Y011211D02*
X017256Y011211D01*
X017354Y011113D02*
X011420Y011113D01*
X011420Y011014D02*
X017453Y011014D01*
X017551Y010916D02*
X011420Y010916D01*
X011420Y010817D02*
X017650Y010817D01*
X017748Y010719D02*
X011420Y010719D01*
X011420Y010620D02*
X017847Y010620D01*
X017945Y010522D02*
X011420Y010522D01*
X011420Y010423D02*
X018044Y010423D01*
X018142Y010325D02*
X011420Y010325D01*
X011420Y010226D02*
X018241Y010226D01*
X018339Y010128D02*
X011420Y010128D01*
X011420Y010029D02*
X018438Y010029D01*
X018536Y009931D02*
X011420Y009931D01*
X011420Y009832D02*
X018635Y009832D01*
X018733Y009734D02*
X011420Y009734D01*
X011420Y009635D02*
X018832Y009635D01*
X018930Y009537D02*
X011420Y009537D01*
X011420Y009438D02*
X019029Y009438D01*
X019127Y009340D02*
X011420Y009340D01*
X011420Y009241D02*
X019226Y009241D01*
X019246Y009143D02*
X011420Y009143D01*
X011420Y009044D02*
X015708Y009044D01*
X015714Y009050D02*
X015622Y008958D01*
X015572Y008837D01*
X015572Y008706D01*
X015622Y008585D01*
X015714Y008493D01*
X015730Y008486D01*
X015730Y005892D01*
X000285Y005892D01*
X000285Y005794D02*
X015632Y005794D01*
X015581Y005743D02*
X015565Y005750D01*
X015435Y005750D01*
X015314Y005700D01*
X015222Y005608D01*
X015172Y005487D01*
X015172Y005356D01*
X015222Y005235D01*
X015314Y005143D01*
X015435Y005093D01*
X015565Y005093D01*
X015686Y005143D01*
X015778Y005235D01*
X015828Y005356D01*
X015828Y005487D01*
X015822Y005503D01*
X015970Y005651D01*
X016070Y005751D01*
X016070Y008486D01*
X016086Y008493D01*
X016178Y008585D01*
X016228Y008706D01*
X016228Y008837D01*
X016178Y008958D01*
X016086Y009050D01*
X015965Y009100D01*
X015835Y009100D01*
X015714Y009050D01*
X015617Y008946D02*
X011420Y008946D01*
X011420Y008847D02*
X015576Y008847D01*
X015572Y008749D02*
X011420Y008749D01*
X011420Y008650D02*
X015595Y008650D01*
X015656Y008552D02*
X011420Y008552D01*
X011420Y008453D02*
X015730Y008453D01*
X015730Y008355D02*
X011420Y008355D01*
X011420Y008256D02*
X015730Y008256D01*
X015730Y008158D02*
X011420Y008158D01*
X011420Y008059D02*
X015730Y008059D01*
X015730Y007961D02*
X011420Y007961D01*
X011420Y007862D02*
X015730Y007862D01*
X015730Y007764D02*
X011420Y007764D01*
X011420Y007665D02*
X015730Y007665D01*
X015730Y007567D02*
X011420Y007567D01*
X011420Y007468D02*
X015730Y007468D01*
X015730Y007370D02*
X011420Y007370D01*
X011420Y007271D02*
X015730Y007271D01*
X015730Y007173D02*
X011513Y007173D01*
X011563Y007074D02*
X015730Y007074D01*
X015730Y006976D02*
X011578Y006976D01*
X011566Y006877D02*
X015730Y006877D01*
X015730Y006779D02*
X011521Y006779D01*
X011405Y006680D02*
X015730Y006680D01*
X015730Y006582D02*
X000285Y006582D01*
X000285Y006680D02*
X010427Y006680D01*
X010354Y006779D02*
X000285Y006779D01*
X000285Y006877D02*
X010322Y006877D01*
X010322Y006976D02*
X000285Y006976D01*
X000285Y007074D02*
X010358Y007074D01*
X010437Y007173D02*
X000285Y007173D01*
X000285Y007271D02*
X010480Y007271D01*
X010480Y007370D02*
X000285Y007370D01*
X000285Y007468D02*
X010480Y007468D01*
X010480Y007567D02*
X000285Y007567D01*
X000285Y007665D02*
X010480Y007665D01*
X010480Y007764D02*
X000285Y007764D01*
X000285Y007862D02*
X010480Y007862D01*
X010480Y007961D02*
X000286Y007961D01*
X000312Y008059D02*
X010480Y008059D01*
X010480Y008158D02*
X000387Y008158D01*
X001932Y008256D02*
X010480Y008256D01*
X010480Y008355D02*
X002085Y008355D01*
X002173Y008443D02*
X002173Y008443D01*
X002177Y008453D02*
X010480Y008453D01*
X010480Y008552D02*
X002218Y008552D01*
X002254Y008650D02*
X010480Y008650D01*
X010480Y008749D02*
X002254Y008749D01*
X002254Y008847D02*
X010480Y008847D01*
X010480Y008946D02*
X002254Y008946D01*
X002254Y009044D02*
X010480Y009044D01*
X010480Y009143D02*
X002254Y009143D01*
X002254Y009241D02*
X010480Y009241D01*
X010480Y009340D02*
X002254Y009340D01*
X002254Y009438D02*
X010480Y009438D01*
X010480Y009537D02*
X002254Y009537D01*
X002254Y009635D02*
X010480Y009635D01*
X010480Y009734D02*
X002254Y009734D01*
X002254Y009832D02*
X010480Y009832D01*
X010480Y009931D02*
X002254Y009931D01*
X002254Y010029D02*
X010480Y010029D01*
X010480Y010128D02*
X002254Y010128D01*
X002254Y010226D02*
X010480Y010226D01*
X010480Y010325D02*
X002254Y010325D01*
X002254Y010423D02*
X010480Y010423D01*
X010480Y010522D02*
X002254Y010522D01*
X002254Y010620D02*
X010480Y010620D01*
X010480Y010719D02*
X002254Y010719D01*
X002254Y010817D02*
X010480Y010817D01*
X010480Y010916D02*
X002254Y010916D01*
X002254Y011014D02*
X010480Y011014D01*
X010480Y011113D02*
X002254Y011113D01*
X002254Y011211D02*
X010480Y011211D01*
X010480Y011310D02*
X002254Y011310D01*
X002254Y011408D02*
X010480Y011408D01*
X010480Y011507D02*
X002254Y011507D01*
X002254Y011605D02*
X010480Y011605D01*
X010480Y011704D02*
X002254Y011704D01*
X002254Y011802D02*
X010480Y011802D01*
X010480Y011901D02*
X002254Y011901D01*
X002254Y011999D02*
X010480Y011999D01*
X010460Y012098D02*
X002254Y012098D01*
X002254Y012196D02*
X010367Y012196D01*
X010326Y012295D02*
X002254Y012295D01*
X002254Y012393D02*
X010322Y012393D01*
X010344Y012492D02*
X002254Y012492D01*
X002254Y012590D02*
X010404Y012590D01*
X010557Y012689D02*
X002254Y012689D01*
X001990Y018721D02*
X001810Y018721D01*
X001645Y018790D01*
X001519Y018917D01*
X001450Y019082D01*
X001450Y019261D01*
X001519Y019426D01*
X001645Y019553D01*
X001810Y019621D01*
X001990Y019621D01*
X002155Y019553D01*
X002281Y019426D01*
X002350Y019261D01*
X002350Y019082D01*
X002281Y018917D01*
X002155Y018790D01*
X001990Y018721D01*
X002160Y018796D02*
X002640Y018796D01*
X002541Y018894D02*
X002259Y018894D01*
X002313Y018993D02*
X002487Y018993D01*
X002450Y019091D02*
X002350Y019091D01*
X002350Y019190D02*
X002450Y019190D01*
X002461Y019288D02*
X002339Y019288D01*
X002298Y019387D02*
X002502Y019387D01*
X002577Y019485D02*
X002223Y019485D01*
X002081Y019584D02*
X002719Y019584D01*
X003081Y019584D02*
X003719Y019584D01*
X003645Y019553D02*
X003519Y019426D01*
X003450Y019261D01*
X003450Y019082D01*
X003519Y018917D01*
X003645Y018790D01*
X003810Y018721D01*
X003990Y018721D01*
X004155Y018790D01*
X004281Y018917D01*
X004350Y019082D01*
X004350Y019261D01*
X004281Y019426D01*
X004155Y019553D01*
X003990Y019621D01*
X003810Y019621D01*
X003645Y019553D01*
X003577Y019485D02*
X003223Y019485D01*
X003298Y019387D02*
X003502Y019387D01*
X003461Y019288D02*
X003339Y019288D01*
X003350Y019190D02*
X003450Y019190D01*
X003450Y019091D02*
X003350Y019091D01*
X003313Y018993D02*
X003487Y018993D01*
X003541Y018894D02*
X003259Y018894D01*
X003160Y018796D02*
X003640Y018796D01*
X004160Y018796D02*
X004640Y018796D01*
X004645Y018790D02*
X004810Y018721D01*
X004990Y018721D01*
X005155Y018790D01*
X005281Y018917D01*
X005350Y019082D01*
X005350Y019261D01*
X005281Y019426D01*
X005155Y019553D01*
X004990Y019621D01*
X004810Y019621D01*
X004645Y019553D01*
X004519Y019426D01*
X004450Y019261D01*
X004450Y019082D01*
X004519Y018917D01*
X004645Y018790D01*
X004541Y018894D02*
X004259Y018894D01*
X004313Y018993D02*
X004487Y018993D01*
X004450Y019091D02*
X004350Y019091D01*
X004350Y019190D02*
X004450Y019190D01*
X004461Y019288D02*
X004339Y019288D01*
X004298Y019387D02*
X004502Y019387D01*
X004577Y019485D02*
X004223Y019485D01*
X004081Y019584D02*
X004719Y019584D01*
X005081Y019584D02*
X005673Y019584D01*
X005654Y019573D02*
X005594Y019530D01*
X005542Y019478D01*
X005498Y019418D01*
X005464Y019352D01*
X005442Y019282D01*
X005432Y019221D01*
X005850Y019221D01*
X005850Y019121D01*
X005950Y019121D01*
X005950Y018704D01*
X006010Y018713D01*
X006080Y018736D01*
X006146Y018770D01*
X006206Y018813D01*
X006258Y018865D01*
X006302Y018925D01*
X006336Y018991D01*
X006358Y019061D01*
X006368Y019121D01*
X005950Y019121D01*
X005950Y019221D01*
X006368Y019221D01*
X006358Y019282D01*
X006336Y019352D01*
X006302Y019418D01*
X006258Y019478D01*
X006206Y019530D01*
X006146Y019573D01*
X006080Y019607D01*
X006010Y019630D01*
X005950Y019639D01*
X005950Y019222D01*
X005850Y019222D01*
X005850Y019639D01*
X005790Y019630D01*
X005720Y019607D01*
X005654Y019573D01*
X005549Y019485D02*
X005223Y019485D01*
X005298Y019387D02*
X005482Y019387D01*
X005444Y019288D02*
X005339Y019288D01*
X005350Y019190D02*
X005850Y019190D01*
X005850Y019121D02*
X005432Y019121D01*
X005442Y019061D01*
X005464Y018991D01*
X005498Y018925D01*
X005542Y018865D01*
X005594Y018813D01*
X005654Y018770D01*
X005720Y018736D01*
X005790Y018713D01*
X005850Y018704D01*
X005850Y019121D01*
X005850Y019091D02*
X005950Y019091D01*
X005950Y018993D02*
X005850Y018993D01*
X005850Y018894D02*
X005950Y018894D01*
X005950Y018796D02*
X005850Y018796D01*
X005618Y018796D02*
X005160Y018796D01*
X005259Y018894D02*
X005521Y018894D01*
X005464Y018993D02*
X005313Y018993D01*
X005350Y019091D02*
X005437Y019091D01*
X005850Y019288D02*
X005950Y019288D01*
X005950Y019190D02*
X006450Y019190D01*
X006450Y019261D02*
X006450Y019082D01*
X006519Y018917D01*
X006645Y018790D01*
X006810Y018721D01*
X006990Y018721D01*
X007155Y018790D01*
X007281Y018917D01*
X007350Y019082D01*
X007350Y019261D01*
X007281Y019426D01*
X007155Y019553D01*
X006990Y019621D01*
X006810Y019621D01*
X006645Y019553D01*
X006519Y019426D01*
X006450Y019261D01*
X006461Y019288D02*
X006356Y019288D01*
X006318Y019387D02*
X006502Y019387D01*
X006577Y019485D02*
X006251Y019485D01*
X006127Y019584D02*
X006719Y019584D01*
X007081Y019584D02*
X007719Y019584D01*
X007645Y019553D02*
X007519Y019426D01*
X007450Y019261D01*
X007450Y019082D01*
X007519Y018917D01*
X007645Y018790D01*
X007810Y018721D01*
X007990Y018721D01*
X008155Y018790D01*
X008281Y018917D01*
X008350Y019082D01*
X008350Y019261D01*
X008281Y019426D01*
X008155Y019553D01*
X007990Y019621D01*
X007810Y019621D01*
X007645Y019553D01*
X007577Y019485D02*
X007223Y019485D01*
X007298Y019387D02*
X007502Y019387D01*
X007461Y019288D02*
X007339Y019288D01*
X007350Y019190D02*
X007450Y019190D01*
X007450Y019091D02*
X007350Y019091D01*
X007313Y018993D02*
X007487Y018993D01*
X007541Y018894D02*
X007259Y018894D01*
X007160Y018796D02*
X007640Y018796D01*
X008160Y018796D02*
X008640Y018796D01*
X008645Y018790D02*
X008810Y018721D01*
X008990Y018721D01*
X009155Y018790D01*
X009281Y018917D01*
X009350Y019082D01*
X009350Y019261D01*
X009281Y019426D01*
X009155Y019553D01*
X008990Y019621D01*
X008810Y019621D01*
X008645Y019553D01*
X008519Y019426D01*
X008450Y019261D01*
X008450Y019082D01*
X008519Y018917D01*
X008645Y018790D01*
X008541Y018894D02*
X008259Y018894D01*
X008313Y018993D02*
X008487Y018993D01*
X008450Y019091D02*
X008350Y019091D01*
X008350Y019190D02*
X008450Y019190D01*
X008461Y019288D02*
X008339Y019288D01*
X008298Y019387D02*
X008502Y019387D01*
X008577Y019485D02*
X008223Y019485D01*
X008081Y019584D02*
X008719Y019584D01*
X009081Y019584D02*
X009719Y019584D01*
X009645Y019553D02*
X009519Y019426D01*
X009450Y019261D01*
X009450Y019082D01*
X009519Y018917D01*
X009645Y018790D01*
X009810Y018721D01*
X009990Y018721D01*
X010155Y018790D01*
X010281Y018917D01*
X010350Y019082D01*
X010350Y019261D01*
X010281Y019426D01*
X010155Y019553D01*
X009990Y019621D01*
X009810Y019621D01*
X009645Y019553D01*
X009577Y019485D02*
X009223Y019485D01*
X009298Y019387D02*
X009502Y019387D01*
X009461Y019288D02*
X009339Y019288D01*
X009350Y019190D02*
X009450Y019190D01*
X009450Y019091D02*
X009350Y019091D01*
X009313Y018993D02*
X009487Y018993D01*
X009541Y018894D02*
X009259Y018894D01*
X009160Y018796D02*
X009640Y018796D01*
X010160Y018796D02*
X010640Y018796D01*
X010541Y018894D02*
X010259Y018894D01*
X010313Y018993D02*
X010487Y018993D01*
X010450Y019091D02*
X010350Y019091D01*
X010350Y019190D02*
X010450Y019190D01*
X010461Y019288D02*
X010339Y019288D01*
X010298Y019387D02*
X010502Y019387D01*
X010577Y019485D02*
X010223Y019485D01*
X010081Y019584D02*
X010719Y019584D01*
X010730Y019682D02*
X003070Y019682D01*
X003070Y019781D02*
X010819Y019781D01*
X010917Y019879D02*
X003070Y019879D01*
X001719Y019584D02*
X001081Y019584D01*
X001223Y019485D02*
X001577Y019485D01*
X001502Y019387D02*
X001298Y019387D01*
X001339Y019288D02*
X001461Y019288D01*
X001450Y019190D02*
X001350Y019190D01*
X001350Y019091D02*
X001450Y019091D01*
X001487Y018993D02*
X001313Y018993D01*
X001259Y018894D02*
X001541Y018894D01*
X001640Y018796D02*
X001160Y018796D01*
X001074Y020175D02*
X000285Y020175D01*
X000285Y020273D02*
X000854Y020273D01*
X000737Y020372D02*
X000285Y020372D01*
X000285Y020470D02*
X000619Y020470D01*
X000529Y020569D02*
X000285Y020569D01*
X000285Y020667D02*
X000472Y020667D01*
X000415Y020766D02*
X000285Y020766D01*
X000285Y020864D02*
X000358Y020864D01*
X000324Y020963D02*
X000285Y020963D01*
X000285Y021061D02*
X000307Y021061D01*
X000289Y021160D02*
X000285Y021160D01*
X001771Y022584D02*
X011158Y022584D01*
X011128Y022555D01*
X010885Y022351D01*
X010875Y022351D01*
X010828Y022305D01*
X010777Y022262D01*
X010777Y022253D01*
X010770Y022246D01*
X010770Y022180D01*
X010768Y022161D01*
X010703Y022227D01*
X010536Y022296D01*
X010355Y022296D01*
X010188Y022227D01*
X010060Y022099D01*
X009990Y021931D01*
X009990Y021750D01*
X010060Y021583D01*
X010141Y021501D01*
X009778Y021501D01*
X009808Y021531D01*
X009852Y021592D01*
X009885Y021658D01*
X009909Y021730D01*
X009918Y021791D01*
X009495Y021791D01*
X009495Y021891D01*
X009395Y021891D01*
X009395Y021791D01*
X008972Y021791D01*
X008982Y021730D01*
X009005Y021658D01*
X009039Y021592D01*
X009083Y021531D01*
X009113Y021501D01*
X008749Y021501D01*
X008831Y021583D01*
X008900Y021750D01*
X008900Y021931D01*
X008831Y022099D01*
X008703Y022227D01*
X008536Y022296D01*
X008355Y022296D01*
X008188Y022227D01*
X008060Y022099D01*
X007990Y021931D01*
X007990Y021750D01*
X008060Y021583D01*
X008141Y021501D01*
X007749Y021501D01*
X007831Y021583D01*
X007900Y021750D01*
X007900Y021931D01*
X007831Y022099D01*
X007703Y022227D01*
X007536Y022296D01*
X007355Y022296D01*
X007188Y022227D01*
X007060Y022099D01*
X006990Y021931D01*
X006990Y021750D01*
X007060Y021583D01*
X007141Y021501D01*
X006749Y021501D01*
X006831Y021583D01*
X006900Y021750D01*
X006900Y021931D01*
X006831Y022099D01*
X006703Y022227D01*
X006536Y022296D01*
X006355Y022296D01*
X006267Y022259D01*
X006085Y022442D01*
X005985Y022541D01*
X003080Y022541D01*
X002830Y022291D01*
X002730Y022192D01*
X002730Y021729D01*
X002722Y021775D01*
X002501Y022157D01*
X002163Y022441D01*
X001771Y022584D01*
X001895Y022539D02*
X003077Y022539D01*
X002978Y022440D02*
X002164Y022440D01*
X002282Y022342D02*
X002880Y022342D01*
X002781Y022243D02*
X002399Y022243D01*
X002509Y022145D02*
X002730Y022145D01*
X002730Y022046D02*
X002565Y022046D01*
X002622Y021948D02*
X002730Y021948D01*
X002730Y021849D02*
X002679Y021849D01*
X002726Y021751D02*
X002730Y021751D01*
X004445Y021841D02*
X004965Y021321D01*
X010650Y021321D01*
X010950Y021671D01*
X010950Y022171D01*
X011250Y022421D01*
X014550Y022421D01*
X014950Y022121D01*
X014950Y019921D01*
X015400Y019571D01*
X015580Y019584D02*
X015719Y019584D01*
X015551Y019682D02*
X016277Y019682D01*
X016277Y019584D02*
X016081Y019584D01*
X016223Y019485D02*
X016277Y019485D01*
X016277Y019781D02*
X015424Y019781D01*
X015298Y019879D02*
X016277Y019879D01*
X016276Y019978D02*
X015171Y019978D01*
X015130Y020076D02*
X016276Y020076D01*
X016276Y020175D02*
X015130Y020175D01*
X015130Y020273D02*
X016276Y020273D01*
X016276Y020372D02*
X015519Y020372D01*
X015495Y020372D02*
X015395Y020372D01*
X015372Y020372D02*
X015130Y020372D01*
X015130Y020470D02*
X015147Y020470D01*
X015395Y020470D02*
X015495Y020470D01*
X015495Y020569D02*
X015395Y020569D01*
X015395Y020667D02*
X015495Y020667D01*
X015495Y020766D02*
X015395Y020766D01*
X015495Y020864D02*
X015990Y020864D01*
X015918Y020891D02*
X015909Y020952D01*
X015885Y021023D01*
X015852Y021090D01*
X015808Y021150D01*
X015755Y021203D01*
X015694Y021247D01*
X015628Y021281D01*
X015557Y021304D01*
X015495Y021314D01*
X015495Y020891D01*
X015918Y020891D01*
X015905Y020963D02*
X016003Y020963D01*
X016044Y021061D02*
X015866Y021061D01*
X015798Y021160D02*
X016121Y021160D01*
X016264Y021258D02*
X015673Y021258D01*
X015495Y021258D02*
X015395Y021258D01*
X015395Y021160D02*
X015495Y021160D01*
X015495Y021061D02*
X015395Y021061D01*
X015395Y020963D02*
X015495Y020963D01*
X015218Y021258D02*
X015130Y021258D01*
X015130Y021357D02*
X016689Y021357D01*
X016627Y021258D02*
X016780Y021258D01*
X016770Y021160D02*
X016780Y021160D01*
X017120Y021160D02*
X017121Y021160D01*
X017120Y021258D02*
X017264Y021258D01*
X017334Y021377D02*
X017395Y021368D01*
X017395Y021791D01*
X016972Y021791D01*
X016982Y021730D01*
X017005Y021658D01*
X017039Y021592D01*
X017083Y021531D01*
X017136Y021478D01*
X017196Y021435D01*
X017263Y021401D01*
X017334Y021377D01*
X017395Y021455D02*
X017495Y021455D01*
X017495Y021368D02*
X017557Y021377D01*
X017628Y021401D01*
X017694Y021435D01*
X017755Y021478D01*
X017808Y021531D01*
X017852Y021592D01*
X017885Y021658D01*
X017909Y021730D01*
X017918Y021791D01*
X017495Y021791D01*
X017495Y021368D01*
X017627Y021258D02*
X018264Y021258D01*
X018188Y021227D02*
X018060Y021099D01*
X017990Y020931D01*
X017990Y020750D01*
X018060Y020583D01*
X018188Y020455D01*
X018355Y020386D01*
X018536Y020386D01*
X018703Y020455D01*
X018831Y020583D01*
X018900Y020750D01*
X018900Y020931D01*
X018831Y021099D01*
X018703Y021227D01*
X018536Y021296D01*
X018355Y021296D01*
X018188Y021227D01*
X018121Y021160D02*
X017770Y021160D01*
X017847Y021061D02*
X018044Y021061D01*
X018003Y020963D02*
X017887Y020963D01*
X017900Y020864D02*
X017990Y020864D01*
X017990Y020766D02*
X017900Y020766D01*
X017866Y020667D02*
X018025Y020667D01*
X018074Y020569D02*
X017817Y020569D01*
X017718Y020470D02*
X018173Y020470D01*
X018718Y020470D02*
X019173Y020470D01*
X019188Y020455D02*
X019355Y020386D01*
X019536Y020386D01*
X019703Y020455D01*
X019831Y020583D01*
X019900Y020750D01*
X019900Y020931D01*
X019831Y021099D01*
X019703Y021227D01*
X019536Y021296D01*
X019355Y021296D01*
X019188Y021227D01*
X019060Y021099D01*
X018990Y020931D01*
X018990Y020750D01*
X019060Y020583D01*
X019188Y020455D01*
X019074Y020569D02*
X018817Y020569D01*
X018866Y020667D02*
X019025Y020667D01*
X018990Y020766D02*
X018900Y020766D01*
X018900Y020864D02*
X018990Y020864D01*
X019003Y020963D02*
X018887Y020963D01*
X018847Y021061D02*
X019044Y021061D01*
X019121Y021160D02*
X018770Y021160D01*
X018627Y021258D02*
X019264Y021258D01*
X019334Y021377D02*
X019395Y021368D01*
X019395Y021791D01*
X018972Y021791D01*
X018982Y021730D01*
X019005Y021658D01*
X019039Y021592D01*
X019083Y021531D01*
X019136Y021478D01*
X019196Y021435D01*
X019263Y021401D01*
X019334Y021377D01*
X019395Y021455D02*
X019495Y021455D01*
X019495Y021368D02*
X019557Y021377D01*
X019628Y021401D01*
X019694Y021435D01*
X019755Y021478D01*
X019808Y021531D01*
X019852Y021592D01*
X019885Y021658D01*
X019909Y021730D01*
X019918Y021791D01*
X019495Y021791D01*
X019495Y021368D01*
X019627Y021258D02*
X020264Y021258D01*
X020188Y021227D02*
X020355Y021296D01*
X020536Y021296D01*
X020703Y021227D01*
X020831Y021099D01*
X020900Y020931D01*
X020900Y020750D01*
X020864Y020663D01*
X021905Y019621D01*
X021990Y019621D01*
X022155Y019553D01*
X022281Y019426D01*
X022350Y019261D01*
X022350Y019082D01*
X022281Y018917D01*
X022155Y018790D01*
X021990Y018721D01*
X021810Y018721D01*
X021645Y018790D01*
X021519Y018917D01*
X021450Y019082D01*
X021450Y019261D01*
X021519Y019426D01*
X021569Y019477D01*
X020624Y020422D01*
X020536Y020386D01*
X020355Y020386D01*
X020188Y020455D01*
X020060Y020583D01*
X019990Y020750D01*
X019990Y020931D01*
X020060Y021099D01*
X020188Y021227D01*
X020121Y021160D02*
X019770Y021160D01*
X019847Y021061D02*
X020044Y021061D01*
X020003Y020963D02*
X019887Y020963D01*
X019900Y020864D02*
X019990Y020864D01*
X019990Y020766D02*
X019900Y020766D01*
X019866Y020667D02*
X020025Y020667D01*
X020074Y020569D02*
X019817Y020569D01*
X019718Y020470D02*
X020173Y020470D01*
X020674Y020372D02*
X017120Y020372D01*
X017120Y020470D02*
X017173Y020470D01*
X017120Y020273D02*
X020773Y020273D01*
X020871Y020175D02*
X017120Y020175D01*
X017120Y020076D02*
X020970Y020076D01*
X021068Y019978D02*
X017120Y019978D01*
X017197Y019879D02*
X021167Y019879D01*
X021265Y019781D02*
X017308Y019781D01*
X017419Y019682D02*
X021364Y019682D01*
X021462Y019584D02*
X021081Y019584D01*
X021155Y019553D02*
X020990Y019621D01*
X020810Y019621D01*
X020645Y019553D01*
X020519Y019426D01*
X020450Y019261D01*
X020450Y019082D01*
X020519Y018917D01*
X020645Y018790D01*
X020810Y018721D01*
X020990Y018721D01*
X021155Y018790D01*
X021281Y018917D01*
X021350Y019082D01*
X021350Y019261D01*
X021281Y019426D01*
X021155Y019553D01*
X021223Y019485D02*
X021561Y019485D01*
X021502Y019387D02*
X021298Y019387D01*
X021339Y019288D02*
X021461Y019288D01*
X021450Y019190D02*
X021350Y019190D01*
X021350Y019091D02*
X021450Y019091D01*
X021487Y018993D02*
X021313Y018993D01*
X021259Y018894D02*
X021541Y018894D01*
X021640Y018796D02*
X021160Y018796D01*
X020640Y018796D02*
X020160Y018796D01*
X020155Y018790D02*
X020281Y018917D01*
X020350Y019082D01*
X020350Y019261D01*
X020281Y019426D01*
X020155Y019553D01*
X019990Y019621D01*
X019810Y019621D01*
X019645Y019553D01*
X019519Y019426D01*
X019450Y019261D01*
X019450Y019082D01*
X019519Y018917D01*
X019645Y018790D01*
X019810Y018721D01*
X019990Y018721D01*
X020155Y018790D01*
X020259Y018894D02*
X020541Y018894D01*
X020487Y018993D02*
X020313Y018993D01*
X020350Y019091D02*
X020450Y019091D01*
X020450Y019190D02*
X020350Y019190D01*
X020339Y019288D02*
X020461Y019288D01*
X020502Y019387D02*
X020298Y019387D01*
X020223Y019485D02*
X020577Y019485D01*
X020719Y019584D02*
X020081Y019584D01*
X019719Y019584D02*
X019081Y019584D01*
X019155Y019553D02*
X018990Y019621D01*
X018810Y019621D01*
X018645Y019553D01*
X018519Y019426D01*
X018450Y019261D01*
X018450Y019082D01*
X018519Y018917D01*
X018645Y018790D01*
X018810Y018721D01*
X018990Y018721D01*
X019155Y018790D01*
X019281Y018917D01*
X019350Y019082D01*
X019350Y019261D01*
X019281Y019426D01*
X019155Y019553D01*
X019223Y019485D02*
X019577Y019485D01*
X019502Y019387D02*
X019298Y019387D01*
X019339Y019288D02*
X019461Y019288D01*
X019450Y019190D02*
X019350Y019190D01*
X019350Y019091D02*
X019450Y019091D01*
X019487Y018993D02*
X019313Y018993D01*
X019259Y018894D02*
X019541Y018894D01*
X019640Y018796D02*
X019160Y018796D01*
X018640Y018796D02*
X018160Y018796D01*
X018259Y018894D02*
X018541Y018894D01*
X018487Y018993D02*
X018313Y018993D01*
X018350Y019091D02*
X018450Y019091D01*
X018450Y019190D02*
X018350Y019190D01*
X018339Y019288D02*
X018461Y019288D01*
X018502Y019387D02*
X018298Y019387D01*
X018223Y019485D02*
X018577Y019485D01*
X018719Y019584D02*
X018081Y019584D01*
X017719Y019584D02*
X017530Y019584D01*
X017570Y019485D02*
X017577Y019485D01*
X017570Y018796D02*
X017640Y018796D01*
X017621Y018697D02*
X025606Y018697D01*
X025606Y018599D02*
X017726Y018599D01*
X017830Y018500D02*
X025606Y018500D01*
X025606Y018402D02*
X017935Y018402D01*
X018040Y018303D02*
X025606Y018303D01*
X025606Y018205D02*
X018144Y018205D01*
X018249Y018106D02*
X025606Y018106D01*
X025606Y018008D02*
X018353Y018008D01*
X018458Y017909D02*
X025606Y017909D01*
X025606Y017811D02*
X018563Y017811D01*
X018667Y017712D02*
X025606Y017712D01*
X025606Y017614D02*
X018772Y017614D01*
X018877Y017515D02*
X025606Y017515D01*
X025606Y017417D02*
X018981Y017417D01*
X019086Y017318D02*
X025606Y017318D01*
X025606Y017220D02*
X019191Y017220D01*
X019295Y017121D02*
X025606Y017121D01*
X025606Y017023D02*
X019400Y017023D01*
X019505Y016924D02*
X025606Y016924D01*
X025606Y016826D02*
X019609Y016826D01*
X019714Y016727D02*
X025606Y016727D01*
X025606Y016629D02*
X019819Y016629D01*
X019923Y016530D02*
X025606Y016530D01*
X025606Y016432D02*
X020030Y016432D01*
X020120Y016333D02*
X025606Y016333D01*
X025606Y016235D02*
X020121Y016235D01*
X020120Y016136D02*
X025606Y016136D01*
X025606Y016038D02*
X020120Y016038D01*
X020120Y015939D02*
X025606Y015939D01*
X025606Y015841D02*
X020120Y015841D01*
X020120Y015742D02*
X025606Y015742D01*
X025606Y015644D02*
X020120Y015644D01*
X020064Y015545D02*
X025606Y015545D01*
X025606Y015447D02*
X019965Y015447D01*
X019867Y015348D02*
X025606Y015348D01*
X025606Y015250D02*
X019792Y015250D01*
X019635Y015151D02*
X025606Y015151D01*
X025606Y015053D02*
X015580Y015053D01*
X015580Y015151D02*
X019465Y015151D01*
X019308Y015250D02*
X015580Y015250D01*
X015580Y015348D02*
X019246Y015348D01*
X019222Y015447D02*
X015580Y015447D01*
X015580Y015545D02*
X019225Y015545D01*
X019266Y015644D02*
X017816Y015644D01*
X017684Y015644D02*
X015580Y015644D01*
X015580Y015742D02*
X017515Y015742D01*
X017449Y015841D02*
X015580Y015841D01*
X015580Y015939D02*
X017422Y015939D01*
X017422Y016038D02*
X015580Y016038D01*
X015580Y016136D02*
X017345Y016136D01*
X017247Y016235D02*
X015580Y016235D01*
X015580Y016333D02*
X017148Y016333D01*
X017050Y016432D02*
X015580Y016432D01*
X015580Y016530D02*
X016951Y016530D01*
X016853Y016629D02*
X015580Y016629D01*
X015580Y016727D02*
X016754Y016727D01*
X016656Y016826D02*
X015580Y016826D01*
X015580Y016924D02*
X016557Y016924D01*
X016459Y017023D02*
X015580Y017023D01*
X015580Y017121D02*
X016360Y017121D01*
X016280Y017201D02*
X016280Y017201D01*
X016280Y017220D02*
X015580Y017220D01*
X015580Y017318D02*
X016280Y017318D01*
X016280Y017417D02*
X015580Y017417D01*
X015580Y017515D02*
X016280Y017515D01*
X016280Y017614D02*
X015580Y017614D01*
X015580Y017712D02*
X016279Y017712D01*
X016279Y017811D02*
X015580Y017811D01*
X015580Y017909D02*
X016279Y017909D01*
X016279Y018008D02*
X015580Y018008D01*
X015580Y018106D02*
X016279Y018106D01*
X016279Y018205D02*
X015580Y018205D01*
X015580Y018303D02*
X016279Y018303D01*
X016279Y018402D02*
X015580Y018402D01*
X015580Y018500D02*
X016278Y018500D01*
X016278Y018599D02*
X015580Y018599D01*
X015580Y018697D02*
X016278Y018697D01*
X016278Y018796D02*
X016160Y018796D01*
X016259Y018894D02*
X016278Y018894D01*
X016618Y018796D02*
X016640Y018796D01*
X016618Y018697D02*
X017229Y018697D01*
X017232Y018599D02*
X016618Y018599D01*
X016618Y018500D02*
X017334Y018500D01*
X017439Y018402D02*
X016619Y018402D01*
X016619Y018303D02*
X017543Y018303D01*
X017648Y018205D02*
X016619Y018205D01*
X016619Y018106D02*
X017753Y018106D01*
X017857Y018008D02*
X016619Y018008D01*
X016619Y017909D02*
X017962Y017909D01*
X018067Y017811D02*
X016619Y017811D01*
X016619Y017712D02*
X018171Y017712D01*
X018276Y017614D02*
X016620Y017614D01*
X016620Y017515D02*
X018381Y017515D01*
X018485Y017417D02*
X016620Y017417D01*
X016644Y017318D02*
X018590Y017318D01*
X018695Y017220D02*
X016742Y017220D01*
X016841Y017121D02*
X018799Y017121D01*
X018904Y017023D02*
X016939Y017023D01*
X017038Y016924D02*
X019009Y016924D01*
X019113Y016826D02*
X017136Y016826D01*
X017235Y016727D02*
X019218Y016727D01*
X019323Y016629D02*
X017333Y016629D01*
X017432Y016530D02*
X019427Y016530D01*
X019532Y016432D02*
X017530Y016432D01*
X017629Y016333D02*
X019637Y016333D01*
X019741Y016235D02*
X017951Y016235D01*
X018037Y016136D02*
X019780Y016136D01*
X019780Y016038D02*
X018078Y016038D01*
X018078Y015939D02*
X019780Y015939D01*
X019780Y015841D02*
X018051Y015841D01*
X017985Y015742D02*
X019356Y015742D01*
X016091Y012886D02*
X025606Y012886D01*
X025606Y012984D02*
X015992Y012984D01*
X015894Y013083D02*
X025606Y013083D01*
X025606Y013181D02*
X015795Y013181D01*
X015697Y013280D02*
X025606Y013280D01*
X025606Y013378D02*
X015598Y013378D01*
X015580Y013477D02*
X025606Y013477D01*
X025606Y013575D02*
X015580Y013575D01*
X015580Y013674D02*
X025606Y013674D01*
X025606Y013772D02*
X015580Y013772D01*
X015580Y013871D02*
X025606Y013871D01*
X025606Y013969D02*
X015580Y013969D01*
X015580Y014068D02*
X025606Y014068D01*
X025606Y014166D02*
X015580Y014166D01*
X015580Y014265D02*
X025606Y014265D01*
X025606Y014363D02*
X015580Y014363D01*
X015580Y014462D02*
X025606Y014462D01*
X025606Y014560D02*
X015580Y014560D01*
X015580Y014659D02*
X025606Y014659D01*
X025606Y014757D02*
X015580Y014757D01*
X015580Y014856D02*
X025606Y014856D01*
X025606Y014954D02*
X015580Y014954D01*
X016189Y012787D02*
X025606Y012787D01*
X025606Y012689D02*
X016288Y012689D01*
X016386Y012590D02*
X025606Y012590D01*
X025606Y012492D02*
X016485Y012492D01*
X016583Y012393D02*
X025606Y012393D01*
X025606Y012295D02*
X016682Y012295D01*
X016780Y012196D02*
X025606Y012196D01*
X025606Y012098D02*
X016879Y012098D01*
X016977Y011999D02*
X025606Y011999D01*
X025606Y011901D02*
X017076Y011901D01*
X017174Y011802D02*
X025606Y011802D01*
X025606Y011704D02*
X017273Y011704D01*
X017371Y011605D02*
X025606Y011605D01*
X025606Y011507D02*
X017470Y011507D01*
X017568Y011408D02*
X025606Y011408D01*
X025606Y011310D02*
X017667Y011310D01*
X017765Y011211D02*
X025606Y011211D01*
X025606Y011113D02*
X017864Y011113D01*
X017962Y011014D02*
X025606Y011014D01*
X025606Y010916D02*
X018061Y010916D01*
X018159Y010817D02*
X025606Y010817D01*
X025606Y010719D02*
X018258Y010719D01*
X018356Y010620D02*
X025606Y010620D01*
X025606Y010522D02*
X018455Y010522D01*
X018553Y010423D02*
X025606Y010423D01*
X025606Y010325D02*
X018652Y010325D01*
X018750Y010226D02*
X025606Y010226D01*
X025606Y010128D02*
X018849Y010128D01*
X018947Y010029D02*
X025606Y010029D01*
X025606Y009931D02*
X019046Y009931D01*
X019144Y009832D02*
X025606Y009832D01*
X025606Y009734D02*
X019243Y009734D01*
X019341Y009635D02*
X025606Y009635D01*
X025606Y009537D02*
X019440Y009537D01*
X019538Y009438D02*
X025606Y009438D01*
X025606Y009340D02*
X019606Y009340D01*
X019606Y009241D02*
X025606Y009241D01*
X025606Y009143D02*
X019606Y009143D01*
X019606Y009044D02*
X025606Y009044D01*
X025606Y008946D02*
X019606Y008946D01*
X019606Y008847D02*
X025606Y008847D01*
X025606Y008749D02*
X019606Y008749D01*
X019606Y008650D02*
X025606Y008650D01*
X025606Y008552D02*
X019606Y008552D01*
X019606Y008453D02*
X025606Y008453D01*
X025606Y008355D02*
X019606Y008355D01*
X019606Y008256D02*
X025606Y008256D01*
X025606Y008158D02*
X019606Y008158D01*
X019606Y008059D02*
X025606Y008059D01*
X025606Y007961D02*
X019606Y007961D01*
X019606Y007862D02*
X025606Y007862D01*
X025606Y007764D02*
X019606Y007764D01*
X019606Y007665D02*
X025606Y007665D01*
X025606Y007567D02*
X019606Y007567D01*
X019606Y007468D02*
X025606Y007468D01*
X025606Y007370D02*
X019606Y007370D01*
X019606Y007271D02*
X025606Y007271D01*
X025606Y007173D02*
X019606Y007173D01*
X019606Y007074D02*
X025606Y007074D01*
X025606Y006976D02*
X019606Y006976D01*
X019606Y006877D02*
X025606Y006877D01*
X025606Y006779D02*
X019606Y006779D01*
X019606Y006680D02*
X025606Y006680D01*
X025606Y006582D02*
X019606Y006582D01*
X019606Y006483D02*
X025606Y006483D01*
X025606Y006385D02*
X019606Y006385D01*
X019606Y006286D02*
X025606Y006286D01*
X025606Y006188D02*
X019606Y006188D01*
X019606Y006089D02*
X025606Y006089D01*
X025606Y005991D02*
X019606Y005991D01*
X019606Y005892D02*
X025606Y005892D01*
X025606Y005794D02*
X019606Y005794D01*
X019606Y005695D02*
X025606Y005695D01*
X025606Y005597D02*
X019606Y005597D01*
X019606Y005498D02*
X025606Y005498D01*
X025606Y005400D02*
X019606Y005400D01*
X019606Y005301D02*
X025606Y005301D01*
X025606Y005203D02*
X019606Y005203D01*
X019606Y005104D02*
X025606Y005104D01*
X025606Y005006D02*
X019606Y005006D01*
X019606Y004907D02*
X025606Y004907D01*
X025606Y004809D02*
X019606Y004809D01*
X019606Y004710D02*
X025606Y004710D01*
X025606Y004612D02*
X019606Y004612D01*
X019606Y004513D02*
X025606Y004513D01*
X025606Y004415D02*
X019606Y004415D01*
X019606Y004316D02*
X025606Y004316D01*
X025606Y004218D02*
X019606Y004218D01*
X019606Y004119D02*
X025606Y004119D01*
X025606Y004021D02*
X019606Y004021D01*
X019606Y003922D02*
X025606Y003922D01*
X025606Y003824D02*
X019606Y003824D01*
X019606Y003725D02*
X025606Y003725D01*
X025606Y003627D02*
X019606Y003627D01*
X019606Y003528D02*
X025606Y003528D01*
X025606Y003430D02*
X019606Y003430D01*
X019606Y003331D02*
X025606Y003331D01*
X025606Y003233D02*
X024770Y003233D01*
X025017Y003134D02*
X025606Y003134D01*
X025606Y003036D02*
X025134Y003036D01*
X025251Y002937D02*
X025606Y002937D01*
X025606Y002839D02*
X025352Y002839D01*
X025409Y002740D02*
X025606Y002740D01*
X025606Y002642D02*
X025466Y002642D01*
X025522Y002543D02*
X025606Y002543D01*
X025606Y002445D02*
X025563Y002445D01*
X025581Y002346D02*
X025605Y002346D01*
X025598Y002248D02*
X025616Y002248D01*
X025616Y002149D02*
X025625Y002149D01*
X023955Y003233D02*
X019606Y003233D01*
X019606Y003134D02*
X023709Y003134D01*
X023591Y003036D02*
X019606Y003036D01*
X019606Y002937D02*
X023474Y002937D01*
X023373Y002839D02*
X019606Y002839D01*
X019606Y002740D02*
X023317Y002740D01*
X023260Y002642D02*
X019606Y002642D01*
X019606Y002543D02*
X023203Y002543D01*
X023162Y002445D02*
X019606Y002445D01*
X019606Y002346D02*
X023144Y002346D01*
X023127Y002248D02*
X019606Y002248D01*
X019606Y002149D02*
X023110Y002149D01*
X023092Y002050D02*
X019620Y002050D01*
X019780Y001952D02*
X023109Y001952D01*
X023127Y001853D02*
X019877Y001853D01*
X019917Y001755D02*
X023144Y001755D01*
X023161Y001656D02*
X019956Y001656D01*
X019956Y001558D02*
X023202Y001558D01*
X023258Y001459D02*
X019956Y001459D01*
X019918Y001361D02*
X023315Y001361D01*
X023372Y001262D02*
X019877Y001262D01*
X019782Y001164D02*
X023471Y001164D01*
X023589Y001065D02*
X019623Y001065D01*
X018934Y001755D02*
X018598Y001755D01*
X018598Y001853D02*
X018975Y001853D01*
X019071Y001952D02*
X018598Y001952D01*
X019246Y002248D02*
X002764Y002248D01*
X002746Y002346D02*
X019246Y002346D01*
X019246Y002445D02*
X002729Y002445D01*
X002688Y002543D02*
X019246Y002543D01*
X019246Y002642D02*
X002631Y002642D01*
X002574Y002740D02*
X019246Y002740D01*
X019246Y002839D02*
X002517Y002839D01*
X002417Y002937D02*
X019246Y002937D01*
X019246Y003036D02*
X002299Y003036D01*
X002182Y003134D02*
X019246Y003134D01*
X019246Y003233D02*
X001936Y003233D01*
X001120Y003233D02*
X000285Y003233D01*
X000285Y003331D02*
X019246Y003331D01*
X019246Y003430D02*
X000285Y003430D01*
X000285Y003528D02*
X019246Y003528D01*
X019246Y003627D02*
X000285Y003627D01*
X000285Y003725D02*
X019246Y003725D01*
X019246Y003824D02*
X000285Y003824D01*
X000285Y003922D02*
X019246Y003922D01*
X019246Y004021D02*
X000285Y004021D01*
X000285Y004119D02*
X019246Y004119D01*
X019246Y004218D02*
X000285Y004218D01*
X000285Y004316D02*
X019246Y004316D01*
X019246Y004415D02*
X000285Y004415D01*
X000285Y004513D02*
X019246Y004513D01*
X019246Y004612D02*
X000285Y004612D01*
X000285Y004710D02*
X019246Y004710D01*
X019246Y004809D02*
X000285Y004809D01*
X000285Y004907D02*
X019246Y004907D01*
X019246Y005006D02*
X000285Y005006D01*
X000285Y005104D02*
X015408Y005104D01*
X015255Y005203D02*
X000285Y005203D01*
X000285Y005301D02*
X015194Y005301D01*
X015172Y005400D02*
X000285Y005400D01*
X000285Y005498D02*
X015176Y005498D01*
X015217Y005597D02*
X000285Y005597D01*
X000285Y005695D02*
X015309Y005695D01*
X015581Y005743D02*
X015730Y005892D01*
X015730Y005991D02*
X000285Y005991D01*
X000285Y006089D02*
X015730Y006089D01*
X015730Y006188D02*
X000285Y006188D01*
X000285Y006286D02*
X015730Y006286D01*
X015730Y006385D02*
X000285Y006385D01*
X000285Y006483D02*
X015730Y006483D01*
X016070Y006483D02*
X019246Y006483D01*
X019246Y006385D02*
X016070Y006385D01*
X016070Y006286D02*
X019246Y006286D01*
X019246Y006188D02*
X016070Y006188D01*
X016070Y006089D02*
X019246Y006089D01*
X019246Y005991D02*
X016070Y005991D01*
X016070Y005892D02*
X019246Y005892D01*
X019246Y005794D02*
X016070Y005794D01*
X016014Y005695D02*
X019246Y005695D01*
X019246Y005597D02*
X015915Y005597D01*
X015824Y005498D02*
X019246Y005498D01*
X019246Y005400D02*
X015828Y005400D01*
X015806Y005301D02*
X019246Y005301D01*
X019246Y005203D02*
X015745Y005203D01*
X015592Y005104D02*
X019246Y005104D01*
X019246Y006582D02*
X016070Y006582D01*
X016070Y006680D02*
X019246Y006680D01*
X019246Y006779D02*
X016070Y006779D01*
X016070Y006877D02*
X019246Y006877D01*
X019246Y006976D02*
X016070Y006976D01*
X016070Y007074D02*
X019246Y007074D01*
X019246Y007173D02*
X016070Y007173D01*
X016070Y007271D02*
X019246Y007271D01*
X019246Y007370D02*
X016070Y007370D01*
X016070Y007468D02*
X019246Y007468D01*
X019246Y007567D02*
X016070Y007567D01*
X016070Y007665D02*
X019246Y007665D01*
X019246Y007764D02*
X016070Y007764D01*
X016070Y007862D02*
X019246Y007862D01*
X019246Y007961D02*
X016070Y007961D01*
X016070Y008059D02*
X019246Y008059D01*
X019246Y008158D02*
X016070Y008158D01*
X016070Y008256D02*
X019246Y008256D01*
X019246Y008355D02*
X016070Y008355D01*
X016070Y008453D02*
X019246Y008453D01*
X019246Y008552D02*
X016144Y008552D01*
X016205Y008650D02*
X019246Y008650D01*
X019246Y008749D02*
X016228Y008749D01*
X016224Y008847D02*
X019246Y008847D01*
X019246Y008946D02*
X016183Y008946D01*
X016092Y009044D02*
X019246Y009044D01*
X015549Y002087D02*
X014641Y002087D01*
X014565Y002011D01*
X014565Y001103D01*
X014641Y001027D01*
X015549Y001027D01*
X015625Y001103D01*
X015625Y002011D01*
X015549Y002087D01*
X015586Y002050D02*
X016279Y002050D01*
X016118Y001952D02*
X015625Y001952D01*
X015625Y001853D02*
X016022Y001853D01*
X015981Y001755D02*
X015625Y001755D01*
X015625Y001656D02*
X015943Y001656D01*
X015943Y001558D02*
X015625Y001558D01*
X015625Y001459D02*
X015943Y001459D01*
X015980Y001361D02*
X015625Y001361D01*
X015625Y001262D02*
X016021Y001262D01*
X016117Y001164D02*
X015625Y001164D01*
X015587Y001065D02*
X016275Y001065D01*
X016924Y001853D02*
X017498Y001853D01*
X017498Y001952D02*
X016828Y001952D01*
X016667Y002050D02*
X017529Y002050D01*
X014604Y002050D02*
X013714Y002050D01*
X013626Y002087D02*
X013415Y002087D01*
X013220Y002007D01*
X013071Y001858D01*
X012990Y001663D01*
X012990Y001452D01*
X013071Y001257D01*
X013220Y001108D01*
X013415Y001027D01*
X013626Y001027D01*
X013820Y001108D01*
X013969Y001257D01*
X014050Y001452D01*
X014050Y001663D01*
X013969Y001858D01*
X013820Y002007D01*
X013626Y002087D01*
X013875Y001952D02*
X014565Y001952D01*
X014565Y001853D02*
X013971Y001853D01*
X014012Y001755D02*
X014565Y001755D01*
X014565Y001656D02*
X014050Y001656D01*
X014050Y001558D02*
X014565Y001558D01*
X014565Y001459D02*
X014050Y001459D01*
X014012Y001361D02*
X014565Y001361D01*
X014565Y001262D02*
X013972Y001262D01*
X013876Y001164D02*
X014565Y001164D01*
X014603Y001065D02*
X013718Y001065D01*
X013322Y001065D02*
X012340Y001065D01*
X012248Y001027D02*
X012442Y001108D01*
X012591Y001257D01*
X012672Y001452D01*
X012672Y001663D01*
X012591Y001858D01*
X012442Y002007D01*
X012248Y002087D01*
X012037Y002087D01*
X011842Y002007D01*
X011693Y001858D01*
X011612Y001663D01*
X011612Y001452D01*
X011693Y001257D01*
X011842Y001108D01*
X012037Y001027D01*
X012248Y001027D01*
X012498Y001164D02*
X013164Y001164D01*
X013069Y001262D02*
X012594Y001262D01*
X012634Y001361D02*
X013028Y001361D01*
X012990Y001459D02*
X012672Y001459D01*
X012672Y001558D02*
X012990Y001558D01*
X012990Y001656D02*
X012672Y001656D01*
X012634Y001755D02*
X013028Y001755D01*
X013069Y001853D02*
X012593Y001853D01*
X012497Y001952D02*
X013165Y001952D01*
X013326Y002050D02*
X012336Y002050D01*
X011948Y002050D02*
X011255Y002050D01*
X011218Y002087D02*
X011294Y002011D01*
X011294Y001103D01*
X011218Y001027D01*
X010310Y001027D01*
X010234Y001103D01*
X010234Y002011D01*
X010310Y002087D01*
X011218Y002087D01*
X011294Y001952D02*
X011787Y001952D01*
X011691Y001853D02*
X011294Y001853D01*
X011294Y001755D02*
X011650Y001755D01*
X011612Y001656D02*
X011294Y001656D01*
X011294Y001558D02*
X011612Y001558D01*
X011612Y001459D02*
X011294Y001459D01*
X011294Y001361D02*
X011650Y001361D01*
X011691Y001262D02*
X011294Y001262D01*
X011294Y001164D02*
X011786Y001164D01*
X011945Y001065D02*
X011256Y001065D01*
X010272Y001065D02*
X009387Y001065D01*
X009295Y001027D02*
X009490Y001108D01*
X009639Y001257D01*
X009719Y001452D01*
X009719Y001663D01*
X009639Y001858D01*
X009490Y002007D01*
X009295Y002087D01*
X009084Y002087D01*
X008889Y002007D01*
X008740Y001858D01*
X008659Y001663D01*
X008659Y001452D01*
X008740Y001257D01*
X008889Y001108D01*
X009084Y001027D01*
X009295Y001027D01*
X009546Y001164D02*
X010234Y001164D01*
X010234Y001262D02*
X009641Y001262D01*
X009682Y001361D02*
X010234Y001361D01*
X010234Y001459D02*
X009719Y001459D01*
X009719Y001558D02*
X010234Y001558D01*
X010234Y001656D02*
X009719Y001656D01*
X009681Y001755D02*
X010234Y001755D01*
X010234Y001853D02*
X009640Y001853D01*
X009544Y001952D02*
X010234Y001952D01*
X010274Y002050D02*
X009384Y002050D01*
X008995Y002050D02*
X008006Y002050D01*
X007917Y002087D02*
X007706Y002087D01*
X007511Y002007D01*
X007362Y001858D01*
X007281Y001663D01*
X007281Y001452D01*
X007362Y001257D01*
X007511Y001108D01*
X007706Y001027D01*
X007917Y001027D01*
X008112Y001108D01*
X008261Y001257D01*
X008341Y001452D01*
X008341Y001663D01*
X008261Y001858D01*
X008112Y002007D01*
X007917Y002087D01*
X008166Y001952D02*
X008835Y001952D01*
X008738Y001853D02*
X008262Y001853D01*
X008303Y001755D02*
X008698Y001755D01*
X008659Y001656D02*
X008341Y001656D01*
X008341Y001558D02*
X008659Y001558D01*
X008659Y001459D02*
X008341Y001459D01*
X008304Y001361D02*
X008697Y001361D01*
X008738Y001262D02*
X008263Y001262D01*
X008168Y001164D02*
X008833Y001164D01*
X008992Y001065D02*
X008009Y001065D01*
X007614Y001065D02*
X006925Y001065D01*
X006963Y001164D02*
X007455Y001164D01*
X007360Y001262D02*
X006963Y001262D01*
X006963Y001361D02*
X007319Y001361D01*
X007281Y001459D02*
X006963Y001459D01*
X006963Y001558D02*
X007281Y001558D01*
X007281Y001656D02*
X006963Y001656D01*
X006963Y001755D02*
X007320Y001755D01*
X007360Y001853D02*
X006963Y001853D01*
X006963Y001952D02*
X007457Y001952D01*
X007617Y002050D02*
X006924Y002050D01*
X005903Y001853D02*
X002764Y001853D01*
X002747Y001755D02*
X005903Y001755D01*
X005903Y001656D02*
X002729Y001656D01*
X002722Y001615D02*
X002798Y002049D01*
X002632Y001459D02*
X005903Y001459D01*
X005903Y001361D02*
X002575Y001361D01*
X002518Y001262D02*
X005903Y001262D01*
X005903Y001164D02*
X002419Y001164D01*
X002302Y001065D02*
X005941Y001065D01*
X002184Y000967D02*
X023706Y000967D01*
X023949Y000868D02*
X001941Y000868D01*
X000292Y002248D02*
X000285Y002248D01*
X000285Y002346D02*
X000310Y002346D01*
X000327Y002445D02*
X000285Y002445D01*
X000285Y002543D02*
X000368Y002543D01*
X000425Y002642D02*
X000285Y002642D01*
X000285Y002740D02*
X000482Y002740D01*
X000539Y002839D02*
X000285Y002839D01*
X000285Y002937D02*
X000639Y002937D01*
X000757Y003036D02*
X000285Y003036D01*
X000285Y003134D02*
X000874Y003134D01*
X010873Y006680D02*
X011095Y006680D01*
X010979Y006779D02*
X010946Y006779D01*
X010896Y012590D02*
X010964Y012590D01*
X011053Y012689D02*
X010743Y012689D01*
X011810Y018721D02*
X011990Y018721D01*
X012155Y018790D01*
X012281Y018917D01*
X012350Y019082D01*
X012350Y019261D01*
X012281Y019426D01*
X012155Y019553D01*
X011990Y019621D01*
X011810Y019621D01*
X011645Y019553D01*
X011519Y019426D01*
X011450Y019261D01*
X011450Y019082D01*
X011519Y018917D01*
X011645Y018790D01*
X011810Y018721D01*
X011640Y018796D02*
X011160Y018796D01*
X011259Y018894D02*
X011541Y018894D01*
X011487Y018993D02*
X011313Y018993D01*
X011350Y019091D02*
X011450Y019091D01*
X011450Y019190D02*
X011350Y019190D01*
X011339Y019288D02*
X011461Y019288D01*
X011502Y019387D02*
X011298Y019387D01*
X011223Y019485D02*
X011577Y019485D01*
X011719Y019584D02*
X011102Y019584D01*
X012081Y019584D02*
X012719Y019584D01*
X012645Y019553D02*
X012810Y019621D01*
X012990Y019621D01*
X013155Y019553D01*
X013281Y019426D01*
X013350Y019261D01*
X013350Y019082D01*
X013281Y018917D01*
X013155Y018790D01*
X012990Y018721D01*
X012810Y018721D01*
X012645Y018790D01*
X012519Y018917D01*
X012450Y019082D01*
X012450Y019261D01*
X012519Y019426D01*
X012645Y019553D01*
X012577Y019485D02*
X012223Y019485D01*
X012298Y019387D02*
X012502Y019387D01*
X012461Y019288D02*
X012339Y019288D01*
X012350Y019190D02*
X012450Y019190D01*
X012450Y019091D02*
X012350Y019091D01*
X012313Y018993D02*
X012487Y018993D01*
X012541Y018894D02*
X012259Y018894D01*
X012160Y018796D02*
X012640Y018796D01*
X013160Y018796D02*
X013640Y018796D01*
X013645Y018790D02*
X013810Y018721D01*
X013990Y018721D01*
X014155Y018790D01*
X014281Y018917D01*
X014350Y019082D01*
X014350Y019261D01*
X014281Y019426D01*
X014155Y019553D01*
X013990Y019621D01*
X013810Y019621D01*
X013645Y019553D01*
X013519Y019426D01*
X013450Y019261D01*
X013450Y019082D01*
X013519Y018917D01*
X013645Y018790D01*
X013541Y018894D02*
X013259Y018894D01*
X013313Y018993D02*
X013487Y018993D01*
X013450Y019091D02*
X013350Y019091D01*
X013350Y019190D02*
X013450Y019190D01*
X013461Y019288D02*
X013339Y019288D01*
X013298Y019387D02*
X013502Y019387D01*
X013577Y019485D02*
X013223Y019485D01*
X013081Y019584D02*
X013719Y019584D01*
X014081Y019584D02*
X014719Y019584D01*
X014577Y019485D02*
X014223Y019485D01*
X014298Y019387D02*
X014502Y019387D01*
X014461Y019288D02*
X014339Y019288D01*
X014350Y019190D02*
X014450Y019190D01*
X014450Y019091D02*
X014350Y019091D01*
X014313Y018993D02*
X014487Y018993D01*
X014541Y018894D02*
X014259Y018894D01*
X014160Y018796D02*
X014640Y018796D01*
X015160Y018796D02*
X015220Y018796D01*
X015580Y018796D02*
X015640Y018796D01*
X017160Y018796D02*
X017230Y018796D01*
X016173Y020470D02*
X015743Y020470D01*
X015835Y020569D02*
X016074Y020569D01*
X016025Y020667D02*
X015888Y020667D01*
X015914Y020766D02*
X015990Y020766D01*
X016188Y021455D02*
X016060Y021583D01*
X016031Y021652D02*
X015860Y021652D01*
X015900Y021751D02*
X015990Y021751D01*
X015990Y021849D02*
X015900Y021849D01*
X015894Y021948D02*
X015997Y021948D01*
X016038Y022046D02*
X015853Y022046D01*
X015785Y022145D02*
X016106Y022145D01*
X016227Y022243D02*
X015663Y022243D01*
X015227Y022243D02*
X015088Y022243D01*
X014957Y022342D02*
X023609Y022342D01*
X023726Y022440D02*
X014825Y022440D01*
X014694Y022539D02*
X023995Y022539D01*
X023491Y022243D02*
X022663Y022243D01*
X022703Y022227D02*
X022536Y022296D01*
X022355Y022296D01*
X022188Y022227D01*
X022060Y022099D01*
X021990Y021931D01*
X021990Y021750D01*
X022060Y021583D01*
X022188Y021455D01*
X021703Y021455D01*
X021831Y021583D01*
X021900Y021750D01*
X021900Y021931D01*
X021831Y022099D01*
X021703Y022227D01*
X021536Y022296D01*
X021355Y022296D01*
X021188Y022227D01*
X021060Y022099D01*
X020990Y021931D01*
X020990Y021750D01*
X021060Y021583D01*
X021188Y021455D01*
X020703Y021455D01*
X020831Y021583D01*
X020900Y021750D01*
X020900Y021931D01*
X020831Y022099D01*
X020703Y022227D01*
X020536Y022296D01*
X020355Y022296D01*
X020188Y022227D01*
X020060Y022099D01*
X019990Y021931D01*
X019990Y021750D01*
X020060Y021583D01*
X020188Y021455D01*
X019722Y021455D01*
X019824Y021554D02*
X020089Y021554D01*
X020031Y021652D02*
X019882Y021652D01*
X019912Y021751D02*
X019990Y021751D01*
X019990Y021849D02*
X019495Y021849D01*
X019495Y021891D02*
X019918Y021891D01*
X019909Y021952D01*
X019885Y022023D01*
X019852Y022090D01*
X019808Y022150D01*
X019755Y022203D01*
X019694Y022247D01*
X019628Y022281D01*
X019557Y022304D01*
X019495Y022314D01*
X019495Y021891D01*
X019395Y021891D01*
X019395Y021791D01*
X019495Y021791D01*
X019495Y021891D01*
X019495Y021948D02*
X019395Y021948D01*
X019395Y021891D02*
X019395Y022314D01*
X019334Y022304D01*
X019263Y022281D01*
X019196Y022247D01*
X019136Y022203D01*
X019083Y022150D01*
X019039Y022090D01*
X019005Y022023D01*
X018982Y021952D01*
X018972Y021891D01*
X019395Y021891D01*
X019395Y021849D02*
X018900Y021849D01*
X018900Y021931D02*
X018831Y022099D01*
X018703Y022227D01*
X018536Y022296D01*
X018355Y022296D01*
X018188Y022227D01*
X018060Y022099D01*
X017990Y021931D01*
X017990Y021750D01*
X018060Y021583D01*
X018188Y021455D01*
X017722Y021455D01*
X017824Y021554D02*
X018089Y021554D01*
X018031Y021652D02*
X017882Y021652D01*
X017912Y021751D02*
X017990Y021751D01*
X017990Y021849D02*
X017495Y021849D01*
X017495Y021891D02*
X017918Y021891D01*
X017909Y021952D01*
X017885Y022023D01*
X017852Y022090D01*
X017808Y022150D01*
X017755Y022203D01*
X017694Y022247D01*
X017628Y022281D01*
X017557Y022304D01*
X017495Y022314D01*
X017495Y021891D01*
X017395Y021891D01*
X017395Y021791D01*
X017495Y021791D01*
X017495Y021891D01*
X017495Y021948D02*
X017395Y021948D01*
X017395Y021891D02*
X017395Y022314D01*
X017334Y022304D01*
X017263Y022281D01*
X017196Y022247D01*
X017136Y022203D01*
X017083Y022150D01*
X017039Y022090D01*
X017005Y022023D01*
X016982Y021952D01*
X016972Y021891D01*
X017395Y021891D01*
X017395Y021849D02*
X016900Y021849D01*
X016900Y021751D02*
X016979Y021751D01*
X017008Y021652D02*
X016874Y021652D01*
X016973Y021554D02*
X017067Y021554D01*
X017071Y021455D02*
X017168Y021455D01*
X017120Y021357D02*
X023095Y021357D01*
X023112Y021455D02*
X022703Y021455D01*
X022831Y021583D01*
X022900Y021750D01*
X022900Y021931D01*
X022831Y022099D01*
X022703Y022227D01*
X022785Y022145D02*
X023382Y022145D01*
X023325Y022046D02*
X022853Y022046D01*
X022894Y021948D02*
X023268Y021948D01*
X023211Y021849D02*
X022900Y021849D01*
X022900Y021751D02*
X023164Y021751D01*
X023147Y021652D02*
X022860Y021652D01*
X022802Y021554D02*
X023130Y021554D01*
X023107Y021258D02*
X022673Y021258D01*
X022694Y021247D02*
X022628Y021281D01*
X022557Y021304D01*
X022495Y021314D01*
X022495Y020891D01*
X022395Y020891D01*
X022395Y020791D01*
X021972Y020791D01*
X021982Y020730D01*
X022005Y020658D01*
X022039Y020592D01*
X022083Y020531D01*
X022136Y020478D01*
X022196Y020435D01*
X022263Y020401D01*
X022334Y020377D01*
X022395Y020368D01*
X022395Y020791D01*
X022495Y020791D01*
X022495Y020368D01*
X022557Y020377D01*
X022628Y020401D01*
X022694Y020435D01*
X022755Y020478D01*
X022808Y020531D01*
X022852Y020592D01*
X022885Y020658D01*
X022909Y020730D01*
X022918Y020791D01*
X022495Y020791D01*
X022495Y020891D01*
X022918Y020891D01*
X022909Y020952D01*
X022885Y021023D01*
X022852Y021090D01*
X022808Y021150D01*
X022755Y021203D01*
X022694Y021247D01*
X022798Y021160D02*
X023124Y021160D01*
X023141Y021061D02*
X022866Y021061D01*
X022905Y020963D02*
X023159Y020963D01*
X023193Y020864D02*
X022495Y020864D01*
X022495Y020766D02*
X022395Y020766D01*
X022395Y020864D02*
X021900Y020864D01*
X021900Y020931D02*
X021831Y021099D01*
X021703Y021227D01*
X021536Y021296D01*
X021355Y021296D01*
X021188Y021227D01*
X021060Y021099D01*
X020990Y020931D01*
X020990Y020750D01*
X021060Y020583D01*
X021188Y020455D01*
X021355Y020386D01*
X021536Y020386D01*
X021703Y020455D01*
X021831Y020583D01*
X021900Y020750D01*
X021900Y020931D01*
X021887Y020963D02*
X021985Y020963D01*
X021982Y020952D02*
X021972Y020891D01*
X022395Y020891D01*
X022395Y021314D01*
X022334Y021304D01*
X022263Y021281D01*
X022196Y021247D01*
X022136Y021203D01*
X022083Y021150D01*
X022039Y021090D01*
X022005Y021023D01*
X021982Y020952D01*
X022024Y021061D02*
X021847Y021061D01*
X021770Y021160D02*
X022092Y021160D01*
X022218Y021258D02*
X021627Y021258D01*
X021536Y021386D02*
X021703Y021455D01*
X021802Y021554D02*
X022089Y021554D01*
X022031Y021652D02*
X021860Y021652D01*
X021900Y021751D02*
X021990Y021751D01*
X021990Y021849D02*
X021900Y021849D01*
X021894Y021948D02*
X021997Y021948D01*
X022038Y022046D02*
X021853Y022046D01*
X021785Y022145D02*
X022106Y022145D01*
X022227Y022243D02*
X021663Y022243D01*
X021227Y022243D02*
X020663Y022243D01*
X020785Y022145D02*
X021106Y022145D01*
X021038Y022046D02*
X020853Y022046D01*
X020894Y021948D02*
X020997Y021948D01*
X020990Y021849D02*
X020900Y021849D01*
X020900Y021751D02*
X020990Y021751D01*
X021031Y021652D02*
X020860Y021652D01*
X020802Y021554D02*
X021089Y021554D01*
X021188Y021455D02*
X021355Y021386D01*
X021536Y021386D01*
X021264Y021258D02*
X020627Y021258D01*
X020536Y021386D02*
X020355Y021386D01*
X020188Y021455D01*
X020536Y021386D02*
X020703Y021455D01*
X020770Y021160D02*
X021121Y021160D01*
X021044Y021061D02*
X020847Y021061D01*
X020887Y020963D02*
X021003Y020963D01*
X020990Y020864D02*
X020900Y020864D01*
X020900Y020766D02*
X020990Y020766D01*
X021025Y020667D02*
X020866Y020667D01*
X020958Y020569D02*
X021074Y020569D01*
X021056Y020470D02*
X021173Y020470D01*
X021155Y020372D02*
X022372Y020372D01*
X022395Y020372D02*
X022495Y020372D01*
X022519Y020372D02*
X023571Y020372D01*
X023454Y020470D02*
X022743Y020470D01*
X022835Y020569D02*
X023364Y020569D01*
X023307Y020667D02*
X022888Y020667D01*
X022914Y020766D02*
X023250Y020766D01*
X023689Y020273D02*
X021253Y020273D01*
X021352Y020175D02*
X023909Y020175D01*
X023990Y019621D02*
X023810Y019621D01*
X023645Y019553D01*
X023519Y019426D01*
X023450Y019261D01*
X023450Y019082D01*
X023519Y018917D01*
X023645Y018790D01*
X023810Y018721D01*
X023990Y018721D01*
X024155Y018790D01*
X024281Y018917D01*
X024350Y019082D01*
X024350Y019261D01*
X024281Y019426D01*
X024155Y019553D01*
X023990Y019621D01*
X024081Y019584D02*
X024673Y019584D01*
X024654Y019573D02*
X024594Y019530D01*
X024542Y019478D01*
X024498Y019418D01*
X024464Y019352D01*
X024442Y019282D01*
X024432Y019221D01*
X024850Y019221D01*
X024850Y019121D01*
X024950Y019121D01*
X024950Y018704D01*
X025010Y018713D01*
X025080Y018736D01*
X025146Y018770D01*
X025206Y018813D01*
X025258Y018865D01*
X025302Y018925D01*
X025336Y018991D01*
X025358Y019061D01*
X025368Y019121D01*
X024950Y019121D01*
X024950Y019221D01*
X025368Y019221D01*
X025358Y019282D01*
X025336Y019352D01*
X025302Y019418D01*
X025258Y019478D01*
X025206Y019530D01*
X025146Y019573D01*
X025080Y019607D01*
X025010Y019630D01*
X024950Y019639D01*
X024950Y019222D01*
X024850Y019222D01*
X024850Y019639D01*
X024790Y019630D01*
X024720Y019607D01*
X024654Y019573D01*
X024549Y019485D02*
X024223Y019485D01*
X024298Y019387D02*
X024482Y019387D01*
X024444Y019288D02*
X024339Y019288D01*
X024350Y019190D02*
X024850Y019190D01*
X024850Y019121D02*
X024432Y019121D01*
X024442Y019061D01*
X024464Y018991D01*
X024498Y018925D01*
X024542Y018865D01*
X024594Y018813D01*
X024654Y018770D01*
X024720Y018736D01*
X024790Y018713D01*
X024850Y018704D01*
X024850Y019121D01*
X024850Y019091D02*
X024950Y019091D01*
X024950Y018993D02*
X024850Y018993D01*
X024850Y018894D02*
X024950Y018894D01*
X024950Y018796D02*
X024850Y018796D01*
X024618Y018796D02*
X024160Y018796D01*
X024259Y018894D02*
X024521Y018894D01*
X024464Y018993D02*
X024313Y018993D01*
X024350Y019091D02*
X024437Y019091D01*
X024850Y019288D02*
X024950Y019288D01*
X024950Y019190D02*
X025606Y019190D01*
X025606Y019288D02*
X025356Y019288D01*
X025318Y019387D02*
X025606Y019387D01*
X025606Y019485D02*
X025251Y019485D01*
X025127Y019584D02*
X025606Y019584D01*
X025606Y019682D02*
X021844Y019682D01*
X021746Y019781D02*
X025606Y019781D01*
X025606Y019879D02*
X021647Y019879D01*
X021549Y019978D02*
X025606Y019978D01*
X025606Y020076D02*
X021450Y020076D01*
X021718Y020470D02*
X022147Y020470D01*
X022056Y020569D02*
X021817Y020569D01*
X021866Y020667D02*
X022002Y020667D01*
X021976Y020766D02*
X021900Y020766D01*
X022395Y020667D02*
X022495Y020667D01*
X022495Y020569D02*
X022395Y020569D01*
X022395Y020470D02*
X022495Y020470D01*
X022495Y020963D02*
X022395Y020963D01*
X022395Y021061D02*
X022495Y021061D01*
X022495Y021160D02*
X022395Y021160D01*
X022395Y021258D02*
X022495Y021258D01*
X022536Y021386D02*
X022703Y021455D01*
X022536Y021386D02*
X022355Y021386D01*
X022188Y021455D01*
X022081Y019584D02*
X022719Y019584D01*
X022645Y019553D02*
X022519Y019426D01*
X022450Y019261D01*
X022450Y019082D01*
X022519Y018917D01*
X022645Y018790D01*
X022810Y018721D01*
X022990Y018721D01*
X023155Y018790D01*
X023281Y018917D01*
X023350Y019082D01*
X023350Y019261D01*
X023281Y019426D01*
X023155Y019553D01*
X022990Y019621D01*
X022810Y019621D01*
X022645Y019553D01*
X022577Y019485D02*
X022223Y019485D01*
X022298Y019387D02*
X022502Y019387D01*
X022461Y019288D02*
X022339Y019288D01*
X022350Y019190D02*
X022450Y019190D01*
X022450Y019091D02*
X022350Y019091D01*
X022313Y018993D02*
X022487Y018993D01*
X022541Y018894D02*
X022259Y018894D01*
X022160Y018796D02*
X022640Y018796D01*
X023160Y018796D02*
X023640Y018796D01*
X023541Y018894D02*
X023259Y018894D01*
X023313Y018993D02*
X023487Y018993D01*
X023450Y019091D02*
X023350Y019091D01*
X023350Y019190D02*
X023450Y019190D01*
X023461Y019288D02*
X023339Y019288D01*
X023298Y019387D02*
X023502Y019387D01*
X023577Y019485D02*
X023223Y019485D01*
X023081Y019584D02*
X023719Y019584D01*
X024850Y019584D02*
X024950Y019584D01*
X024950Y019485D02*
X024850Y019485D01*
X024850Y019387D02*
X024950Y019387D01*
X025363Y019091D02*
X025606Y019091D01*
X025606Y018993D02*
X025336Y018993D01*
X025279Y018894D02*
X025606Y018894D01*
X025606Y018796D02*
X025182Y018796D01*
X024817Y020175D02*
X025606Y020175D01*
X025606Y020273D02*
X025037Y020273D01*
X025154Y020372D02*
X025606Y020372D01*
X025606Y020470D02*
X025271Y020470D01*
X025361Y020569D02*
X025606Y020569D01*
X025606Y020667D02*
X025418Y020667D01*
X025475Y020766D02*
X025606Y020766D01*
X025606Y020864D02*
X025532Y020864D01*
X025566Y020963D02*
X025606Y020963D01*
X025606Y021061D02*
X025584Y021061D01*
X025601Y021160D02*
X025606Y021160D01*
X020227Y022243D02*
X019700Y022243D01*
X019812Y022145D02*
X020106Y022145D01*
X020038Y022046D02*
X019874Y022046D01*
X019909Y021948D02*
X019997Y021948D01*
X019495Y022046D02*
X019395Y022046D01*
X019395Y022145D02*
X019495Y022145D01*
X019495Y022243D02*
X019395Y022243D01*
X019191Y022243D02*
X018663Y022243D01*
X018785Y022145D02*
X019079Y022145D01*
X019017Y022046D02*
X018853Y022046D01*
X018894Y021948D02*
X018981Y021948D01*
X018900Y021931D02*
X018900Y021750D01*
X018831Y021583D01*
X018703Y021455D01*
X019168Y021455D01*
X019067Y021554D02*
X018802Y021554D01*
X018860Y021652D02*
X019008Y021652D01*
X018979Y021751D02*
X018900Y021751D01*
X018703Y021455D02*
X018536Y021386D01*
X018355Y021386D01*
X018188Y021455D01*
X017997Y021948D02*
X017909Y021948D01*
X017874Y022046D02*
X018038Y022046D01*
X018106Y022145D02*
X017812Y022145D01*
X017700Y022243D02*
X018227Y022243D01*
X017495Y022243D02*
X017395Y022243D01*
X017395Y022145D02*
X017495Y022145D01*
X017495Y022046D02*
X017395Y022046D01*
X017191Y022243D02*
X016663Y022243D01*
X016785Y022145D02*
X017079Y022145D01*
X017017Y022046D02*
X016853Y022046D01*
X016894Y021948D02*
X016981Y021948D01*
X017395Y021751D02*
X017495Y021751D01*
X017495Y021652D02*
X017395Y021652D01*
X017395Y021554D02*
X017495Y021554D01*
X019395Y021554D02*
X019495Y021554D01*
X019495Y021652D02*
X019395Y021652D01*
X019395Y021751D02*
X019495Y021751D01*
X014770Y021357D02*
X013363Y021357D01*
X013121Y021160D02*
X012770Y021160D01*
X012847Y021061D02*
X013044Y021061D01*
X013003Y020963D02*
X012887Y020963D01*
X012900Y020864D02*
X012990Y020864D01*
X012990Y020766D02*
X012900Y020766D01*
X012866Y020667D02*
X013025Y020667D01*
X013074Y020569D02*
X012817Y020569D01*
X012718Y020470D02*
X013173Y020470D01*
X012173Y020470D02*
X011989Y020470D01*
X011797Y021160D02*
X011770Y021160D01*
X011627Y021258D02*
X011931Y021258D01*
X011703Y021455D02*
X011831Y021583D01*
X011900Y021750D01*
X011900Y021931D01*
X011894Y021948D02*
X011981Y021948D01*
X012017Y022046D02*
X011853Y022046D01*
X011785Y022145D02*
X012079Y022145D01*
X011979Y021751D02*
X011900Y021751D01*
X011860Y021652D02*
X012008Y021652D01*
X012067Y021554D02*
X011802Y021554D01*
X012824Y021554D02*
X013084Y021554D01*
X013031Y021652D02*
X012882Y021652D01*
X012912Y021751D02*
X012990Y021751D01*
X014627Y021258D02*
X014770Y021258D01*
X011109Y022539D02*
X005988Y022539D01*
X006086Y022440D02*
X010991Y022440D01*
X010865Y022342D02*
X006185Y022342D01*
X005901Y022145D02*
X005812Y022145D01*
X005808Y022150D02*
X005756Y022201D01*
X005844Y022201D01*
X006027Y022019D01*
X005990Y021931D01*
X005990Y021750D01*
X006060Y021583D01*
X006141Y021501D01*
X005778Y021501D01*
X005808Y021531D01*
X005852Y021592D01*
X005885Y021658D01*
X005909Y021730D01*
X005918Y021791D01*
X005495Y021791D01*
X005495Y021891D01*
X005918Y021891D01*
X005909Y021952D01*
X005885Y022023D01*
X005852Y022090D01*
X005808Y022150D01*
X005874Y022046D02*
X006000Y022046D01*
X005997Y021948D02*
X005909Y021948D01*
X005990Y021849D02*
X005495Y021849D01*
X005395Y021849D02*
X004900Y021849D01*
X004900Y021931D02*
X004831Y022099D01*
X004728Y022201D01*
X005134Y022201D01*
X005083Y022150D01*
X005039Y022090D01*
X005005Y022023D01*
X004982Y021952D01*
X004972Y021891D01*
X005395Y021891D01*
X005395Y021791D01*
X004972Y021791D01*
X004982Y021730D01*
X005005Y021658D01*
X005039Y021592D01*
X005083Y021531D01*
X005113Y021501D01*
X005039Y021501D01*
X004868Y021673D01*
X004900Y021750D01*
X004900Y021931D01*
X004894Y021948D02*
X004981Y021948D01*
X005017Y022046D02*
X004853Y022046D01*
X004785Y022145D02*
X005079Y022145D01*
X004979Y021751D02*
X004900Y021751D01*
X004889Y021652D02*
X005008Y021652D01*
X004987Y021554D02*
X005067Y021554D01*
X005824Y021554D02*
X006089Y021554D01*
X006031Y021652D02*
X005882Y021652D01*
X005912Y021751D02*
X005990Y021751D01*
X006663Y022243D02*
X007227Y022243D01*
X007106Y022145D02*
X006785Y022145D01*
X006853Y022046D02*
X007038Y022046D01*
X006997Y021948D02*
X006894Y021948D01*
X006900Y021849D02*
X006990Y021849D01*
X006990Y021751D02*
X006900Y021751D01*
X006860Y021652D02*
X007031Y021652D01*
X007089Y021554D02*
X006802Y021554D01*
X006788Y021141D02*
X007077Y021141D01*
X007039Y021090D01*
X007005Y021023D01*
X006982Y020952D01*
X006972Y020891D01*
X007395Y020891D01*
X007395Y020791D01*
X006972Y020791D01*
X006982Y020730D01*
X007005Y020658D01*
X007039Y020592D01*
X007083Y020531D01*
X007136Y020478D01*
X007196Y020435D01*
X007263Y020401D01*
X007291Y020391D01*
X006550Y020391D01*
X006703Y020455D01*
X006831Y020583D01*
X006900Y020750D01*
X006900Y020931D01*
X006831Y021099D01*
X006788Y021141D01*
X006847Y021061D02*
X007024Y021061D01*
X006985Y020963D02*
X006887Y020963D01*
X006900Y020864D02*
X007395Y020864D01*
X007495Y020864D02*
X007990Y020864D01*
X007990Y020931D02*
X007990Y020750D01*
X008060Y020583D01*
X008188Y020455D01*
X008341Y020391D01*
X007600Y020391D01*
X007628Y020401D01*
X007694Y020435D01*
X007755Y020478D01*
X007808Y020531D01*
X007852Y020592D01*
X007885Y020658D01*
X007909Y020730D01*
X007918Y020791D01*
X007495Y020791D01*
X007495Y020891D01*
X007918Y020891D01*
X007909Y020952D01*
X007885Y021023D01*
X007852Y021090D01*
X007814Y021141D01*
X008103Y021141D01*
X008060Y021099D01*
X007990Y020931D01*
X008003Y020963D02*
X007905Y020963D01*
X007866Y021061D02*
X008044Y021061D01*
X007990Y020766D02*
X007914Y020766D01*
X007888Y020667D02*
X008025Y020667D01*
X008074Y020569D02*
X007835Y020569D01*
X007743Y020470D02*
X008173Y020470D01*
X007147Y020470D02*
X006718Y020470D01*
X006817Y020569D02*
X007056Y020569D01*
X007002Y020667D02*
X006866Y020667D01*
X006900Y020766D02*
X006976Y020766D01*
X007802Y021554D02*
X008089Y021554D01*
X008031Y021652D02*
X007860Y021652D01*
X007900Y021751D02*
X007990Y021751D01*
X007990Y021849D02*
X007900Y021849D01*
X007894Y021948D02*
X007997Y021948D01*
X008038Y022046D02*
X007853Y022046D01*
X007785Y022145D02*
X008106Y022145D01*
X008227Y022243D02*
X007663Y022243D01*
X008663Y022243D02*
X009191Y022243D01*
X009196Y022247D02*
X009136Y022203D01*
X009083Y022150D01*
X009039Y022090D01*
X009005Y022023D01*
X008982Y021952D01*
X008972Y021891D01*
X009395Y021891D01*
X009395Y022314D01*
X009334Y022304D01*
X009263Y022281D01*
X009196Y022247D01*
X009079Y022145D02*
X008785Y022145D01*
X008853Y022046D02*
X009017Y022046D01*
X008981Y021948D02*
X008894Y021948D01*
X008900Y021849D02*
X009395Y021849D01*
X009395Y021948D02*
X009495Y021948D01*
X009495Y021891D02*
X009495Y022314D01*
X009557Y022304D01*
X009628Y022281D01*
X009694Y022247D01*
X009755Y022203D01*
X009808Y022150D01*
X009852Y022090D01*
X009885Y022023D01*
X009909Y021952D01*
X009918Y021891D01*
X009495Y021891D01*
X009495Y021849D02*
X009990Y021849D01*
X009990Y021751D02*
X009912Y021751D01*
X009882Y021652D02*
X010031Y021652D01*
X010089Y021554D02*
X009824Y021554D01*
X009909Y021948D02*
X009997Y021948D01*
X010038Y022046D02*
X009874Y022046D01*
X009812Y022145D02*
X010106Y022145D01*
X010227Y022243D02*
X009700Y022243D01*
X009495Y022243D02*
X009395Y022243D01*
X009395Y022145D02*
X009495Y022145D01*
X009495Y022046D02*
X009395Y022046D01*
X008979Y021751D02*
X008900Y021751D01*
X008860Y021652D02*
X009008Y021652D01*
X009067Y021554D02*
X008802Y021554D01*
X010663Y022243D02*
X010770Y022243D01*
X006640Y018796D02*
X006182Y018796D01*
X006279Y018894D02*
X006541Y018894D01*
X006487Y018993D02*
X006336Y018993D01*
X006363Y019091D02*
X006450Y019091D01*
X005950Y019387D02*
X005850Y019387D01*
X005850Y019485D02*
X005950Y019485D01*
X005950Y019584D02*
X005850Y019584D01*
D18*
X015150Y008471D03*
X016950Y006221D03*
X013850Y005171D03*
X011650Y004921D03*
D19*
X011650Y006621D01*
X015150Y008471D01*
X015900Y008771D02*
X015900Y005821D01*
X015500Y005421D01*
X015900Y005021D02*
X016950Y006071D01*
X016950Y006221D01*
X015900Y005021D02*
X013900Y005021D01*
X013850Y005171D01*
X011250Y006971D02*
X011250Y012421D01*
X010650Y012371D02*
X010650Y006921D01*
X019550Y015471D02*
X019750Y015471D01*
X019950Y015671D01*
X019950Y016271D01*
X017400Y018671D01*
X017400Y019471D01*
X016950Y019871D01*
X016950Y021336D01*
X016445Y021841D01*
X016445Y020841D02*
X016450Y017271D01*
X017750Y015971D01*
X021900Y019171D02*
X021900Y019386D01*
X020445Y020841D01*
X013445Y021841D02*
X013176Y021371D01*
X012450Y021371D01*
X011950Y021071D01*
X011950Y020671D01*
X010900Y019621D01*
X010900Y019171D01*
X011015Y020221D02*
X011445Y020841D01*
X011015Y020221D02*
X003850Y020221D01*
X003445Y020817D01*
X002900Y022121D02*
X002900Y019171D01*
X002900Y022121D02*
X003150Y022371D01*
X005915Y022371D01*
X006445Y021841D01*
D20*
X010650Y012371D03*
X011250Y012421D03*
X015900Y008771D03*
X015500Y005421D03*
X011250Y006971D03*
X010650Y006921D03*
X019550Y015471D03*
X017750Y015971D03*
M02*
