G75*
%MOIN*%
%OFA0B0*%
%FSLAX24Y24*%
%IPPOS*%
%LPD*%
%AMOC8*
5,1,8,0,0,1.08239X$1,22.5*
%
%ADD10C,0.0100*%
%ADD11C,0.0080*%
%ADD12C,0.0010*%
D10*
X003045Y019519D02*
X003795Y019519D01*
D11*
X002945Y019819D02*
X002945Y021819D01*
X022945Y021819D01*
X022945Y019819D01*
X002945Y019819D01*
D12*
X001140Y006770D02*
X001140Y006700D01*
X001400Y006700D01*
X001400Y007090D01*
X001140Y007090D01*
X001140Y007010D01*
X000770Y006920D01*
X000770Y007030D01*
X000740Y007030D01*
X000740Y007190D01*
X000720Y007190D01*
X000720Y007080D01*
X000590Y007080D01*
X000590Y007320D01*
X000720Y007320D01*
X000720Y007190D01*
X000740Y007190D01*
X000740Y007380D01*
X000770Y007380D01*
X000770Y007490D01*
X001140Y007380D01*
X001140Y007320D01*
X001400Y007320D01*
X001400Y007700D01*
X001140Y007700D01*
X001140Y007640D01*
X000530Y007640D01*
X000370Y007480D01*
X000370Y006930D01*
X000520Y006770D01*
X001140Y006770D01*
X001140Y006763D02*
X001400Y006763D01*
X001400Y006755D02*
X001140Y006755D01*
X001140Y006746D02*
X001400Y006746D01*
X001400Y006738D02*
X001140Y006738D01*
X001140Y006729D02*
X001400Y006729D01*
X001400Y006721D02*
X001140Y006721D01*
X001140Y006712D02*
X001400Y006712D01*
X001400Y006704D02*
X001140Y006704D01*
X001400Y006772D02*
X000518Y006772D01*
X000510Y006780D02*
X001400Y006780D01*
X001400Y006789D02*
X000502Y006789D01*
X000495Y006797D02*
X001400Y006797D01*
X001400Y006806D02*
X000487Y006806D01*
X000479Y006814D02*
X001400Y006814D01*
X001400Y006823D02*
X000471Y006823D01*
X000463Y006831D02*
X001400Y006831D01*
X001400Y006840D02*
X000455Y006840D01*
X000447Y006848D02*
X001400Y006848D01*
X001400Y006857D02*
X000439Y006857D01*
X000431Y006865D02*
X001400Y006865D01*
X001400Y006874D02*
X000423Y006874D01*
X000415Y006882D02*
X001400Y006882D01*
X001400Y006891D02*
X000407Y006891D01*
X000399Y006899D02*
X001400Y006899D01*
X001400Y006908D02*
X000391Y006908D01*
X000383Y006916D02*
X001400Y006916D01*
X001400Y006925D02*
X000789Y006925D01*
X000770Y006925D02*
X000375Y006925D01*
X000370Y006933D02*
X000770Y006933D01*
X000770Y006942D02*
X000370Y006942D01*
X000370Y006950D02*
X000770Y006950D01*
X000770Y006959D02*
X000370Y006959D01*
X000370Y006967D02*
X000770Y006967D01*
X000770Y006976D02*
X000370Y006976D01*
X000370Y006984D02*
X000770Y006984D01*
X000770Y006993D02*
X000370Y006993D01*
X000370Y007001D02*
X000770Y007001D01*
X000770Y007010D02*
X000370Y007010D01*
X000370Y007018D02*
X000770Y007018D01*
X000770Y007027D02*
X000370Y007027D01*
X000370Y007035D02*
X000740Y007035D01*
X000740Y007044D02*
X000370Y007044D01*
X000370Y007052D02*
X000740Y007052D01*
X000740Y007061D02*
X000370Y007061D01*
X000370Y007069D02*
X000740Y007069D01*
X000740Y007078D02*
X000370Y007078D01*
X000370Y007086D02*
X000590Y007086D01*
X000590Y007095D02*
X000370Y007095D01*
X000370Y007103D02*
X000590Y007103D01*
X000590Y007112D02*
X000370Y007112D01*
X000370Y007120D02*
X000590Y007120D01*
X000590Y007129D02*
X000370Y007129D01*
X000370Y007137D02*
X000590Y007137D01*
X000590Y007146D02*
X000370Y007146D01*
X000370Y007154D02*
X000590Y007154D01*
X000590Y007163D02*
X000370Y007163D01*
X000370Y007171D02*
X000590Y007171D01*
X000590Y007180D02*
X000370Y007180D01*
X000370Y007188D02*
X000590Y007188D01*
X000590Y007197D02*
X000370Y007197D01*
X000370Y007205D02*
X000590Y007205D01*
X000590Y007214D02*
X000370Y007214D01*
X000370Y007222D02*
X000590Y007222D01*
X000590Y007231D02*
X000370Y007231D01*
X000370Y007239D02*
X000590Y007239D01*
X000590Y007248D02*
X000370Y007248D01*
X000370Y007256D02*
X000590Y007256D01*
X000590Y007265D02*
X000370Y007265D01*
X000370Y007273D02*
X000590Y007273D01*
X000590Y007282D02*
X000370Y007282D01*
X000370Y007290D02*
X000590Y007290D01*
X000590Y007299D02*
X000370Y007299D01*
X000370Y007307D02*
X000590Y007307D01*
X000590Y007316D02*
X000370Y007316D01*
X000370Y007324D02*
X000740Y007324D01*
X000740Y007316D02*
X000720Y007316D01*
X000720Y007307D02*
X000740Y007307D01*
X000740Y007299D02*
X000720Y007299D01*
X000720Y007290D02*
X000740Y007290D01*
X000740Y007282D02*
X000720Y007282D01*
X000720Y007273D02*
X000740Y007273D01*
X000740Y007265D02*
X000720Y007265D01*
X000720Y007256D02*
X000740Y007256D01*
X000740Y007248D02*
X000720Y007248D01*
X000720Y007239D02*
X000740Y007239D01*
X000740Y007231D02*
X000720Y007231D01*
X000720Y007222D02*
X000740Y007222D01*
X000740Y007214D02*
X000720Y007214D01*
X000720Y007205D02*
X000740Y007205D01*
X000740Y007197D02*
X000720Y007197D01*
X000720Y007188D02*
X000740Y007188D01*
X000740Y007180D02*
X000720Y007180D01*
X000720Y007171D02*
X000740Y007171D01*
X000740Y007163D02*
X000720Y007163D01*
X000720Y007154D02*
X000740Y007154D01*
X000740Y007146D02*
X000720Y007146D01*
X000720Y007137D02*
X000740Y007137D01*
X000740Y007129D02*
X000720Y007129D01*
X000720Y007120D02*
X000740Y007120D01*
X000740Y007112D02*
X000720Y007112D01*
X000720Y007103D02*
X000740Y007103D01*
X000740Y007095D02*
X000720Y007095D01*
X000720Y007086D02*
X000740Y007086D01*
X000824Y006933D02*
X001400Y006933D01*
X001400Y006942D02*
X000859Y006942D01*
X000894Y006950D02*
X001400Y006950D01*
X001400Y006959D02*
X000929Y006959D01*
X000964Y006967D02*
X001400Y006967D01*
X001400Y006976D02*
X000999Y006976D01*
X001034Y006984D02*
X001400Y006984D01*
X001400Y006993D02*
X001069Y006993D01*
X001104Y007001D02*
X001400Y007001D01*
X001400Y007010D02*
X001139Y007010D01*
X001140Y007018D02*
X001400Y007018D01*
X001400Y007027D02*
X001140Y007027D01*
X001140Y007035D02*
X001400Y007035D01*
X001400Y007044D02*
X001140Y007044D01*
X001140Y007052D02*
X001400Y007052D01*
X001400Y007061D02*
X001140Y007061D01*
X001140Y007069D02*
X001400Y007069D01*
X001400Y007078D02*
X001140Y007078D01*
X001140Y007086D02*
X001400Y007086D01*
X001400Y007324D02*
X001140Y007324D01*
X001140Y007333D02*
X001400Y007333D01*
X001400Y007341D02*
X001140Y007341D01*
X001140Y007350D02*
X001400Y007350D01*
X001400Y007358D02*
X001140Y007358D01*
X001140Y007367D02*
X001400Y007367D01*
X001400Y007375D02*
X001140Y007375D01*
X001128Y007384D02*
X001400Y007384D01*
X001400Y007392D02*
X001099Y007392D01*
X001070Y007401D02*
X001400Y007401D01*
X001400Y007409D02*
X001042Y007409D01*
X001013Y007418D02*
X001400Y007418D01*
X001400Y007426D02*
X000985Y007426D01*
X000956Y007435D02*
X001400Y007435D01*
X001400Y007443D02*
X000927Y007443D01*
X000899Y007452D02*
X001400Y007452D01*
X001400Y007460D02*
X000870Y007460D01*
X000842Y007469D02*
X001400Y007469D01*
X001400Y007477D02*
X000813Y007477D01*
X000784Y007486D02*
X001400Y007486D01*
X001400Y007494D02*
X000384Y007494D01*
X000376Y007486D02*
X000770Y007486D01*
X000770Y007477D02*
X000370Y007477D01*
X000370Y007469D02*
X000770Y007469D01*
X000770Y007460D02*
X000370Y007460D01*
X000370Y007452D02*
X000770Y007452D01*
X000770Y007443D02*
X000370Y007443D01*
X000370Y007435D02*
X000770Y007435D01*
X000770Y007426D02*
X000370Y007426D01*
X000370Y007418D02*
X000770Y007418D01*
X000770Y007409D02*
X000370Y007409D01*
X000370Y007401D02*
X000770Y007401D01*
X000770Y007392D02*
X000370Y007392D01*
X000370Y007384D02*
X000770Y007384D01*
X000740Y007375D02*
X000370Y007375D01*
X000370Y007367D02*
X000740Y007367D01*
X000740Y007358D02*
X000370Y007358D01*
X000370Y007350D02*
X000740Y007350D01*
X000740Y007341D02*
X000370Y007341D01*
X000370Y007333D02*
X000740Y007333D01*
X000478Y007588D02*
X001400Y007588D01*
X001400Y007596D02*
X000486Y007596D01*
X000495Y007605D02*
X001400Y007605D01*
X001400Y007613D02*
X000503Y007613D01*
X000512Y007622D02*
X001400Y007622D01*
X001400Y007630D02*
X000520Y007630D01*
X000529Y007639D02*
X001400Y007639D01*
X001400Y007647D02*
X001140Y007647D01*
X001140Y007656D02*
X001400Y007656D01*
X001400Y007664D02*
X001140Y007664D01*
X001140Y007673D02*
X001400Y007673D01*
X001400Y007681D02*
X001140Y007681D01*
X001140Y007690D02*
X001400Y007690D01*
X001400Y007698D02*
X001140Y007698D01*
X001400Y007579D02*
X000469Y007579D01*
X000461Y007571D02*
X001400Y007571D01*
X001400Y007562D02*
X000452Y007562D01*
X000444Y007554D02*
X001400Y007554D01*
X001400Y007545D02*
X000435Y007545D01*
X000427Y007537D02*
X001400Y007537D01*
X001400Y007528D02*
X000418Y007528D01*
X000410Y007520D02*
X001400Y007520D01*
X001400Y007511D02*
X000401Y007511D01*
X000393Y007503D02*
X001400Y007503D01*
M02*
