%
M48
M72
T01C0.0150
T02C0.0200
T03C0.0400
T04C0.1102
%
T01
X24550Y5900
X25250Y15650
T02
X24450Y15000
X24450Y14300
X24800Y11600
X24050Y11600
X14650Y15000
X12550Y14300
T03
X12900Y13650
X11900Y13650
X10900Y13650
X9900Y13650
X8900Y13650
X7900Y13650
X6900Y13650
X5900Y13650
X4900Y13650
X3900Y13650
X2900Y13650
X2900Y12650
X2900Y11650
X3900Y11650
X4900Y11650
X4900Y12650
X3900Y12650
X5900Y12650
X5900Y11650
X6900Y11650
X6900Y12650
X7900Y12650
X7900Y11650
X8900Y11650
X8900Y12650
X9900Y12650
X9900Y11650
X10900Y11650
X11900Y11650
X11900Y12650
X10900Y12650
X12900Y12650
X12900Y11650
X13900Y11650
X13900Y12650
X14900Y12650
X14900Y11650
X15900Y11650
X15900Y12650
X16900Y12650
X16900Y11650
X17900Y11650
X18900Y11650
X18900Y12650
X17900Y12650
X17900Y13650
X18900Y13650
X19900Y13650
X20900Y13650
X20900Y12650
X20900Y11650
X19900Y11650
X19900Y12650
X19900Y10650
X19900Y9650
X18900Y9650
X17900Y9650
X17900Y10650
X18900Y10650
X16900Y10650
X16900Y9650
X15900Y9650
X15900Y10650
X14900Y10650
X14900Y9650
X13900Y9650
X13900Y10650
X12900Y10650
X12900Y9650
X11900Y9650
X10900Y9650
X10900Y10650
X11900Y10650
X9900Y10650
X9900Y9650
X8900Y9650
X8900Y10650
X7900Y10650
X7900Y9650
X6900Y9650
X6900Y10650
X5900Y10650
X5900Y9650
X4900Y9650
X3900Y9650
X3900Y10650
X4900Y10650
X2900Y10650
X2900Y9650
X2900Y7650
X3900Y7650
X4900Y7650
X5900Y7650
X6900Y7650
X7900Y7650
X8900Y7650
X9900Y7650
X10900Y7650
X11900Y7650
X12900Y7650
X13900Y7650
X14900Y7650
X15900Y7650
X15900Y6650
X15900Y5650
X14900Y5650
X14900Y6650
X13900Y6650
X13900Y5650
X12900Y5650
X12900Y6650
X11900Y6650
X10900Y6650
X10900Y5650
X11900Y5650
X11900Y4650
X10900Y4650
X10900Y3650
X11900Y3650
X12900Y3650
X12900Y4650
X13900Y4650
X13900Y3650
X14900Y3650
X14900Y4650
X15900Y4650
X15900Y3650
X15900Y2150
X15900Y1150
X14900Y1150
X14900Y2150
X13900Y2150
X13900Y1150
X12900Y1150
X12900Y2150
X11900Y2150
X10900Y2150
X10900Y1150
X11900Y1150
X9900Y1150
X9900Y2150
X8900Y2150
X8900Y1150
X7900Y1150
X7900Y2150
X6900Y2150
X6900Y1150
X5900Y1150
X5900Y2150
X4900Y2150
X4900Y1150
X4900Y3650
X3900Y3650
X3900Y4650
X4900Y4650
X5900Y4650
X5900Y3650
X6900Y3650
X6900Y4650
X7900Y4650
X7900Y3650
X8900Y3650
X8900Y4650
X9900Y4650
X9900Y3650
X9900Y5650
X9900Y6650
X8900Y6650
X8900Y5650
X7900Y5650
X7900Y6650
X6900Y6650
X6900Y5650
X5900Y5650
X5900Y6650
X4900Y6650
X3900Y6650
X3900Y5650
X4900Y5650
X2900Y5650
X2900Y6650
X2900Y4650
X2900Y3650
X13900Y13650
X14900Y13650
X15900Y13650
X16900Y13650
X16900Y15650
X16900Y16650
X16900Y17650
X15900Y17650
X15900Y16650
X15900Y15650
X14900Y15650
X14900Y16650
X14900Y17650
X13900Y17650
X13900Y16650
X13900Y15650
X12900Y15650
X12900Y16650
X12900Y17650
X11900Y17650
X10900Y17650
X10900Y16650
X11900Y16650
X11900Y15650
X10900Y15650
X9900Y15650
X9900Y16650
X9900Y17650
X8900Y17650
X8900Y16650
X8900Y15650
X7900Y15650
X7900Y16650
X7900Y17650
X6900Y17650
X6900Y16650
X6900Y15650
X5900Y15650
X5900Y16650
X5900Y17650
X4900Y17650
X3900Y17650
X3900Y16650
X4900Y16650
X4900Y15650
X3900Y15650
X2900Y15650
X2900Y16650
X2900Y17650
X1900Y17650
X900Y17650
X3445Y20319
X4445Y20319
X5445Y20319
X6445Y20319
X7445Y20319
X8445Y20319
X9445Y20319
X10445Y20319
X11445Y20319
X12445Y20319
X13445Y20319
X14445Y20319
X15445Y20319
X16445Y20319
X17445Y20319
X18445Y20319
X19445Y20319
X20445Y20319
X21445Y20319
X22445Y20319
X22445Y21319
X21445Y21319
X20445Y21319
X19445Y21319
X18445Y21319
X17445Y21319
X16445Y21319
X15445Y21319
X14445Y21319
X13445Y21319
X12445Y21319
X11445Y21319
X10445Y21319
X9445Y21319
X8445Y21319
X7445Y21319
X6445Y21319
X5445Y21319
X4445Y21319
X3445Y21319
X17900Y17650
X18900Y17650
X18900Y16650
X17900Y16650
X17900Y15650
X18900Y15650
X19900Y15650
X19900Y16650
X19900Y17650
X20900Y17650
X20900Y16650
X20900Y15650
X21900Y17650
X22900Y17650
X23900Y17650
X24900Y17650
X20900Y10650
X20900Y9650
X20900Y7650
X19900Y7650
X18900Y7650
X18900Y6650
X18900Y5650
X19900Y5650
X19900Y6650
X20900Y6650
X20900Y5650
X20900Y4650
X20900Y3650
X19900Y3650
X19900Y4650
X18900Y4650
X18900Y3650
X18900Y2150
X18900Y1150
X19900Y1150
X19900Y2150
X20900Y2150
X20900Y1150
T04
X1528Y1528
X1528Y20819
X24363Y20819
X24363Y1528
M30
