%
M48
M72
T01C0.0197
T02C0.0200
T03C0.0400
T04C0.1102
%
T01
X10650Y6921
X11250Y6971
X15500Y5421
X15900Y8771
X11250Y12421
X10650Y12371
X17750Y15971
X19550Y15471
T02
X15150Y8471
X16950Y6221
X13850Y5171
X11650Y4921
T03
X12142Y1557
X10764Y1557
X9189Y1557
X7811Y1557
X6433Y1557
X13520Y1557
X15095Y1557
X16473Y1557
X18048Y1557
X19426Y1557
X19900Y19171
X18900Y19171
X17900Y19171
X16900Y19171
X15900Y19171
X14900Y19171
X13900Y19171
X12900Y19171
X11900Y19171
X10900Y19171
X9900Y19171
X8900Y19171
X7900Y19171
X6900Y19171
X5900Y19171
X4900Y19171
X3900Y19171
X2900Y19171
X1900Y19171
X900Y19171
X3445Y20841
X3445Y21841
X4445Y21841
X5445Y21841
X5445Y20841
X4445Y20841
X6445Y20841
X6445Y21841
X7445Y21841
X7445Y20841
X8445Y20841
X8445Y21841
X9445Y21841
X9445Y20841
X10445Y20841
X10445Y21841
X11445Y21841
X12445Y21841
X12445Y20841
X11445Y20841
X13445Y20841
X13445Y21841
X14445Y21841
X14445Y20841
X15445Y20841
X15445Y21841
X16445Y21841
X16445Y20841
X17445Y20841
X17445Y21841
X18445Y21841
X19445Y21841
X19445Y20841
X18445Y20841
X20445Y20841
X20445Y21841
X21445Y21841
X21445Y20841
X22445Y20841
X22445Y21841
X22900Y19171
X21900Y19171
X20900Y19171
X23900Y19171
X24900Y19171
T04
X1528Y2049
X1528Y21341
X24363Y21341
X24363Y2049
M30
