G75*
%MOIN*%
%OFA0B0*%
%FSLAX24Y24*%
%IPPOS*%
%LPD*%
%AMOC8*
5,1,8,0,0,1.08239X$1,22.5*
%
%ADD10C,0.0050*%
%ADD11C,0.0030*%
%ADD12C,0.0120*%
%ADD13C,0.0040*%
%ADD14C,0.0060*%
%ADD15C,0.0100*%
%ADD16C,0.0080*%
%ADD17C,0.0010*%
D10*
X006400Y003183D02*
X006667Y003450D01*
X006667Y003183D01*
X006600Y003116D01*
X006467Y003116D01*
X006400Y003183D01*
X006400Y003450D01*
X006467Y003517D01*
X006600Y003517D01*
X006667Y003450D01*
X006814Y003450D02*
X006881Y003517D01*
X007015Y003517D01*
X007081Y003450D01*
X006814Y003183D01*
X006881Y003116D01*
X007015Y003116D01*
X007081Y003183D01*
X007081Y003450D01*
X006814Y003450D02*
X006814Y003183D01*
X007900Y003183D02*
X008167Y003450D01*
X008167Y003183D01*
X008100Y003116D01*
X007967Y003116D01*
X007900Y003183D01*
X007900Y003450D01*
X007967Y003517D01*
X008100Y003517D01*
X008167Y003450D01*
X008314Y003383D02*
X008448Y003517D01*
X008448Y003116D01*
X008581Y003116D02*
X008314Y003116D01*
X009300Y003183D02*
X009567Y003450D01*
X009567Y003183D01*
X009500Y003116D01*
X009367Y003116D01*
X009300Y003183D01*
X009300Y003450D01*
X009367Y003517D01*
X009500Y003517D01*
X009567Y003450D01*
X009714Y003450D02*
X009781Y003517D01*
X009915Y003517D01*
X009981Y003450D01*
X009981Y003383D01*
X009714Y003116D01*
X009981Y003116D01*
X010700Y003183D02*
X010967Y003450D01*
X010967Y003183D01*
X010900Y003116D01*
X010767Y003116D01*
X010700Y003183D01*
X010700Y003450D01*
X010767Y003517D01*
X010900Y003517D01*
X010967Y003450D01*
X011114Y003450D02*
X011181Y003517D01*
X011315Y003517D01*
X011381Y003450D01*
X011381Y003383D01*
X011315Y003316D01*
X011381Y003250D01*
X011381Y003183D01*
X011315Y003116D01*
X011181Y003116D01*
X011114Y003183D01*
X011248Y003316D02*
X011315Y003316D01*
X012200Y003316D02*
X012467Y003316D01*
X012467Y003383D02*
X012467Y003116D01*
X012614Y003183D02*
X012881Y003450D01*
X012881Y003183D01*
X012815Y003116D01*
X012681Y003116D01*
X012614Y003183D01*
X012614Y003450D01*
X012681Y003517D01*
X012815Y003517D01*
X012881Y003450D01*
X012467Y003383D02*
X012333Y003517D01*
X012200Y003383D01*
X012200Y003116D01*
X013550Y003116D02*
X013550Y003383D01*
X013683Y003517D01*
X013817Y003383D01*
X013817Y003116D01*
X013964Y003116D02*
X014231Y003116D01*
X014098Y003116D02*
X014098Y003517D01*
X013964Y003383D01*
X013817Y003316D02*
X013550Y003316D01*
X015035Y003227D02*
X015035Y003094D01*
X015101Y003027D01*
X015168Y003027D01*
X015235Y003094D01*
X015235Y003227D01*
X015302Y003294D01*
X015368Y003294D01*
X015435Y003227D01*
X015435Y003094D01*
X015368Y003027D01*
X015101Y003294D02*
X015035Y003227D01*
X015101Y003441D02*
X015035Y003508D01*
X015035Y003641D01*
X015101Y003708D01*
X015035Y003856D02*
X015435Y003856D01*
X015435Y004122D01*
X015368Y003708D02*
X015435Y003641D01*
X015435Y003508D01*
X015368Y003441D01*
X015101Y003441D01*
X016485Y003441D02*
X016485Y003641D01*
X016551Y003708D01*
X016818Y003708D01*
X016885Y003641D01*
X016885Y003441D01*
X016485Y003441D01*
X016551Y003294D02*
X016485Y003227D01*
X016485Y003094D01*
X016551Y003027D01*
X016618Y003027D01*
X016685Y003094D01*
X016685Y003227D01*
X016752Y003294D01*
X016818Y003294D01*
X016885Y003227D01*
X016885Y003094D01*
X016818Y003027D01*
X016885Y003856D02*
X016618Y003856D01*
X016485Y003989D01*
X016618Y004122D01*
X016885Y004122D01*
X016685Y004122D02*
X016685Y003856D01*
X017835Y003856D02*
X017835Y004056D01*
X017901Y004122D01*
X018168Y004122D01*
X018235Y004056D01*
X018235Y003856D01*
X017835Y003856D01*
X017835Y003708D02*
X018235Y003708D01*
X017835Y003441D01*
X018235Y003441D01*
X018168Y003294D02*
X018035Y003294D01*
X018035Y003160D01*
X018168Y003027D02*
X018235Y003094D01*
X018235Y003227D01*
X018168Y003294D01*
X017901Y003294D02*
X017835Y003227D01*
X017835Y003094D01*
X017901Y003027D01*
X018168Y003027D01*
X019160Y003027D02*
X019360Y003027D01*
X019293Y003160D01*
X019293Y003227D01*
X019360Y003294D01*
X019493Y003294D01*
X019560Y003227D01*
X019560Y003094D01*
X019493Y003027D01*
X019160Y003027D02*
X019160Y003294D01*
X019160Y003441D02*
X019427Y003441D01*
X019560Y003575D01*
X019427Y003708D01*
X019160Y003708D01*
X020635Y003708D02*
X020902Y003708D01*
X021035Y003575D01*
X020902Y003441D01*
X020635Y003441D01*
X020701Y003294D02*
X020768Y003294D01*
X020835Y003227D01*
X020902Y003294D01*
X020968Y003294D01*
X021035Y003227D01*
X021035Y003094D01*
X020968Y003027D01*
X020835Y003160D02*
X020835Y003227D01*
X020701Y003294D02*
X020635Y003227D01*
X020635Y003094D01*
X020701Y003027D01*
X020701Y003856D02*
X020635Y003922D01*
X020635Y004056D01*
X020701Y004122D01*
X020768Y004122D01*
X020835Y004056D01*
X020902Y004122D01*
X020968Y004122D01*
X021035Y004056D01*
X021035Y003922D01*
X020968Y003856D01*
X020835Y003989D02*
X020835Y004056D01*
X023163Y004112D02*
X023163Y004337D01*
X023238Y004412D01*
X023538Y004412D01*
X023613Y004337D01*
X023613Y004112D01*
X023163Y004112D01*
X023238Y003952D02*
X023163Y003877D01*
X023163Y003652D01*
X023613Y003652D01*
X023613Y003877D01*
X023538Y003952D01*
X023238Y003952D01*
X023313Y003492D02*
X023613Y003492D01*
X023388Y003492D02*
X023388Y003191D01*
X023313Y003191D02*
X023613Y003191D01*
X023313Y003191D02*
X023163Y003342D01*
X023313Y003492D01*
X023313Y004573D02*
X023163Y004723D01*
X023313Y004873D01*
X023613Y004873D01*
X023388Y004873D02*
X023388Y004573D01*
X023313Y004573D02*
X023613Y004573D01*
X023613Y005493D02*
X023163Y005493D01*
X023388Y005493D02*
X023388Y005794D01*
X023388Y005954D02*
X023388Y006254D01*
X023313Y006254D02*
X023613Y006254D01*
X023313Y006254D02*
X023163Y006104D01*
X023313Y005954D01*
X023613Y005954D01*
X023613Y005794D02*
X023163Y005794D01*
X023163Y006414D02*
X023163Y006714D01*
X023163Y006564D02*
X023613Y006564D01*
X023388Y007335D02*
X023388Y007485D01*
X023388Y007642D02*
X023313Y007717D01*
X023313Y007867D01*
X023388Y007942D01*
X023538Y007942D01*
X023613Y007867D01*
X023613Y007717D01*
X023538Y007642D01*
X023388Y007642D01*
X023163Y007485D02*
X023238Y007410D01*
X023613Y007410D01*
X023613Y008102D02*
X023313Y008102D01*
X023463Y008102D02*
X023313Y008252D01*
X023313Y008327D01*
X023163Y008946D02*
X023163Y009171D01*
X023238Y009247D01*
X023388Y009247D01*
X023463Y009171D01*
X023463Y008946D01*
X023613Y008946D02*
X023163Y008946D01*
X023463Y009096D02*
X023613Y009247D01*
X023538Y009407D02*
X023463Y009482D01*
X023463Y009707D01*
X023388Y009707D02*
X023613Y009707D01*
X023613Y009482D01*
X023538Y009407D01*
X023313Y009482D02*
X023313Y009632D01*
X023388Y009707D01*
X023388Y009867D02*
X023313Y009942D01*
X023313Y010167D01*
X023313Y010327D02*
X023313Y010553D01*
X023388Y010628D01*
X023538Y010628D01*
X023613Y010553D01*
X023613Y010327D01*
X023763Y010327D02*
X023313Y010327D01*
X023538Y010167D02*
X023463Y010092D01*
X023463Y009942D01*
X023388Y009867D01*
X023613Y009867D02*
X023613Y010092D01*
X023538Y010167D01*
X023613Y010788D02*
X023163Y010788D01*
X023313Y010788D02*
X023313Y011013D01*
X023388Y011088D01*
X023538Y011088D01*
X023613Y011013D01*
X023613Y010788D01*
X023538Y011248D02*
X023388Y011248D01*
X023313Y011323D01*
X023313Y011473D01*
X023388Y011549D01*
X023463Y011549D01*
X023463Y011248D01*
X023538Y011248D02*
X023613Y011323D01*
X023613Y011473D01*
X023613Y011709D02*
X023313Y011709D01*
X023313Y011859D02*
X023313Y011934D01*
X023313Y011859D02*
X023463Y011709D01*
X023463Y012092D02*
X023313Y012242D01*
X023313Y012318D01*
X023313Y012476D02*
X023538Y012476D01*
X023613Y012551D01*
X023613Y012776D01*
X023688Y012776D02*
X023313Y012776D01*
X023688Y012776D02*
X023763Y012701D01*
X023763Y012626D01*
X023613Y012092D02*
X023313Y012092D01*
X023163Y013397D02*
X023163Y013622D01*
X023238Y013697D01*
X023388Y013697D01*
X023463Y013622D01*
X023463Y013397D01*
X023613Y013397D02*
X023163Y013397D01*
X023313Y013857D02*
X023313Y013932D01*
X023613Y013932D01*
X023613Y013857D02*
X023613Y014007D01*
X023163Y013932D02*
X023088Y013932D01*
X023313Y014624D02*
X023163Y014775D01*
X023313Y014925D01*
X023613Y014925D01*
X023388Y014925D02*
X023388Y014624D01*
X023313Y014624D02*
X023613Y014624D01*
X023388Y015085D02*
X023388Y015385D01*
X023238Y015235D02*
X023538Y015235D01*
X023613Y015545D02*
X023163Y015846D01*
X023163Y016006D02*
X023163Y016231D01*
X023238Y016306D01*
X023313Y016306D01*
X023388Y016231D01*
X023388Y016006D01*
X023388Y016231D02*
X023463Y016306D01*
X023538Y016306D01*
X023613Y016231D01*
X023613Y016006D01*
X023163Y016006D01*
X023388Y016466D02*
X023388Y016766D01*
X023238Y016616D02*
X023538Y016616D01*
X023613Y016926D02*
X023163Y017227D01*
X023238Y017387D02*
X023163Y017462D01*
X023163Y017612D01*
X023238Y017687D01*
X023313Y017687D01*
X023613Y017387D01*
X023613Y017687D01*
X023564Y018227D02*
X023864Y018527D01*
X023864Y018602D01*
X023789Y018677D01*
X023639Y018677D01*
X023564Y018602D01*
X023564Y018227D02*
X023864Y018227D01*
X024025Y018227D02*
X024325Y018227D01*
X024175Y018227D02*
X024175Y018677D01*
X024025Y018527D01*
X024379Y019627D02*
X024529Y019627D01*
X024604Y019702D01*
X024604Y019852D01*
X024454Y019852D01*
X024604Y020002D02*
X024529Y020077D01*
X024379Y020077D01*
X024304Y020002D01*
X024304Y019702D01*
X024379Y019627D01*
X024764Y019627D02*
X024764Y020077D01*
X025064Y019627D01*
X025064Y020077D01*
X025225Y020077D02*
X025450Y020077D01*
X025525Y020002D01*
X025525Y019702D01*
X025450Y019627D01*
X025225Y019627D01*
X025225Y020077D01*
X023325Y020002D02*
X023325Y019702D01*
X023250Y019627D01*
X023100Y019627D01*
X023025Y019702D01*
X023325Y020002D01*
X023250Y020077D01*
X023100Y020077D01*
X023025Y020002D01*
X023025Y019702D01*
X022864Y019627D02*
X022564Y019627D01*
X022864Y019927D01*
X022864Y020002D01*
X022789Y020077D01*
X022639Y020077D01*
X022564Y020002D01*
X021225Y020077D02*
X021075Y020002D01*
X020925Y019852D01*
X021150Y019852D01*
X021225Y019777D01*
X021225Y019702D01*
X021150Y019627D01*
X021000Y019627D01*
X020925Y019702D01*
X020925Y019852D01*
X020764Y019627D02*
X020464Y019627D01*
X020614Y019627D02*
X020614Y020077D01*
X020464Y019927D01*
X019325Y019927D02*
X019325Y020002D01*
X019250Y020077D01*
X019100Y020077D01*
X019025Y020002D01*
X019325Y019927D02*
X019025Y019627D01*
X019325Y019627D01*
X018864Y019627D02*
X018564Y019627D01*
X018714Y019627D02*
X018714Y020077D01*
X018564Y019927D01*
X018025Y018677D02*
X017875Y018602D01*
X017725Y018452D01*
X017950Y018452D01*
X018025Y018377D01*
X018025Y018302D01*
X017950Y018227D01*
X017800Y018227D01*
X017725Y018302D01*
X017725Y018452D01*
X016525Y018227D02*
X016225Y018227D01*
X016375Y018227D02*
X016375Y018677D01*
X016225Y018527D01*
X016064Y018677D02*
X015764Y018677D01*
X015764Y018227D01*
X016064Y018227D01*
X015914Y018452D02*
X015764Y018452D01*
X015604Y018302D02*
X015529Y018227D01*
X015379Y018227D01*
X015304Y018302D01*
X015304Y018602D01*
X015379Y018677D01*
X015529Y018677D01*
X015604Y018602D01*
X015450Y019627D02*
X015300Y019627D01*
X015225Y019702D01*
X015525Y020002D01*
X015525Y019702D01*
X015450Y019627D01*
X015225Y019702D02*
X015225Y020002D01*
X015300Y020077D01*
X015450Y020077D01*
X015525Y020002D01*
X015064Y020077D02*
X014764Y020077D01*
X014764Y019627D01*
X015064Y019627D01*
X014914Y019852D02*
X014764Y019852D01*
X014604Y019702D02*
X014529Y019627D01*
X014379Y019627D01*
X014304Y019702D01*
X014304Y020002D01*
X014379Y020077D01*
X014529Y020077D01*
X014604Y020002D01*
X013725Y020002D02*
X013725Y019702D01*
X013650Y019627D01*
X013500Y019627D01*
X013425Y019702D01*
X013425Y020002D01*
X013500Y020077D01*
X013650Y020077D01*
X013725Y020002D01*
X013264Y020002D02*
X013189Y020077D01*
X013039Y020077D01*
X012964Y020002D01*
X012964Y019927D01*
X013039Y019852D01*
X013189Y019852D01*
X013264Y019777D01*
X013264Y019702D01*
X013189Y019627D01*
X013039Y019627D01*
X012964Y019702D01*
X012807Y019627D02*
X012657Y019627D01*
X012732Y019627D02*
X012732Y020077D01*
X012657Y020077D02*
X012807Y020077D01*
X012497Y020077D02*
X012497Y019627D01*
X012197Y019627D02*
X012197Y020077D01*
X012347Y019927D01*
X012497Y020077D01*
X011325Y020077D02*
X011025Y020077D01*
X011025Y019852D01*
X011175Y019927D01*
X011250Y019927D01*
X011325Y019852D01*
X011325Y019702D01*
X011250Y019627D01*
X011100Y019627D01*
X011025Y019702D01*
X010864Y019627D02*
X010564Y019627D01*
X010864Y019927D01*
X010864Y020002D01*
X010789Y020077D01*
X010639Y020077D01*
X010564Y020002D01*
X009325Y020002D02*
X009025Y019702D01*
X009025Y019627D01*
X008864Y019627D02*
X008564Y019627D01*
X008864Y019927D01*
X008864Y020002D01*
X008789Y020077D01*
X008639Y020077D01*
X008564Y020002D01*
X009025Y020077D02*
X009325Y020077D01*
X009325Y020002D01*
X009539Y018677D02*
X009464Y018602D01*
X009539Y018677D02*
X009689Y018677D01*
X009764Y018602D01*
X009764Y018527D01*
X009464Y018227D01*
X009764Y018227D01*
X009925Y018227D02*
X010225Y018527D01*
X010225Y018602D01*
X010150Y018677D01*
X010000Y018677D01*
X009925Y018602D01*
X009925Y018227D02*
X010225Y018227D01*
X011097Y018227D02*
X011097Y018677D01*
X011247Y018527D01*
X011397Y018677D01*
X011397Y018227D01*
X011557Y018302D02*
X011632Y018227D01*
X011782Y018227D01*
X011858Y018302D01*
X011858Y018602D01*
X011782Y018677D01*
X011632Y018677D01*
X011557Y018602D01*
X011557Y018302D01*
X012018Y018302D02*
X012093Y018227D01*
X012243Y018227D01*
X012318Y018302D01*
X012318Y018377D01*
X012243Y018452D01*
X012093Y018452D01*
X012018Y018527D01*
X012018Y018602D01*
X012093Y018677D01*
X012243Y018677D01*
X012318Y018602D01*
X012478Y018677D02*
X012628Y018677D01*
X012553Y018677D02*
X012553Y018227D01*
X012478Y018227D02*
X012628Y018227D01*
X013304Y018302D02*
X013379Y018227D01*
X013529Y018227D01*
X013604Y018302D01*
X013604Y018377D01*
X013529Y018452D01*
X013379Y018452D01*
X013304Y018527D01*
X013304Y018602D01*
X013379Y018677D01*
X013529Y018677D01*
X013604Y018602D01*
X013764Y018602D02*
X013764Y018302D01*
X013839Y018227D01*
X013989Y018227D01*
X014064Y018302D01*
X014225Y018377D02*
X014525Y018677D01*
X014225Y018677D02*
X014225Y018227D01*
X014300Y018452D02*
X014525Y018227D01*
X014064Y018602D02*
X013989Y018677D01*
X013839Y018677D01*
X013764Y018602D01*
X016725Y019702D02*
X016800Y019627D01*
X016950Y019627D01*
X017025Y019702D01*
X017025Y019852D01*
X016950Y019927D01*
X016875Y019927D01*
X016725Y019852D01*
X016725Y020077D01*
X017025Y020077D01*
X019564Y018527D02*
X019714Y018677D01*
X019714Y018227D01*
X019564Y018227D02*
X019864Y018227D01*
X020025Y018302D02*
X020100Y018227D01*
X020250Y018227D01*
X020325Y018302D01*
X020325Y018377D01*
X020250Y018452D01*
X020175Y018452D01*
X020250Y018452D02*
X020325Y018527D01*
X020325Y018602D01*
X020250Y018677D01*
X020100Y018677D01*
X020025Y018602D01*
X021564Y018527D02*
X021714Y018677D01*
X021714Y018227D01*
X021564Y018227D02*
X021864Y018227D01*
X022025Y018302D02*
X022100Y018227D01*
X022250Y018227D01*
X022325Y018302D01*
X022325Y018452D01*
X022250Y018527D01*
X022175Y018527D01*
X022025Y018452D01*
X022025Y018677D01*
X022325Y018677D01*
X008325Y018602D02*
X008325Y018527D01*
X008250Y018452D01*
X008100Y018452D01*
X008025Y018527D01*
X008025Y018602D01*
X008100Y018677D01*
X008250Y018677D01*
X008325Y018602D01*
X008250Y018452D02*
X008325Y018377D01*
X008325Y018302D01*
X008250Y018227D01*
X008100Y018227D01*
X008025Y018302D01*
X008025Y018377D01*
X008100Y018452D01*
X007864Y018227D02*
X007564Y018227D01*
X007714Y018227D02*
X007714Y018677D01*
X007564Y018527D01*
X006525Y018602D02*
X006525Y018302D01*
X006450Y018227D01*
X006225Y018227D01*
X006225Y018677D01*
X006450Y018677D01*
X006525Y018602D01*
X006064Y018677D02*
X006064Y018227D01*
X005764Y018677D01*
X005764Y018227D01*
X005604Y018302D02*
X005604Y018452D01*
X005454Y018452D01*
X005604Y018302D02*
X005529Y018227D01*
X005379Y018227D01*
X005304Y018302D01*
X005304Y018602D01*
X005379Y018677D01*
X005529Y018677D01*
X005604Y018602D01*
X004950Y019627D02*
X004950Y020077D01*
X004725Y019852D01*
X005025Y019852D01*
X004325Y018677D02*
X004025Y018227D01*
X003864Y018227D02*
X003714Y018377D01*
X003789Y018377D02*
X003564Y018377D01*
X003564Y018227D02*
X003564Y018677D01*
X003789Y018677D01*
X003864Y018602D01*
X003864Y018452D01*
X003789Y018377D01*
X004025Y018677D02*
X004325Y018227D01*
X003375Y019627D02*
X003075Y020077D01*
X002914Y020077D02*
X002614Y020077D01*
X002764Y020077D02*
X002764Y019627D01*
X003075Y019627D02*
X003375Y020077D01*
X002225Y018677D02*
X002225Y018227D01*
X002525Y018227D01*
X002064Y018302D02*
X001989Y018227D01*
X001839Y018227D01*
X001764Y018302D01*
X001764Y018602D01*
X001839Y018677D01*
X001989Y018677D01*
X002064Y018602D01*
X001604Y018602D02*
X001529Y018677D01*
X001379Y018677D01*
X001304Y018602D01*
X001304Y018527D01*
X001379Y018452D01*
X001529Y018452D01*
X001604Y018377D01*
X001604Y018302D01*
X001529Y018227D01*
X001379Y018227D01*
X001304Y018302D01*
X001225Y019627D02*
X001225Y019927D01*
X001375Y020077D01*
X001525Y019927D01*
X001525Y019627D01*
X001525Y019852D02*
X001225Y019852D01*
X001064Y019702D02*
X001064Y020002D01*
X000989Y020077D01*
X000764Y020077D01*
X000764Y019627D01*
X000989Y019627D01*
X001064Y019702D01*
X000604Y019702D02*
X000529Y019627D01*
X000379Y019627D01*
X000304Y019702D01*
X000379Y019852D02*
X000529Y019852D01*
X000604Y019777D01*
X000604Y019702D01*
X000379Y019852D02*
X000304Y019927D01*
X000304Y020002D01*
X000379Y020077D01*
X000529Y020077D01*
X000604Y020002D01*
X006564Y019927D02*
X006714Y020077D01*
X006714Y019627D01*
X006564Y019627D02*
X006864Y019627D01*
X007025Y019627D02*
X007025Y019702D01*
X007325Y020002D01*
X007325Y020077D01*
X007025Y020077D01*
D11*
X025325Y005097D02*
X025325Y005007D01*
X025370Y004962D01*
X025325Y005097D02*
X025370Y005142D01*
X025415Y005142D01*
X025595Y004962D01*
X025595Y005142D01*
X025595Y004869D02*
X025595Y004824D01*
X025550Y004824D01*
X025550Y004869D01*
X025595Y004869D01*
X025595Y004728D02*
X025595Y004548D01*
X025595Y004638D02*
X025325Y004638D01*
X025415Y004548D01*
X025415Y004452D02*
X025595Y004362D01*
X025415Y004272D01*
X025460Y004176D02*
X025460Y003996D01*
X025550Y003902D02*
X025595Y003902D01*
X025595Y003857D01*
X025550Y003857D01*
X025550Y003902D01*
X025460Y003761D02*
X025370Y003761D01*
X025325Y003716D01*
X025325Y003581D01*
X025595Y003581D01*
X025505Y003581D02*
X025505Y003716D01*
X025460Y003761D01*
X025550Y003488D02*
X025595Y003488D01*
X025595Y003443D01*
X025550Y003443D01*
X025550Y003488D01*
X025550Y003347D02*
X025595Y003302D01*
X025595Y003212D01*
X025550Y003167D01*
X025460Y003212D02*
X025460Y003302D01*
X025505Y003347D01*
X025550Y003347D01*
X025460Y003212D02*
X025415Y003167D01*
X025370Y003167D01*
X025325Y003212D01*
X025325Y003302D01*
X025370Y003347D01*
D12*
X022360Y004302D02*
X021410Y004302D01*
X021410Y002902D01*
X021410Y004302D02*
X014535Y004302D01*
X014535Y002902D01*
X014304Y003691D02*
X014304Y003991D01*
X013804Y003991D01*
X014535Y004302D02*
X003610Y004302D01*
X003610Y018052D01*
X022360Y018052D01*
X022360Y004302D01*
X017285Y004277D02*
X017285Y002902D01*
X012604Y003991D02*
X012054Y003991D01*
X012054Y003691D01*
X011454Y003691D02*
X011454Y003991D01*
X009504Y003991D01*
X008654Y003991D02*
X006354Y003991D01*
X006354Y003691D01*
D13*
X000376Y002872D02*
X000270Y002979D01*
X000376Y003085D01*
X000590Y003085D01*
X000537Y003203D02*
X000323Y003203D01*
X000270Y003257D01*
X000270Y003363D01*
X000323Y003417D01*
X000270Y003535D02*
X000270Y003695D01*
X000323Y003748D01*
X000430Y003748D01*
X000483Y003695D01*
X000483Y003535D01*
X000483Y003642D02*
X000590Y003748D01*
X000537Y003866D02*
X000590Y003920D01*
X000590Y004026D01*
X000537Y004080D01*
X000323Y004080D01*
X000270Y004026D01*
X000270Y003920D01*
X000323Y003866D01*
X000537Y003866D01*
X000590Y003535D02*
X000270Y003535D01*
X000537Y003417D02*
X000590Y003363D01*
X000590Y003257D01*
X000537Y003203D01*
X000430Y003085D02*
X000430Y002872D01*
X000376Y002872D02*
X000590Y002872D01*
X000870Y002872D02*
X000870Y003032D01*
X000923Y003085D01*
X001030Y003085D01*
X001083Y003032D01*
X001083Y002872D01*
X001190Y002872D02*
X000870Y002872D01*
X000976Y003257D02*
X000976Y003363D01*
X001030Y003417D01*
X001190Y003417D01*
X001190Y003257D01*
X001137Y003203D01*
X001083Y003257D01*
X001083Y003417D01*
X001030Y003535D02*
X000976Y003588D01*
X000976Y003748D01*
X001083Y003695D02*
X001083Y003588D01*
X001030Y003535D01*
X001190Y003535D02*
X001190Y003695D01*
X001137Y003748D01*
X001083Y003695D01*
X001137Y003866D02*
X001083Y003920D01*
X001083Y004080D01*
X001030Y004080D02*
X001190Y004080D01*
X001190Y003920D01*
X001137Y003866D01*
X000976Y003920D02*
X000976Y004026D01*
X001030Y004080D01*
X001030Y004198D02*
X000976Y004251D01*
X000976Y004411D01*
X000870Y004411D02*
X001190Y004411D01*
X001190Y004251D01*
X001137Y004198D01*
X001030Y004198D01*
X001030Y004529D02*
X000976Y004583D01*
X000976Y004689D01*
X001030Y004743D01*
X001083Y004743D01*
X001083Y004529D01*
X001030Y004529D02*
X001137Y004529D01*
X001190Y004583D01*
X001190Y004689D01*
X001190Y004861D02*
X000976Y004861D01*
X000976Y005021D01*
X001030Y005074D01*
X001190Y005074D01*
X001137Y005192D02*
X001083Y005246D01*
X001083Y005406D01*
X001030Y005406D02*
X001190Y005406D01*
X001190Y005246D01*
X001137Y005192D01*
X000976Y005246D02*
X000976Y005352D01*
X001030Y005406D01*
X001137Y005577D02*
X001190Y005577D01*
X001190Y005630D01*
X001137Y005630D01*
X001137Y005577D01*
X001190Y005630D02*
X001297Y005524D01*
X001626Y005413D02*
X001626Y005253D01*
X001520Y005253D02*
X001840Y005253D01*
X001840Y005413D01*
X001787Y005466D01*
X001680Y005466D01*
X001626Y005413D01*
X001680Y005584D02*
X001787Y005584D01*
X001840Y005638D01*
X001840Y005744D01*
X001787Y005798D01*
X001680Y005798D01*
X001626Y005744D01*
X001626Y005638D01*
X001680Y005584D01*
X001626Y005916D02*
X001626Y006022D01*
X001573Y005969D02*
X001787Y005969D01*
X001840Y006022D01*
X001840Y006137D02*
X001840Y006243D01*
X001840Y006190D02*
X001626Y006190D01*
X001626Y006137D01*
X001520Y006190D02*
X001466Y006190D01*
X001626Y006411D02*
X001680Y006358D01*
X001787Y006358D01*
X001840Y006411D01*
X001840Y006571D01*
X001840Y006689D02*
X001787Y006689D01*
X001787Y006742D01*
X001840Y006742D01*
X001840Y006689D01*
X001787Y006855D02*
X001840Y006908D01*
X001840Y007068D01*
X001787Y007186D02*
X001840Y007240D01*
X001840Y007346D01*
X001787Y007400D01*
X001680Y007400D01*
X001626Y007346D01*
X001626Y007240D01*
X001680Y007186D01*
X001787Y007186D01*
X001626Y007068D02*
X001626Y006908D01*
X001680Y006855D01*
X001787Y006855D01*
X001626Y006571D02*
X001626Y006411D01*
X001190Y006408D02*
X000976Y006408D01*
X000870Y006514D01*
X000976Y006621D01*
X001190Y006621D01*
X001030Y006621D02*
X001030Y006408D01*
X001137Y006290D02*
X001190Y006236D01*
X001190Y006130D01*
X001137Y006076D01*
X000923Y006076D01*
X000870Y006130D01*
X000870Y006236D01*
X000923Y006290D01*
X000537Y005627D02*
X000590Y005573D01*
X000590Y005467D01*
X000537Y005413D01*
X000323Y005413D01*
X000270Y005467D01*
X000270Y005573D01*
X000323Y005627D01*
X000270Y005299D02*
X000270Y005192D01*
X000270Y005246D02*
X000590Y005246D01*
X000590Y005299D02*
X000590Y005192D01*
X000590Y004967D02*
X000270Y004967D01*
X000270Y004861D02*
X000270Y005074D01*
X000323Y004743D02*
X000270Y004689D01*
X000270Y004583D01*
X000323Y004529D01*
X000537Y004529D01*
X000590Y004583D01*
X000590Y004689D01*
X000537Y004743D01*
X000323Y004743D01*
X000323Y004411D02*
X000376Y004411D01*
X000430Y004358D01*
X000430Y004198D01*
X000430Y004358D02*
X000483Y004411D01*
X000537Y004411D01*
X000590Y004358D01*
X000590Y004198D01*
X000270Y004198D01*
X000270Y004358D01*
X000323Y004411D01*
X001626Y004367D02*
X001680Y004313D01*
X001787Y004313D01*
X001840Y004367D01*
X001840Y004527D01*
X001840Y004645D02*
X001626Y004645D01*
X001626Y004752D02*
X001626Y004805D01*
X001626Y004752D02*
X001733Y004645D01*
X001626Y004527D02*
X001626Y004367D01*
X001680Y004196D02*
X001840Y004196D01*
X001840Y004035D01*
X001787Y003982D01*
X001733Y004035D01*
X001733Y004196D01*
X001680Y004196D02*
X001626Y004142D01*
X001626Y004035D01*
X001787Y003870D02*
X001840Y003870D01*
X001840Y003816D01*
X001787Y003816D01*
X001787Y003870D01*
X001787Y003698D02*
X001626Y003698D01*
X001787Y003698D02*
X001840Y003645D01*
X001787Y003592D01*
X001840Y003538D01*
X001787Y003485D01*
X001626Y003485D01*
X001626Y003367D02*
X001787Y003367D01*
X001840Y003313D01*
X001787Y003260D01*
X001840Y003207D01*
X001787Y003153D01*
X001626Y003153D01*
X001626Y003035D02*
X001787Y003035D01*
X001840Y002982D01*
X001787Y002929D01*
X001840Y002875D01*
X001787Y002822D01*
X001626Y002822D01*
X001680Y004921D02*
X001787Y004921D01*
X001840Y004975D01*
X001840Y005081D01*
X001787Y005135D01*
X001680Y005135D01*
X001626Y005081D01*
X001626Y004975D01*
X001680Y004921D01*
X001626Y007518D02*
X001626Y007571D01*
X001680Y007625D01*
X001626Y007678D01*
X001680Y007731D01*
X001840Y007731D01*
X001840Y007625D02*
X001680Y007625D01*
X001626Y007518D02*
X001840Y007518D01*
X008895Y004139D02*
X009001Y004139D01*
X008948Y004139D02*
X008948Y003819D01*
X008895Y003819D02*
X009001Y003819D01*
X009116Y003819D02*
X009116Y004032D01*
X009276Y004032D01*
X009329Y003979D01*
X009329Y003819D01*
X012845Y003922D02*
X012898Y003869D01*
X013005Y003869D01*
X013058Y003922D01*
X013058Y004136D01*
X013005Y004189D01*
X012898Y004189D01*
X012845Y004136D01*
X012845Y003922D01*
X013176Y003922D02*
X013229Y003869D01*
X013390Y003869D01*
X013390Y004082D01*
X013508Y004082D02*
X013614Y004082D01*
X013561Y004136D02*
X013561Y003922D01*
X013614Y003869D01*
X013176Y003922D02*
X013176Y004082D01*
X023980Y004089D02*
X023980Y003968D01*
X024040Y003908D01*
X024280Y003908D01*
X024340Y003968D01*
X024340Y004089D01*
X024280Y004149D01*
X024280Y004277D02*
X024340Y004277D01*
X024340Y004337D01*
X024280Y004337D01*
X024280Y004277D01*
X024160Y004277D02*
X024100Y004277D01*
X024100Y004337D01*
X024160Y004337D01*
X024160Y004277D01*
X024040Y004149D02*
X023980Y004089D01*
X024040Y003780D02*
X023980Y003720D01*
X023980Y003540D01*
X024340Y003540D01*
X024340Y003720D01*
X024280Y003780D01*
X024040Y003780D01*
X024100Y003412D02*
X024340Y003412D01*
X024160Y003412D02*
X024160Y003172D01*
X024100Y003172D02*
X024340Y003172D01*
X024580Y003172D02*
X024580Y003352D01*
X024640Y003412D01*
X024880Y003412D01*
X024940Y003352D01*
X024940Y003172D01*
X024580Y003172D01*
X024700Y003540D02*
X024580Y003660D01*
X024700Y003780D01*
X024940Y003780D01*
X024880Y003908D02*
X024940Y003968D01*
X024940Y004089D01*
X024880Y004149D01*
X024880Y004277D02*
X024940Y004277D01*
X024940Y004337D01*
X024880Y004337D01*
X024880Y004277D01*
X024760Y004277D02*
X024700Y004277D01*
X024700Y004337D01*
X024760Y004337D01*
X024760Y004277D01*
X024640Y004149D02*
X024580Y004089D01*
X024580Y003968D01*
X024640Y003908D01*
X024880Y003908D01*
X024760Y003780D02*
X024760Y003540D01*
X024700Y003540D02*
X024940Y003540D01*
X024100Y003412D02*
X023980Y003292D01*
X024100Y003172D01*
X024160Y004829D02*
X023980Y005009D01*
X024340Y005009D01*
X024160Y005069D02*
X024160Y004829D01*
X024160Y005198D02*
X024160Y005438D01*
X024040Y005566D02*
X024280Y005566D01*
X024340Y005626D01*
X024340Y005746D01*
X024280Y005806D01*
X024340Y005934D02*
X023980Y005934D01*
X024100Y005994D02*
X024100Y006114D01*
X024160Y006174D01*
X024340Y006174D01*
X024280Y006302D02*
X024220Y006363D01*
X024220Y006543D01*
X024160Y006543D02*
X024340Y006543D01*
X024340Y006363D01*
X024280Y006302D01*
X024100Y006363D02*
X024100Y006483D01*
X024160Y006543D01*
X024100Y006671D02*
X024100Y006851D01*
X024160Y006911D01*
X024340Y006911D01*
X024340Y007039D02*
X024100Y007039D01*
X024100Y007219D01*
X024160Y007279D01*
X024340Y007279D01*
X024280Y007407D02*
X024160Y007407D01*
X024100Y007467D01*
X024100Y007588D01*
X024160Y007648D01*
X024220Y007648D01*
X024220Y007407D01*
X024280Y007407D02*
X024340Y007467D01*
X024340Y007588D01*
X024340Y007776D02*
X024340Y007896D01*
X024340Y007836D02*
X023980Y007836D01*
X023980Y007776D01*
X024580Y007776D02*
X024580Y007836D01*
X024940Y007836D01*
X024940Y007776D02*
X024940Y007896D01*
X024820Y007648D02*
X024820Y007407D01*
X024880Y007407D02*
X024760Y007407D01*
X024700Y007467D01*
X024700Y007588D01*
X024760Y007648D01*
X024820Y007648D01*
X024940Y007588D02*
X024940Y007467D01*
X024880Y007407D01*
X024940Y007279D02*
X024760Y007279D01*
X024700Y007219D01*
X024700Y007039D01*
X024940Y007039D01*
X024940Y006911D02*
X024760Y006911D01*
X024700Y006851D01*
X024700Y006671D01*
X024940Y006671D01*
X024940Y006543D02*
X024760Y006543D01*
X024700Y006483D01*
X024700Y006363D01*
X024820Y006363D02*
X024820Y006543D01*
X024940Y006543D02*
X024940Y006363D01*
X024880Y006302D01*
X024820Y006363D01*
X024760Y006174D02*
X024940Y006174D01*
X024760Y006174D02*
X024700Y006114D01*
X024700Y005994D01*
X024760Y005934D01*
X024880Y005806D02*
X024940Y005746D01*
X024940Y005626D01*
X024880Y005566D01*
X024640Y005566D01*
X024580Y005626D01*
X024580Y005746D01*
X024640Y005806D01*
X024580Y005934D02*
X024940Y005934D01*
X024760Y005438D02*
X024760Y005198D01*
X024700Y005069D02*
X024640Y005069D01*
X024580Y005009D01*
X024580Y004889D01*
X024640Y004829D01*
X024700Y005069D02*
X024940Y004829D01*
X024940Y005069D01*
X024160Y005934D02*
X024100Y005994D01*
X024040Y005806D02*
X023980Y005746D01*
X023980Y005626D01*
X024040Y005566D01*
X024100Y006671D02*
X024340Y006671D01*
X024220Y008390D02*
X024100Y008390D01*
X023980Y008510D01*
X023980Y008635D02*
X023980Y008755D01*
X023980Y008695D02*
X024340Y008695D01*
X024340Y008635D02*
X024340Y008755D01*
X024340Y008881D02*
X024100Y009121D01*
X024040Y009121D01*
X023980Y009061D01*
X023980Y008941D01*
X024040Y008881D01*
X024340Y008881D02*
X024340Y009121D01*
X024280Y009249D02*
X024040Y009249D01*
X023980Y009309D01*
X023980Y009429D01*
X024040Y009489D01*
X024100Y009617D02*
X024160Y009617D01*
X024160Y009677D01*
X024100Y009677D01*
X024100Y009617D01*
X024280Y009617D02*
X024340Y009617D01*
X024340Y009677D01*
X024280Y009677D01*
X024280Y009617D01*
X024280Y009489D02*
X024340Y009429D01*
X024340Y009309D01*
X024280Y009249D01*
X024580Y009309D02*
X024580Y009429D01*
X024640Y009489D01*
X024700Y009617D02*
X024760Y009617D01*
X024760Y009677D01*
X024700Y009677D01*
X024700Y009617D01*
X024880Y009617D02*
X024940Y009617D01*
X024940Y009677D01*
X024880Y009677D01*
X024880Y009617D01*
X024880Y009489D02*
X024940Y009429D01*
X024940Y009309D01*
X024880Y009249D01*
X024640Y009249D01*
X024580Y009309D01*
X024640Y009121D02*
X024580Y009061D01*
X024580Y008941D01*
X024640Y008881D01*
X024580Y008755D02*
X024580Y008635D01*
X024580Y008695D02*
X024940Y008695D01*
X024940Y008635D02*
X024940Y008755D01*
X024940Y008881D02*
X024700Y009121D01*
X024640Y009121D01*
X024940Y009121D02*
X024940Y008881D01*
X024940Y008510D02*
X024820Y008390D01*
X024700Y008390D01*
X024580Y008510D01*
X024340Y008510D02*
X024220Y008390D01*
X024280Y010170D02*
X024040Y010170D01*
X023980Y010230D01*
X023980Y010350D01*
X024040Y010410D01*
X024280Y010170D01*
X024340Y010230D01*
X024340Y010350D01*
X024280Y010410D01*
X024040Y010410D01*
X024100Y010538D02*
X024340Y010778D01*
X024160Y010906D02*
X024160Y011147D01*
X024220Y011275D02*
X024160Y011335D01*
X024160Y011455D01*
X024220Y011515D01*
X024280Y011515D01*
X024340Y011455D01*
X024340Y011335D01*
X024280Y011275D01*
X024220Y011275D01*
X024160Y011335D02*
X024100Y011275D01*
X024040Y011275D01*
X023980Y011335D01*
X023980Y011455D01*
X024040Y011515D01*
X024100Y011515D01*
X024160Y011455D01*
X024340Y011643D02*
X024220Y011763D01*
X024100Y011763D01*
X023980Y011643D01*
X023980Y011087D02*
X024160Y010906D01*
X024100Y010778D02*
X024340Y010538D01*
X024580Y010350D02*
X024640Y010410D01*
X024880Y010170D01*
X024940Y010230D01*
X024940Y010350D01*
X024880Y010410D01*
X024640Y010410D01*
X024580Y010350D02*
X024580Y010230D01*
X024640Y010170D01*
X024880Y010170D01*
X024940Y010538D02*
X024700Y010778D01*
X024760Y010906D02*
X024760Y011087D01*
X024820Y011147D01*
X024880Y011147D01*
X024940Y011087D01*
X024940Y010966D01*
X024880Y010906D01*
X024760Y010906D01*
X024640Y011027D01*
X024580Y011147D01*
X024640Y011275D02*
X024580Y011335D01*
X024580Y011455D01*
X024640Y011515D01*
X024880Y011275D01*
X024940Y011335D01*
X024940Y011455D01*
X024880Y011515D01*
X024640Y011515D01*
X024640Y011275D02*
X024880Y011275D01*
X024940Y010778D02*
X024700Y010538D01*
X024340Y011087D02*
X023980Y011087D01*
X024700Y012011D02*
X024580Y012131D01*
X024700Y012011D02*
X024820Y012011D01*
X024940Y012131D01*
X024940Y012257D02*
X024700Y012257D01*
X024580Y012377D01*
X024700Y012497D01*
X024940Y012497D01*
X024880Y012625D02*
X024640Y012865D01*
X024880Y012865D01*
X024940Y012805D01*
X024940Y012685D01*
X024880Y012625D01*
X024640Y012625D01*
X024580Y012685D01*
X024580Y012805D01*
X024640Y012865D01*
X024580Y012994D02*
X024700Y013114D01*
X024820Y013114D01*
X024940Y012994D01*
X024760Y012497D02*
X024760Y012257D01*
X024880Y013607D02*
X024640Y013607D01*
X024580Y013667D01*
X024580Y013788D01*
X024640Y013848D01*
X024880Y013607D01*
X024940Y013667D01*
X024940Y013788D01*
X024880Y013848D01*
X024640Y013848D01*
X024700Y013976D02*
X024940Y014216D01*
X024880Y014344D02*
X024940Y014404D01*
X024940Y014524D01*
X024880Y014584D01*
X024820Y014584D01*
X024760Y014524D01*
X024760Y014344D01*
X024880Y014344D01*
X024760Y014344D02*
X024640Y014464D01*
X024580Y014584D01*
X024700Y014712D02*
X024580Y014832D01*
X024940Y014832D01*
X024940Y014712D02*
X024940Y014953D01*
X024820Y015449D02*
X024700Y015449D01*
X024580Y015569D01*
X024700Y015695D02*
X024580Y015815D01*
X024700Y015935D01*
X024940Y015935D01*
X024940Y016063D02*
X024940Y016303D01*
X024940Y016183D02*
X024580Y016183D01*
X024700Y016063D01*
X024760Y015935D02*
X024760Y015695D01*
X024700Y015695D02*
X024940Y015695D01*
X024940Y015569D02*
X024820Y015449D01*
X024940Y016431D02*
X024820Y016551D01*
X024700Y016551D01*
X024580Y016431D01*
X024580Y016677D02*
X024700Y016797D01*
X024820Y016797D01*
X024940Y016677D01*
X024700Y014216D02*
X024940Y013976D01*
D14*
X005813Y003875D02*
X005723Y003965D01*
X005543Y003965D01*
X005543Y003785D01*
X005363Y003965D02*
X005273Y003875D01*
X005273Y003694D01*
X005363Y003604D01*
X005723Y003604D01*
X005813Y003694D01*
X005813Y003875D01*
X005723Y003412D02*
X005363Y003412D01*
X005273Y003322D01*
X005273Y003142D01*
X005363Y003052D01*
X005723Y003052D01*
X005813Y003142D01*
X005813Y003322D01*
X005723Y003412D01*
X005813Y002860D02*
X005813Y002499D01*
X005273Y002499D01*
X005453Y002307D02*
X005273Y002127D01*
X005453Y001947D01*
X005813Y001947D01*
X005813Y001755D02*
X005273Y001755D01*
X005543Y001947D02*
X005543Y002307D01*
X005453Y002307D02*
X005813Y002307D01*
X005813Y001755D02*
X005273Y001395D01*
X005813Y001395D01*
X005813Y001202D02*
X005453Y001202D01*
X005273Y001022D01*
X005453Y000842D01*
X005813Y000842D01*
X005543Y000842D02*
X005543Y001202D01*
D15*
X002755Y020421D02*
X002755Y021171D01*
D16*
X002955Y020321D02*
X002955Y022321D01*
X022955Y022321D01*
X022955Y020321D01*
X002955Y020321D01*
X006262Y002896D02*
X010396Y002896D01*
X014530Y002896D01*
X017286Y002896D01*
X021420Y002896D01*
X021420Y000675D01*
X017286Y000675D01*
X017286Y000140D01*
X021420Y000140D01*
X021420Y000675D01*
X017286Y000675D02*
X017286Y000140D01*
X014530Y000140D01*
X014530Y000675D01*
X017286Y000675D01*
X017286Y002896D01*
X017286Y000675D01*
X014530Y000675D02*
X014530Y000140D01*
X010396Y000140D01*
X010396Y000675D01*
X014530Y000675D01*
X014530Y002896D01*
X014530Y000675D01*
X010396Y000675D02*
X010396Y000140D01*
X006262Y000140D01*
X006262Y000675D01*
X010396Y000675D01*
X010396Y002896D01*
X010396Y000675D01*
X006262Y000675D02*
X006262Y002896D01*
D17*
X001410Y007202D02*
X000482Y007202D01*
X000482Y007978D01*
X001412Y007978D01*
X001412Y007704D01*
X001138Y007704D01*
X001114Y007754D01*
X000830Y007754D01*
X000790Y007706D01*
X000790Y007676D01*
X000672Y007676D01*
X000650Y007654D01*
X000650Y007528D01*
X000676Y007500D01*
X000768Y007500D01*
X000768Y007478D01*
X000790Y007478D01*
X000790Y007500D01*
X000790Y007674D01*
X000774Y007674D01*
X000774Y007474D01*
X000792Y007474D01*
X000832Y007426D01*
X001114Y007426D01*
X001140Y007476D01*
X001410Y007476D01*
X001410Y007202D01*
X001410Y007206D02*
X000482Y007206D01*
X000482Y007214D02*
X001410Y007214D01*
X001410Y007223D02*
X000482Y007223D01*
X000482Y007231D02*
X001410Y007231D01*
X001410Y007240D02*
X000482Y007240D01*
X000482Y007248D02*
X001410Y007248D01*
X001410Y007257D02*
X000482Y007257D01*
X000482Y007265D02*
X001410Y007265D01*
X001410Y007274D02*
X000482Y007274D01*
X000482Y007282D02*
X001410Y007282D01*
X001410Y007291D02*
X000482Y007291D01*
X000482Y007299D02*
X001410Y007299D01*
X001410Y007308D02*
X000482Y007308D01*
X000482Y007316D02*
X001410Y007316D01*
X001410Y007325D02*
X000482Y007325D01*
X000482Y007333D02*
X001410Y007333D01*
X001410Y007342D02*
X000482Y007342D01*
X000482Y007350D02*
X001410Y007350D01*
X001410Y007359D02*
X000482Y007359D01*
X000482Y007367D02*
X001410Y007367D01*
X001410Y007376D02*
X000482Y007376D01*
X000482Y007384D02*
X001410Y007384D01*
X001410Y007393D02*
X000482Y007393D01*
X000482Y007401D02*
X001410Y007401D01*
X001410Y007410D02*
X000482Y007410D01*
X000482Y007418D02*
X001410Y007418D01*
X001410Y007427D02*
X001114Y007427D01*
X001119Y007435D02*
X001410Y007435D01*
X001410Y007444D02*
X001123Y007444D01*
X001128Y007452D02*
X001410Y007452D01*
X001410Y007461D02*
X001132Y007461D01*
X001136Y007469D02*
X001410Y007469D01*
X001412Y007707D02*
X001136Y007707D01*
X001132Y007716D02*
X001412Y007716D01*
X001412Y007724D02*
X001128Y007724D01*
X001124Y007733D02*
X001412Y007733D01*
X001412Y007741D02*
X001120Y007741D01*
X001116Y007750D02*
X001412Y007750D01*
X001412Y007758D02*
X000482Y007758D01*
X000482Y007750D02*
X000826Y007750D01*
X000819Y007741D02*
X000482Y007741D01*
X000482Y007733D02*
X000812Y007733D01*
X000805Y007724D02*
X000482Y007724D01*
X000482Y007716D02*
X000798Y007716D01*
X000791Y007707D02*
X000482Y007707D01*
X000482Y007699D02*
X000790Y007699D01*
X000790Y007690D02*
X000482Y007690D01*
X000482Y007682D02*
X000790Y007682D01*
X000790Y007673D02*
X000774Y007673D01*
X000774Y007665D02*
X000790Y007665D01*
X000790Y007656D02*
X000774Y007656D01*
X000774Y007648D02*
X000790Y007648D01*
X000790Y007639D02*
X000774Y007639D01*
X000774Y007631D02*
X000790Y007631D01*
X000790Y007622D02*
X000774Y007622D01*
X000774Y007614D02*
X000790Y007614D01*
X000790Y007605D02*
X000774Y007605D01*
X000774Y007597D02*
X000790Y007597D01*
X000790Y007588D02*
X000774Y007588D01*
X000774Y007580D02*
X000790Y007580D01*
X000790Y007571D02*
X000774Y007571D01*
X000774Y007563D02*
X000790Y007563D01*
X000790Y007554D02*
X000774Y007554D01*
X000774Y007546D02*
X000790Y007546D01*
X000790Y007537D02*
X000774Y007537D01*
X000774Y007529D02*
X000790Y007529D01*
X000790Y007520D02*
X000774Y007520D01*
X000774Y007512D02*
X000790Y007512D01*
X000790Y007503D02*
X000774Y007503D01*
X000774Y007495D02*
X000790Y007495D01*
X000790Y007486D02*
X000774Y007486D01*
X000768Y007486D02*
X000482Y007486D01*
X000482Y007478D02*
X000774Y007478D01*
X000768Y007495D02*
X000482Y007495D01*
X000482Y007503D02*
X000673Y007503D01*
X000665Y007512D02*
X000482Y007512D01*
X000482Y007520D02*
X000657Y007520D01*
X000650Y007529D02*
X000482Y007529D01*
X000482Y007537D02*
X000650Y007537D01*
X000650Y007546D02*
X000482Y007546D01*
X000482Y007554D02*
X000650Y007554D01*
X000650Y007563D02*
X000482Y007563D01*
X000482Y007571D02*
X000650Y007571D01*
X000650Y007580D02*
X000482Y007580D01*
X000482Y007588D02*
X000650Y007588D01*
X000650Y007597D02*
X000482Y007597D01*
X000482Y007605D02*
X000650Y007605D01*
X000650Y007614D02*
X000482Y007614D01*
X000482Y007622D02*
X000650Y007622D01*
X000650Y007631D02*
X000482Y007631D01*
X000482Y007639D02*
X000650Y007639D01*
X000650Y007648D02*
X000482Y007648D01*
X000482Y007656D02*
X000652Y007656D01*
X000661Y007665D02*
X000482Y007665D01*
X000482Y007673D02*
X000669Y007673D01*
X000482Y007767D02*
X001412Y007767D01*
X001412Y007775D02*
X000482Y007775D01*
X000482Y007784D02*
X001412Y007784D01*
X001412Y007792D02*
X000482Y007792D01*
X000482Y007801D02*
X001412Y007801D01*
X001412Y007809D02*
X000482Y007809D01*
X000482Y007818D02*
X001412Y007818D01*
X001412Y007826D02*
X000482Y007826D01*
X000482Y007835D02*
X001412Y007835D01*
X001412Y007843D02*
X000482Y007843D01*
X000482Y007852D02*
X001412Y007852D01*
X001412Y007860D02*
X000482Y007860D01*
X000482Y007869D02*
X001412Y007869D01*
X001412Y007877D02*
X000482Y007877D01*
X000482Y007886D02*
X001412Y007886D01*
X001412Y007894D02*
X000482Y007894D01*
X000482Y007903D02*
X001412Y007903D01*
X001412Y007911D02*
X000482Y007911D01*
X000482Y007920D02*
X001412Y007920D01*
X001412Y007928D02*
X000482Y007928D01*
X000482Y007937D02*
X001412Y007937D01*
X001412Y007945D02*
X000482Y007945D01*
X000482Y007954D02*
X001412Y007954D01*
X001412Y007962D02*
X000482Y007962D01*
X000482Y007971D02*
X001412Y007971D01*
X000803Y007461D02*
X000482Y007461D01*
X000482Y007469D02*
X000796Y007469D01*
X000810Y007452D02*
X000482Y007452D01*
X000482Y007444D02*
X000817Y007444D01*
X000824Y007435D02*
X000482Y007435D01*
X000482Y007427D02*
X000831Y007427D01*
M02*
