G75*
%MOIN*%
%OFA0B0*%
%FSLAX24Y24*%
%IPPOS*%
%LPD*%
%AMOC8*
5,1,8,0,0,1.08239X$1,22.5*
%
%ADD10C,0.0650*%
%ADD11R,0.0650X0.0650*%
%ADD12R,0.0870X0.0240*%
%ADD13R,0.0394X0.0433*%
%ADD14R,0.0433X0.0394*%
%ADD15C,0.0600*%
%ADD16R,0.0250X0.0500*%
%ADD17R,0.0394X0.0118*%
%ADD18R,0.0217X0.0472*%
%ADD19R,0.0354X0.0276*%
%ADD20C,0.0800*%
%ADD21R,0.0800X0.0800*%
%ADD22C,0.0120*%
%ADD23C,0.0100*%
%ADD24C,0.0400*%
%ADD25C,0.0397*%
D10*
X004455Y020821D03*
X004455Y021821D03*
X003455Y021821D03*
X005455Y021821D03*
X006455Y021821D03*
X006455Y020821D03*
X005455Y020821D03*
X007455Y020821D03*
X007455Y021821D03*
X008455Y021821D03*
X008455Y020821D03*
X009455Y020821D03*
X009455Y021821D03*
X010455Y021821D03*
X010455Y020821D03*
X011455Y020821D03*
X012455Y020821D03*
X012455Y021821D03*
X011455Y021821D03*
X013455Y021821D03*
X013455Y020821D03*
X014455Y020821D03*
X014455Y021821D03*
X015455Y021821D03*
X015455Y020821D03*
X016455Y020821D03*
X016455Y021821D03*
X017455Y021821D03*
X017455Y020821D03*
X018455Y020821D03*
X019455Y020821D03*
X019455Y021821D03*
X018455Y021821D03*
X020455Y021821D03*
X020455Y020821D03*
X021455Y020821D03*
X021455Y021821D03*
X022455Y021821D03*
X022455Y020821D03*
D11*
X003455Y020821D03*
D12*
X018685Y016421D03*
X018685Y015921D03*
X018685Y015421D03*
X018685Y014921D03*
X021335Y014921D03*
X021335Y015421D03*
X021335Y015921D03*
X021335Y016421D03*
D13*
X020710Y014256D03*
X020710Y013547D03*
X019560Y013547D03*
X019560Y014256D03*
X017760Y014347D03*
X017760Y015056D03*
D14*
X017816Y017012D03*
X018524Y017012D03*
D15*
X018910Y019152D03*
X017910Y019152D03*
X016910Y019152D03*
X015910Y019152D03*
X014910Y019152D03*
X013910Y019152D03*
X012910Y019152D03*
X011910Y019152D03*
X010910Y019152D03*
X009910Y019152D03*
X008910Y019152D03*
X007910Y019152D03*
X006910Y019152D03*
X005910Y019152D03*
X004910Y019152D03*
X003910Y019152D03*
X002910Y019152D03*
X001910Y019152D03*
X000910Y019152D03*
X019910Y019152D03*
X020910Y019152D03*
X021910Y019152D03*
X022910Y019152D03*
X023910Y019152D03*
X024910Y019152D03*
D16*
X021987Y013202D03*
X021633Y013202D03*
D17*
X010067Y007946D03*
X010067Y007749D03*
X010067Y007552D03*
X010067Y007355D03*
X010067Y007158D03*
X008453Y007158D03*
X008453Y007355D03*
X008453Y007552D03*
X008453Y007749D03*
X008453Y007946D03*
D18*
X011886Y006964D03*
X012260Y006964D03*
X012634Y006964D03*
X012634Y005940D03*
X012260Y005940D03*
X011886Y005940D03*
X015036Y005990D03*
X015410Y005990D03*
X015784Y005990D03*
X015784Y007014D03*
X015410Y007014D03*
X015036Y007014D03*
D19*
X014510Y006508D03*
X014510Y005996D03*
X013760Y006346D03*
X013760Y006858D03*
X011360Y006508D03*
X011360Y005996D03*
X010910Y008546D03*
X010910Y009058D03*
X010310Y009058D03*
X010310Y008546D03*
X007860Y006908D03*
X007860Y006396D03*
X016960Y006346D03*
X016960Y006858D03*
D20*
X016597Y001557D03*
X013841Y001557D03*
X012463Y001557D03*
X009707Y001557D03*
X008329Y001557D03*
X019353Y001557D03*
X020731Y001557D03*
D21*
X017975Y001557D03*
X015219Y001557D03*
X011085Y001557D03*
X006951Y001557D03*
D22*
X011610Y001007D02*
X000812Y001007D01*
X000891Y000950D02*
X000640Y001132D01*
X000458Y001383D01*
X000362Y001678D01*
X000357Y001747D01*
X000360Y001750D01*
X000360Y007935D01*
X000364Y007973D01*
X000393Y008043D01*
X000446Y008096D01*
X000516Y008125D01*
X000554Y008129D01*
X001853Y008129D01*
X002071Y008219D01*
X002238Y008386D01*
X002238Y008386D01*
X002329Y008605D01*
X002329Y014746D01*
X002238Y014964D01*
X002238Y014964D01*
X002071Y015132D01*
X001853Y015222D01*
X000554Y015222D01*
X000516Y015226D01*
X000446Y015255D01*
X000393Y015308D01*
X000364Y015378D01*
X000360Y015416D01*
X000360Y021518D01*
X000372Y021671D01*
X000467Y021963D01*
X000647Y022212D01*
X000896Y022392D01*
X001188Y022487D01*
X001341Y022499D01*
X024569Y022499D01*
X024723Y022487D01*
X025015Y022392D01*
X025263Y022212D01*
X025444Y021963D01*
X025538Y021671D01*
X025551Y021518D01*
X025551Y001750D01*
X025554Y001747D01*
X025548Y001678D01*
X025453Y001383D01*
X025270Y001132D01*
X025019Y000950D01*
X024724Y000854D01*
X024569Y000842D01*
X013783Y000842D01*
X013910Y000969D01*
X013910Y001017D01*
X013949Y001017D01*
X014147Y001100D01*
X014299Y001251D01*
X014381Y001450D01*
X014381Y001665D01*
X014299Y001863D01*
X014147Y002015D01*
X013949Y002097D01*
X013734Y002097D01*
X013535Y002015D01*
X013383Y001863D01*
X013301Y001665D01*
X013301Y001450D01*
X013383Y001251D01*
X013483Y001152D01*
X012821Y001152D01*
X012921Y001251D01*
X013003Y001450D01*
X013003Y001665D01*
X012921Y001863D01*
X012834Y001950D01*
X012834Y005093D01*
X012893Y005152D01*
X015643Y005152D01*
X015867Y005376D01*
X015984Y005493D01*
X015984Y005647D01*
X016032Y005696D01*
X016032Y006197D01*
X016060Y006169D01*
X016060Y002585D01*
X015927Y002452D01*
X015227Y002452D01*
X015136Y002361D01*
X015019Y002244D01*
X015019Y002097D01*
X014761Y002097D01*
X014679Y002015D01*
X014679Y001099D01*
X014761Y001017D01*
X015677Y001017D01*
X015759Y001099D01*
X015759Y002015D01*
X015723Y002052D01*
X016093Y002052D01*
X016210Y002169D01*
X016397Y002356D01*
X016397Y002059D01*
X016291Y002015D01*
X016139Y001863D01*
X016057Y001665D01*
X016057Y001450D01*
X016139Y001251D01*
X016291Y001100D01*
X016490Y001017D01*
X016704Y001017D01*
X016903Y001100D01*
X017055Y001251D01*
X017137Y001450D01*
X017137Y001665D01*
X017055Y001863D01*
X016903Y002015D01*
X016797Y002059D01*
X016797Y006048D01*
X016951Y006048D01*
X016951Y006337D01*
X016969Y006337D01*
X016969Y006355D01*
X017297Y006355D01*
X017297Y006505D01*
X017286Y006545D01*
X017265Y006582D01*
X017235Y006612D01*
X017230Y006615D01*
X017277Y006662D01*
X017277Y007054D01*
X017195Y007136D01*
X016725Y007136D01*
X016647Y007058D01*
X016032Y007058D01*
X016032Y007308D01*
X015950Y007390D01*
X015618Y007390D01*
X015610Y007382D01*
X015610Y007535D01*
X015410Y007735D01*
X015293Y007852D01*
X012377Y007852D01*
X012177Y007652D01*
X012127Y007602D01*
X011741Y007602D01*
X011653Y007690D01*
X011528Y007742D01*
X011392Y007742D01*
X011350Y007724D01*
X011350Y007769D01*
X011298Y007894D01*
X011203Y007990D01*
X011078Y008042D01*
X010942Y008042D01*
X010817Y007990D01*
X010810Y007983D01*
X010810Y008268D01*
X011145Y008268D01*
X011227Y008350D01*
X011227Y008352D01*
X017393Y008352D01*
X017960Y008919D01*
X017960Y013865D01*
X018477Y013347D01*
X019223Y013347D01*
X019223Y013273D01*
X019305Y013191D01*
X019815Y013191D01*
X019897Y013273D01*
X019897Y013347D01*
X020373Y013347D01*
X020373Y013273D01*
X020455Y013191D01*
X020531Y013191D01*
X020531Y002059D01*
X020425Y002015D01*
X020273Y001863D01*
X020191Y001665D01*
X020191Y001450D01*
X020273Y001251D01*
X020425Y001100D01*
X020623Y001017D01*
X020838Y001017D01*
X021037Y001100D01*
X021189Y001251D01*
X021271Y001450D01*
X021271Y001665D01*
X021189Y001863D01*
X021037Y002015D01*
X020931Y002059D01*
X020931Y013191D01*
X020965Y013191D01*
X021047Y013273D01*
X021047Y013822D01*
X020967Y013902D01*
X021047Y013982D01*
X021047Y014056D01*
X021323Y014056D01*
X021410Y013969D01*
X021410Y013552D01*
X021368Y013510D01*
X021368Y012894D01*
X021450Y012812D01*
X021785Y012812D01*
X021800Y012803D01*
X021841Y012792D01*
X021985Y012792D01*
X021985Y013199D01*
X021990Y013199D01*
X021990Y013204D01*
X022272Y013204D01*
X022272Y013473D01*
X022261Y013514D01*
X022240Y013550D01*
X022210Y013580D01*
X022174Y013601D01*
X022133Y013612D01*
X021990Y013612D01*
X021990Y013204D01*
X021985Y013204D01*
X021985Y013612D01*
X021841Y013612D01*
X021810Y013603D01*
X021810Y014135D01*
X021693Y014252D01*
X021489Y014456D01*
X021047Y014456D01*
X021047Y014531D01*
X020965Y014613D01*
X020910Y014613D01*
X020910Y014641D01*
X021335Y014641D01*
X021335Y014921D01*
X021335Y014921D01*
X021335Y015201D01*
X021335Y015421D01*
X020740Y015421D01*
X020740Y015280D01*
X020751Y015239D01*
X020772Y015203D01*
X020802Y015173D01*
X020805Y015171D01*
X020802Y015169D01*
X020789Y015156D01*
X019860Y016085D01*
X019743Y016202D01*
X019219Y016202D01*
X019260Y016243D01*
X019260Y016599D01*
X019178Y016681D01*
X018805Y016681D01*
X018881Y016757D01*
X018881Y017267D01*
X018799Y017349D01*
X018250Y017349D01*
X018178Y017277D01*
X018160Y017307D01*
X018130Y017337D01*
X018094Y017358D01*
X018053Y017369D01*
X017854Y017369D01*
X017854Y017050D01*
X017777Y017050D01*
X017777Y017369D01*
X017578Y017369D01*
X017560Y017364D01*
X017560Y017935D01*
X017443Y018052D01*
X017243Y018252D01*
X011693Y018252D01*
X011610Y018335D01*
X011610Y018830D01*
X011661Y018779D01*
X011822Y018712D01*
X011998Y018712D01*
X012159Y018779D01*
X012283Y018903D01*
X012350Y019064D01*
X012350Y019239D01*
X012283Y019401D01*
X012159Y019525D01*
X012110Y019545D01*
X012110Y020193D01*
X012299Y020382D01*
X012363Y020356D01*
X012548Y020356D01*
X012719Y020427D01*
X012849Y020558D01*
X012920Y020729D01*
X012920Y020914D01*
X012849Y021085D01*
X012719Y021215D01*
X012548Y021286D01*
X012363Y021286D01*
X012192Y021215D01*
X012061Y021085D01*
X011990Y020914D01*
X011990Y020729D01*
X012017Y020665D01*
X011710Y020359D01*
X011710Y019545D01*
X011661Y019525D01*
X011610Y019474D01*
X011610Y020382D01*
X011719Y020427D01*
X011849Y020558D01*
X011920Y020729D01*
X011920Y020914D01*
X011849Y021085D01*
X011719Y021215D01*
X011548Y021286D01*
X011363Y021286D01*
X011192Y021215D01*
X011061Y021085D01*
X010990Y020914D01*
X010990Y020729D01*
X011061Y020558D01*
X011192Y020427D01*
X011210Y020419D01*
X011210Y019474D01*
X011159Y019525D01*
X010998Y019592D01*
X010822Y019592D01*
X010661Y019525D01*
X010537Y019401D01*
X010470Y019239D01*
X010470Y019064D01*
X010537Y018903D01*
X010661Y018779D01*
X010822Y018712D01*
X010998Y018712D01*
X011159Y018779D01*
X011210Y018830D01*
X011210Y018169D01*
X011410Y017969D01*
X011527Y017852D01*
X017077Y017852D01*
X017160Y017769D01*
X017160Y014619D01*
X017423Y014356D01*
X017423Y014073D01*
X017505Y013991D01*
X017560Y013991D01*
X017560Y009085D01*
X017227Y008752D01*
X011217Y008752D01*
X011180Y008789D01*
X011185Y008792D01*
X011215Y008822D01*
X011236Y008858D01*
X011247Y008899D01*
X011247Y009049D01*
X010919Y009049D01*
X010919Y009067D01*
X010901Y009067D01*
X010901Y009356D01*
X010712Y009356D01*
X010671Y009345D01*
X010635Y009324D01*
X010610Y009299D01*
X010585Y009324D01*
X010549Y009345D01*
X010508Y009356D01*
X010319Y009356D01*
X010319Y009067D01*
X010301Y009067D01*
X010301Y009356D01*
X010112Y009356D01*
X010071Y009345D01*
X010035Y009324D01*
X010005Y009294D01*
X009984Y009257D01*
X009973Y009217D01*
X009973Y009067D01*
X010301Y009067D01*
X010301Y009049D01*
X009973Y009049D01*
X009973Y008899D01*
X009984Y008858D01*
X010005Y008822D01*
X010035Y008792D01*
X010040Y008789D01*
X009993Y008742D01*
X009993Y008350D01*
X010075Y008268D01*
X010410Y008268D01*
X010410Y007835D01*
X010404Y007829D01*
X010404Y008063D01*
X010322Y008145D01*
X009812Y008145D01*
X009803Y008136D01*
X009317Y008136D01*
X009307Y008146D01*
X009141Y008146D01*
X008995Y008000D01*
X008893Y008102D01*
X008849Y008146D01*
X008683Y008146D01*
X008683Y008145D01*
X008198Y008145D01*
X008116Y008063D01*
X008116Y007939D01*
X006928Y007939D01*
X006817Y007827D01*
X006791Y007802D01*
X006777Y007802D01*
X006660Y007685D01*
X006654Y002097D01*
X006493Y002097D01*
X006411Y002015D01*
X006411Y001099D01*
X006493Y001017D01*
X007409Y001017D01*
X007491Y001099D01*
X007491Y002015D01*
X007409Y002097D01*
X007054Y002097D01*
X007060Y007533D01*
X007086Y007559D01*
X008096Y007559D01*
X008096Y007552D01*
X008196Y007552D01*
X008196Y007552D01*
X008196Y007552D01*
X008096Y007552D01*
X008096Y007472D01*
X008107Y007431D01*
X008116Y007415D01*
X008116Y007185D01*
X008099Y007195D01*
X008058Y007206D01*
X007869Y007206D01*
X007869Y006917D01*
X007851Y006917D01*
X007851Y007206D01*
X007662Y007206D01*
X007621Y007195D01*
X007585Y007174D01*
X007555Y007144D01*
X007534Y007107D01*
X007523Y007067D01*
X007523Y006917D01*
X007851Y006917D01*
X007851Y006899D01*
X007523Y006899D01*
X007523Y006749D01*
X007534Y006708D01*
X007555Y006672D01*
X007585Y006642D01*
X007590Y006639D01*
X007543Y006592D01*
X007543Y006200D01*
X007625Y006118D01*
X008095Y006118D01*
X008177Y006200D01*
X008177Y006424D01*
X008610Y006842D01*
X008610Y002055D01*
X008589Y002034D01*
X008437Y002097D01*
X008222Y002097D01*
X008023Y002015D01*
X007872Y001863D01*
X007789Y001665D01*
X007789Y001450D01*
X007872Y001251D01*
X008023Y001100D01*
X008222Y001017D01*
X008437Y001017D01*
X008635Y001100D01*
X008787Y001251D01*
X008869Y001450D01*
X008869Y001665D01*
X008845Y001724D01*
X009010Y001889D01*
X009010Y001953D01*
X009208Y001762D01*
X009167Y001665D01*
X009167Y001450D01*
X009249Y001251D01*
X009401Y001100D01*
X009600Y001017D01*
X009815Y001017D01*
X010013Y001100D01*
X010165Y001251D01*
X010247Y001450D01*
X010247Y001665D01*
X010165Y001863D01*
X010013Y002015D01*
X009815Y002097D01*
X009600Y002097D01*
X009485Y002050D01*
X009224Y002303D01*
X009224Y003136D01*
X010545Y001814D01*
X010545Y001099D01*
X010627Y001017D01*
X011543Y001017D01*
X011610Y001084D01*
X011610Y000969D01*
X011727Y000852D01*
X011737Y000842D01*
X001341Y000842D01*
X001186Y000854D01*
X000891Y000950D01*
X001079Y000889D02*
X011690Y000889D01*
X011810Y001052D02*
X011810Y005202D01*
X012010Y005402D01*
X012510Y005402D01*
X012634Y005526D01*
X012634Y005940D01*
X012882Y005984D02*
X014173Y005984D01*
X014173Y005987D02*
X014173Y005837D01*
X014184Y005796D01*
X014205Y005760D01*
X014235Y005730D01*
X014271Y005709D01*
X014312Y005698D01*
X014501Y005698D01*
X014501Y005987D01*
X014173Y005987D01*
X014173Y006005D02*
X014501Y006005D01*
X014501Y005987D01*
X014519Y005987D01*
X014519Y005698D01*
X014708Y005698D01*
X014749Y005709D01*
X014785Y005730D01*
X014788Y005732D01*
X014788Y005696D01*
X014870Y005614D01*
X015202Y005614D01*
X015210Y005622D01*
X015240Y005605D01*
X015281Y005594D01*
X015410Y005594D01*
X015519Y005594D01*
X015477Y005552D01*
X012834Y005552D01*
X012834Y005597D01*
X012882Y005646D01*
X012882Y006146D01*
X013447Y006146D01*
X013525Y006068D01*
X013995Y006068D01*
X014073Y006146D01*
X014173Y006146D01*
X014173Y006005D01*
X014173Y006103D02*
X014030Y006103D01*
X014173Y005866D02*
X012882Y005866D01*
X012882Y005747D02*
X014217Y005747D01*
X014501Y005747D02*
X014519Y005747D01*
X014519Y005866D02*
X014501Y005866D01*
X014501Y005984D02*
X014519Y005984D01*
X014360Y006346D02*
X013760Y006346D01*
X011922Y006346D01*
X011910Y006358D01*
X011760Y006508D01*
X011360Y006508D01*
X011316Y006552D01*
X009540Y006552D01*
X009440Y006652D01*
X009440Y007452D01*
X009540Y007552D01*
X009377Y007749D02*
X009230Y007602D01*
X009230Y003413D01*
X011085Y001557D01*
X010545Y001600D02*
X010247Y001600D01*
X010247Y001481D02*
X010545Y001481D01*
X010545Y001363D02*
X010211Y001363D01*
X010158Y001244D02*
X010545Y001244D01*
X010545Y001126D02*
X010039Y001126D01*
X009707Y001557D02*
X009024Y002218D01*
X009024Y007746D01*
X009224Y007946D01*
X009113Y008117D02*
X008877Y008117D01*
X008766Y007946D02*
X008810Y007902D01*
X008810Y001972D01*
X008395Y001557D01*
X008329Y001557D01*
X008780Y001244D02*
X009257Y001244D01*
X009203Y001363D02*
X008833Y001363D01*
X008869Y001481D02*
X009167Y001481D01*
X009167Y001600D02*
X008869Y001600D01*
X008847Y001718D02*
X009189Y001718D01*
X009130Y001837D02*
X008958Y001837D01*
X008610Y002074D02*
X008493Y002074D01*
X008610Y002192D02*
X007054Y002192D01*
X007054Y002311D02*
X008610Y002311D01*
X008610Y002429D02*
X007055Y002429D01*
X007055Y002548D02*
X008610Y002548D01*
X008610Y002666D02*
X007055Y002666D01*
X007055Y002785D02*
X008610Y002785D01*
X008610Y002903D02*
X007055Y002903D01*
X007055Y003022D02*
X008610Y003022D01*
X008610Y003140D02*
X007055Y003140D01*
X007055Y003259D02*
X008610Y003259D01*
X008610Y003377D02*
X007056Y003377D01*
X007056Y003496D02*
X008610Y003496D01*
X008610Y003614D02*
X007056Y003614D01*
X007056Y003733D02*
X008610Y003733D01*
X008610Y003851D02*
X007056Y003851D01*
X007056Y003970D02*
X008610Y003970D01*
X008610Y004088D02*
X007056Y004088D01*
X007056Y004207D02*
X008610Y004207D01*
X008610Y004325D02*
X007057Y004325D01*
X007057Y004444D02*
X008610Y004444D01*
X008610Y004562D02*
X007057Y004562D01*
X007057Y004681D02*
X008610Y004681D01*
X008610Y004799D02*
X007057Y004799D01*
X007057Y004918D02*
X008610Y004918D01*
X008610Y005036D02*
X007057Y005036D01*
X007057Y005155D02*
X008610Y005155D01*
X008610Y005273D02*
X007058Y005273D01*
X007058Y005392D02*
X008610Y005392D01*
X008610Y005510D02*
X007058Y005510D01*
X007058Y005629D02*
X008610Y005629D01*
X008610Y005747D02*
X007058Y005747D01*
X007058Y005866D02*
X008610Y005866D01*
X008610Y005984D02*
X007058Y005984D01*
X007058Y006103D02*
X008610Y006103D01*
X008610Y006221D02*
X008177Y006221D01*
X008177Y006340D02*
X008610Y006340D01*
X008610Y006458D02*
X008212Y006458D01*
X008335Y006577D02*
X008610Y006577D01*
X008610Y006695D02*
X008458Y006695D01*
X008580Y006814D02*
X008610Y006814D01*
X008453Y006969D02*
X007860Y006396D01*
X007543Y006340D02*
X007059Y006340D01*
X007059Y006458D02*
X007543Y006458D01*
X007543Y006577D02*
X007059Y006577D01*
X007059Y006695D02*
X007541Y006695D01*
X007523Y006814D02*
X007059Y006814D01*
X007059Y006932D02*
X007523Y006932D01*
X007523Y007051D02*
X007059Y007051D01*
X007060Y007169D02*
X007580Y007169D01*
X007851Y007169D02*
X007869Y007169D01*
X007869Y007051D02*
X007851Y007051D01*
X007851Y006932D02*
X007869Y006932D01*
X007860Y006908D02*
X007860Y007452D01*
X008096Y007525D02*
X007060Y007525D01*
X007060Y007406D02*
X008116Y007406D01*
X008116Y007288D02*
X007060Y007288D01*
X006860Y007602D02*
X006854Y001594D01*
X006951Y001557D01*
X006411Y001600D02*
X002093Y001600D01*
X002124Y001638D02*
X002124Y001638D01*
X002124Y001638D01*
X002187Y001717D01*
X002224Y001880D01*
X002229Y001892D01*
X002229Y001902D01*
X002258Y002030D01*
X002229Y002157D01*
X002229Y002167D01*
X002224Y002180D01*
X002187Y002342D01*
X002187Y002342D01*
X002124Y002421D01*
X002124Y002421D01*
X002124Y002422D01*
X001987Y002593D01*
X001698Y002732D01*
X001378Y002732D01*
X001089Y002593D01*
X001089Y002593D01*
X001089Y002593D01*
X000952Y002422D01*
X000952Y002421D01*
X000889Y002342D01*
X000852Y002180D01*
X000847Y002167D01*
X000847Y002157D01*
X000818Y002030D01*
X000818Y002030D01*
X000847Y001902D01*
X000847Y001892D01*
X000852Y001880D01*
X000889Y001717D01*
X000952Y001638D01*
X000952Y001638D01*
X000952Y001638D01*
X001089Y001467D01*
X001378Y001328D01*
X001698Y001328D01*
X001987Y001467D01*
X002124Y001638D01*
X002187Y001717D02*
X002187Y001717D01*
X002187Y001718D02*
X006411Y001718D01*
X006411Y001837D02*
X002214Y001837D01*
X002241Y001955D02*
X006411Y001955D01*
X006470Y002074D02*
X002248Y002074D01*
X002221Y002192D02*
X006654Y002192D01*
X006654Y002311D02*
X002194Y002311D01*
X002117Y002429D02*
X006655Y002429D01*
X006655Y002548D02*
X002023Y002548D01*
X001987Y002593D02*
X001987Y002593D01*
X001834Y002666D02*
X006655Y002666D01*
X006655Y002785D02*
X000360Y002785D01*
X000360Y002903D02*
X006655Y002903D01*
X006655Y003022D02*
X000360Y003022D01*
X000360Y003140D02*
X006655Y003140D01*
X006655Y003259D02*
X000360Y003259D01*
X000360Y003377D02*
X006656Y003377D01*
X006656Y003496D02*
X000360Y003496D01*
X000360Y003614D02*
X006656Y003614D01*
X006656Y003733D02*
X000360Y003733D01*
X000360Y003851D02*
X006656Y003851D01*
X006656Y003970D02*
X000360Y003970D01*
X000360Y004088D02*
X006656Y004088D01*
X006656Y004207D02*
X000360Y004207D01*
X000360Y004325D02*
X006657Y004325D01*
X006657Y004444D02*
X000360Y004444D01*
X000360Y004562D02*
X006657Y004562D01*
X006657Y004681D02*
X000360Y004681D01*
X000360Y004799D02*
X006657Y004799D01*
X006657Y004918D02*
X000360Y004918D01*
X000360Y005036D02*
X006657Y005036D01*
X006657Y005155D02*
X000360Y005155D01*
X000360Y005273D02*
X006658Y005273D01*
X006658Y005392D02*
X000360Y005392D01*
X000360Y005510D02*
X006658Y005510D01*
X006658Y005629D02*
X000360Y005629D01*
X000360Y005747D02*
X006658Y005747D01*
X006658Y005866D02*
X000360Y005866D01*
X000360Y005984D02*
X006658Y005984D01*
X006658Y006103D02*
X000360Y006103D01*
X000360Y006221D02*
X006659Y006221D01*
X006659Y006340D02*
X000360Y006340D01*
X000360Y006458D02*
X006659Y006458D01*
X006659Y006577D02*
X000360Y006577D01*
X000360Y006695D02*
X006659Y006695D01*
X006659Y006814D02*
X000360Y006814D01*
X000360Y006932D02*
X006659Y006932D01*
X006659Y007051D02*
X000360Y007051D01*
X000360Y007169D02*
X006660Y007169D01*
X006660Y007288D02*
X000360Y007288D01*
X000360Y007406D02*
X006660Y007406D01*
X006660Y007525D02*
X000360Y007525D01*
X000360Y007643D02*
X006660Y007643D01*
X006737Y007762D02*
X000360Y007762D01*
X000360Y007880D02*
X006870Y007880D01*
X008116Y007999D02*
X000374Y007999D01*
X000497Y008117D02*
X008171Y008117D01*
X009660Y007252D02*
X009660Y007052D01*
X009760Y006952D01*
X011510Y006952D01*
X011522Y006964D01*
X011886Y006964D01*
X012260Y006964D02*
X012260Y007452D01*
X012210Y007402D01*
X011460Y007402D01*
X011216Y007158D01*
X011010Y007702D02*
X010663Y007355D01*
X010410Y007552D02*
X010610Y007752D01*
X010610Y008502D01*
X010566Y008546D01*
X010310Y008546D01*
X010610Y008502D02*
X010660Y008552D01*
X010910Y008552D01*
X017310Y008552D01*
X017760Y009002D01*
X017760Y014347D01*
X017714Y014347D01*
X017360Y014702D01*
X017360Y016252D01*
X017360Y017852D01*
X017160Y018052D01*
X011610Y018052D01*
X011410Y018252D01*
X011410Y020776D01*
X011455Y020821D01*
X011782Y021152D02*
X012129Y021152D01*
X012040Y021034D02*
X011870Y021034D01*
X011920Y020915D02*
X011991Y020915D01*
X011990Y020797D02*
X011920Y020797D01*
X011899Y020678D02*
X012011Y020678D01*
X011911Y020560D02*
X011850Y020560D01*
X011793Y020441D02*
X011733Y020441D01*
X011710Y020323D02*
X011610Y020323D01*
X011610Y020204D02*
X011710Y020204D01*
X011710Y020086D02*
X011610Y020086D01*
X011610Y019967D02*
X011710Y019967D01*
X011710Y019849D02*
X011610Y019849D01*
X011610Y019730D02*
X011710Y019730D01*
X011710Y019612D02*
X011610Y019612D01*
X011610Y019493D02*
X011629Y019493D01*
X011210Y019493D02*
X011191Y019493D01*
X011210Y019612D02*
X010110Y019612D01*
X010110Y019545D02*
X010110Y020193D01*
X010299Y020382D01*
X010363Y020356D01*
X010548Y020356D01*
X010719Y020427D01*
X010849Y020558D01*
X010920Y020729D01*
X010920Y020914D01*
X010849Y021085D01*
X010719Y021215D01*
X010548Y021286D01*
X010363Y021286D01*
X010192Y021215D01*
X010061Y021085D01*
X009990Y020914D01*
X009990Y020729D01*
X010017Y020665D01*
X009710Y020359D01*
X009710Y019545D01*
X009661Y019525D01*
X009537Y019401D01*
X009470Y019239D01*
X009470Y019064D01*
X009537Y018903D01*
X009661Y018779D01*
X009822Y018712D01*
X009998Y018712D01*
X010159Y018779D01*
X010283Y018903D01*
X010350Y019064D01*
X010350Y019239D01*
X010283Y019401D01*
X010159Y019525D01*
X010110Y019545D01*
X010191Y019493D02*
X010629Y019493D01*
X010526Y019375D02*
X010294Y019375D01*
X010343Y019256D02*
X010477Y019256D01*
X010470Y019138D02*
X010350Y019138D01*
X010331Y019019D02*
X010489Y019019D01*
X010539Y018901D02*
X010281Y018901D01*
X010163Y018782D02*
X010657Y018782D01*
X011163Y018782D02*
X011210Y018782D01*
X011210Y018664D02*
X000360Y018664D01*
X000360Y018782D02*
X000657Y018782D01*
X000661Y018779D02*
X000822Y018712D01*
X000998Y018712D01*
X001159Y018779D01*
X001283Y018903D01*
X001350Y019064D01*
X001350Y019239D01*
X001330Y019289D01*
X001893Y019852D01*
X002318Y019852D01*
X002003Y019590D01*
X001998Y019592D01*
X001822Y019592D01*
X001661Y019525D01*
X001537Y019401D01*
X001470Y019239D01*
X001470Y019064D01*
X001537Y018903D01*
X001661Y018779D01*
X001822Y018712D01*
X001998Y018712D01*
X002159Y018779D01*
X002283Y018903D01*
X002350Y019064D01*
X002350Y019239D01*
X002313Y019328D01*
X002582Y019552D01*
X002726Y019552D01*
X002661Y019525D01*
X002537Y019401D01*
X002470Y019239D01*
X002470Y019064D01*
X002537Y018903D01*
X002661Y018779D01*
X002822Y018712D01*
X002998Y018712D01*
X003159Y018779D01*
X003283Y018903D01*
X003350Y019064D01*
X003350Y019239D01*
X003283Y019401D01*
X003159Y019525D01*
X003094Y019552D01*
X003726Y019552D01*
X003661Y019525D01*
X003537Y019401D01*
X003470Y019239D01*
X003470Y019064D01*
X003537Y018903D01*
X003661Y018779D01*
X003822Y018712D01*
X003998Y018712D01*
X004159Y018779D01*
X004283Y018903D01*
X004346Y019055D01*
X004470Y019179D01*
X004470Y019064D01*
X004537Y018903D01*
X004661Y018779D01*
X004822Y018712D01*
X004998Y018712D01*
X005159Y018779D01*
X005283Y018903D01*
X005350Y019064D01*
X005350Y019239D01*
X005293Y019376D01*
X006299Y020382D01*
X006363Y020356D01*
X006548Y020356D01*
X006719Y020427D01*
X006849Y020558D01*
X006920Y020729D01*
X006920Y020914D01*
X006849Y021085D01*
X006832Y021102D01*
X007019Y021102D01*
X007299Y021382D01*
X007363Y021356D01*
X007548Y021356D01*
X007719Y021427D01*
X007849Y021558D01*
X007920Y021729D01*
X007920Y021914D01*
X007849Y022085D01*
X007719Y022215D01*
X007548Y022286D01*
X007363Y022286D01*
X007192Y022215D01*
X007061Y022085D01*
X006990Y021914D01*
X006990Y021729D01*
X007017Y021665D01*
X006853Y021502D01*
X006794Y021502D01*
X006849Y021558D01*
X006920Y021729D01*
X006920Y021914D01*
X006849Y022085D01*
X006719Y022215D01*
X006548Y022286D01*
X006363Y022286D01*
X006192Y022215D01*
X006061Y022085D01*
X005990Y021914D01*
X005990Y021729D01*
X006061Y021558D01*
X006117Y021502D01*
X005977Y021502D01*
X005860Y021385D01*
X005760Y021285D01*
X005760Y021174D01*
X005719Y021215D01*
X005548Y021286D01*
X005363Y021286D01*
X005192Y021215D01*
X005061Y021085D01*
X004990Y020914D01*
X004990Y020729D01*
X005017Y020665D01*
X004303Y019952D01*
X003869Y019952D01*
X003886Y019969D01*
X004299Y020382D01*
X004363Y020356D01*
X004548Y020356D01*
X004719Y020427D01*
X004849Y020558D01*
X004920Y020729D01*
X004920Y020914D01*
X004849Y021085D01*
X004719Y021215D01*
X004548Y021286D01*
X004363Y021286D01*
X004192Y021215D01*
X004061Y021085D01*
X003990Y020914D01*
X003990Y020729D01*
X004017Y020665D01*
X003920Y020569D01*
X003920Y021204D01*
X003838Y021286D01*
X003072Y021286D01*
X002990Y021204D01*
X002990Y020438D01*
X003072Y020356D01*
X003707Y020356D01*
X003603Y020252D01*
X001727Y020252D01*
X001047Y019571D01*
X000998Y019592D01*
X000822Y019592D01*
X000661Y019525D01*
X000537Y019401D01*
X000470Y019239D01*
X000470Y019064D01*
X000537Y018903D01*
X000661Y018779D01*
X000539Y018901D02*
X000360Y018901D01*
X000360Y019019D02*
X000489Y019019D01*
X000470Y019138D02*
X000360Y019138D01*
X000360Y019256D02*
X000477Y019256D01*
X000526Y019375D02*
X000360Y019375D01*
X000360Y019493D02*
X000629Y019493D01*
X000360Y019612D02*
X001087Y019612D01*
X001206Y019730D02*
X000360Y019730D01*
X000360Y019849D02*
X001324Y019849D01*
X001443Y019967D02*
X000360Y019967D01*
X000360Y020086D02*
X001561Y020086D01*
X001680Y020204D02*
X000360Y020204D01*
X000360Y020323D02*
X003674Y020323D01*
X003686Y020052D02*
X001810Y020052D01*
X000910Y019152D01*
X001163Y018782D02*
X001657Y018782D01*
X001539Y018901D02*
X001281Y018901D01*
X001331Y019019D02*
X001489Y019019D01*
X001470Y019138D02*
X001350Y019138D01*
X001343Y019256D02*
X001477Y019256D01*
X001526Y019375D02*
X001416Y019375D01*
X001534Y019493D02*
X001629Y019493D01*
X001653Y019612D02*
X002030Y019612D01*
X002172Y019730D02*
X001771Y019730D01*
X001890Y019849D02*
X002314Y019849D01*
X002510Y019752D02*
X001910Y019252D01*
X001910Y019152D01*
X002331Y019019D02*
X002489Y019019D01*
X002470Y019138D02*
X002350Y019138D01*
X002343Y019256D02*
X002477Y019256D01*
X002526Y019375D02*
X002370Y019375D01*
X002512Y019493D02*
X002629Y019493D01*
X002510Y019752D02*
X004386Y019752D01*
X005455Y020821D01*
X005960Y020652D02*
X005960Y021202D01*
X006060Y021302D01*
X006936Y021302D01*
X007455Y021821D01*
X007019Y021982D02*
X006892Y021982D01*
X006920Y021863D02*
X006990Y021863D01*
X006990Y021745D02*
X006920Y021745D01*
X006878Y021626D02*
X006978Y021626D01*
X006859Y021508D02*
X006800Y021508D01*
X007188Y021271D02*
X007270Y021271D01*
X007269Y021271D02*
X007201Y021236D01*
X007139Y021191D01*
X007085Y021137D01*
X007040Y021075D01*
X007006Y021007D01*
X006982Y020935D01*
X006971Y020861D01*
X007415Y020861D01*
X007415Y020781D01*
X006971Y020781D01*
X006982Y020708D01*
X007006Y020635D01*
X007040Y020567D01*
X007085Y020505D01*
X007139Y020451D01*
X007201Y020406D01*
X007269Y020372D01*
X007342Y020348D01*
X007415Y020336D01*
X007415Y020781D01*
X007495Y020781D01*
X007495Y020336D01*
X007569Y020348D01*
X007641Y020372D01*
X007709Y020406D01*
X007771Y020451D01*
X007825Y020505D01*
X007870Y020567D01*
X007905Y020635D01*
X007928Y020708D01*
X007940Y020781D01*
X007495Y020781D01*
X007495Y020861D01*
X007415Y020861D01*
X007415Y021306D01*
X007342Y021294D01*
X007269Y021271D01*
X007415Y021271D02*
X007495Y021271D01*
X007495Y021306D02*
X007569Y021294D01*
X007641Y021271D01*
X008326Y021271D01*
X008363Y021286D02*
X008192Y021215D01*
X008061Y021085D01*
X007990Y020914D01*
X007990Y020729D01*
X008017Y020665D01*
X006943Y019592D01*
X006822Y019592D01*
X006661Y019525D01*
X006537Y019401D01*
X006470Y019239D01*
X006470Y019064D01*
X006537Y018903D01*
X006661Y018779D01*
X006822Y018712D01*
X006998Y018712D01*
X007159Y018779D01*
X007283Y018903D01*
X007350Y019064D01*
X007350Y019239D01*
X007293Y019376D01*
X008299Y020382D01*
X008363Y020356D01*
X008381Y020356D01*
X007710Y019685D01*
X007710Y019545D01*
X007661Y019525D01*
X007537Y019401D01*
X007470Y019239D01*
X007470Y019064D01*
X007537Y018903D01*
X007661Y018779D01*
X007822Y018712D01*
X007998Y018712D01*
X008159Y018779D01*
X008283Y018903D01*
X008350Y019064D01*
X008350Y019239D01*
X008283Y019401D01*
X008159Y019525D01*
X008129Y019538D01*
X008710Y020119D01*
X008710Y019545D01*
X008661Y019525D01*
X008537Y019401D01*
X008470Y019239D01*
X008470Y019064D01*
X008537Y018903D01*
X008661Y018779D01*
X008822Y018712D01*
X008998Y018712D01*
X009159Y018779D01*
X009283Y018903D01*
X009350Y019064D01*
X009350Y019239D01*
X009283Y019401D01*
X009159Y019525D01*
X009110Y019545D01*
X009110Y020193D01*
X009299Y020382D01*
X009363Y020356D01*
X009548Y020356D01*
X009719Y020427D01*
X009849Y020558D01*
X009920Y020729D01*
X009920Y020914D01*
X009849Y021085D01*
X009719Y021215D01*
X009548Y021286D01*
X009363Y021286D01*
X009192Y021215D01*
X009160Y021183D01*
X009160Y021399D01*
X008894Y021665D01*
X008920Y021729D01*
X008920Y021914D01*
X008849Y022085D01*
X008719Y022215D01*
X008548Y022286D01*
X008363Y022286D01*
X008192Y022215D01*
X008061Y022085D01*
X007990Y021914D01*
X007990Y021729D01*
X008061Y021558D01*
X008192Y021427D01*
X008363Y021356D01*
X008548Y021356D01*
X008611Y021382D01*
X008760Y021234D01*
X008760Y021174D01*
X008719Y021215D01*
X008548Y021286D01*
X008363Y021286D01*
X008283Y021389D02*
X007628Y021389D01*
X007641Y021271D02*
X007709Y021236D01*
X007771Y021191D01*
X007825Y021137D01*
X007870Y021075D01*
X007905Y021007D01*
X007928Y020935D01*
X007940Y020861D01*
X007495Y020861D01*
X007495Y021306D01*
X007495Y021152D02*
X007415Y021152D01*
X007415Y021034D02*
X007495Y021034D01*
X007495Y020915D02*
X007415Y020915D01*
X007415Y020797D02*
X006920Y020797D01*
X006920Y020915D02*
X006979Y020915D01*
X007019Y021034D02*
X006870Y021034D01*
X007069Y021152D02*
X007101Y021152D01*
X006992Y020678D02*
X006899Y020678D01*
X006850Y020560D02*
X007046Y020560D01*
X007153Y020441D02*
X006733Y020441D01*
X006240Y020323D02*
X007674Y020323D01*
X007758Y020441D02*
X007793Y020441D01*
X007865Y020560D02*
X007911Y020560D01*
X007919Y020678D02*
X008011Y020678D01*
X007990Y020797D02*
X007495Y020797D01*
X007495Y020678D02*
X007415Y020678D01*
X007415Y020560D02*
X007495Y020560D01*
X007495Y020441D02*
X007415Y020441D01*
X007556Y020204D02*
X006121Y020204D01*
X006003Y020086D02*
X007437Y020086D01*
X007319Y019967D02*
X005884Y019967D01*
X005766Y019849D02*
X007200Y019849D01*
X007082Y019730D02*
X005647Y019730D01*
X005529Y019612D02*
X006963Y019612D01*
X006910Y019276D02*
X006910Y019152D01*
X006910Y019276D02*
X008455Y020821D01*
X008129Y021152D02*
X007810Y021152D01*
X007891Y021034D02*
X008040Y021034D01*
X007991Y020915D02*
X007931Y020915D01*
X007800Y021508D02*
X008111Y021508D01*
X008033Y021626D02*
X007878Y021626D01*
X007920Y021745D02*
X007990Y021745D01*
X007990Y021863D02*
X007920Y021863D01*
X007892Y021982D02*
X008019Y021982D01*
X008077Y022100D02*
X007834Y022100D01*
X007710Y022219D02*
X008200Y022219D01*
X008455Y021821D02*
X008960Y021316D01*
X008960Y020652D01*
X007910Y019602D01*
X007910Y019152D01*
X008294Y019375D02*
X008526Y019375D01*
X008477Y019256D02*
X008343Y019256D01*
X008350Y019138D02*
X008470Y019138D01*
X008489Y019019D02*
X008331Y019019D01*
X008281Y018901D02*
X008539Y018901D01*
X008657Y018782D02*
X008163Y018782D01*
X007657Y018782D02*
X007163Y018782D01*
X007281Y018901D02*
X007539Y018901D01*
X007489Y019019D02*
X007331Y019019D01*
X007350Y019138D02*
X007470Y019138D01*
X007477Y019256D02*
X007343Y019256D01*
X007294Y019375D02*
X007526Y019375D01*
X007629Y019493D02*
X007410Y019493D01*
X007529Y019612D02*
X007710Y019612D01*
X007756Y019730D02*
X007647Y019730D01*
X007766Y019849D02*
X007874Y019849D01*
X007884Y019967D02*
X007993Y019967D01*
X008003Y020086D02*
X008111Y020086D01*
X008121Y020204D02*
X008230Y020204D01*
X008240Y020323D02*
X008348Y020323D01*
X008677Y020086D02*
X008710Y020086D01*
X008710Y019967D02*
X008558Y019967D01*
X008440Y019849D02*
X008710Y019849D01*
X008710Y019730D02*
X008321Y019730D01*
X008203Y019612D02*
X008710Y019612D01*
X008629Y019493D02*
X008191Y019493D01*
X008910Y019152D02*
X008910Y020276D01*
X009455Y020821D01*
X009782Y021152D02*
X010129Y021152D01*
X010040Y021034D02*
X009870Y021034D01*
X009920Y020915D02*
X009991Y020915D01*
X009990Y020797D02*
X009920Y020797D01*
X009899Y020678D02*
X010011Y020678D01*
X009911Y020560D02*
X009850Y020560D01*
X009793Y020441D02*
X009733Y020441D01*
X009710Y020323D02*
X009240Y020323D01*
X009121Y020204D02*
X009710Y020204D01*
X009710Y020086D02*
X009110Y020086D01*
X009110Y019967D02*
X009710Y019967D01*
X009710Y019849D02*
X009110Y019849D01*
X009110Y019730D02*
X009710Y019730D01*
X009710Y019612D02*
X009110Y019612D01*
X009191Y019493D02*
X009629Y019493D01*
X009526Y019375D02*
X009294Y019375D01*
X009343Y019256D02*
X009477Y019256D01*
X009470Y019138D02*
X009350Y019138D01*
X009331Y019019D02*
X009489Y019019D01*
X009539Y018901D02*
X009281Y018901D01*
X009163Y018782D02*
X009657Y018782D01*
X009910Y019152D02*
X009910Y020276D01*
X010455Y020821D01*
X010782Y021152D02*
X011129Y021152D01*
X011040Y021034D02*
X010870Y021034D01*
X010920Y020915D02*
X010991Y020915D01*
X010990Y020797D02*
X010920Y020797D01*
X010899Y020678D02*
X011011Y020678D01*
X011060Y020560D02*
X010850Y020560D01*
X010733Y020441D02*
X011177Y020441D01*
X011210Y020323D02*
X010240Y020323D01*
X010121Y020204D02*
X011210Y020204D01*
X011210Y020086D02*
X010110Y020086D01*
X010110Y019967D02*
X011210Y019967D01*
X011210Y019849D02*
X010110Y019849D01*
X010110Y019730D02*
X011210Y019730D01*
X011910Y020276D02*
X012455Y020821D01*
X012782Y021152D02*
X013129Y021152D01*
X013192Y021215D02*
X013061Y021085D01*
X012990Y020914D01*
X012990Y020729D01*
X013017Y020665D01*
X012710Y020359D01*
X012710Y019545D01*
X012661Y019525D01*
X012537Y019401D01*
X012470Y019239D01*
X012470Y019064D01*
X012537Y018903D01*
X012661Y018779D01*
X012822Y018712D01*
X012998Y018712D01*
X013159Y018779D01*
X013283Y018903D01*
X013350Y019064D01*
X013350Y019239D01*
X013283Y019401D01*
X013159Y019525D01*
X013110Y019545D01*
X013110Y020193D01*
X013299Y020382D01*
X013363Y020356D01*
X013548Y020356D01*
X013719Y020427D01*
X013849Y020558D01*
X013920Y020729D01*
X013920Y020914D01*
X013849Y021085D01*
X013719Y021215D01*
X013548Y021286D01*
X013363Y021286D01*
X013192Y021215D01*
X013326Y021271D02*
X012585Y021271D01*
X012569Y021348D02*
X012641Y021372D01*
X012709Y021406D01*
X012771Y021451D01*
X012825Y021505D01*
X012870Y021567D01*
X012905Y021635D01*
X012928Y021708D01*
X012940Y021781D01*
X012495Y021781D01*
X012495Y021336D01*
X012569Y021348D01*
X012495Y021389D02*
X012415Y021389D01*
X012415Y021336D02*
X012415Y021781D01*
X011971Y021781D01*
X011982Y021708D01*
X012006Y021635D01*
X012040Y021567D01*
X012085Y021505D01*
X012139Y021451D01*
X012201Y021406D01*
X012269Y021372D01*
X012342Y021348D01*
X012415Y021336D01*
X012326Y021271D02*
X011585Y021271D01*
X011548Y021356D02*
X011719Y021427D01*
X011849Y021558D01*
X011920Y021729D01*
X011920Y021914D01*
X011849Y022085D01*
X011719Y022215D01*
X011548Y022286D01*
X011363Y022286D01*
X011192Y022215D01*
X011061Y022085D01*
X010990Y021914D01*
X010990Y021729D01*
X011061Y021558D01*
X011192Y021427D01*
X011363Y021356D01*
X011548Y021356D01*
X011628Y021389D02*
X012234Y021389D01*
X012083Y021508D02*
X011800Y021508D01*
X011878Y021626D02*
X012010Y021626D01*
X011976Y021745D02*
X011920Y021745D01*
X011920Y021863D02*
X011971Y021863D01*
X011971Y021861D02*
X012415Y021861D01*
X012415Y021781D01*
X012495Y021781D01*
X012495Y021861D01*
X012415Y021861D01*
X012415Y022306D01*
X012342Y022294D01*
X012269Y022271D01*
X012201Y022236D01*
X012139Y022191D01*
X012085Y022137D01*
X012040Y022075D01*
X012006Y022007D01*
X011982Y021935D01*
X011971Y021861D01*
X011998Y021982D02*
X011892Y021982D01*
X011834Y022100D02*
X012059Y022100D01*
X012178Y022219D02*
X011710Y022219D01*
X011200Y022219D02*
X010710Y022219D01*
X010719Y022215D02*
X010548Y022286D01*
X010363Y022286D01*
X010192Y022215D01*
X010061Y022085D01*
X009990Y021914D01*
X009990Y021729D01*
X010061Y021558D01*
X010192Y021427D01*
X010363Y021356D01*
X010548Y021356D01*
X010719Y021427D01*
X010849Y021558D01*
X010920Y021729D01*
X010920Y021914D01*
X010849Y022085D01*
X010719Y022215D01*
X010834Y022100D02*
X011077Y022100D01*
X011019Y021982D02*
X010892Y021982D01*
X010920Y021863D02*
X010990Y021863D01*
X010990Y021745D02*
X010920Y021745D01*
X010878Y021626D02*
X011033Y021626D01*
X011111Y021508D02*
X010800Y021508D01*
X010628Y021389D02*
X011283Y021389D01*
X011326Y021271D02*
X010585Y021271D01*
X010326Y021271D02*
X009585Y021271D01*
X009569Y021348D02*
X009641Y021372D01*
X009709Y021406D01*
X009771Y021451D01*
X009825Y021505D01*
X009870Y021567D01*
X009905Y021635D01*
X009928Y021708D01*
X009940Y021781D01*
X009495Y021781D01*
X009495Y021336D01*
X009569Y021348D01*
X009495Y021389D02*
X009415Y021389D01*
X009415Y021336D02*
X009415Y021781D01*
X008971Y021781D01*
X008982Y021708D01*
X009006Y021635D01*
X009040Y021567D01*
X009085Y021505D01*
X009139Y021451D01*
X009201Y021406D01*
X009269Y021372D01*
X009342Y021348D01*
X009415Y021336D01*
X009326Y021271D02*
X009160Y021271D01*
X009160Y021389D02*
X009234Y021389D01*
X009083Y021508D02*
X009051Y021508D01*
X009010Y021626D02*
X008933Y021626D01*
X008920Y021745D02*
X008976Y021745D01*
X008971Y021861D02*
X009415Y021861D01*
X009415Y021781D01*
X009495Y021781D01*
X009495Y021861D01*
X009415Y021861D01*
X009415Y022306D01*
X009342Y022294D01*
X009269Y022271D01*
X009201Y022236D01*
X009139Y022191D01*
X009085Y022137D01*
X009040Y022075D01*
X009006Y022007D01*
X008982Y021935D01*
X008971Y021861D01*
X008971Y021863D02*
X008920Y021863D01*
X008892Y021982D02*
X008998Y021982D01*
X009059Y022100D02*
X008834Y022100D01*
X008710Y022219D02*
X009178Y022219D01*
X009415Y022219D02*
X009495Y022219D01*
X009495Y022306D02*
X009569Y022294D01*
X009641Y022271D01*
X009709Y022236D01*
X009771Y022191D01*
X009825Y022137D01*
X009870Y022075D01*
X009905Y022007D01*
X009928Y021935D01*
X009940Y021861D01*
X009495Y021861D01*
X009495Y022306D01*
X009495Y022100D02*
X009415Y022100D01*
X009415Y021982D02*
X009495Y021982D01*
X009495Y021863D02*
X009415Y021863D01*
X009415Y021745D02*
X009495Y021745D01*
X009495Y021626D02*
X009415Y021626D01*
X009415Y021508D02*
X009495Y021508D01*
X009676Y021389D02*
X010283Y021389D01*
X010111Y021508D02*
X009827Y021508D01*
X009900Y021626D02*
X010033Y021626D01*
X009990Y021745D02*
X009934Y021745D01*
X009940Y021863D02*
X009990Y021863D01*
X010019Y021982D02*
X009913Y021982D01*
X009852Y022100D02*
X010077Y022100D01*
X010200Y022219D02*
X009733Y022219D01*
X008723Y021271D02*
X008585Y021271D01*
X007200Y022219D02*
X006710Y022219D01*
X006834Y022100D02*
X007077Y022100D01*
X006200Y022219D02*
X005733Y022219D01*
X005709Y022236D02*
X005771Y022191D01*
X005825Y022137D01*
X005870Y022075D01*
X005905Y022007D01*
X005928Y021935D01*
X005940Y021861D01*
X005495Y021861D01*
X005415Y021861D01*
X005415Y021781D01*
X004971Y021781D01*
X004982Y021708D01*
X005006Y021635D01*
X005040Y021567D01*
X005085Y021505D01*
X005139Y021451D01*
X005201Y021406D01*
X005269Y021372D01*
X005342Y021348D01*
X005415Y021336D01*
X005415Y021781D01*
X005495Y021781D01*
X005495Y021336D01*
X005569Y021348D01*
X005641Y021372D01*
X005709Y021406D01*
X005771Y021451D01*
X005825Y021505D01*
X005870Y021567D01*
X005905Y021635D01*
X005928Y021708D01*
X005940Y021781D01*
X005495Y021781D01*
X005495Y021861D01*
X005495Y022306D01*
X005569Y022294D01*
X005641Y022271D01*
X005709Y022236D01*
X005852Y022100D02*
X006077Y022100D01*
X006019Y021982D02*
X005913Y021982D01*
X005940Y021863D02*
X005990Y021863D01*
X005990Y021745D02*
X005934Y021745D01*
X005900Y021626D02*
X006033Y021626D01*
X006111Y021508D02*
X005827Y021508D01*
X005865Y021389D02*
X005676Y021389D01*
X005760Y021271D02*
X005585Y021271D01*
X005495Y021389D02*
X005415Y021389D01*
X005415Y021508D02*
X005495Y021508D01*
X005495Y021626D02*
X005415Y021626D01*
X005415Y021745D02*
X005495Y021745D01*
X005495Y021863D02*
X005415Y021863D01*
X005415Y021861D02*
X005415Y022306D01*
X005342Y022294D01*
X005269Y022271D01*
X005201Y022236D01*
X005139Y022191D01*
X005085Y022137D01*
X005040Y022075D01*
X005006Y022007D01*
X004982Y021935D01*
X004971Y021861D01*
X005415Y021861D01*
X005415Y021982D02*
X005495Y021982D01*
X005495Y022100D02*
X005415Y022100D01*
X005415Y022219D02*
X005495Y022219D01*
X005178Y022219D02*
X004710Y022219D01*
X004719Y022215D02*
X004548Y022286D01*
X004363Y022286D01*
X004192Y022215D01*
X004061Y022085D01*
X004035Y022021D01*
X003876Y022021D01*
X003849Y022085D01*
X003719Y022215D01*
X003548Y022286D01*
X003363Y022286D01*
X003192Y022215D01*
X003061Y022085D01*
X002990Y021914D01*
X002990Y021729D01*
X003061Y021558D01*
X003192Y021427D01*
X003363Y021356D01*
X003548Y021356D01*
X003719Y021427D01*
X003849Y021558D01*
X003876Y021621D01*
X004035Y021621D01*
X004061Y021558D01*
X004192Y021427D01*
X004363Y021356D01*
X004548Y021356D01*
X004719Y021427D01*
X004849Y021558D01*
X004920Y021729D01*
X004920Y021914D01*
X004849Y022085D01*
X004719Y022215D01*
X004834Y022100D02*
X005059Y022100D01*
X004998Y021982D02*
X004892Y021982D01*
X004920Y021863D02*
X004971Y021863D01*
X004976Y021745D02*
X004920Y021745D01*
X004878Y021626D02*
X005010Y021626D01*
X005083Y021508D02*
X004800Y021508D01*
X004628Y021389D02*
X005234Y021389D01*
X005326Y021271D02*
X004585Y021271D01*
X004782Y021152D02*
X005129Y021152D01*
X005040Y021034D02*
X004870Y021034D01*
X004920Y020915D02*
X004991Y020915D01*
X004990Y020797D02*
X004920Y020797D01*
X004899Y020678D02*
X005011Y020678D01*
X004911Y020560D02*
X004850Y020560D01*
X004793Y020441D02*
X004733Y020441D01*
X004674Y020323D02*
X004240Y020323D01*
X004121Y020204D02*
X004556Y020204D01*
X004437Y020086D02*
X004003Y020086D01*
X003884Y019967D02*
X004319Y019967D01*
X003686Y020052D02*
X004455Y020821D01*
X004129Y021152D02*
X003920Y021152D01*
X003920Y021034D02*
X004040Y021034D01*
X003991Y020915D02*
X003920Y020915D01*
X003920Y020797D02*
X003990Y020797D01*
X004011Y020678D02*
X003920Y020678D01*
X003854Y021271D02*
X004326Y021271D01*
X004283Y021389D02*
X003628Y021389D01*
X003800Y021508D02*
X004111Y021508D01*
X004455Y021821D02*
X003455Y021821D01*
X003834Y022100D02*
X004077Y022100D01*
X004200Y022219D02*
X003710Y022219D01*
X003200Y022219D02*
X000657Y022219D01*
X000566Y022100D02*
X003077Y022100D01*
X003019Y021982D02*
X001807Y021982D01*
X001700Y022033D02*
X001375Y022033D01*
X001083Y021892D01*
X001083Y021892D01*
X000880Y021638D01*
X000880Y021638D01*
X000808Y021321D01*
X000880Y021004D01*
X001083Y020750D01*
X001375Y020609D01*
X001700Y020609D01*
X001993Y020750D01*
X001993Y020750D01*
X002196Y021004D01*
X002196Y021004D01*
X002268Y021321D01*
X002196Y021638D01*
X001993Y021892D01*
X001700Y022033D01*
X001993Y021892D02*
X001993Y021892D01*
X002016Y021863D02*
X002990Y021863D01*
X002990Y021745D02*
X002111Y021745D01*
X002196Y021638D02*
X002196Y021638D01*
X002199Y021626D02*
X003033Y021626D01*
X003111Y021508D02*
X002226Y021508D01*
X002253Y021389D02*
X003283Y021389D01*
X003057Y021271D02*
X002257Y021271D01*
X002230Y021152D02*
X002990Y021152D01*
X002990Y021034D02*
X002203Y021034D01*
X002125Y020915D02*
X002990Y020915D01*
X002990Y020797D02*
X002030Y020797D01*
X001993Y020750D02*
X001993Y020750D01*
X001844Y020678D02*
X002990Y020678D01*
X002990Y020560D02*
X000360Y020560D01*
X000360Y020678D02*
X001232Y020678D01*
X001083Y020750D02*
X001083Y020750D01*
X001045Y020797D02*
X000360Y020797D01*
X000360Y020915D02*
X000951Y020915D01*
X000880Y021004D02*
X000880Y021004D01*
X000873Y021034D02*
X000360Y021034D01*
X000360Y021152D02*
X000846Y021152D01*
X000819Y021271D02*
X000360Y021271D01*
X000360Y021389D02*
X000823Y021389D01*
X000808Y021321D02*
X000808Y021321D01*
X000850Y021508D02*
X000360Y021508D01*
X000369Y021626D02*
X000877Y021626D01*
X000965Y021745D02*
X000396Y021745D01*
X000434Y021863D02*
X001060Y021863D01*
X001083Y021892D02*
X001083Y021892D01*
X001269Y021982D02*
X000480Y021982D01*
X000820Y022337D02*
X025090Y022337D01*
X025253Y022219D02*
X022710Y022219D01*
X022719Y022215D02*
X022548Y022286D01*
X022363Y022286D01*
X022192Y022215D01*
X022061Y022085D01*
X021990Y021914D01*
X021990Y021729D01*
X022061Y021558D01*
X022192Y021427D01*
X022363Y021356D01*
X022548Y021356D01*
X022601Y021378D01*
X022760Y021219D01*
X022760Y021199D01*
X022709Y021236D01*
X022641Y021271D01*
X022708Y021271D01*
X022641Y021271D02*
X022569Y021294D01*
X022495Y021306D01*
X022495Y020861D01*
X022415Y020861D01*
X022415Y021306D01*
X022342Y021294D01*
X022269Y021271D01*
X022201Y021236D01*
X022160Y021206D01*
X022160Y021399D01*
X021894Y021665D01*
X021920Y021729D01*
X021920Y021914D01*
X021849Y022085D01*
X021719Y022215D01*
X021548Y022286D01*
X021363Y022286D01*
X021192Y022215D01*
X021061Y022085D01*
X020990Y021914D01*
X020990Y021729D01*
X021061Y021558D01*
X021192Y021427D01*
X021363Y021356D01*
X021548Y021356D01*
X021611Y021382D01*
X021760Y021234D01*
X021760Y021174D01*
X021719Y021215D01*
X021548Y021286D01*
X021363Y021286D01*
X021192Y021215D01*
X021160Y021183D01*
X021160Y021349D01*
X021055Y021454D01*
X020885Y021643D01*
X020920Y021729D01*
X020920Y021914D01*
X020849Y022085D01*
X020719Y022215D01*
X020548Y022286D01*
X020363Y022286D01*
X020192Y022215D01*
X020061Y022085D01*
X019990Y021914D01*
X019990Y021729D01*
X020061Y021558D01*
X020192Y021427D01*
X020363Y021356D01*
X020548Y021356D01*
X020589Y021373D01*
X020710Y021240D01*
X020710Y021234D01*
X020760Y021184D01*
X020760Y021174D01*
X020719Y021215D01*
X020548Y021286D01*
X020363Y021286D01*
X020192Y021215D01*
X020061Y021085D01*
X019990Y020914D01*
X019990Y020729D01*
X020061Y020558D01*
X020192Y020427D01*
X020363Y020356D01*
X020548Y020356D01*
X020710Y020423D01*
X020710Y019545D01*
X020661Y019525D01*
X020537Y019401D01*
X020470Y019239D01*
X020470Y019064D01*
X020537Y018903D01*
X020661Y018779D01*
X020822Y018712D01*
X020998Y018712D01*
X021159Y018779D01*
X021283Y018903D01*
X021350Y019064D01*
X021350Y019239D01*
X021283Y019401D01*
X021159Y019525D01*
X021110Y019545D01*
X021110Y020369D01*
X021160Y020419D01*
X021160Y020459D01*
X021192Y020427D01*
X021363Y020356D01*
X021548Y020356D01*
X021719Y020427D01*
X021760Y020468D01*
X021760Y020369D01*
X021877Y020252D01*
X022632Y019497D01*
X022537Y019401D01*
X022470Y019239D01*
X022470Y019064D01*
X022537Y018903D01*
X022661Y018779D01*
X022822Y018712D01*
X022998Y018712D01*
X023159Y018779D01*
X023283Y018903D01*
X023350Y019064D01*
X023350Y019239D01*
X023283Y019401D01*
X023159Y019525D01*
X023110Y019545D01*
X023110Y019585D01*
X022348Y020347D01*
X022415Y020336D01*
X022415Y020781D01*
X022495Y020781D01*
X022495Y020336D01*
X022569Y020348D01*
X022641Y020372D01*
X022709Y020406D01*
X022760Y020443D01*
X022760Y020019D01*
X023490Y019289D01*
X023470Y019239D01*
X023470Y019064D01*
X023537Y018903D01*
X023661Y018779D01*
X023822Y018712D01*
X023998Y018712D01*
X024159Y018779D01*
X024283Y018903D01*
X024350Y019064D01*
X024350Y019239D01*
X024283Y019401D01*
X024159Y019525D01*
X023998Y019592D01*
X023822Y019592D01*
X023773Y019571D01*
X023160Y020185D01*
X023160Y021385D01*
X023043Y021502D01*
X022890Y021655D01*
X022920Y021729D01*
X022920Y021914D01*
X022849Y022085D01*
X022719Y022215D01*
X022834Y022100D02*
X025344Y022100D01*
X025430Y021982D02*
X024641Y021982D01*
X024535Y022033D02*
X024210Y022033D01*
X023917Y021892D01*
X023715Y021638D01*
X023642Y021321D01*
X023715Y021004D01*
X023917Y020750D01*
X023917Y020750D01*
X024210Y020609D01*
X024535Y020609D01*
X024828Y020750D01*
X024828Y020750D01*
X024828Y020750D01*
X025031Y021004D01*
X025103Y021321D01*
X025031Y021638D01*
X024828Y021892D01*
X024828Y021892D01*
X024535Y022033D01*
X024851Y021863D02*
X025476Y021863D01*
X025515Y021745D02*
X024945Y021745D01*
X025031Y021638D02*
X025031Y021638D01*
X025033Y021626D02*
X025542Y021626D01*
X025551Y021508D02*
X025060Y021508D01*
X025087Y021389D02*
X025551Y021389D01*
X025551Y021271D02*
X025091Y021271D01*
X025064Y021152D02*
X025551Y021152D01*
X025551Y021034D02*
X025037Y021034D01*
X025031Y021004D02*
X025031Y021004D01*
X024960Y020915D02*
X025551Y020915D01*
X025551Y020797D02*
X024865Y020797D01*
X024679Y020678D02*
X025551Y020678D01*
X025551Y020560D02*
X023160Y020560D01*
X023160Y020678D02*
X024066Y020678D01*
X023880Y020797D02*
X023160Y020797D01*
X023160Y020915D02*
X023786Y020915D01*
X023715Y021004D02*
X023715Y021004D01*
X023708Y021034D02*
X023160Y021034D01*
X023160Y021152D02*
X023681Y021152D01*
X023654Y021271D02*
X023160Y021271D01*
X023155Y021389D02*
X023658Y021389D01*
X023642Y021321D02*
X023642Y021321D01*
X023685Y021508D02*
X023037Y021508D01*
X022918Y021626D02*
X023712Y021626D01*
X023715Y021638D02*
X023715Y021638D01*
X023800Y021745D02*
X022920Y021745D01*
X022920Y021863D02*
X023894Y021863D01*
X023917Y021892D02*
X023917Y021892D01*
X023917Y021892D01*
X024104Y021982D02*
X022892Y021982D01*
X022455Y021821D02*
X022455Y021807D01*
X022960Y021302D01*
X022960Y020102D01*
X023910Y019152D01*
X024350Y019138D02*
X024870Y019138D01*
X024870Y019112D02*
X024451Y019112D01*
X024461Y019044D01*
X024484Y018975D01*
X024517Y018911D01*
X024559Y018852D01*
X024610Y018801D01*
X024669Y018758D01*
X024733Y018726D01*
X024802Y018703D01*
X024870Y018692D01*
X024870Y019112D01*
X024870Y019192D01*
X024870Y019611D01*
X024802Y019600D01*
X024733Y019578D01*
X024669Y019545D01*
X024610Y019503D01*
X024559Y019451D01*
X024517Y019393D01*
X024484Y019328D01*
X024461Y019260D01*
X024451Y019192D01*
X024870Y019192D01*
X024950Y019192D01*
X024950Y019611D01*
X025018Y019600D01*
X025087Y019578D01*
X025151Y019545D01*
X025210Y019503D01*
X025261Y019451D01*
X025303Y019393D01*
X025336Y019328D01*
X025359Y019260D01*
X025369Y019192D01*
X024950Y019192D01*
X024950Y019112D01*
X025369Y019112D01*
X025359Y019044D01*
X025336Y018975D01*
X025303Y018911D01*
X025261Y018852D01*
X025210Y018801D01*
X025151Y018758D01*
X025087Y018726D01*
X025018Y018703D01*
X024950Y018692D01*
X024950Y019112D01*
X024870Y019112D01*
X024950Y019138D02*
X025551Y019138D01*
X025551Y019256D02*
X025359Y019256D01*
X025313Y019375D02*
X025551Y019375D01*
X025551Y019493D02*
X025219Y019493D01*
X024950Y019493D02*
X024870Y019493D01*
X024870Y019375D02*
X024950Y019375D01*
X024950Y019256D02*
X024870Y019256D01*
X024870Y019019D02*
X024950Y019019D01*
X024950Y018901D02*
X024870Y018901D01*
X024870Y018782D02*
X024950Y018782D01*
X025184Y018782D02*
X025551Y018782D01*
X025551Y018664D02*
X011610Y018664D01*
X011610Y018782D02*
X011657Y018782D01*
X011610Y018545D02*
X025551Y018545D01*
X025551Y018427D02*
X011610Y018427D01*
X011636Y018308D02*
X025551Y018308D01*
X025551Y018190D02*
X017305Y018190D01*
X017423Y018071D02*
X025551Y018071D01*
X025551Y017953D02*
X017542Y017953D01*
X017560Y017834D02*
X025551Y017834D01*
X025551Y017716D02*
X017560Y017716D01*
X017560Y017597D02*
X025551Y017597D01*
X025551Y017479D02*
X017560Y017479D01*
X017777Y017360D02*
X017854Y017360D01*
X017854Y017242D02*
X017777Y017242D01*
X017777Y017123D02*
X017854Y017123D01*
X017854Y016973D02*
X017854Y016655D01*
X018053Y016655D01*
X018094Y016666D01*
X018130Y016687D01*
X018160Y016717D01*
X018178Y016747D01*
X018244Y016681D01*
X018192Y016681D01*
X018132Y016621D01*
X017560Y016621D01*
X017560Y016660D01*
X017578Y016655D01*
X017777Y016655D01*
X017777Y016973D01*
X017854Y016973D01*
X017854Y016886D02*
X017777Y016886D01*
X017777Y016768D02*
X017854Y016768D01*
X017560Y016649D02*
X018161Y016649D01*
X018524Y016582D02*
X018524Y017012D01*
X018881Y017005D02*
X025551Y017005D01*
X025551Y017123D02*
X018881Y017123D01*
X018881Y017242D02*
X025551Y017242D01*
X025551Y017360D02*
X018084Y017360D01*
X018524Y016582D02*
X018685Y016421D01*
X017529Y016421D01*
X017360Y016252D01*
X017160Y016294D02*
X000360Y016294D01*
X000360Y016412D02*
X017160Y016412D01*
X017160Y016531D02*
X000360Y016531D01*
X000360Y016649D02*
X017160Y016649D01*
X017160Y016768D02*
X000360Y016768D01*
X000360Y016886D02*
X017160Y016886D01*
X017160Y017005D02*
X000360Y017005D01*
X000360Y017123D02*
X017160Y017123D01*
X017160Y017242D02*
X000360Y017242D01*
X000360Y017360D02*
X017160Y017360D01*
X017160Y017479D02*
X000360Y017479D01*
X000360Y017597D02*
X017160Y017597D01*
X017160Y017716D02*
X000360Y017716D01*
X000360Y017834D02*
X017095Y017834D01*
X016998Y018712D02*
X016822Y018712D01*
X016661Y018779D01*
X016537Y018903D01*
X016470Y019064D01*
X016470Y019239D01*
X016537Y019401D01*
X016661Y019525D01*
X016710Y019545D01*
X016710Y020359D01*
X017017Y020665D01*
X016990Y020729D01*
X016990Y020914D01*
X017061Y021085D01*
X017192Y021215D01*
X017363Y021286D01*
X017548Y021286D01*
X017719Y021215D01*
X017849Y021085D01*
X017920Y020914D01*
X017920Y020729D01*
X017849Y020558D01*
X017719Y020427D01*
X017548Y020356D01*
X017363Y020356D01*
X017299Y020382D01*
X017110Y020193D01*
X017110Y019545D01*
X017159Y019525D01*
X017283Y019401D01*
X017350Y019239D01*
X017350Y019064D01*
X017283Y018903D01*
X017159Y018779D01*
X016998Y018712D01*
X017163Y018782D02*
X017657Y018782D01*
X017661Y018779D02*
X017822Y018712D01*
X017998Y018712D01*
X018159Y018779D01*
X018283Y018903D01*
X018350Y019064D01*
X018350Y019239D01*
X018283Y019401D01*
X018159Y019525D01*
X018110Y019545D01*
X018110Y020193D01*
X018299Y020382D01*
X018363Y020356D01*
X018548Y020356D01*
X018719Y020427D01*
X018760Y020468D01*
X018760Y019885D01*
X018710Y019835D01*
X018710Y019545D01*
X018661Y019525D01*
X018537Y019401D01*
X018470Y019239D01*
X018470Y019064D01*
X018537Y018903D01*
X018661Y018779D01*
X018822Y018712D01*
X018998Y018712D01*
X019159Y018779D01*
X019283Y018903D01*
X019350Y019064D01*
X019350Y019239D01*
X019283Y019401D01*
X019159Y019525D01*
X019110Y019545D01*
X019110Y019669D01*
X019160Y019719D01*
X019160Y020459D01*
X019192Y020427D01*
X019363Y020356D01*
X019548Y020356D01*
X019611Y020382D01*
X019710Y020284D01*
X019710Y019545D01*
X019661Y019525D01*
X019537Y019401D01*
X019470Y019239D01*
X019470Y019064D01*
X019537Y018903D01*
X019661Y018779D01*
X019822Y018712D01*
X019998Y018712D01*
X020159Y018779D01*
X020283Y018903D01*
X020350Y019064D01*
X020350Y019239D01*
X020283Y019401D01*
X020159Y019525D01*
X020110Y019545D01*
X020110Y020449D01*
X019894Y020665D01*
X019920Y020729D01*
X019920Y020914D01*
X019849Y021085D01*
X019719Y021215D01*
X019548Y021286D01*
X019363Y021286D01*
X019192Y021215D01*
X019160Y021183D01*
X019160Y021399D01*
X019043Y021516D01*
X019043Y021516D01*
X018894Y021665D01*
X018920Y021729D01*
X018920Y021914D01*
X018849Y022085D01*
X018719Y022215D01*
X018548Y022286D01*
X018363Y022286D01*
X018192Y022215D01*
X018061Y022085D01*
X017990Y021914D01*
X017990Y021729D01*
X018061Y021558D01*
X018192Y021427D01*
X018363Y021356D01*
X018548Y021356D01*
X018611Y021382D01*
X018760Y021234D01*
X018760Y021174D01*
X018719Y021215D01*
X018548Y021286D01*
X018363Y021286D01*
X018192Y021215D01*
X018061Y021085D01*
X017990Y020914D01*
X017990Y020729D01*
X018017Y020665D01*
X017710Y020359D01*
X017710Y019545D01*
X017661Y019525D01*
X017537Y019401D01*
X017470Y019239D01*
X017470Y019064D01*
X017537Y018903D01*
X017661Y018779D01*
X017539Y018901D02*
X017281Y018901D01*
X017331Y019019D02*
X017489Y019019D01*
X017470Y019138D02*
X017350Y019138D01*
X017343Y019256D02*
X017477Y019256D01*
X017526Y019375D02*
X017294Y019375D01*
X017191Y019493D02*
X017629Y019493D01*
X017710Y019612D02*
X017110Y019612D01*
X017110Y019730D02*
X017710Y019730D01*
X017710Y019849D02*
X017110Y019849D01*
X017110Y019967D02*
X017710Y019967D01*
X017710Y020086D02*
X017110Y020086D01*
X017121Y020204D02*
X017710Y020204D01*
X017710Y020323D02*
X017240Y020323D01*
X016910Y020276D02*
X017455Y020821D01*
X017782Y021152D02*
X018129Y021152D01*
X018040Y021034D02*
X017870Y021034D01*
X017920Y020915D02*
X017991Y020915D01*
X017990Y020797D02*
X017920Y020797D01*
X017899Y020678D02*
X018011Y020678D01*
X017911Y020560D02*
X017850Y020560D01*
X017793Y020441D02*
X017733Y020441D01*
X017910Y020276D02*
X018455Y020821D01*
X018326Y021271D02*
X017585Y021271D01*
X017569Y021348D02*
X017641Y021372D01*
X017709Y021406D01*
X017771Y021451D01*
X017825Y021505D01*
X017870Y021567D01*
X017905Y021635D01*
X017928Y021708D01*
X017940Y021781D01*
X017495Y021781D01*
X017495Y021336D01*
X017569Y021348D01*
X017495Y021389D02*
X017415Y021389D01*
X017415Y021336D02*
X017415Y021781D01*
X016971Y021781D01*
X016982Y021708D01*
X017006Y021635D01*
X017040Y021567D01*
X017085Y021505D01*
X017139Y021451D01*
X017201Y021406D01*
X017269Y021372D01*
X017342Y021348D01*
X017415Y021336D01*
X017326Y021271D02*
X016585Y021271D01*
X016548Y021286D02*
X016363Y021286D01*
X016192Y021215D01*
X016160Y021183D01*
X016160Y021399D01*
X016043Y021516D01*
X015894Y021665D01*
X015920Y021729D01*
X015920Y021914D01*
X015849Y022085D01*
X015719Y022215D01*
X015548Y022286D01*
X015363Y022286D01*
X015192Y022215D01*
X015061Y022085D01*
X014990Y021914D01*
X014990Y021729D01*
X015061Y021558D01*
X015192Y021427D01*
X015363Y021356D01*
X015548Y021356D01*
X015611Y021382D01*
X015760Y021234D01*
X015760Y021199D01*
X015709Y021236D01*
X015641Y021271D01*
X015723Y021271D01*
X015641Y021271D02*
X015569Y021294D01*
X015495Y021306D01*
X015495Y020861D01*
X015415Y020861D01*
X015415Y021306D01*
X015342Y021294D01*
X015269Y021271D01*
X015201Y021236D01*
X015160Y021206D01*
X015160Y021399D01*
X015043Y021516D01*
X014894Y021665D01*
X014920Y021729D01*
X014920Y021914D01*
X014849Y022085D01*
X014719Y022215D01*
X014548Y022286D01*
X014363Y022286D01*
X014192Y022215D01*
X014061Y022085D01*
X013990Y021914D01*
X013990Y021729D01*
X014061Y021558D01*
X014192Y021427D01*
X014363Y021356D01*
X014548Y021356D01*
X014611Y021382D01*
X014760Y021234D01*
X014760Y021174D01*
X014719Y021215D01*
X014548Y021286D01*
X014363Y021286D01*
X014192Y021215D01*
X014061Y021085D01*
X013990Y020914D01*
X013990Y020729D01*
X014017Y020665D01*
X013710Y020359D01*
X013710Y019545D01*
X013661Y019525D01*
X013537Y019401D01*
X013470Y019239D01*
X013470Y019064D01*
X013537Y018903D01*
X013661Y018779D01*
X013822Y018712D01*
X013998Y018712D01*
X014159Y018779D01*
X014283Y018903D01*
X014350Y019064D01*
X014350Y019239D01*
X014283Y019401D01*
X014159Y019525D01*
X014110Y019545D01*
X014110Y020193D01*
X014299Y020382D01*
X014363Y020356D01*
X014548Y020356D01*
X014719Y020427D01*
X014760Y020468D01*
X014760Y020035D01*
X014710Y019985D01*
X014710Y019545D01*
X014661Y019525D01*
X014537Y019401D01*
X014470Y019239D01*
X014470Y019064D01*
X014537Y018903D01*
X014661Y018779D01*
X014822Y018712D01*
X014998Y018712D01*
X015159Y018779D01*
X015283Y018903D01*
X015350Y019064D01*
X015350Y019239D01*
X015283Y019401D01*
X015159Y019525D01*
X015110Y019545D01*
X015110Y019819D01*
X015160Y019869D01*
X015160Y020436D01*
X015201Y020406D01*
X015269Y020372D01*
X015342Y020348D01*
X015415Y020336D01*
X015415Y020781D01*
X015495Y020781D01*
X015495Y020336D01*
X015569Y020348D01*
X015641Y020372D01*
X015709Y020406D01*
X015760Y020443D01*
X015760Y019685D01*
X015710Y019635D01*
X015710Y019545D01*
X015661Y019525D01*
X015537Y019401D01*
X015470Y019239D01*
X015470Y019064D01*
X015537Y018903D01*
X015661Y018779D01*
X015822Y018712D01*
X015998Y018712D01*
X016159Y018779D01*
X016283Y018903D01*
X016350Y019064D01*
X016350Y019239D01*
X016283Y019401D01*
X016160Y019524D01*
X016160Y020459D01*
X016192Y020427D01*
X016363Y020356D01*
X016548Y020356D01*
X016719Y020427D01*
X016849Y020558D01*
X016920Y020729D01*
X016920Y020914D01*
X016849Y021085D01*
X016719Y021215D01*
X016548Y021286D01*
X016548Y021356D02*
X016719Y021427D01*
X016849Y021558D01*
X016920Y021729D01*
X016920Y021914D01*
X016849Y022085D01*
X016719Y022215D01*
X016548Y022286D01*
X016363Y022286D01*
X016192Y022215D01*
X016061Y022085D01*
X015990Y021914D01*
X015990Y021729D01*
X016061Y021558D01*
X016192Y021427D01*
X016363Y021356D01*
X016548Y021356D01*
X016628Y021389D02*
X017234Y021389D01*
X017083Y021508D02*
X016800Y021508D01*
X016878Y021626D02*
X017010Y021626D01*
X016976Y021745D02*
X016920Y021745D01*
X016920Y021863D02*
X016971Y021863D01*
X016971Y021861D02*
X017415Y021861D01*
X017415Y021781D01*
X017495Y021781D01*
X017495Y021861D01*
X017415Y021861D01*
X017415Y022306D01*
X017342Y022294D01*
X017269Y022271D01*
X017201Y022236D01*
X017139Y022191D01*
X017085Y022137D01*
X017040Y022075D01*
X017006Y022007D01*
X016982Y021935D01*
X016971Y021861D01*
X016998Y021982D02*
X016892Y021982D01*
X016834Y022100D02*
X017059Y022100D01*
X017178Y022219D02*
X016710Y022219D01*
X016200Y022219D02*
X015710Y022219D01*
X015834Y022100D02*
X016077Y022100D01*
X016019Y021982D02*
X015892Y021982D01*
X015920Y021863D02*
X015990Y021863D01*
X015990Y021745D02*
X015920Y021745D01*
X015933Y021626D02*
X016033Y021626D01*
X016051Y021508D02*
X016111Y021508D01*
X016160Y021389D02*
X016283Y021389D01*
X016326Y021271D02*
X016160Y021271D01*
X015960Y021316D02*
X015960Y019602D01*
X015910Y019552D01*
X015910Y019152D01*
X016350Y019138D02*
X016470Y019138D01*
X016477Y019256D02*
X016343Y019256D01*
X016294Y019375D02*
X016526Y019375D01*
X016629Y019493D02*
X016191Y019493D01*
X016160Y019612D02*
X016710Y019612D01*
X016710Y019730D02*
X016160Y019730D01*
X016160Y019849D02*
X016710Y019849D01*
X016710Y019967D02*
X016160Y019967D01*
X016160Y020086D02*
X016710Y020086D01*
X016710Y020204D02*
X016160Y020204D01*
X016160Y020323D02*
X016710Y020323D01*
X016733Y020441D02*
X016793Y020441D01*
X016850Y020560D02*
X016911Y020560D01*
X016899Y020678D02*
X017011Y020678D01*
X016990Y020797D02*
X016920Y020797D01*
X016920Y020915D02*
X016991Y020915D01*
X017040Y021034D02*
X016870Y021034D01*
X016782Y021152D02*
X017129Y021152D01*
X017415Y021508D02*
X017495Y021508D01*
X017495Y021626D02*
X017415Y021626D01*
X017415Y021745D02*
X017495Y021745D01*
X017495Y021861D02*
X017940Y021861D01*
X017928Y021935D01*
X017905Y022007D01*
X017870Y022075D01*
X017825Y022137D01*
X017771Y022191D01*
X017709Y022236D01*
X017641Y022271D01*
X017569Y022294D01*
X017495Y022306D01*
X017495Y021861D01*
X017495Y021863D02*
X017415Y021863D01*
X017415Y021982D02*
X017495Y021982D01*
X017495Y022100D02*
X017415Y022100D01*
X017415Y022219D02*
X017495Y022219D01*
X017733Y022219D02*
X018200Y022219D01*
X018077Y022100D02*
X017852Y022100D01*
X017913Y021982D02*
X018019Y021982D01*
X017990Y021863D02*
X017940Y021863D01*
X017934Y021745D02*
X017990Y021745D01*
X018033Y021626D02*
X017900Y021626D01*
X017827Y021508D02*
X018111Y021508D01*
X018283Y021389D02*
X017676Y021389D01*
X018455Y021821D02*
X018960Y021316D01*
X018960Y019802D01*
X018910Y019752D01*
X018910Y019152D01*
X018470Y019138D02*
X018350Y019138D01*
X018343Y019256D02*
X018477Y019256D01*
X018526Y019375D02*
X018294Y019375D01*
X018191Y019493D02*
X018629Y019493D01*
X018710Y019612D02*
X018110Y019612D01*
X018110Y019730D02*
X018710Y019730D01*
X018724Y019849D02*
X018110Y019849D01*
X018110Y019967D02*
X018760Y019967D01*
X018760Y020086D02*
X018110Y020086D01*
X018121Y020204D02*
X018760Y020204D01*
X018760Y020323D02*
X018240Y020323D01*
X017910Y020276D02*
X017910Y019152D01*
X018163Y018782D02*
X018657Y018782D01*
X018539Y018901D02*
X018281Y018901D01*
X018331Y019019D02*
X018489Y019019D01*
X019163Y018782D02*
X019657Y018782D01*
X019539Y018901D02*
X019281Y018901D01*
X019331Y019019D02*
X019489Y019019D01*
X019470Y019138D02*
X019350Y019138D01*
X019343Y019256D02*
X019477Y019256D01*
X019526Y019375D02*
X019294Y019375D01*
X019191Y019493D02*
X019629Y019493D01*
X019710Y019612D02*
X019110Y019612D01*
X019160Y019730D02*
X019710Y019730D01*
X019710Y019849D02*
X019160Y019849D01*
X019160Y019967D02*
X019710Y019967D01*
X019710Y020086D02*
X019160Y020086D01*
X019160Y020204D02*
X019710Y020204D01*
X019671Y020323D02*
X019160Y020323D01*
X019160Y020441D02*
X019177Y020441D01*
X018760Y020441D02*
X018733Y020441D01*
X019455Y020821D02*
X019910Y020366D01*
X019910Y019152D01*
X020163Y018782D02*
X020657Y018782D01*
X020539Y018901D02*
X020281Y018901D01*
X020331Y019019D02*
X020489Y019019D01*
X020470Y019138D02*
X020350Y019138D01*
X020343Y019256D02*
X020477Y019256D01*
X020526Y019375D02*
X020294Y019375D01*
X020191Y019493D02*
X020629Y019493D01*
X020710Y019612D02*
X020110Y019612D01*
X020110Y019730D02*
X020710Y019730D01*
X020710Y019849D02*
X020110Y019849D01*
X020110Y019967D02*
X020710Y019967D01*
X020710Y020086D02*
X020110Y020086D01*
X020110Y020204D02*
X020710Y020204D01*
X020710Y020323D02*
X020110Y020323D01*
X020110Y020441D02*
X020177Y020441D01*
X020060Y020560D02*
X019999Y020560D01*
X020011Y020678D02*
X019899Y020678D01*
X019920Y020797D02*
X019990Y020797D01*
X019991Y020915D02*
X019920Y020915D01*
X019870Y021034D02*
X020040Y021034D01*
X020129Y021152D02*
X019782Y021152D01*
X019585Y021271D02*
X020326Y021271D01*
X020283Y021389D02*
X019676Y021389D01*
X019709Y021406D02*
X019771Y021451D01*
X019825Y021505D01*
X019870Y021567D01*
X019905Y021635D01*
X019928Y021708D01*
X019940Y021781D01*
X019495Y021781D01*
X019495Y021336D01*
X019569Y021348D01*
X019641Y021372D01*
X019709Y021406D01*
X019827Y021508D02*
X020111Y021508D01*
X020033Y021626D02*
X019900Y021626D01*
X019934Y021745D02*
X019990Y021745D01*
X019990Y021863D02*
X019940Y021863D01*
X019940Y021861D02*
X019928Y021935D01*
X019905Y022007D01*
X019870Y022075D01*
X019825Y022137D01*
X019771Y022191D01*
X019709Y022236D01*
X019641Y022271D01*
X019569Y022294D01*
X019495Y022306D01*
X019495Y021861D01*
X019415Y021861D01*
X019415Y021781D01*
X018971Y021781D01*
X018982Y021708D01*
X019006Y021635D01*
X019040Y021567D01*
X019085Y021505D01*
X019139Y021451D01*
X019201Y021406D01*
X019269Y021372D01*
X019342Y021348D01*
X019415Y021336D01*
X019415Y021781D01*
X019495Y021781D01*
X019495Y021861D01*
X019940Y021861D01*
X019913Y021982D02*
X020019Y021982D01*
X020077Y022100D02*
X019852Y022100D01*
X019733Y022219D02*
X020200Y022219D01*
X020455Y021821D02*
X020910Y021316D01*
X020960Y021266D01*
X020960Y020502D01*
X020910Y020452D01*
X020910Y019152D01*
X021163Y018782D02*
X021657Y018782D01*
X021661Y018779D02*
X021822Y018712D01*
X021998Y018712D01*
X022159Y018779D01*
X022283Y018903D01*
X022350Y019064D01*
X022350Y019239D01*
X022283Y019401D01*
X022159Y019525D01*
X021998Y019592D01*
X021822Y019592D01*
X021661Y019525D01*
X021537Y019401D01*
X021470Y019239D01*
X021470Y019064D01*
X021537Y018903D01*
X021661Y018779D01*
X021539Y018901D02*
X021281Y018901D01*
X021331Y019019D02*
X021489Y019019D01*
X021470Y019138D02*
X021350Y019138D01*
X021343Y019256D02*
X021477Y019256D01*
X021526Y019375D02*
X021294Y019375D01*
X021191Y019493D02*
X021629Y019493D01*
X021110Y019612D02*
X022517Y019612D01*
X022629Y019493D02*
X022191Y019493D01*
X022294Y019375D02*
X022526Y019375D01*
X022477Y019256D02*
X022343Y019256D01*
X022350Y019138D02*
X022470Y019138D01*
X022489Y019019D02*
X022331Y019019D01*
X022281Y018901D02*
X022539Y018901D01*
X022657Y018782D02*
X022163Y018782D01*
X022910Y019152D02*
X022910Y019502D01*
X021960Y020452D01*
X021960Y021316D01*
X021455Y021821D01*
X021033Y021626D02*
X020900Y021626D01*
X020920Y021745D02*
X020990Y021745D01*
X020990Y021863D02*
X020920Y021863D01*
X020892Y021982D02*
X021019Y021982D01*
X021077Y022100D02*
X020834Y022100D01*
X020710Y022219D02*
X021200Y022219D01*
X021710Y022219D02*
X022200Y022219D01*
X022077Y022100D02*
X021834Y022100D01*
X021892Y021982D02*
X022019Y021982D01*
X021990Y021863D02*
X021920Y021863D01*
X021920Y021745D02*
X021990Y021745D01*
X022033Y021626D02*
X021933Y021626D01*
X022051Y021508D02*
X022111Y021508D01*
X022160Y021389D02*
X022283Y021389D01*
X022270Y021271D02*
X022160Y021271D01*
X022415Y021271D02*
X022495Y021271D01*
X022495Y021152D02*
X022415Y021152D01*
X022415Y021034D02*
X022495Y021034D01*
X022495Y020915D02*
X022415Y020915D01*
X022415Y020678D02*
X022495Y020678D01*
X022495Y020560D02*
X022415Y020560D01*
X022415Y020441D02*
X022495Y020441D01*
X022372Y020323D02*
X022760Y020323D01*
X022758Y020441D02*
X022760Y020441D01*
X022760Y020204D02*
X022490Y020204D01*
X022609Y020086D02*
X022760Y020086D01*
X022727Y019967D02*
X022812Y019967D01*
X022846Y019849D02*
X022930Y019849D01*
X022964Y019730D02*
X023049Y019730D01*
X023083Y019612D02*
X023167Y019612D01*
X023191Y019493D02*
X023286Y019493D01*
X023294Y019375D02*
X023404Y019375D01*
X023343Y019256D02*
X023477Y019256D01*
X023470Y019138D02*
X023350Y019138D01*
X023331Y019019D02*
X023489Y019019D01*
X023539Y018901D02*
X023281Y018901D01*
X023163Y018782D02*
X023657Y018782D01*
X024163Y018782D02*
X024636Y018782D01*
X024524Y018901D02*
X024281Y018901D01*
X024331Y019019D02*
X024469Y019019D01*
X024461Y019256D02*
X024343Y019256D01*
X024294Y019375D02*
X024507Y019375D01*
X024601Y019493D02*
X024191Y019493D01*
X023733Y019612D02*
X025551Y019612D01*
X025551Y019730D02*
X023614Y019730D01*
X023496Y019849D02*
X025551Y019849D01*
X025551Y019967D02*
X023377Y019967D01*
X023259Y020086D02*
X025551Y020086D01*
X025551Y020204D02*
X023160Y020204D01*
X023160Y020323D02*
X025551Y020323D01*
X025551Y020441D02*
X023160Y020441D01*
X022399Y019730D02*
X021110Y019730D01*
X021110Y019849D02*
X022280Y019849D01*
X022162Y019967D02*
X021110Y019967D01*
X021110Y020086D02*
X022043Y020086D01*
X021925Y020204D02*
X021110Y020204D01*
X021110Y020323D02*
X021806Y020323D01*
X021760Y020441D02*
X021733Y020441D01*
X021177Y020441D02*
X021160Y020441D01*
X021160Y021271D02*
X021326Y021271D01*
X021283Y021389D02*
X021120Y021389D01*
X021111Y021508D02*
X021007Y021508D01*
X020682Y021271D02*
X020585Y021271D01*
X021585Y021271D02*
X021723Y021271D01*
X019495Y021389D02*
X019415Y021389D01*
X019415Y021508D02*
X019495Y021508D01*
X019495Y021626D02*
X019415Y021626D01*
X019415Y021745D02*
X019495Y021745D01*
X019495Y021863D02*
X019415Y021863D01*
X019415Y021861D02*
X019415Y022306D01*
X019342Y022294D01*
X019269Y022271D01*
X019201Y022236D01*
X019139Y022191D01*
X019085Y022137D01*
X019040Y022075D01*
X019006Y022007D01*
X018982Y021935D01*
X018971Y021861D01*
X019415Y021861D01*
X019415Y021982D02*
X019495Y021982D01*
X019495Y022100D02*
X019415Y022100D01*
X019415Y022219D02*
X019495Y022219D01*
X019178Y022219D02*
X018710Y022219D01*
X018834Y022100D02*
X019059Y022100D01*
X018998Y021982D02*
X018892Y021982D01*
X018920Y021863D02*
X018971Y021863D01*
X018976Y021745D02*
X018920Y021745D01*
X018933Y021626D02*
X019010Y021626D01*
X019051Y021508D02*
X019083Y021508D01*
X019160Y021389D02*
X019234Y021389D01*
X019160Y021271D02*
X019326Y021271D01*
X018723Y021271D02*
X018585Y021271D01*
X016910Y020276D02*
X016910Y019152D01*
X016657Y018782D02*
X016163Y018782D01*
X016281Y018901D02*
X016539Y018901D01*
X016489Y019019D02*
X016331Y019019D01*
X015657Y018782D02*
X015163Y018782D01*
X015281Y018901D02*
X015539Y018901D01*
X015489Y019019D02*
X015331Y019019D01*
X015350Y019138D02*
X015470Y019138D01*
X015477Y019256D02*
X015343Y019256D01*
X015294Y019375D02*
X015526Y019375D01*
X015629Y019493D02*
X015191Y019493D01*
X015110Y019612D02*
X015710Y019612D01*
X015760Y019730D02*
X015110Y019730D01*
X015140Y019849D02*
X015760Y019849D01*
X015760Y019967D02*
X015160Y019967D01*
X015160Y020086D02*
X015760Y020086D01*
X015760Y020204D02*
X015160Y020204D01*
X015160Y020323D02*
X015760Y020323D01*
X015758Y020441D02*
X015760Y020441D01*
X015495Y020441D02*
X015415Y020441D01*
X015415Y020560D02*
X015495Y020560D01*
X015495Y020678D02*
X015415Y020678D01*
X015415Y020915D02*
X015495Y020915D01*
X015495Y021034D02*
X015415Y021034D01*
X015415Y021152D02*
X015495Y021152D01*
X015495Y021271D02*
X015415Y021271D01*
X015270Y021271D02*
X015160Y021271D01*
X015160Y021389D02*
X015283Y021389D01*
X015111Y021508D02*
X015051Y021508D01*
X015033Y021626D02*
X014933Y021626D01*
X014920Y021745D02*
X014990Y021745D01*
X014990Y021863D02*
X014920Y021863D01*
X014892Y021982D02*
X015019Y021982D01*
X015077Y022100D02*
X014834Y022100D01*
X014710Y022219D02*
X015200Y022219D01*
X015455Y021821D02*
X015960Y021316D01*
X016160Y020441D02*
X016177Y020441D01*
X014960Y019952D02*
X014960Y021316D01*
X014455Y021821D01*
X014033Y021626D02*
X013878Y021626D01*
X013849Y021558D02*
X013920Y021729D01*
X013920Y021914D01*
X013849Y022085D01*
X013719Y022215D01*
X013548Y022286D01*
X013363Y022286D01*
X013192Y022215D01*
X013061Y022085D01*
X012990Y021914D01*
X012990Y021729D01*
X013061Y021558D01*
X013192Y021427D01*
X013363Y021356D01*
X013548Y021356D01*
X013719Y021427D01*
X013849Y021558D01*
X013800Y021508D02*
X014111Y021508D01*
X014283Y021389D02*
X013628Y021389D01*
X013585Y021271D02*
X014326Y021271D01*
X014129Y021152D02*
X013782Y021152D01*
X013870Y021034D02*
X014040Y021034D01*
X013991Y020915D02*
X013920Y020915D01*
X013920Y020797D02*
X013990Y020797D01*
X014011Y020678D02*
X013899Y020678D01*
X013911Y020560D02*
X013850Y020560D01*
X013793Y020441D02*
X013733Y020441D01*
X013710Y020323D02*
X013240Y020323D01*
X013121Y020204D02*
X013710Y020204D01*
X013710Y020086D02*
X013110Y020086D01*
X013110Y019967D02*
X013710Y019967D01*
X013710Y019849D02*
X013110Y019849D01*
X013110Y019730D02*
X013710Y019730D01*
X013710Y019612D02*
X013110Y019612D01*
X013191Y019493D02*
X013629Y019493D01*
X013526Y019375D02*
X013294Y019375D01*
X013343Y019256D02*
X013477Y019256D01*
X013470Y019138D02*
X013350Y019138D01*
X013331Y019019D02*
X013489Y019019D01*
X013539Y018901D02*
X013281Y018901D01*
X013163Y018782D02*
X013657Y018782D01*
X013910Y019152D02*
X013910Y020276D01*
X014455Y020821D01*
X014585Y021271D02*
X014723Y021271D01*
X013990Y021745D02*
X013920Y021745D01*
X013920Y021863D02*
X013990Y021863D01*
X014019Y021982D02*
X013892Y021982D01*
X013834Y022100D02*
X014077Y022100D01*
X014200Y022219D02*
X013710Y022219D01*
X013200Y022219D02*
X012733Y022219D01*
X012709Y022236D02*
X012771Y022191D01*
X012825Y022137D01*
X012870Y022075D01*
X012905Y022007D01*
X012928Y021935D01*
X012940Y021861D01*
X012495Y021861D01*
X012495Y022306D01*
X012569Y022294D01*
X012641Y022271D01*
X012709Y022236D01*
X012852Y022100D02*
X013077Y022100D01*
X013019Y021982D02*
X012913Y021982D01*
X012940Y021863D02*
X012990Y021863D01*
X012990Y021745D02*
X012934Y021745D01*
X012900Y021626D02*
X013033Y021626D01*
X013111Y021508D02*
X012827Y021508D01*
X012676Y021389D02*
X013283Y021389D01*
X013040Y021034D02*
X012870Y021034D01*
X012920Y020915D02*
X012991Y020915D01*
X012990Y020797D02*
X012920Y020797D01*
X012899Y020678D02*
X013011Y020678D01*
X012911Y020560D02*
X012850Y020560D01*
X012793Y020441D02*
X012733Y020441D01*
X012710Y020323D02*
X012240Y020323D01*
X012121Y020204D02*
X012710Y020204D01*
X012710Y020086D02*
X012110Y020086D01*
X012110Y019967D02*
X012710Y019967D01*
X012710Y019849D02*
X012110Y019849D01*
X012110Y019730D02*
X012710Y019730D01*
X012710Y019612D02*
X012110Y019612D01*
X012191Y019493D02*
X012629Y019493D01*
X012526Y019375D02*
X012294Y019375D01*
X012343Y019256D02*
X012477Y019256D01*
X012470Y019138D02*
X012350Y019138D01*
X012331Y019019D02*
X012489Y019019D01*
X012539Y018901D02*
X012281Y018901D01*
X012163Y018782D02*
X012657Y018782D01*
X012910Y019152D02*
X012910Y020276D01*
X013455Y020821D01*
X014121Y020204D02*
X014760Y020204D01*
X014760Y020086D02*
X014110Y020086D01*
X014110Y019967D02*
X014710Y019967D01*
X014710Y019849D02*
X014110Y019849D01*
X014110Y019730D02*
X014710Y019730D01*
X014710Y019612D02*
X014110Y019612D01*
X014191Y019493D02*
X014629Y019493D01*
X014526Y019375D02*
X014294Y019375D01*
X014343Y019256D02*
X014477Y019256D01*
X014470Y019138D02*
X014350Y019138D01*
X014331Y019019D02*
X014489Y019019D01*
X014539Y018901D02*
X014281Y018901D01*
X014163Y018782D02*
X014657Y018782D01*
X014910Y019152D02*
X014910Y019902D01*
X014960Y019952D01*
X014760Y020323D02*
X014240Y020323D01*
X014733Y020441D02*
X014760Y020441D01*
X012495Y021508D02*
X012415Y021508D01*
X012415Y021626D02*
X012495Y021626D01*
X012495Y021745D02*
X012415Y021745D01*
X012415Y021863D02*
X012495Y021863D01*
X012495Y021982D02*
X012415Y021982D01*
X012415Y022100D02*
X012495Y022100D01*
X012495Y022219D02*
X012415Y022219D01*
X011910Y020276D02*
X011910Y019152D01*
X011210Y018545D02*
X000360Y018545D01*
X000360Y018427D02*
X011210Y018427D01*
X011210Y018308D02*
X000360Y018308D01*
X000360Y018190D02*
X011210Y018190D01*
X011308Y018071D02*
X000360Y018071D01*
X000360Y017953D02*
X011426Y017953D01*
X006657Y018782D02*
X006184Y018782D01*
X006210Y018801D02*
X006261Y018852D01*
X006303Y018911D01*
X006336Y018975D01*
X006359Y019044D01*
X006369Y019112D01*
X005950Y019112D01*
X005950Y019192D01*
X005870Y019192D01*
X005870Y019611D01*
X005802Y019600D01*
X005733Y019578D01*
X005669Y019545D01*
X005610Y019503D01*
X005559Y019451D01*
X005517Y019393D01*
X005484Y019328D01*
X005461Y019260D01*
X005451Y019192D01*
X005870Y019192D01*
X005870Y019112D01*
X005451Y019112D01*
X005461Y019044D01*
X005484Y018975D01*
X005517Y018911D01*
X005559Y018852D01*
X005610Y018801D01*
X005669Y018758D01*
X005733Y018726D01*
X005802Y018703D01*
X005870Y018692D01*
X005870Y019112D01*
X005950Y019112D01*
X005950Y018692D01*
X006018Y018703D01*
X006087Y018726D01*
X006151Y018758D01*
X006210Y018801D01*
X006296Y018901D02*
X006539Y018901D01*
X006489Y019019D02*
X006351Y019019D01*
X006470Y019138D02*
X005950Y019138D01*
X005950Y019192D02*
X006369Y019192D01*
X006359Y019260D01*
X006336Y019328D01*
X006303Y019393D01*
X006261Y019451D01*
X006210Y019503D01*
X006151Y019545D01*
X006087Y019578D01*
X006018Y019600D01*
X005950Y019611D01*
X005950Y019192D01*
X005950Y019256D02*
X005870Y019256D01*
X005870Y019138D02*
X005350Y019138D01*
X005343Y019256D02*
X005461Y019256D01*
X005507Y019375D02*
X005294Y019375D01*
X005410Y019493D02*
X005601Y019493D01*
X005870Y019493D02*
X005950Y019493D01*
X005950Y019375D02*
X005870Y019375D01*
X005870Y019019D02*
X005950Y019019D01*
X005950Y018901D02*
X005870Y018901D01*
X005870Y018782D02*
X005950Y018782D01*
X005636Y018782D02*
X005163Y018782D01*
X005281Y018901D02*
X005524Y018901D01*
X005469Y019019D02*
X005331Y019019D01*
X004910Y019152D02*
X004910Y019276D01*
X006455Y020821D01*
X005960Y020652D02*
X005560Y020252D01*
X005260Y020252D01*
X004160Y019152D01*
X003910Y019152D01*
X004331Y019019D02*
X004489Y019019D01*
X004470Y019138D02*
X004429Y019138D01*
X004539Y018901D02*
X004281Y018901D01*
X004163Y018782D02*
X004657Y018782D01*
X003657Y018782D02*
X003163Y018782D01*
X003281Y018901D02*
X003539Y018901D01*
X003489Y019019D02*
X003331Y019019D01*
X003350Y019138D02*
X003470Y019138D01*
X003477Y019256D02*
X003343Y019256D01*
X003294Y019375D02*
X003526Y019375D01*
X003629Y019493D02*
X003191Y019493D01*
X002539Y018901D02*
X002281Y018901D01*
X002163Y018782D02*
X002657Y018782D01*
X002990Y020441D02*
X000360Y020441D01*
X001092Y022456D02*
X024819Y022456D01*
X025351Y019019D02*
X025551Y019019D01*
X025551Y018901D02*
X025296Y018901D01*
X025551Y016886D02*
X018881Y016886D01*
X018881Y016768D02*
X025551Y016768D01*
X025551Y016649D02*
X021888Y016649D01*
X021898Y016639D02*
X021869Y016669D01*
X021832Y016690D01*
X021791Y016701D01*
X021335Y016701D01*
X020879Y016701D01*
X020839Y016690D01*
X020802Y016669D01*
X020772Y016639D01*
X020751Y016603D01*
X020740Y016562D01*
X020740Y016421D01*
X020740Y016280D01*
X020751Y016239D01*
X020772Y016203D01*
X020802Y016173D01*
X020805Y016171D01*
X020802Y016169D01*
X020772Y016139D01*
X020751Y016103D01*
X020740Y016062D01*
X020740Y015921D01*
X020740Y015780D01*
X020751Y015739D01*
X020772Y015703D01*
X020802Y015673D01*
X020805Y015671D01*
X020802Y015669D01*
X020772Y015639D01*
X020751Y015603D01*
X020740Y015562D01*
X020740Y015421D01*
X021335Y015421D01*
X021335Y015421D01*
X021335Y015421D01*
X021335Y015701D01*
X021335Y015921D01*
X020740Y015921D01*
X021335Y015921D01*
X021335Y015921D01*
X021335Y015921D01*
X021335Y016201D01*
X021335Y016421D01*
X020740Y016421D01*
X021335Y016421D01*
X021335Y016421D01*
X021335Y016421D01*
X021335Y016701D01*
X021335Y016421D01*
X021335Y016421D01*
X021335Y015921D01*
X021335Y015921D01*
X021335Y015421D01*
X021335Y015421D01*
X021335Y014921D01*
X021335Y014921D01*
X021335Y014641D01*
X021791Y014641D01*
X021832Y014652D01*
X021869Y014673D01*
X021898Y014703D01*
X021919Y014739D01*
X021930Y014780D01*
X021930Y014921D01*
X021335Y014921D01*
X021335Y014921D01*
X021930Y014921D01*
X021930Y015062D01*
X021919Y015103D01*
X021898Y015139D01*
X021869Y015169D01*
X021865Y015171D01*
X021869Y015173D01*
X021898Y015203D01*
X021919Y015239D01*
X021930Y015280D01*
X021930Y015421D01*
X021335Y015421D01*
X021335Y015421D01*
X021930Y015421D01*
X021930Y015562D01*
X021919Y015603D01*
X021898Y015639D01*
X021869Y015669D01*
X021865Y015671D01*
X021869Y015673D01*
X021898Y015703D01*
X021919Y015739D01*
X021930Y015780D01*
X021930Y015921D01*
X021335Y015921D01*
X021335Y015921D01*
X021930Y015921D01*
X021930Y016062D01*
X021919Y016103D01*
X021898Y016139D01*
X021869Y016169D01*
X021865Y016171D01*
X021869Y016173D01*
X021898Y016203D01*
X021919Y016239D01*
X021930Y016280D01*
X021930Y016421D01*
X021335Y016421D01*
X021335Y016421D01*
X021930Y016421D01*
X021930Y016562D01*
X021919Y016603D01*
X021898Y016639D01*
X021930Y016531D02*
X025551Y016531D01*
X025551Y016412D02*
X021930Y016412D01*
X021930Y016294D02*
X025551Y016294D01*
X025551Y016175D02*
X021871Y016175D01*
X021930Y016057D02*
X025551Y016057D01*
X025551Y015938D02*
X021930Y015938D01*
X021930Y015820D02*
X025551Y015820D01*
X025551Y015701D02*
X021897Y015701D01*
X021925Y015583D02*
X025551Y015583D01*
X025551Y015464D02*
X021930Y015464D01*
X021930Y015346D02*
X025551Y015346D01*
X025551Y015227D02*
X021912Y015227D01*
X021916Y015109D02*
X025551Y015109D01*
X025551Y014990D02*
X021930Y014990D01*
X021930Y014872D02*
X025551Y014872D01*
X025551Y014753D02*
X021923Y014753D01*
X021547Y014398D02*
X025551Y014398D01*
X025551Y014516D02*
X021047Y014516D01*
X020910Y014635D02*
X025551Y014635D01*
X025551Y014279D02*
X021665Y014279D01*
X021784Y014161D02*
X025551Y014161D01*
X025551Y014042D02*
X021810Y014042D01*
X021810Y013924D02*
X025551Y013924D01*
X025551Y013805D02*
X021810Y013805D01*
X021810Y013687D02*
X025551Y013687D01*
X025551Y013568D02*
X022222Y013568D01*
X022272Y013450D02*
X025551Y013450D01*
X025551Y013331D02*
X022272Y013331D01*
X022272Y013213D02*
X025551Y013213D01*
X025551Y013094D02*
X022272Y013094D01*
X022272Y013199D02*
X021990Y013199D01*
X021990Y012792D01*
X022133Y012792D01*
X022174Y012803D01*
X022210Y012824D01*
X022240Y012854D01*
X022261Y012890D01*
X022272Y012931D01*
X022272Y013199D01*
X022272Y012976D02*
X025551Y012976D01*
X025551Y012857D02*
X022242Y012857D01*
X021990Y012857D02*
X021985Y012857D01*
X021985Y012976D02*
X021990Y012976D01*
X021985Y013094D02*
X021990Y013094D01*
X021985Y013213D02*
X021990Y013213D01*
X021985Y013331D02*
X021990Y013331D01*
X021985Y013450D02*
X021990Y013450D01*
X021985Y013568D02*
X021990Y013568D01*
X021610Y013225D02*
X021633Y013202D01*
X021610Y013225D02*
X021610Y014052D01*
X021406Y014256D01*
X020710Y014256D01*
X020710Y014952D01*
X019660Y016002D01*
X019010Y016002D01*
X018960Y015952D01*
X018716Y015952D01*
X018685Y015921D01*
X018685Y015421D02*
X018729Y015421D01*
X019560Y015452D01*
X019560Y014256D01*
X019560Y013547D02*
X020710Y013547D01*
X020731Y013527D01*
X020731Y001557D01*
X020280Y001244D02*
X019804Y001244D01*
X019811Y001251D02*
X019893Y001450D01*
X019893Y001665D01*
X019811Y001863D01*
X019659Y002015D01*
X019553Y002059D01*
X019553Y009031D01*
X019640Y009118D01*
X019691Y009243D01*
X019691Y009378D01*
X019640Y009503D01*
X019544Y009599D01*
X019419Y009650D01*
X019284Y009650D01*
X019159Y009599D01*
X019063Y009503D01*
X019011Y009378D01*
X019011Y009243D01*
X019063Y009118D01*
X019153Y009028D01*
X019153Y002059D01*
X019047Y002015D01*
X018895Y001863D01*
X018813Y001665D01*
X018813Y001450D01*
X018895Y001251D01*
X019047Y001100D01*
X019245Y001017D01*
X019460Y001017D01*
X019659Y001100D01*
X019811Y001251D01*
X019857Y001363D02*
X020227Y001363D01*
X020191Y001481D02*
X019893Y001481D01*
X019893Y001600D02*
X020191Y001600D01*
X020213Y001718D02*
X019871Y001718D01*
X019822Y001837D02*
X020262Y001837D01*
X020365Y001955D02*
X019719Y001955D01*
X019553Y002074D02*
X020531Y002074D01*
X020531Y002192D02*
X019553Y002192D01*
X019553Y002311D02*
X020531Y002311D01*
X020531Y002429D02*
X019553Y002429D01*
X019553Y002548D02*
X020531Y002548D01*
X020531Y002666D02*
X019553Y002666D01*
X019553Y002785D02*
X020531Y002785D01*
X020531Y002903D02*
X019553Y002903D01*
X019553Y003022D02*
X020531Y003022D01*
X020531Y003140D02*
X019553Y003140D01*
X019553Y003259D02*
X020531Y003259D01*
X020531Y003377D02*
X019553Y003377D01*
X019553Y003496D02*
X020531Y003496D01*
X020531Y003614D02*
X019553Y003614D01*
X019553Y003733D02*
X020531Y003733D01*
X020531Y003851D02*
X019553Y003851D01*
X019553Y003970D02*
X020531Y003970D01*
X020531Y004088D02*
X019553Y004088D01*
X019553Y004207D02*
X020531Y004207D01*
X020531Y004325D02*
X019553Y004325D01*
X019553Y004444D02*
X020531Y004444D01*
X020531Y004562D02*
X019553Y004562D01*
X019553Y004681D02*
X020531Y004681D01*
X020531Y004799D02*
X019553Y004799D01*
X019553Y004918D02*
X020531Y004918D01*
X020531Y005036D02*
X019553Y005036D01*
X019553Y005155D02*
X020531Y005155D01*
X020531Y005273D02*
X019553Y005273D01*
X019553Y005392D02*
X020531Y005392D01*
X020531Y005510D02*
X019553Y005510D01*
X019553Y005629D02*
X020531Y005629D01*
X020531Y005747D02*
X019553Y005747D01*
X019553Y005866D02*
X020531Y005866D01*
X020531Y005984D02*
X019553Y005984D01*
X019553Y006103D02*
X020531Y006103D01*
X020531Y006221D02*
X019553Y006221D01*
X019553Y006340D02*
X020531Y006340D01*
X020531Y006458D02*
X019553Y006458D01*
X019553Y006577D02*
X020531Y006577D01*
X020531Y006695D02*
X019553Y006695D01*
X019553Y006814D02*
X020531Y006814D01*
X020531Y006932D02*
X019553Y006932D01*
X019553Y007051D02*
X020531Y007051D01*
X020531Y007169D02*
X019553Y007169D01*
X019553Y007288D02*
X020531Y007288D01*
X020531Y007406D02*
X019553Y007406D01*
X019553Y007525D02*
X020531Y007525D01*
X020531Y007643D02*
X019553Y007643D01*
X019553Y007762D02*
X020531Y007762D01*
X020531Y007880D02*
X019553Y007880D01*
X019553Y007999D02*
X020531Y007999D01*
X020531Y008117D02*
X019553Y008117D01*
X019553Y008236D02*
X020531Y008236D01*
X020531Y008354D02*
X019553Y008354D01*
X019553Y008473D02*
X020531Y008473D01*
X020531Y008591D02*
X019553Y008591D01*
X019553Y008710D02*
X020531Y008710D01*
X020531Y008828D02*
X019553Y008828D01*
X019553Y008947D02*
X020531Y008947D01*
X020531Y009065D02*
X019587Y009065D01*
X019667Y009184D02*
X020531Y009184D01*
X020531Y009302D02*
X019691Y009302D01*
X019674Y009421D02*
X020531Y009421D01*
X020531Y009539D02*
X019603Y009539D01*
X019351Y009310D02*
X019353Y009162D01*
X019353Y001557D01*
X018849Y001363D02*
X018535Y001363D01*
X018535Y001481D02*
X018813Y001481D01*
X018813Y001600D02*
X018535Y001600D01*
X018535Y001597D02*
X018535Y001978D01*
X018524Y002019D01*
X018503Y002056D01*
X018473Y002085D01*
X018437Y002106D01*
X018396Y002117D01*
X018015Y002117D01*
X018015Y001597D01*
X018535Y001597D01*
X018535Y001517D02*
X018015Y001517D01*
X018015Y000997D01*
X018396Y000997D01*
X018437Y001008D01*
X018473Y001029D01*
X018503Y001059D01*
X018524Y001096D01*
X018535Y001136D01*
X018535Y001517D01*
X018535Y001718D02*
X018835Y001718D01*
X018884Y001837D02*
X018535Y001837D01*
X018535Y001955D02*
X018987Y001955D01*
X019153Y002074D02*
X018485Y002074D01*
X018015Y002074D02*
X017935Y002074D01*
X017935Y002117D02*
X017554Y002117D01*
X017513Y002106D01*
X017477Y002085D01*
X017447Y002056D01*
X017426Y002019D01*
X017415Y001978D01*
X017415Y001597D01*
X017935Y001597D01*
X017935Y001517D01*
X018015Y001517D01*
X018015Y001597D01*
X017935Y001597D01*
X017935Y002117D01*
X017935Y001955D02*
X018015Y001955D01*
X018015Y001837D02*
X017935Y001837D01*
X017935Y001718D02*
X018015Y001718D01*
X018015Y001600D02*
X017935Y001600D01*
X017935Y001517D02*
X017415Y001517D01*
X017415Y001136D01*
X017426Y001096D01*
X017447Y001059D01*
X017477Y001029D01*
X017513Y001008D01*
X017554Y000997D01*
X017935Y000997D01*
X017935Y001517D01*
X017935Y001481D02*
X018015Y001481D01*
X018015Y001363D02*
X017935Y001363D01*
X017935Y001244D02*
X018015Y001244D01*
X018015Y001126D02*
X017935Y001126D01*
X017935Y001007D02*
X018015Y001007D01*
X018433Y001007D02*
X025099Y001007D01*
X025262Y001126D02*
X021063Y001126D01*
X021182Y001244D02*
X025352Y001244D01*
X025438Y001363D02*
X024606Y001363D01*
X024533Y001328D02*
X024822Y001467D01*
X024958Y001638D01*
X024959Y001638D01*
X024959Y001638D01*
X025022Y001717D01*
X025022Y001717D01*
X025059Y001880D01*
X025064Y001892D01*
X025064Y001902D01*
X025093Y002030D01*
X025093Y002030D01*
X025064Y002157D01*
X025064Y002167D01*
X025059Y002180D01*
X025022Y002342D01*
X025022Y002342D01*
X024959Y002421D01*
X024959Y002421D01*
X024958Y002422D01*
X024822Y002593D01*
X024822Y002593D01*
X024533Y002732D01*
X024212Y002732D01*
X023924Y002593D01*
X023787Y002422D01*
X023787Y002421D01*
X023724Y002342D01*
X023687Y002180D01*
X023681Y002167D01*
X023681Y002157D01*
X023652Y002030D01*
X023681Y001902D01*
X023681Y001892D01*
X023687Y001880D01*
X023724Y001717D01*
X023787Y001638D01*
X023924Y001467D01*
X024212Y001328D01*
X024533Y001328D01*
X024822Y001467D02*
X024822Y001467D01*
X024822Y001467D01*
X024833Y001481D02*
X025484Y001481D01*
X025523Y001600D02*
X024928Y001600D01*
X025022Y001718D02*
X025552Y001718D01*
X025551Y001837D02*
X025049Y001837D01*
X025076Y001955D02*
X025551Y001955D01*
X025551Y002074D02*
X025083Y002074D01*
X025056Y002192D02*
X025551Y002192D01*
X025551Y002311D02*
X025029Y002311D01*
X024952Y002429D02*
X025551Y002429D01*
X025551Y002548D02*
X024858Y002548D01*
X024669Y002666D02*
X025551Y002666D01*
X025551Y002785D02*
X020931Y002785D01*
X020931Y002903D02*
X025551Y002903D01*
X025551Y003022D02*
X020931Y003022D01*
X020931Y003140D02*
X025551Y003140D01*
X025551Y003259D02*
X020931Y003259D01*
X020931Y003377D02*
X025551Y003377D01*
X025551Y003496D02*
X020931Y003496D01*
X020931Y003614D02*
X025551Y003614D01*
X025551Y003733D02*
X020931Y003733D01*
X020931Y003851D02*
X025551Y003851D01*
X025551Y003970D02*
X020931Y003970D01*
X020931Y004088D02*
X025551Y004088D01*
X025551Y004207D02*
X020931Y004207D01*
X020931Y004325D02*
X025551Y004325D01*
X025551Y004444D02*
X020931Y004444D01*
X020931Y004562D02*
X025551Y004562D01*
X025551Y004681D02*
X020931Y004681D01*
X020931Y004799D02*
X025551Y004799D01*
X025551Y004918D02*
X020931Y004918D01*
X020931Y005036D02*
X025551Y005036D01*
X025551Y005155D02*
X020931Y005155D01*
X020931Y005273D02*
X025551Y005273D01*
X025551Y005392D02*
X020931Y005392D01*
X020931Y005510D02*
X025551Y005510D01*
X025551Y005629D02*
X020931Y005629D01*
X020931Y005747D02*
X025551Y005747D01*
X025551Y005866D02*
X020931Y005866D01*
X020931Y005984D02*
X025551Y005984D01*
X025551Y006103D02*
X020931Y006103D01*
X020931Y006221D02*
X025551Y006221D01*
X025551Y006340D02*
X020931Y006340D01*
X020931Y006458D02*
X025551Y006458D01*
X025551Y006577D02*
X020931Y006577D01*
X020931Y006695D02*
X025551Y006695D01*
X025551Y006814D02*
X020931Y006814D01*
X020931Y006932D02*
X025551Y006932D01*
X025551Y007051D02*
X020931Y007051D01*
X020931Y007169D02*
X025551Y007169D01*
X025551Y007288D02*
X020931Y007288D01*
X020931Y007406D02*
X025551Y007406D01*
X025551Y007525D02*
X020931Y007525D01*
X020931Y007643D02*
X025551Y007643D01*
X025551Y007762D02*
X020931Y007762D01*
X020931Y007880D02*
X025551Y007880D01*
X025551Y007999D02*
X020931Y007999D01*
X020931Y008117D02*
X025551Y008117D01*
X025551Y008236D02*
X020931Y008236D01*
X020931Y008354D02*
X025551Y008354D01*
X025551Y008473D02*
X020931Y008473D01*
X020931Y008591D02*
X025551Y008591D01*
X025551Y008710D02*
X020931Y008710D01*
X020931Y008828D02*
X025551Y008828D01*
X025551Y008947D02*
X020931Y008947D01*
X020931Y009065D02*
X025551Y009065D01*
X025551Y009184D02*
X020931Y009184D01*
X020931Y009302D02*
X025551Y009302D01*
X025551Y009421D02*
X020931Y009421D01*
X020931Y009539D02*
X025551Y009539D01*
X025551Y009658D02*
X020931Y009658D01*
X020931Y009776D02*
X025551Y009776D01*
X025551Y009895D02*
X020931Y009895D01*
X020931Y010013D02*
X025551Y010013D01*
X025551Y010132D02*
X020931Y010132D01*
X020931Y010250D02*
X025551Y010250D01*
X025551Y010369D02*
X020931Y010369D01*
X020931Y010487D02*
X025551Y010487D01*
X025551Y010606D02*
X020931Y010606D01*
X020931Y010724D02*
X025551Y010724D01*
X025551Y010843D02*
X020931Y010843D01*
X020931Y010961D02*
X025551Y010961D01*
X025551Y011080D02*
X020931Y011080D01*
X020931Y011198D02*
X025551Y011198D01*
X025551Y011317D02*
X020931Y011317D01*
X020931Y011435D02*
X025551Y011435D01*
X025551Y011554D02*
X020931Y011554D01*
X020931Y011672D02*
X025551Y011672D01*
X025551Y011791D02*
X020931Y011791D01*
X020931Y011909D02*
X025551Y011909D01*
X025551Y012028D02*
X020931Y012028D01*
X020931Y012146D02*
X025551Y012146D01*
X025551Y012265D02*
X020931Y012265D01*
X020931Y012383D02*
X025551Y012383D01*
X025551Y012502D02*
X020931Y012502D01*
X020931Y012620D02*
X025551Y012620D01*
X025551Y012739D02*
X020931Y012739D01*
X020931Y012857D02*
X021404Y012857D01*
X021368Y012976D02*
X020931Y012976D01*
X020931Y013094D02*
X021368Y013094D01*
X021368Y013213D02*
X020987Y013213D01*
X021047Y013331D02*
X021368Y013331D01*
X021368Y013450D02*
X021047Y013450D01*
X021047Y013568D02*
X021410Y013568D01*
X021410Y013687D02*
X021047Y013687D01*
X021047Y013805D02*
X021410Y013805D01*
X021410Y013924D02*
X020989Y013924D01*
X021047Y014042D02*
X021337Y014042D01*
X021335Y014753D02*
X021335Y014753D01*
X021335Y014872D02*
X021335Y014872D01*
X021335Y014990D02*
X021335Y014990D01*
X021335Y015109D02*
X021335Y015109D01*
X021335Y015227D02*
X021335Y015227D01*
X021335Y015346D02*
X021335Y015346D01*
X021335Y015464D02*
X021335Y015464D01*
X021335Y015583D02*
X021335Y015583D01*
X021335Y015701D02*
X021335Y015701D01*
X021335Y015820D02*
X021335Y015820D01*
X021335Y015938D02*
X021335Y015938D01*
X021335Y016057D02*
X021335Y016057D01*
X021335Y016175D02*
X021335Y016175D01*
X021335Y016294D02*
X021335Y016294D01*
X021335Y016412D02*
X021335Y016412D01*
X021335Y016531D02*
X021335Y016531D01*
X021335Y016649D02*
X021335Y016649D01*
X020782Y016649D02*
X019210Y016649D01*
X019260Y016531D02*
X020740Y016531D01*
X020740Y016412D02*
X019260Y016412D01*
X019260Y016294D02*
X020740Y016294D01*
X020800Y016175D02*
X019769Y016175D01*
X019888Y016057D02*
X020740Y016057D01*
X020740Y015938D02*
X020006Y015938D01*
X020125Y015820D02*
X020740Y015820D01*
X020774Y015701D02*
X020243Y015701D01*
X020362Y015583D02*
X020746Y015583D01*
X020740Y015464D02*
X020480Y015464D01*
X020599Y015346D02*
X020740Y015346D01*
X020758Y015227D02*
X020717Y015227D01*
X019560Y013547D02*
X018560Y013547D01*
X017760Y014347D01*
X017423Y014279D02*
X002329Y014279D01*
X002329Y014161D02*
X017423Y014161D01*
X017454Y014042D02*
X002329Y014042D01*
X002329Y013924D02*
X017560Y013924D01*
X017560Y013805D02*
X002329Y013805D01*
X002329Y013687D02*
X017560Y013687D01*
X017560Y013568D02*
X002329Y013568D01*
X002329Y013450D02*
X017560Y013450D01*
X017560Y013331D02*
X002329Y013331D01*
X002329Y013213D02*
X017560Y013213D01*
X017560Y013094D02*
X002329Y013094D01*
X002329Y012976D02*
X017560Y012976D01*
X017560Y012857D02*
X002329Y012857D01*
X002329Y012739D02*
X017560Y012739D01*
X017560Y012620D02*
X002329Y012620D01*
X002329Y012502D02*
X017560Y012502D01*
X017560Y012383D02*
X002329Y012383D01*
X002329Y012265D02*
X017560Y012265D01*
X017560Y012146D02*
X002329Y012146D01*
X002329Y012028D02*
X017560Y012028D01*
X017560Y011909D02*
X002329Y011909D01*
X002329Y011791D02*
X017560Y011791D01*
X017560Y011672D02*
X002329Y011672D01*
X002329Y011554D02*
X017560Y011554D01*
X017560Y011435D02*
X002329Y011435D01*
X002329Y011317D02*
X017560Y011317D01*
X017560Y011198D02*
X002329Y011198D01*
X002329Y011080D02*
X017560Y011080D01*
X017560Y010961D02*
X002329Y010961D01*
X002329Y010843D02*
X017560Y010843D01*
X017560Y010724D02*
X002329Y010724D01*
X002329Y010606D02*
X017560Y010606D01*
X017560Y010487D02*
X002329Y010487D01*
X002329Y010369D02*
X017560Y010369D01*
X017560Y010250D02*
X002329Y010250D01*
X002329Y010132D02*
X017560Y010132D01*
X017560Y010013D02*
X002329Y010013D01*
X002329Y009895D02*
X017560Y009895D01*
X017560Y009776D02*
X002329Y009776D01*
X002329Y009658D02*
X017560Y009658D01*
X017560Y009539D02*
X002329Y009539D01*
X002329Y009421D02*
X017560Y009421D01*
X017560Y009302D02*
X011207Y009302D01*
X011215Y009294D02*
X011185Y009324D01*
X011149Y009345D01*
X011108Y009356D01*
X010919Y009356D01*
X010919Y009067D01*
X011247Y009067D01*
X011247Y009217D01*
X011236Y009257D01*
X011215Y009294D01*
X011247Y009184D02*
X017560Y009184D01*
X017541Y009065D02*
X010919Y009065D01*
X010901Y009065D02*
X010319Y009065D01*
X010319Y009067D02*
X010901Y009067D01*
X010901Y009049D01*
X010647Y009049D01*
X010319Y009049D01*
X010319Y009067D01*
X010301Y009065D02*
X002329Y009065D01*
X002329Y008947D02*
X009973Y008947D01*
X010001Y008828D02*
X002329Y008828D01*
X002329Y008710D02*
X009993Y008710D01*
X009993Y008591D02*
X002323Y008591D01*
X002274Y008473D02*
X009993Y008473D01*
X009993Y008354D02*
X002206Y008354D01*
X002088Y008236D02*
X010410Y008236D01*
X010410Y008117D02*
X010349Y008117D01*
X010404Y007999D02*
X010410Y007999D01*
X010404Y007880D02*
X010410Y007880D01*
X010810Y007999D02*
X010839Y007999D01*
X010810Y008117D02*
X019153Y008117D01*
X019153Y007999D02*
X011181Y007999D01*
X011304Y007880D02*
X019153Y007880D01*
X019153Y007762D02*
X015383Y007762D01*
X015501Y007643D02*
X019153Y007643D01*
X019153Y007525D02*
X015610Y007525D01*
X015610Y007406D02*
X019153Y007406D01*
X019153Y007288D02*
X016032Y007288D01*
X016032Y007169D02*
X019153Y007169D01*
X019153Y007051D02*
X017277Y007051D01*
X017277Y006932D02*
X019153Y006932D01*
X019153Y006814D02*
X017277Y006814D01*
X017277Y006695D02*
X019153Y006695D01*
X019153Y006577D02*
X017268Y006577D01*
X017297Y006458D02*
X019153Y006458D01*
X019153Y006340D02*
X016969Y006340D01*
X016969Y006337D02*
X017297Y006337D01*
X017297Y006187D01*
X017286Y006146D01*
X017265Y006110D01*
X017235Y006080D01*
X017199Y006059D01*
X017158Y006048D01*
X016969Y006048D01*
X016969Y006337D01*
X016969Y006221D02*
X016951Y006221D01*
X016951Y006103D02*
X016969Y006103D01*
X016797Y005984D02*
X019153Y005984D01*
X019153Y005866D02*
X016797Y005866D01*
X016797Y005747D02*
X019153Y005747D01*
X019153Y005629D02*
X016797Y005629D01*
X016797Y005510D02*
X019153Y005510D01*
X019153Y005392D02*
X016797Y005392D01*
X016797Y005273D02*
X019153Y005273D01*
X019153Y005155D02*
X016797Y005155D01*
X016797Y005036D02*
X019153Y005036D01*
X019153Y004918D02*
X016797Y004918D01*
X016797Y004799D02*
X019153Y004799D01*
X019153Y004681D02*
X016797Y004681D01*
X016797Y004562D02*
X019153Y004562D01*
X019153Y004444D02*
X016797Y004444D01*
X016797Y004325D02*
X019153Y004325D01*
X019153Y004207D02*
X016797Y004207D01*
X016797Y004088D02*
X019153Y004088D01*
X019153Y003970D02*
X016797Y003970D01*
X016797Y003851D02*
X019153Y003851D01*
X019153Y003733D02*
X016797Y003733D01*
X016797Y003614D02*
X019153Y003614D01*
X019153Y003496D02*
X016797Y003496D01*
X016797Y003377D02*
X019153Y003377D01*
X019153Y003259D02*
X016797Y003259D01*
X016797Y003140D02*
X019153Y003140D01*
X019153Y003022D02*
X016797Y003022D01*
X016797Y002903D02*
X019153Y002903D01*
X019153Y002785D02*
X016797Y002785D01*
X016797Y002666D02*
X019153Y002666D01*
X019153Y002548D02*
X016797Y002548D01*
X016797Y002429D02*
X019153Y002429D01*
X019153Y002311D02*
X016797Y002311D01*
X016797Y002192D02*
X019153Y002192D01*
X018902Y001244D02*
X018535Y001244D01*
X018532Y001126D02*
X019021Y001126D01*
X019685Y001126D02*
X020399Y001126D01*
X021235Y001363D02*
X024139Y001363D01*
X023924Y001467D02*
X023924Y001467D01*
X023912Y001481D02*
X021271Y001481D01*
X021271Y001600D02*
X023817Y001600D01*
X023787Y001638D02*
X023787Y001638D01*
X023787Y001638D01*
X023724Y001717D02*
X023724Y001717D01*
X023723Y001718D02*
X021249Y001718D01*
X021200Y001837D02*
X023696Y001837D01*
X023669Y001955D02*
X021097Y001955D01*
X020931Y002074D02*
X023662Y002074D01*
X023652Y002030D02*
X023652Y002030D01*
X023689Y002192D02*
X020931Y002192D01*
X020931Y002311D02*
X023717Y002311D01*
X023724Y002342D02*
X023724Y002342D01*
X023787Y002421D02*
X023787Y002421D01*
X023793Y002429D02*
X020931Y002429D01*
X020931Y002548D02*
X023888Y002548D01*
X024076Y002666D02*
X020931Y002666D01*
X017465Y002074D02*
X016797Y002074D01*
X016963Y001955D02*
X017415Y001955D01*
X017415Y001837D02*
X017066Y001837D01*
X017115Y001718D02*
X017415Y001718D01*
X017415Y001600D02*
X017137Y001600D01*
X017137Y001481D02*
X017415Y001481D01*
X017415Y001363D02*
X017101Y001363D01*
X017048Y001244D02*
X017415Y001244D01*
X017418Y001126D02*
X016929Y001126D01*
X016597Y001557D02*
X016597Y006265D01*
X016260Y006602D01*
X015610Y006602D01*
X015410Y006802D01*
X015410Y007014D01*
X015410Y007452D01*
X015210Y007652D01*
X012460Y007652D01*
X012260Y007452D01*
X012169Y007643D02*
X011699Y007643D01*
X011350Y007762D02*
X012287Y007762D01*
X012634Y006964D02*
X012740Y006858D01*
X013760Y006858D01*
X014360Y006346D02*
X014510Y006508D01*
X015030Y005996D01*
X015036Y005990D01*
X015410Y005990D02*
X015410Y005594D01*
X015410Y005990D01*
X015410Y005990D01*
X015410Y005984D02*
X015410Y005984D01*
X015410Y005866D02*
X015410Y005866D01*
X015410Y005747D02*
X015410Y005747D01*
X015410Y005629D02*
X015410Y005629D01*
X015560Y005352D02*
X015784Y005576D01*
X015784Y005990D01*
X016032Y005984D02*
X016060Y005984D01*
X016060Y005866D02*
X016032Y005866D01*
X016032Y005747D02*
X016060Y005747D01*
X016060Y005629D02*
X015984Y005629D01*
X015984Y005510D02*
X016060Y005510D01*
X016060Y005392D02*
X015883Y005392D01*
X015764Y005273D02*
X016060Y005273D01*
X016060Y005155D02*
X015646Y005155D01*
X015560Y005352D02*
X012810Y005352D01*
X012634Y005176D01*
X012634Y001715D01*
X012476Y001557D01*
X012463Y001557D01*
X012967Y001363D02*
X013337Y001363D01*
X013301Y001481D02*
X013003Y001481D01*
X013003Y001600D02*
X013301Y001600D01*
X013323Y001718D02*
X012981Y001718D01*
X012932Y001837D02*
X013372Y001837D01*
X013475Y001955D02*
X012834Y001955D01*
X012834Y002074D02*
X013677Y002074D01*
X014005Y002074D02*
X014738Y002074D01*
X014679Y001955D02*
X014207Y001955D01*
X014310Y001837D02*
X014679Y001837D01*
X014679Y001718D02*
X014359Y001718D01*
X014381Y001600D02*
X014679Y001600D01*
X014679Y001481D02*
X014381Y001481D01*
X014345Y001363D02*
X014679Y001363D01*
X014679Y001244D02*
X014292Y001244D01*
X014173Y001126D02*
X014679Y001126D01*
X015219Y001557D02*
X015219Y002161D01*
X015310Y002252D01*
X016010Y002252D01*
X016260Y002502D01*
X016260Y006252D01*
X016110Y006402D01*
X015160Y006402D01*
X015036Y006526D01*
X015036Y007014D01*
X015784Y007014D02*
X015940Y006858D01*
X016960Y006858D01*
X017297Y006221D02*
X019153Y006221D01*
X019153Y006103D02*
X017258Y006103D01*
X016060Y006103D02*
X016032Y006103D01*
X016060Y005036D02*
X012834Y005036D01*
X012834Y004918D02*
X016060Y004918D01*
X016060Y004799D02*
X012834Y004799D01*
X012834Y004681D02*
X016060Y004681D01*
X016060Y004562D02*
X012834Y004562D01*
X012834Y004444D02*
X016060Y004444D01*
X016060Y004325D02*
X012834Y004325D01*
X012834Y004207D02*
X016060Y004207D01*
X016060Y004088D02*
X012834Y004088D01*
X012834Y003970D02*
X016060Y003970D01*
X016060Y003851D02*
X012834Y003851D01*
X012834Y003733D02*
X016060Y003733D01*
X016060Y003614D02*
X012834Y003614D01*
X012834Y003496D02*
X016060Y003496D01*
X016060Y003377D02*
X012834Y003377D01*
X012834Y003259D02*
X016060Y003259D01*
X016060Y003140D02*
X012834Y003140D01*
X012834Y003022D02*
X016060Y003022D01*
X016060Y002903D02*
X012834Y002903D01*
X012834Y002785D02*
X016060Y002785D01*
X016060Y002666D02*
X012834Y002666D01*
X012834Y002548D02*
X016023Y002548D01*
X016352Y002311D02*
X016397Y002311D01*
X016397Y002192D02*
X016233Y002192D01*
X016115Y002074D02*
X016397Y002074D01*
X016231Y001955D02*
X015759Y001955D01*
X015759Y001837D02*
X016128Y001837D01*
X016079Y001718D02*
X015759Y001718D01*
X015759Y001600D02*
X016057Y001600D01*
X016057Y001481D02*
X015759Y001481D01*
X015759Y001363D02*
X016093Y001363D01*
X016146Y001244D02*
X015759Y001244D01*
X015759Y001126D02*
X016265Y001126D01*
X017517Y001007D02*
X013910Y001007D01*
X013830Y000889D02*
X024832Y000889D01*
X019153Y008236D02*
X010810Y008236D01*
X010910Y008546D02*
X010910Y008552D01*
X011219Y008828D02*
X017304Y008828D01*
X017422Y008947D02*
X011247Y008947D01*
X010919Y009184D02*
X010901Y009184D01*
X010901Y009302D02*
X010919Y009302D01*
X010613Y009302D02*
X010607Y009302D01*
X010319Y009302D02*
X010301Y009302D01*
X010301Y009184D02*
X010319Y009184D01*
X010013Y009302D02*
X002329Y009302D01*
X002329Y009184D02*
X009973Y009184D01*
X009760Y007352D02*
X009660Y007252D01*
X009430Y006379D02*
X009457Y006352D01*
X011043Y006352D01*
X011043Y006312D01*
X011090Y006265D01*
X011085Y006262D01*
X011055Y006232D01*
X011034Y006195D01*
X011023Y006155D01*
X011023Y006005D01*
X011351Y006005D01*
X011351Y005987D01*
X011023Y005987D01*
X011023Y005837D01*
X011034Y005796D01*
X011055Y005760D01*
X011085Y005730D01*
X011121Y005709D01*
X011162Y005698D01*
X011351Y005698D01*
X011351Y005987D01*
X011369Y005987D01*
X011369Y005698D01*
X011558Y005698D01*
X011599Y005709D01*
X011635Y005730D01*
X011638Y005732D01*
X011638Y005646D01*
X011720Y005564D01*
X011889Y005564D01*
X011810Y005485D01*
X011610Y005285D01*
X011610Y002031D01*
X011543Y002097D01*
X010828Y002097D01*
X009430Y003495D01*
X009430Y006379D01*
X009430Y006340D02*
X011043Y006340D01*
X011049Y006221D02*
X009430Y006221D01*
X009430Y006103D02*
X011023Y006103D01*
X011023Y005984D02*
X009430Y005984D01*
X009430Y005866D02*
X011023Y005866D01*
X011067Y005747D02*
X009430Y005747D01*
X009430Y005629D02*
X011655Y005629D01*
X011836Y005510D02*
X009430Y005510D01*
X009430Y005392D02*
X011717Y005392D01*
X011610Y005273D02*
X009430Y005273D01*
X009430Y005155D02*
X011610Y005155D01*
X011610Y005036D02*
X009430Y005036D01*
X009430Y004918D02*
X011610Y004918D01*
X011610Y004799D02*
X009430Y004799D01*
X009430Y004681D02*
X011610Y004681D01*
X011610Y004562D02*
X009430Y004562D01*
X009430Y004444D02*
X011610Y004444D01*
X011610Y004325D02*
X009430Y004325D01*
X009430Y004207D02*
X011610Y004207D01*
X011610Y004088D02*
X009430Y004088D01*
X009430Y003970D02*
X011610Y003970D01*
X011610Y003851D02*
X009430Y003851D01*
X009430Y003733D02*
X011610Y003733D01*
X011610Y003614D02*
X009430Y003614D01*
X009430Y003496D02*
X011610Y003496D01*
X011610Y003377D02*
X009548Y003377D01*
X009667Y003259D02*
X011610Y003259D01*
X011610Y003140D02*
X009785Y003140D01*
X009904Y003022D02*
X011610Y003022D01*
X011610Y002903D02*
X010022Y002903D01*
X010141Y002785D02*
X011610Y002785D01*
X011610Y002666D02*
X010259Y002666D01*
X010378Y002548D02*
X011610Y002548D01*
X011610Y002429D02*
X010496Y002429D01*
X010615Y002311D02*
X011610Y002311D01*
X011610Y002192D02*
X010733Y002192D01*
X010404Y001955D02*
X010073Y001955D01*
X010176Y001837D02*
X010523Y001837D01*
X010545Y001718D02*
X010225Y001718D01*
X010286Y002074D02*
X009871Y002074D01*
X010049Y002311D02*
X009224Y002311D01*
X009224Y002429D02*
X009930Y002429D01*
X009812Y002548D02*
X009224Y002548D01*
X009224Y002666D02*
X009693Y002666D01*
X009575Y002785D02*
X009224Y002785D01*
X009224Y002903D02*
X009456Y002903D01*
X009338Y003022D02*
X009224Y003022D01*
X009338Y002192D02*
X010167Y002192D01*
X009543Y002074D02*
X009460Y002074D01*
X009375Y001126D02*
X008661Y001126D01*
X007997Y001126D02*
X007491Y001126D01*
X007491Y001244D02*
X007879Y001244D01*
X007825Y001363D02*
X007491Y001363D01*
X007491Y001481D02*
X007789Y001481D01*
X007789Y001600D02*
X007491Y001600D01*
X007491Y001718D02*
X007811Y001718D01*
X007861Y001837D02*
X007491Y001837D01*
X007491Y001955D02*
X007964Y001955D01*
X008165Y002074D02*
X007433Y002074D01*
X006411Y001481D02*
X001999Y001481D01*
X001987Y001467D02*
X001987Y001467D01*
X001771Y001363D02*
X006411Y001363D01*
X006411Y001244D02*
X000559Y001244D01*
X000473Y001363D02*
X001305Y001363D01*
X001089Y001467D02*
X001089Y001467D01*
X001077Y001481D02*
X000426Y001481D01*
X000388Y001600D02*
X000983Y001600D01*
X000889Y001717D02*
X000889Y001717D01*
X000889Y001718D02*
X000359Y001718D01*
X000360Y001837D02*
X000862Y001837D01*
X000835Y001955D02*
X000360Y001955D01*
X000360Y002074D02*
X000828Y002074D01*
X000855Y002192D02*
X000360Y002192D01*
X000360Y002311D02*
X000882Y002311D01*
X000889Y002342D02*
X000889Y002342D01*
X000952Y002421D02*
X000952Y002421D01*
X000958Y002429D02*
X000360Y002429D01*
X000360Y002548D02*
X001053Y002548D01*
X001241Y002666D02*
X000360Y002666D01*
X000649Y001126D02*
X006411Y001126D01*
X011567Y002074D02*
X011610Y002074D01*
X011810Y001052D02*
X011910Y000952D01*
X013610Y000952D01*
X013710Y001052D01*
X013710Y001426D01*
X013841Y001557D01*
X013390Y001244D02*
X012914Y001244D01*
X012834Y002192D02*
X015019Y002192D01*
X015086Y002311D02*
X012834Y002311D01*
X012834Y002429D02*
X015205Y002429D01*
X014855Y005629D02*
X012865Y005629D01*
X012882Y006103D02*
X013490Y006103D01*
X011910Y005964D02*
X011886Y005940D01*
X011910Y005964D02*
X011910Y006358D01*
X011369Y005984D02*
X011351Y005984D01*
X011351Y005866D02*
X011369Y005866D01*
X011369Y005747D02*
X011351Y005747D01*
X007543Y006221D02*
X007059Y006221D01*
X002071Y008219D02*
X002071Y008219D01*
X002329Y014398D02*
X017381Y014398D01*
X017263Y014516D02*
X002329Y014516D01*
X002329Y014635D02*
X017160Y014635D01*
X017160Y014753D02*
X002326Y014753D01*
X002276Y014872D02*
X017160Y014872D01*
X017160Y014990D02*
X002212Y014990D01*
X002094Y015109D02*
X017160Y015109D01*
X017160Y015227D02*
X000512Y015227D01*
X000377Y015346D02*
X017160Y015346D01*
X017160Y015464D02*
X000360Y015464D01*
X000360Y015583D02*
X017160Y015583D01*
X017160Y015701D02*
X000360Y015701D01*
X000360Y015820D02*
X017160Y015820D01*
X017160Y015938D02*
X000360Y015938D01*
X000360Y016057D02*
X017160Y016057D01*
X017160Y016175D02*
X000360Y016175D01*
X002071Y015132D02*
X002071Y015132D01*
X006359Y019256D02*
X006477Y019256D01*
X006526Y019375D02*
X006313Y019375D01*
X006219Y019493D02*
X006629Y019493D01*
X017760Y015952D02*
X017760Y015056D01*
X017895Y014921D01*
X018685Y014921D01*
X018019Y013805D02*
X017960Y013805D01*
X017960Y013687D02*
X018138Y013687D01*
X018256Y013568D02*
X017960Y013568D01*
X017960Y013450D02*
X018375Y013450D01*
X017960Y013331D02*
X019223Y013331D01*
X019283Y013213D02*
X017960Y013213D01*
X017960Y013094D02*
X020531Y013094D01*
X020531Y012976D02*
X017960Y012976D01*
X017960Y012857D02*
X020531Y012857D01*
X020531Y012739D02*
X017960Y012739D01*
X017960Y012620D02*
X020531Y012620D01*
X020531Y012502D02*
X017960Y012502D01*
X017960Y012383D02*
X020531Y012383D01*
X020531Y012265D02*
X017960Y012265D01*
X017960Y012146D02*
X020531Y012146D01*
X020531Y012028D02*
X017960Y012028D01*
X017960Y011909D02*
X020531Y011909D01*
X020531Y011791D02*
X017960Y011791D01*
X017960Y011672D02*
X020531Y011672D01*
X020531Y011554D02*
X017960Y011554D01*
X017960Y011435D02*
X020531Y011435D01*
X020531Y011317D02*
X017960Y011317D01*
X017960Y011198D02*
X020531Y011198D01*
X020531Y011080D02*
X017960Y011080D01*
X017960Y010961D02*
X020531Y010961D01*
X020531Y010843D02*
X017960Y010843D01*
X017960Y010724D02*
X020531Y010724D01*
X020531Y010606D02*
X017960Y010606D01*
X017960Y010487D02*
X020531Y010487D01*
X020531Y010369D02*
X017960Y010369D01*
X017960Y010250D02*
X020531Y010250D01*
X020531Y010132D02*
X017960Y010132D01*
X017960Y010013D02*
X020531Y010013D01*
X020531Y009895D02*
X017960Y009895D01*
X017960Y009776D02*
X020531Y009776D01*
X020531Y009658D02*
X017960Y009658D01*
X017960Y009539D02*
X019099Y009539D01*
X019029Y009421D02*
X017960Y009421D01*
X017960Y009302D02*
X019011Y009302D01*
X019036Y009184D02*
X017960Y009184D01*
X017960Y009065D02*
X019116Y009065D01*
X019153Y008947D02*
X017960Y008947D01*
X017869Y008828D02*
X019153Y008828D01*
X019153Y008710D02*
X017751Y008710D01*
X017632Y008591D02*
X019153Y008591D01*
X019153Y008473D02*
X017514Y008473D01*
X017395Y008354D02*
X019153Y008354D01*
X019837Y013213D02*
X020433Y013213D01*
X020373Y013331D02*
X019897Y013331D01*
D23*
X011216Y007158D02*
X010067Y007158D01*
X010064Y007352D02*
X009760Y007352D01*
X009540Y007552D02*
X010067Y007552D01*
X010410Y007552D01*
X010663Y007355D02*
X010067Y007355D01*
X010064Y007352D01*
X010067Y007749D02*
X009377Y007749D01*
X009224Y007946D02*
X010067Y007946D01*
X008766Y007946D02*
X008453Y007946D01*
X008453Y007749D02*
X007007Y007749D01*
X006860Y007602D01*
X007860Y007452D02*
X007960Y007552D01*
X008453Y007552D01*
X008453Y007158D02*
X008453Y006969D01*
D24*
X011010Y007702D03*
X011460Y007402D03*
X019351Y009310D03*
D25*
X019560Y015452D03*
X017760Y015952D03*
M02*
