%
M48
M72
T01C0.0197
T02C0.0200
T03C0.0400
T04C0.1102
%
T01
X19560Y22883
X17760Y23383
T02
X19351Y16742
X12460Y12083
X10210Y12933
X11460Y14833
X11010Y15133
T03
X6951Y8989
X8329Y8989
X9707Y8989
X11085Y8989
X12463Y8989
X13841Y8989
X15219Y8989
X16597Y8989
X19195Y8989
X20573Y8989
X21951Y8989
X21910Y26583
X20910Y26583
X19910Y26583
X18910Y26583
X17910Y26583
X16910Y26583
X15910Y26583
X14910Y26583
X13910Y26583
X12910Y26583
X11910Y26583
X10910Y26583
X9910Y26583
X8910Y26583
X7910Y26583
X6910Y26583
X5910Y26583
X4910Y26583
X3910Y26583
X2910Y26583
X1910Y26583
X910Y26583
X3455Y28253
X3455Y29253
X4455Y29253
X4455Y28253
X5455Y28253
X5455Y29253
X6455Y29253
X6455Y28253
X7455Y28253
X7455Y29253
X8455Y29253
X8455Y28253
X9455Y28253
X9455Y29253
X10455Y29253
X10455Y28253
X11455Y28253
X11455Y29253
X12455Y29253
X12455Y28253
X13455Y28253
X13455Y29253
X14455Y29253
X14455Y28253
X15455Y28253
X15455Y29253
X16455Y29253
X16455Y28253
X17455Y28253
X17455Y29253
X18455Y29253
X19455Y29253
X19455Y28253
X18455Y28253
X20455Y28253
X20455Y29253
X21455Y29253
X21455Y28253
X22455Y28253
X22455Y29253
X22910Y26583
X23910Y26583
X24910Y26583
T04
X24373Y28753
X24373Y9461
X1538Y9461
X1538Y28753
M30
