G75*
%MOIN*%
%OFA0B0*%
%FSLAX24Y24*%
%IPPOS*%
%LPD*%
%AMOC8*
5,1,8,0,0,1.08239X$1,22.5*
%
%ADD10C,0.0040*%
%ADD11C,0.0100*%
%ADD12C,0.0080*%
%ADD13C,0.0060*%
%ADD14R,0.0100X0.0250*%
%ADD15R,0.0300X0.0180*%
%ADD16C,0.0220*%
%ADD17C,0.0010*%
%ADD18C,0.0157*%
%ADD19C,0.0050*%
%ADD20C,0.0160*%
%ADD21R,0.0280X0.0160*%
%ADD22R,0.0160X0.0280*%
D10*
X016180Y014355D02*
X016120Y014415D01*
X016120Y014535D01*
X016180Y014595D01*
X016120Y014723D02*
X016120Y014963D01*
X016120Y014843D02*
X016480Y014843D01*
X016360Y014723D01*
X016420Y014595D02*
X016480Y014535D01*
X016480Y014415D01*
X016420Y014355D01*
X016180Y014355D01*
X017120Y014305D02*
X017480Y014305D01*
X017480Y014485D01*
X017420Y014545D01*
X017300Y014545D01*
X017240Y014485D01*
X017240Y014305D01*
X017240Y014425D02*
X017120Y014545D01*
X017120Y014673D02*
X017360Y014913D01*
X017420Y014913D01*
X017480Y014853D01*
X017480Y014733D01*
X017420Y014673D01*
X017120Y014673D02*
X017120Y014913D01*
X018860Y016791D02*
X019100Y016791D01*
X018860Y016791D01*
X018860Y017152D01*
X019100Y017152D01*
X018860Y017152D01*
X018860Y016791D01*
X019100Y016791D01*
X018860Y016791D01*
X018860Y017152D01*
X019100Y017152D01*
X018860Y017152D01*
X018860Y016791D01*
X018860Y016972D02*
X018980Y016972D01*
X018860Y016972D01*
X018980Y016972D01*
X018860Y016972D01*
X019228Y016972D02*
X019349Y016972D01*
X019228Y016972D01*
X019349Y016972D01*
X019228Y016972D01*
X019228Y017152D02*
X019228Y016791D01*
X019469Y016791D01*
X019228Y016791D01*
X019228Y017152D01*
X019469Y017152D01*
X019228Y017152D01*
X019228Y016791D01*
X019469Y016791D01*
X019228Y016791D01*
X019228Y017152D01*
X019469Y017152D01*
X019228Y017152D01*
X019597Y017152D02*
X019777Y017152D01*
X019837Y017092D01*
X019837Y016972D01*
X019777Y016912D01*
X019597Y016912D01*
X019777Y016912D01*
X019837Y016972D01*
X019837Y017092D01*
X019777Y017152D01*
X019597Y017152D01*
X019597Y016791D01*
X019597Y017152D01*
X019777Y017152D01*
X019837Y017092D01*
X019837Y016972D01*
X019777Y016912D01*
X019597Y016912D01*
X019777Y016912D01*
X019837Y016972D01*
X019837Y017092D01*
X019777Y017152D01*
X019597Y017152D01*
X019597Y016791D01*
X019597Y017152D01*
X019965Y017152D02*
X020145Y017152D01*
X020205Y017092D01*
X020205Y016972D01*
X020145Y016912D01*
X019965Y016912D01*
X020145Y016912D01*
X020205Y016972D01*
X020205Y017092D01*
X020145Y017152D01*
X019965Y017152D01*
X019965Y016791D01*
X019965Y017152D01*
X020145Y017152D01*
X020205Y017092D01*
X020205Y016972D01*
X020145Y016912D01*
X019965Y016912D01*
X020145Y016912D01*
X020205Y016972D01*
X020205Y017092D01*
X020145Y017152D01*
X019965Y017152D01*
X019965Y016791D01*
X019965Y017152D01*
X020085Y016912D02*
X020205Y016791D01*
X020085Y016912D01*
X020205Y016791D01*
X020085Y016912D01*
X020333Y016852D02*
X020333Y017092D01*
X020393Y017152D01*
X020514Y017152D01*
X020574Y017092D01*
X020574Y016852D01*
X020514Y016791D01*
X020393Y016791D01*
X020333Y016852D01*
X020393Y016791D01*
X020514Y016791D01*
X020574Y016852D01*
X020574Y017092D01*
X020514Y017152D01*
X020393Y017152D01*
X020333Y017092D01*
X020333Y016852D01*
X020393Y016791D01*
X020514Y016791D01*
X020574Y016852D01*
X020574Y017092D01*
X020514Y017152D01*
X020393Y017152D01*
X020333Y017092D01*
X020333Y016852D01*
X020393Y016791D01*
X020514Y016791D01*
X020574Y016852D01*
X020574Y017092D01*
X020514Y017152D01*
X020393Y017152D01*
X020333Y017092D01*
X020333Y016852D01*
X020702Y016791D02*
X020702Y017152D01*
X020822Y017032D01*
X020942Y017152D01*
X020942Y016791D01*
X020942Y017152D01*
X020822Y017032D01*
X020702Y017152D01*
X020702Y016791D01*
X020702Y017152D01*
X020822Y017032D01*
X020942Y017152D01*
X020942Y016791D01*
X020942Y017152D01*
X020822Y017032D01*
X020702Y017152D01*
X020702Y016791D01*
X021030Y014150D02*
X020970Y014090D01*
X020970Y013970D01*
X021030Y013910D01*
X020970Y013782D02*
X021090Y013662D01*
X021090Y013722D02*
X021090Y013541D01*
X020970Y013541D02*
X021330Y013541D01*
X021330Y013722D01*
X021270Y013782D01*
X021150Y013782D01*
X021090Y013722D01*
X021270Y013910D02*
X021330Y013970D01*
X021330Y014090D01*
X021270Y014150D01*
X021210Y014150D01*
X021150Y014090D01*
X021090Y014150D01*
X021030Y014150D01*
X021150Y014090D02*
X021150Y014030D01*
X020180Y013980D02*
X020060Y013860D01*
X020000Y013732D02*
X019940Y013672D01*
X019940Y013491D01*
X019820Y013491D02*
X020180Y013491D01*
X020180Y013672D01*
X020120Y013732D01*
X020000Y013732D01*
X019940Y013612D02*
X019820Y013732D01*
X019820Y013860D02*
X019820Y014100D01*
X019820Y013980D02*
X020180Y013980D01*
D11*
X016251Y007026D02*
X016253Y007033D01*
X016258Y007038D01*
X016265Y007040D01*
X016272Y007038D01*
X016277Y007033D01*
X016279Y007026D01*
X016277Y007019D01*
X016272Y007014D01*
X016265Y007012D01*
X016258Y007014D01*
X016253Y007019D01*
X016251Y007026D01*
X012651Y006326D02*
X012653Y006333D01*
X012658Y006338D01*
X012665Y006340D01*
X012672Y006338D01*
X012677Y006333D01*
X012679Y006326D01*
X012677Y006319D01*
X012672Y006314D01*
X012665Y006312D01*
X012658Y006314D01*
X012653Y006319D01*
X012651Y006326D01*
X003795Y020041D02*
X003045Y020041D01*
D12*
X002945Y020341D02*
X002945Y022341D01*
X022945Y022341D01*
X022945Y020341D01*
X002945Y020341D01*
X008299Y008133D02*
X009401Y008133D01*
X009401Y007010D02*
X008299Y007010D01*
X011690Y006791D02*
X011690Y006152D01*
X011727Y006152D01*
X011727Y006791D02*
X011690Y006791D01*
X012773Y006791D02*
X012810Y006791D01*
X012810Y006152D01*
X012773Y006152D01*
X015290Y006852D02*
X015327Y006852D01*
X015290Y006852D02*
X015290Y007491D01*
X015327Y007491D01*
X016373Y007491D02*
X016410Y007491D01*
X016410Y006852D01*
X016373Y006852D01*
X021485Y012828D02*
X022115Y012828D01*
X022115Y013615D02*
X021485Y013615D01*
D13*
X021005Y014761D02*
X018995Y014761D01*
X018995Y016621D02*
X021005Y016621D01*
D14*
X021895Y016441D03*
D15*
X020700Y013921D03*
X019550Y013921D03*
X017750Y014721D03*
D16*
X016762Y014721D02*
X016738Y014721D01*
D17*
X001400Y007971D02*
X001400Y007697D01*
X001130Y007697D01*
X001104Y007747D01*
X000822Y007747D01*
X000782Y007699D01*
X000764Y007699D01*
X000764Y007499D01*
X000780Y007499D01*
X000780Y007673D01*
X000780Y007695D01*
X000758Y007695D01*
X000758Y007673D01*
X000666Y007673D01*
X000640Y007645D01*
X000640Y007519D01*
X000662Y007497D01*
X000780Y007497D01*
X000472Y007497D01*
X000472Y007489D02*
X000780Y007489D01*
X000780Y007497D02*
X000780Y007467D01*
X000820Y007419D01*
X001104Y007419D01*
X001128Y007469D01*
X001402Y007469D01*
X001402Y007195D01*
X000472Y007195D01*
X000472Y007971D01*
X001400Y007971D01*
X001400Y007965D02*
X000472Y007965D01*
X000472Y007956D02*
X001400Y007956D01*
X001400Y007948D02*
X000472Y007948D01*
X000472Y007939D02*
X001400Y007939D01*
X001400Y007931D02*
X000472Y007931D01*
X000472Y007922D02*
X001400Y007922D01*
X001400Y007914D02*
X000472Y007914D01*
X000472Y007905D02*
X001400Y007905D01*
X001400Y007897D02*
X000472Y007897D01*
X000472Y007888D02*
X001400Y007888D01*
X001400Y007880D02*
X000472Y007880D01*
X000472Y007871D02*
X001400Y007871D01*
X001400Y007863D02*
X000472Y007863D01*
X000472Y007854D02*
X001400Y007854D01*
X001400Y007846D02*
X000472Y007846D01*
X000472Y007837D02*
X001400Y007837D01*
X001400Y007829D02*
X000472Y007829D01*
X000472Y007820D02*
X001400Y007820D01*
X001400Y007812D02*
X000472Y007812D01*
X000472Y007803D02*
X001400Y007803D01*
X001400Y007795D02*
X000472Y007795D01*
X000472Y007786D02*
X001400Y007786D01*
X001400Y007778D02*
X000472Y007778D01*
X000472Y007769D02*
X001400Y007769D01*
X001400Y007761D02*
X000472Y007761D01*
X000472Y007752D02*
X001400Y007752D01*
X001400Y007744D02*
X001106Y007744D01*
X001110Y007735D02*
X001400Y007735D01*
X001400Y007727D02*
X001115Y007727D01*
X001119Y007718D02*
X001400Y007718D01*
X001400Y007710D02*
X001124Y007710D01*
X001128Y007701D02*
X001400Y007701D01*
X001402Y007463D02*
X001125Y007463D01*
X001121Y007455D02*
X001402Y007455D01*
X001402Y007446D02*
X001117Y007446D01*
X001113Y007438D02*
X001402Y007438D01*
X001402Y007429D02*
X001109Y007429D01*
X001105Y007421D02*
X001402Y007421D01*
X001402Y007412D02*
X000472Y007412D01*
X000472Y007404D02*
X001402Y007404D01*
X001402Y007395D02*
X000472Y007395D01*
X000472Y007387D02*
X001402Y007387D01*
X001402Y007378D02*
X000472Y007378D01*
X000472Y007370D02*
X001402Y007370D01*
X001402Y007361D02*
X000472Y007361D01*
X000472Y007353D02*
X001402Y007353D01*
X001402Y007344D02*
X000472Y007344D01*
X000472Y007336D02*
X001402Y007336D01*
X001402Y007327D02*
X000472Y007327D01*
X000472Y007319D02*
X001402Y007319D01*
X001402Y007310D02*
X000472Y007310D01*
X000472Y007302D02*
X001402Y007302D01*
X001402Y007293D02*
X000472Y007293D01*
X000472Y007285D02*
X001402Y007285D01*
X001402Y007276D02*
X000472Y007276D01*
X000472Y007268D02*
X001402Y007268D01*
X001402Y007259D02*
X000472Y007259D01*
X000472Y007251D02*
X001402Y007251D01*
X001402Y007242D02*
X000472Y007242D01*
X000472Y007234D02*
X001402Y007234D01*
X001402Y007225D02*
X000472Y007225D01*
X000472Y007217D02*
X001402Y007217D01*
X001402Y007208D02*
X000472Y007208D01*
X000472Y007200D02*
X001402Y007200D01*
X000819Y007421D02*
X000472Y007421D01*
X000472Y007429D02*
X000812Y007429D01*
X000805Y007438D02*
X000472Y007438D01*
X000472Y007446D02*
X000798Y007446D01*
X000791Y007455D02*
X000472Y007455D01*
X000472Y007463D02*
X000784Y007463D01*
X000780Y007472D02*
X000472Y007472D01*
X000472Y007480D02*
X000780Y007480D01*
X000780Y007506D02*
X000764Y007506D01*
X000764Y007514D02*
X000780Y007514D01*
X000780Y007523D02*
X000764Y007523D01*
X000764Y007531D02*
X000780Y007531D01*
X000780Y007540D02*
X000764Y007540D01*
X000764Y007548D02*
X000780Y007548D01*
X000780Y007557D02*
X000764Y007557D01*
X000764Y007565D02*
X000780Y007565D01*
X000780Y007574D02*
X000764Y007574D01*
X000764Y007582D02*
X000780Y007582D01*
X000780Y007591D02*
X000764Y007591D01*
X000764Y007599D02*
X000780Y007599D01*
X000780Y007608D02*
X000764Y007608D01*
X000764Y007616D02*
X000780Y007616D01*
X000780Y007625D02*
X000764Y007625D01*
X000764Y007633D02*
X000780Y007633D01*
X000780Y007642D02*
X000764Y007642D01*
X000764Y007650D02*
X000780Y007650D01*
X000780Y007659D02*
X000764Y007659D01*
X000764Y007667D02*
X000780Y007667D01*
X000780Y007676D02*
X000764Y007676D01*
X000758Y007676D02*
X000472Y007676D01*
X000472Y007684D02*
X000758Y007684D01*
X000764Y007684D02*
X000780Y007684D01*
X000780Y007693D02*
X000764Y007693D01*
X000758Y007693D02*
X000472Y007693D01*
X000472Y007701D02*
X000783Y007701D01*
X000791Y007710D02*
X000472Y007710D01*
X000472Y007718D02*
X000798Y007718D01*
X000805Y007727D02*
X000472Y007727D01*
X000472Y007735D02*
X000812Y007735D01*
X000819Y007744D02*
X000472Y007744D01*
X000472Y007667D02*
X000660Y007667D01*
X000652Y007659D02*
X000472Y007659D01*
X000472Y007650D02*
X000644Y007650D01*
X000640Y007642D02*
X000472Y007642D01*
X000472Y007633D02*
X000640Y007633D01*
X000640Y007625D02*
X000472Y007625D01*
X000472Y007616D02*
X000640Y007616D01*
X000640Y007608D02*
X000472Y007608D01*
X000472Y007599D02*
X000640Y007599D01*
X000640Y007591D02*
X000472Y007591D01*
X000472Y007582D02*
X000640Y007582D01*
X000640Y007574D02*
X000472Y007574D01*
X000472Y007565D02*
X000640Y007565D01*
X000640Y007557D02*
X000472Y007557D01*
X000472Y007548D02*
X000640Y007548D01*
X000640Y007540D02*
X000472Y007540D01*
X000472Y007531D02*
X000640Y007531D01*
X000640Y007523D02*
X000472Y007523D01*
X000472Y007514D02*
X000645Y007514D01*
X000654Y007506D02*
X000472Y007506D01*
D18*
X008437Y007158D03*
D19*
X008175Y006126D02*
X007725Y006126D01*
X007875Y006126D02*
X007875Y006351D01*
X007950Y006426D01*
X008100Y006426D01*
X008175Y006351D01*
X008175Y006126D01*
X007875Y006276D02*
X007725Y006426D01*
X007950Y006586D02*
X007950Y006886D01*
X007725Y006811D02*
X008175Y006811D01*
X007950Y006586D01*
X007750Y007121D02*
X007750Y007221D01*
X008493Y008319D02*
X008793Y008319D01*
X008493Y008620D01*
X008493Y008695D01*
X008568Y008770D01*
X008718Y008770D01*
X008793Y008695D01*
X008953Y008770D02*
X008953Y008394D01*
X009028Y008319D01*
X009179Y008319D01*
X009254Y008394D01*
X009254Y008770D01*
X010575Y008907D02*
X010575Y008607D01*
X010875Y008907D01*
X010950Y008907D01*
X011025Y008832D01*
X011025Y008682D01*
X010950Y008607D01*
X010950Y008447D02*
X011025Y008372D01*
X011025Y008222D01*
X010950Y008146D01*
X010650Y008146D01*
X010575Y008222D01*
X010575Y008372D01*
X010650Y008447D01*
X012275Y008422D02*
X012350Y008497D01*
X012275Y008422D02*
X012275Y008272D01*
X012350Y008196D01*
X012650Y008196D01*
X012725Y008272D01*
X012725Y008422D01*
X012650Y008497D01*
X012650Y008657D02*
X012725Y008732D01*
X012725Y008882D01*
X012650Y008957D01*
X012575Y008957D01*
X012500Y008882D01*
X012425Y008957D01*
X012350Y008957D01*
X012275Y008882D01*
X012275Y008732D01*
X012350Y008657D01*
X012500Y008807D02*
X012500Y008882D01*
X014689Y009796D02*
X014689Y010247D01*
X014915Y010022D01*
X014614Y010022D01*
X015075Y010172D02*
X015150Y010247D01*
X015300Y010247D01*
X015375Y010172D01*
X015375Y009872D01*
X015300Y009796D01*
X015150Y009796D01*
X015075Y009872D01*
X015814Y009872D02*
X015889Y009796D01*
X016040Y009796D01*
X016115Y009872D01*
X016115Y010022D02*
X015964Y010097D01*
X015889Y010097D01*
X015814Y010022D01*
X015814Y009872D01*
X015814Y010247D02*
X016115Y010247D01*
X016115Y010022D01*
X016275Y010172D02*
X016350Y010247D01*
X016500Y010247D01*
X016575Y010172D01*
X016575Y009872D01*
X016500Y009796D01*
X016350Y009796D01*
X016275Y009872D01*
X016700Y007486D02*
X016775Y007486D01*
X016850Y007411D01*
X016850Y007186D01*
X016700Y007186D01*
X016625Y007261D01*
X016625Y007411D01*
X016700Y007486D01*
X017000Y007336D02*
X016850Y007186D01*
X016850Y007026D02*
X016775Y006951D01*
X016775Y006726D01*
X016775Y006876D02*
X016625Y007026D01*
X016850Y007026D02*
X017000Y007026D01*
X017075Y006951D01*
X017075Y006726D01*
X016625Y006726D01*
X016321Y006347D02*
X016321Y005972D01*
X016246Y005896D01*
X016096Y005896D01*
X016021Y005972D01*
X016021Y006347D01*
X015860Y006122D02*
X015560Y006122D01*
X015635Y006347D02*
X015635Y005896D01*
X015860Y006122D02*
X015635Y006347D01*
X017000Y007336D02*
X017075Y007486D01*
X013925Y006147D02*
X013925Y005696D01*
X013925Y005847D02*
X013700Y005847D01*
X013625Y005922D01*
X013625Y006072D01*
X013700Y006147D01*
X013925Y006147D01*
X013775Y005847D02*
X013625Y005696D01*
X013465Y005772D02*
X013390Y005696D01*
X013239Y005696D01*
X013164Y005772D01*
X013164Y005922D01*
X013239Y005997D01*
X013314Y005997D01*
X013465Y005922D01*
X013465Y006147D01*
X013164Y006147D01*
X012671Y005647D02*
X012671Y005272D01*
X012596Y005196D01*
X012446Y005196D01*
X012371Y005272D01*
X012371Y005647D01*
X012210Y005572D02*
X012135Y005647D01*
X011985Y005647D01*
X011910Y005572D01*
X011910Y005497D01*
X011985Y005422D01*
X011910Y005347D01*
X011910Y005272D01*
X011985Y005196D01*
X012135Y005196D01*
X012210Y005272D01*
X012060Y005422D02*
X011985Y005422D01*
D20*
X011988Y008521D02*
X012012Y008521D01*
X011312Y008521D02*
X011288Y008521D01*
X015050Y009509D02*
X015050Y009534D01*
X016250Y009534D02*
X016250Y009509D01*
D21*
X017400Y007271D03*
X007450Y006671D03*
D22*
X013600Y006421D03*
M02*
